<svg width="74" height="74" viewBox="0 0 74 74" fill="none" xmlns="http://www.w3.org/2000/svg">
<circle cx="37" cy="37" r="35.5" stroke="#1C1C1C"/>
<path d="M39.1667 17.6154H30.8333C30.6123 17.6154 30.4004 17.5303 30.2441 17.3788C30.0878 17.2273 30 17.0219 30 16.8077C30 16.5935 30.0878 16.388 30.2441 16.2366C30.4004 16.0851 30.6123 16 30.8333 16H39.1667C39.3877 16 39.5996 16.0851 39.7559 16.2366C39.9122 16.388 40 16.5935 40 16.8077C40 17.0219 39.9122 17.2273 39.7559 17.3788C39.5996 17.5303 39.3877 17.6154 39.1667 17.6154ZM35.8333 58H34.1667C33.9457 58 33.7337 57.9149 33.5774 57.7634C33.4211 57.612 33.3333 57.4065 33.3333 57.1923C33.3333 56.9781 33.4211 56.7727 33.5774 56.6212C33.7337 56.4697 33.9457 56.3846 34.1667 56.3846H35.8333C36.0543 56.3846 36.2663 56.4697 36.4226 56.6212C36.5789 56.7727 36.6667 56.9781 36.6667 57.1923C36.6667 57.4065 36.5789 57.612 36.4226 57.7634C36.2663 57.9149 36.0543 58 35.8333 58Z" fill="#1C1C1C"/>
<path d="M43.9375 61H26.0625C24.9853 60.9992 23.9525 60.5775 23.1908 59.8275C22.4291 59.0775 22.0009 58.0606 22 57V17C22 14.7936 23.8216 13 26.0625 13H43.9375C46.1784 13 48 14.7936 48 17V20.2C48 20.4122 47.9144 20.6157 47.762 20.7657C47.6097 20.9157 47.403 21 47.1875 21C46.972 21 46.7653 20.9157 46.613 20.7657C46.4606 20.6157 46.375 20.4122 46.375 20.2V17C46.375 15.6768 45.2814 14.6 43.9375 14.6H26.0625C24.7186 14.6 23.625 15.6768 23.625 17V57C23.625 58.3232 24.7186 59.4 26.0625 59.4H43.9375C45.2814 59.4 46.375 58.3232 46.375 57V44.2C46.375 43.9878 46.4606 43.7843 46.613 43.6343C46.7653 43.4843 46.972 43.4 47.1875 43.4C47.403 43.4 47.6097 43.4843 47.762 43.6343C47.9144 43.7843 48 43.9878 48 44.2V57C48 59.2064 46.1784 61 43.9375 61Z" fill="#1C1C1C"/>
<path d="M39.5588 48C39.3482 48 39.1462 47.9177 38.9973 47.7712C38.8484 47.6247 38.7647 47.426 38.7647 47.2188V41.75H36.3824C35.0689 41.75 34 40.6984 34 39.4062V25.3438C34 24.0516 35.0689 23 36.3824 23H58.6176C59.9311 23 61 24.0516 61 25.3438V39.4062C61 40.6984 59.9311 41.75 58.6176 41.75H45.0986L40.1751 47.7109C40.1007 47.8013 40.0068 47.8741 39.9002 47.9241C39.7936 47.9741 39.6769 48 39.5588 48ZM36.3824 24.5625C36.1717 24.5625 35.9698 24.6448 35.8208 24.7913C35.6719 24.9378 35.5882 25.1365 35.5882 25.3438V39.4062C35.5882 39.6135 35.6719 39.8122 35.8208 39.9587C35.9698 40.1052 36.1717 40.1875 36.3824 40.1875H39.5588C39.7694 40.1875 39.9714 40.2698 40.1203 40.4163C40.2693 40.5628 40.3529 40.7615 40.3529 40.9688V45.0187L44.1044 40.4766C44.1786 40.3862 44.2725 40.3133 44.3791 40.2633C44.4858 40.2132 44.6024 40.1873 44.7206 40.1875H58.6176C58.8283 40.1875 59.0302 40.1052 59.1792 39.9587C59.3281 39.8122 59.4118 39.6135 59.4118 39.4062V25.3438C59.4118 25.1365 59.3281 24.9378 59.1792 24.7913C59.0302 24.6448 58.8283 24.5625 58.6176 24.5625H36.3824Z" fill="#1C1C1C"/>
<path d="M50.4254 35.4C50.6375 35.4 50.841 35.3157 50.9911 35.1657C51.1411 35.0157 51.2254 34.8122 51.2254 34.6C51.2254 34.3878 51.1411 34.1844 50.9911 34.0343C50.841 33.8843 50.6375 33.8 50.4254 33.8C50.2132 33.8 50.0097 33.8843 49.8597 34.0343C49.7097 34.1844 49.6254 34.3878 49.6254 34.6C49.6254 34.8122 49.7097 35.0157 49.8597 35.1657C50.0097 35.3157 50.2132 35.4 50.4254 35.4ZM47.251 35.3744C47.4631 35.3744 47.6666 35.2901 47.8167 35.1401C47.9667 34.9901 48.051 34.7866 48.051 34.5744C48.051 34.3622 47.9667 34.1588 47.8167 34.0087C47.6666 33.8587 47.4631 33.7744 47.251 33.7744C47.0388 33.7744 46.8353 33.8587 46.6853 34.0087C46.5353 34.1588 46.451 34.3622 46.451 34.5744C46.451 34.7866 46.5353 34.9901 46.6853 35.1401C46.8353 35.2901 47.0388 35.3744 47.251 35.3744ZM44.051 35.3744C44.2631 35.3744 44.4666 35.2901 44.6167 35.1401C44.7667 34.9901 44.851 34.7866 44.851 34.5744C44.851 34.3622 44.7667 34.1588 44.6167 34.0087C44.4666 33.8587 44.2631 33.7744 44.051 33.7744C43.8388 33.7744 43.6353 33.8587 43.4853 34.0087C43.3353 34.1588 43.251 34.3622 43.251 34.5744C43.251 34.7866 43.3353 34.9901 43.4853 35.1401C43.6353 35.2901 43.8388 35.3744 44.051 35.3744Z" fill="#1C1C1C"/>
</svg>
