<svg width="100" height="100" fill="none" xmlns="http://www.w3.org/2000/svg"><g clip-path="url(#a)"><path d="M58.721 29.623a424.225 424.225 0 0 0-2.035 7.805c-1.228 4.895-3.55 17.578-4.256 25.955-.37.168-1.463.32-1.985.32-1.699 0-3.684-1.044-3.801-3.735-.169-3.33 1.783-15.643 4.726-27.048.101-.353.185-.706.286-1.06a154.84 154.84 0 0 0-10.462 4.02c-1.178 5.181-2.742 13.104-3.33 20.96-.118.117-1.229.285-1.784.285-2.018 0-3.431-1.345-3.414-3.633.016-4.474 1.009-10.345 1.867-14.584-4.256 2.07-7.452 3.87-9.252 4.946-.32-.606-.42-1.582-.336-2.053.1-.672.504-2.153 2.12-3.28a91.147 91.147 0 0 1 8.712-5.298C37.41 26.562 39.63 19.8 41.48 15.796c1.194-2.59 2.725-3.566 5.349-3.566.69 0 1.631.169 2.136.32-2.372 5.147-4.592 11.27-6.308 17.36a122.181 122.181 0 0 1 10.597-4.021c1.867-6.493 3.533-11.135 5.097-14.08.976-1.85 2.59-2.59 4.054-2.758 1.295-.151 2.422.017 3.431.286-2.422 5.787-4.02 10.076-5.4 14.466 2.625-.69 5.384-1.362 8.294-1.968 1.58-.336 7.283-1.346 8.326 4.188-6.409.64-12.599 1.969-18.335 3.6ZM33.624 71.12c-.992 0-1.985.909-1.985 1.951 0 .757.539 1.296 1.279 1.296.992 0 2.002-.926 2.002-1.951.016-.774-.556-1.296-1.296-1.296Zm-6.846.892c-.555 2.742-2.338 11.37-2.338 11.37-.118.472-.757 2.961 1.85 2.961h.387l3.415-16.552s-2.759-.487-3.314 2.22Zm4.054 5.752c-.572 2.675-1.16 5.618-1.16 5.618-.118.472-.758 2.961 1.867 2.961h.386l2.22-10.766c-.117.017-2.741-.453-3.313 2.187Zm-7.536 1.481c0 2.287-.925 4.457-2.54 5.77-1.009.84-2.371 1.345-3.885 1.345-2.422 0-4.155-1.312-4.155-3.852 0-2.271.925-4.44 2.54-5.736 1.026-.84 2.372-1.346 3.902-1.346 2.389-.017 4.138 1.262 4.138 3.819Zm-2.927.016c0-1.127-.437-1.934-1.58-1.934-.724 0-1.363.42-1.834 1.026-.892 1.127-1.346 2.927-1.346 4.155 0 1.144.454 1.951 1.615 1.951.723 0 1.312-.42 1.8-1.026.891-1.144 1.345-2.96 1.345-4.172Zm54.45-7.973c-.438 2.019-2.506 12.094-2.506 12.094-.118.59-.707 2.961 1.85 2.961h.386l3.533-17.174c-.673-.1-2.792-.1-3.263 2.12Zm10.16 4.121c-1.38 0-2.557.623-3.298 1.464 0 0-.1-2.102-2.859-1.262.504 1.464.219 1.985-.336 4.929l-.589 2.86c-.101.487-.757 2.96 1.85 2.96h.387l1.026-4.963c.286-1.328.825-3.851 2.826-3.851.992 0 1.514.622 1.194 2.153l-.757 3.7c-.117.472-.757 2.961 1.85 2.961h.388l1.395-6.779c.623-2.91-.89-4.172-3.078-4.172Zm-74.887-3.986c-.118.623-.42 2.001-.892 4.256l-4.81.959 1.413-6.83c-.438-.084-2.826-.27-3.297 2.204-.152.774-2.355 11.37-2.355 11.37-.118.555-.757 2.961 1.85 2.961h.404L3.8 79.632l4.81-.96c-.47 2.306-.975 4.71-.975 4.71-.118.472-.757 2.961 1.85 2.961h.387l3.55-17.174c-.017 0-2.76-.488-3.331 2.254ZM96.77 75.41c-1.38 0-2.557.623-3.297 1.464 0 0-.101-2.102-2.86-1.262.505 1.464.219 1.985-.336 4.929l-.589 2.86c-.1.487-.757 2.96 1.867 2.96h.387l1.026-4.963c.286-1.328.825-3.851 2.826-3.851.993 0 1.514.622 1.194 2.153l-.757 3.7c-.117.472-.756 2.961 1.851 2.961h.387l1.396-6.779c.606-2.91-.909-4.172-3.095-4.172Zm-54.298 2.002c-.151-.084-.521-.168-.84-.168-2.221 0-4.021 2.725-4.021 5.248 0 1.228.589 1.918 1.547 1.918.69 0 1.178-.27 1.565-.69.387-.454.656-1.127.824-1.918l.925-4.39Zm4.407-7.62-3.414 16.552h-.387c-.875 0-1.632-.32-1.884-1.11-.606.639-1.632 1.11-2.927 1.11-2.187 0-3.617-1.464-3.617-3.785 0-3.784 2.96-7.149 7.116-7.149.42 0 .84.034 1.076.102-.033.117.454-2.137.707-3.45.538-2.674 3.095-2.287 3.33-2.27Zm10.093 6.61-2.052 9.942h-.387c-.875 0-1.632-.302-1.884-1.11-.589.639-1.632 1.11-2.927 1.11-2.187 0-3.499-1.43-3.499-3.768 0-3.986 3.146-7.183 7.115-7.183 1.363.017 2.523.404 3.634 1.01Zm-3.045.993c-.185-.084-.387-.168-.656-.168-2.523 0-4.121 3.045-4.121 5.265 0 1.228.488 1.884 1.463 1.884.69 0 1.212-.27 1.598-.69.387-.454.64-1.127.808-1.917l.908-4.374Zm11.64.488c.589-2.741 3.364-2.27 3.364-2.27l-1.95 9.167c-.388 1.85-.909 3.145-1.767 4.104-1.043 1.16-2.658 1.867-4.727 1.867-2.405 0-4.205-1.076-4.205-2.91 0-1.228.774-2.12 2.456-2.523a2.748 2.748 0 0 1-.723-1.884c0-.538.117-1.194.269-1.834 0 0 .117-.504.757-3.532.656-3.028 3.398-2.473 3.398-2.473l-1.279 6.09c-.118.521-.673 2.523 1.127 2.523 2.036 0 2.506-2.523 2.776-3.852-.034 0-.085.269.504-2.473Zm-1.614 7.435c-.555.505-1.548.757-2.658.892-1.565.185-2.624.437-2.624 1.53 0 .841.84 1.312 1.833 1.312.808 0 1.548-.286 2.086-.807.555-.538.959-1.312 1.16-2.153l.203-.774Z" fill="#767C7E"/></g><defs><clipPath id="a"><path fill="#fff" d="M0 0h100v100H0z"/></clipPath></defs></svg>