<svg width="100" height="100" fill="none" xmlns="http://www.w3.org/2000/svg"><path d="M15.498 69.52V67.7h-2.242v1.821h-.44v-3.942h.44v1.7h2.242v-1.7h.44v3.942h-.44Zm4.664.08c-1.24 0-1.882-.98-1.882-2.062 0-1.08.641-2.04 1.882-2.04 1.241 0 1.882.96 1.882 2.04 0 1.083-.64 2.063-1.882 2.063Zm0-3.682c-.92 0-1.417.78-1.417 1.62 0 .862.496 1.643 1.417 1.643s1.417-.78 1.417-1.643c0-.82-.496-1.62-1.417-1.62Zm5.465.08v3.522h-.44v-3.522h-1.441v-.42h3.303v.42h-1.422ZM40.42 69.6c-.46 0-.98-.12-1.281-.26v-.401c.34.14.801.26 1.28.26.621 0 .942-.32.942-.72 0-1.161-2.203-.42-2.203-1.942 0-.62.461-1.04 1.322-1.04.36 0 .78.08 1.081.2v.4c-.32-.12-.721-.2-1.02-.2-.621 0-.962.22-.962.62 0 1.1 2.222.4 2.222 1.962 0 .66-.56 1.12-1.381 1.12Zm34.01-4.023h1.461c.66 0 1.24.42 1.24 1.12 0 .66-.42 1.02-.92 1.102l1.18 1.72h-.52l-1.14-1.641h-.861v1.641h-.44v-3.942Zm.44 1.88h.961c.48 0 .86-.22.86-.74 0-.5-.36-.72-.821-.72h-1v1.46Zm6.066-1.46v3.522h-.441v-3.522h-1.42v-.42h3.281v.42h-1.42ZM70.266 69.6c-1.241 0-1.881-.98-1.881-2.063 0-1.08.64-2.04 1.881-2.04 1.24 0 1.882.96 1.882 2.04 0 1.083-.641 2.063-1.882 2.063Zm0-3.683c-.921 0-1.417.78-1.417 1.62 0 .862.496 1.643 1.417 1.643.92 0 1.417-.78 1.417-1.643 0-.82-.497-1.62-1.417-1.62Zm-16.855-.34h1.461c.661 0 1.242.42 1.242 1.12 0 .66-.421 1.02-.921 1.102l1.18 1.72h-.52l-1.14-1.641h-.861v1.641h-.44v-3.942Zm.44 1.88h.962c.48 0 .86-.22.86-.74 0-.5-.36-.72-.821-.72h-1v1.46Zm10.97 2.143c-.46 0-.981-.12-1.281-.26v-.401c.34.14.8.26 1.281.26.62 0 .941-.32.941-.72 0-1.161-2.202-.42-2.202-1.922 0-.54.38-1.06 1.281-1.06.4 0 .821.08 1.121.2v.42c-.32-.12-.72-.22-1.1-.22-.581 0-.881.28-.881.66 0 1.06 2.222.36 2.222 1.922 0 .66-.561 1.12-1.382 1.12Zm20.818 0c-.46 0-.98-.12-1.28-.26v-.401c.339.14.8.26 1.28.26.62 0 .94-.32.94-.72 0-1.161-2.2-.42-2.2-1.922 0-.54.38-1.06 1.28-1.06.4 0 .82.08 1.121.2v.42c-.32-.12-.72-.22-1.1-.22-.581 0-.881.28-.881.66 0 1.06 2.222.36 2.222 1.922 0 .66-.56 1.12-1.382 1.12Zm-36.591-.08h.56l-2.041-2.042c-.442-.46-.575-.661-.575-.94 0-.421.334-.642.755-.642.26 0 .52.04.8.14v-.38c-.26-.1-.5-.14-.8-.14-.882 0-1.214.5-1.214 1.021 0 .3.172.66.413.9l2.102 2.082Zm-2.078-2.362c-.53.194-.958.676-.958 1.317 0 .64.47 1.125 1.298 1.125 1.232 0 1.867-1.035 1.643-2.127h-.387c.157 1.06-.376 1.747-1.202 1.747-.54 0-.931-.249-.931-.745 0-.44.293-.871.798-1.016l-.26-.301ZM35.095 68.54c0 .54.2.62.901.62.26 0 .54-.02.92-.06v.4c-.299.041-.5.08-.98.08-.921 0-1.281-.18-1.281-.98v-3.022h.44v2.962Zm23.66-2.962h2.342v.42h-1.901v1.26h1.822v.422h-1.822v.68c0 .62.2.8.901.8.26 0 .64-.02 1.02-.06v.4c-.299.041-.6.08-1.08.08-.92 0-1.282-.28-1.282-1.22v-2.782Zm-29.285 0h2.342v.42h-1.901v1.26h1.821v.422h-1.821v.68c0 .62.2.8.901.8.26 0 .64-.02 1.02-.06v.4c-.3.041-.6.08-1.081.08-.92 0-1.28-.28-1.28-1.22v-2.782ZM36.103 39.498c11.143.78 18.571-2.682 24.985-8.823-4.802 8.498-15.055 11.54-24.985 8.823ZM11.664 58.336c-3.912 0-6.6-6.508-9.177-8.665v8.665H.202V46.454h.932c3.254 0 6.362 6.856 9.158 9.03v-9.03h2.286v11.882h-.914ZM23.599 48.374c-2.504 0-3.82 1.645-3.82 4.021 0 2.377 1.316 3.985 3.82 3.985 2.523 0 3.838-1.608 3.838-3.985s-1.315-4.021-3.838-4.021Zm0 10.2c-3.857 0-6.252-2.596-6.252-6.179 0-3.637 2.395-6.178 6.252-6.178 3.875 0 6.252 2.54 6.252 6.178 0 3.583-2.377 6.18-6.252 6.18ZM39.463 58.428h-1.097l-5.759-11.974h2.634l3.674 8.208 3.674-8.208h2.668l-5.794 11.974ZM54.27 48.374c-2.505 0-3.821 1.645-3.821 4.021 0 2.377 1.316 3.985 3.82 3.985 2.523 0 3.839-1.608 3.839-3.985s-1.316-4.021-3.839-4.021Zm0 10.2c-3.858 0-6.252-2.596-6.252-6.179 0-3.637 2.394-6.178 6.251-6.178 3.876 0 6.252 2.54 6.252 6.178 0 3.583-2.376 6.18-6.252 6.18ZM69.676 48.52v9.816h-2.303v-9.815h-4.277v-2.066h10.857v2.066h-4.277ZM82.781 58.574c-3.29 0-4.972-1.134-4.972-4.277v-7.842h8.647v2.157h-6.344v2.596h5.868v2.156h-5.868v.988c0 1.609.878 2.028 2.76 2.028 1.683 0 2.596-.11 3.584-.273v2.12c-.988.182-1.846.347-3.675.347ZM95.998 58.574c-3.272 0-4.608-1.261-4.608-4.387v-7.732h2.304v7.768c0 1.628.585 2.157 2.467 2.157 1.627 0 2.65-.127 3.638-.255v2.102c-.987.182-1.973.347-3.802.347Z" fill="#767C7E"/></svg>