<svg width="100" height="100" fill="none" xmlns="http://www.w3.org/2000/svg"><g clip-path="url(#a)" fill="#767C7E"><path d="M10.484 88.15v-2.769H7.602v2.77h-1.13V81.85h1.13v2.515h2.882V81.85h1.13v6.3M15.852 82.67c-1.187 0-1.893.989-1.893 2.317 0 1.27.735 2.317 1.893 2.317 1.187 0 1.865-1.018 1.865-2.317.029-1.272-.706-2.317-1.865-2.317Zm0 5.594c-1.639 0-3.023-1.243-3.023-3.277 0-2.035 1.413-3.278 3.023-3.278s3.024 1.215 3.024 3.278c0 2.034-1.413 3.277-3.024 3.277ZM22.493 82.838v5.313h-1.13v-5.313h-1.978v-.988h5.03l.14.988M25.797 88.15v-6.3h3.9v.988H26.9v1.527h2.232l.17.988H26.9v1.81h2.882v.988M31.309 88.15v-6.3h1.102v5.34h2.401l.142.96M37.921 88.208c-.763 0-1.526-.198-2.176-.48l.17-.99c.593.311 1.413.537 2.063.537.706 0 1.215-.31 1.215-.847 0-.537-.34-.735-1.244-1.018-1.328-.452-1.977-.876-1.977-1.836 0-1.074.904-1.809 2.119-1.809.706 0 1.356.141 1.808.368l-.17 1.045c-.565-.311-1.13-.48-1.695-.48-.621 0-1.045.339-1.045.735 0 .48.339.649 1.328.988 1.328.452 1.893.905 1.893 1.893 0 1.16-.932 1.894-2.289 1.894ZM46.114 85.241c-.537.283-.847.678-.847 1.187 0 .594.423.99 1.101.99.48 0 .933-.199 1.3-.594l-1.554-1.583Zm2.967 2.968-.848-.82c-.508.565-1.186.904-1.95.904-1.356 0-2.09-.65-2.09-1.724 0-.876.565-1.47 1.384-1.893-.395-.452-.593-.82-.593-1.384 0-.848.622-1.555 1.752-1.555.622 0 1.187.17 1.639.396l-.17.99c-.48-.312-.96-.481-1.413-.481-.508 0-.734.282-.734.678l.536.989 1.611 1.667c.198-.424.311-.904.367-1.498l.905.198c-.113.735-.311 1.384-.622 1.95l1.356 1.356-1.13.227ZM56.175 82.81h-.82v2.035h.82c.82 0 1.272-.367 1.272-1.046 0-.65-.453-.989-1.272-.989Zm1.695 5.397-1.836-2.514h-.678v2.43h-1.13V81.82h1.949c1.441 0 2.373.678 2.373 1.922 0 .932-.508 1.526-1.328 1.78L59 87.925l-1.13.282ZM60.3 88.15v-6.3h3.928v.988H61.43v1.527h2.232l.17.988H61.43v1.81h2.882v.988M67.703 88.208c-.763 0-1.526-.198-2.176-.48l.17-.99c.593.311 1.413.537 2.063.537.706 0 1.215-.31 1.215-.847 0-.537-.34-.735-1.243-1.018-1.328-.452-1.978-.876-1.978-1.836 0-1.074.904-1.809 2.119-1.809.734 0 1.356.141 1.836.368l-.17 1.045c-.564-.311-1.13-.48-1.694-.48-.622 0-1.046.339-1.046.735 0 .48.339.649 1.328.988 1.329.452 1.894.905 1.894 1.893 0 1.16-.933 1.894-2.318 1.894ZM73.976 82.67c-1.187 0-1.893.989-1.893 2.317 0 1.27.734 2.317 1.893 2.317 1.187 0 1.865-1.018 1.865-2.317.028-1.272-.706-2.317-1.865-2.317Zm.057 5.594c-1.61 0-3.024-1.243-3.024-3.277 0-2.035 1.413-3.278 3.024-3.278 1.639 0 3.023 1.215 3.023 3.278 0 2.034-1.412 3.277-3.023 3.277ZM80.303 82.81h-.819v2.035h.82c.79 0 1.271-.367 1.271-1.046 0-.65-.452-.989-1.272-.989ZM82 88.207l-1.837-2.514h-.678v2.43h-1.102V81.82h1.95c1.44 0 2.373.678 2.373 1.922 0 .932-.508 1.526-1.328 1.78l1.78 2.402-1.158.282ZM86.748 82.838v5.313h-1.13v-5.313h-1.979v-.988h5.03l.142.988M91.578 88.208c-.763 0-1.498-.198-2.148-.48l.17-.99c.594.311 1.413.537 2.063.537.706 0 1.215-.31 1.215-.847 0-.537-.34-.735-1.243-1.018-1.328-.452-2.007-.876-2.007-1.836 0-1.074.905-1.809 2.12-1.809.706 0 1.356.141 1.808.368l-.17 1.045c-.564-.311-1.13-.48-1.695-.48-.621 0-1.046.339-1.046.735 0 .48.34.649 1.329.988 1.328.452 1.893.905 1.893 1.893.028 1.16-.904 1.894-2.29 1.894ZM48.8 12c-11.161 0-19.412 7.12-19.412 14.75 0 3.927 2.232 7.261 5.001 9.55l.226-.141c-2.204-1.837-4.21-4.69-4.21-8.618.594-8.336 10.88-13.027 19.95-13.027 6.47 0 18.084 1.498 18.084 12.292 0 5.651-6.019 12.97-18.678 12.97-6.443 0-11.472-3.476-11.472-8.449 0-4.295 3.362-7.375 8.364-7.375 1.384 0 2.684.34 3.673.593-2.09-.395-5.312.17-7.008 1.498v7.29h6.16v-8.307a7.44 7.44 0 0 1 2.713 1.045v7.262h1.61c-1.27 1.441-3.616 2.289-5.679 1.978v.311c5.877.452 8.392-2.317 8.392-5.482 0-3.701-3.475-5.849-7.007-6.301v-5.51h-6.16v5.538c-4.013.82-7.94 3.193-7.94 7.121 0 6.075 8.477 9.833 15.823 9.833 11.218 0 19.865-5.425 19.865-13.026 0-9.212-12.49-15.796-22.295-15.796Zm8.562 18.338c0-2.684-1.837-4.832-5.17-5.877v-6.132h6.187v14.976h-1.95c.679-.96.933-2.035.933-2.967ZM21.87 49.807V71.31l1.668.226v1.272h-8.28v-1.272l1.78-.226v-9.777H6.472v9.777l1.639.226v1.272H0v-1.272l1.61-.226V49.807L0 49.58v-1.244h8.11v1.244l-1.64.226v9.183H17.04v-9.183l-1.78-.226v-1.244h8.279v1.244M33.4 49.92c0 1.639-1.103 2.854-2.629 2.854-1.554 0-2.627-1.102-2.627-2.741 0-1.554 1.073-2.77 2.627-2.77 1.526-.028 2.628 1.187 2.628 2.657Zm-.566 21.531 1.554.227v1.101h-7.6v-1.102l1.553-.226V56.73l-1.554-.226v-1.102h6.047v16.05ZM37.695 71.677l1.526-.226V48.96l-1.526-.226v-1.13h6.047V71.45l1.554.226v1.13h-7.6M54.48 55.402h4.097v1.639h-4.098v10.342c0 2.684.566 3.532 2.967 3.532.904 0 1.667 0 2.402-.17v1.187c-2.204.791-4.04 1.102-5.595 1.102-3.475 0-4.295-1.583-4.295-4.634V57.04h-3.164v-1.638H50.1v-3.645l4.408-1.328M73.946 64.16c0-5.51-1.639-7.911-4.267-7.911-2.571 0-4.182 2.289-4.182 7.912 0 5.51 1.64 7.799 4.182 7.799 2.74.028 4.267-2.176 4.267-7.8Zm4.973.114c0 5.425-3.645 9.042-9.353 9.042-5.538 0-9.042-2.374-9.042-9.042 0-5.595 3.645-9.353 9.353-9.353 5.623 0 9.042 3.362 9.042 9.353ZM100 71.677v1.103h-7.6v-1.103l1.525-.226v-9.89c0-2.74-.989-3.984-3.08-3.984-.96 0-2.486.678-3.588 1.441v12.405l1.554.226v1.102h-7.63v-1.102l1.554-.226V56.814l-1.553-.226v-1.186h6.075v2.401c1.893-1.525 3.701-2.74 6.273-2.74 3.418 0 4.945 2.006 4.945 5.962V71.48M69.709 38.42h-.565v-.198H70.5v.197h-.509v2.007h-.282v-2.007Zm2.373 1.61.707-1.808h.34v2.204h-.255v-1.667l-.65 1.667h-.255l-.678-1.667v1.667h-.254v-2.204h.367l.678 1.808Z"/></g><defs><clipPath id="a"><path fill="#fff" d="M0 0h100v100H0z"/></clipPath></defs></svg>