<svg viewBox="0 0 32 32" xmlns="http://www.w3.org/2000/svg"><g id="Arrow_Outline" data-name="Arrow Outline"><path d="m14.8175 23.9049a2.64 2.64 0 0 1 -2.0613.9907h-.0044a2.4223 2.4223 0 0 1 -2.0045-3.7822l1.9834-2.9234-6.5261.872a3.1377 3.1377 0 0 1 -1.6046-.0892 3.1693 3.1693 0 0 1 0-5.9666 3.1377 3.1377 0 0 1 1.605-.0892l6.5121.8514-1.9694-2.9029a2.4222 2.4222 0 0 1 2.0045-3.782h.0044a2.64 2.64 0 0 1 2.0615.9908l5.6719 7.0905a1.32 1.32 0 0 1 0 1.6492z" fill="#000000" style="fill: rgb(152, 162, 179);"></path><path d="m26 28a2 2 0 0 1 -2-2v-20a2 2 0 0 1 4 0v20a2 2 0 0 1 -2 2z" fill="#000000" style="fill: rgb(152, 162, 179);"></path></g></svg>