<svg id="Layer_1" enable-background="new 0 0 20 20" viewBox="0 0 20 20" xmlns="http://www.w3.org/2000/svg"><g fill="#2b2a3d"><path d="m11 15 5-5-5-5-1.4 1.4 2.6 2.6h-8.3v2h8.3l-2.6 2.6z" fill="#2b2a3d" style="fill: rgb(255, 0, 67);"></path><path d="m2.9 2.9c-3.9 3.9-3.9 10.3 0 14.2 2 1.9 4.5 2.9 7.1 2.9s5.1-1 7.1-2.9l-1.4-1.4c-3.1 3.1-8.2 3.1-11.3 0-3.1-3.1-3.1-8.2 0-11.3 3.1-3.1 8.2-3.1 11.3 0l1.4-1.4c-3.9-4-10.3-4-14.2-.1z" fill="#2b2a3d" style="fill: rgb(255, 0, 67);"></path><path d="m18 6h2v8h-2z" fill="#2b2a3d" style="fill: rgb(255, 0, 67);"></path></g></svg>