<!-- icon666.com - MILLIONS vector ICONS FREE --><svg id="Layer_1" enable-background="new 0 0 512 512" viewBox="0 0 512 512" xmlns="http://www.w3.org/2000/svg"><path clip-rule="evenodd" d="m255.992 417.286c-110.011 0-205.095-60.114-255.992-161.289 50.897-101.17 145.98-161.283 255.992-161.283 110.006 0 205.094 60.114 256.008 161.283-50.914 101.175-146.002 161.289-256.008 161.289zm0-277.528c-64.103 0-116.239 52.142-116.239 116.239 0 64.103 52.137 116.245 116.239 116.245 64.097 0 116.239-52.142 116.239-116.245 0-64.097-52.142-116.239-116.239-116.239zm0 195.617c43.767 0 79.373-35.611 79.373-79.378 0-43.762-35.605-79.373-79.373-79.373s-79.373 35.61-79.373 79.373c0 43.768 35.606 79.378 79.373 79.378z" fill-rule="evenodd" fill="#000000" style="fill: rgb(29, 41, 57);"></path></svg>