<svg width="59" height="16" viewBox="0 0 59 16" fill="none" xmlns="http://www.w3.org/2000/svg">
<path fill-rule="evenodd" clip-rule="evenodd" d="M5.63802 0.00273032C6.16205 -0.000404622 7.71944 -0.140671 8.37912 2.08575C8.82348 3.58549 9.53134 6.04213 10.5027 9.45568H10.8983C11.9399 5.85688 12.6555 3.40023 13.045 2.08575C13.7115 -0.163863 15.3779 0.00277441 16.0445 0.00277441L21.1871 0.00278082V16H15.9456V6.57256H15.5941L12.6722 16H8.72869L5.80682 6.56557H5.45535V16H0.213867V0.00278082L5.63802 0.00273032ZM28.7137 0.00278082V9.43721H29.1319L32.686 1.67935C33.376 0.135509 34.8464 0.00278082 34.8464 0.00278082H39.9186V16H34.5677V6.56557H34.1495L30.665 14.3234C29.9751 15.8603 28.435 16 28.435 16H23.3628V0.00278082H28.7137ZM58.4139 7.60477C57.6675 9.71989 55.3235 11.2347 52.7283 11.2347H47.1168V16H42.0284V7.60477H58.4139Z" fill="#D1D3D4"/>
<path fill-rule="evenodd" clip-rule="evenodd" d="M52.9725 0.00292969H41.7603C42.0271 3.56445 45.0942 6.61335 48.2693 6.61335H58.7661C59.3719 3.6533 57.2866 0.00292969 52.9725 0.00292969Z" fill="#D1D3D4"/>
</svg>
