<svg width="27" height="16" viewBox="0 0 27 16" fill="none" xmlns="http://www.w3.org/2000/svg">
<path d="M10.2118 8.00004C10.2107 6.78857 10.4853 5.59272 11.0149 4.50303C11.5445 3.41334 12.3152 2.45837 13.2686 1.71041C12.0879 0.782771 10.67 0.205885 9.17683 0.0456905C7.68367 -0.114504 6.17555 0.14845 4.82484 0.804511C3.47412 1.46057 2.33531 2.48327 1.53858 3.75569C0.741843 5.02812 0.319336 6.49894 0.319336 8.00004C0.319336 9.50115 0.741843 10.972 1.53858 12.2444C2.33531 13.5168 3.47412 14.5395 4.82484 15.1956C6.17555 15.8516 7.68367 16.1146 9.17683 15.9544C10.67 15.7942 12.0879 15.2173 13.2686 14.2897C12.3152 13.5417 11.5445 12.5867 11.0149 11.4971C10.4853 10.4074 10.2107 9.21152 10.2118 8.00004V8.00004Z" fill="#D1D3D4"/>
<path d="M26.2174 8.00004C26.2175 9.50113 25.795 10.9719 24.9983 12.2444C24.2016 13.5168 23.0629 14.5395 21.7122 15.1956C20.3615 15.8516 18.8534 16.1146 17.3602 15.9544C15.8671 15.7942 14.4492 15.2173 13.2686 14.2897C14.2211 13.541 14.9912 12.5858 15.5207 11.4963C16.0502 10.4068 16.3254 9.21132 16.3254 8.00004C16.3254 6.78876 16.0502 5.59329 15.5207 4.50377C14.9912 3.41425 14.2211 2.45912 13.2686 1.71041C14.4492 0.782768 15.8671 0.205881 17.3602 0.0456884C18.8534 -0.114504 20.3615 0.148462 21.7122 0.804529C23.0629 1.4606 24.2016 2.48329 24.9983 3.75572C25.795 5.02814 26.2175 6.49896 26.2174 8.00004V8.00004Z" fill="#D1D3D4"/>
</svg>
