<svg width="50" height="16" viewBox="0 0 50 16" fill="none" xmlns="http://www.w3.org/2000/svg">
<path d="M21.381 15.7333H17.3568L19.8719 0.276197H23.8966L21.381 15.7333ZM13.9713 0.276197L10.1347 10.9077L9.6807 8.61835L9.68111 8.61918L8.327 1.66793C8.327 1.66793 8.16327 0.276197 6.41802 0.276197H0.0754011L0.000976562 0.537923C0.000976562 0.537923 1.94056 0.941468 4.2105 2.30468L7.7068 15.7337H11.8998L18.3024 0.276197H13.9713ZM45.6244 15.7333H49.3196L46.0978 0.275784H42.8628C41.369 0.275784 41.0051 1.42771 41.0051 1.42771L35.0032 15.7333H39.1983L40.0372 13.4373H45.153L45.6244 15.7333ZM41.1961 10.2656L43.3106 4.48118L44.5002 10.2656H41.1961ZM35.3178 3.99328L35.8922 0.673953C35.8922 0.673953 34.12 0 32.2727 0C30.2756 0 25.5331 0.872833 25.5331 5.11709C25.5331 9.11038 31.0992 9.15999 31.0992 11.2575C31.0992 13.3551 26.1066 12.9792 24.4589 11.6565L23.8606 15.1272C23.8606 15.1272 25.6576 16 28.403 16C31.1493 16 35.2922 14.5781 35.2922 10.708C35.2922 6.6891 29.6761 6.31491 29.6761 4.56759C29.6765 2.81986 33.5958 3.04437 35.3178 3.99328Z" fill="#D1D3D4"/>
</svg>
