<svg width="100" height="100" fill="none" xmlns="http://www.w3.org/2000/svg"><path d="M16.999 54.75c0-3.227 1.798-4.8 3.815-4.8 1.653 0 3.64 1.059 3.64 4.68 0 3.19-1.632 4.934-3.785 4.934-2.012 0-3.67-1.583-3.67-4.8v-.015Zm1.718.05c0 2.896 1.053 3.815 1.997 3.815.804 0 2.023-.62 2.023-3.86 0-1.2-.115-3.886-1.958-3.886-1.223 0-2.062 1.194-2.062 3.915v.015ZM27.676 50.074l1.508 6.637 1.603-6.637h.994l1.553 6.617 1.518-6.617h1.124l-2.313 9.349H32.65l-1.598-6.827-1.658 6.827h-1.01l-2.316-9.349h1.608ZM39.444 50.074l4.29 6.627v-6.627h1.138v9.349h-1.039l-4.294-6.627v6.627h-1.134v-9.349h1.039ZM52.805 50.074v.989h-3.346v3.036h3.121v.97h-3.121v3.325h3.4v1.029h-4.968v-9.349h4.914ZM6.17 51.358l-.076-.034c-.374-.18-.894-.385-1.518-.385-1.408 0-2.472 1.393-2.472 3.825 0 2.697 1.194 3.81 2.382 3.81.654 0 1.209-.299 1.573-.514l.07-.04.465.88-.07.034c-.5.265-1.249.63-2.303.63-2.541 0-3.85-2.193-3.85-4.765 0-2.621 1.418-4.849 4.065-4.849.64 0 1.364.105 2.068.465l.07.035-.405.908ZM11.413 50.074c.989 0 1.628.01 2.332.39.864.48 1.079 1.363 1.079 1.918 0 1.048-.53 2.202-2.197 2.606l3.06 4.435H13.86l-2.662-4.2h-.444v4.2H9.206v-9.349h2.207Zm-.66.96v3.325h.475c.744 0 1.998 0 1.998-1.803 0-.789-.265-1.153-.614-1.338a1.83 1.83 0 0 0-.61-.165c-.224-.02-.454-.02-.674-.02h-.574ZM98.113 51.737h.21v-.464h.165c.11 0 .185.015.23.035.075.045.11.135.11.274v.095l.005.06h.205c-.015-.02-.015-.045-.02-.075 0-.03-.006-.06-.006-.09v-.085c0-.06-.02-.12-.064-.184a.288.288 0 0 0-.2-.115c.075-.01.13-.03.17-.06.075-.045.114-.125.114-.23 0-.15-.06-.25-.184-.3a.837.837 0 0 0-.32-.044h-.415v1.183Zm.595-.639a.497.497 0 0 1-.195.03h-.19v-.43h.175c.12 0 .2.016.255.045.05.025.075.085.075.17 0 .09-.04.155-.12.185Zm.604-.71a1.041 1.041 0 0 0-.764-.314c-.3 0-.55.105-.759.315-.21.21-.315.464-.315.759 0 .3.1.554.31.764.21.215.464.32.764.32s.554-.105.764-.32c.21-.21.314-.464.314-.764 0-.295-.104-.55-.314-.76Zm-.11.106c.18.18.27.4.27.654 0 .26-.09.48-.27.664a.881.881 0 0 1-.654.275.916.916 0 0 1-.659-.275.931.931 0 0 1-.265-.664c0-.255.09-.475.27-.654.18-.185.4-.275.654-.275.255 0 .475.09.654.275ZM95.347 50.074l3.2 9.349H96.88l-.994-3.056h-2.567l-.974 3.056h-1.163l3.165-9.349h1Zm-1.743 5.374h1.992l-.984-3.146-1.008 3.146ZM62.282 50.074c1.084 0 1.828.02 2.502.465.829.544.949 1.473.949 1.977 0 1.399-.914 2.812-3.231 2.812h-1.144v4.095h-1.563v-9.349h2.487Zm-.924.96v3.31h.844c.904 0 1.868-.155 1.868-1.813 0-.794-.27-1.153-.62-1.328-.18-.09-.384-.13-.599-.155-.22-.02-.44-.015-.649-.015h-.844ZM69.345 50.074V58.4h3.28v1.024h-4.848v-9.349h1.568ZM78.343 50.074l3.201 9.349h-1.667l-.995-3.056h-2.566l-.974 3.056h-1.169l3.171-9.349h1Zm-1.742 5.374h1.992l-.984-3.146-1.008 3.146ZM89.415 50.074v.794l-4.484 7.526h4.729v1.029h-6.567v-.794l4.51-7.566h-4.235v-.989h6.047ZM24.039 68.768v-2.063h-2.507v2.063h-.595v-4.615h.595v2.038h2.507v-2.038h.599v4.615h-.6ZM27.883 64.592c-.93 0-1.828.709-1.828 1.872 0 1.169.899 1.883 1.828 1.883.919 0 1.833-.714 1.833-1.883a1.829 1.829 0 0 0-1.833-1.872Zm0 4.255c-1.249 0-2.427-.925-2.427-2.393 0-1.453 1.178-2.387 2.427-2.387 1.253 0 2.432.934 2.432 2.387 0 1.468-1.179 2.393-2.432 2.393ZM32.544 64.668v4.1h-.594v-4.1h-1.533v-.515h3.655v.515h-1.528ZM34.635 68.768v-4.615h2.443v.515H35.23v1.523h1.538v.514H35.23v1.548h2.112v.515h-2.707ZM37.907 68.768v-4.615h.59v4.1h2.092v.515h-2.682ZM42.263 68.802c-.515 0-.944-.16-1.189-.33L41 67.873c.33.255.78.44 1.289.44.54 0 .924-.315.924-.774 0-.465-.265-.72-.87-.93-.808-.274-1.213-.668-1.213-1.313 0-.6.45-1.189 1.384-1.189.434 0 .794.14.973.265l-.114.475a1.676 1.676 0 0 0-.874-.265c-.53 0-.825.325-.825.67 0 .374.25.609.79.794.799.289 1.313.653 1.313 1.443 0 .793-.564 1.313-1.513 1.313ZM47.591 64.542c-.374 0-.63.3-.63.62 0 .298.206.538.565.893.514-.285.744-.56.744-.859 0-.35-.25-.654-.679-.654Zm-.195 2.142c-.424.23-.699.485-.699.909 0 .434.39.77.894.77.4 0 .754-.16 1.049-.43l-1.244-1.249Zm2.083 2.083-.465-.465c-.39.35-.874.545-1.453.545-.849 0-1.428-.56-1.428-1.224 0-.6.324-.974.904-1.309-.39-.4-.61-.743-.61-1.128 0-.684.555-1.119 1.164-1.119.63 0 1.214.435 1.214 1.12 0 .484-.285.883-.91 1.237l1.11 1.114c.22-.304.394-.66.504-1.019l.374.375a3.636 3.636 0 0 1-.51 1.013l.86.86h-.754ZM53.753 64.668h-.65v1.538h.655c.454 0 .859-.26.859-.765 0-.499-.405-.773-.864-.773Zm1.473 4.1L53.733 66.7h-.63v2.068h-.584v-4.615h1.334c.679 0 1.373.44 1.373 1.273 0 .61-.38 1.014-.864 1.18l1.598 2.162h-.734ZM56.276 68.768v-4.615h2.442v.515h-1.853v1.523h1.543v.514h-1.543v1.548h2.113v.515h-2.702ZM60.616 68.802c-.51 0-.944-.16-1.194-.33l-.07-.599c.335.255.78.44 1.289.44.539 0 .924-.315.924-.774 0-.465-.27-.72-.87-.93-.808-.274-1.213-.668-1.213-1.313 0-.6.45-1.189 1.378-1.189.435 0 .8.14.98.265l-.116.475a1.676 1.676 0 0 0-.874-.265c-.529 0-.829.325-.829.67 0 .374.255.609.79.794.803.289 1.318.653 1.318 1.443 0 .793-.564 1.313-1.513 1.313ZM65.144 64.592a1.82 1.82 0 0 0-1.833 1.872c0 1.169.899 1.883 1.833 1.883.914 0 1.828-.714 1.828-1.883a1.827 1.827 0 0 0-1.828-1.872Zm0 4.255c-1.254 0-2.432-.925-2.432-2.393 0-1.453 1.178-2.387 2.432-2.387 1.248 0 2.427.934 2.427 2.387 0 1.468-1.179 2.393-2.427 2.393ZM69.618 64.668h-.649v1.538h.655c.454 0 .858-.26.858-.765 0-.499-.404-.773-.864-.773Zm1.474 4.1L69.599 66.7h-.63v2.068h-.584v-4.615h1.334c.679 0 1.373.44 1.373 1.273 0 .61-.38 1.014-.864 1.18l1.598 2.162h-.734ZM73.485 64.668v4.1h-.594v-4.1h-1.534v-.515h3.656v.515h-1.528ZM76.66 68.802c-.508 0-.944-.16-1.193-.33l-.07-.599c.33.255.78.44 1.289.44.539 0 .924-.315.924-.774 0-.465-.27-.72-.87-.93-.808-.274-1.213-.668-1.213-1.313 0-.6.45-1.189 1.378-1.189.435 0 .8.14.979.265l-.114.475a1.677 1.677 0 0 0-.875-.265c-.53 0-.828.325-.828.67 0 .374.254.609.788.794.805.289 1.319.653 1.319 1.443 0 .793-.564 1.313-1.513 1.313ZM50.675 35.537c-.544 1.548-3.525.09-5.063-.63a28.691 28.691 0 0 1-2.358-1.223l1.124 1.428h-1.523c.44.255 1.213.69 2.327 1.209 1.538.724 4.525 2.182 5.069.63.934-2.663 6.347.633 6.882.968l.42-1.423c-.57-.355-5.949-3.61-6.878-.96Z" fill="#767C7E"/><path d="M49.917 38.094c-.544 1.548-3.53.09-5.069-.63a30.872 30.872 0 0 1-2.357-1.218l1.123 1.428h-1.518c.435.25 1.214.69 2.323 1.209 1.538.72 4.524 2.177 5.069.624.938-2.667 6.397.664 6.886.969l.42-1.418c-.535-.335-5.948-3.626-6.877-.964Z" fill="#767C7E"/><path d="M49.154 40.651c-.545 1.554-3.531.095-5.07-.624a31.912 31.912 0 0 1-2.351-1.223l1.123 1.428h-1.528c.44.255 1.219.69 2.332 1.209 1.539.724 4.525 2.177 5.064.624.944-2.682 6.448.694 6.897.974l.414-1.419c-.494-.31-5.947-3.64-6.881-.968Z" fill="#767C7E"/><path d="M49.445 44.806c-8.066 0-14.598-2.872-14.598-6.412 0-3.546 6.532-6.418 14.598-6.418 8.06 0 14.597 2.872 14.597 6.418 0 3.54-6.537 6.412-14.597 6.412Zm0-13.434c-9.04 0-16.366 3.141-16.366 7.012 0 3.875 7.327 7.016 16.366 7.016 9.034 0 16.36-3.141 16.36-7.016 0-3.87-7.326-7.012-16.36-7.012ZM16.999 54.75c0-3.227 1.798-4.8 3.815-4.8 1.653 0 3.64 1.059 3.64 4.68 0 3.19-1.632 4.934-3.785 4.934-2.012 0-3.67-1.583-3.67-4.8v-.015Zm1.718.05c0 2.896 1.053 3.815 1.997 3.815.804 0 2.023-.62 2.023-3.86 0-1.2-.115-3.886-1.958-3.886-1.223 0-2.062 1.194-2.062 3.915v.015ZM27.676 50.074l1.508 6.637 1.603-6.637h.994l1.553 6.617 1.518-6.617h1.124l-2.313 9.349H32.65l-1.598-6.827-1.658 6.827h-1.01l-2.316-9.349h1.608ZM39.444 50.074l4.29 6.627v-6.627h1.138v9.349h-1.039l-4.294-6.627v6.627h-1.134v-9.349h1.039ZM52.805 50.074v.989h-3.346v3.036h3.121v.97h-3.121v3.325h3.4v1.029h-4.968v-9.349h4.914ZM6.17 51.358l-.076-.034c-.374-.18-.894-.385-1.518-.385-1.408 0-2.472 1.393-2.472 3.825 0 2.697 1.194 3.81 2.382 3.81.654 0 1.209-.299 1.573-.514l.07-.04.465.88-.07.034c-.5.265-1.249.63-2.303.63-2.541 0-3.85-2.193-3.85-4.765 0-2.621 1.418-4.849 4.065-4.849.64 0 1.364.105 2.068.465l.07.035-.405.908ZM11.413 50.074c.989 0 1.628.01 2.332.39.864.48 1.079 1.363 1.079 1.918 0 1.048-.53 2.202-2.197 2.606l3.06 4.435H13.86l-2.662-4.2h-.444v4.2H9.206v-9.349h2.207Zm-.66.96v3.325h.475c.744 0 1.998 0 1.998-1.803 0-.789-.265-1.153-.614-1.338a1.83 1.83 0 0 0-.61-.165c-.224-.02-.454-.02-.674-.02h-.574ZM98.113 51.737h.21v-.464h.165c.11 0 .185.015.23.035.075.045.11.135.11.274v.095l.005.06h.205c-.015-.02-.015-.045-.02-.075 0-.03-.006-.06-.006-.09v-.085c0-.06-.02-.12-.064-.184a.288.288 0 0 0-.2-.115c.075-.01.13-.03.17-.06.075-.045.114-.125.114-.23 0-.15-.06-.25-.184-.3a.837.837 0 0 0-.32-.044h-.415v1.183Zm.595-.639a.497.497 0 0 1-.195.03h-.19v-.43h.175c.12 0 .2.016.255.045.05.025.075.085.075.17 0 .09-.04.155-.12.185Zm.604-.71a1.041 1.041 0 0 0-.764-.314c-.3 0-.55.105-.759.315-.21.21-.315.464-.315.759 0 .3.1.554.31.764.21.215.464.32.764.32s.554-.105.764-.32c.21-.21.314-.464.314-.764 0-.295-.104-.55-.314-.76Zm-.11.106c.18.18.27.4.27.654 0 .26-.09.48-.27.664a.881.881 0 0 1-.654.275.916.916 0 0 1-.659-.275.931.931 0 0 1-.265-.664c0-.255.09-.475.27-.654.18-.185.4-.275.654-.275.255 0 .475.09.654.275ZM95.347 50.074l3.2 9.349H96.88l-.994-3.056h-2.567l-.974 3.056h-1.163l3.165-9.349h1Zm-1.743 5.374h1.992l-.984-3.146-1.008 3.146ZM62.282 50.074c1.084 0 1.828.02 2.502.465.829.544.949 1.473.949 1.977 0 1.399-.914 2.812-3.231 2.812h-1.144v4.095h-1.563v-9.349h2.487Zm-.924.96v3.31h.844c.904 0 1.868-.155 1.868-1.813 0-.794-.27-1.153-.62-1.328-.18-.09-.384-.13-.599-.155-.22-.02-.44-.015-.649-.015h-.844ZM69.345 50.074V58.4h3.28v1.024h-4.848v-9.349h1.568ZM78.343 50.074l3.201 9.349h-1.667l-.995-3.056h-2.566l-.974 3.056h-1.169l3.171-9.349h1Zm-1.742 5.374h1.992l-.984-3.146-1.008 3.146ZM89.415 50.074v.794l-4.484 7.526h4.729v1.029h-6.567v-.794l4.51-7.566h-4.235v-.989h6.047ZM24.039 68.768v-2.063h-2.507v2.063h-.595v-4.615h.595v2.038h2.507v-2.038h.599v4.615h-.6ZM27.883 64.592c-.93 0-1.828.709-1.828 1.872 0 1.169.899 1.883 1.828 1.883.919 0 1.833-.714 1.833-1.883a1.829 1.829 0 0 0-1.833-1.872Zm0 4.255c-1.249 0-2.427-.925-2.427-2.393 0-1.453 1.178-2.387 2.427-2.387 1.253 0 2.432.934 2.432 2.387 0 1.468-1.179 2.393-2.432 2.393ZM32.544 64.668v4.1h-.594v-4.1h-1.533v-.515h3.655v.515h-1.528ZM34.635 68.768v-4.615h2.443v.515H35.23v1.523h1.538v.514H35.23v1.548h2.112v.515h-2.707ZM37.907 68.768v-4.615h.59v4.1h2.092v.515h-2.682ZM42.263 68.802c-.515 0-.944-.16-1.189-.33L41 67.873c.33.255.78.44 1.289.44.54 0 .924-.315.924-.774 0-.465-.265-.72-.87-.93-.808-.274-1.213-.668-1.213-1.313 0-.6.45-1.189 1.384-1.189.434 0 .794.14.973.265l-.114.475a1.676 1.676 0 0 0-.874-.265c-.53 0-.825.325-.825.67 0 .374.25.609.79.794.799.289 1.313.653 1.313 1.443 0 .793-.564 1.313-1.513 1.313ZM47.591 64.542c-.374 0-.63.3-.63.62 0 .298.206.538.565.893.514-.285.744-.56.744-.859 0-.35-.25-.654-.679-.654Zm-.195 2.142c-.424.23-.699.485-.699.909 0 .434.39.77.894.77.4 0 .754-.16 1.049-.43l-1.244-1.249Zm2.083 2.083-.465-.465c-.39.35-.874.545-1.453.545-.849 0-1.428-.56-1.428-1.224 0-.6.324-.974.904-1.309-.39-.4-.61-.743-.61-1.128 0-.684.555-1.119 1.164-1.119.63 0 1.214.435 1.214 1.12 0 .484-.285.883-.91 1.237l1.11 1.114c.22-.304.394-.66.504-1.019l.374.375a3.636 3.636 0 0 1-.51 1.013l.86.86h-.754ZM53.753 64.668h-.65v1.538h.655c.454 0 .859-.26.859-.765 0-.499-.405-.773-.864-.773Zm1.473 4.1L53.733 66.7h-.63v2.068h-.584v-4.615h1.334c.679 0 1.373.44 1.373 1.273 0 .61-.38 1.014-.864 1.18l1.598 2.162h-.734ZM56.276 68.768v-4.615h2.442v.515h-1.853v1.523h1.543v.514h-1.543v1.548h2.113v.515h-2.702ZM60.616 68.802c-.51 0-.944-.16-1.194-.33l-.07-.599c.335.255.78.44 1.289.44.539 0 .924-.315.924-.774 0-.465-.27-.72-.87-.93-.808-.274-1.213-.668-1.213-1.313 0-.6.45-1.189 1.378-1.189.435 0 .8.14.98.265l-.116.475a1.676 1.676 0 0 0-.874-.265c-.529 0-.829.325-.829.67 0 .374.255.609.79.794.803.289 1.318.653 1.318 1.443 0 .793-.564 1.313-1.513 1.313ZM65.144 64.592a1.82 1.82 0 0 0-1.833 1.872c0 1.169.899 1.883 1.833 1.883.914 0 1.828-.714 1.828-1.883a1.827 1.827 0 0 0-1.828-1.872Zm0 4.255c-1.254 0-2.432-.925-2.432-2.393 0-1.453 1.178-2.387 2.432-2.387 1.248 0 2.427.934 2.427 2.387 0 1.468-1.179 2.393-2.427 2.393ZM69.618 64.668h-.649v1.538h.655c.454 0 .858-.26.858-.765 0-.499-.404-.773-.864-.773Zm1.474 4.1L69.599 66.7h-.63v2.068h-.584v-4.615h1.334c.679 0 1.373.44 1.373 1.273 0 .61-.38 1.014-.864 1.18l1.598 2.162h-.734ZM73.485 64.668v4.1h-.594v-4.1h-1.534v-.515h3.656v.515h-1.528ZM76.66 68.802c-.508 0-.944-.16-1.193-.33l-.07-.599c.33.255.78.44 1.289.44.539 0 .924-.315.924-.774 0-.465-.27-.72-.87-.93-.808-.274-1.213-.668-1.213-1.313 0-.6.45-1.189 1.378-1.189.435 0 .8.14.979.265l-.114.475a1.677 1.677 0 0 0-.875-.265c-.53 0-.828.325-.828.67 0 .374.254.609.788.794.805.289 1.319.653 1.319 1.443 0 .793-.564 1.313-1.513 1.313Z" fill="#767C7E"/><path d="M50.675 35.537c-.544 1.548-3.525.09-5.063-.63a28.691 28.691 0 0 1-2.358-1.223l1.124 1.428h-1.523c.44.255 1.213.69 2.327 1.209 1.538.724 4.525 2.182 5.069.63.934-2.663 6.347.633 6.882.968l.42-1.423c-.57-.355-5.949-3.61-6.878-.96Z" fill="#767C7E"/><path d="M49.917 38.094c-.544 1.548-3.53.09-5.069-.63a30.872 30.872 0 0 1-2.357-1.218l1.123 1.428h-1.518c.435.25 1.214.69 2.323 1.209 1.538.72 4.524 2.177 5.069.624.938-2.667 6.397.664 6.886.969l.42-1.418c-.535-.335-5.948-3.626-6.877-.964Z" fill="#767C7E"/><path d="M49.154 40.651c-.545 1.554-3.531.095-5.07-.624a31.912 31.912 0 0 1-2.351-1.223l1.123 1.428h-1.528c.44.255 1.219.69 2.332 1.209 1.539.724 4.525 2.177 5.064.624.944-2.682 6.448.694 6.897.974l.414-1.419c-.494-.31-5.947-3.64-6.881-.968Z" fill="#767C7E"/><path d="M49.445 44.806c-8.066 0-14.598-2.872-14.598-6.412 0-3.546 6.532-6.418 14.598-6.418 8.06 0 14.597 2.872 14.597 6.418 0 3.54-6.537 6.412-14.597 6.412Zm0-13.434c-9.04 0-16.366 3.141-16.366 7.012 0 3.875 7.327 7.016 16.366 7.016 9.034 0 16.36-3.141 16.36-7.016 0-3.87-7.326-7.012-16.36-7.012Z" fill="#767C7E"/></svg>