<svg width="100" height="100" fill="none" xmlns="http://www.w3.org/2000/svg"><path fill-rule="evenodd" clip-rule="evenodd" d="M58.699 61.043v-.199c-.143-.029-.598 0-.598-.569v-5.972c0-.569.455-.54.598-.569v-.199h-2.133v.2c.142.028.597 0 .597.568v5.972c-.028.569-.455.54-.597.569v.199h2.133ZM2.275 61.042v-.227c-.142 0-.654 0-.654-.597v-6.882c0-.598.512-.598.654-.598v-.227H0v.227c.17 0 .654 0 .654.598v6.882c0 .597-.483.597-.654.597v.227h2.275ZM97.858 61.043V59.82h-.2c-.028.142 0 .597-.568.597h-1.905v-6.114c0-.569.455-.54.597-.569v-.199h-2.133v.2c.142.028.597 0 .597.568v5.972c0 .569-.455.54-.597.569v.199h4.209ZM39.104 61.213c-2.247 0-3.157-2.161-3.157-3.924 0-1.707.882-3.925 3.214-3.925 1.962 0 3.157 1.45 3.157 3.754 0 2.275-1.252 4.095-3.214 4.095Zm.313-.569c.569 0 1.905-.34 1.905-3.185 0-2.19-1.052-3.526-2.389-3.526-.938 0-1.99.626-1.99 3.043 0 2.047.995 3.668 2.474 3.668ZM64.84 53.535v.2c.143.028.598 0 .598.568v5.005l-3.868-5.773H60.32v.2c.142.028.569 0 .569.568v5.972c0 .569-.427.54-.569.569v.199h1.849v-.199c-.143-.029-.598 0-.598-.569V55.3l3.868 5.744h.683v-6.74c0-.569.426-.54.568-.569v-.199h-1.848ZM78.975 53.535v.2c.142.028.597 0 .597.568v5.005l-3.868-5.773h-1.25v.2c.142.028.596 0 .596.568v5.972c0 .569-.454.54-.597.569v.199h1.849v-.199c-.143-.029-.598 0-.598-.569V55.3l3.868 5.744h.683v-6.74c0-.569.426-.54.568-.569v-.199h-1.848ZM21.441 61.043V59.82h-.227c0 .142 0 .597-.54.597h-2.247v-2.929h1.82c.54 0 .54.455.54.598h.2v-1.707h-.2c0 .142-.028.484-.54.484h-1.82V54.16h2.247c.54 0 .54.455.54.597h.227v-1.223h-4.55v.2c.143.028.598 0 .598.568v5.972c0 .569-.456.54-.598.569v.199h4.55ZM72.748 61.043V59.82h-.2c-.028.142 0 .597-.568.597H69.76v-2.929h1.792c.57 0 .54.455.57.598h.198v-1.707h-.199c-.029.142-.057.484-.569.484h-1.791V54.16h2.218c.568 0 .54.455.568.597h.2v-1.223h-4.522v.2c.142.028.597 0 .597.568v5.972c0 .569-.455.54-.597.569v.199h4.522ZM32.988 61.128c.483 0 1.507-.114 2.076-.427l.256-1.649-.227-.029c-.399 1.223-1.195 1.451-1.991 1.451-1.195 0-2.816-.995-2.816-3.64 0-1.906.74-3.868 2.503-3.868 1.934 0 2.161 1.507 2.19 1.735h.227v-1.934c-.71-.199-1.706-.341-2.246-.341-2.56 0-3.754 1.791-3.754 4.436 0 2.389 1.336 4.266 3.782 4.266ZM86.708 54.758h-.199c0-.142 0-.597-.54-.597H84.66v6.114c0 .569.427.54.597.569v.199h-2.16v-.199c.142-.029.597 0 .597-.569v-6.114h-1.309c-.568 0-.54.455-.568.597h-.2v-1.223h5.09v1.223ZM89.525 55.042l1.053 2.873h-2.105l1.052-2.873Zm1.28 3.47.626 1.763c.199.569-.256.54-.398.569v.199h2.104v-.199c-.142 0-.54-.085-.853-.882l-2.332-6.427h-.626l-2.36 6.427c-.313.797-.626.882-.768.882v.199h1.82v-.199c-.142-.029-.597 0-.398-.569l.654-1.763h2.531ZM8.19 53.535v.2c.171.028.598 0 .598.568v5.005l-3.84-5.773h-1.28v.2c.143.028.598 0 .598.568v5.972c0 .569-.455.54-.597.569v.199h1.877v-.199c-.143-.029-.598 0-.598-.569V55.3l3.84 5.744h.682v-6.74c0-.569.455-.54.597-.569v-.199H8.19ZM15.956 54.758h-.2c-.028-.142 0-.597-.568-.597h-1.309v6.114c0 .569.456.54.598.569v.199h-2.133v-.199c.142-.029.597 0 .597-.569v-6.114h-1.337c-.54 0-.54.455-.54.597h-.227v-1.223h5.119v1.223ZM47.86 53.535v.2c.143.028.57 0 .57.568v5.005l-3.84-5.773h-1.28v.2c.143.028.598 0 .598.568v5.972c0 .569-.455.54-.598.569v.199h1.877v-.199c-.142-.029-.597 0-.597-.569V55.3l3.84 5.744h.682v-6.74c0-.569.455-.54.597-.569v-.199h-1.848ZM55.598 54.758h-.2c-.028-.142 0-.597-.568-.597h-1.308v6.114c0 .569.455.54.597.569v.199h-2.133v-.199c.142-.029.597 0 .597-.569v-6.114h-1.308c-.569 0-.569.455-.569.597h-.228v-1.223h5.12v1.223ZM24.485 57.175h-.114V54.02h.114c1.422 0 1.905.512 1.905 1.479 0 .71-.37 1.678-1.905 1.678Zm3.896 3.328c-.91-.825-1.507-1.764-2.332-3.015 0 0 1.365-.511 1.365-2.019 0-.768-.427-1.934-2.503-1.934h-2.076v.2c.142.028.598 0 .598.568v5.972c0 .569-.456.54-.598.569v.199h2.133v-.199c-.142-.029-.597 0-.597-.569v-2.56h.74c.312.484 1.222 1.735 1.507 2.133.739 1.081 1.422 1.309 2.19 1.309.198 0 .37-.029.426-.057v-.227c-.114 0-.427 0-.853-.37ZM17.091 69.204h-.569v-1.706h-2.16v1.706h-.57v-3.896h.57v1.678h2.16v-1.678h.57M19.765 67.27c0 .882.682 1.45 1.479 1.45.426 0 .881-.17 1.137-.454.256-.256.398-.683.398-1.024 0-.626-.483-1.45-1.507-1.45-1.08 0-1.507.824-1.507 1.478Zm3.583-.028c0 1.11-.853 1.99-2.133 1.99-1.194 0-2.019-.88-2.019-1.962 0-1.024.74-1.99 2.048-1.99 1.28 0 2.104.938 2.104 1.962ZM27.985 65.82H26.62v3.384h-.54V65.82h-1.337v-.512h3.242M32.108 65.82h-1.65v1.166h1.593v.512H30.46v1.194h1.706v.512H29.92v-3.896h2.19M34.837 68.692h1.735v.512h-2.275v-3.896h.54M40.326 66.161c-.34-.313-.654-.398-.91-.398-.37 0-.625.199-.625.455 0 .341.227.455.967.882.17.113.37.256.511.455.114.142.2.34.2.625 0 .626-.427 1.052-1.11 1.052-.398 0-.739-.113-1.052-.34v-.712c.114.142.455.57 1.052.57.285 0 .598-.171.598-.513 0-.341-.342-.569-.512-.682-.626-.37-.797-.455-.967-.683-.114-.142-.17-.341-.17-.569 0-.597.426-1.024 1.137-1.024.313 0 .626.086.881.257v.625ZM47.124 66.246c0-.2-.199-.37-.455-.37-.227 0-.426.143-.426.37 0 .313.341.626.37.655.37-.228.511-.427.511-.655Zm-.028 2.02-.626-.712-.256.17c-.227.172-.426.342-.426.598 0 .171.199.399.483.399.228 0 .512-.171.711-.342l.114-.113Zm1.507.938h-.71l-.456-.54c-.227.198-.256.227-.341.284-.227.114-.569.284-.91.284-.455 0-.939-.34-.939-.91 0-.37.2-.739.91-1.138-.17-.142-.454-.51-.454-.91 0-.37.255-.88.966-.88s.967.482.967.852c0 .512-.483.853-.71 1.024l.54.626c.085-.085.227-.256.426-.626h.54a2.85 2.85 0 0 1-.625.996l.796.938ZM54.032 65.791v1.223h.2c.085 0 .398 0 .54-.057a.605.605 0 0 0 .37-.569c0-.199-.114-.426-.285-.512-.142-.056-.313-.085-.654-.085h-.17Zm.398-.483c.2 0 .427.028.683.142.398.17.597.54.597.938 0 .455-.227.796-.654.967.37.228.569.598.882 1.053.142.284.256.398.511.796h-.654c-.114-.199-.654-1.053-.796-1.223-.37-.483-.569-.483-.825-.483h-.142v1.706h-.568v-3.896h.966ZM60.49 65.82h-1.62v1.166h1.564v.512H58.87v1.194h1.678v.512H58.3v-3.896h2.19M64.528 66.161c-.341-.313-.654-.398-.91-.398-.398 0-.626.199-.626.455 0 .341.227.455.967.882.171.113.342.256.512.455.114.142.199.34.199.625 0 .626-.426 1.052-1.138 1.052-.369 0-.739-.113-1.023-.34v-.712c.114.142.455.57 1.023.57.314 0 .626-.171.626-.513 0-.341-.341-.569-.512-.682-.625-.37-.796-.455-.967-.683a.919.919 0 0 1-.199-.569c0-.597.456-1.024 1.138-1.024.341 0 .626.086.91.257v.625ZM67.086 67.27c0 .882.71 1.45 1.507 1.45.426 0 .881-.17 1.137-.454.256-.256.398-.683.398-1.024 0-.626-.512-1.45-1.507-1.45-1.08 0-1.535.824-1.535 1.478Zm3.612-.028c0 1.11-.854 1.99-2.134 1.99-1.223 0-2.047-.88-2.047-1.962 0-1.024.767-1.99 2.076-1.99 1.28 0 2.105.938 2.105 1.962ZM73.343 65.791v1.223h.228c.085 0 .37 0 .54-.057a.606.606 0 0 0 .37-.569c0-.199-.114-.426-.313-.512-.143-.056-.313-.085-.655-.085h-.17Zm.427-.483c.17 0 .426.028.654.142.426.17.625.54.625.938 0 .455-.228.796-.654.967.342.228.569.598.853 1.053.171.284.257.398.541.796h-.654c-.142-.199-.683-1.053-.797-1.223-.398-.483-.568-.483-.853-.483h-.142v1.706h-.54v-3.896h.967ZM80.026 65.82H78.66v3.384h-.54V65.82h-1.337v-.512h3.242M83.809 66.161c-.341-.313-.655-.398-.91-.398-.398 0-.626.199-.626.455 0 .341.228.455.967.882.17.113.341.256.512.455.114.142.2.34.2.625 0 .626-.428 1.052-1.138 1.052-.37 0-.74-.113-1.024-.34v-.712c.114.142.454.57 1.024.57.312 0 .625-.171.625-.513 0-.341-.34-.569-.512-.682-.625-.37-.796-.455-.967-.683a.919.919 0 0 1-.199-.569c0-.597.455-1.024 1.138-1.024.312 0 .625.086.91.257v.625ZM98.939 60.047v.284h.2l.17-.056.057-.086-.058-.114-.199-.028h-.17Zm0 .796h-.143v-.938h.313c.114 0 .2.028.257.028l.085.114.057.114-.085.17-.172.086.086.085.114.17.114.171h-.171l-.086-.142a.699.699 0 0 0-.142-.199l-.142-.057h-.085v.398Zm.2-1.194c-.2 0-.37.085-.513.227a.685.685 0 0 0-.199.512c0 .2.057.37.2.484.141.17.312.227.511.227s.37-.057.512-.227c.142-.114.199-.285.199-.484a.687.687 0 0 0-.199-.512.714.714 0 0 0-.512-.227Zm0-.114c.141 0 .284.029.425.085.143.086.228.2.314.342.085.113.113.256.113.426a.805.805 0 0 1-.113.427.82.82 0 0 1-.314.313c-.113.085-.284.114-.426.114-.142 0-.313-.029-.427-.114-.142-.086-.255-.17-.313-.313a.805.805 0 0 1-.114-.427c0-.17.03-.313.114-.426a.727.727 0 0 1 .313-.342c.114-.056.285-.085.427-.085ZM43.005 39.275c0-5.337 4.69-7.703 5.924-8.774 1.232 1.071 5.883 3.436 5.883 8.774 0 5.378-4.65 7.744-5.883 8.775-1.234-1.031-5.924-3.397-5.924-8.775Z" fill="#767C7E"/><path fill-rule="evenodd" clip-rule="evenodd" d="M49.797 38.931V36.89c0-1.071.667-1.698 1.415-1.698v-.162h-4.549v.162c.728 0 1.396.627 1.416 1.698v4.832c-.02 1.052-.688 1.699-1.416 1.699v.161h4.55v-.161c-.708 0-1.416-.647-1.416-1.699v-2.79Z" fill="#767C7E"/><path fill-rule="evenodd" clip-rule="evenodd" d="M48.928 30.945v.444c1.092.95 5.095 3.094 5.095 7.886 0 4.832-4.003 6.934-5.095 7.905v.425c-.02 0-.02-.02-.04-.02v-.93c.02 0 .02.02.04.02 1.031-.87 4.69-2.872 4.69-7.4 0-4.51-3.659-6.49-4.69-7.38l-.04.04v-.95l.04-.04Zm-.04 16.64c-1.213-1.011-5.5-3.256-5.5-8.31 0-5.014 4.287-7.258 5.5-8.29v.95c-1.072.89-4.711 2.872-4.711 7.34 0 4.469 3.64 6.49 4.71 7.38v.93Z" fill="#767C7E"/></svg>