<svg width="100" height="100" fill="none" xmlns="http://www.w3.org/2000/svg"><path d="m51.512 51.653-3.794-9.54-3.772 9.476a92.15 92.15 0 0 1 7.566.063ZM83 61.324c-8.13-3.535-17.274-6.154-28.018-7.038l3.272 7.946H55.72l-3.229-8.117a97.669 97.669 0 0 0-9.518-.076l-3.26 8.193h-2.534l3.317-8.061c-11.396.747-21.102 3.448-29.628 7.15v-.5c5.69-3.175 11.317-5.546 17.392-7.094V48.85l-6.842-10.502h2.542l5.429 8.726 5.43-8.726h2.54l-6.84 10.502-.002 4.342c3.476-.755 7.11-1.254 10.996-1.49L47.151 38h1.13l5.683 13.81c3.814.306 7.39.867 10.817 1.688V40.175h-5.59v-1.827h13.492v1.827h-5.587v13.924c5.51 1.54 10.682 3.778 15.903 6.727v.498Zm9.04-22.976h-13.49v1.827h5.588v16.467h2.314V40.175h5.587v-1.827ZM14.6 56.642l-2.313.003v-9.028H2.313v9.025H0V38.348h2.313v7.444h9.975v-7.444H14.6v18.294ZM98.14 39.772c-.11-.065-.29-.096-.535-.096h-.377v.915h.399c.19 0 .327-.02.422-.057a.395.395 0 0 0 .262-.394c0-.182-.06-.304-.17-.368Zm-.476-.395c.31 0 .539.03.685.088.26.109.389.323.389.639 0 .223-.082.39-.244.497a.952.952 0 0 1-.365.12c.201.03.342.112.435.246a.714.714 0 0 1 .134.391v.183c0 .06.003.122.006.186.005.067.011.11.022.133l.016.031h-.412l-.007-.024c-.003-.01-.003-.02-.005-.03l-.011-.082v-.2c0-.289-.082-.48-.238-.574-.096-.053-.256-.081-.493-.081h-.348v.991h-.445v-2.514h.88Zm-1.347-.13a1.906 1.906 0 0 0-.574 1.396c0 .548.189 1.017.57 1.403.383.389.847.58 1.394.58a1.89 1.89 0 0 0 1.396-.58c.38-.386.572-.855.572-1.403 0-.544-.191-1.01-.572-1.396a1.912 1.912 0 0 0-1.396-.578c-.544 0-1.005.193-1.39.578Zm3.01 3.017c-.446.45-.985.675-1.62.675a2.196 2.196 0 0 1-1.62-.675 2.229 2.229 0 0 1-.664-1.623 2.2 2.2 0 0 1 .671-1.616c.445-.446.983-.67 1.613-.67.635 0 1.174.224 1.62.67.45.443.672.984.672 1.616 0 .632-.223 1.173-.672 1.623Z" fill="#767C7E"/></svg>