<svg width="100" height="100" fill="none" xmlns="http://www.w3.org/2000/svg"><path d="M25.175 90.41c-3.716 0-4.79-3.712-4.79-6.408 0-2.777 1.131-6.447 4.861-6.447 3.698 0 4.775 3.737 4.757 6.365 0 1.17-.314 6.49-4.828 6.49Zm.071-14.056c-4.34 0-6.311 3.608-6.311 7.638 0 2.567.795 4.482 1.822 5.68 1.201 1.419 2.681 1.975 4.489 1.975 1.195 0 2.956-.217 4.379-1.893 1.18-1.394 1.847-3.637 1.868-5.852.011-3.287-1.408-7.549-6.247-7.549Zm-14.87 6.86H1.374v-6.497H0v14.574h1.373v-6.864h9.004v6.864h1.376V76.717h-1.376v6.497Zm86.265.228c-.453-.163-2.535-.702-2.95-.823-.82-.254-2.448-.77-2.448-2.546 0-1.933 1.853-2.596 3.419-2.596 1.262 0 2.432.449 3.155 1.458.322.442.49.935.614 1.31l1.28-.707c-.321-.806-1.28-3.191-5.006-3.191-2.268 0-4.793.923-4.793 3.79 0 2.707 2.325 3.462 4.38 4.005 1.907.492 2.76.702 3.426 1.258.392.296.885.906.885 1.958 0 1.537-1.238 3.088-4.041 3.088-1.501 0-3.01-.52-3.666-1.873-.27-.513-.328-1.119-.35-1.693l-1.382.727c.25 1.338.873 2.404 1.975 3.149.763.496 1.88.891 3.423.891 3.716 0 5.438-2.314 5.438-4.357 0-2.76-2.571-3.605-3.359-3.848Zm-39.36 1.02h7.375v-1.28H57.28v-5.177h8.145v-1.288h-9.521v14.574h10.041v-1.287h-8.665v-5.542Zm24.783-74.19-9.054.021L61.546 37.03 48.036 8.5 34.652 37.03l-11.23-26.758h-9.078l20.172 46.676 13.561-29.375 13.361 29.472 20.625-46.773ZM37.256 77.926h4.596v13.365h1.373V77.926h4.61v-1.209h-10.58v1.209Zm38.82-1.209h-1.415v14.574h9.464v-1.287h-8.048V76.716Z" fill="#767C7E"/></svg>