<svg width="100" height="100" viewBox="0 0 100 100" fill="none" xmlns="http://www.w3.org/2000/svg">
<rect x="0.5" y="0.5" width="99" height="99" rx="49.5" stroke="#037DB1" stroke-opacity="0.3"/>
<path d="M68.18 39.96C66.48 38.08 63.64 37.14 59.52 37.14H59.04V37.06C59.04 33.7 59.04 29.54 51.52 29.54H48.48C40.96 29.54 40.96 33.72 40.96 37.06V37.16H40.48C36.34 37.16 33.52 38.1 31.82 39.98C29.84 42.18 29.9 45.14 30.1 47.16L30.12 47.3L30.32 49.4C30.34 49.42 30.38 49.46 30.42 49.48C31.08 49.92 31.76 50.36 32.48 50.76C32.76 50.94 33.06 51.1 33.36 51.26C36.78 53.14 40.54 54.4 44.36 55.02C44.54 56.9 45.36 59.1 49.74 59.1C54.12 59.1 54.98 56.92 55.12 54.98C59.2 54.32 63.14 52.9 66.7 50.82C66.82 50.76 66.9 50.7 67 50.64C67.92 50.12 68.78 49.56 69.62 48.94C69.66 48.92 69.7 48.88 69.72 48.84L69.8 48.12L69.9 47.18C69.92 47.06 69.92 46.96 69.94 46.82C70.1 44.8 70.06 42.04 68.18 39.96ZM52.18 53.66C52.18 55.78 52.18 56.1 49.72 56.1C47.26 56.1 47.26 55.72 47.26 53.68V51.16H52.18V53.66ZM43.82 37.14V37.06C43.82 33.66 43.82 32.4 48.48 32.4H51.52C56.18 32.4 56.18 33.68 56.18 37.06V37.16H43.82V37.14Z" fill="#037DB1"/>
<path opacity="0.4" d="M67 50.6C66.9 50.66 66.8 50.7201 66.7 50.7801C63.14 52.8601 59.2 54.2601 55.12 54.9401C54.96 56.8601 54.12 59.0601 49.74 59.0601C45.36 59.0601 44.52 56.88 44.36 54.98C40.54 54.38 36.78 53.12 33.36 51.22C33.06 51.06 32.76 50.9 32.48 50.72C31.76 50.32 31.08 49.8801 30.42 49.4401C30.38 49.4201 30.34 49.3801 30.32 49.3601L31.54 62.3801C31.96 66.3601 33.6 70.46 42.4 70.46H57.64C66.44 70.46 68.08 66.3601 68.5 62.3601L69.76 48.8C69.74 48.84 69.7 48.88 69.66 48.9C68.8 49.52 67.92 50.1 67 50.6Z" fill="#037DB1"/>
</svg>
