<svg width="100" height="100" viewBox="0 0 100 100" fill="none" xmlns="http://www.w3.org/2000/svg">
<rect x="0.5" y="0.5" width="99" height="99" rx="49.5" stroke="#037DB1" stroke-opacity="0.3"/>
<path d="M69.94 62V64C69.94 67.3 69.94 70 63.94 70H35.94C29.94 70 29.94 67.3 29.94 64V62C29.94 60.9 30.84 60 31.94 60H67.94C69.04 60 69.94 60.9 69.94 62Z" fill="#037DB1"/>
<path opacity="0.4" d="M67.44 52V60H32.54V52C32.54 44.32 37.96 37.9 45.18 36.36C46.26 36.12 47.38 36 48.54 36H51.44C52.6 36 53.74 36.12 54.82 36.36C62.04 37.92 67.44 44.32 67.44 52Z" fill="#037DB1"/>
<path d="M55 35C55 35.48 54.94 35.92 54.82 36.36C53.74 36.12 52.6 36 51.44 36H48.54C47.38 36 46.26 36.12 45.18 36.36C45.06 35.92 45 35.48 45 35C45 32.24 47.24 30 50 30C52.76 30 55 32.24 55 35Z" fill="#037DB1"/>
<path d="M56 49.5H44C43.18 49.5 42.5 48.82 42.5 48C42.5 47.18 43.18 46.5 44 46.5H56C56.82 46.5 57.5 47.18 57.5 48C57.5 48.82 56.82 49.5 56 49.5Z" fill="#037DB1"/>
</svg>
