<svg width="26" height="26" viewBox="0 0 26 26" fill="none" xmlns="http://www.w3.org/2000/svg">
<path fill-rule="evenodd" clip-rule="evenodd" d="M17.0611 2.16669C17.2548 3.4827 16.7191 4.77197 16.0125 5.68413C15.2565 6.66255 13.9534 7.41929 12.6909 7.3798C12.4604 6.11983 13.0505 4.82165 13.7685 3.94898C14.5562 2.98585 15.9061 2.24695 17.0611 2.16669ZM20.8541 20.6903C21.505 19.6928 21.7481 19.1896 22.2534 18.0634C18.5784 16.6658 17.9896 11.4412 21.6266 9.436C20.5172 8.04482 18.9584 7.23839 17.4869 7.23839C16.4266 7.23839 15.7001 7.51509 15.0397 7.76663C14.4893 7.97624 13.9848 8.1684 13.3712 8.1684C12.7081 8.1684 12.1209 7.95786 11.5061 7.7374C10.8305 7.49516 10.1214 7.24094 9.24165 7.24094C7.59033 7.24094 5.83263 8.24993 4.71825 9.97489C3.15177 12.4044 3.41897 16.9716 5.95927 20.8623C6.86724 22.2547 8.08041 23.8192 9.66714 23.8332C10.3255 23.8397 10.7637 23.6432 11.2378 23.4306C11.7804 23.1872 12.3702 22.9227 13.3915 22.9172C14.4187 22.9111 14.9992 23.1788 15.5347 23.4258C15.9966 23.6389 16.425 23.8365 17.0778 23.8294C18.6658 23.8166 19.9461 22.0828 20.8541 20.6903Z" fill="#0B0B0A"/>
</svg>
