<svg width="214" height="46" viewBox="0 0 214 46" fill="none" xmlns="http://www.w3.org/2000/svg">
<path fill-rule="evenodd" clip-rule="evenodd" d="M1.39903e-06 7.92871H0.750381C1.41191 7.92822 2.06705 8.05809 2.67836 8.3109C3.28968 8.56372 3.84518 8.93452 4.31312 9.40211C4.78107 9.86971 5.15228 10.4249 5.40555 11.0361C5.65882 11.6472 5.78918 12.3022 5.78918 12.9638V38.653H5.0388C4.37696 38.6535 3.72151 38.5235 3.10995 38.2704C2.4984 38.0174 1.94273 37.6462 1.47473 37.1782C1.00674 36.7103 0.635602 36.1546 0.382554 35.543C0.129505 34.9315 -0.000491962 34.276 1.39903e-06 33.6142V7.92871Z" fill="#353546"/>
<path fill-rule="evenodd" clip-rule="evenodd" d="M25.9113 24.197L17.8034 16.0891C17.0693 15.2947 16.6574 14.2555 16.6478 13.1739L16.6216 11.1741V0.5H15.8712C14.5358 0.5 13.2551 1.03048 12.3109 1.97473C11.3666 2.91898 10.8361 4.19967 10.8361 5.53504V13.7217V14.6634C10.8618 15.4782 11.0307 16.2821 11.3351 17.0384C11.6619 17.847 12.1422 18.5847 12.7496 19.2107L19.4092 26.0617C20.2747 26.8243 20.9221 27.8032 21.2852 28.8981C21.5241 29.7686 21.6737 30.6611 21.7316 31.5619C21.7992 32.5749 21.7316 33.0364 21.8517 33.0627C22.2644 33.164 23.6976 29.0744 23.6976 29.0744L22.5533 27.5737L25.9113 24.197Z" fill="#353546"/>
<path d="M16.1961 30.0197C15.8491 29.2217 15.371 28.4875 14.7817 27.8473C14.4267 27.4249 14.0418 27.0287 13.6298 26.6617L7.31538 20.2235C6.40212 19.0017 5.8708 17.537 5.78836 16.0139V15.1322V13.6314V13.0123C5.78836 11.677 5.25788 10.3963 4.31362 9.45202C3.36937 8.50777 2.08869 7.97729 0.753309 7.97729H0.00292969V16.8168V18.5239C0.0471302 20.2254 0.728694 21.8483 1.91265 23.0712L8.56476 29.9221C8.59853 29.9559 8.73735 30.0722 8.91744 30.2373C9.20184 30.4955 9.47117 30.7698 9.7241 31.0589C10.1141 31.4825 10.422 31.9748 10.6321 32.5109C10.8009 32.9498 10.8812 33.4178 10.8684 33.8879L10.8947 35.8839V45.5H11.6451C12.9804 45.5 14.2611 44.9695 15.2054 44.0253C16.1496 43.081 16.6801 41.8003 16.6801 40.4649V33.3363C16.6801 33.0212 16.6801 32.706 16.6801 32.3946C16.6612 31.5805 16.4973 30.7763 16.1961 30.0197Z" fill="#353546"/>
<path fill-rule="evenodd" clip-rule="evenodd" d="M21.7041 7.92871H22.4545C23.116 7.92822 23.7712 8.05809 24.3825 8.3109C24.9938 8.56372 25.5493 8.93452 26.0172 9.40211C26.4852 9.86971 26.8564 10.4249 27.1097 11.0361C27.3629 11.6472 27.4933 12.3022 27.4933 12.9638V38.653H26.7429C26.0814 38.653 25.4263 38.5226 24.8152 38.2694C24.2041 38.0161 23.6489 37.6449 23.1813 37.1769C22.7137 36.709 22.3429 36.1535 22.09 35.5422C21.8372 34.9308 21.7074 34.2757 21.7079 33.6142V7.92871H21.7041Z" fill="#353546"/>
<path fill-rule="evenodd" clip-rule="evenodd" d="M210.216 13.35C208.306 11.88 205.826 11.88 203.216 11.88H148.556C145.926 11.88 143.446 11.88 141.556 13.35C139.476 14.95 138.556 18.02 138.556 23C138.556 27.98 139.556 31.05 141.556 32.65C143.466 34.12 145.946 34.12 148.556 34.12H203.216C205.836 34.12 208.316 34.12 210.216 32.65C212.296 31.05 213.266 27.98 213.266 23C213.266 18.02 212.296 14.95 210.216 13.35ZM208.986 31.05C207.626 32.11 205.576 32.11 203.206 32.11H148.556C146.186 32.11 144.136 32.11 142.766 31.05C141.246 29.88 140.506 27.25 140.506 23C140.506 18.75 141.246 16.12 142.766 15C144.136 13.94 146.186 13.94 148.556 13.94H203.216C205.586 13.94 207.636 13.94 208.996 15C210.526 16.17 211.266 18.8 211.266 23C211.266 27.2 210.556 29.84 208.986 31.05Z" fill="#353546"/>
<path d="M54.1156 22.54L61.5556 32.44H56.9556L50.4856 23.84H45.6056V32.49H41.5556V12.91H45.6056V21.7H50.2056L56.6256 12.91H61.0856L54.1156 22.54Z" fill="#353546"/>
<path d="M74.9055 30.9099C76.1489 30.9136 77.3825 30.6899 78.5455 30.2499C79.7862 29.7685 80.9183 29.0444 81.8755 28.1199L83.2755 29.7899C82.1551 30.8133 80.8479 31.6112 79.4255 32.1399C77.8911 32.716 76.2645 33.0074 74.6255 32.9999C73.0236 33.0233 71.4279 32.7973 69.8955 32.3299C68.5658 31.9294 67.338 31.2473 66.2955 30.3299C65.2842 29.4463 64.4961 28.3361 63.9955 27.0899C63.4318 25.6823 63.1564 24.1759 63.1855 22.6599C63.1543 21.1423 63.4227 19.6335 63.9755 18.2199C64.4775 16.9847 65.2497 15.8776 66.2355 14.9799C67.2599 14.0745 68.4623 13.3933 69.7655 12.9799C71.2483 12.5209 72.7934 12.2949 74.3455 12.3099C75.9855 12.3008 77.613 12.5958 79.1455 13.1799C80.5673 13.7051 81.8745 14.4996 82.9955 15.5199L81.5555 17.2399C80.6315 16.3346 79.537 15.6218 78.3353 15.1428C77.1337 14.6639 75.8489 14.4284 74.5555 14.4499C73.5945 14.4415 72.6396 14.6041 71.7355 14.9299C70.8775 15.2508 70.1045 15.7639 69.4755 16.4299C68.8049 17.1655 68.2971 18.0345 67.9855 18.9799C67.2524 21.3887 67.2524 23.9611 67.9855 26.3699C68.3084 27.331 68.8452 28.2063 69.5555 28.9299C70.2134 29.6012 71.0177 30.1112 71.9055 30.4199C72.8683 30.7607 73.8843 30.9266 74.9055 30.9099Z" fill="#353546"/>
<path d="M105.316 12.91V32.44H101.316V23.93H89.8356V32.44H85.7856V12.91H89.8356V21.84H101.276V12.91H105.316Z" fill="#353546"/>
<path d="M119.276 12.9099C120.541 12.8931 121.802 13.0478 123.026 13.3699C124.038 13.6295 124.989 14.0847 125.826 14.7099C126.562 15.2738 127.155 16.0036 127.556 16.8399C127.98 17.7435 128.192 18.7319 128.176 19.7299C128.217 21.0711 127.824 22.3899 127.056 23.4899C126.25 24.5688 125.144 25.3862 123.876 25.8399L128.476 32.4199H123.876L119.776 26.5599H113.276V32.4199H109.276V12.9099H119.276ZM113.276 14.9999V24.4899H119.276C119.891 24.5311 120.508 24.4498 121.092 24.2507C121.676 24.0516 122.214 23.7386 122.676 23.3299C123.448 22.294 123.865 21.0367 123.865 19.7449C123.865 18.4531 123.448 17.1958 122.676 16.1599C121.741 15.3383 120.518 14.9211 119.276 14.9999H113.276Z" fill="#353546"/>
<path d="M149.926 19.84H153.066C153.48 19.8322 153.893 19.8759 154.296 19.97C154.6 20.0363 154.891 20.1547 155.156 20.32C155.366 20.4473 155.539 20.6283 155.657 20.8444C155.775 21.0605 155.833 21.304 155.826 21.55C155.832 21.8553 155.737 22.154 155.556 22.4C155.342 22.6595 155.051 22.845 154.726 22.93C155.133 22.9944 155.51 23.183 155.806 23.47C156.062 23.7394 156.202 24.0985 156.196 24.47C156.214 24.7339 156.165 24.998 156.053 25.2377C155.941 25.4773 155.77 25.6846 155.556 25.84C154.892 26.2095 154.134 26.3764 153.376 26.32H149.966L149.926 19.84ZM153.066 22.65C153.956 22.65 154.396 22.29 154.396 21.55C154.405 21.4077 154.38 21.2653 154.322 21.1347C154.265 21.0042 154.177 20.8894 154.066 20.8C153.772 20.6009 153.42 20.5058 153.066 20.53H151.266V22.65H153.066ZM151.266 23.35V25.61H153.336C153.71 25.6363 154.083 25.5378 154.396 25.33C154.519 25.2307 154.616 25.1037 154.68 24.9594C154.745 24.8152 154.774 24.6577 154.766 24.5C154.781 24.3357 154.755 24.1703 154.69 24.0185C154.625 23.8667 154.524 23.7332 154.396 23.63C154.083 23.4221 153.71 23.3237 153.336 23.35H151.266Z" fill="#353546"/>
<path d="M160.626 25.84C160.905 25.8448 161.182 25.8008 161.446 25.7099C161.679 25.6332 161.892 25.5031 162.066 25.33C162.249 25.1367 162.386 24.9041 162.466 24.6499C162.571 24.3276 162.619 23.9889 162.606 23.6499V19.84H163.946V23.67C163.975 24.0657 163.913 24.4628 163.764 24.8305C163.615 25.1982 163.383 25.5265 163.086 25.7899C162.345 26.2413 161.494 26.48 160.626 26.48C159.758 26.48 158.907 26.2413 158.166 25.7899C157.869 25.5265 157.637 25.1982 157.488 24.8305C157.339 24.4628 157.277 24.0657 157.306 23.67V19.84H158.646V23.67C158.638 24.0087 158.685 24.3464 158.786 24.67C158.87 24.9222 159.006 25.1539 159.186 25.3499C159.36 25.5231 159.572 25.6532 159.806 25.7299C160.071 25.814 160.348 25.8512 160.626 25.84Z" fill="#353546"/>
<path d="M171.236 24.5899C171.242 24.8557 171.181 25.1187 171.059 25.3547C170.937 25.5907 170.757 25.792 170.536 25.9399C170.226 26.126 169.888 26.2611 169.536 26.3399C169.052 26.44 168.559 26.4869 168.066 26.4799C167.731 26.4845 167.397 26.4611 167.066 26.4099C166.764 26.3623 166.467 26.2921 166.176 26.1999C165.909 26.111 165.651 25.9971 165.406 25.8599C165.184 25.7404 164.979 25.5925 164.796 25.4199L165.256 24.8699C165.616 25.1746 166.029 25.4087 166.476 25.5599C166.974 25.7166 167.494 25.7942 168.016 25.7899C168.472 25.832 168.93 25.7417 169.336 25.5299C169.457 25.4562 169.558 25.3518 169.626 25.2272C169.694 25.1026 169.729 24.9621 169.726 24.8199C169.726 24.7049 169.699 24.5915 169.647 24.489C169.594 24.3865 169.519 24.2977 169.426 24.2299C169.118 24.0238 168.781 23.8654 168.426 23.7599L166.676 23.2099C166.191 23.0746 165.744 22.8319 165.366 22.4999C165.219 22.3598 165.105 22.1901 165.029 22.0022C164.953 21.8143 164.918 21.6124 164.926 21.4099C164.924 21.1801 164.979 20.9535 165.086 20.7499C165.204 20.5251 165.376 20.3328 165.586 20.1899C165.85 20.0092 166.145 19.8771 166.456 19.7999C166.874 19.6962 167.305 19.6492 167.736 19.6599C168.037 19.6584 168.338 19.6818 168.636 19.7299C168.928 19.7775 169.215 19.8477 169.496 19.9399C169.762 20.0308 170.02 20.1445 170.266 20.2799C170.486 20.402 170.691 20.5497 170.876 20.7199L170.416 21.2699C170.066 20.9721 169.667 20.7385 169.236 20.5799C168.752 20.4213 168.245 20.3436 167.736 20.3499C167.386 20.3333 167.04 20.4165 166.736 20.5899C166.634 20.6512 166.549 20.7376 166.489 20.8408C166.43 20.9441 166.398 21.0608 166.396 21.1799C166.394 21.2961 166.414 21.4115 166.456 21.5199C166.511 21.6202 166.586 21.7086 166.676 21.7799C166.795 21.8788 166.93 21.9566 167.076 22.0099C167.246 22.0799 167.446 22.1599 167.696 22.2399L169.436 22.7899C169.919 22.9316 170.368 23.1697 170.756 23.4899C170.911 23.6276 171.034 23.7972 171.117 23.9871C171.2 24.1771 171.24 24.3828 171.236 24.5899Z" fill="#353546"/>
<path d="M173.496 26.3H172.156V19.84H173.496V26.3Z" fill="#353546"/>
<path d="M181.436 19.84V26.3H179.676L176.216 21.0399H176.126V26.3H174.786V19.84H176.556L180.016 25.0999H180.106V19.84H181.436Z" fill="#353546"/>
<path d="M184.056 20.53V22.6499H187.426V23.3499H184.056V25.61H188.356V26.3H182.726V19.84H188.356V20.53H184.056Z" fill="#353546"/>
<path d="M195.266 24.59C195.27 24.8489 195.215 25.1053 195.106 25.34C194.983 25.5847 194.796 25.792 194.566 25.94C194.257 26.1279 193.919 26.263 193.566 26.34C193.086 26.44 192.596 26.487 192.106 26.48C191.771 26.4846 191.437 26.4612 191.106 26.41C190.808 26.3623 190.513 26.292 190.226 26.2C189.993 26.0987 189.769 25.9783 189.556 25.84C189.336 25.718 189.131 25.5703 188.946 25.4L189.406 24.85C189.768 25.1567 190.185 25.391 190.636 25.54C191.134 25.6966 191.654 25.7742 192.176 25.77C192.631 25.8098 193.089 25.7197 193.496 25.51C193.617 25.4363 193.717 25.3319 193.786 25.2072C193.854 25.0826 193.889 24.9422 193.886 24.8C193.884 24.6843 193.855 24.5706 193.801 24.4681C193.747 24.3657 193.67 24.2772 193.576 24.21C193.269 24.0027 192.931 23.8441 192.576 23.74L190.816 23.19C190.332 23.0522 189.885 22.8098 189.506 22.48C189.361 22.3387 189.247 22.1689 189.171 21.9812C189.095 21.7936 189.06 21.5923 189.066 21.39C189.069 21.1608 189.124 20.9352 189.226 20.73C189.348 20.5047 189.523 20.3126 189.736 20.17C189.987 20.0124 190.265 19.9006 190.556 19.84C190.971 19.7362 191.398 19.6891 191.826 19.7C192.127 19.6976 192.428 19.7211 192.726 19.77C193.017 19.8176 193.305 19.8878 193.586 19.98C193.853 20.069 194.11 20.1828 194.356 20.32C194.576 20.442 194.781 20.5897 194.966 20.76L194.506 21.31C194.158 21.0102 193.758 20.7764 193.326 20.62C192.842 20.4614 192.335 20.3836 191.826 20.39C191.476 20.3711 191.129 20.4544 190.826 20.63C190.722 20.6908 190.636 20.7767 190.575 20.8799C190.514 20.9831 190.479 21.1001 190.476 21.22C190.472 21.3373 190.496 21.4538 190.546 21.56C190.594 21.6621 190.666 21.7513 190.756 21.82C190.876 21.9168 191.011 21.9944 191.156 22.05L191.776 22.28L193.526 22.83C194.009 22.9717 194.458 23.2098 194.846 23.53C194.984 23.6691 195.092 23.8348 195.164 24.017C195.237 24.1992 195.271 24.3941 195.266 24.59Z" fill="#353546"/>
<path d="M202.186 24.59C202.19 24.8488 202.135 25.1053 202.026 25.34C201.903 25.5847 201.716 25.7919 201.486 25.94C201.177 26.1278 200.839 26.263 200.486 26.34C200.006 26.44 199.516 26.4869 199.026 26.48C198.691 26.4846 198.357 26.4611 198.026 26.41C197.728 26.3622 197.433 26.292 197.146 26.2C196.876 26.111 196.615 25.9972 196.366 25.86C196.144 25.7404 195.939 25.5925 195.756 25.42L196.216 24.87C196.578 25.1767 196.995 25.4109 197.446 25.56C197.944 25.7166 198.464 25.7942 198.986 25.79C199.442 25.8298 199.899 25.7396 200.306 25.53C200.426 25.4558 200.525 25.351 200.592 25.2263C200.658 25.1015 200.691 24.9613 200.686 24.8199C200.686 24.7049 200.659 24.5915 200.607 24.489C200.554 24.3865 200.479 24.2977 200.386 24.23C200.079 24.0226 199.741 23.8641 199.386 23.76L197.626 23.2099C197.142 23.0721 196.695 22.8298 196.316 22.5C196.171 22.3587 196.057 22.1888 195.981 22.0012C195.906 21.8136 195.87 21.6122 195.876 21.41C195.874 21.1802 195.929 20.9535 196.036 20.75C196.157 20.5274 196.328 20.3357 196.536 20.19C196.803 20.0075 197.101 19.8754 197.416 19.8C197.831 19.6962 198.258 19.6491 198.686 19.66C198.987 19.6576 199.288 19.681 199.586 19.73C199.878 19.7775 200.165 19.8477 200.446 19.94C200.713 20.0289 200.97 20.1428 201.216 20.28C201.436 20.402 201.641 20.5497 201.826 20.72L201.366 21.2699C201.018 20.9701 200.618 20.7363 200.186 20.58C199.702 20.4213 199.195 20.3436 198.686 20.3499C198.336 20.331 197.989 20.4144 197.686 20.59C197.582 20.6507 197.496 20.7367 197.435 20.8399C197.374 20.9431 197.34 21.06 197.336 21.1799C197.332 21.2972 197.356 21.4138 197.406 21.5199C197.454 21.6221 197.526 21.7112 197.616 21.78C197.736 21.8768 197.871 21.9544 198.016 22.01L198.636 22.2399L200.376 22.79C200.859 22.9316 201.308 23.1697 201.696 23.4899C201.853 23.6266 201.978 23.7959 202.062 23.9859C202.147 24.1758 202.189 24.382 202.186 24.59Z" fill="#353546"/>
</svg>
