<svg width="227" height="48" viewBox="0 0 227 48" fill="none" xmlns="http://www.w3.org/2000/svg">
<path fill-rule="evenodd" clip-rule="evenodd" d="M1.4923e-06 7.92396H0.800407C1.50604 7.92343 2.20485 8.06196 2.85692 8.33163C3.50899 8.6013 4.10152 8.99682 4.60067 9.49559C5.09981 9.99436 5.49577 10.5866 5.76592 11.2385C6.03608 11.8903 6.17513 12.589 6.17513 13.2947V40.6965H5.37472C4.66876 40.697 3.96961 40.5584 3.31728 40.2885C2.66496 40.0185 2.07224 39.6227 1.57305 39.1235C1.07385 38.6243 0.677976 38.0316 0.408057 37.3792C0.138139 36.7269 -0.000524759 36.0278 1.4923e-06 35.3218V7.92396Z" fill="white"/>
<path fill-rule="evenodd" clip-rule="evenodd" d="M27.6387 25.2768L18.9903 16.6284C18.2073 15.7811 17.7679 14.6725 17.7577 13.5188L17.7297 11.3857V0H16.9292C15.5048 0 14.1388 0.565841 13.1316 1.57305C12.1244 2.58025 11.5585 3.94631 11.5585 5.37071V14.1031V15.1076C11.5859 15.9768 11.7661 16.8343 12.0908 17.6409C12.4394 18.5035 12.9517 19.2904 13.5996 19.9581L20.7032 27.2658C21.6263 28.0793 22.3169 29.1234 22.7042 30.2913C22.959 31.2198 23.1186 32.1719 23.1804 33.1327C23.2524 34.2133 23.1804 34.7055 23.3085 34.7335C23.7487 34.8416 25.2775 30.4794 25.2775 30.4794L24.0569 28.8786L27.6387 25.2768Z" fill="white"/>
<path d="M17.2759 31.4877C16.9057 30.6365 16.3957 29.8533 15.7671 29.1705C15.3885 28.7199 14.9779 28.2973 14.5385 27.9058L7.80307 21.0384C6.82892 19.7352 6.26219 18.1728 6.17425 16.5481V15.6076V14.0068V13.3465C6.17425 11.9221 5.6084 10.556 4.6012 9.54883C3.59399 8.54163 2.22793 7.97578 0.803529 7.97578H0.00312424V17.4045V19.2255C0.0502715 21.0404 0.777272 22.7715 2.04016 24.0759L9.13574 31.3836C9.17176 31.4196 9.31984 31.5437 9.51194 31.7198C9.8153 31.9952 10.1026 32.2878 10.3724 32.5962C10.7884 33.048 11.1168 33.5732 11.3409 34.145C11.521 34.6132 11.6067 35.1123 11.593 35.6137L11.621 37.7428V48H12.4214C13.8458 48 15.2119 47.4342 16.2191 46.427C17.2263 45.4197 17.7921 44.0537 17.7921 42.6293V35.0254C17.7921 34.6893 17.7921 34.3531 17.7921 34.0209C17.772 33.1525 17.5971 32.2947 17.2759 31.4877Z" fill="white"/>
<path fill-rule="evenodd" clip-rule="evenodd" d="M23.151 7.92396H23.9514C24.6571 7.92343 25.3559 8.06196 26.008 8.33163C26.66 8.6013 27.2526 8.99682 27.7517 9.49559C28.2508 9.99436 28.6468 10.5866 28.917 11.2385C29.1871 11.8903 29.3262 12.589 29.3262 13.2947V40.6965H28.5258C27.8201 40.6965 27.1214 40.5575 26.4696 40.2873C25.8177 40.0172 25.2254 39.6212 24.7267 39.122C24.2279 38.6229 23.8324 38.0304 23.5627 37.3783C23.293 36.7262 23.1545 36.0274 23.155 35.3218V7.92396H23.151Z" fill="white"/>
<path fill-rule="evenodd" clip-rule="evenodd" d="M223.138 13.5863C221.103 12 218.46 12 215.678 12H157.424C154.621 12 151.978 12 149.964 13.5863C147.747 15.3129 146.767 18.6259 146.767 24C146.767 29.3741 147.832 32.687 149.964 34.4137C151.999 36 154.642 36 157.424 36H215.678C218.47 36 221.113 36 223.138 34.4137C225.355 32.687 226.389 29.3741 226.389 24C226.389 18.6259 225.355 15.3129 223.138 13.5863ZM221.827 32.6871C220.378 33.8309 218.193 33.8309 215.667 33.8309H157.424C154.898 33.8309 152.713 33.8309 151.253 32.6871C149.633 31.4245 148.845 28.5863 148.845 24C148.845 19.4137 149.633 16.5755 151.253 15.3669C152.713 14.223 154.898 14.223 157.424 14.223H215.678C218.204 14.223 220.389 14.223 221.838 15.3669C223.469 16.6295 224.257 19.4676 224.257 24C224.257 28.5324 223.501 31.3813 221.827 32.6871Z" fill="white"/>
<path d="M56.7746 23.5036L64.7037 34.1871H59.8013L52.9059 24.9065H47.705V34.241H43.3887V13.1115H47.705V22.5971H52.6075L59.4496 13.1115H64.2028L56.7746 23.5036Z" fill="white"/>
<path d="M78.9314 32.5359C80.2566 32.5399 81.5713 32.2985 82.8107 31.8236C84.133 31.3042 85.3395 30.5227 86.3597 29.5251L87.8517 31.3272C86.6576 32.4316 85.2645 33.2926 83.7486 33.8632C82.1133 34.4849 80.3797 34.7994 78.633 34.7913C76.9258 34.8165 75.2251 34.5726 73.592 34.0682C72.1749 33.6361 70.8663 32.9 69.7553 31.91C68.6775 30.9564 67.8376 29.7583 67.304 28.4136C66.7033 26.8946 66.4097 25.2689 66.4408 23.633C66.4075 21.9953 66.6936 20.3671 67.2827 18.8416C67.8178 17.5087 68.6408 16.314 69.6913 15.3452C70.7831 14.3682 72.0646 13.6331 73.4534 13.1869C75.0337 12.6917 76.6804 12.4478 78.3346 12.4639C80.0824 12.4541 81.8169 12.7724 83.4502 13.4028C84.9655 13.9696 86.3586 14.827 87.5533 15.9279L86.0186 17.7841C85.0339 16.8071 83.8674 16.0379 82.5867 15.5211C81.3061 15.0042 79.9368 14.7501 78.5584 14.7733C77.5342 14.7643 76.5165 14.9396 75.553 15.2913C74.6386 15.6376 73.8147 16.1913 73.1444 16.91C72.4296 17.7038 71.8885 18.6415 71.5564 19.6618C70.775 22.2612 70.775 25.0372 71.5564 27.6366C71.9005 28.6738 72.4726 29.6184 73.2296 30.3992C73.9307 31.1237 74.7879 31.674 75.7341 32.0071C76.7603 32.3748 77.843 32.5539 78.9314 32.5359Z" fill="white"/>
<path d="M111.341 13.1115V34.1871H107.078V25.0036H94.8431V34.1871H90.5269V13.1115H94.8431V22.7482H107.035V13.1115H111.341Z" fill="white"/>
<path d="M126.219 13.1114C127.567 13.0933 128.912 13.2603 130.216 13.6078C131.294 13.8879 132.308 14.3792 133.2 15.0539C133.984 15.6624 134.616 16.4499 135.043 17.3524C135.495 18.3276 135.721 19.3942 135.704 20.4711C135.748 21.9185 135.33 23.3416 134.511 24.5287C133.652 25.6929 132.473 26.575 131.122 27.0647L136.024 34.1654H131.122L126.752 27.8416H119.825V34.1654H115.562V13.1114H126.219ZM119.825 15.3668V25.6078H126.219C126.875 25.6523 127.533 25.5646 128.155 25.3497C128.777 25.1348 129.35 24.7971 129.843 24.356C130.665 23.2382 131.11 21.8814 131.11 20.4873C131.11 19.0933 130.665 17.7365 129.843 16.6186C128.846 15.732 127.543 15.2818 126.219 15.3668H119.825Z" fill="white"/>
<path d="M158.884 20.5899H162.231C162.672 20.5815 163.112 20.6287 163.542 20.7302C163.866 20.8018 164.176 20.9295 164.458 21.1079C164.682 21.2453 164.867 21.4406 164.992 21.6738C165.118 21.907 165.18 22.1698 165.172 22.4352C165.178 22.7647 165.077 23.087 164.884 23.3525C164.656 23.6326 164.347 23.8327 164 23.9244C164.434 23.994 164.836 24.1975 165.151 24.5072C165.423 24.798 165.573 25.1854 165.566 25.5863C165.586 25.8711 165.533 26.1562 165.414 26.4148C165.295 26.6734 165.113 26.8971 164.884 27.0647C164.177 27.4635 163.369 27.6436 162.561 27.5827H158.927L158.884 20.5899ZM162.231 23.6223C163.179 23.6223 163.648 23.2338 163.648 22.4352C163.658 22.2817 163.631 22.128 163.57 21.9871C163.509 21.8463 163.415 21.7224 163.296 21.6259C162.983 21.411 162.608 21.3085 162.231 21.3345H160.312V23.6223H162.231ZM160.312 24.3777V26.8165H162.518C162.918 26.8449 163.315 26.7386 163.648 26.5144C163.779 26.4072 163.883 26.2702 163.952 26.1145C164.02 25.9588 164.051 25.7889 164.042 25.6187C164.058 25.4414 164.031 25.2629 163.962 25.0991C163.893 24.9353 163.785 24.7912 163.648 24.6798C163.315 24.4555 162.918 24.3493 162.518 24.3777H160.312Z" fill="white"/>
<path d="M170.288 27.0647C170.585 27.0699 170.881 27.0224 171.162 26.9244C171.411 26.8416 171.637 26.7012 171.823 26.5143C172.018 26.3058 172.164 26.0548 172.249 25.7805C172.361 25.4326 172.412 25.0672 172.398 24.7014V20.5899H173.826V24.723C173.857 25.15 173.791 25.5786 173.632 25.9754C173.473 26.3721 173.226 26.7264 172.91 27.0107C172.12 27.4978 171.213 27.7554 170.288 27.7554C169.363 27.7554 168.456 27.4978 167.666 27.0107C167.35 26.7264 167.103 26.3721 166.944 25.9754C166.785 25.5786 166.718 25.15 166.75 24.723V20.5899H168.178V24.723C168.169 25.0885 168.22 25.453 168.327 25.8021C168.416 26.0744 168.562 26.3244 168.753 26.5359C168.939 26.7228 169.165 26.8632 169.414 26.946C169.696 27.0367 169.992 27.0769 170.288 27.0647Z" fill="white"/>
<path d="M181.595 25.7158C181.602 26.0025 181.537 26.2864 181.407 26.541C181.277 26.7957 181.085 27.0129 180.849 27.1726C180.519 27.3734 180.16 27.5191 179.784 27.6042C179.268 27.7122 178.743 27.7629 178.217 27.7553C177.86 27.7603 177.504 27.735 177.151 27.6798C176.83 27.6284 176.513 27.5527 176.203 27.4532C175.919 27.3572 175.644 27.2343 175.382 27.0863C175.146 26.9572 174.927 26.7976 174.732 26.6114L175.222 26.0179C175.606 26.3467 176.047 26.5993 176.523 26.7625C177.053 26.9315 177.607 27.0153 178.164 27.0107C178.65 27.0561 179.138 26.9587 179.571 26.7302C179.7 26.6506 179.807 26.5379 179.88 26.4034C179.953 26.2689 179.989 26.1174 179.986 25.964C179.986 25.8398 179.957 25.7175 179.902 25.6068C179.846 25.4962 179.766 25.4004 179.666 25.3273C179.338 25.1049 178.979 24.9339 178.601 24.8201L176.736 24.2265C176.219 24.0805 175.742 23.8187 175.34 23.4604C175.184 23.3091 175.061 23.1261 174.98 22.9233C174.899 22.7205 174.862 22.5026 174.871 22.2841C174.869 22.0361 174.927 21.7915 175.041 21.5719C175.167 21.3293 175.35 21.1217 175.574 20.9676C175.856 20.7725 176.17 20.63 176.501 20.5467C176.947 20.4348 177.406 20.384 177.865 20.3956C178.187 20.394 178.507 20.4192 178.825 20.4712C179.135 20.5225 179.442 20.5983 179.741 20.6978C180.025 20.7958 180.299 20.9186 180.562 21.0647C180.796 21.1964 181.014 21.3558 181.212 21.5395L180.722 22.133C180.349 21.8116 179.923 21.5595 179.464 21.3884C178.948 21.2172 178.408 21.1334 177.865 21.1402C177.493 21.1222 177.123 21.2121 176.8 21.3992C176.691 21.4653 176.6 21.5585 176.537 21.6699C176.473 21.7814 176.439 21.9073 176.437 22.0359C176.435 22.1612 176.457 22.2858 176.501 22.4028C176.56 22.5111 176.64 22.6064 176.736 22.6834C176.863 22.7901 177.007 22.874 177.162 22.9316C177.343 23.0071 177.556 23.0935 177.823 23.1798L179.677 23.7733C180.192 23.9262 180.67 24.1832 181.084 24.5287C181.249 24.6772 181.38 24.8603 181.469 25.0653C181.557 25.2702 181.6 25.4922 181.595 25.7158Z" fill="white"/>
<path d="M184.004 27.5611H182.576V20.5899H184.004V27.5611Z" fill="white"/>
<path d="M192.466 20.5899V27.5611H190.59L186.903 21.8848H186.807V27.5611H185.379V20.5899H187.265L190.953 26.2661H191.048V20.5899H192.466Z" fill="white"/>
<path d="M195.258 21.3345V23.6223H198.85V24.3776H195.258V26.8165H199.841V27.5611H193.841V20.5899H199.841V21.3345H195.258Z" fill="white"/>
<path d="M207.205 25.7158C207.21 25.9952 207.151 26.272 207.035 26.5252C206.904 26.7893 206.705 27.0129 206.459 27.1727C206.13 27.3754 205.77 27.5213 205.394 27.6043C204.882 27.7123 204.36 27.7629 203.838 27.7554C203.481 27.7604 203.124 27.7351 202.772 27.6799C202.454 27.6283 202.141 27.5526 201.834 27.4532C201.586 27.344 201.347 27.214 201.12 27.0648C200.885 26.9331 200.667 26.7737 200.47 26.5899L200.96 25.9964C201.346 26.3274 201.791 26.5802 202.271 26.741C202.802 26.91 203.356 26.9938 203.912 26.9892C204.398 27.0322 204.886 26.9349 205.319 26.7086C205.449 26.6291 205.555 26.5164 205.628 26.3819C205.701 26.2474 205.738 26.0959 205.735 25.9425C205.733 25.8176 205.702 25.6949 205.644 25.5843C205.587 25.4737 205.505 25.3783 205.404 25.3058C205.077 25.082 204.717 24.9109 204.338 24.7986L202.463 24.2051C201.948 24.0563 201.471 23.7948 201.067 23.4389C200.912 23.2864 200.791 23.1031 200.71 22.9006C200.629 22.6981 200.591 22.4809 200.598 22.2626C200.601 22.0153 200.659 21.7718 200.768 21.5504C200.898 21.3073 201.085 21.0999 201.312 20.9461C201.58 20.7759 201.876 20.6554 202.186 20.5899C202.628 20.478 203.083 20.4271 203.539 20.4389C203.86 20.4363 204.181 20.4616 204.498 20.5144C204.809 20.5657 205.116 20.6415 205.415 20.741C205.699 20.837 205.974 20.9599 206.236 21.1079C206.47 21.2396 206.688 21.399 206.886 21.5827L206.395 22.1763C206.024 21.8527 205.598 21.6004 205.138 21.4317C204.622 21.2605 204.082 21.1766 203.539 21.1835C203.167 21.163 202.796 21.253 202.473 21.4424C202.363 21.508 202.271 21.6008 202.206 21.7122C202.141 21.8235 202.104 21.9498 202.1 22.0792C202.096 22.2057 202.122 22.3315 202.175 22.4461C202.227 22.5563 202.303 22.6525 202.399 22.7266C202.527 22.8311 202.671 22.9149 202.825 22.9748L203.486 23.223L205.351 23.8166C205.866 23.9694 206.344 24.2264 206.758 24.572C206.905 24.7221 207.02 24.9009 207.097 25.0975C207.174 25.2941 207.211 25.5044 207.205 25.7158Z" fill="white"/>
<path d="M214.58 25.7158C214.585 25.9952 214.527 26.2719 214.41 26.5251C214.279 26.7892 214.08 27.0129 213.834 27.1726C213.505 27.3753 213.145 27.5212 212.769 27.6043C212.257 27.7122 211.735 27.7629 211.213 27.7553C210.856 27.7603 210.499 27.7351 210.147 27.6798C209.829 27.6283 209.516 27.5525 209.209 27.4532C208.921 27.3572 208.643 27.2344 208.378 27.0863C208.142 26.9573 207.923 26.7976 207.728 26.6115L208.218 26.0179C208.604 26.3489 209.049 26.6017 209.529 26.7625C210.06 26.9316 210.613 27.0153 211.17 27.0107C211.656 27.0537 212.143 26.9565 212.577 26.7302C212.705 26.6501 212.81 26.537 212.881 26.4024C212.953 26.2678 212.987 26.1165 212.982 25.964C212.982 25.8399 212.953 25.7175 212.897 25.6068C212.842 25.4962 212.761 25.4004 212.662 25.3273C212.335 25.1036 211.975 24.9325 211.596 24.8201L209.721 24.2266C209.205 24.0778 208.729 23.8163 208.324 23.4604C208.17 23.3079 208.049 23.1246 207.968 22.9222C207.887 22.7197 207.849 22.5024 207.856 22.2841C207.854 22.0362 207.912 21.7915 208.026 21.5719C208.155 21.3317 208.338 21.1249 208.559 20.9676C208.844 20.7707 209.162 20.6281 209.497 20.5467C209.939 20.4347 210.394 20.3839 210.85 20.3956C211.172 20.3931 211.492 20.4184 211.809 20.4712C212.12 20.5225 212.427 20.5983 212.726 20.6978C213.01 20.7938 213.285 20.9167 213.547 21.0647C213.781 21.1964 213.999 21.3558 214.197 21.5395L213.707 22.133C213.335 21.8095 212.909 21.5572 212.449 21.3885C211.933 21.2173 211.393 21.1334 210.85 21.1402C210.478 21.1198 210.107 21.2098 209.785 21.3992C209.674 21.4648 209.582 21.5576 209.517 21.6689C209.452 21.7803 209.416 21.9065 209.412 22.0359C209.407 22.1625 209.433 22.2882 209.486 22.4028C209.538 22.5131 209.614 22.6093 209.71 22.6834C209.839 22.7879 209.982 22.8716 210.136 22.9316L210.797 23.1798L212.651 23.7733C213.166 23.9262 213.645 24.1832 214.058 24.5287C214.225 24.6762 214.359 24.8589 214.449 25.0639C214.539 25.2689 214.584 25.4914 214.58 25.7158Z" fill="white"/>
</svg>
