<svg width="151" height="32" viewBox="0 0 151 32" fill="none" xmlns="http://www.w3.org/2000/svg">
<path fill-rule="evenodd" clip-rule="evenodd" d="M9.9536e-07 5.28264H0.533867C1.00452 5.28229 1.47063 5.37464 1.90555 5.55442C2.34048 5.7342 2.73569 5.99788 3.06862 6.33039C3.40154 6.66291 3.66565 7.05773 3.84584 7.49231C4.02603 7.92689 4.11878 8.3927 4.11878 8.86312V27.131H3.58491C3.11403 27.1314 2.64771 27.0389 2.21261 26.859C1.77751 26.679 1.38217 26.4151 1.04921 26.0823C0.716255 25.7495 0.452206 25.3544 0.272172 24.9195C0.0921377 24.4846 -0.000350012 24.0185 9.9536e-07 23.5479V5.28264Z" fill="white"/>
<path fill-rule="evenodd" clip-rule="evenodd" d="M18.4348 16.8512L12.6664 11.0856C12.1442 10.5207 11.8511 9.78167 11.8443 9.01255L11.8256 7.5905V0H11.2917C10.3416 0 9.43049 0.377228 8.75869 1.0487C8.08689 1.72017 7.70948 2.63087 7.70948 3.58048V10.0718C7.72773 10.6512 7.8479 11.2228 8.0645 11.7606C8.29699 12.3357 8.63873 12.8602 9.07083 13.3054L13.8089 18.1772C14.4246 18.7195 14.8852 19.4156 15.1436 20.1942C15.3135 20.8132 15.42 21.4479 15.4612 22.0885C15.5093 22.8089 15.4612 23.137 15.5466 23.1557C15.8402 23.2277 16.8599 20.3196 16.8599 20.3196L16.0458 19.2524L18.4348 16.8512Z" fill="white"/>
<path d="M11.5229 20.9918C11.276 20.4243 10.9359 19.9022 10.5166 19.447C10.2641 19.1466 9.99018 18.8649 9.69709 18.6039L5.20461 14.0256C4.55485 13.1568 4.17685 12.1152 4.11819 11.0321V8.89766C4.11819 7.94806 3.74078 7.03735 3.06898 6.36588C2.39718 5.69442 1.48602 5.31719 0.53595 5.31719H0.00208436V12.817C0.0335313 14.027 0.518437 15.181 1.36077 16.0506L6.09349 20.9224C6.11752 20.9464 6.21628 21.0291 6.34441 21.1465C6.54675 21.3301 6.73837 21.5252 6.91831 21.7308C7.19581 22.032 7.41485 22.3821 7.56429 22.7633C7.68442 23.0754 7.74158 23.4082 7.73246 23.7425L7.75114 25.1619V32H8.28501C9.23508 32 10.1462 31.6228 10.818 30.9513C11.4898 30.2798 11.8672 29.3691 11.8672 28.4195V23.3503C11.8672 23.1262 11.8672 22.9021 11.8672 22.6806C11.8538 22.1017 11.7372 21.5298 11.5229 20.9918Z" fill="white"/>
<path fill-rule="evenodd" clip-rule="evenodd" d="M15.4416 5.28264H15.9755C16.4461 5.28229 16.9122 5.37464 17.3472 5.55442C17.7821 5.7342 18.1773 5.99788 18.5102 6.33039C18.8432 6.66291 19.1073 7.05773 19.2875 7.49231C19.4676 7.92689 19.5604 8.3927 19.5604 8.86312V27.131H19.0265C18.5559 27.131 18.0898 27.0383 17.655 26.8582C17.2203 26.6781 16.8252 26.4141 16.4926 26.0814C16.1599 25.7486 15.8961 25.3536 15.7162 24.9189C15.5363 24.4842 15.4439 24.0183 15.4443 23.5479V5.28264H15.4416Z" fill="white"/>
<path fill-rule="evenodd" clip-rule="evenodd" d="M148.832 9.05756C147.474 8 145.711 8 143.856 8H105.001C103.131 8 101.368 8 100.025 9.05756C98.5464 10.2086 97.8924 12.4173 97.8924 16C97.8924 19.5827 98.6033 21.7914 100.025 22.9424C101.383 24 103.146 24 105.001 24H143.856C145.718 24 147.481 24 148.832 22.9424C150.31 21.7914 151 19.5827 151 16C151 12.4173 150.31 10.2086 148.832 9.05756ZM147.958 21.7914C146.991 22.554 145.534 22.554 143.849 22.554H105.001C103.316 22.554 101.859 22.554 100.885 21.7914C99.8046 20.9496 99.2786 19.0576 99.2786 16C99.2786 12.9425 99.8046 11.0504 100.885 10.2446C101.859 9.48202 103.316 9.48202 105.001 9.48202H143.856C145.541 9.48202 146.998 9.48202 147.965 10.2446C149.052 11.0863 149.578 12.9784 149.578 16C149.578 19.0216 149.074 20.9209 147.958 21.7914Z" fill="white"/>
<path d="M37.8683 15.6691L43.157 22.7914H39.8871L35.2879 16.6043H31.8189V22.8273H28.94V8.74103H31.8189V15.0648H35.0889L39.6525 8.74103H42.8229L37.8683 15.6691Z" fill="white"/>
<path d="M52.6468 21.6906C53.5306 21.6932 54.4076 21.5323 55.2343 21.2158C56.1162 20.8695 56.9209 20.3485 57.6014 19.6834L58.5966 20.8848C57.8001 21.6211 56.8709 22.1951 55.8598 22.5755C54.7691 22.9899 53.6128 23.1996 52.4477 23.1942C51.309 23.211 50.1747 23.0484 49.0854 22.7122C48.1402 22.4241 47.2674 21.9333 46.5263 21.2733C45.8075 20.6376 45.2472 19.8389 44.8914 18.9424C44.4907 17.9297 44.2949 16.846 44.3156 15.7553C44.2934 14.6636 44.4842 13.5781 44.8772 12.5611C45.234 11.6725 45.783 10.876 46.4837 10.2301C47.2119 9.5788 48.0666 9.08871 48.993 8.79129C50.047 8.46111 51.1453 8.2985 52.2487 8.30928C53.4145 8.30273 54.5714 8.51494 55.6608 8.93518C56.6715 9.31307 57.6007 9.88465 58.3975 10.6186L57.3739 11.856C56.7171 11.2047 55.939 10.6919 55.0848 10.3474C54.2307 10.0028 53.3174 9.83337 52.398 9.84885C51.7148 9.84284 51.0361 9.95976 50.3934 10.1942C49.7835 10.4251 49.2339 10.7942 48.7868 11.2733C48.3101 11.8025 47.9492 12.4277 47.7277 13.1078C47.2065 14.8408 47.2065 16.6914 47.7277 18.4244C47.9572 19.1158 48.3388 19.7456 48.8437 20.2661C49.3113 20.7491 49.8831 21.116 50.5142 21.3381C51.1986 21.5832 51.9208 21.7026 52.6468 21.6906Z" fill="white"/>
<path d="M74.2638 8.74103V22.7914H71.4204V16.6691H63.2598V22.7914H60.3809V8.74103H63.2598V15.1655H71.3919V8.74103H74.2638Z" fill="white"/>
<path d="M84.1874 8.74095C85.0866 8.72886 85.9834 8.84018 86.8531 9.07188C87.5724 9.25862 88.2486 9.58613 88.8435 10.0359C89.3669 10.4416 89.7882 10.9666 90.0732 11.5683C90.3745 12.2184 90.5252 12.9295 90.514 13.6474C90.5433 14.6123 90.2641 15.5611 89.7178 16.3525C89.1449 17.1286 88.3586 17.7167 87.4573 18.0431L90.7272 22.7769H87.4573L84.5428 18.5611H79.9223V22.7769H77.0789V8.74095H84.1874ZM79.9223 10.2445V17.0719H84.1874C84.6248 17.1015 85.0636 17.043 85.4785 16.8998C85.8934 16.7565 86.276 16.5314 86.6043 16.2374C87.153 15.4921 87.4493 14.5876 87.4493 13.6582C87.4493 12.7288 87.153 11.8243 86.6043 11.0791C85.9396 10.488 85.0704 10.1879 84.1874 10.2445H79.9223Z" fill="white"/>
<path d="M105.975 13.7266H108.207C108.501 13.721 108.795 13.7525 109.081 13.8201C109.298 13.8678 109.505 13.953 109.693 14.0719C109.842 14.1636 109.965 14.2938 110.049 14.4492C110.133 14.6047 110.174 14.7799 110.169 14.9568C110.173 15.1765 110.106 15.3914 109.977 15.5683C109.825 15.755 109.618 15.8885 109.387 15.9496C109.676 15.996 109.944 16.1317 110.155 16.3381C110.337 16.532 110.436 16.7903 110.432 17.0575C110.445 17.2474 110.41 17.4374 110.33 17.6099C110.251 17.7823 110.129 17.9314 109.977 18.0432C109.505 18.309 108.966 18.4291 108.427 18.3885H106.003L105.975 13.7266ZM108.207 15.7482C108.84 15.7482 109.152 15.4892 109.152 14.9568C109.159 14.8544 109.141 14.752 109.1 14.6581C109.059 14.5642 108.997 14.4816 108.918 14.4173C108.709 14.274 108.459 14.2056 108.207 14.223H106.927V15.7482H108.207ZM106.927 16.2518V17.8777H108.399C108.665 17.8966 108.93 17.8258 109.152 17.6762C109.24 17.6048 109.309 17.5135 109.355 17.4097C109.4 17.3059 109.421 17.1926 109.415 17.0791C109.426 16.9609 109.407 16.8419 109.362 16.7327C109.316 16.6235 109.244 16.5275 109.152 16.4532C108.93 16.3037 108.665 16.2329 108.399 16.2518H106.927Z" fill="white"/>
<path d="M113.581 18.0431C113.779 18.0466 113.977 18.015 114.164 17.9496C114.33 17.8944 114.481 17.8008 114.605 17.6762C114.735 17.5372 114.832 17.3699 114.889 17.187C114.964 16.9551 114.998 16.7115 114.989 16.4676V13.7266H115.941V16.482C115.962 16.7667 115.918 17.0524 115.812 17.3169C115.706 17.5814 115.541 17.8176 115.33 18.0072C114.803 18.3319 114.198 18.5036 113.581 18.5036C112.964 18.5036 112.359 18.3319 111.832 18.0072C111.621 17.8176 111.457 17.5814 111.35 17.3169C111.244 17.0524 111.2 16.7667 111.221 16.482V13.7266H112.174V16.482C112.168 16.7257 112.202 16.9687 112.273 17.2014C112.333 17.3829 112.43 17.5496 112.557 17.6906C112.681 17.8152 112.832 17.9088 112.998 17.964C113.186 18.0245 113.384 18.0513 113.581 18.0431Z" fill="white"/>
<path d="M121.123 17.1438C121.128 17.335 121.084 17.5243 120.997 17.694C120.91 17.8638 120.783 18.0086 120.626 18.1151C120.405 18.2489 120.165 18.3461 119.915 18.4028C119.571 18.4748 119.221 18.5086 118.87 18.5036C118.632 18.5069 118.394 18.49 118.159 18.4532C117.945 18.419 117.733 18.3685 117.526 18.3021C117.337 18.2381 117.153 18.1562 116.979 18.0575C116.821 17.9715 116.676 17.8651 116.545 17.741L116.872 17.3453C117.128 17.5644 117.422 17.7329 117.74 17.8417C118.094 17.9544 118.463 18.0102 118.834 18.0072C119.158 18.0374 119.484 17.9725 119.773 17.8201C119.859 17.7671 119.93 17.692 119.979 17.6023C120.027 17.5126 120.052 17.4116 120.05 17.3093C120.05 17.2266 120.03 17.145 119.993 17.0712C119.956 16.9975 119.903 16.9336 119.837 16.8849C119.618 16.7366 119.378 16.6226 119.126 16.5467L117.882 16.151C117.537 16.0537 117.219 15.8791 116.95 15.6403C116.846 15.5394 116.765 15.4174 116.711 15.2822C116.657 15.147 116.632 15.0018 116.638 14.8561C116.637 14.6908 116.676 14.5277 116.751 14.3813C116.835 14.2195 116.958 14.0812 117.107 13.9784C117.295 13.8483 117.504 13.7533 117.725 13.6978C118.023 13.6232 118.329 13.5893 118.635 13.5971C118.849 13.596 119.063 13.6128 119.275 13.6474C119.482 13.6817 119.687 13.7322 119.886 13.7985C120.075 13.8639 120.259 13.9457 120.434 14.0431C120.59 14.1309 120.736 14.2372 120.867 14.3597L120.54 14.7554C120.292 14.5411 120.008 14.373 119.701 14.259C119.357 14.1448 118.997 14.0889 118.635 14.0935C118.387 14.0815 118.14 14.1414 117.924 14.2661C117.852 14.3102 117.791 14.3723 117.749 14.4466C117.707 14.5209 117.684 14.6049 117.683 14.6906C117.681 14.7742 117.696 14.8572 117.725 14.9352C117.765 15.0074 117.818 15.071 117.882 15.1223C117.966 15.1934 118.063 15.2494 118.166 15.2877C118.287 15.3381 118.429 15.3956 118.607 15.4532L119.844 15.8489C120.187 15.9508 120.506 16.1221 120.782 16.3525C120.892 16.4515 120.98 16.5735 121.039 16.7102C121.097 16.8468 121.126 16.9948 121.123 17.1438Z" fill="white"/>
<path d="M122.73 18.3741H121.777V13.7266H122.73V18.3741Z" fill="white"/>
<path d="M128.374 13.7266V18.3741H127.123L124.663 14.5899H124.599V18.3741H123.646V13.7266H124.905L127.364 17.5108H127.428V13.7266H128.374Z" fill="white"/>
<path d="M130.236 14.223V15.7482H132.632V16.2518H130.236V17.8777H133.293V18.3741H129.291V13.7266H133.293V14.223H130.236Z" fill="white"/>
<path d="M138.205 17.1439C138.208 17.3301 138.169 17.5146 138.091 17.6835C138.004 17.8595 137.871 18.0086 137.707 18.1151C137.488 18.2503 137.247 18.3475 136.996 18.4029C136.655 18.4749 136.307 18.5086 135.959 18.5036C135.721 18.5069 135.483 18.4901 135.248 18.4532C135.036 18.4189 134.827 18.3684 134.622 18.3022C134.457 18.2293 134.297 18.1427 134.146 18.0432C133.989 17.9554 133.844 17.8491 133.712 17.7266L134.039 17.3309C134.297 17.5516 134.593 17.7201 134.914 17.8273C135.268 17.94 135.637 17.9958 136.008 17.9928C136.332 18.0215 136.658 17.9566 136.947 17.8058C137.033 17.7527 137.104 17.6776 137.153 17.588C137.201 17.4983 137.226 17.3973 137.224 17.295C137.222 17.2117 137.202 17.1299 137.164 17.0562C137.125 16.9825 137.07 16.9189 137.003 16.8705C136.785 16.7213 136.545 16.6073 136.293 16.5324L135.042 16.1367C134.698 16.0376 134.38 15.8632 134.11 15.6259C134.007 15.5243 133.926 15.4021 133.872 15.2671C133.819 15.1321 133.793 14.9872 133.798 14.8417C133.8 14.6768 133.839 14.5146 133.911 14.3669C133.998 14.2049 134.122 14.0666 134.274 13.964C134.453 13.8506 134.65 13.7702 134.857 13.7266C135.152 13.652 135.455 13.6181 135.759 13.6259C135.974 13.6242 136.188 13.6411 136.399 13.6763C136.607 13.7105 136.811 13.761 137.011 13.8273C137.2 13.8914 137.383 13.9732 137.558 14.0719C137.714 14.1597 137.86 14.266 137.992 14.3885L137.665 14.7842C137.417 14.5685 137.133 14.4003 136.826 14.2878C136.482 14.1736 136.121 14.1177 135.759 14.1223C135.511 14.1087 135.264 14.1687 135.049 14.295C134.975 14.3387 134.914 14.4005 134.87 14.4748C134.827 14.549 134.802 14.6332 134.8 14.7194C134.797 14.8038 134.814 14.8876 134.85 14.964C134.884 15.0375 134.935 15.1016 134.999 15.1511C135.085 15.2207 135.181 15.2766 135.283 15.3166L135.724 15.482L136.968 15.8777C137.311 15.9796 137.63 16.1509 137.906 16.3813C138.004 16.4814 138.081 16.6006 138.133 16.7317C138.184 16.8627 138.209 17.003 138.205 17.1439Z" fill="white"/>
<path d="M143.124 17.1439C143.127 17.3301 143.088 17.5146 143.01 17.6834C142.923 17.8595 142.79 18.0086 142.626 18.1151C142.407 18.2502 142.167 18.3475 141.915 18.4029C141.574 18.4748 141.226 18.5086 140.878 18.5036C140.64 18.5069 140.402 18.49 140.167 18.4532C139.955 18.4189 139.746 18.3684 139.541 18.3021C139.349 18.2381 139.164 18.1563 138.987 18.0575C138.829 17.9715 138.684 17.8651 138.553 17.741L138.88 17.3453C139.137 17.566 139.434 17.7345 139.755 17.8417C140.109 17.9544 140.478 18.0102 140.849 18.0072C141.173 18.0358 141.499 17.971 141.788 17.8201C141.873 17.7668 141.943 17.6914 141.991 17.6016C142.038 17.5119 142.061 17.411 142.058 17.3093C142.058 17.2266 142.038 17.145 142.001 17.0712C141.964 16.9975 141.91 16.9336 141.844 16.8849C141.626 16.7357 141.386 16.6216 141.134 16.5467L139.882 16.151C139.539 16.0519 139.221 15.8775 138.951 15.6403C138.848 15.5386 138.767 15.4164 138.713 15.2814C138.66 15.1464 138.634 15.0016 138.638 14.8561C138.637 14.6908 138.676 14.5277 138.752 14.3813C138.839 14.2211 138.96 14.0833 139.108 13.9784C139.298 13.8471 139.51 13.7521 139.733 13.6978C140.028 13.6232 140.332 13.5893 140.636 13.5971C140.85 13.5954 141.064 13.6123 141.276 13.6475C141.483 13.6817 141.687 13.7322 141.887 13.7985C142.077 13.8625 142.26 13.9444 142.434 14.0431C142.591 14.1309 142.736 14.2372 142.868 14.3597L142.541 14.7554C142.294 14.5397 142.009 14.3715 141.702 14.259C141.358 14.1448 140.998 14.0889 140.636 14.0935C140.387 14.0799 140.14 14.1399 139.925 14.2662C139.852 14.3099 139.79 14.3717 139.747 14.446C139.703 14.5202 139.679 14.6044 139.676 14.6906C139.673 14.775 139.691 14.8588 139.726 14.9352C139.76 15.0087 139.812 15.0728 139.875 15.1223C139.961 15.1919 140.057 15.2478 140.16 15.2877L140.6 15.4532L141.837 15.8489C142.18 15.9508 142.5 16.1221 142.776 16.3525C142.887 16.4508 142.976 16.5726 143.036 16.7093C143.096 16.8459 143.126 16.9943 143.124 17.1439Z" fill="white"/>
</svg>
