<svg width="36" height="36" viewBox="0 0 36 36" fill="none" xmlns="http://www.w3.org/2000/svg">
<rect width="36" height="36" rx="5" transform="matrix(-4.37114e-08 1 1 4.37114e-08 0 0)" fill="#F1F1F1"/>
<mask id="path-2-outside-1_2103_17619" maskUnits="userSpaceOnUse" x="12" y="12" width="12" height="12" fill="black">
<rect fill="white" x="12" y="12" width="12" height="12"/>
<path fill-rule="evenodd" clip-rule="evenodd" d="M13 17.9531L13.6672 17.286L17.5286 21.1474L17.5286 13L18.4721 13L18.4721 21.1492L22.3354 17.286L23.0026 17.9531L18.6684 22.2872L18.6708 22.2896L18.0037 22.9568L18.0013 22.9544L17.9989 22.9568L17.3318 22.2896L17.3341 22.2872L13 17.9531Z"/>
</mask>
<path fill-rule="evenodd" clip-rule="evenodd" d="M13 17.9531L13.6672 17.286L17.5286 21.1474L17.5286 13L18.4721 13L18.4721 21.1492L22.3354 17.286L23.0026 17.9531L18.6684 22.2872L18.6708 22.2896L18.0037 22.9568L18.0013 22.9544L17.9989 22.9568L17.3318 22.2896L17.3341 22.2872L13 17.9531Z" fill="#3A3A3A"/>
<path d="M13.6672 17.286L13.5964 17.2152L13.6672 17.1445L13.7379 17.2152L13.6672 17.286ZM13 17.9531L12.9293 18.0238L12.8586 17.9531L12.9293 17.8824L13 17.9531ZM17.5286 21.1474L17.6286 21.1474L17.6286 21.3889L17.4579 21.2181L17.5286 21.1474ZM17.5286 13L17.4286 13L17.4286 12.9L17.5286 12.9L17.5286 13ZM18.4721 13L18.4721 12.9L18.5721 12.9L18.5721 13L18.4721 13ZM18.4721 21.1492L18.5428 21.2199L18.3721 21.3907L18.3721 21.1492L18.4721 21.1492ZM22.3354 17.286L22.2647 17.2152L22.3354 17.1445L22.4061 17.2152L22.3354 17.286ZM23.0026 17.9531L23.0733 17.8824L23.144 17.9531L23.0733 18.0238L23.0026 17.9531ZM18.6684 22.2872L18.5977 22.3579L18.527 22.2872L18.5977 22.2165L18.6684 22.2872ZM18.6708 22.2896L18.7415 22.2189L18.8122 22.2896L18.7415 22.3603L18.6708 22.2896ZM18.0037 22.9568L18.0744 23.0275L18.0037 23.0982L17.933 23.0275L18.0037 22.9568ZM18.0013 22.9544L17.9306 22.8837L18.0013 22.813L18.072 22.8837L18.0013 22.9544ZM17.9989 22.9568L18.0696 23.0275L17.9989 23.0982L17.9282 23.0275L17.9989 22.9568ZM17.3318 22.2896L17.261 22.3603L17.1903 22.2896L17.261 22.2189L17.3318 22.2896ZM17.3341 22.2872L17.4048 22.2165L17.4755 22.2872L17.4048 22.3579L17.3341 22.2872ZM13.7379 17.3567L13.0707 18.0238L12.9293 17.8824L13.5964 17.2152L13.7379 17.3567ZM17.4579 21.2181L13.5964 17.3567L13.7379 17.2152L17.5993 21.0767L17.4579 21.2181ZM17.4286 21.1474L17.4286 13L17.6286 13L17.6286 21.1474L17.4286 21.1474ZM17.5286 12.9L18.4721 12.9L18.4721 13.1L17.5286 13.1L17.5286 12.9ZM18.5721 13L18.5721 21.1492L18.3721 21.1492L18.3721 13L18.5721 13ZM18.4014 21.0785L22.2647 17.2152L22.4061 17.3567L18.5428 21.2199L18.4014 21.0785ZM22.4061 17.2152L23.0733 17.8824L22.9319 18.0238L22.2647 17.3567L22.4061 17.2152ZM23.0733 18.0238L18.7391 22.358L18.5977 22.2165L22.9319 17.8824L23.0733 18.0238ZM18.6001 22.3603L18.5977 22.3579L18.7392 22.2165L18.7415 22.2189L18.6001 22.3603ZM17.9329 22.8861L18.6001 22.2189L18.7415 22.3603L18.0744 23.0275L17.9329 22.8861ZM18.072 22.8837L18.0744 22.886L17.933 23.0275L17.9306 23.0251L18.072 22.8837ZM18.072 23.0251L18.0696 23.0275L17.9282 22.8861L17.9306 22.8837L18.072 23.0251ZM17.9282 23.0275L17.261 22.3603L17.4025 22.2189L18.0696 22.8861L17.9282 23.0275ZM17.261 22.2189L17.2634 22.2165L17.4048 22.3579L17.4025 22.3603L17.261 22.2189ZM13.0707 17.8824L17.4048 22.2165L17.2634 22.3579L12.9293 18.0238L13.0707 17.8824Z" fill="#3A3A3A" mask="url(#path-2-outside-1_2103_17619)"/>
</svg>
