<svg width="42" height="42" viewBox="0 0 42 42" fill="none" xmlns="http://www.w3.org/2000/svg">
<rect x="0.5" y="0.5" width="41" height="41" stroke="#E7E7E7"/>
<mask id="path-2-outside-1_2103_17763" maskUnits="userSpaceOnUse" x="13.5173" y="13.4842" width="15" height="15" fill="black">
<rect fill="white" x="13.5173" y="13.4842" width="15" height="15"/>
<path fill-rule="evenodd" clip-rule="evenodd" d="M20.9678 14.4842L20.0989 15.3531L25.1338 20.3881H14.5173V21.6169H25.1323L20.0996 26.6496L20.9685 27.5186L27.4855 21.0016L26.6166 20.1326L26.6164 20.1328L20.9678 14.4842Z"/>
</mask>
<path fill-rule="evenodd" clip-rule="evenodd" d="M20.9678 14.4842L20.0989 15.3531L25.1338 20.3881H14.5173V21.6169H25.1323L20.0996 26.6496L20.9685 27.5186L27.4855 21.0016L26.6166 20.1326L26.6164 20.1328L20.9678 14.4842Z" fill="#3A3A3A"/>
<path d="M20.0989 15.3531L20.0282 15.2824L19.9575 15.3531L20.0282 15.4238L20.0989 15.3531ZM20.9678 14.4842L21.0385 14.4135L20.9678 14.3428L20.8971 14.4135L20.9678 14.4842ZM25.1338 20.3881V20.4881H25.3753L25.2046 20.3174L25.1338 20.3881ZM14.5173 20.3881V20.2881H14.4173V20.3881H14.5173ZM14.5173 21.6169H14.4173V21.7169H14.5173V21.6169ZM25.1323 21.6169L25.203 21.6877L25.3737 21.5169H25.1323V21.6169ZM20.0996 26.6496L20.0289 26.5789L19.9582 26.6496L20.0289 26.7203L20.0996 26.6496ZM20.9685 27.5186L20.8978 27.5893L20.9685 27.66L21.0393 27.5893L20.9685 27.5186ZM27.4855 21.0016L27.5562 21.0723L27.627 21.0016L27.5562 20.9309L27.4855 21.0016ZM26.6166 20.1326L26.6873 20.0619L26.6166 19.9912L26.5459 20.0619L26.6166 20.1326ZM26.6164 20.1328L26.5457 20.2035L26.6164 20.2742L26.6871 20.2035L26.6164 20.1328ZM20.1696 15.4238L21.0385 14.5549L20.8971 14.4135L20.0282 15.2824L20.1696 15.4238ZM25.2046 20.3174L20.1696 15.2824L20.0282 15.4238L25.0631 20.4588L25.2046 20.3174ZM25.1338 20.2881H14.5173V20.4881H25.1338V20.2881ZM14.4173 20.3881V21.6169H14.6173V20.3881H14.4173ZM14.5173 21.7169H25.1323V21.5169H14.5173V21.7169ZM25.0616 21.5462L20.0289 26.5789L20.1703 26.7203L25.203 21.6877L25.0616 21.5462ZM20.0289 26.7203L20.8978 27.5893L21.0393 27.4478L20.1703 26.5789L20.0289 26.7203ZM21.0393 27.5893L27.5562 21.0723L27.4148 20.9309L20.8978 27.4478L21.0393 27.5893ZM27.5562 20.9309L26.6873 20.0619L26.5459 20.2033L27.4148 21.0723L27.5562 20.9309ZM26.5459 20.0619L26.5457 20.0621L26.6871 20.2035L26.6873 20.2033L26.5459 20.0619ZM20.8971 14.5549L26.5457 20.2035L26.6871 20.0621L21.0385 14.4135L20.8971 14.5549Z" fill="#3A3A3A" mask="url(#path-2-outside-1_2103_17763)"/>
</svg>
