<svg width="22" height="18" viewBox="0 0 22 18" fill="none" xmlns="http://www.w3.org/2000/svg">
<path d="M14.7717 0.890934L14.8166 0.869138L14.8167 0.86917C14.8167 0.869211 14.8167 0.869253 14.8167 0.869294L17.2548 5.90274H20.0059H21.1387C21.5463 5.90274 21.8737 6.243 21.8737 6.65991C21.8737 7.07653 21.5466 7.42018 21.1387 7.42018H20.6284L19.1027 16.9124L19.1027 16.9126C19.0447 17.2657 18.7592 17.5216 18.4273 17.5451V17.55H18.3773H4.27315C3.88597 17.55 3.57139 17.2476 3.53841 16.8609L2.01908 7.42018H1.50881C1.10083 7.42018 0.77373 7.07653 0.77373 6.65991C0.77373 6.243 1.10111 5.90274 1.50881 5.90274H2.64159H5.39262L7.83074 0.869294C7.83076 0.869253 7.83078 0.869211 7.8308 0.86917C8.01098 0.494039 8.45297 0.343249 8.8151 0.530099C9.17975 0.716691 9.32335 1.17152 9.14374 1.54234C9.14374 1.54235 9.14373 1.54235 9.14373 1.54236L7.03311 5.90274H15.6173H15.6729L13.5487 1.52056C13.3805 1.17318 13.5187 0.748261 13.8552 0.574571C14.1917 0.400882 14.6034 0.540454 14.7717 0.890934ZM14.7717 0.890934L17.2235 5.95274L14.7717 0.890934ZM14.1093 13.4755L14.1093 13.4758C14.0453 13.8888 14.3141 14.2786 14.7154 14.3454C15.1166 14.4122 15.493 14.1315 15.5572 13.7207L16.1611 9.97417L16.1612 9.97393C16.2252 9.5638 15.9562 9.17416 15.5551 9.10738L15.555 9.10737C15.151 9.04064 14.7745 9.32105 14.7103 9.73193C14.7102 9.73198 14.7102 9.73203 14.7102 9.73208L14.1093 13.4755ZM8.54119 13.4758L8.49178 13.4834L8.54114 13.4755L7.93723 9.73208C7.93723 9.73205 7.93722 9.73202 7.93722 9.73199C7.87299 9.32123 7.49662 9.04057 7.09539 9.10738C6.69454 9.17411 6.42217 9.56348 6.48631 9.97393L6.48634 9.97417L7.09026 13.7207C7.09026 13.7207 7.09027 13.7207 7.09027 13.7208C7.15452 14.1315 7.53087 14.4122 7.9321 14.3454C8.33309 14.2786 8.60526 13.8891 8.54119 13.4758ZM11.3252 14.3554C11.7329 14.3554 12.0603 14.0151 12.0603 13.5982V9.85456C12.0603 9.43794 11.7332 9.09429 11.3252 9.09429C10.9175 9.09429 10.5872 9.43765 10.5872 9.85456V13.5982C10.5872 14.0154 10.9178 14.3554 11.3252 14.3554ZM3.50855 7.42018H11.3252H19.1389L17.7548 16.0326H4.89565L3.50855 7.42018Z" fill="#3A3A3A" stroke="#3A3A3A" stroke-width="0.1"/>
</svg>
