<svg width="17" height="15" viewBox="0 0 17 15" fill="none" xmlns="http://www.w3.org/2000/svg">
<path d="M1.4716 4.81125H3.72399L5.70883 0.344942C5.84504 0.0356945 6.17828 -0.0874573 6.45071 0.0657982C6.72557 0.219054 6.83503 0.593982 6.69881 0.900493L4.96208 4.81125H12.0403L10.3012 0.900493C10.165 0.593982 10.2769 0.219054 10.5493 0.0657982C10.8217 -0.0874573 11.155 0.0356945 11.2912 0.344942L13.276 4.81125H15.5284H16.4454C16.7519 4.81125 17 5.09039 17 5.43521C17 5.78004 16.7519 6.06192 16.4454 6.06192H15.9979L14.7573 14.4746C14.7111 14.7811 14.4752 14.9973 14.21 14.9973V15H2.79239C2.5005 15 2.26213 14.751 2.2378 14.4308L1.00215 6.06192H0.554586C0.248104 6.06192 0 5.78004 0 5.43521C0 5.09039 0.248104 4.81125 0.554586 4.81125H1.4716ZM9.0558 11.5572C9.0558 11.9021 8.8077 12.1812 8.50122 12.1812C8.19473 12.1812 7.9442 11.9021 7.9442 11.5572V8.25402C7.9442 7.9092 8.19473 7.62732 8.50122 7.62732C8.8077 7.62732 9.0558 7.9092 9.0558 8.25402V11.5572ZM11.8871 11.6585C11.8385 11.9978 11.5539 12.2277 11.2523 12.173C10.9506 12.1182 10.7463 11.7981 10.795 11.456L11.2814 8.15276C11.3301 7.81341 11.6147 7.58353 11.9187 7.63826C12.2203 7.693 12.4247 8.01319 12.376 8.35254L11.8871 11.6585ZM6.20747 11.456C6.25612 11.7981 6.04936 12.1182 5.74775 12.173C5.44613 12.2277 5.16154 11.9978 5.11289 11.6585L4.62398 8.35254C4.57533 8.01319 4.78209 7.693 5.0837 7.63826C5.38532 7.58353 5.66991 7.81341 5.71856 8.15276L6.20747 11.456ZM8.50122 6.06192H2.12591L3.26184 13.7493H13.7406L14.8741 6.06192H8.50122Z" fill="white"/>
</svg>
