<svg width="17" height="18" viewBox="0 0 17 18" fill="none" xmlns="http://www.w3.org/2000/svg">
<path d="M1.25 4.16687H2.86111H15.75" stroke="#888888" stroke-width="1.2" stroke-linecap="round" stroke-linejoin="round"/>
<path d="M14.138 4.16668V15.4445C14.138 15.8718 13.9682 16.2815 13.6661 16.5837C13.364 16.8858 12.9542 17.0556 12.5269 17.0556H4.47131C4.04402 17.0556 3.63422 16.8858 3.33208 16.5837C3.02994 16.2815 2.8602 15.8718 2.8602 15.4445V4.16668M5.27687 4.16668V2.55557C5.27687 2.12828 5.44661 1.71848 5.74875 1.41634C6.05089 1.1142 6.46068 0.944458 6.88798 0.944458H10.1102C10.5375 0.944458 10.9473 1.1142 11.2494 1.41634C11.5516 1.71848 11.7213 2.12828 11.7213 2.55557V4.16668" stroke="#888888" stroke-width="1.2" stroke-linecap="round" stroke-linejoin="round"/>
<path d="M6.8898 8.19446V13.0278" stroke="#888888" stroke-width="1.2" stroke-linecap="round" stroke-linejoin="round"/>
<path d="M10.1102 8.19446V13.0278" stroke="#888888" stroke-width="1.2" stroke-linecap="round" stroke-linejoin="round"/>
</svg>
