<svg width="166" height="166" viewBox="0 0 166 166" fill="none" xmlns="http://www.w3.org/2000/svg">
<g filter="url(#filter0_d_5_625)">
<path d="M141 76C141 108.033 115.033 134 83 134C50.9675 134 25 108.033 25 76C25 43.9675 50.9675 18 83 18C115.033 18 141 43.9675 141 76Z" fill="white"/>
</g>
<path d="M127.033 78.8451C126.51 79.2457 126.212 79.7851 126.138 80.4631C126.065 81.1411 126.241 81.7282 126.666 82.2243C127.091 82.7276 127.665 83.0184 128.386 83.0967C129.108 83.1749 129.731 83.0136 130.253 82.613C130.775 82.2196 131.073 81.6839 131.147 81.0059C131.22 80.3278 131.044 79.7371 130.62 79.2337C130.194 78.7377 129.62 78.4505 128.898 78.3723C128.177 78.2941 127.555 78.4517 127.033 78.8451ZM125.503 83.26C124.819 82.4261 124.538 81.4405 124.662 80.3031C124.785 79.1658 125.27 78.2595 126.118 77.5842C126.972 76.917 127.957 76.6438 129.073 76.7647C130.188 76.8856 131.088 77.363 131.772 78.1969C132.463 79.0315 132.747 80.0212 132.623 81.1658C132.499 82.3105 132.01 83.2164 131.156 83.8836C130.309 84.5516 129.328 84.8251 128.212 84.7042C127.097 84.5834 126.194 84.1019 125.503 83.26Z" fill="#3A3A3A"/>
<path d="M122.691 89.5207C123.05 88.388 123.706 87.5533 124.66 87.0167C125.619 86.4893 126.654 86.4013 127.766 86.7529C128.878 87.1045 129.672 87.7671 130.149 88.7407C130.63 89.7236 130.689 90.7884 130.327 91.9351C130.101 92.6483 129.743 93.2464 129.252 93.7295L127.731 93.2486C128.283 92.8156 128.675 92.232 128.908 91.4979C129.129 90.7987 129.086 90.143 128.78 89.5308C128.471 88.9256 127.971 88.5135 127.279 88.2947C126.579 88.0736 125.927 88.1289 125.322 88.4606C124.725 88.7946 124.312 89.3216 124.084 90.0418C123.832 90.8389 123.833 91.5776 124.087 92.2579L122.566 91.777C122.402 91.0559 122.444 90.3038 122.691 89.5207Z" fill="#3A3A3A"/>
<path d="M128.749 95.8934L125.82 101.648L124.555 101.004L125.663 98.8279L120.066 95.9787L120.784 94.5671L126.382 97.4162L127.484 95.2497L128.749 95.8934Z" fill="#3A3A3A"/>
<path d="M119.123 98.0444L123.312 105.346L122.396 106.557L114.229 104.521L115.243 103.178L117.123 103.647L119.086 101.05L118.122 99.3696L119.123 98.0444ZM119.832 102.234L118.472 104.033L121.281 104.749L119.832 102.234Z" fill="#3A3A3A"/>
<path d="M113.601 105.162L118.72 110.914L116.017 113.32C115.491 113.788 114.957 114.038 114.415 114.069C113.878 114.105 113.404 113.893 112.995 113.433C112.741 113.148 112.598 112.838 112.566 112.504C112.533 112.18 112.578 111.894 112.702 111.647C112.32 111.859 111.895 111.932 111.426 111.869C110.957 111.805 110.538 111.565 110.167 111.149C109.733 110.661 109.563 110.106 109.656 109.483C109.75 108.86 110.101 108.278 110.709 107.737L113.601 105.162ZM113.325 107.234L111.837 108.558C111.542 108.821 111.368 109.089 111.315 109.361C111.268 109.639 111.352 109.898 111.566 110.139C111.785 110.386 112.033 110.499 112.31 110.479C112.591 110.464 112.88 110.325 113.176 110.062L114.663 108.738L113.325 107.234ZM115.533 109.716L114.202 110.901C113.955 111.12 113.812 111.345 113.773 111.577C113.728 111.813 113.793 112.03 113.969 112.227C114.154 112.435 114.364 112.533 114.599 112.521C114.833 112.509 115.076 112.39 115.328 112.166L116.659 110.981L115.533 109.716Z" fill="#3A3A3A"/>
<path d="M107.296 110.618L111.188 117.262L109.821 118.063L107.286 113.735L106.604 119.948L105.427 120.637L101.535 113.993L102.892 113.198L105.444 117.555L106.148 111.291L107.296 110.618Z" fill="#3A3A3A"/>
<path d="M103.095 121.744L97.033 123.967L96.5445 122.634L98.8372 121.794L96.6749 115.897L98.1621 115.351L100.324 121.248L102.607 120.411L103.095 121.744Z" fill="#3A3A3A"/>
<path d="M93.8932 116.848L95.3358 124.412L93.7799 124.708L93.3038 122.212L91.6398 122.53C90.7394 122.702 89.9809 122.6 89.3643 122.225C88.7492 121.857 88.3702 121.298 88.2273 120.549C88.0844 119.8 88.2312 119.141 88.6677 118.573C89.1043 118.004 89.7728 117.634 90.6732 117.462L93.8932 116.848ZM92.599 118.517L91.0214 118.818C90.5604 118.906 90.223 119.075 90.0094 119.325C89.7957 119.574 89.7253 119.89 89.7981 120.272C89.8723 120.661 90.0547 120.932 90.3453 121.086C90.6373 121.247 91.0138 121.283 91.4748 121.195L93.0524 120.894L92.599 118.517Z" fill="#3A3A3A"/>
<path d="M81.3615 117.979C82.4743 118.044 83.3866 118.335 84.0985 118.854L84.0094 120.391C83.6789 120.137 83.2872 119.923 82.8345 119.75C82.374 119.584 81.9278 119.488 81.4959 119.463C80.9102 119.429 80.4505 119.502 80.117 119.681C79.7761 119.86 79.5954 120.125 79.5751 120.476C79.5572 120.783 79.6901 121.026 79.9736 121.204C80.2494 121.389 80.6435 121.496 81.156 121.526L82.1223 121.582L82.0454 122.911L80.8923 122.844C80.065 122.796 79.635 123.054 79.6024 123.618C79.5875 123.874 79.7042 124.079 79.9524 124.233C80.2001 124.394 80.5473 124.488 80.9939 124.514C81.8578 124.564 82.6887 124.421 83.4868 124.085L83.4022 125.546C82.6554 125.884 81.7988 126.026 80.8324 125.97C79.9392 125.918 79.2407 125.676 78.7369 125.242C78.2332 124.809 78.0001 124.267 78.0379 123.615C78.0604 123.227 78.1856 122.904 78.4136 122.645C78.6412 122.394 78.8934 122.225 79.1702 122.138C78.8118 121.985 78.5136 121.744 78.2756 121.414C78.0372 121.092 77.9318 120.693 77.9593 120.217C77.9992 119.529 78.3256 118.967 78.9384 118.533C79.5508 118.106 80.3585 117.921 81.3615 117.979Z" fill="#3A3A3A"/>
<path d="M76.97 117.935L71.9114 124.664L70.4376 124.3L69.0883 115.991L70.7223 116.394L71.0324 118.306L74.1937 119.086L75.3574 117.538L76.97 117.935ZM73.3996 120.238L71.2102 119.698L71.6594 122.562L73.3996 120.238Z" fill="#3A3A3A"/>
<path d="M68.8813 115.941L65.2986 117.887C65.6904 118.242 65.9358 118.65 66.0347 119.11C66.1239 119.574 66.0589 120.038 65.8397 120.502C65.5517 121.112 65.1029 121.504 64.4934 121.679C63.8807 121.86 63.2064 121.777 62.4703 121.429L59.2475 119.907L62.5351 112.945L63.9674 113.621L62.6383 116.436L63.8519 117.009L67.2301 115.161L68.8813 115.941ZM63.7809 118.447L62.07 117.639L61.2716 119.33L62.9825 120.138C63.3074 120.292 63.5972 120.339 63.8517 120.281C64.0997 120.22 64.2878 120.053 64.4162 119.781C64.5446 119.509 64.5537 119.258 64.4435 119.028C64.3267 118.794 64.1059 118.601 63.7809 118.447Z" fill="#3A3A3A"/>
<path d="M60.8218 111.998L56.2244 118.175L53.3213 116.014C52.7565 115.594 52.4043 115.122 52.2645 114.597C52.1203 114.078 52.2321 113.572 52.5999 113.078C52.8276 112.772 53.1019 112.569 53.4227 112.47C53.7333 112.372 54.0222 112.358 54.2894 112.429C54.0051 112.099 53.8467 111.697 53.8142 111.225C53.7816 110.753 53.9318 110.294 54.2645 109.846C54.6542 109.323 55.1636 109.044 55.7927 109.009C56.4218 108.975 57.0628 109.2 57.7158 109.686L60.8218 111.998ZM58.7368 112.147L57.1396 110.958C56.8219 110.721 56.5245 110.605 56.2473 110.609C55.9658 110.619 55.7287 110.753 55.536 111.012C55.339 111.277 55.2783 111.543 55.3541 111.809C55.4255 112.082 55.62 112.336 55.9377 112.573L57.5349 113.762L58.7368 112.147ZM56.7533 114.812L55.3238 113.748C55.0591 113.551 54.8094 113.456 54.5748 113.464C54.3342 113.468 54.1352 113.576 53.9775 113.788C53.8112 114.011 53.7577 114.237 53.8172 114.464C53.8767 114.691 54.0418 114.905 54.3124 115.106L55.7419 116.17L56.7533 114.812Z" fill="#3A3A3A"/>
<path d="M54.2268 106.89L48.5689 112.113L47.4945 110.949L49.7253 108.89L45.5695 108.864L44.2563 107.441L49.0669 107.447L49.5338 101.806L50.9066 103.293L50.5417 108.136L53.1524 105.726L54.2268 106.89Z" fill="#3A3A3A"/>
<path d="M48.8366 100.387C49.1335 100.85 49.2817 101.216 49.2809 101.487L48.1051 102.241C48.0877 101.956 47.986 101.669 47.7999 101.378C47.6257 101.107 47.4254 100.93 47.199 100.849C46.9726 100.768 46.6281 100.754 46.1654 100.806L43.2116 106.164L42.2673 104.692L44.4011 101.01L40.2955 101.618L39.3869 100.201L45.993 99.3356C47.3186 99.1475 48.2664 99.4979 48.8366 100.387Z" fill="#3A3A3A"/>
<path d="M38.9642 88.0723L37.7089 88.358L38.6307 89.2583L37.9586 89.9177L37.082 88.9718L36.7648 90.2218L35.8592 89.9644L36.2485 88.7301L35.0095 89.0798L34.7787 88.1737L36.034 87.888L35.1042 87.0011L35.7763 86.3417L36.6556 87.2983L36.9701 86.0376L37.8757 86.295L37.4943 87.5159L38.7334 87.1662L38.9642 88.0723Z" fill="#3A3A3A"/>
<path d="M38.9626 74.1654C39.4793 73.7568 39.7691 73.2129 39.8321 72.5338C39.8952 71.8547 39.71 71.2705 39.2768 70.781C38.8442 70.2842 38.2664 70.0023 37.5435 69.9352C36.8206 69.8681 36.2008 70.0389 35.6842 70.4475C35.1682 70.8489 34.8787 71.3891 34.8157 72.0682C34.7527 72.7473 34.9375 73.3352 35.3701 73.832C35.8034 74.3215 36.3814 74.5998 37.1043 74.6668C37.8272 74.7339 38.4467 74.5668 38.9626 74.1654ZM40.424 69.7275C41.1209 70.5508 41.4165 71.5319 41.3108 72.6711C41.2051 73.8102 40.7336 74.7238 39.8964 75.4121C39.0526 76.0923 38.0721 76.3806 36.9549 76.2769C35.8377 76.1732 34.9307 75.7098 34.2338 74.8865C33.5296 74.0626 33.2307 73.0774 33.3371 71.931C33.4435 70.7846 33.9186 69.8712 34.7624 69.191C35.5989 68.51 36.5758 68.2214 37.693 68.3251C38.8101 68.4288 39.7205 68.8963 40.424 69.7275Z" fill="#3A3A3A"/>
<path d="M43.13 63.4399C42.789 64.5779 42.1455 65.4224 41.1995 65.9734C40.2486 66.5152 39.2147 66.6188 38.0978 66.2841C36.9808 65.9494 36.1767 65.2988 35.6855 64.3325C35.1893 63.357 35.1138 62.2932 35.459 61.1412C35.6737 60.4246 36.023 59.8212 36.5068 59.3307L38.0347 59.7886C37.489 60.2299 37.1057 60.8193 36.8847 61.5569C36.6742 62.2594 36.7267 62.9144 37.0423 63.5218C37.3599 64.1223 37.8665 64.5267 38.5619 64.7351C39.2644 64.9456 39.9155 64.8805 40.5153 64.5396C41.108 64.1967 41.5128 63.6634 41.7296 62.9399C41.9696 62.1391 41.9574 61.4005 41.6931 60.7241L43.221 61.182C43.3961 61.9005 43.3658 62.6531 43.13 63.4399Z" fill="#3A3A3A"/>
<path d="M37.0424 56.9786L39.9072 51.1919L41.1789 51.8215L40.0955 54.01L45.7244 56.7967L45.0216 58.2162L39.3927 55.4295L38.3141 57.6082L37.0424 56.9786Z" fill="#3A3A3A"/>
<path d="M46.5098 54.9126L42.215 47.6728L43.1124 46.4485L51.3091 48.3652L50.3141 49.7226L48.4282 49.2813L46.5032 51.9073L47.4917 53.573L46.5098 54.9126ZM45.7401 50.7342L47.0733 48.9155L44.2541 48.2401L45.7401 50.7342Z" fill="#3A3A3A"/>
<path d="M51.8693 47.731L46.6671 42.0541L49.3352 39.6091C49.8542 39.1334 50.3845 38.8763 50.926 38.8376C51.4625 38.7936 51.9389 38.9986 52.355 39.4528C52.6127 39.7339 52.7602 40.0414 52.7975 40.3752C52.8353 40.6987 52.7943 40.9849 52.6744 41.234C53.0524 41.017 53.4763 40.9368 53.9461 40.9937C54.416 41.0505 54.8392 41.2844 55.2157 41.6953C55.6567 42.1765 55.835 42.7292 55.7506 43.3536C55.6663 43.9779 55.3241 44.5651 54.7239 45.115L51.8693 47.731ZM52.1156 45.6552L53.5834 44.3101C53.8754 44.0425 54.0455 43.7723 54.0937 43.4993C54.137 43.2209 54.0497 42.9627 53.8317 42.7249C53.6087 42.4816 53.3592 42.3721 53.083 42.3963C52.8019 42.4152 52.5154 42.5584 52.2234 42.826L50.7556 44.1711L52.1156 45.6552ZM49.8712 43.206L51.185 42.0021C51.4283 41.7792 51.568 41.5517 51.604 41.3197C51.6455 41.0827 51.5771 40.8669 51.3987 40.6723C51.2104 40.4669 50.9992 40.372 50.7649 40.3877C50.5307 40.4035 50.2892 40.5253 50.0405 40.7532L48.7267 41.9571L49.8712 43.206Z" fill="#3A3A3A"/>
<path d="M58.0505 42.1671L54.0612 35.5812L55.416 34.7605L58.0147 39.0508L58.6055 32.8285L59.7722 32.1218L63.7615 38.7078L62.4161 39.5228L59.8002 35.2043L59.1889 41.4776L58.0505 42.1671Z" fill="#3A3A3A"/>
<path d="M62.1805 30.906L68.2088 28.5923L68.7172 29.9171L66.4374 30.7921L68.688 36.656L67.2092 37.2236L64.9585 31.3597L62.689 32.2308L62.1805 30.906Z" fill="#3A3A3A"/>
<path d="M71.4775 35.6326L69.9482 28.086L71.5007 27.7714L72.0053 30.2618L73.6656 29.9253C74.564 29.7433 75.3236 29.8363 75.9444 30.2043C76.5637 30.5651 76.9491 31.1193 77.1006 31.8668C77.2521 32.6143 77.1128 33.2747 76.6828 33.8482C76.2528 34.4217 75.5886 34.7995 74.6902 34.9816L71.4775 35.6326ZM72.7525 33.9488L74.3265 33.6299C74.7865 33.5366 75.1219 33.3639 75.3326 33.1117C75.5434 32.8595 75.6102 32.5429 75.533 32.162C75.4544 31.7739 75.2689 31.5047 74.9765 31.3544C74.6827 31.197 74.3059 31.1649 73.8459 31.2581L72.2719 31.577L72.7525 33.9488Z" fill="#3A3A3A"/>
<path d="M83.8647 34.3086C82.7511 34.2613 81.8343 33.9838 81.1146 33.4761L81.1799 31.9375C81.5143 32.1866 81.9092 32.3942 82.3646 32.5604C82.8276 32.7195 83.2752 32.8082 83.7075 32.8266C84.2936 32.8515 84.7521 32.7719 85.0829 32.5877C85.421 32.4039 85.5975 32.1362 85.6124 31.7845C85.6255 31.4768 85.4889 31.2361 85.2027 31.0624C84.9241 30.8818 84.5284 30.7806 84.0155 30.7588L83.0484 30.7177L83.1049 29.3879L84.2588 29.4369C85.0867 29.4721 85.5127 29.2076 85.5366 28.6434C85.5475 28.387 85.4277 28.1837 85.1772 28.0336C84.927 27.8762 84.5784 27.788 84.1315 27.769C83.2669 27.7323 82.4383 27.8879 81.6454 28.2359L81.7075 26.7743C82.4491 26.4241 83.3034 26.2695 84.2705 26.3106C85.1644 26.3486 85.8665 26.5802 86.3769 27.0056C86.8873 27.431 87.1287 27.9697 87.101 28.6218C87.0845 29.0101 86.9642 29.3353 86.7402 29.5974C86.5166 29.8521 86.267 30.025 85.9916 30.1161C86.3523 30.2635 86.6542 30.5002 86.8972 30.8261C87.1406 31.1448 87.2522 31.5422 87.2319 32.0184C87.2027 32.7071 86.885 33.2735 86.279 33.7175C85.6732 34.1542 84.8685 34.3512 83.8647 34.3086Z" fill="#3A3A3A"/>
<path d="M88.3738 34.2632L93.3554 27.4776L94.8332 27.8243L96.2773 36.1173L94.6387 35.7329L94.3068 33.8247L91.1369 33.081L89.9909 34.6425L88.3738 34.2632ZM91.9178 31.9197L94.1132 32.4347L93.6313 29.5761L91.9178 31.9197Z" fill="#3A3A3A"/>
<path d="M96.536 36.1394L100.097 34.154C99.701 33.8031 99.4511 33.398 99.347 32.9388C99.2527 32.4761 99.3125 32.0114 99.5265 31.5447C99.8077 30.9315 100.252 30.5342 100.86 30.353C101.47 30.1651 102.145 30.2407 102.885 30.5801L106.125 32.0657L102.915 39.0648L101.475 38.4045L102.773 35.5749L101.553 35.0155L98.1958 36.9006L96.536 36.1394ZM101.608 33.5764L103.328 34.365L104.107 32.6652L102.388 31.8766C102.061 31.7268 101.771 31.6824 101.517 31.7435C101.27 31.8076 101.083 31.9763 100.958 32.2496C100.833 32.5229 100.826 32.7741 100.939 33.0033C101.058 33.2356 101.281 33.4266 101.608 33.5764Z" fill="#3A3A3A"/>
<path d="M104.732 40.0133L109.262 33.7864L112.188 35.9153C112.757 36.3294 113.115 36.798 113.26 37.321C113.41 37.8381 113.304 38.3457 112.942 38.8438C112.717 39.1522 112.445 39.3579 112.126 39.4608C111.816 39.5621 111.527 39.5788 111.259 39.5109C111.547 39.8382 111.71 40.2377 111.748 40.7095C111.785 41.1812 111.64 41.6425 111.313 42.0932C110.929 42.621 110.422 42.9056 109.794 42.947C109.165 42.9885 108.521 42.7698 107.863 42.291L104.732 40.0133ZM106.815 39.842L108.425 41.0132C108.746 41.2462 109.044 41.3591 109.321 41.3522C109.603 41.3393 109.839 41.2023 110.028 40.9414C110.222 40.6745 110.28 40.4082 110.201 40.1424C110.127 39.8706 109.93 39.6183 109.61 39.3853L107.999 38.2141L106.815 39.842ZM108.77 37.1556L110.211 38.2038C110.477 38.398 110.728 38.4896 110.963 38.4789C111.203 38.4724 111.401 38.3625 111.556 38.149C111.72 37.9236 111.771 37.6977 111.709 37.4713C111.647 37.2448 111.48 37.0324 111.207 36.8339L109.766 35.7857L108.77 37.1556Z" fill="#3A3A3A"/>
<path d="M111.396 45.0358L116.997 39.7516L118.084 40.9037L115.876 42.9872L120.032 42.968L121.36 44.3761L116.55 44.423L116.145 50.0684L114.756 48.5962L115.068 43.7496L112.483 46.1879L111.396 45.0358Z" fill="#3A3A3A"/>
<path d="M116.88 51.4829C116.578 51.0232 116.426 50.6581 116.424 50.3876L117.592 49.6205C117.612 49.9054 117.717 50.1918 117.906 50.4799C118.083 50.7495 118.286 50.9238 118.513 51.0026C118.74 51.0814 119.085 51.0918 119.547 51.0339L122.442 45.6439L123.402 47.1056L121.309 50.8107L125.407 50.1577L126.332 51.5643L119.735 52.5026C118.412 52.7053 117.46 52.3654 116.88 51.4829Z" fill="#3A3A3A"/>
<path d="M126.924 63.7179L128.176 63.4178L127.244 62.5281L127.908 61.8612L128.795 62.797L129.098 61.5434L130.007 61.7905L129.632 63.0292L130.867 62.6654L131.108 63.5688L129.856 63.8688L130.795 64.7451L130.131 65.412L129.241 64.4655L128.941 65.7297L128.032 65.4826L128.4 64.2574L127.165 64.6212L126.924 63.7179Z" fill="#3A3A3A"/>
<defs>
<filter id="filter0_d_5_625" x="0" y="0" width="166" height="166" filterUnits="userSpaceOnUse" color-interpolation-filters="sRGB">
<feFlood flood-opacity="0" result="BackgroundImageFix"/>
<feColorMatrix in="SourceAlpha" type="matrix" values="0 0 0 0 0 0 0 0 0 0 0 0 0 0 0 0 0 0 127 0" result="hardAlpha"/>
<feOffset dy="7"/>
<feGaussianBlur stdDeviation="12.5"/>
<feComposite in2="hardAlpha" operator="out"/>
<feColorMatrix type="matrix" values="0 0 0 0 0 0 0 0 0 0 0 0 0 0 0 0 0 0 0.06 0"/>
<feBlend mode="normal" in2="BackgroundImageFix" result="effect1_dropShadow_5_625"/>
<feBlend mode="normal" in="SourceGraphic" in2="effect1_dropShadow_5_625" result="shape"/>
</filter>
</defs>
</svg>
