<svg width="9" height="9" viewBox="0 0 9 9" fill="none" xmlns="http://www.w3.org/2000/svg">
<path fill-rule="evenodd" clip-rule="evenodd" d="M8.09464 1.41644C8.38753 1.12355 8.38753 0.648671 8.09464 0.355778C7.80175 0.0628851 7.32687 0.0628851 7.03398 0.355778L4.35816 3.0316L1.68234 0.355778C1.38945 0.0628851 0.914571 0.0628851 0.621678 0.355778C0.328785 0.648671 0.328785 1.12355 0.621678 1.41644L3.2975 4.09226L0.621678 6.76808C0.328785 7.06098 0.328785 7.53585 0.621678 7.82874C0.914571 8.12164 1.38945 8.12164 1.68234 7.82874L4.35816 5.15292L7.03398 7.82874C7.32687 8.12164 7.80175 8.12164 8.09464 7.82874C8.38753 7.53585 8.38753 7.06098 8.09464 6.76808L5.41882 4.09226L8.09464 1.41644Z" fill="#888888"/>
</svg>
