<svg width="13" height="12" viewBox="0 0 13 12" fill="none" xmlns="http://www.w3.org/2000/svg">
<path d="M10.4933 0.757268H9.75411V0.486812C9.75411 0.218012 9.53612 0 9.2673 0C8.9985 0 8.78049 0.217997 8.78049 0.486812V0.757268H6.45468V0.486812C6.45468 0.218012 6.23669 0 5.96787 0C5.69907 0 5.48106 0.217997 5.48106 0.486812V0.757268H3.15525V0.486812C3.15525 0.218012 2.93725 0 2.66844 0C2.39964 0 2.18163 0.217997 2.18163 0.486812V0.757268H1.56859C0.703662 0.757268 0 1.46091 0 2.32586V9.79024C0 10.6552 0.703637 11.3588 1.56859 11.3588H10.4933C11.3582 11.3588 12.0619 10.6552 12.0619 9.79024V2.32586C12.0619 1.46093 11.3583 0.757268 10.4933 0.757268ZM1.56859 1.73087H2.18163V2.12755C2.18163 2.39635 2.39963 2.61436 2.66844 2.61436C2.93724 2.61436 3.15525 2.39637 3.15525 2.12755V1.73087H5.48106V2.12755C5.48106 2.39635 5.69906 2.61436 5.96787 2.61436C6.23667 2.61436 6.45468 2.39637 6.45468 2.12755V1.73087H8.78049V2.12755C8.78049 2.39635 8.99849 2.61436 9.2673 2.61436C9.5361 2.61436 9.75411 2.39637 9.75411 2.12755V1.73087H10.4933C10.8214 1.73087 11.0883 1.99774 11.0883 2.32583V3.69612H0.973723V2.32583C0.973723 1.99771 1.24059 1.73087 1.56869 1.73087H1.56859ZM10.4933 10.3851H1.56859C1.24047 10.3851 0.973624 10.1182 0.973624 9.79012V4.66979H11.0882V9.79012C11.0882 10.1182 10.8213 10.3851 10.4932 10.3851H10.4933Z" fill="#EA4B43"/>
</svg>
