<svg width="16" height="16" viewBox="0 0 16 16" fill="none" xmlns="http://www.w3.org/2000/svg">
<path d="M14.8956 14.0651L14.8951 14.0657C14.9919 14.1711 15.0474 14.3087 15.0499 14.4528C15.0527 14.6119 14.9907 14.7655 14.8782 14.8781L14.8781 14.8782C14.7655 14.9907 14.612 15.0528 14.4527 15.0499C14.4527 15.0499 14.4527 15.0499 14.4527 15.0499L14.4536 14.9999C14.3079 14.9974 14.1696 14.9357 14.0702 14.8291L14.8956 14.0651ZM14.8956 14.0651L14.8649 14.0344L11.9904 11.1601C13.0043 9.9347 13.512 8.36751 13.4083 6.77947C13.3038 5.17593 12.5842 3.67471 11.3996 2.58906C10.2151 1.50327 8.65704 0.916554 7.05043 0.951474C5.44385 0.986391 3.9128 1.64016 2.7764 2.77634L2.7764 2.77634C1.64006 3.91253 0.986395 5.44357 0.951474 7.05026C0.916556 8.6568 1.50328 10.2147 2.58911 11.3993C3.67494 12.584 5.1762 13.3035 6.77963 13.4081C8.36783 13.5117 9.9351 13.004 11.1604 11.9901L14.0342 14.8639L14.8956 14.0651ZM2.14997 7.23969L2.15009 7.19708C2.15389 5.85937 2.68855 4.57777 3.6368 3.63398C4.58505 2.69028 5.86918 2.16156 7.20698 2.16405C8.54473 2.16655 9.82694 2.70001 10.7714 3.64738L10.7714 3.64738C11.7161 4.59467 12.2461 5.87827 12.2448 7.21594C12.2436 8.55365 11.7112 9.83631 10.7647 10.7818L10.7647 10.7818C9.81842 11.7274 8.53526 12.2584 7.19736 12.2584C6.3101 12.2573 5.43874 12.0224 4.67101 11.5777C3.90327 11.133 3.26606 10.4941 2.82348 9.72505C2.38806 8.9685 2.1562 8.11214 2.14997 7.23969Z" fill="white" stroke="white" stroke-width="0.1"/>
</svg>
