<svg width="200" height="110" viewBox="0 0 200 110" fill="none" xmlns="http://www.w3.org/2000/svg">
<g filter="url(#filter0_d_5_549)">
<path fill-rule="evenodd" clip-rule="evenodd" d="M23 11C20.2386 11 18 13.2386 18 16V70C18 72.7614 20.2386 75 23 75H92.5322L101 85L109.468 75H177C179.761 75 182 72.7614 182 70V16C182 13.2386 179.761 11 177 11H23Z" fill="white"/>
</g>
<g clip-path="url(#clip0_5_549)">
<path d="M58.3813 41.731L53.1598 40.7476L51.9769 42.657L56.4549 43.4783C56.9589 42.7597 57.6171 42.1627 58.3813 41.731Z" fill="#423A3A"/>
<path d="M148.137 24.5254H162.649C162.649 24.5254 157.374 22.7071 148.776 22.0718L148.137 24.5254Z" fill="#423A3A"/>
<path d="M147.046 22.0786L58.9322 22.153L58.0265 24.0354L145.366 24.1943L147.046 22.0786Z" fill="#423A3A"/>
<path d="M98.0243 50.1092L98.8827 48.1321L140.915 40.7544L139.269 42.6639L98.0243 50.1092Z" fill="#423A3A"/>
<path d="M85.8543 20H73.7215C73.3482 20 73.0455 20.3026 73.0455 20.6759C73.0455 21.0492 73.3482 21.3518 73.7215 21.3518H85.8543C86.2276 21.3518 86.5302 21.0492 86.5302 20.6759C86.5302 20.3026 86.2276 20 85.8543 20Z" fill="#423A3A"/>
<path d="M108.602 20H96.4696C96.0963 20 95.7937 20.3026 95.7937 20.6759C95.7937 21.0492 96.0963 21.3518 96.4696 21.3518H108.602C108.976 21.3518 109.278 21.0492 109.278 20.6759C109.278 20.3026 108.976 20 108.602 20Z" fill="#423A3A"/>
<path d="M131.503 20H119.37C118.997 20 118.694 20.3026 118.694 20.6759C118.694 21.0492 118.997 21.3518 119.37 21.3518H131.503C131.876 21.3518 132.179 21.0492 132.179 20.6759C132.179 20.3026 131.876 20 131.503 20Z" fill="#423A3A"/>
<path d="M148.137 41.6128C147.105 41.6128 146.096 41.9188 145.238 42.4922C144.38 43.0656 143.711 43.8805 143.316 44.834C142.921 45.7875 142.818 46.8367 143.019 47.8489C143.221 48.8612 143.718 49.7909 144.447 50.5207C145.177 51.2505 146.107 51.7475 147.119 51.9488C148.131 52.1501 149.181 52.0468 150.134 51.6518C151.088 51.2569 151.903 50.5881 152.476 49.73C153.049 48.8718 153.355 47.863 153.355 46.8309C153.355 46.1457 153.22 45.4671 152.958 44.834C152.696 44.2009 152.312 43.6257 151.827 43.1412C151.342 42.6566 150.767 42.2722 150.134 42.01C149.501 41.7478 148.822 41.6128 148.137 41.6128ZM148.137 48.47C147.813 48.4694 147.497 48.3727 147.227 48.1922C146.958 48.0116 146.749 47.7554 146.625 47.4558C146.502 47.1563 146.47 46.8268 146.533 46.5091C146.597 46.1914 146.753 45.8996 146.983 45.6707C147.212 45.4418 147.504 45.286 147.822 45.2231C148.14 45.1601 148.469 45.1927 148.769 45.3169C149.068 45.4411 149.324 45.6512 149.504 45.9206C149.684 46.1901 149.78 46.5069 149.78 46.8309C149.78 47.0465 149.737 47.2599 149.655 47.459C149.572 47.6581 149.451 47.8389 149.298 47.9912C149.146 48.1434 148.965 48.2641 148.766 48.3462C148.566 48.4284 148.353 48.4705 148.137 48.47Z" fill="#423A3A"/>
<path d="M61.2776 41.6128C60.2455 41.6128 59.2367 41.9188 58.3785 42.4922C57.5204 43.0656 56.8516 43.8805 56.4567 44.834C56.0617 45.7875 55.9584 46.8367 56.1597 47.8489C56.3611 48.8612 56.858 49.7909 57.5878 50.5207C58.3176 51.2505 59.2474 51.7475 60.2596 51.9488C61.2718 52.1501 62.321 52.0468 63.2745 51.6518C64.228 51.2569 65.0429 50.5881 65.6163 49.73C66.1897 48.8718 66.4957 47.863 66.4957 46.8309C66.4957 45.447 65.9459 44.1197 64.9674 43.1412C63.9888 42.1626 62.6615 41.6128 61.2776 41.6128ZM61.2776 48.47C60.9535 48.4694 60.637 48.3727 60.3679 48.1922C60.0988 48.0116 59.8892 47.7554 59.7657 47.4558C59.6421 47.1563 59.6101 46.8268 59.6738 46.5091C59.7374 46.1914 59.8938 45.8996 60.1231 45.6707C60.3525 45.4418 60.6446 45.286 60.9624 45.2231C61.2803 45.1601 61.6097 45.1927 61.909 45.3169C62.2083 45.4411 62.4641 45.6512 62.6441 45.9206C62.824 46.1901 62.9201 46.5069 62.9201 46.8309C62.9201 47.0465 62.8776 47.2599 62.795 47.459C62.7124 47.6581 62.5914 47.8389 62.4388 47.9912C62.2862 48.1434 62.1051 48.2641 61.9059 48.3462C61.7066 48.4284 61.4931 48.4705 61.2776 48.47Z" fill="#423A3A"/>
<path d="M74.5697 41.6128C73.537 41.6101 72.5268 41.9139 71.667 42.4856C70.8071 43.0574 70.1361 43.8714 69.7391 44.8247C69.3421 45.7779 69.2368 46.8275 69.4366 47.8406C69.6365 48.8537 70.1324 49.7848 70.8616 50.5159C71.5908 51.247 72.5206 51.7454 73.5332 51.9478C74.5457 52.1502 75.5956 52.0477 76.5499 51.6532C77.5042 51.2586 78.3199 50.5898 78.8939 49.7314C79.4679 48.873 79.7743 47.8636 79.7743 46.8309C79.7743 45.4493 79.2264 44.1241 78.2507 43.1459C77.275 42.1677 75.9513 41.6164 74.5697 41.6128ZM74.5697 48.4701C74.2456 48.4694 73.9291 48.3727 73.6599 48.1922C73.3908 48.0117 73.1813 47.7554 73.0577 47.4559C72.9342 47.1563 72.9022 46.8268 72.9658 46.5091C73.0295 46.1914 73.1858 45.8996 73.4152 45.6707C73.6446 45.4418 73.9366 45.2861 74.2545 45.2231C74.5724 45.1601 74.9018 45.1928 75.2011 45.3169C75.5004 45.4411 75.7562 45.6512 75.9362 45.9207C76.1161 46.1901 76.2122 46.5069 76.2122 46.8309C76.2122 47.0465 76.1697 47.2599 76.0871 47.459C76.0045 47.6581 75.8834 47.8389 75.7309 47.9912C75.5783 48.1434 75.3972 48.2641 75.198 48.3463C74.9987 48.4284 74.7852 48.4705 74.5697 48.4701Z" fill="#423A3A"/>
<path d="M80.3489 45.834C80.4102 46.1629 80.4441 46.4964 80.4503 46.831C80.4486 47.1596 80.4192 47.4874 80.3624 47.8111L92.8062 50.072L92.9177 48.1524L80.3489 45.834Z" fill="#423A3A"/>
<path d="M69.5442 43.8163L65.8267 43.1201C66.3643 43.784 66.7517 44.5565 66.9622 45.3845L68.8109 45.7224C68.9407 45.0487 69.189 44.4033 69.5442 43.8163Z" fill="#423A3A"/>
<path d="M162.859 26.0091H148.043L144.43 41.5553C145.704 40.6672 147.255 40.2676 148.799 40.4295C150.343 40.5914 151.778 41.304 152.84 42.437C153.902 43.5699 154.52 45.0474 154.582 46.599C154.644 48.1507 154.145 49.6727 153.176 50.8864H163.944C163.944 50.8864 165.542 43.1133 167.817 29.9328C168.003 25.6373 162.859 26.0091 162.859 26.0091ZM165.799 29.7942L164.755 35.6477H155.393L157.144 27.7428H163.447C163.447 27.7428 166.012 27.5874 165.799 29.7942Z" fill="#423A3A"/>
<path d="M95.0637 25.6001H98.5616L97.4937 39.4836L101.279 25.6001H104.784L98.0243 47.9833C98.0243 47.9833 97.2841 50.8256 95.057 50.7546H93.5699L95.0637 25.6001Z" fill="#423A3A"/>
<path d="M66.2558 25.6001H62.2611C61.7563 25.5987 61.2628 25.7492 60.8445 26.0318C60.4263 26.3144 60.1027 26.7163 59.9157 27.1851L57.8068 35.178C57.4547 35.2028 57.1158 35.322 56.8256 35.523C56.5354 35.724 56.3046 35.9994 56.1575 36.3203L55.8398 37.716L56.9822 37.9357C57.2048 37.9733 57.4334 37.949 57.6432 37.8656C57.8529 37.7821 58.0358 37.6427 58.1718 37.4626L62.3895 38.3818L62.2307 39.3011H63.2446C64.3227 39.2707 64.7992 38.1926 64.7992 38.1926L65.1811 36.1918L63.9746 36.0026L66.2558 25.6001ZM61.7812 35.6342L60.1387 35.3469L61.8083 27.8002H63.4778L61.7812 35.6342Z" fill="#EA4B43"/>
<path d="M65.7218 39.1118L68.0537 27.4319C68.0537 27.4319 68.4998 25.6001 69.9294 25.6001H74.5696L73.9174 28.6147H70.1457L69.6388 31.3184L72.623 31.582L72.0755 34.4885L69.0338 34.2519L68.5472 36.8204L72.0822 37.3679L71.8896 38.6387C71.8896 38.6387 71.3827 40.0345 70.1457 39.9702L65.7218 39.1118Z" fill="#EA4B43"/>
<path d="M82.5423 25.6001H77.946C77.946 25.6001 76.4657 25.6305 75.9419 27.4048L73.7755 38.1351C73.7755 38.1351 72.5927 38.7029 72.5927 40.5008L74.5123 40.7915C74.5123 40.7915 75.8134 40.8253 76.1514 38.9462L78.0271 28.929H79.5006L77.0706 41.4235L78.2975 41.4945C78.2975 41.4945 79.6493 41.437 79.9264 39.8215C80.2036 38.2061 82.5423 25.6001 82.5423 25.6001Z" fill="#EA4B43"/>
<path d="M88.5005 25.6001H85.1209C83.6609 25.6001 83.4716 27.4521 83.4716 27.4521L81.312 39.4937C80.7848 41.7783 81.9305 41.9642 81.9305 41.9642L85.736 42.6401C86.9763 42.8328 87.2298 40.9943 87.2298 40.9943L89.4941 27.1378C89.5279 25.7522 88.5005 25.6001 88.5005 25.6001ZM86.9222 30.0511L85.4555 38.8381C85.4555 38.8381 85.3912 39.3552 84.9282 39.3552L83.9988 39.1997C83.9988 39.1997 83.7285 39.1727 83.7454 38.713L85.4014 29.4292C85.4159 29.286 85.486 29.1542 85.5965 29.062C85.7071 28.9697 85.8493 28.9244 85.9928 28.9358H86.7127C86.7127 28.9358 87.2095 28.9425 86.9222 30.0511Z" fill="#EA4B43"/>
<path d="M105.219 43.7894L107.541 25.6138H112.219L110.215 41.1262C110.152 41.6693 109.916 42.1779 109.542 42.5761C109.167 42.9744 108.674 43.241 108.136 43.3365L109.883 29.0137H108.954L107.034 43.4886L105.219 43.7894Z" fill="#EA4B43"/>
<path d="M114.05 25.5999C113.037 25.5729 112.807 27.4215 112.807 27.4215L110.891 42.9678C112.645 42.863 112.817 41.0921 112.817 41.0921L113.51 35.1L115.27 34.9952C116.284 34.8837 116.413 33.6806 116.413 33.6806L117.531 25.6168C117.531 25.6168 114.882 25.6236 114.05 25.5999ZM115.152 31.6832H113.888L114.361 28.3847H115.598L115.152 31.6832Z" fill="#EA4B43"/>
<path d="M115.7 42.4104L117.558 42.0725L119.296 35.3132L118.403 41.8967C118.403 41.8967 119.755 42.0387 120.543 40.0041L122.554 25.5833H120.688L119.127 32.0857L119.698 25.5968C119.698 25.5968 118.049 25.2926 117.643 27.5401L115.7 42.4104Z" fill="#EA4B43"/>
<path d="M121.175 40.4637L123.219 27.1074C123.326 26.6754 123.575 26.2918 123.927 26.0184C124.278 25.745 124.711 25.5977 125.156 25.6001L123.53 37.128L124.446 37.0165L126.217 25.6001H127.924L126.359 36.7529L127.126 36.7056C127.126 36.7056 127.332 40.8321 124.848 40.7848L124.926 39.9263L121.175 40.4637Z" fill="#EA4B43"/>
<path d="M127.109 39.4295L129.167 26.8269C129.167 26.8269 129.546 25.6305 130.421 25.6001H133.865L133.456 28.243L130.709 28.3613L130.296 30.8791L132.547 30.8318L132.081 33.5659L129.823 33.7112L129.509 36.2493L132.192 36.0871C132.192 36.0871 132.01 38.855 130.55 39.0442L127.109 39.4295Z" fill="#EA4B43"/>
<path d="M132.135 38.6049L134.277 25.6001H138.816L136.961 36.5602C136.961 36.5602 136.285 38.2061 135.031 38.25L136.745 28.1112H135.65L133.828 38.3818L132.135 38.6049Z" fill="#EA4B43"/>
<path d="M137.005 37.9422L139.073 27.0058C139.073 27.0058 139.36 25.6066 140.351 25.6303C141.53 25.5998 143.852 25.6066 143.852 25.6066L143.348 27.9047L140.594 28.1143L140.195 30.3279L142.463 30.2063L142.057 32.7004L139.766 32.8829L139.32 35.127L142.071 34.931C142.071 34.931 142.122 37.1142 140.418 37.5096L137.005 37.9422Z" fill="#EA4B43"/>
<path d="M44.481 35.7559C-9.59292 67.9535 127.647 74.5505 159.591 55.04C144.149 63.0902 18.3599 71.252 44.481 35.7559Z" fill="url(#paint0_linear_5_549)"/>
<path d="M105.219 63.8203C27.3327 66.0171 37.3431 44.1577 37.3431 44.1577" stroke="url(#paint1_linear_5_549)" stroke-miterlimit="10" stroke-dasharray="12 5"/>
</g>
<defs>
<filter id="filter0_d_5_549" x="0.400246" y="0.440147" width="199.2" height="109.2" filterUnits="userSpaceOnUse" color-interpolation-filters="sRGB">
<feFlood flood-opacity="0" result="BackgroundImageFix"/>
<feColorMatrix in="SourceAlpha" type="matrix" values="0 0 0 0 0 0 0 0 0 0 0 0 0 0 0 0 0 0 127 0" result="hardAlpha"/>
<feOffset dy="7.0399"/>
<feGaussianBlur stdDeviation="8.79988"/>
<feComposite in2="hardAlpha" operator="out"/>
<feColorMatrix type="matrix" values="0 0 0 0 0 0 0 0 0 0 0 0 0 0 0 0 0 0 0.09 0"/>
<feBlend mode="normal" in2="BackgroundImageFix" result="effect1_dropShadow_5_549"/>
<feBlend mode="normal" in="SourceGraphic" in2="effect1_dropShadow_5_549" result="shape"/>
</filter>
<linearGradient id="paint0_linear_5_549" x1="32.0001" y1="50.8797" x2="107.981" y2="50.8797" gradientUnits="userSpaceOnUse">
<stop stop-color="#EA4B43"/>
<stop offset="0.14" stop-color="#E54B43"/>
<stop offset="0.29" stop-color="#D84942"/>
<stop offset="0.46" stop-color="#C14741"/>
<stop offset="0.63" stop-color="#A1443F"/>
<stop offset="0.8" stop-color="#79403D"/>
<stop offset="0.98" stop-color="#483B3A"/>
<stop offset="1" stop-color="#423A3A"/>
</linearGradient>
<linearGradient id="paint1_linear_5_549" x1="36.7551" y1="54.1141" x2="105.223" y2="54.1141" gradientUnits="userSpaceOnUse">
<stop stop-color="white"/>
<stop offset="1" stop-color="white" stop-opacity="0"/>
</linearGradient>
<clipPath id="clip0_5_549">
<rect width="135.824" height="46" fill="white" transform="translate(32 20)"/>
</clipPath>
</defs>
</svg>
