<svg width="11" height="16" viewBox="0 0 11 16" fill="none" xmlns="http://www.w3.org/2000/svg">
<path fill-rule="evenodd" clip-rule="evenodd" d="M5.50003 0C2.46716 0 0 2.51107 0 5.59804C0 7.40831 0.758303 9.03035 1.45414 10.5309C2.34916 12.461 4.7971 15.6404 4.7971 15.6404L4.78022 15.6166C5.1151 16.1278 5.88513 16.1278 6.22002 15.6166L6.20347 15.6404C6.20347 15.6404 8.65095 12.4609 9.54586 10.5309C10.2417 9.03035 11 7.40834 11 5.59804C11 2.51087 8.53279 0 5.49997 0L5.50003 0ZM5.50003 2.59913C7.12266 2.59913 8.44648 3.94703 8.44648 5.59915C8.44648 7.25128 7.12266 8.59917 5.50003 8.59917C3.87741 8.59917 2.55359 7.25128 2.55359 5.59915C2.55359 3.94703 3.87741 2.59913 5.50003 2.59913Z" fill="white"/>
</svg>
