<svg width="136" height="47" viewBox="0 0 136 47" fill="none" xmlns="http://www.w3.org/2000/svg">
<g clip-path="url(#clip0_29_3556)">
<path d="M26.3813 22.231L21.1598 21.2475L19.9769 23.157L24.4549 23.9782C24.9589 23.2596 25.6171 22.6627 26.3813 22.231Z" fill="#423A3A"/>
<path d="M116.137 5.02532H130.649C130.649 5.02532 125.374 3.20708 116.776 2.57172L116.137 5.02532Z" fill="#423A3A"/>
<path d="M115.046 2.57846L26.9322 2.65281L26.0265 4.53526L113.366 4.6941L115.046 2.57846Z" fill="#423A3A"/>
<path d="M66.0243 30.609L66.8827 28.632L108.915 21.2542L107.269 23.1637L66.0243 30.609Z" fill="#423A3A"/>
<path d="M53.8543 0.5H41.7215C41.3482 0.5 41.0455 0.802621 41.0455 1.17592C41.0455 1.54923 41.3482 1.85185 41.7215 1.85185H53.8543C54.2276 1.85185 54.5302 1.54923 54.5302 1.17592C54.5302 0.802621 54.2276 0.5 53.8543 0.5Z" fill="#423A3A"/>
<path d="M76.6025 0.5H64.4696C64.0963 0.5 63.7937 0.802621 63.7937 1.17592C63.7937 1.54923 64.0963 1.85185 64.4696 1.85185H76.6025C76.9758 1.85185 77.2784 1.54923 77.2784 1.17592C77.2784 0.802621 76.9758 0.5 76.6025 0.5Z" fill="#423A3A"/>
<path d="M99.5027 0.5H87.3699C86.9966 0.5 86.694 0.802621 86.694 1.17592C86.694 1.54923 86.9966 1.85185 87.3699 1.85185H99.5027C99.876 1.85185 100.179 1.54923 100.179 1.17592C100.179 0.802621 99.876 0.5 99.5027 0.5Z" fill="#423A3A"/>
<path d="M116.137 22.1127C115.105 22.1127 114.096 22.4187 113.238 22.9921C112.38 23.5655 111.711 24.3804 111.316 25.3339C110.921 26.2874 110.818 27.3366 111.019 28.3488C111.221 29.361 111.718 30.2908 112.447 31.0206C113.177 31.7503 114.107 32.2473 115.119 32.4487C116.131 32.65 117.181 32.5467 118.134 32.1517C119.088 31.7568 119.903 31.088 120.476 30.2298C121.049 29.3717 121.355 28.3629 121.355 27.3308C121.355 26.6455 121.22 25.967 120.958 25.3339C120.696 24.7008 120.312 24.1256 119.827 23.641C119.342 23.1565 118.767 22.7721 118.134 22.5099C117.501 22.2476 116.822 22.1127 116.137 22.1127ZM116.137 28.9699C115.813 28.9693 115.497 28.8726 115.227 28.692C114.958 28.5115 114.749 28.2553 114.625 27.9557C114.502 27.6562 114.47 27.3267 114.533 27.009C114.597 26.6912 114.753 26.3995 114.983 26.1706C115.212 25.9417 115.504 25.7859 115.822 25.7229C116.14 25.66 116.469 25.6926 116.769 25.8168C117.068 25.9409 117.324 26.151 117.504 26.4205C117.684 26.69 117.78 27.0068 117.78 27.3308C117.78 27.5463 117.737 27.7598 117.655 27.9588C117.572 28.1579 117.451 28.3388 117.298 28.491C117.146 28.6433 116.965 28.7639 116.766 28.8461C116.566 28.9283 116.353 28.9704 116.137 28.9699Z" fill="#423A3A"/>
<path d="M29.2776 22.1127C28.2455 22.1127 27.2367 22.4187 26.3785 22.9921C25.5204 23.5655 24.8516 24.3804 24.4567 25.3339C24.0617 26.2874 23.9584 27.3366 24.1597 28.3488C24.3611 29.361 24.858 30.2908 25.5878 31.0206C26.3176 31.7503 27.2474 32.2473 28.2596 32.4487C29.2718 32.65 30.321 32.5467 31.2745 32.1517C32.228 31.7568 33.0429 31.088 33.6163 30.2298C34.1897 29.3717 34.4957 28.3629 34.4957 27.3308C34.4957 25.9469 33.9459 24.6196 32.9674 23.641C31.9888 22.6624 30.6615 22.1127 29.2776 22.1127ZM29.2776 28.9699C28.9535 28.9693 28.637 28.8726 28.3679 28.692C28.0988 28.5115 27.8892 28.2553 27.7657 27.9557C27.6421 27.6562 27.6101 27.3267 27.6738 27.009C27.7374 26.6912 27.8938 26.3995 28.1231 26.1706C28.3525 25.9417 28.6446 25.7859 28.9624 25.7229C29.2803 25.66 29.6097 25.6926 29.909 25.8168C30.2083 25.9409 30.4641 26.151 30.6441 26.4205C30.824 26.69 30.9201 27.0068 30.9201 27.3308C30.9201 27.5463 30.8776 27.7598 30.795 27.9588C30.7124 28.1579 30.5914 28.3388 30.4388 28.491C30.2862 28.6433 30.1051 28.7639 29.9059 28.8461C29.7066 28.9283 29.4931 28.9704 29.2776 28.9699Z" fill="#423A3A"/>
<path d="M42.5697 22.1127C41.537 22.11 40.5268 22.4137 39.667 22.9855C38.8071 23.5572 38.1361 24.3713 37.7391 25.3245C37.3421 26.2778 37.2368 27.3274 37.4366 28.3405C37.6365 29.3536 38.1324 30.2846 38.8616 31.0158C39.5908 31.7469 40.5206 32.2452 41.5332 32.4476C42.5457 32.6501 43.5956 32.5475 44.5499 32.153C45.5042 31.7585 46.3199 31.0896 46.8939 30.2312C47.4679 29.3728 47.7743 28.3634 47.7743 27.3308C47.7743 25.9492 47.2264 24.624 46.2507 23.6458C45.275 22.6676 43.9513 22.1162 42.5697 22.1127ZM42.5697 28.9699C42.2456 28.9692 41.9291 28.8725 41.6599 28.692C41.3908 28.5115 41.1813 28.2553 41.0577 27.9557C40.9342 27.6561 40.9022 27.3267 40.9658 27.0089C41.0295 26.6912 41.1858 26.3995 41.4152 26.1706C41.6446 25.9417 41.9366 25.7859 42.2545 25.7229C42.5724 25.66 42.9018 25.6926 43.2011 25.8168C43.5004 25.9409 43.7562 26.151 43.9362 26.4205C44.1161 26.69 44.2122 27.0067 44.2122 27.3308C44.2122 27.5463 44.1697 27.7597 44.0871 27.9588C44.0045 28.1579 43.8834 28.3388 43.7309 28.491C43.5783 28.6433 43.3972 28.7639 43.198 28.8461C42.9987 28.9283 42.7852 28.9704 42.5697 28.9699Z" fill="#423A3A"/>
<path d="M48.3489 26.3338C48.4102 26.6628 48.4441 26.9962 48.4503 27.3308C48.4486 27.6594 48.4192 27.9872 48.3624 28.3109L60.8062 30.5718L60.9177 28.6522L48.3489 26.3338Z" fill="#423A3A"/>
<path d="M37.5442 24.3162L33.8267 23.62C34.3643 24.2839 34.7517 25.0564 34.9622 25.8843L36.8109 26.2223C36.9407 25.5485 37.189 24.9032 37.5442 24.3162Z" fill="#423A3A"/>
<path d="M130.859 6.50895H116.043L112.43 22.0552C113.704 21.1671 115.255 20.7674 116.799 20.9293C118.343 21.0912 119.778 21.8039 120.84 22.9368C121.902 24.0698 122.52 25.5473 122.582 27.0989C122.644 28.6506 122.145 30.1725 121.176 31.3863H131.944C131.944 31.3863 133.542 23.6132 135.817 10.4327C136.003 6.13719 130.859 6.50895 130.859 6.50895ZM133.799 10.2941L132.755 16.1476H123.393L125.144 8.24269H131.447C131.447 8.24269 134.012 8.08723 133.799 10.2941Z" fill="#423A3A"/>
<path d="M63.0637 6.10004H66.5616L65.4937 19.9835L69.2789 6.10004H72.7835L66.0243 28.4833C66.0243 28.4833 65.2841 31.3255 63.057 31.2545H61.5699L63.0637 6.10004Z" fill="#423A3A"/>
<path d="M34.2558 6.10002H30.2611C29.7563 6.09865 29.2628 6.24906 28.8445 6.5317C28.4263 6.81435 28.1027 7.21618 27.9157 7.68506L25.8068 15.6779C25.4547 15.7028 25.1158 15.8219 24.8256 16.0229C24.5354 16.2239 24.3046 16.4993 24.1575 16.8202L23.8398 18.216L24.9822 18.4356C25.2048 18.4732 25.4334 18.4489 25.6432 18.3655C25.8529 18.282 26.0358 18.1426 26.1718 17.9625L30.3895 18.8817L30.2307 19.801H31.2446C32.3227 19.7706 32.7992 18.6925 32.7992 18.6925L33.1811 16.6917L31.9746 16.5025L34.2558 6.10002ZM29.7812 16.1341L28.1387 15.8468L29.8083 8.30015H31.4778L29.7812 16.1341Z" fill="#EA4B43"/>
<path d="M33.7218 19.6118L36.0537 7.93179C36.0537 7.93179 36.4998 6.10004 37.9294 6.10004H42.5696L41.9174 9.11466H38.1457L37.6388 11.8184L40.623 12.082L40.0755 14.9884L37.0338 14.7519L36.5472 17.3204L40.0822 17.8679L39.8896 19.1386C39.8896 19.1386 39.3827 20.5344 38.1457 20.4702L33.7218 19.6118Z" fill="#EA4B43"/>
<path d="M50.5423 6.10004H45.946C45.946 6.10004 44.4657 6.13046 43.9419 7.90476L41.7755 18.635C41.7755 18.635 40.5927 19.2028 40.5927 21.0008L42.5123 21.2914C42.5123 21.2914 43.8134 21.3252 44.1514 19.4462L46.0271 9.42896H47.5006L45.0706 21.9234L46.2975 21.9944C46.2975 21.9944 47.6493 21.9369 47.9264 20.3215C48.2036 18.706 50.5423 6.10004 50.5423 6.10004Z" fill="#EA4B43"/>
<path d="M56.5005 6.10004H53.1209C51.6609 6.10004 51.4716 7.95207 51.4716 7.95207L49.312 19.9937C48.7848 22.2783 49.9305 22.4642 49.9305 22.4642L53.736 23.1401C54.9763 23.3327 55.2298 21.4942 55.2298 21.4942L57.4941 7.63776C57.5279 6.25212 56.5005 6.10004 56.5005 6.10004ZM54.9222 10.551L53.4555 19.338C53.4555 19.338 53.3912 19.8551 52.9282 19.8551L51.9988 19.6996C51.9988 19.6996 51.7285 19.6726 51.7454 19.213L53.4014 9.92915C53.4159 9.78593 53.486 9.65411 53.5965 9.56189C53.7071 9.46967 53.8493 9.42439 53.9928 9.43572H54.7127C54.7127 9.43572 55.2095 9.44248 54.9222 10.551Z" fill="#EA4B43"/>
<path d="M73.2195 24.2891L75.5413 6.11356H80.2187L78.2146 21.626C78.1523 22.1691 77.9164 22.6777 77.5419 23.0759C77.1674 23.4741 76.6744 23.7408 76.1361 23.8363L77.8834 9.51345H76.954L75.0343 23.9884L73.2195 24.2891Z" fill="#EA4B43"/>
<path d="M82.0504 6.10003C81.0366 6.07299 80.8067 7.92164 80.8067 7.92164L78.8905 23.4679C80.6445 23.3631 80.8169 21.5922 80.8169 21.5922L81.5097 15.6001L83.2705 15.4954C84.2844 15.3838 84.4128 14.1807 84.4128 14.1807L85.5315 6.11692C85.5315 6.11692 82.8818 6.12368 82.0504 6.10003ZM83.1522 12.1833H81.8882L82.3614 8.88483H83.5983L83.1522 12.1833Z" fill="#EA4B43"/>
<path d="M83.6997 22.9103L85.5585 22.5723L87.2956 15.8131L86.4034 22.3966C86.4034 22.3966 87.7553 22.5385 88.5427 20.504L90.5536 6.08314H88.688L87.1266 12.5855L87.6978 6.09666C87.6978 6.09666 86.0485 5.79249 85.643 8.03994L83.6997 22.9103Z" fill="#EA4B43"/>
<path d="M89.1747 20.9636L91.2193 7.60735C91.3263 7.17529 91.5754 6.79173 91.9266 6.51834C92.2778 6.24495 92.7108 6.09762 93.1559 6.10004L91.5303 17.6279L92.4462 17.5164L94.2171 6.10004H95.9238L94.359 17.2528L95.1262 17.2055C95.1262 17.2055 95.3323 21.332 92.8483 21.2847L92.9261 20.4262L89.1747 20.9636Z" fill="#EA4B43"/>
<path d="M95.1093 19.9294L97.1674 7.32684C97.1674 7.32684 97.546 6.13045 98.4213 6.10004H101.865L101.456 8.7429L98.7085 8.86119L98.2962 11.379L100.547 11.3317L100.081 14.0658L97.8231 14.2111L97.5088 16.7492L100.192 16.587C100.192 16.587 100.01 19.3549 98.5497 19.5442L95.1093 19.9294Z" fill="#EA4B43"/>
<path d="M100.135 19.1048L102.277 6.10004H106.816L104.961 17.0601C104.961 17.0601 104.285 18.706 103.031 18.75L104.745 8.6111H103.65L101.828 18.8818L100.135 19.1048Z" fill="#EA4B43"/>
<path d="M105.005 18.4424L107.073 7.50594C107.073 7.50594 107.36 6.10678 108.351 6.13044C109.53 6.10002 111.852 6.10678 111.852 6.10678L111.348 8.40492L108.594 8.61446L108.195 10.8281L110.463 10.7064L110.057 13.2006L107.766 13.3831L107.32 15.6272L110.071 15.4311C110.071 15.4311 110.122 17.6144 108.418 18.0098L105.005 18.4424Z" fill="#EA4B43"/>
<path d="M12.481 16.2558C-41.5929 48.4534 95.6467 55.0504 127.591 35.5399C112.149 43.5902 -13.6401 51.7519 12.481 16.2558Z" fill="url(#paint0_linear_29_3556)"/>
<path d="M73.2194 44.3202C-4.66729 46.5169 5.34315 24.6575 5.34315 24.6575" stroke="url(#paint1_linear_29_3556)" stroke-miterlimit="10" stroke-dasharray="12 5"/>
</g>
<defs>
<linearGradient id="paint0_linear_29_3556" x1="5.94648e-05" y1="31.3796" x2="75.9807" y2="31.3796" gradientUnits="userSpaceOnUse">
<stop stop-color="#EA4B43"/>
<stop offset="0.14" stop-color="#E54B43"/>
<stop offset="0.29" stop-color="#D84942"/>
<stop offset="0.46" stop-color="#C14741"/>
<stop offset="0.63" stop-color="#A1443F"/>
<stop offset="0.8" stop-color="#79403D"/>
<stop offset="0.98" stop-color="#483B3A"/>
<stop offset="1" stop-color="#423A3A"/>
</linearGradient>
<linearGradient id="paint1_linear_29_3556" x1="4.75509" y1="34.6139" x2="73.2228" y2="34.6139" gradientUnits="userSpaceOnUse">
<stop stop-color="white"/>
<stop offset="1" stop-color="white" stop-opacity="0"/>
</linearGradient>
<clipPath id="clip0_29_3556">
<rect width="135.824" height="46" fill="white" transform="translate(0 0.5)"/>
</clipPath>
</defs>
</svg>
