<svg width="12" height="17" viewBox="0 0 12 17" fill="none" xmlns="http://www.w3.org/2000/svg">
<path d="M6 0C2.69166 0 0 2.54213 0 5.66668C0 6.60467 0.248308 7.53469 0.72035 8.35958L5.67189 16.8174C5.73781 16.9301 5.86342 17 6 17C6.13658 17 6.2622 16.9301 6.32811 16.8174L11.2815 8.35679C11.7517 7.53469 12 6.60463 12 5.66664C12 2.54213 9.30834 0 6 0ZM6 8.5C4.34583 8.5 3.00002 7.22895 3.00002 5.66668C3.00002 4.1044 4.34583 2.83336 6 2.83336C7.65417 2.83336 8.99998 4.1044 8.99998 5.66668C8.99998 7.22895 7.65417 8.5 6 8.5Z" fill="#EA4B43"/>
</svg>
