<svg width="41" height="39" viewBox="0 0 41 39" fill="none" xmlns="http://www.w3.org/2000/svg">
<path d="M21.3271 31.8455L30.7837 37.757C31.9925 38.5126 33.4933 37.3888 33.1346 35.9966L30.4024 25.3919C30.3255 25.0966 30.3346 24.7858 30.4287 24.4953C30.5228 24.2048 30.6981 23.9464 30.9344 23.7499L39.4146 16.7859C40.5288 15.8708 39.9537 14.0462 38.5221 13.9546L27.4476 13.2454C27.1494 13.2244 26.8633 13.1202 26.6227 12.9449C26.3821 12.7697 26.1969 12.5306 26.0887 12.2555L21.9583 1.99304C21.8461 1.70108 21.6464 1.44973 21.386 1.27236C21.1255 1.09499 20.8165 1 20.5 1C20.1835 1 19.8745 1.09499 19.614 1.27236C19.3536 1.44973 19.1539 1.70108 19.0417 1.99304L14.9113 12.2555C14.8031 12.5306 14.6179 12.7697 14.3773 12.9449C14.1368 13.1202 13.8507 13.2244 13.5524 13.2454L2.47788 13.9546C1.04631 14.0462 0.471194 15.8708 1.58545 16.7859L10.0656 23.7499C10.3019 23.9464 10.4772 24.2048 10.5713 24.4953C10.6654 24.7858 10.6745 25.0966 10.5976 25.3919L8.06377 35.2266C7.63333 36.8972 9.4343 38.2458 10.8849 37.3391L19.6729 31.8455C19.9201 31.6903 20.207 31.6078 20.5 31.6078C20.793 31.6078 21.0799 31.6903 21.3271 31.8455Z" stroke="#EA4B43" stroke-width="1.8" stroke-linecap="round"/>
</svg>
