<svg width="33" height="39" viewBox="0 0 33 39" fill="none" xmlns="http://www.w3.org/2000/svg">
<path fill-rule="evenodd" clip-rule="evenodd" d="M8.10361 0.962891C7.82747 0.962891 7.60361 1.18675 7.60361 1.46289V22.5452H1.46289H0.962891V23.5452H1.46289H7.60361V29.1857H1.46289H0.962891V30.1857H1.46289H7.60361V37.9869V38.4869H8.60361V37.9869V30.1857H19.7249H20.2249V29.1857H19.7249H8.60361V23.5452H20.555C23.5496 23.5452 26.4215 22.3556 28.539 20.2381C30.6565 18.1206 31.8461 15.2487 31.8461 12.2541C31.8461 9.25946 30.6565 6.3875 28.539 4.27C26.4215 2.15249 23.5496 0.962891 20.555 0.962891H8.10361ZM20.555 22.5452H8.60361V1.96289H20.555C23.2844 1.96289 25.902 3.04714 27.8319 4.9771C29.7619 6.90707 30.8461 9.52467 30.8461 12.2541C30.8461 14.9835 29.7619 17.601 27.8319 19.531C25.902 21.461 23.2844 22.5452 20.555 22.5452Z" fill="#EA4B43"/>
<path d="M7.60361 22.5452V23.0452C7.87976 23.0452 8.10361 22.8214 8.10361 22.5452H7.60361ZM0.962891 22.5452V22.0452C0.686748 22.0452 0.462891 22.2691 0.462891 22.5452H0.962891ZM0.962891 23.5452H0.462891C0.462891 23.8214 0.686748 24.0452 0.962891 24.0452L0.962891 23.5452ZM7.60361 23.5452H8.10361C8.10361 23.2691 7.87976 23.0452 7.60361 23.0452V23.5452ZM7.60361 29.1857V29.6857C7.87976 29.6857 8.10361 29.4618 8.10361 29.1857H7.60361ZM0.962891 29.1857V28.6857C0.686748 28.6857 0.462891 28.9095 0.462891 29.1857H0.962891ZM0.962891 30.1857H0.462891C0.462891 30.4618 0.686748 30.6857 0.962891 30.6857L0.962891 30.1857ZM7.60361 30.1857H8.10361C8.10361 29.9095 7.87976 29.6857 7.60361 29.6857V30.1857ZM7.60361 38.4869H7.10361C7.10361 38.763 7.32747 38.9869 7.60361 38.9869V38.4869ZM8.60361 38.4869V38.9869C8.87976 38.9869 9.10361 38.763 9.10361 38.4869H8.60361ZM8.60361 30.1857V29.6857C8.32747 29.6857 8.10361 29.9095 8.10361 30.1857H8.60361ZM20.2249 30.1857V30.6857C20.501 30.6857 20.7249 30.4618 20.7249 30.1857H20.2249ZM20.2249 29.1857H20.7249C20.7249 28.9095 20.501 28.6857 20.2249 28.6857V29.1857ZM8.60361 29.1857H8.10361C8.10361 29.4618 8.32747 29.6857 8.60361 29.6857V29.1857ZM8.60361 23.5452V23.0452C8.32747 23.0452 8.10361 23.2691 8.10361 23.5452H8.60361ZM28.539 4.27L28.8926 3.91644V3.91644L28.539 4.27ZM8.60361 22.5452H8.10361C8.10361 22.8214 8.32747 23.0452 8.60361 23.0452V22.5452ZM8.60361 1.96289V1.46289C8.32747 1.46289 8.10361 1.68675 8.10361 1.96289H8.60361ZM27.8319 4.9771L28.1855 4.62355L27.8319 4.9771ZM8.10361 1.46289V0.462891C7.55133 0.462891 7.10361 0.910606 7.10361 1.46289H8.10361ZM8.10361 22.5452V1.46289H7.10361V22.5452H8.10361ZM1.46289 23.0452H7.60361V22.0452H1.46289V23.0452ZM0.962891 23.0452H1.46289V22.0452H0.962891V23.0452ZM1.46289 23.5452V22.5452H0.462891V23.5452H1.46289ZM1.46289 23.0452H0.962891V24.0452H1.46289V23.0452ZM7.60361 23.0452H1.46289V24.0452H7.60361V23.0452ZM8.10361 29.1857V23.5452H7.10361V29.1857H8.10361ZM1.46289 29.6857H7.60361V28.6857H1.46289V29.6857ZM0.962891 29.6857H1.46289V28.6857H0.962891V29.6857ZM1.46289 30.1857V29.1857H0.462891V30.1857H1.46289ZM1.46289 29.6857H0.962891V30.6857H1.46289V29.6857ZM7.60361 29.6857H1.46289V30.6857H7.60361V29.6857ZM8.10361 37.9869V30.1857H7.10361V37.9869H8.10361ZM8.10361 38.4869V37.9869H7.10361V38.4869H8.10361ZM8.60361 37.9869H7.60361V38.9869H8.60361V37.9869ZM8.10361 37.9869V38.4869H9.10361V37.9869H8.10361ZM8.10361 30.1857V37.9869H9.10361V30.1857H8.10361ZM19.7249 29.6857H8.60361V30.6857H19.7249V29.6857ZM20.2249 29.6857H19.7249V30.6857H20.2249V29.6857ZM19.7249 29.1857V30.1857H20.7249V29.1857H19.7249ZM19.7249 29.6857H20.2249V28.6857H19.7249V29.6857ZM8.60361 29.6857H19.7249V28.6857H8.60361V29.6857ZM8.10361 23.5452V29.1857H9.10361V23.5452H8.10361ZM20.555 23.0452H8.60361V24.0452H20.555V23.0452ZM28.1855 19.8846C26.1617 21.9083 23.417 23.0452 20.555 23.0452V24.0452C23.6822 24.0452 26.6813 22.803 28.8926 20.5917L28.1855 19.8846ZM31.3461 12.2541C31.3461 15.1161 30.2092 17.8608 28.1855 19.8846L28.8926 20.5917C31.1039 18.3804 32.3461 15.3813 32.3461 12.2541H31.3461ZM28.1855 4.62355C30.2092 6.64729 31.3461 9.39207 31.3461 12.2541H32.3461C32.3461 9.12685 31.1039 6.12772 28.8926 3.91644L28.1855 4.62355ZM20.555 1.46289C23.417 1.46289 26.1617 2.59981 28.1855 4.62355L28.8926 3.91644C26.6813 1.70517 23.6822 0.462891 20.555 0.462891V1.46289ZM8.10361 1.46289H20.555V0.462891H8.10361V1.46289ZM8.60361 23.0452H20.555V22.0452H8.60361V23.0452ZM8.10361 1.96289V22.5452H9.10361V1.96289H8.10361ZM20.555 1.46289H8.60361V2.46289H20.555V1.46289ZM28.1855 4.62355C26.1617 2.59981 23.417 1.46289 20.555 1.46289V2.46289C23.1517 2.46289 25.6422 3.49446 27.4784 5.33066L28.1855 4.62355ZM31.3461 12.2541C31.3461 9.39207 30.2092 6.64729 28.1855 4.62355L27.4784 5.33066C29.3146 7.16686 30.3461 9.65728 30.3461 12.2541H31.3461ZM28.1855 19.8846C30.2092 17.8608 31.3461 15.1161 31.3461 12.2541H30.3461C30.3461 14.8508 29.3146 17.3413 27.4784 19.1775L28.1855 19.8846ZM20.555 23.0452C23.417 23.0452 26.1617 21.9083 28.1855 19.8846L27.4784 19.1775C25.6422 21.0137 23.1517 22.0452 20.555 22.0452V23.0452Z" fill="#EA4B43"/>
</svg>
