<svg width="42" height="42" viewBox="0 0 42 42" fill="none" xmlns="http://www.w3.org/2000/svg">
<path d="M0.974106 39.939C0.771427 40.1417 0.777838 40.4048 0.83442 40.5813C0.867483 40.7067 0.935319 40.8131 1.03685 40.887C1.13888 40.9612 1.26026 40.992 1.38227 40.992H40.5999C40.9327 40.992 41.2 40.7247 41.2 40.3918V1.17421C41.2 1.0522 41.1692 0.930827 41.095 0.828798C41.0824 0.81151 41.0689 0.795198 41.0545 0.779869L41.1037 0.730625L40.8612 0.649957C40.8395 0.641322 40.817 0.633866 40.7939 0.627598C40.6174 0.569709 40.3516 0.561479 40.1473 0.765853L0.974106 39.939ZM40 39.7914H37.3319V37.9906C37.3319 37.6578 37.0646 37.3905 36.7318 37.3905C36.3989 37.3905 36.1316 37.6578 36.1316 37.9906V39.7914H33.5525V37.9906C33.5525 37.6578 33.2853 37.3905 32.9524 37.3905C32.6196 37.3905 32.3523 37.6578 32.3523 37.9906V39.7914H29.7732V37.9906C29.7732 37.6578 29.5059 37.3905 29.1731 37.3905C28.8402 37.3905 28.573 37.6578 28.573 37.9906V39.7914H25.9939V37.9906C25.9939 37.6578 25.7266 37.3905 25.3937 37.3905C25.0609 37.3905 24.7936 37.6578 24.7936 37.9906V39.7914H22.2145V37.9906C22.2145 37.6578 21.9473 37.3905 21.6144 37.3905C21.2816 37.3905 21.0143 37.6578 21.0143 37.9906V39.7914H18.4352V37.9906C18.4352 37.6578 18.1679 37.3905 17.8351 37.3905C17.5022 37.3905 17.235 37.6578 17.235 37.9906V39.7914H14.6559V37.9906C14.6559 37.6578 14.3886 37.3905 14.0557 37.3905C13.7229 37.3905 13.4556 37.6578 13.4556 37.9906V39.7914H10.8765V37.9906C10.8765 37.6578 10.6093 37.3905 10.2764 37.3905C9.94357 37.3905 9.67631 37.6578 9.67631 37.9906V39.7914H2.80066L39.9995 2.63464L40 39.7914Z" fill="#EA4B43" stroke="#EA4B43" stroke-width="0.4"/>
<path d="M34.12 17.7008C33.9436 17.6443 33.6806 17.6379 33.478 17.8405L33.4778 17.8407L18.0488 33.3142L18.0486 33.3144L34.12 17.7008ZM34.12 17.7008C34.2457 17.7337 34.3521 17.8016 34.426 17.9032C34.5001 18.0053 34.5309 18.1267 34.5309 18.2487L34.5306 33.7223C34.5306 34.0552 34.2633 34.3224 33.9305 34.3224H18.457L34.12 17.7008ZM18.1012 33.9003C18.1459 34.0334 18.3235 34.1224 18.4569 34.1224L33.6194 17.982L18.1902 33.4556C18.0569 33.5889 18.0569 33.767 18.1012 33.9003ZM33.3303 19.7097V33.1221L19.9179 33.1224L33.3303 19.7097Z" fill="#EA4B43" stroke="#EA4B43" stroke-width="0.4"/>
</svg>
