<svg width="43" height="42" viewBox="0 0 43 42" fill="none" xmlns="http://www.w3.org/2000/svg">
<path d="M41.334 6.88469C41.867 7.10483 42.2115 7.57322 42.2115 8.12423V33.8125C42.2115 34.3945 41.8399 34.9008 41.3504 35.0476L41.3504 35.0475L41.34 35.0509L21.7199 41.5238L21.719 41.5241C21.5828 41.5693 21.5043 41.5709 21.3057 41.5709C21.1072 41.5709 21.0286 41.5693 20.8925 41.524L20.8904 41.5234L1.28339 35.123C0.746947 34.9035 0.4 34.4337 0.4 33.8807V8.12508C0.4 7.54306 0.771606 7.0367 1.26102 6.88994L1.26106 6.89006L1.27028 6.88705L20.8904 0.48149L20.8929 0.480662C21.224 0.370177 21.4621 0.378739 21.6965 0.472589L21.7086 0.477435L21.721 0.481482L41.334 6.88469ZM19.4956 38.3735L19.556 38.3933L19.6195 38.3934L19.6874 38.3936L20.0881 38.3943V37.9936V15.7439V15.4527L19.811 15.3632L13.3381 13.2732L12.8152 13.1044V13.6539V25.1157C12.8152 25.8387 12.2526 26.4013 11.5297 26.4013C10.8067 26.4013 10.2441 25.8387 10.2441 25.1157V12.5076V12.2164L9.96699 12.1269L3.49411 10.0369L2.97121 9.8681V10.4176V32.6672V32.9571L3.24662 33.0473L19.4956 38.3735ZM21.1826 13.1577L21.3064 13.1978L21.4301 13.1573L35.6559 8.50515L36.8184 8.12497L35.6559 7.74478L21.4296 3.09246L21.3052 3.0518L21.1809 3.09246L6.9546 7.74478L5.7944 8.12419L6.95414 8.505L11.4715 9.98832L11.6031 10.0315L11.7333 9.9841L18.9377 7.35827C19.6276 7.15051 20.341 7.47239 20.5953 8.13353C20.8452 8.78321 20.5057 9.50555 19.8186 9.77255L16.5877 10.9168L15.4747 11.311L16.5981 11.6744L21.1826 13.1577ZM39.3633 33.0476L39.6404 32.9582V32.667L39.6401 10.4177L39.6401 9.86565L39.1155 10.0376L22.8665 15.3638L22.5911 15.4541V15.7439V37.9936V38.543L23.114 38.3742L29.5869 36.2842L29.864 36.1947V35.9036V27.4757C29.864 26.7307 30.3802 26.1901 31.0819 26.1901C31.8049 26.1901 32.3675 26.7527 32.3675 27.4757V34.757V35.3065L32.8904 35.1376L39.3633 33.0476Z" fill="#EA4B43" stroke="#F6F6F6" stroke-width="0.8"/>
</svg>
