<svg width="17" height="16" viewBox="0 0 17 16" fill="none" xmlns="http://www.w3.org/2000/svg">
<path d="M12.5651 10.3275C13.3525 9.25236 13.8234 7.93169 13.8234 6.49999C13.8234 2.91602 10.9074 0 7.32344 0C3.73947 0 0.823486 2.91602 0.823486 6.49999C0.823486 10.084 3.7395 13 7.32347 13C8.75518 13 10.076 12.529 11.1512 11.7416L15.4094 15.9999L16.8235 14.5859L12.5651 10.3275ZM7.32347 11C4.84203 11 2.82349 8.98143 2.82349 6.49999C2.82349 4.01854 4.84203 2.00001 7.32347 2.00001C9.80492 2.00001 11.8235 4.01854 11.8235 6.49999C11.8235 7.36658 11.5773 8.17671 11.1512 8.86413C10.3571 10.1451 8.9383 11 7.32347 11Z" fill="white"/>
</svg>
