<svg width="27" height="21" viewBox="0 0 27 21" fill="none" xmlns="http://www.w3.org/2000/svg">
<path d="M25.084 9.00768C24.5358 8.24217 23.6464 7.78515 22.7049 7.78515H20.0664C20.0562 6.18026 18.7479 4.87766 17.1406 4.87766H14.3393C14.1516 2.40918 12.0846 0.457764 9.56885 0.457764C7.05313 0.457764 4.98607 2.40924 4.79838 4.87766H0.585254C0.262077 4.87766 0 5.13974 0 5.46292V17.7637C0 18.0868 0.262077 18.3489 0.585254 18.3489H2.44654C2.80975 19.3894 3.80035 20.1382 4.96313 20.1382C6.20773 20.1382 7.25551 19.2805 7.54726 18.1252H20.2521C20.5439 19.2805 21.5917 20.1382 22.8363 20.1382C24.0809 20.1382 25.1287 19.2805 25.4205 18.1252H26.4147C26.7379 18.1252 27 17.8632 27 17.54V11.8712C27 11.7489 26.9617 11.6298 26.8906 11.5304L25.084 9.00768ZM24.1323 9.68921L25.3314 11.3636H20.0668V8.95566H22.7048C23.2698 8.95566 23.8034 9.22991 24.1323 9.68921ZM9.56885 1.62827C11.5624 1.62827 13.1842 3.25013 13.1842 5.24362C13.1842 7.23711 11.5623 8.85897 9.56885 8.85897C7.57535 8.85897 5.9535 7.23711 5.9535 5.24362C5.9535 3.25013 7.57535 1.62827 9.56885 1.62827ZM4.96313 18.9677C4.13898 18.9677 3.46845 18.2972 3.46845 17.473C3.46845 16.6488 4.13898 15.9783 4.96313 15.9783C5.78729 15.9783 6.45781 16.6488 6.45781 17.473C6.45781 18.2972 5.78729 18.9677 4.96313 18.9677ZM4.96313 14.8078C3.59311 14.8078 2.4617 15.847 2.31456 17.1785H1.17051V6.04823H4.85193C5.2358 8.30526 7.20413 10.0295 9.56885 10.0295C11.9336 10.0295 13.9019 8.30526 14.2858 6.04823H17.1406C18.1087 6.04823 18.8963 6.83586 18.8963 7.80399V16.9548H7.57734C7.33546 15.7324 6.25543 14.8078 4.96313 14.8078ZM22.8363 18.9677C22.0121 18.9677 21.3416 18.2972 21.3416 17.473C21.3416 16.6488 22.0121 15.9783 22.8363 15.9783C23.6605 15.9783 24.331 16.6488 24.331 17.473C24.331 18.2972 23.6605 18.9677 22.8363 18.9677ZM25.4506 16.9548C25.2087 15.7324 24.1287 14.8077 22.8364 14.8077C21.544 14.8077 20.464 15.7324 20.2221 16.9548H20.0669V12.5341H25.8296V16.9548H25.4506V16.9548Z" fill="#888888"/>
<path d="M9.68291 6.07005H11.2034C11.5266 6.07005 11.7887 5.80797 11.7887 5.48479C11.7887 5.16162 11.5266 4.89954 11.2034 4.89954H10.2682V3.57622C10.2682 3.25304 10.0061 2.99097 9.68291 2.99097C9.35973 2.99097 9.09766 3.25304 9.09766 3.57622V5.48479C9.09766 5.80797 9.35967 6.07005 9.68291 6.07005Z" fill="#888888"/>
</svg>
