<svg width="22" height="17" viewBox="0 0 22 17" fill="none" xmlns="http://www.w3.org/2000/svg">
<mask id="path-1-inside-1_2103_17685" fill="white">
<path fill-rule="evenodd" clip-rule="evenodd" d="M2.04297 3.10557C2.04297 2.69548 2.37541 2.36304 2.7855 2.36304H18.4683C18.8783 2.36304 19.2108 2.69548 19.2108 3.10557V5.59052H2.04297V3.10557ZM0.0429688 6.59052V3.10557C0.0429688 1.59091 1.27084 0.363037 2.7855 0.363037H18.4683C19.9829 0.363037 21.2108 1.59091 21.2108 3.10557V6.59052V13.5607C21.2108 15.0754 19.9829 16.3033 18.4683 16.3033H2.7855C1.27084 16.3033 0.0429688 15.0754 0.0429688 13.5607V6.59052ZM19.2108 7.59052V13.5607C19.2108 13.9708 18.8783 14.3033 18.4683 14.3033H2.7855C2.37541 14.3033 2.04297 13.9708 2.04297 13.5607V7.59052H19.2108Z"/>
</mask>
<path fill-rule="evenodd" clip-rule="evenodd" d="M2.04297 3.10557C2.04297 2.69548 2.37541 2.36304 2.7855 2.36304H18.4683C18.8783 2.36304 19.2108 2.69548 19.2108 3.10557V5.59052H2.04297V3.10557ZM0.0429688 6.59052V3.10557C0.0429688 1.59091 1.27084 0.363037 2.7855 0.363037H18.4683C19.9829 0.363037 21.2108 1.59091 21.2108 3.10557V6.59052V13.5607C21.2108 15.0754 19.9829 16.3033 18.4683 16.3033H2.7855C1.27084 16.3033 0.0429688 15.0754 0.0429688 13.5607V6.59052ZM19.2108 7.59052V13.5607C19.2108 13.9708 18.8783 14.3033 18.4683 14.3033H2.7855C2.37541 14.3033 2.04297 13.9708 2.04297 13.5607V7.59052H19.2108Z" fill="#888888"/>
<path d="M19.2108 5.59052V5.99052C19.4317 5.99052 19.6108 5.81143 19.6108 5.59052H19.2108ZM2.04297 5.59052H1.64297C1.64297 5.81143 1.82205 5.99052 2.04297 5.99052V5.59052ZM19.2108 7.59052H19.6108C19.6108 7.36961 19.4317 7.19052 19.2108 7.19052V7.59052ZM2.04297 7.59052V7.19052C1.82205 7.19052 1.64297 7.36961 1.64297 7.59052H2.04297ZM2.7855 1.96304C2.1545 1.96304 1.64297 2.47456 1.64297 3.10557H2.44297C2.44297 2.91639 2.59632 2.76304 2.7855 2.76304V1.96304ZM18.4683 1.96304H2.7855V2.76304H18.4683V1.96304ZM19.6108 3.10557C19.6108 2.47456 19.0993 1.96304 18.4683 1.96304V2.76304C18.6574 2.76304 18.8108 2.91639 18.8108 3.10557H19.6108ZM19.6108 5.59052V3.10557H18.8108V5.59052H19.6108ZM2.04297 5.99052H19.2108V5.19052H2.04297V5.99052ZM1.64297 3.10557V5.59052H2.44297V3.10557H1.64297ZM0.442969 6.59052V3.10557H-0.357031V6.59052H0.442969ZM0.442969 3.10557C0.442969 1.81182 1.49175 0.763037 2.7855 0.763037V-0.0369629C1.04993 -0.0369629 -0.357031 1.37 -0.357031 3.10557H0.442969ZM2.7855 0.763037H18.4683V-0.0369629H2.7855V0.763037ZM18.4683 0.763037C19.762 0.763037 20.8108 1.81182 20.8108 3.10557H21.6108C21.6108 1.37 20.2038 -0.0369629 18.4683 -0.0369629V0.763037ZM20.8108 3.10557V6.59052H21.6108V3.10557H20.8108ZM20.8108 6.59052V13.5607H21.6108V6.59052H20.8108ZM20.8108 13.5607C20.8108 14.8545 19.762 15.9033 18.4683 15.9033V16.7033C20.2038 16.7033 21.6108 15.2963 21.6108 13.5607H20.8108ZM18.4683 15.9033H2.7855V16.7033H18.4683V15.9033ZM2.7855 15.9033C1.49175 15.9033 0.442969 14.8545 0.442969 13.5607H-0.357031C-0.357031 15.2963 1.04993 16.7033 2.7855 16.7033V15.9033ZM0.442969 13.5607V6.59052H-0.357031V13.5607H0.442969ZM19.6108 13.5607V7.59052H18.8108V13.5607H19.6108ZM18.4683 14.7033C19.0993 14.7033 19.6108 14.1917 19.6108 13.5607H18.8108C18.8108 13.7499 18.6574 13.9033 18.4683 13.9033V14.7033ZM2.7855 14.7033H18.4683V13.9033H2.7855V14.7033ZM1.64297 13.5607C1.64297 14.1917 2.1545 14.7033 2.7855 14.7033V13.9033C2.59632 13.9033 2.44297 13.7499 2.44297 13.5607H1.64297ZM1.64297 7.59052V13.5607H2.44297V7.59052H1.64297ZM19.2108 7.19052H2.04297V7.99052H19.2108V7.19052Z" fill="white" mask="url(#path-1-inside-1_2103_17685)"/>
</svg>
