<svg width="16" height="20" viewBox="0 0 16 20" fill="none" xmlns="http://www.w3.org/2000/svg">
<path d="M4.10607 14.6924C3.78214 14.6924 3.51953 14.955 3.51953 15.2789C3.51953 15.6029 3.78214 15.8655 4.10607 15.8655H6.45222C6.77617 15.8655 7.03876 15.6029 7.03876 15.2789C7.03876 14.955 6.77617 14.6924 6.45222 14.6924H4.10607Z" fill="#888888"/>
<path d="M3.51953 12.3461C3.51953 12.0221 3.78214 11.7595 4.10607 11.7595H8.79838C9.12232 11.7595 9.38492 12.0221 9.38492 12.3461C9.38492 12.67 9.12232 12.9326 8.79838 12.9326H4.10607C3.78214 12.9326 3.51953 12.67 3.51953 12.3461Z" fill="#888888"/>
<path d="M4.10607 8.82739C3.78214 8.82739 3.51953 9.08999 3.51953 9.41393C3.51953 9.73788 3.78214 10.0005 4.10607 10.0005H11.1445C11.4685 10.0005 11.7311 9.73788 11.7311 9.41393C11.7311 9.08999 11.4685 8.82739 11.1445 8.82739H4.10607Z" fill="#888888"/>
<path fill-rule="evenodd" clip-rule="evenodd" d="M15.25 7.07204V7.0674C15.25 7.05508 15.2496 7.04277 15.2488 7.03051C15.2497 7.04429 15.2501 7.05819 15.25 7.07204L8.87661 0.620762C8.85075 0.617262 8.82453 0.615479 8.79808 0.615479H2.93269C1.31301 0.615479 0 1.92849 0 3.54817V16.452C0 18.0717 1.31301 19.3847 2.93269 19.3847H12.3173C13.937 19.3847 15.25 18.0717 15.25 16.452V7.07204ZM8.21154 4.72125C8.21154 6.34093 9.52456 7.65394 11.1442 7.65394H14.0769V16.452C14.0769 17.4239 13.2891 18.2116 12.3173 18.2116H2.93269C1.96089 18.2116 1.17308 17.4239 1.17308 16.452V3.54817C1.17308 2.57636 1.96089 1.78856 2.93269 1.78856H8.21154V4.72125ZM9.38461 2.61804L13.2474 6.48086H11.1442C10.1724 6.48086 9.38461 5.69305 9.38461 4.72125V2.61804Z" fill="#888888"/>
</svg>
