<svg width="21" height="22" viewBox="0 0 21 22" fill="none" xmlns="http://www.w3.org/2000/svg">
<path d="M12.3142 7.16902C12.8456 7.32166 13.3769 7.60489 13.7976 8.01905C14.2183 8.4332 14.5062 8.93446 14.6611 9.47935C14.7718 9.91523 15.1925 10.1769 15.6574 10.155H15.7459C16.3659 10.1332 16.8309 9.52298 16.6537 8.93446C16.4102 8.08443 15.9451 7.25616 15.2588 6.58053C14.5725 5.90491 13.7533 5.44712 12.8676 5.20737C12.2697 5.03299 11.6498 5.49076 11.6277 6.10103V6.18815C11.6056 6.64593 11.8935 7.06005 12.3142 7.16907L12.3142 7.16902Z" fill="white"/>
<path d="M12.6241 3.74654C13.9527 3.98633 15.2146 4.59668 16.2552 5.59949C17.2738 6.60231 17.9158 7.86647 18.1373 9.17446C18.2258 9.65403 18.6687 10.0028 19.1559 9.98097H19.2444C19.8422 9.95922 20.263 9.41424 20.1743 8.8474C19.8643 7.14711 19.0452 5.51222 17.7166 4.18251C16.366 2.8528 14.7055 2.04629 12.9785 1.76287C12.4028 1.65384 11.8493 2.08978 11.8271 2.67841V2.76554C11.7828 3.22354 12.1148 3.65947 12.6242 3.74659L12.6241 3.74654Z" fill="white"/>
<path d="M20.2407 15.9317L15.9453 13.7522C15.3475 13.447 14.5947 13.5995 14.174 14.1227L13.9968 14.3624C16.2994 16.0407 18.6465 17.2395 20.7941 17.9152C21.2149 17.2178 20.9713 16.3024 20.2406 15.9317L20.2407 15.9317Z" fill="white"/>
<path d="M7.55389 7.58234C8.08532 7.16818 8.26249 6.44893 7.93027 5.83865L5.71616 1.63209C5.33978 0.912836 4.43198 0.673045 3.74561 1.06544C4.40988 3.17962 5.62768 5.48996 7.31032 7.75671L7.55389 7.58234Z" fill="white"/>
<path d="M12.602 16.1061C11.0742 15.2777 9.90078 14.5149 8.55018 13.1852C7.11108 11.7683 6.33607 10.5911 5.56105 9.13062L6.5353 8.36759C4.87472 6.16598 3.63485 3.85529 2.90416 1.63184L0.955703 2.91791C0.313691 3.33212 -0.0406064 4.05148 0.00371532 4.79259C0.048041 5.55562 0.158778 6.5146 0.335768 7.19051C1.13285 10.1988 3.03698 13.3159 5.71605 15.9535C8.3952 18.5912 11.5613 20.4658 14.6168 21.2506C15.3031 21.425 16.2774 21.5121 17.0744 21.5775C17.8495 21.6211 18.5799 21.2723 19.0007 20.6183L20.2405 18.7219C17.9821 18.0025 15.6352 16.7601 13.3768 15.1033L12.602 16.1061Z" fill="white"/>
</svg>
