<svg width="16" height="16" viewBox="0 0 16 16" fill="none" xmlns="http://www.w3.org/2000/svg">
<path fill-rule="evenodd" clip-rule="evenodd" d="M8 0C3.57816 0 0 3.57617 0 8C0 9.66834 0.508772 11.2115 1.4125 12.5375C1.44614 12.5874 1.4681 12.6441 1.47676 12.7037C1.48542 12.7632 1.48054 12.8239 1.4625 12.8813L0.65 15.6L3.3125 14.6813C3.36941 14.6623 3.42986 14.6564 3.48936 14.664C3.54886 14.6715 3.6059 14.6924 3.65625 14.725C4.90336 15.5342 6.39631 16 8 16C12.4239 16 16 12.4239 16 8C16 3.57605 12.4239 0 8 0ZM4.725 3.4875L6.18125 5.89376L5.575 6.49376C5.51328 6.55604 5.47373 6.63687 5.46244 6.72382C5.45114 6.81077 5.46873 6.89902 5.5125 6.975C6.43766 8.57713 7.53384 9.82354 9.06875 10.5C9.1423 10.5327 9.224 10.5424 9.30317 10.5279C9.38234 10.5134 9.45529 10.4754 9.5125 10.4188L10.1562 9.775L12.5063 11.2438C12.246 11.8294 11.9068 12.1781 11.5188 12.3813C11.0693 12.6166 10.5203 12.6612 9.89375 12.5312C8.64073 12.2714 7.12717 11.2866 5.89375 10.025C4.66033 8.76338 3.70583 7.22926 3.4625 5.98124C3.34084 5.35724 3.39458 4.81984 3.625 4.39376C3.8234 4.0269 4.1604 3.71282 4.725 3.4875Z" fill="white"/>
</svg>
