<svg width="19" height="19" viewBox="0 0 19 19" fill="none" xmlns="http://www.w3.org/2000/svg">
<path d="M16.2004 3.11905C15.3712 2.28558 14.3834 1.62475 13.2948 1.1751C12.2061 0.725444 11.0384 0.495968 9.85973 0.500054C4.92103 0.500054 0.895909 4.50504 0.895909 9.41903C0.895909 10.994 1.31199 12.524 2.08988 13.874L0.823547 18.5L5.57229 17.258C6.88385 17.969 8.35822 18.347 9.85973 18.347C14.7984 18.347 18.8235 14.342 18.8235 9.42803C18.8235 7.04303 17.8919 4.80204 16.2004 3.11905ZM9.85973 16.835C8.52103 16.835 7.20948 16.475 6.06073 15.8L5.78938 15.638L2.96727 16.376L3.71802 13.64L3.53712 13.361C2.79337 12.1793 2.39845 10.8133 2.39742 9.41903C2.39742 5.33304 5.74415 2.00305 9.85068 2.00305C11.8406 2.00305 13.713 2.77705 15.115 4.18104C15.8092 4.86861 16.3594 5.68643 16.7336 6.58712C17.1077 7.4878 17.2985 8.45343 17.2949 9.42803C17.313 13.514 13.9663 16.835 9.85973 16.835ZM13.9482 11.291C13.722 11.183 12.6185 10.643 12.4195 10.562C12.2115 10.49 12.0668 10.454 11.913 10.67C11.7592 10.895 11.3341 11.399 11.2075 11.543C11.0808 11.696 10.9452 11.714 10.719 11.597C10.4929 11.489 9.76927 11.246 8.91902 10.49C8.24968 9.89603 7.80646 9.16703 7.67078 8.94203C7.54415 8.71703 7.65269 8.60003 7.77028 8.48303C7.86978 8.38403 7.99641 8.22203 8.10495 8.09603C8.2135 7.97003 8.25872 7.87103 8.33108 7.72703C8.40345 7.57403 8.36727 7.44803 8.31299 7.34003C8.25872 7.23203 7.80646 6.13404 7.62556 5.68404C7.44465 5.25204 7.2547 5.30604 7.11902 5.29704H6.68485C6.53108 5.29704 6.29591 5.35104 6.08787 5.57604C5.88887 5.80104 5.30998 6.34104 5.30998 7.43903C5.30998 8.53703 6.115 9.59903 6.22355 9.74303C6.33209 9.89603 7.80646 12.146 10.0497 13.109C10.5833 13.343 10.9994 13.478 11.3251 13.577C11.8587 13.748 12.3472 13.721 12.7361 13.667C13.1703 13.604 14.0658 13.127 14.2467 12.605C14.4366 12.083 14.4366 11.642 14.3733 11.543C14.31 11.444 14.1743 11.399 13.9482 11.291Z" fill="#3A3A3A"/>
</svg>
