<svg width="26" height="26" viewBox="0 0 26 26" fill="none" xmlns="http://www.w3.org/2000/svg">
<path d="M13.2209 6.3556C15.2966 6.3556 16.6968 7.2343 17.4952 7.96857L20.6149 4.98337C18.6988 3.23799 16.2055 2.16669 13.2209 2.16669C8.89748 2.16669 5.16364 4.59818 3.34584 8.13709L6.92002 10.8575C7.81663 8.24542 10.2977 6.3556 13.2209 6.3556V6.3556Z" fill="#EA4335"/>
<path d="M23.8333 13.2408C23.8333 12.3501 23.7596 11.7001 23.5999 11.026H13.2213V15.0464H19.3134C19.1905 16.0455 18.5273 17.5501 17.0534 18.5612L20.5416 21.2094C22.6296 19.3196 23.8333 16.539 23.8333 13.2408V13.2408Z" fill="#4285F4"/>
<path d="M6.93224 15.1426C6.69888 14.4685 6.56377 13.7462 6.56377 12.9999C6.56377 12.2536 6.69888 11.5314 6.91996 10.8573L3.34578 8.13696C2.59656 9.60549 2.16667 11.2546 2.16667 12.9999C2.16667 14.7453 2.59656 16.3944 3.34578 17.8629L6.93224 15.1426V15.1426Z" fill="#FBBC05"/>
<path d="M13.2205 23.8334C16.2051 23.8334 18.7107 22.8704 20.5408 21.2093L17.0526 18.5611C16.1192 19.1991 14.8663 19.6445 13.2205 19.6445C10.2973 19.6445 7.81625 17.7546 6.93192 15.1426L3.35774 17.863C5.17554 21.4019 8.8971 23.8334 13.2205 23.8334V23.8334Z" fill="#34A853"/>
</svg>
