<svg width="26" height="26" viewBox="0 0 26 26" fill="none" xmlns="http://www.w3.org/2000/svg">
<path d="M2.16666 12.5667C2.16666 7.66406 2.16666 5.21278 3.6897 3.68973C5.21275 2.16669 7.66403 2.16669 12.5667 2.16669H13.4333C18.3359 2.16669 20.7872 2.16669 22.3103 3.68973C23.8333 5.21278 23.8333 7.66406 23.8333 12.5667V13.4334C23.8333 18.336 23.8333 20.7872 22.3103 22.3103C20.7872 23.8334 18.3359 23.8334 13.4333 23.8334H12.5667C7.66403 23.8334 5.21275 23.8334 3.6897 22.3103C2.16666 20.7872 2.16666 18.336 2.16666 13.4334V12.5667Z" fill="#0077FF"/>
<path d="M13.5644 17.0625C9.24617 17.0625 6.78317 14.3514 6.68054 9.84027H8.8436C8.91465 13.1514 10.5093 14.5539 11.7724 14.8431V9.84027H13.8092V12.6959C15.0565 12.573 16.3668 11.2717 16.8089 9.84027H18.8457C18.5062 11.6043 17.0852 12.9056 16.0748 13.4405C17.0852 13.8743 18.7037 15.0093 19.3194 17.0625H17.0774C16.5958 15.6889 15.396 14.6262 13.8092 14.4816V17.0625H13.5644Z" fill="white"/>
</svg>
