<svg width="50" height="50" viewBox="0 0 50 50" fill="none" xmlns="http://www.w3.org/2000/svg">
<path d="M34.8062 27.6939C34.6128 27.5003 34.3833 27.3467 34.1305 27.2418C33.8778 27.137 33.6069 27.0831 33.3332 27.0831C33.0596 27.0831 32.7887 27.137 32.536 27.2418C32.2832 27.3467 32.0536 27.5003 31.8603 27.6939L27.0832 32.471L27.0832 16.6668C27.0832 16.1143 26.8637 15.5844 26.473 15.1937C26.0823 14.803 25.5524 14.5835 24.9999 14.5835C24.4474 14.5835 23.9175 14.803 23.5268 15.1937C23.1361 15.5844 22.9166 16.1143 22.9166 16.6668L22.9166 32.471L18.1395 27.6939C17.7488 27.3033 17.219 27.0838 16.6666 27.0838C16.1141 27.0838 15.5843 27.3033 15.1937 27.6939C14.803 28.0846 14.5836 28.6144 14.5836 29.1668C14.5836 29.7193 14.803 30.2491 15.1937 30.6397L24.9999 40.446L34.8062 30.6397C34.9998 30.4464 35.1534 30.2168 35.2582 29.9641C35.363 29.7114 35.417 29.4404 35.417 29.1668C35.417 28.8932 35.363 28.6223 35.2582 28.3696C35.1534 28.1168 34.9998 27.8872 34.8062 27.6939Z" fill="#FFCE31"/>
</svg>
