<svg width="63" height="103" viewBox="0 0 63 103" fill="none" xmlns="http://www.w3.org/2000/svg">
<path fill-rule="evenodd" clip-rule="evenodd" d="M-0.000973357 17.0035H1.71814C3.23368 17.0024 4.73461 17.2996 6.13512 17.8783C7.53563 18.4569 8.80827 19.3057 9.88033 20.3759C10.9524 21.4462 11.8028 22.7171 12.3831 24.1159C12.9633 25.5147 13.262 27.014 13.2619 28.5281V87.3279H11.5428C10.0266 87.3291 8.52495 87.0315 7.12388 86.4523C5.72281 85.8731 4.44978 85.0236 3.37761 83.9524C2.30545 82.8813 1.45518 81.6094 0.875448 80.2096C0.295717 78.8098 -0.00210364 77.3096 -0.000973357 75.7947V17.0035Z" fill="#AEAEB5"/>
<path fill-rule="evenodd" clip-rule="evenodd" d="M59.3611 54.2397L40.7861 35.6818C39.1044 33.8635 38.1606 31.4848 38.1387 29.0092L38.0785 24.4319V0H36.3594C33.3001 0 30.3661 1.2142 28.2028 3.37549C26.0395 5.53679 24.8242 8.46813 24.8242 11.5247V30.263V32.4185C24.883 34.2835 25.27 36.1235 25.9674 37.8545C26.7161 39.7054 27.8165 41.3939 29.2079 42.8267L44.465 58.5078C46.4478 60.2535 47.9309 62.4939 48.7628 65.0001C49.3101 66.9925 49.6529 69.0355 49.7857 71.0973C49.9404 73.416 49.7857 74.4723 50.0607 74.5324C51.0062 74.7643 54.2897 65.4037 54.2897 65.4037L51.6681 61.9686L59.3611 54.2397Z" fill="#AEAEB5"/>
<path d="M37.1042 67.5673C36.3092 65.7409 35.2139 64.0602 33.8637 62.595C33.0506 61.6282 32.1687 60.7213 31.2249 59.8813L16.7586 45.1448C14.6663 42.3483 13.4491 38.9958 13.2602 35.5095V33.4914V30.0563V28.6393C13.2602 25.5828 12.0449 22.6515 9.8816 20.4902C7.71832 18.3289 4.7843 17.1147 1.72497 17.1147H0.00585938V37.3472V41.2546C0.107122 45.1492 1.66857 48.8639 4.38099 51.6629L19.6209 67.344C19.6982 67.4213 20.0163 67.6875 20.4289 68.0653C21.0804 68.6564 21.6975 69.2843 22.2769 69.946C23.1705 70.9155 23.8758 72.0424 24.357 73.2695C24.7439 74.2741 24.9279 75.3452 24.8985 76.4211L24.9587 80.9898V103H26.6778C29.7372 103 32.6712 101.786 34.8345 99.6245C36.9977 97.4632 38.213 94.5319 38.213 91.4753V75.1588C38.213 74.4374 38.213 73.716 38.213 73.0033C38.1697 71.1398 37.7943 69.299 37.1042 67.5673Z" fill="#AEAEB5"/>
<path fill-rule="evenodd" clip-rule="evenodd" d="M49.7227 17.0035H51.4418C52.9573 17.0024 54.4582 17.2996 55.8587 17.8783C57.2593 18.4569 58.5319 19.3057 59.604 20.3759C60.676 21.4462 61.5265 22.7171 62.1067 24.1159C62.6869 25.5147 62.9856 27.014 62.9856 28.5281V87.3279H61.2665C59.7509 87.3279 58.2502 87.0296 56.8502 86.4499C55.4501 85.8701 54.1781 85.0205 53.1068 83.9494C52.0355 82.8783 51.186 81.6068 50.6069 80.2076C50.0277 78.8084 49.7301 77.3088 49.7313 75.7947V17.0035H49.7227Z" fill="#AEAEB5"/>
</svg>
