<svg width="48" height="48" viewBox="0 0 48 48" fill="none" xmlns="http://www.w3.org/2000/svg">
<path d="M37 39H29" stroke="#0077FF" stroke-width="3" stroke-linecap="round" stroke-linejoin="round"/>
<path d="M33 43V35" stroke="#0077FF" stroke-width="3" stroke-linecap="round" stroke-linejoin="round"/>
<path d="M24.32 21.74C24.12 21.72 23.88 21.72 23.66 21.74C18.9 21.58 15.12 17.68 15.12 12.88C15.1 7.98 19.08 4 23.98 4C28.88 4 32.86 7.98 32.86 12.88C32.86 17.68 29.06 21.58 24.32 21.74Z" stroke="#0077FF" stroke-width="3" stroke-linecap="round" stroke-linejoin="round"/>
<path d="M23.98 43.62C20.34 43.62 16.72 42.7 13.96 40.86C9.12002 37.62 9.12002 32.34 13.96 29.12C19.46 25.44 28.48 25.44 33.98 29.12" stroke="#0077FF" stroke-width="3" stroke-linecap="round" stroke-linejoin="round"/>
</svg>
