<svg width="24" height="24" viewBox="0 0 26 26" fill="none" xmlns="http://www.w3.org/2000/svg">
<path d="M13.1733 11.7758C13.0649 11.765 12.9349 11.765 12.8158 11.7758C10.2374 11.6892 8.18994 9.57666 8.18994 6.97666C8.18994 4.32249 10.3349 2.16666 12.9999 2.16666C15.6541 2.16666 17.8099 4.32249 17.8099 6.97666C17.7991 9.57666 15.7516 11.6892 13.1733 11.7758Z" stroke="#0077FF" stroke-width="2" stroke-linecap="round" stroke-linejoin="round"/>
<path d="M7.75678 15.7733C5.13511 17.5283 5.13511 20.3883 7.75678 22.1325C10.7359 24.1258 15.6218 24.1258 18.6009 22.1325C21.2226 20.3775 21.2226 17.5175 18.6009 15.7733C15.6326 13.7908 10.7468 13.7908 7.75678 15.7733Z" stroke="#0077FF" stroke-width="2" stroke-linecap="round" stroke-linejoin="round"/>
</svg>
