<svg width="34" height="34" viewBox="0 0 34 34" fill="none" xmlns="http://www.w3.org/2000/svg">
<path fill-rule="evenodd" clip-rule="evenodd" d="M15.5479 8.85985C16.3767 9.78068 16.1146 10.8233 15.3808 11.8122C15.1898 12.0645 14.9835 12.3048 14.7631 12.5318C14.6327 12.6682 14.5005 12.8028 14.3664 12.9356L13.2798 14.0236C13.1382 14.1653 14.11 16.1061 15.9956 17.9945C17.8798 19.8801 19.8206 20.8533 19.9637 20.7103L21.0503 19.6237C21.6481 19.0258 21.964 18.7368 22.3989 18.4521C23.3028 17.8571 24.2902 17.697 25.1218 18.4408C27.8375 20.3844 29.3746 21.5758 30.1283 22.3578C31.5974 23.885 31.4033 26.2338 30.1368 27.574C29.6976 28.0387 29.1394 28.5968 28.4807 29.2315C24.4984 33.2166 16.0919 30.7913 9.64893 24.344C3.20593 17.8925 0.780599 9.4846 4.75718 5.50801C5.46977 4.78268 5.70635 4.54751 6.40052 3.86326C7.69393 2.58826 10.1518 2.38851 11.6464 3.86326C12.4313 4.64101 13.685 6.25176 15.5479 8.85843V8.85985ZM23.052 21.6268L21.9668 22.7134C20.1209 24.5593 16.9788 22.9854 13.9924 19.9977C11.0047 17.0071 9.43218 13.8649 11.2781 12.019L12.3633 10.9338C12.5375 10.7596 12.6183 10.6788 12.7118 10.5797C12.8421 10.4423 12.9483 10.3218 13.0348 10.2156C11.3829 7.91635 10.2609 6.47985 9.65602 5.8806C9.34435 5.57318 8.64452 5.62985 8.38668 5.88343C7.70243 6.55776 7.47718 6.78301 6.76602 7.50551C4.21035 10.0626 6.16677 16.8484 11.6535 22.3394C17.136 27.829 23.9219 29.7868 26.4974 27.2099C27.1448 26.5852 27.6732 26.0553 28.0798 25.6261C28.3744 25.3144 28.4268 24.6755 28.0883 24.3228C27.5259 23.7391 26.1474 22.6653 23.7674 20.9553C23.5178 21.167 23.279 21.3911 23.052 21.6268Z" fill="white"/>
</svg>
