<svg width="34" height="34" viewBox="0 0 34 34" fill="none" xmlns="http://www.w3.org/2000/svg">
<g clip-path="url(#clip0_7_92)">
<path fill-rule="evenodd" clip-rule="evenodd" d="M24.7891 20.391C24.3661 20.1793 22.2865 19.1561 21.8987 19.0148C21.511 18.8736 21.2291 18.8031 20.9471 19.2265C20.6651 19.6499 19.8544 20.6028 19.6076 20.885C19.3609 21.1673 19.1142 21.2028 18.6912 20.9909C18.2682 20.7793 16.9052 20.3326 15.2896 18.8914C14.0322 17.7698 13.1832 16.3846 12.9365 15.9612C12.6897 15.5377 12.9101 15.3088 13.1219 15.0979C13.3123 14.9084 13.5449 14.6038 13.7564 14.3568C13.968 14.1099 14.0384 13.9333 14.1794 13.6511C14.3204 13.3688 14.2499 13.1218 14.1441 12.9101C14.0384 12.6984 13.1925 10.6163 12.84 9.76924C12.4966 8.94454 12.1479 9.05623 11.8882 9.04315C11.6418 9.03093 11.3595 9.02834 11.0776 9.02834C10.7956 9.02834 10.3373 9.13419 9.94952 9.55753C9.56184 9.98101 8.46912 11.0045 8.46912 13.0864C8.46912 15.1685 9.98478 17.1798 10.1963 17.4621C10.4078 17.7445 13.179 22.0169 17.4223 23.8492C18.4315 24.285 19.2194 24.5453 19.8337 24.7402C20.847 25.0622 21.7691 25.0168 22.498 24.9078C23.3107 24.7865 25.0006 23.8846 25.3531 22.8966C25.7055 21.9084 25.7055 21.0615 25.5998 20.885C25.4941 20.7086 25.2121 20.6028 24.7891 20.391ZM17.0711 30.9292H17.0654C14.5405 30.9282 12.0642 30.2499 9.90383 28.9679L9.38998 28.6629L4.06459 30.0599L5.48602 24.8676L5.15153 24.3352C3.74299 22.095 2.99904 19.5058 3.00017 16.8471C3.00329 9.08917 9.3154 2.77759 17.0767 2.77759C20.835 2.77885 24.3678 4.24437 27.0244 6.90401C29.681 9.56358 31.1431 13.0988 31.1417 16.8584C31.1385 24.6169 24.8264 30.9292 17.0711 30.9292ZM29.0463 4.88307C25.8501 1.68321 21.5996 -0.0798057 17.0709 -0.081665C7.73991 -0.081665 0.145629 7.51215 0.141844 16.846C0.140648 19.8298 0.920125 22.742 2.40165 25.3094L0 34.0818L8.97421 31.7277C11.4469 33.0764 14.2309 33.7873 17.0642 33.7882H17.0712C26.4012 33.7882 33.9961 26.1936 34 16.8596C34.0017 12.3362 32.2424 8.08292 29.0463 4.88307Z" fill="white"/>
</g>
<defs>
<clipPath id="clip0_7_92">
<rect width="34" height="34" fill="white"/>
</clipPath>
</defs>
</svg>
