<svg width="20" height="20" viewBox="0 0 20 20" fill="none" xmlns="http://www.w3.org/2000/svg">
<path d="M17.5 4.98335C14.725 4.70835 11.9333 4.56668 9.15 4.56668C7.5 4.56668 5.85 4.65001 4.2 4.81668L2.5 4.98335" stroke="#FF5A5F" stroke-width="1.5" stroke-linecap="round" stroke-linejoin="round"/>
<path d="M7.08301 4.14166L7.26634 3.04999C7.39967 2.25832 7.49967 1.66666 8.90801 1.66666H11.0913C12.4997 1.66666 12.608 2.29166 12.733 3.05832L12.9163 4.14166" stroke="#FF5A5F" stroke-width="1.5" stroke-linecap="round" stroke-linejoin="round"/>
<path d="M15.7087 7.61667L15.167 16.0083C15.0753 17.3167 15.0003 18.3333 12.6753 18.3333H7.32533C5.00033 18.3333 4.92533 17.3167 4.83366 16.0083L4.29199 7.61667" stroke="#FF5A5F" stroke-width="1.5" stroke-linecap="round" stroke-linejoin="round"/>
<path d="M8.6084 13.75H11.3834" stroke="#FF5A5F" stroke-width="1.5" stroke-linecap="round" stroke-linejoin="round"/>
<path d="M7.91699 10.4167H12.0837" stroke="#FF5A5F" stroke-width="1.5" stroke-linecap="round" stroke-linejoin="round"/>
</svg>
