<svg version="1.0" xmlns="http://www.w3.org/2000/svg"
 width="500.000000pt" height="500.000000pt" viewBox="0 0 500.000000 500.000000"
 preserveAspectRatio="xMidYMid meet">
<g transform="translate(0.000000,500.000000) scale(0.100000,-0.100000)"
fill="#000000" stroke="none">
    <defs>
        <linearGradient id="gradient" x1="0%" y1="100%" x2="0%" y2="0%">
            <stop offset="0%" stop-color="grey" stop-opacity="1" >
                <animate attributeName="stop-color" values="grey; black" dur="2s" repeatCount="1" />
            </stop>
            <stop offset="100%" stop-color="black" stop-opacity="1" >
                <animate attributeName="stop-color" values="black; black" dur="2s" repeatCount="1" />
            </stop>
        </linearGradient>
    </defs>
<path d="M3715 3985 c-131 -29 -235 -78 -351 -166 l-65 -49 -62 34 c-187 103
-472 153 -737 127 -287 -28 -480 -109 -641 -270 -141 -142 -202 -288 -201
-481 1 -332 261 -569 571 -521 81 13 141 34 141 51 0 18 -29 23 -56 11 -80
-36 -228 -32 -340 10 -112 42 -223 177 -259 314 -19 76 -19 214 0 290 57 222
245 411 494 495 222 74 540 85 775 26 97 -25 276 -102 276 -119 0 -5 -34 -45
-75 -89 -156 -166 -330 -421 -472 -694 l-75 -144 33 -85 c17 -47 35 -88 39
-90 5 -3 27 39 50 93 279 641 352 778 498 936 52 56 51 56 153 -52 127 -135
176 -269 165 -450 -7 -122 -28 -198 -83 -310 -100 -204 -266 -301 -466 -273
-84 12 -129 34 -172 83 -32 38 -55 43 -55 12 0 -26 70 -91 123 -115 43 -19 70
-23 152 -23 291 -1 514 160 580 419 56 218 -37 504 -227 699 -48 50 -85 93
-82 98 12 19 138 101 205 132 195 93 420 100 558 19 62 -36 124 -95 161 -154
18 -27 36 -49 41 -49 23 0 18 34 -11 80 -62 96 -172 176 -285 206 -63 17 -221
17 -300 -1z"/>
<path d="M2262 3613 c-9 -15 -189 -473 -292 -740 -17 -46 -29 -87 -25 -93 13
-21 31 -8 46 33 49 135 193 503 200 510 4 5 44 -85 89 -200 155 -391 370 -949
370 -958 0 -3 -30 -5 -68 -5 -56 0 -69 -3 -79 -20 -12 -19 -9 -19 78 -22 l92
-3 109 -280 c147 -379 171 -449 172 -516 2 -93 -32 -129 -136 -144 -31 -5 -48
-12 -48 -21 0 -12 58 -14 350 -14 286 0 350 2 350 13 0 8 -22 19 -54 26 -106
24 -194 109 -273 264 -48 95 -147 346 -386 972 -114 297 -264 690 -334 874
-71 184 -133 336 -140 338 -6 2 -16 -4 -21 -14z"/>
<path d="M1806 2452 c-379 -971 -424 -1074 -503 -1163 -59 -65 -113 -95 -195
-109 -46 -8 -68 -17 -68 -26 0 -12 54 -14 348 -12 347 3 405 10 295 34 -87 19
-125 44 -158 105 -26 48 -30 64 -30 139 0 110 14 156 132 453 l97 247 291 2
c267 3 290 4 293 21 3 16 -16 17 -282 17 -157 0 -286 3 -286 7 0 4 43 117 96
250 52 133 93 247 89 253 -17 28 -37 -8 -119 -218z"/>
<path d="M1450 2649 c-253 -39 -449 -201 -531 -439 -34 -99 -39 -289 -10 -395
49 -177 154 -310 304 -386 82 -40 129 -47 135 -19 1 10 -16 21 -57 33 -213 67
-361 290 -361 547 0 295 183 534 465 605 112 28 307 19 366 -18 25 -16 48 5
30 27 -34 41 -211 65 -341 45z"/>
<path d="M2411 2293 c-196 -445 -332 -646 -525 -772 -92 -60 -201 -101 -289
-108 -71 -6 -81 -11 -71 -37 7 -18 56 -14 159 10 271 65 557 351 820 821 l57
102 -26 73 c-15 41 -31 79 -35 86 -5 9 -37 -54 -90 -175z"/>
</g>
</svg>
