<!-- icon666.com - MILLIONS vector ICONS FREE --><svg enable-background="new 0 0 32 32" viewBox="0 0 32 32" xmlns="http://www.w3.org/2000/svg"><g id="Location"><path d="m16 1.905c-6.244 0-11.323 5.08-11.323 11.323 0 8.068 10.265 16.304 10.702 16.65.182.145.401.217.621.217.212 0 .423-.067.602-.201.438-.329 10.722-8.165 10.722-16.666-.001-6.243-5.08-11.323-11.324-11.323z" fill="#f77289"></path><path d="m16.002 5.396c-4.24 0-7.689 3.449-7.689 7.688s3.449 7.688 7.689 7.688c4.238 0 7.686-3.449 7.686-7.688s-3.448-7.688-7.686-7.688z" fill="#f9c7d0"></path><path d="m16.314 17.948c.24-.14 5.948-3.335 4.485-7.268-.023-.052-.661-1.284-2.004-1.563-.879-.184-1.812.085-2.787.792-.977-.707-1.914-.973-2.792-.792-1.339.279-1.979 1.511-2.03 1.624-1.433 3.872 4.271 7.076 4.516 7.207 0 0 .348.154.612 0z" fill="#f77289"></path><path d="m12.771 10.964c-1.007 2.422 1.31 5.427 2.415 6.673-1.425-.91-5.19-3.669-3.998-6.896.049-.113.689-1.343 2.029-1.624.791-.167 1.632.033 2.51.599-2.544-.289-2.956 1.248-2.956 1.248z" fill="#fff" opacity=".2"></path><path d="m16.837 17.639c1.925-1.71 4.737-4.746 3.198-7.894.502.423.75.902.765.935 1.223 3.284-2.54 6.047-3.963 6.959z" fill="#dd5773" opacity=".25"></path><path d="m26.43 8.82c-3.62-5.06-8.609-5.26-8.609-5.26-10.491-.39-11.561 8.38-11.561 8.38-.33 3.71.63 7.32 1.88 10.29-1.92-2.71-3.46-5.87-3.46-9 0-6.25 5.08-11.32 11.32-11.32 4.68 0 8.71 2.85 10.43 6.91z" fill="#fff" opacity=".2"></path><path d="m27.32 13.23c0 8.5-10.28 16.33-10.721 16.66-.18.14-.39.2-.6.2-.22 0-.44-.07-.62-.21-.07-.06-.42-.33-.939-.79 2.26-1.59 11.78-8.66 12.87-16.49 0 .21.01.42.01.63z" fill="#dd5773" opacity=".25"></path><path d="m23.69 13.08c0 4.24-3.45 7.69-7.69 7.69-.73 0-1.43-.1-2.1-.29 2.149-.16 9.75-1.33 9.319-10.04.311.82.471 1.71.471 2.64z" fill="#dd5773" opacity=".15"></path><path d="m18.3 5.76c-1.74.09-9.87.97-9.569 9.82-.271-.78-.421-1.62-.421-2.5 0-4.24 3.45-7.68 7.69-7.68.8 0 1.58.12 2.3.36z" fill="#fff" opacity=".2"></path></g></svg>