<svg width="72" height="72" viewBox="0 0 72 72" fill="none" xmlns="http://www.w3.org/2000/svg">
<circle cx="36" cy="36" r="35.5" stroke="#1C1C1C"/>
<path d="M47.6778 19.2123H47.0269C47.6113 18.5871 48.0003 17.8048 48.146 16.9615C48.2918 16.1182 48.1878 15.2507 47.8471 14.4656C47.5063 13.6806 46.9436 13.0123 46.228 12.5428C45.5124 12.0733 44.6753 11.8232 43.8195 11.8232C42.9637 11.8232 42.1265 12.0733 41.411 12.5428C40.6954 13.0123 40.1327 13.6806 39.7919 14.4656C39.4511 15.2507 39.3472 16.1182 39.4929 16.9615C39.6387 17.8048 40.0276 18.5871 40.6121 19.2123H39.9612C39.3972 19.2163 38.8405 19.3399 38.3278 19.5748C37.7558 19.3067 37.1321 19.1664 36.5004 19.1638C35.6456 19.1608 34.8086 19.4082 34.0929 19.8755C33.3771 20.3428 32.8138 21.0095 32.4727 21.7932C32.1316 22.577 32.0274 23.4435 32.1732 24.2858C32.319 25.1281 32.7082 25.9092 33.2929 26.5328H32.642C32.0758 26.5343 31.5163 26.656 31.0006 26.8899C30.0792 26.4626 29.0377 26.3693 28.055 26.6261C27.0724 26.8829 26.2097 27.4737 25.6151 28.2972C25.0205 29.1206 24.7312 30.1254 24.7966 31.139C24.8621 32.1525 25.2783 33.1117 25.9738 33.8519H25.3216C24.2297 33.8533 23.183 34.2877 22.411 35.0597C21.6389 35.8318 21.2046 36.8785 21.2031 37.9703V45.0037C21.2046 46.0176 21.5648 46.9982 22.2199 47.772C22.875 48.5457 23.7828 49.0627 24.7825 49.2313V58.4493C24.7905 58.6314 24.8684 58.8035 25.0001 58.9295C25.1318 59.0556 25.307 59.126 25.4893 59.126C25.6716 59.126 25.8469 59.0556 25.9786 58.9295C26.1103 58.8035 26.1882 58.6314 26.1962 58.4493V48.5818C26.1961 48.5795 26.1961 48.5773 26.1962 48.575V37.9569C26.2004 37.8614 26.1852 37.7662 26.1515 37.6768C26.1179 37.5874 26.0665 37.5057 26.0004 37.4367C25.9344 37.3677 25.8551 37.3128 25.7672 37.2753C25.6794 37.2378 25.5849 37.2185 25.4893 37.2185C25.3938 37.2185 25.2993 37.2378 25.2115 37.2753C25.1236 37.3128 25.0443 37.3677 24.9783 37.4367C24.9122 37.5057 24.8608 37.5874 24.8272 37.6768C24.7935 37.7662 24.7783 37.8614 24.7825 37.9569V47.7772C24.1653 47.6205 23.6178 47.2629 23.2262 46.7608C22.8346 46.2587 22.6212 45.6405 22.6195 45.0037V37.9703C22.6202 37.2532 22.9054 36.5657 23.4125 36.0586C23.9196 35.5515 24.6071 35.2663 25.3243 35.2656H33.0423C33.7594 35.2663 34.447 35.5515 34.954 36.0586C35.4611 36.5657 35.7463 37.2532 35.747 37.9703V45.0037C35.7447 45.6415 35.53 46.2604 35.1369 46.7626C34.7437 47.2648 34.1945 47.6218 33.576 47.7772V37.9569C33.576 37.7696 33.5016 37.5899 33.3691 37.4575C33.2367 37.3251 33.0571 37.2507 32.8698 37.2507C32.6825 37.2507 32.5029 37.3251 32.3704 37.4575C32.238 37.5899 32.1636 37.7696 32.1636 37.9569V48.5818C32.1635 48.584 32.1635 48.5863 32.1636 48.5885V58.4493C32.1636 58.6366 32.238 58.8162 32.3704 58.9487C32.5029 59.0811 32.6825 59.1555 32.8698 59.1555C33.0571 59.1555 33.2367 59.0811 33.3691 58.9487C33.5016 58.8162 33.576 58.6366 33.576 58.4493V49.2313C34.409 49.0867 35.1805 48.6984 35.7929 48.1155V51.1329C35.7929 51.3202 35.8673 51.4998 35.9997 51.6322C36.1321 51.7647 36.3117 51.8391 36.499 51.8391C36.6863 51.8391 36.8659 51.7647 36.9984 51.6322C37.1308 51.4998 37.2052 51.3202 37.2052 51.1329V41.2627C37.2039 41.1781 37.187 41.0945 37.1553 41.016V37.9703C37.1543 36.8786 36.7202 35.8319 35.9484 35.0598C35.1765 34.2877 34.13 33.8533 33.0382 33.8519H32.3873C33.1375 33.0584 33.56 32.0107 33.5703 30.9188C33.5805 29.8269 33.1777 28.7714 32.4426 27.964C32.5086 27.964 32.5773 27.9465 32.6407 27.9465H40.3574C41.0743 27.9468 41.7617 28.2315 42.269 28.738C42.7763 29.2446 43.062 29.9316 43.0635 30.6485V37.6833C43.0619 38.3208 42.848 38.9397 42.4556 39.4422C42.0632 39.9446 41.5146 40.3021 40.8964 40.4581V30.6364C40.8964 30.4491 40.822 30.2695 40.6896 30.137C40.5572 30.0046 40.3775 29.9302 40.1903 29.9302C40.003 29.9302 39.8234 30.0046 39.6909 30.137C39.5585 30.2695 39.4841 30.4491 39.4841 30.6364V51.1329C39.4841 51.3202 39.5585 51.4998 39.6909 51.6322C39.8234 51.7647 40.003 51.8391 40.1903 51.8391C40.3775 51.8391 40.5572 51.7647 40.6896 51.6322C40.822 51.4998 40.8964 51.3202 40.8964 51.1329V41.9109C41.7292 41.7676 42.5005 41.3796 43.112 40.7964V43.8097C43.1078 43.9051 43.123 44.0004 43.1566 44.0898C43.1903 44.1792 43.2417 44.2609 43.3077 44.3299C43.3738 44.3988 43.4531 44.4538 43.5409 44.4913C43.6288 44.5288 43.7233 44.5481 43.8188 44.5481C43.9143 44.5481 44.0089 44.5288 44.0967 44.4913C44.1845 44.4538 44.2639 44.3988 44.3299 44.3299C44.396 44.2609 44.4474 44.1792 44.481 44.0898C44.5146 44.0004 44.5298 43.9051 44.5257 43.8097V33.9435C44.5238 33.859 44.5069 33.7755 44.4758 33.6969V30.6485C44.4744 29.5567 44.04 28.51 43.268 27.7379C42.4959 26.9659 41.4492 26.5315 40.3574 26.5301H39.7078C40.4578 25.7368 40.8803 24.6895 40.8908 23.5979C40.9013 22.5063 40.499 21.451 39.7644 20.6435C39.8304 20.6435 39.8992 20.6233 39.9612 20.6233H47.6778C48.3951 20.6247 49.0825 20.9106 49.5893 21.4181C50.0961 21.9257 50.3809 22.6135 50.3812 23.3307V30.3642C50.3797 31.0017 50.1658 31.6206 49.7734 32.123C49.381 32.6255 48.8324 32.983 48.2142 33.139V23.3173C48.2184 23.2218 48.2032 23.1266 48.1695 23.0372C48.1359 22.9478 48.0845 22.8661 48.0184 22.7971C47.9524 22.7281 47.8731 22.6732 47.7852 22.6357C47.6974 22.5982 47.6029 22.5789 47.5074 22.5789C47.4118 22.5789 47.3173 22.5982 47.2295 22.6357C47.1416 22.6732 47.0623 22.7281 46.9963 22.7971C46.9302 22.8661 46.8788 22.9478 46.8452 23.0372C46.8115 23.1266 46.7963 23.2218 46.8005 23.3173V43.8097C46.7963 43.9051 46.8115 44.0004 46.8452 44.0898C46.8788 44.1792 46.9302 44.2609 46.9963 44.3299C47.0623 44.3988 47.1416 44.4538 47.2295 44.4913C47.3173 44.5288 47.4118 44.5481 47.5074 44.5481C47.6029 44.5481 47.6974 44.5288 47.7852 44.4913C47.8731 44.4538 47.9524 44.3988 48.0184 44.3299C48.0845 44.2609 48.1359 44.1792 48.1695 44.0898C48.2032 44.0004 48.2184 43.9051 48.2142 43.8097V34.5918C49.2139 34.4231 50.1217 33.9061 50.7768 33.1324C51.4319 32.3586 51.7921 31.378 51.7936 30.3642V23.3307C51.7922 22.2394 51.3582 21.1931 50.5867 20.4211C49.8152 19.6491 48.7692 19.2144 47.6778 19.2123ZM29.1813 27.8966C29.3114 27.9007 29.4411 27.9137 29.5694 27.9357C30.2535 28.0224 30.886 28.3449 31.358 28.8477C31.83 29.3505 32.112 30.0021 32.1554 30.6904C32.1988 31.3786 32.001 32.0605 31.5959 32.6186C31.1908 33.1767 30.6038 33.5761 29.9359 33.7481C29.6902 33.8174 29.4365 33.8541 29.1813 33.8573C28.9593 33.8561 28.7383 33.8299 28.5222 33.7791C27.8089 33.6168 27.1803 33.1975 26.7565 32.6011C26.3328 32.0047 26.1436 31.2731 26.2252 30.546C26.3067 29.819 26.6532 29.1475 27.1985 28.6597C27.7438 28.172 28.4497 27.9022 29.1813 27.902V27.8966ZM33.5221 23.5545C33.5221 22.9654 33.6967 22.3896 34.024 21.8998C34.3513 21.41 34.8164 21.0283 35.3606 20.8028C35.9048 20.5774 36.5037 20.5184 37.0814 20.6334C37.6592 20.7483 38.1898 21.0319 38.6064 21.4485C39.0229 21.865 39.3065 22.3957 39.4215 22.9734C39.5364 23.5511 39.4774 24.15 39.252 24.6942C39.0266 25.2384 38.6448 25.7036 38.155 26.0308C37.6653 26.3581 37.0894 26.5328 36.5004 26.5328C35.7107 26.5321 34.9536 26.218 34.3952 25.6597C33.8368 25.1013 33.5228 24.3441 33.5221 23.5545ZM40.8412 16.2353C40.8409 15.6462 41.0154 15.0703 41.3425 14.5803C41.6696 14.0903 42.1346 13.7084 42.6788 13.4828C43.223 13.2571 43.8219 13.198 44.3997 13.3127C44.9775 13.4275 45.5083 13.711 45.925 14.1275C46.3417 14.544 46.6255 15.0747 46.7405 15.6524C46.8555 16.2302 46.7966 16.8291 46.5712 17.3734C46.3458 17.9177 45.9641 18.3829 45.4743 18.7103C44.9845 19.0376 44.4086 19.2123 43.8195 19.2123C43.0302 19.2112 42.2734 18.8973 41.7152 18.3393C41.1569 17.7812 40.8426 17.0247 40.8412 16.2353Z" fill="#1C1C1C"/>
<path d="M29.1812 47.876C28.9937 47.876 28.814 47.9503 28.6813 48.0827C28.5487 48.2151 28.474 48.3947 28.4736 48.5822V58.4497C28.4816 58.6318 28.5595 58.8038 28.6912 58.9299C28.8229 59.056 28.9982 59.1263 29.1805 59.1263C29.3628 59.1263 29.538 59.056 29.6697 58.9299C29.8014 58.8038 29.8794 58.6318 29.8873 58.4497V48.5822C29.8873 48.3949 29.8129 48.2152 29.6805 48.0828C29.5481 47.9504 29.3684 47.876 29.1812 47.876Z" fill="#1C1C1C"/>
</svg>
