<svg width="72" height="72" viewBox="0 0 72 72" fill="none" xmlns="http://www.w3.org/2000/svg">
<circle cx="36" cy="36" r="35.5" stroke="white"/>
<path d="M31.6592 41.4922C32.0216 41.4922 32.3154 41.1984 32.3154 40.8359C32.3154 40.4735 32.0216 40.1797 31.6592 40.1797C31.2967 40.1797 31.0029 40.4735 31.0029 40.8359C31.0029 41.1984 31.2967 41.4922 31.6592 41.4922Z" fill="white"/>
<path d="M23.2188 46.5C22.5698 46.5 21.9354 46.6924 21.3958 47.053C20.8562 47.4135 20.4356 47.926 20.1873 48.5256C19.9389 49.1251 19.8739 49.7849 20.0005 50.4214C20.1272 51.0579 20.4397 51.6426 20.8986 52.1014C21.3574 52.5603 21.9421 52.8728 22.5786 52.9995C23.2151 53.1261 23.8749 53.0611 24.4744 52.8127C25.074 52.5644 25.5865 52.1438 25.947 51.6042C26.3076 51.0646 26.5 50.4302 26.5 49.7812C26.499 48.9113 26.1529 48.0773 25.5378 47.4622C24.9227 46.8471 24.0887 46.501 23.2188 46.5V46.5ZM23.2188 51.75C22.8294 51.75 22.4487 51.6345 22.125 51.4182C21.8012 51.2019 21.5489 50.8944 21.3999 50.5347C21.2509 50.1749 21.2119 49.7791 21.2878 49.3972C21.3638 49.0153 21.5513 48.6645 21.8266 48.3891C22.102 48.1138 22.4528 47.9263 22.8347 47.8503C23.2166 47.7744 23.6124 47.8134 23.9722 47.9624C24.3319 48.1114 24.6394 48.3637 24.8557 48.6875C25.072 49.0112 25.1875 49.3919 25.1875 49.7812C25.1875 50.3034 24.9801 50.8042 24.6109 51.1734C24.2417 51.5426 23.7409 51.75 23.2188 51.75V51.75ZM38.9688 26.1563C39.4879 26.1563 39.9954 26.0023 40.4271 25.7139C40.8588 25.4254 41.1953 25.0155 41.3939 24.5358C41.5926 24.0561 41.6446 23.5283 41.5433 23.0191C41.442 22.5099 41.192 22.0422 40.8249 21.6751C40.4578 21.308 39.9901 21.058 39.4809 20.9567C38.9717 20.8554 38.4439 20.9074 37.9642 21.1061C37.4846 21.3047 37.0746 21.6412 36.7861 22.0729C36.4977 22.5046 36.3438 23.0121 36.3438 23.5313C36.3438 24.2274 36.6203 24.8951 37.1126 25.3874C37.6049 25.8797 38.2726 26.1563 38.9688 26.1563ZM38.9688 22.2188C39.2283 22.2188 39.4821 22.2957 39.6979 22.4399C39.9138 22.5842 40.082 22.7892 40.1813 23.029C40.2807 23.2688 40.3067 23.5327 40.256 23.7873C40.2054 24.0419 40.0804 24.2758 39.8968 24.4593C39.7133 24.6429 39.4794 24.7679 39.2248 24.8185C38.9702 24.8692 38.7063 24.8432 38.4665 24.7438C38.2267 24.6445 38.0217 24.4763 37.8774 24.2604C37.7332 24.0446 37.6563 23.7908 37.6563 23.5313C37.6563 23.1832 37.7945 22.8493 38.0407 22.6032C38.2868 22.357 38.6207 22.2188 38.9688 22.2188V22.2188ZM46.8438 28.7813C46.3246 28.7813 45.8171 28.9352 45.3854 29.2236C44.9537 29.5121 44.6172 29.9221 44.4186 30.4017C44.2199 30.8814 44.1679 31.4092 44.2692 31.9184C44.3705 32.4276 44.6205 32.8953 44.9876 33.2624C45.3547 33.6295 45.8224 33.8795 46.3316 33.9808C46.8408 34.0821 47.3686 34.0301 47.8483 33.8314C48.328 33.6328 48.7379 33.2963 49.0264 32.8646C49.3148 32.4329 49.4688 31.9254 49.4688 31.4063C49.4688 30.7101 49.1922 30.0424 48.6999 29.5501C48.2076 29.0578 47.5399 28.7813 46.8438 28.7813ZM46.8438 32.7188C46.5842 32.7188 46.3304 32.6418 46.1146 32.4976C45.8987 32.3533 45.7305 32.1484 45.6312 31.9085C45.5318 31.6687 45.5058 31.4048 45.5565 31.1502C45.6071 30.8956 45.7321 30.6617 45.9157 30.4782C46.0992 30.2946 46.3331 30.1696 46.5877 30.119C46.8423 30.0683 47.1062 30.0943 47.346 30.1937C47.5859 30.293 47.7908 30.4612 47.9351 30.6771C48.0793 30.8929 48.1563 31.1467 48.1563 31.4063C48.1563 31.7543 48.018 32.0882 47.7718 32.3343C47.5257 32.5805 47.1918 32.7188 46.8438 32.7188ZM31.75 28.125C31.576 28.125 31.409 28.1941 31.286 28.3172C31.1629 28.4403 31.0938 28.6072 31.0938 28.7813V32.0625C31.0938 32.2365 31.1629 32.4035 31.286 32.5265C31.409 32.6496 31.576 32.7188 31.75 32.7188C31.924 32.7188 32.091 32.6496 32.214 32.5265C32.3371 32.4035 32.4063 32.2365 32.4063 32.0625V28.7813C32.4063 28.6072 32.3371 28.4403 32.214 28.3172C32.091 28.1941 31.924 28.125 31.75 28.125ZM31.75 21.5625C31.576 21.5625 31.409 21.6316 31.286 21.7547C31.1629 21.8778 31.0938 22.0447 31.0938 22.2188V25.5C31.0938 25.674 31.1629 25.841 31.286 25.964C31.409 26.0871 31.576 26.1563 31.75 26.1563C31.924 26.1563 32.091 26.0871 32.214 25.964C32.3371 25.841 32.4063 25.674 32.4063 25.5V22.2188C32.4063 22.0447 32.3371 21.8778 32.214 21.7547C32.091 21.6316 31.924 21.5625 31.75 21.5625Z" fill="white"/>
<path d="M56.0315 22.875C56.2056 22.875 56.3725 22.8059 56.4955 22.6828C56.6186 22.5597 56.6878 22.3928 56.6878 22.2188V18.2812C56.6878 17.7591 56.4803 17.2583 56.1111 16.8891C55.7419 16.5199 55.2412 16.3125 54.719 16.3125H19.2815C18.7594 16.3125 18.2586 16.5199 17.8894 16.8891C17.5202 17.2583 17.3128 17.7591 17.3128 18.2812V22.2188C17.3128 22.3928 17.3819 22.5597 17.505 22.6828C17.628 22.8059 17.795 22.875 17.969 22.875C18.7707 22.8804 19.5547 23.1108 20.2317 23.5401C20.9087 23.9694 21.4515 24.5803 21.7982 25.3031C21.2567 26.0445 20.8698 26.8872 20.6606 27.7811C20.4513 28.675 20.424 29.6018 20.5802 30.5065C19.8347 31.0896 18.9155 31.4063 17.969 31.4062C17.795 31.4062 17.628 31.4754 17.505 31.5985C17.3819 31.7215 17.3128 31.8885 17.3128 32.0625V35.3438C17.3128 36.0399 17.5893 36.7076 18.0816 37.1999C18.5739 37.6922 19.2416 37.9688 19.9378 37.9688H25.0158L27.0909 40.9337L24.8662 44.1126C23.7413 43.7848 22.5444 43.799 21.4276 44.1533C20.3108 44.5077 19.3247 45.1862 18.5946 46.1025C17.8645 47.0188 17.4234 48.1316 17.3275 49.2994C17.2315 50.4671 17.485 51.6369 18.0558 52.6601C18.6266 53.6834 19.4887 54.5137 20.5327 55.0456C21.5767 55.5775 22.7552 55.7868 23.9185 55.647C25.0818 55.5073 26.1772 55.0246 27.0655 54.2606C27.9537 53.4965 28.5946 52.4856 28.9067 51.3563L31.6492 47.4411L34.7736 51.9036C35.1603 52.9077 35.8139 53.7872 36.6639 54.4469C37.5139 55.1067 38.528 55.5217 39.5967 55.6472C40.6654 55.7727 41.748 55.6038 42.7277 55.1589C43.7074 54.7139 44.547 54.0098 45.1557 53.1225C45.7644 52.2352 46.1192 51.1985 46.1817 50.1243C46.2441 49.0501 46.012 47.9792 45.5103 47.0273C45.0085 46.0754 44.2563 45.2787 43.3348 44.7231C42.4133 44.1676 41.3575 43.8743 40.2815 43.875C39.664 43.8738 39.0502 43.9706 38.463 44.1618L36.2042 40.9343L38.2813 37.9688H54.0628C54.759 37.9688 55.4266 37.6922 55.9189 37.1999C56.4112 36.7076 56.6878 36.0399 56.6878 35.3438V32.0625C56.6878 31.8885 56.6186 31.7215 56.4955 31.5985C56.3725 31.4754 56.2056 31.4062 56.0315 31.4062C54.9002 31.4062 53.8152 30.9568 53.0153 30.1569C52.2153 29.3569 51.7659 28.2719 51.7659 27.1406C51.7659 26.0093 52.2153 24.9243 53.0153 24.1244C53.8152 23.3244 54.9002 22.875 56.0315 22.875V22.875ZM19.9378 36.6562C19.5897 36.6562 19.2558 36.518 19.0097 36.2718C18.7635 36.0257 18.6253 35.6918 18.6253 35.3438V32.68C19.4555 32.5787 20.2521 32.2911 20.9556 31.8387C21.1496 32.3348 21.4011 32.8063 21.705 33.2437L24.0964 36.6562H19.9378ZM27.7649 50.6961C27.7192 50.7613 27.6856 50.8342 27.6658 50.9113C27.4369 51.8166 26.9377 52.6308 26.2348 53.2454C25.5318 53.86 24.6583 54.246 23.7305 54.3519C22.8028 54.4579 21.8648 54.2788 21.0413 53.8385C20.2178 53.3982 19.548 52.7175 19.1209 51.8871C18.6938 51.0567 18.5298 50.116 18.6505 49.19C18.7713 48.2641 19.1712 47.3969 19.797 46.7038C20.4228 46.0108 21.2448 45.5247 22.1536 45.3103C23.0625 45.096 24.015 45.1634 24.8846 45.5038C25.0216 45.5573 25.1726 45.5632 25.3134 45.5206C25.4542 45.478 25.5766 45.3894 25.6609 45.2689L27.8922 42.0782L30.8453 46.2946L27.7649 50.6961ZM37.6788 45.3312C37.7654 45.4548 37.8918 45.5447 38.0369 45.586C38.182 45.6272 38.3369 45.6172 38.4755 45.5576C39.0459 45.3122 39.6605 45.1862 40.2815 45.1875C41.1217 45.1863 41.946 45.4156 42.665 45.8503C43.3839 46.2851 43.9698 46.9087 44.359 47.6532C44.7482 48.3978 44.9257 49.2349 44.8723 50.0733C44.8189 50.9118 44.5366 51.7195 44.056 52.4087C43.5755 53.0978 42.9152 53.642 42.1469 53.982C41.3786 54.322 40.5318 54.4448 39.6986 54.337C38.8654 54.2293 38.0777 53.8951 37.4212 53.3708C36.7647 52.8465 36.2646 52.1522 35.9752 51.3635C35.955 51.3106 35.9286 51.2604 35.8964 51.2138L22.78 32.4897C22.0095 31.3869 21.6688 30.0405 21.8222 28.7039C21.9756 27.3674 22.6124 26.1331 23.6128 25.2336L37.6788 45.3312ZM35.4036 39.7905L34.1285 37.9688H36.6794L35.4036 39.7905ZM50.4534 27.1406C50.4549 28.506 50.9566 29.8234 51.8634 30.8441C52.7703 31.8647 54.0196 32.5178 55.3753 32.68V35.3438C55.3753 35.6918 55.237 36.0257 54.9908 36.2718C54.7447 36.518 54.4109 36.6562 54.0628 36.6562H33.2098L24.29 23.9106C24.1894 23.7687 24.037 23.6722 23.8657 23.6421C23.6944 23.612 23.5181 23.6507 23.3752 23.7498C23.1507 23.9096 22.9359 24.0827 22.7321 24.2682C22.2931 23.5427 21.6956 22.926 20.9843 22.4642C20.2731 22.0025 19.4666 21.7077 18.6253 21.6019V18.2812C18.6253 18.1072 18.6944 17.9403 18.8175 17.8172C18.9405 17.6941 19.1075 17.625 19.2815 17.625H31.094V18.9375C31.094 19.1115 31.1631 19.2785 31.2862 19.4015C31.4093 19.5246 31.5762 19.5938 31.7503 19.5938C31.9243 19.5938 32.0912 19.5246 32.2143 19.4015C32.3374 19.2785 32.4065 19.1115 32.4065 18.9375V17.625H54.719C54.8931 17.625 55.06 17.6941 55.183 17.8172C55.3061 17.9403 55.3753 18.1072 55.3753 18.2812V21.6012C54.0196 21.7634 52.7703 22.4165 51.8634 23.4372C50.9566 24.4578 50.4549 25.7753 50.4534 27.1406V27.1406Z" fill="white"/>
<path d="M40.2815 53.062C40.9305 53.062 41.5649 52.8696 42.1045 52.509C42.6441 52.1485 43.0647 51.636 43.313 51.0364C43.5614 50.4369 43.6263 49.7771 43.4997 49.1406C43.3731 48.5041 43.0606 47.9194 42.6017 47.4605C42.1428 47.0017 41.5582 46.6891 40.9217 46.5625C40.2852 46.4359 39.6254 46.5009 39.0259 46.7493C38.4263 46.9976 37.9138 47.4182 37.5533 47.9578C37.1927 48.4974 37.0003 49.1318 37.0003 49.7807C37.0013 50.6507 37.3474 51.4847 37.9625 52.0998C38.5776 52.7149 39.4116 53.061 40.2815 53.062V53.062ZM40.2815 47.812C40.6709 47.812 41.0516 47.9275 41.3753 48.1438C41.6991 48.3601 41.9514 48.6676 42.1004 49.0273C42.2494 49.3871 42.2884 49.7829 42.2125 50.1648C42.1365 50.5467 41.949 50.8975 41.6737 51.1729C41.3983 51.4482 41.0475 51.6357 40.6656 51.7117C40.2837 51.7876 39.8879 51.7486 39.5281 51.5996C39.1684 51.4506 38.8609 51.1983 38.6446 50.8745C38.4283 50.5508 38.3128 50.1701 38.3128 49.7807C38.3128 49.2586 38.5202 48.7578 38.8894 48.3886C39.2586 48.0194 39.7594 47.812 40.2815 47.812V47.812ZM36.9229 31.4057C36.9224 31.8103 37.0421 32.2059 37.2669 32.5423C37.4917 32.8787 37.8114 33.1406 38.1854 33.2949C38.5594 33.4492 38.9708 33.4889 39.3674 33.4089C39.764 33.3289 40.1279 33.1328 40.4128 32.8456L48.2359 24.9233C48.6011 24.5519 48.8057 24.0519 48.8057 23.5311C48.8057 23.0102 48.6011 22.5102 48.2359 22.1388C47.86 21.7838 47.3625 21.5859 46.8454 21.5859C46.3282 21.5859 45.8307 21.7838 45.4548 22.1388L37.5292 29.962C37.3376 30.1505 37.1854 30.3752 37.0813 30.6231C36.9772 30.8709 36.9233 31.1369 36.9229 31.4057V31.4057ZM38.4513 30.8939L46.3807 23.0661C46.4407 23.0005 46.5134 22.9478 46.5944 22.9112C46.6754 22.8745 46.763 22.8547 46.8518 22.853C46.9407 22.8512 47.029 22.8675 47.1114 22.9009C47.1938 22.9343 47.2685 22.9841 47.3311 23.0472C47.3936 23.1103 47.4427 23.1855 47.4754 23.2682C47.508 23.3509 47.5235 23.4393 47.5209 23.5282C47.5183 23.617 47.4977 23.7044 47.4603 23.7851C47.4229 23.8657 47.3695 23.9379 47.3034 23.9973L39.4809 31.9229C39.3445 32.0594 39.1594 32.1362 38.9663 32.1362C38.7733 32.1363 38.5881 32.0596 38.4516 31.9232C38.315 31.7867 38.2383 31.6016 38.2382 31.4086C38.2382 31.2156 38.3148 31.0304 38.4513 30.8939V30.8939Z" fill="white"/>
</svg>
