<!-- icon666.com - MILLIONS vector ICONS FREE --><svg id="Layer_2" enable-background="new 0 0 32 32" viewBox="0 0 32 32" xmlns="http://www.w3.org/2000/svg"><g><path d="m9.1 16 3.9-10.9c.2-.5 0-1-.4-1.2s-.9-.2-1.3.2l-10 11.2c-.3.4-.3 1 0 1.3l10 11.2c.2.2.5.3.7.3s.4 0 .5-.1c.4-.2.6-.7.4-1.2zm-5.8 0 6-6.7-2.4 6.7 2.4 6.7z"></path><path d="m18.1 16 3.9-10.9c.2-.5 0-1-.4-1.2s-.9-.2-1.3.2l-10 11.2c-.3.4-.3 1 0 1.3l10 11.2c.2.2.5.3.7.3s.4 0 .5-.1c.4-.2.6-.7.4-1.2zm-5.8 0 6-6.7-2.4 6.7 2.4 6.7z"></path><path d="m27.1 16 3.9-10.9c.2-.5 0-1-.4-1.2s-.9-.2-1.3.2l-10 11.2c-.3.4-.3 1 0 1.3l10 11.2c.2.2.5.3.7.3s.4 0 .5-.1c.4-.2.6-.7.4-1.2zm-5.8 0 6-6.7-2.4 6.7 2.4 6.7z"></path></g></svg>