<svg width="38" height="38" viewBox="0 0 38 38" fill="none" xmlns="http://www.w3.org/2000/svg">
<circle cx="18.5498" cy="19.4192" r="17.9609" fill="white" stroke="#DBDBDB"/>
<path d="M14.5957 24.7812H23.299C23.692 24.7812 24.0688 24.6363 24.3467 24.3783C24.6246 24.1203 24.7807 23.7703 24.7807 23.4054V16.1363C24.7807 15.7714 24.6246 15.4214 24.3467 15.1634C24.0688 14.9054 23.692 14.7604 23.299 14.7604H22.1323V14.625C22.1323 14.5173 22.0863 14.4139 22.0042 14.3377C21.9222 14.2616 21.8109 14.2188 21.6948 14.2188C21.5788 14.2188 21.4675 14.2616 21.3855 14.3377C21.3034 14.4139 21.2573 14.5173 21.2573 14.625V14.7604H16.3223V14.625C16.3223 14.5173 16.2763 14.4139 16.1942 14.3377C16.1122 14.2616 16.0009 14.2188 15.8848 14.2188C15.7688 14.2188 15.6575 14.2616 15.5755 14.3377C15.4934 14.4139 15.4473 14.5173 15.4473 14.625V14.7604H14.5957C14.2027 14.7604 13.8259 14.9054 13.548 15.1634C13.2701 15.4214 13.114 15.7714 13.114 16.1363V23.4054C13.114 23.7703 13.2701 24.1203 13.548 24.3783C13.8259 24.6363 14.2027 24.7812 14.5957 24.7812ZM23.299 23.9688H14.5957C14.441 23.9688 14.2926 23.9117 14.1832 23.8101C14.0738 23.7085 14.0123 23.5707 14.0123 23.4271V18.2379H23.929V23.4054C23.9326 23.4821 23.9186 23.5587 23.8878 23.63C23.8571 23.7013 23.8104 23.7658 23.7509 23.819C23.6913 23.8723 23.6202 23.9132 23.5423 23.939C23.4644 23.9648 23.3815 23.975 23.299 23.9688ZM14.5957 15.5729H15.4473V15.7083C15.4473 15.8161 15.4934 15.9194 15.5755 15.9956C15.6575 16.0718 15.7688 16.1146 15.8848 16.1146C16.0009 16.1146 16.1122 16.0718 16.1942 15.9956C16.2763 15.9194 16.3223 15.8161 16.3223 15.7083V15.5729H21.2807V15.7083C21.2807 15.8161 21.3268 15.9194 21.4088 15.9956C21.4909 16.0718 21.6021 16.1146 21.7182 16.1146C21.8342 16.1146 21.9455 16.0718 22.0275 15.9956C22.1096 15.9194 22.1557 15.8161 22.1557 15.7083V15.5729H23.3223C23.4771 15.5729 23.6254 15.63 23.7348 15.7316C23.8442 15.8331 23.9057 15.9709 23.9057 16.1146V17.4254H13.989V16.1363C13.9857 16.0615 13.9992 15.9868 14.0285 15.9171C14.0578 15.8474 14.1024 15.784 14.1594 15.7311C14.2164 15.6782 14.2846 15.6368 14.3597 15.6096C14.4348 15.5823 14.5151 15.5699 14.5957 15.5729Z" fill="#252525"/>
</svg>
