<!-- icon666.com - MILLIONS vector ICONS FREE --><svg viewBox="0 0 512 512" xmlns="http://www.w3.org/2000/svg"><path d="m437.019531 74.980469c-48.351562-48.351563-112.640625-74.980469-181.019531-74.980469s-132.667969 26.628906-181.019531 74.980469c-48.351563 48.351562-74.980469 112.640625-74.980469 181.019531s26.628906 132.667969 74.980469 181.019531c48.351562 48.351563 112.640625 74.980469 181.019531 74.980469s132.667969-26.628906 181.019531-74.980469c48.351563-48.351562 74.980469-112.640625 74.980469-181.019531s-26.628906-132.667969-74.980469-181.019531zm0 0" fill="#fccf53"></path><path d="m437.019531 74.980469c-48.351562-48.351563-112.640625-74.980469-181.019531-74.980469v512c68.378906 0 132.667969-26.628906 181.019531-74.980469 48.351563-48.351562 74.980469-112.640625 74.980469-181.019531s-26.628906-132.667969-74.980469-181.019531zm0 0" fill="#ff9f00"></path><path d="m291.355469 256 75.367187-75.367188c9.765625-9.765624 9.765625-25.59375 0-35.355468-9.761718-9.765625-25.589844-9.761719-35.355468 0l-75.367188 75.367187-75.367188-75.367187c-9.765624-9.765625-25.59375-9.765625-35.355468 0-9.765625 9.761718-9.765625 25.589844 0 35.355468l75.367187 75.367188-75.367187 75.367188c-9.765625 9.765624-9.765625 25.59375 0 35.355468 4.878906 4.882813 11.277344 7.324219 17.675781 7.324219s12.796875-2.441406 17.679687-7.324219l75.367188-75.367187 75.367188 75.371093c4.882812 4.878907 11.28125 7.320313 17.679687 7.320313s12.796875-2.441406 17.679687-7.320313c9.761719-9.765624 9.761719-25.59375 0-35.355468zm0 0" fill="#ff3d9e"></path><path d="m291.355469 256 75.367187-75.367188c9.765625-9.765624 9.765625-25.59375 0-35.355468-9.761718-9.765625-25.589844-9.761719-35.355468 0l-75.367188 75.367187v70.710938l75.367188 75.371093c4.882812 4.878907 11.28125 7.320313 17.679687 7.320313s12.796875-2.441406 17.679687-7.320313c9.761719-9.765624 9.761719-25.59375 0-35.355468zm0 0" fill="#a32464"></path></svg>