<!-- icon666.com - MILLIONS vector ICONS FREE --><svg id="Capa_1" enable-background="new 0 0 509.61 509.61" viewBox="0 0 509.61 509.61" xmlns="http://www.w3.org/2000/svg"><path d="m329.412 41.081c-22.443-22.445-58.963-22.444-81.407 0l-98.069 98.069c-5.858 5.858-5.858 15.355 0 21.213s15.356 5.857 21.213 0l98.069-98.069c10.748-10.747 28.234-10.747 38.981 0l44.841 44.841 21.213-21.213z" fill="#fdbf00"></path><path d="m58.872 471.824-33.262 33.262c-5.841 5.841-15.288 5.855-21.15.064l-.064-.064c-5.862-5.862-5.862-15.351 0-21.213l33.262-33.262z" fill="#ebe2df"></path><path d="m58.872 471.824-33.262 33.262c-5.841 5.841-15.288 5.855-21.15.064l43.869-43.869z" fill="#ccbeb9"></path><path d="m309.565 288.565-22.76-.76 1.54 21.97-120.02 120.03c-28.14 28.14-64.65 46.39-104.05 52-7.9 1.13-19.61 4.21-30.17-6.3-10.679-10.585-7.549-22.474-6.43-30.3 5.61-39.4 23.86-75.91 52-104.05 0 0 56.19-56.2 120.02-120.03l20.78 1.35.44-22.56 159.73-159.73 61.46 27.02.1.2 27.09 61.43z" fill="#444"></path><path d="m309.565 288.565-22.76-.76 1.54 21.97-120.02 120.03c-28.14 28.14-64.65 46.39-104.05 52-7.9 1.13-19.61 4.21-30.17-6.3l408.1-408.1 27.09 61.43z" fill="#292929"></path><path d="m491.247 106.879-21.956 21.956-88.65-88.65 21.263-21.263c24.565-24.551 64.665-25.293 89.272-.771l.141.141c24.374 24.446 24.431 64.086-.07 88.587z" fill="#fdbf00"></path><path d="m491.247 106.879-21.956 21.956-44.258-44.258 66.284-66.284c24.374 24.445 24.431 64.085-.07 88.586z" fill="#ff9100"></path><path d="m239.631 192.16h30v125.37h-30z" fill="#fdbf00" transform="matrix(.707 -.707 .707 .707 -105.623 254.694)"></path><path d="m261.827 245.746h30v62.59h-30z" fill="#ff9100" transform="matrix(.707 -.707 .707 .707 -114.817 276.89)"></path></svg>