<svg width="15" height="16" viewBox="0 0 15 16" fill="none" xmlns="http://www.w3.org/2000/svg">
<g clip-path="url(#clip0_1_23)">
<path d="M14.8168 14.8523L10.5512 10.5867C11.3774 9.56613 11.8749 8.26926 11.8749 6.85678C11.8749 3.58307 9.2112 0.919334 5.93748 0.919334C2.66377 0.919334 6.10352e-05 3.58304 6.10352e-05 6.85676C6.10352e-05 10.1305 2.66379 12.7942 5.93751 12.7942C7.34999 12.7942 8.64686 12.2967 9.66747 11.4705L13.9331 15.7361C14.0549 15.8579 14.2149 15.9192 14.3749 15.9192C14.5349 15.9192 14.6949 15.8579 14.8168 15.7361C15.0612 15.4917 15.0612 15.0967 14.8168 14.8523ZM5.93751 11.5442C3.35253 11.5442 1.25006 9.44174 1.25006 6.85676C1.25006 4.27177 3.35253 2.1693 5.93751 2.1693C8.5225 2.1693 10.625 4.27177 10.625 6.85676C10.625 9.44174 8.52247 11.5442 5.93751 11.5442Z" fill="black"/>
</g>
<defs>
<clipPath id="clip0_1_23">
<rect width="15" height="15" fill="white" transform="translate(6.10352e-05 0.919159)"/>
</clipPath>
</defs>
</svg>
