<svg width="38" height="38" viewBox="0 0 38 38" fill="none" xmlns="http://www.w3.org/2000/svg">
<circle cx="18.7483" cy="19.4192" r="17.9609" fill="white" stroke="#DBDBDB"/>
<path d="M18.7483 27.9934C18.6744 27.9938 18.6012 27.9799 18.5329 27.9526C18.4647 27.9252 18.4027 27.885 18.3508 27.8343L14.0308 23.6686C13.0966 22.7687 12.4602 21.6218 12.2021 20.3731C11.944 19.1243 12.0757 17.8298 12.5808 16.6533C13.0858 15.4767 13.9413 14.4711 15.0392 13.7635C16.137 13.056 17.4278 12.6783 18.7483 12.6783C20.0688 12.6783 21.3596 13.056 22.4575 13.7635C23.5553 14.4711 24.4109 15.4767 24.9159 16.6533C25.4209 17.8298 25.5527 19.1243 25.2945 20.3731C25.0364 21.6218 24.4 22.7687 23.4658 23.6686L19.1458 27.8343C19.0939 27.885 19.032 27.9252 18.9637 27.9526C18.8954 27.9799 18.8222 27.9938 18.7483 27.9934ZM18.7483 13.7678C17.6512 13.7686 16.5789 14.0828 15.6669 14.6709C14.7549 15.2591 14.0442 16.0946 13.6244 17.0721C13.2047 18.0495 13.0948 19.125 13.3086 20.1627C13.5224 21.2003 14.0504 22.1536 14.8258 22.902L18.7483 26.6844L22.6708 22.902C23.4462 22.1536 23.9742 21.2003 24.188 20.1627C24.4018 19.125 24.2919 18.0495 23.8722 17.0721C23.4524 16.0946 22.7417 15.2591 21.8297 14.6709C20.9177 14.0828 19.8454 13.7686 18.7483 13.7678Z" fill="#252525"/>
<path d="M18.7483 21.5062C18.192 21.5062 17.6483 21.3471 17.1858 21.0491C16.7232 20.7511 16.3628 20.3276 16.1499 19.832C15.937 19.3364 15.8813 18.7911 15.9898 18.2651C16.0984 17.739 16.3662 17.2557 16.7596 16.8764C17.1529 16.4972 17.654 16.2389 18.1996 16.1342C18.7452 16.0296 19.3107 16.0833 19.8246 16.2885C20.3385 16.4938 20.7778 16.8414 21.0868 17.2874C21.3958 17.7334 21.5608 18.2578 21.5608 18.7942C21.5608 19.5134 21.2645 20.2033 20.737 20.7119C20.2096 21.2205 19.4942 21.5062 18.7483 21.5062ZM18.7483 17.1669C18.4145 17.1669 18.0883 17.2624 17.8108 17.4412C17.5333 17.62 17.317 17.8741 17.1892 18.1714C17.0615 18.4688 17.0281 18.796 17.0932 19.1116C17.1583 19.4273 17.319 19.7172 17.5551 19.9448C17.7911 20.1724 18.0917 20.3273 18.4191 20.3901C18.7464 20.4529 19.0857 20.4207 19.3941 20.2975C19.7024 20.1744 19.966 19.9658 20.1514 19.6982C20.3368 19.4306 20.4358 19.116 20.4358 18.7942C20.4358 18.3626 20.258 17.9487 19.9415 17.6435C19.6251 17.3384 19.1958 17.1669 18.7483 17.1669Z" fill="#252525"/>
</svg>
