<svg width="90" height="90" viewBox="0 0 90 90" fill="none" xmlns="http://www.w3.org/2000/svg">
<ellipse cx="45" cy="45" rx="45" ry="45" transform="rotate(-180 45 45)" fill="url(#paint0_linear_1903_6)"/>
<path d="M45 18.0664C48.637 18.0664 52.1639 18.7783 55.4832 20.1821C58.6901 21.5385 61.5707 23.4809 64.0449 25.9551C66.5193 28.4294 68.4615 31.3099 69.818 34.517C71.2218 37.8361 71.9336 41.363 71.9336 45C71.9336 48.637 71.2218 52.1639 69.8179 55.4832C68.4613 58.6901 66.5191 61.5707 64.0448 64.0449C61.5706 66.5193 58.6899 68.4615 55.483 69.818C52.1639 71.2218 48.637 71.9336 45 71.9336C41.363 71.9336 37.8361 71.2218 34.517 69.8179C31.3099 68.4613 28.4294 66.5191 25.9551 64.0448C23.4809 61.5706 21.5385 58.6899 20.1821 55.483C18.7783 52.1639 18.0664 48.637 18.0664 45C18.0664 41.363 18.7783 37.8361 20.1821 34.517C21.5385 31.3099 23.4809 28.4294 25.9551 25.9551C28.4294 23.4809 31.3099 21.5385 34.517 20.1821C37.8361 18.7783 41.363 18.0664 45 18.0664ZM45 15.8789C28.9168 15.8789 15.8789 28.9168 15.8789 45C15.8789 61.0832 28.9168 74.1211 45 74.1211C61.0832 74.1211 74.1211 61.0832 74.1211 45C74.1211 28.9168 61.0832 15.8789 45 15.8789Z" fill="white"/>
<path d="M38.8475 57.9884C38.5575 57.9883 38.2793 57.8731 38.0742 57.668C37.8691 57.4629 37.7539 57.1847 37.7539 56.8946V33.1056C37.7539 32.9047 37.8092 32.7076 37.9138 32.5361C38.0184 32.3646 38.1682 32.2252 38.3468 32.1332C38.5254 32.0411 38.7259 32.0001 38.9262 32.0145C39.1266 32.029 39.3191 32.0983 39.4827 32.215L56.1624 44.1095C56.3042 44.2107 56.4199 44.3443 56.4996 44.4992C56.5794 44.6541 56.621 44.8258 56.621 45.0001C56.621 45.1743 56.5794 45.346 56.4996 45.501C56.4199 45.6559 56.3042 45.7895 56.1624 45.8907L39.4827 57.7852C39.2973 57.9174 39.0752 57.9884 38.8475 57.9884ZM39.9414 35.2289V54.7714L53.6436 45.0001L39.9414 35.2289Z" fill="white"/>
<defs>
<linearGradient id="paint0_linear_1903_6" x1="-3.8147e-06" y1="45" x2="90" y2="45" gradientUnits="userSpaceOnUse">
<stop stop-color="#FFC172"/>
<stop offset="1" stop-color="#D93956"/>
</linearGradient>
</defs>
</svg>