<?xml version="1.0" encoding="UTF-8"?> <svg xmlns="http://www.w3.org/2000/svg" width="1315" height="211" viewBox="0 0 1315 211" fill="none"><path d="M235 28.085H295.828C305.545 28.085 314.225 30.1756 321.868 34.3401C329.512 38.5045 335.499 44.308 339.831 51.7338C344.163 59.1596 346.337 67.4885 346.337 76.7373C346.337 86.6049 344.196 95.3185 339.931 102.878C335.666 110.454 329.729 116.308 322.119 120.473C314.51 124.637 305.896 126.728 296.246 126.728H265.84V169.744H235.017V28.1017L235 28.085ZM294.574 99.3158C298.454 99.3158 301.983 98.329 305.144 96.3555C308.305 94.382 310.813 91.6726 312.687 88.2273C314.56 84.782 315.496 80.952 315.496 76.7206C315.496 73.1081 314.56 69.6795 312.687 66.4182C310.813 63.1568 308.254 60.5143 305.027 58.5073C301.799 56.5004 298.303 55.4801 294.557 55.4801H265.807V99.3325H294.557L294.574 99.3158Z" fill="#333333"></path><path d="M366.32 62.0361H395.07V78.5936C396.81 75.1985 398.9 72.2549 401.375 69.7964C403.851 67.3379 406.761 65.4145 410.122 64.0766C413.484 62.7219 417.297 62.0528 421.529 62.0528H433.721V87.6752H423.201C417.716 87.6752 412.966 88.9296 408.935 91.4216C404.904 93.9136 401.794 97.6097 399.619 102.46C397.428 107.327 396.341 113.18 396.341 120.054V169.727H366.354V62.0361H366.32Z" fill="#333333"></path><path d="M500.992 173.054C490.154 173.054 480.404 170.512 471.724 165.445C463.043 160.377 456.253 153.47 451.369 144.723C446.486 135.976 444.027 126.392 444.027 115.973C444.027 105.553 446.452 95.8863 451.319 87.1727C456.186 78.4591 462.96 71.535 471.673 66.4005C480.387 61.266 490.188 58.6904 501.092 58.6904C511.997 58.6904 521.915 61.266 530.678 66.4005C539.425 71.535 546.249 78.4591 551.149 87.1727C556.05 95.8863 558.492 105.486 558.492 115.973C558.492 126.459 556.05 136.059 551.149 144.773C546.249 153.486 539.425 160.377 530.678 165.445C521.931 170.512 512.03 173.054 500.992 173.054ZM501.31 145.459C506.578 145.459 511.311 144.187 515.476 141.662C519.64 139.12 522.918 135.624 525.31 131.142C527.701 126.66 528.906 121.576 528.906 115.889C528.906 110.203 527.701 105.102 525.31 100.636C522.918 96.1539 519.64 92.6584 515.476 90.1162C511.311 87.5741 506.595 86.3197 501.31 86.3197C496.025 86.3197 491.292 87.5908 487.094 90.1162C482.896 92.6584 479.601 96.1539 477.192 100.636C474.801 105.118 473.597 110.203 473.597 115.889C473.597 121.576 474.801 126.693 477.192 131.192C479.584 135.708 482.879 139.203 487.094 141.712C491.292 144.204 496.025 145.459 501.31 145.459Z" fill="#333333"></path><path d="M633.047 210.77C621.239 210.77 611.422 208.829 603.578 204.933C595.734 201.036 589.897 195.935 586.084 189.629C582.27 183.307 580.247 176.5 580.046 169.208H608.16C608.93 172.754 610.217 175.731 612.057 178.156C613.897 180.581 616.523 182.454 619.918 183.776C623.313 185.097 627.695 185.749 633.047 185.749C639.636 185.749 645.055 184.579 649.287 182.254C653.518 179.929 656.645 176.735 658.652 172.67C660.659 168.606 661.68 163.974 661.68 158.772V149.406C659.321 153.504 656.395 156.815 652.933 159.358C649.454 161.9 645.607 163.739 641.376 164.877C637.144 166.031 632.378 166.599 627.109 166.599C617.175 166.599 608.311 164.241 600.5 159.525C592.69 154.808 586.602 148.386 582.22 140.258C577.838 132.13 575.664 123.249 575.664 113.599C575.664 103.948 577.822 94.8167 582.12 86.4208C586.418 78.025 592.439 71.3017 600.132 66.2675C607.843 61.2333 616.523 58.7246 626.173 58.7246C631.943 58.7246 637.195 59.611 641.944 61.3838C646.694 63.1567 650.691 65.4313 653.919 68.2076C657.147 70.9839 659.773 74.0445 661.78 77.3727V62.0696H690.112V158.622C690.112 168.891 687.854 177.956 683.338 185.799C678.822 193.643 672.266 199.765 663.653 204.18C655.04 208.595 644.838 210.786 633.03 210.786L633.047 210.77ZM632.846 140.877C637.914 140.877 642.563 139.622 646.795 137.13C651.026 134.638 654.388 131.277 656.846 127.079C659.305 122.881 660.542 118.348 660.542 113.481C660.542 108.615 659.321 104.3 656.896 100.102C654.471 95.9038 651.126 92.5588 646.895 90.0501C642.664 87.5581 638.014 86.3037 632.946 86.3037C627.879 86.3037 622.928 87.4411 618.73 89.6822C614.532 91.94 611.238 95.1344 608.829 99.2654C606.438 103.396 605.233 108.13 605.233 113.481C605.233 118.833 606.454 123.567 608.879 127.698C611.305 131.829 614.616 135.056 618.781 137.381C622.945 139.706 627.628 140.877 632.846 140.877Z" fill="#333333"></path><path d="M783.535 173.172C778.818 173.172 774.286 172.419 769.938 170.931C765.589 169.442 761.642 167.301 758.063 164.525C754.484 161.749 751.523 158.487 749.165 154.741V169.743H720.633V23H750.62V62.6878L749.884 76.4356C752.176 72.7562 755.052 69.5952 758.531 66.9527C762.01 64.3102 765.84 62.3032 770.038 60.915C774.236 59.5269 778.601 58.8244 783.117 58.8244C793.118 58.8244 802.066 61.3834 809.993 66.4844C817.904 71.5855 824.076 78.4928 828.474 87.2064C832.89 95.92 835.08 105.52 835.08 116.006C835.08 126.493 832.873 136.009 828.474 144.756C824.059 153.503 817.921 160.427 810.043 165.529C802.166 170.63 793.335 173.188 783.535 173.188V173.172ZM777.915 145.676C782.916 145.676 787.532 144.489 791.763 142.131C795.995 139.772 799.373 136.327 801.865 131.811C804.357 127.296 805.611 121.994 805.611 115.873C805.611 109.751 804.374 104.701 801.915 100.252C799.457 95.8029 796.095 92.3743 791.864 89.9325C787.632 87.5074 782.949 86.2865 777.798 86.2865C772.647 86.2865 768.098 87.6078 763.9 90.2503C759.702 92.8928 756.39 96.4552 753.949 100.921C751.524 105.403 750.303 110.387 750.303 115.873C750.303 121.358 751.557 126.694 754.049 131.243C756.541 135.792 759.919 139.337 764.151 141.863C768.382 144.405 772.965 145.659 777.898 145.659L777.915 145.676Z" fill="#333333"></path><path d="M905.394 173.17C895.944 173.17 887.431 170.612 879.822 165.51C872.212 160.409 866.258 153.485 861.96 144.738C857.661 135.991 855.504 126.408 855.504 115.988C855.504 105.569 857.678 95.9856 862.01 87.2386C866.342 78.4915 872.296 71.5507 879.872 66.4162C887.432 61.2817 895.911 58.7061 905.277 58.7061C910.696 58.7061 915.763 59.442 920.48 60.897C925.196 62.3521 929.344 64.4761 932.923 67.2524C936.502 70.0288 939.395 73.357 941.62 77.2539V62.051H969.952V169.742H941.519V154.74C939.362 158.637 936.485 161.948 932.873 164.691C929.26 167.434 925.129 169.541 920.48 170.996C915.83 172.451 910.796 173.187 905.377 173.187L905.394 173.17ZM912.686 145.575C917.82 145.575 922.503 144.27 926.751 141.678C930.983 139.069 934.311 135.506 936.753 130.957C939.178 126.408 940.399 121.391 940.399 115.905C940.399 110.419 939.161 105.519 936.703 101.02C934.244 96.5041 930.899 92.925 926.701 90.2992C922.503 87.6567 917.871 86.3354 912.803 86.3354C907.735 86.3354 903.103 87.5563 898.905 89.9814C894.707 92.4065 891.362 95.8518 888.853 100.301C886.361 104.749 885.107 109.951 885.107 115.922C885.107 121.892 886.361 127.345 888.853 131.86C891.345 136.376 894.723 139.788 898.955 142.113C903.186 144.437 907.769 145.608 912.703 145.608L912.686 145.575Z" fill="#333333"></path><path d="M993.482 151.497L1045.03 87.14H996.174V62.0361H1085.74V80.5672L1034.71 144.623H1088.14V169.727H993.465V151.497H993.482Z" fill="#333333"></path><path d="M1152.52 173.17C1143.07 173.17 1134.56 170.612 1126.95 165.51C1119.34 160.409 1113.38 153.485 1109.09 144.738C1104.79 135.991 1102.63 126.408 1102.63 115.988C1102.63 105.569 1104.81 95.9856 1109.14 87.2386C1113.47 78.4915 1119.42 71.5507 1127 66.4162C1134.56 61.2817 1143.04 58.7061 1152.4 58.7061C1157.82 58.7061 1162.89 59.442 1167.61 60.897C1172.32 62.3521 1176.47 64.4761 1180.05 67.2524C1183.63 70.0288 1186.52 73.357 1188.75 77.2539V62.051H1217.08V169.742H1188.65V154.74C1186.49 158.637 1183.61 161.948 1180 164.691C1176.39 167.434 1172.26 169.541 1167.61 170.996C1162.96 172.451 1157.92 173.187 1152.5 173.187L1152.52 173.17ZM1159.81 145.575C1164.95 145.575 1169.63 144.27 1173.88 141.678C1178.11 139.069 1181.44 135.506 1183.88 130.957C1186.3 126.408 1187.53 121.391 1187.53 115.905C1187.53 110.419 1186.29 105.519 1183.83 101.02C1181.37 96.5041 1178.03 92.925 1173.83 90.2992C1169.63 87.6567 1165 86.3354 1159.93 86.3354C1154.86 86.3354 1150.23 87.5563 1146.03 89.9814C1141.83 92.4065 1138.49 95.8518 1135.98 100.301C1133.49 104.749 1132.23 109.951 1132.23 115.922C1132.23 121.892 1133.49 127.345 1135.98 131.86C1138.47 136.376 1141.85 139.788 1146.08 142.113C1150.31 144.437 1154.9 145.608 1159.83 145.608L1159.81 145.575Z" fill="#333333"></path><path d="M1247.6 62.0361H1276.35V78.5936C1278.09 75.1985 1280.18 72.2549 1282.65 69.7964C1285.13 67.3379 1288.04 65.4145 1291.4 64.0766C1294.76 62.7219 1298.57 62.0528 1302.81 62.0528H1315V87.6752H1304.48C1298.99 87.6752 1294.24 88.9296 1290.21 91.4216C1286.18 93.9136 1283.07 97.6097 1280.9 102.46C1278.71 107.327 1277.62 113.18 1277.62 120.054V169.727H1247.63V62.0361H1247.6Z" fill="#333333"></path><path d="M148.15 3.35999L69.43 82.08C66.33 85.18 61.78 86.36 57.59 85.09C40.71 79.98 22.69 81.33 6.94 88.58C3.7 90.07 0 87.74 0 84.17V24.31C0 10.88 10.88 0 24.31 0H146.76C148.51 0 149.38 2.10998 148.15 3.34998V3.35999Z" fill="#333333"></path><path d="M193.6 63.8396V169.28C193.6 182.71 182.72 193.59 169.29 193.59H101.23C99.2004 193.59 97.9204 191.39 98.9404 189.64C105.22 178.85 108.56 166.55 108.56 153.72C108.56 146.34 107.4 138.95 105.17 131.93C104.08 128.49 104.99 124.73 107.54 122.17L111.57 118.13C114.4 115.3 118.23 113.71 122.23 113.71H138.66C143.51 113.71 147.45 109.78 147.45 104.92V95.3196C147.45 90.4696 151.38 86.5296 156.24 86.5296H165.84C170.69 86.5296 174.63 82.5996 174.63 77.7396V68.1396C174.63 63.2896 178.56 59.3496 183.42 59.3496H189.17C191.63 59.3496 193.63 61.3496 193.63 63.8096L193.6 63.8396Z" fill="#333333"></path><path d="M187.11 8.63028C187.1 5.81028 184.81 3.52031 181.99 3.53031L173.34 3.5503C170.33 3.5503 167.45 4.75028 165.32 6.88028L70.26 101.93C68.39 103.8 65.53 104.26 63.17 103.08L62.41 102.7C43.79 93.3703 21.94 95.0203 5.12 106.33C1.93 108.48 0 112.07 0 115.92V169.28C0 182.71 10.88 193.59 24.31 193.59H69.71C75.18 193.59 80.37 191.02 83.53 186.57C90.29 177.03 93.92 165.66 93.92 153.72C93.92 144.88 91.84 136.05 87.9 128.19L87.52 127.43C86.34 125.06 86.8 122.21 88.67 120.34L104.84 104.18C108.09 100.92 112.51 99.0903 117.12 99.0903H126.66C130.05 99.0903 132.81 96.3403 132.81 92.9403V78.0603C132.81 74.6603 135.56 71.9103 138.96 71.9103H153.83C157.22 71.9103 159.98 69.1603 159.98 65.7603V50.8903C159.98 47.4903 162.73 44.7403 166.13 44.7403H180.98C184.38 44.7403 187.14 41.9803 187.14 38.5803L187.11 8.63028ZM53.61 159.87C52.51 159.11 51.91 157.83 51.91 156.51C51.91 151.64 49.94 147.24 46.76 144.05C43.56 140.87 39.17 138.9 34.3 138.9H34.27C32.96 138.9 31.7 138.3 30.93 137.24C28.88 134.47 29.46 131.51 31.19 129.78C32.15 128.81 33.49 128.22 34.95 128.22H35.04C50.25 128.22 62.58 140.54 62.58 155.75C62.58 159.84 57.95 162.86 53.61 159.87Z" fill="#333333"></path></svg> 