<svg width="409" height="76" viewBox="0 0 409 76" fill="none" xmlns="http://www.w3.org/2000/svg">
<path fill-rule="evenodd" clip-rule="evenodd" d="M29.6926 2.11141C33.6255 -0.0371375 38.3745 -0.037138 42.3074 2.11141L65.1074 14.5673C69.3555 16.8881 72 21.3563 72 26.2132V49.7868C72 54.6438 69.3555 59.1119 65.1074 61.4327L42.3074 73.8886C38.3745 76.0371 33.6255 76.0371 29.6926 73.8886L6.89262 61.4327C2.64447 59.1119 0 54.6437 0 49.7868V26.2132C0 21.3563 2.64446 16.8881 6.89262 14.5673L29.6926 2.11141Z" fill="white"/>
<path fill-rule="evenodd" clip-rule="evenodd" d="M42.0776 28.5379V38.0329C42.0776 46.3969 37.7707 50.5 30.9664 50.5C24.1622 50.5 20 46.3574 20 38.2301V28.5379C20 26.8414 21.2306 25.5 22.7868 25.5C24.3431 25.5 25.5737 26.8414 25.5737 28.5379V38.0723C25.5737 42.57 27.6367 44.8977 31.0388 44.8977C34.4409 44.8977 36.5039 42.6489 36.5039 38.2696V28.5379C36.5039 26.8414 37.7345 25.5 39.2908 25.5C40.8471 25.5 42.0776 26.8414 42.0776 28.5379ZM49.2167 50.3027C47.6604 50.3027 46.4298 48.9613 46.4298 47.2649V28.5379C46.4298 26.8414 47.6604 25.5 49.2167 25.5C50.773 25.5 52.0035 26.8414 52.0035 28.5379V47.2649C52.0035 48.9613 50.773 50.3027 49.2167 50.3027Z" fill="#2B3036"/>
<path fill-rule="evenodd" clip-rule="evenodd" d="M71 34.5C80.3888 34.5 88 26.8888 88 17.5C88 8.11116 80.3888 0.5 71 0.5C61.6112 0.5 54 8.11116 54 17.5C54 26.8888 61.6112 34.5 71 34.5Z" fill="#2D68FF"/>
<path fill-rule="evenodd" clip-rule="evenodd" d="M71.0014 24.5C73.8726 24.5 76.0028 23.0222 76.0028 20.4944V20.4556C76.0028 18.8417 75.2248 17.9667 73.9097 17.2472C74.9099 16.6056 75.5583 15.7306 75.5583 14.2722V14.2333C75.5583 12.1333 73.7429 10.5 71.0014 10.5C68.2599 10.5 66.4446 12.1528 66.4446 14.2333V14.2722C66.4446 15.7306 67.0929 16.6056 68.0932 17.2472C66.7224 17.9083 66 18.8806 66 20.5333V20.5722C66 22.9444 68.1302 24.5 71.0014 24.5ZM71.0014 16.2556C69.8715 16.2556 69.149 15.5361 69.149 14.5833V14.5444C69.149 13.7083 69.8344 12.9694 71.0014 12.9694C72.1684 12.9694 72.8538 13.7278 72.8538 14.5639V14.6028C72.8538 15.5556 72.1314 16.2556 71.0014 16.2556ZM68.76 20.3389C68.76 21.2722 69.5936 22.0306 71.0014 22.0306C72.4092 22.0306 73.2428 21.2917 73.2428 20.3389V20.3C73.2428 19.25 72.2981 18.6278 71.0014 18.6278C69.7048 18.6278 68.76 19.25 68.76 20.3V20.3389Z" fill="white"/>
<g clip-path="url(#clip0_74_469)">
<path d="M115.08 24.64H125.68C128.427 24.64 130.587 25.3467 132.16 26.76C133.733 28.1733 134.52 30 134.52 32.24C134.52 33.6533 134.12 34.92 133.32 36.04C132.547 37.16 131.56 37.92 130.36 38.32C131.747 38.64 132.933 39.4 133.92 40.6C134.907 41.7733 135.4 43.2267 135.4 44.96C135.4 47.3067 134.573 49.24 132.92 50.76C131.293 52.2533 129.16 53 126.52 53H115.08V24.64ZM121.24 36H124.68C125.8 36 126.68 35.7333 127.32 35.2C127.987 34.64 128.32 33.88 128.32 32.92C128.32 31.9867 128 31.2533 127.36 30.72C126.72 30.16 125.8 29.88 124.6 29.88H121.24V36ZM121.24 47.84H125.2C126.427 47.84 127.387 47.5467 128.08 46.96C128.773 46.3467 129.12 45.5333 129.12 44.52C129.12 43.5333 128.773 42.7333 128.08 42.12C127.387 41.5067 126.427 41.2 125.2 41.2H121.24V47.84ZM148.168 53H141.768V24.64H148.168V53ZM182.507 53H177.387L176.987 50.12C176.293 51.1067 175.267 51.9333 173.907 52.6C172.547 53.2667 170.92 53.6 169.027 53.6C164.973 53.6 161.56 52.24 158.787 49.52C156.04 46.7733 154.667 43.2133 154.667 38.84C154.667 34.4933 156.093 30.9467 158.947 28.2C161.827 25.4267 165.32 24.04 169.427 24.04C173.107 24.04 176.027 24.9067 178.187 26.64C180.347 28.3733 181.8 30.4267 182.547 32.8L176.467 34.92C176.173 33.72 175.44 32.6 174.267 31.56C173.12 30.4933 171.507 29.96 169.427 29.96C167.24 29.96 165.293 30.72 163.587 32.24C161.907 33.7333 161.067 35.9333 161.067 38.84C161.067 41.6667 161.88 43.88 163.507 45.48C165.133 47.0533 167.16 47.84 169.587 47.84C171.667 47.84 173.293 47.3467 174.467 46.36C175.64 45.3467 176.347 44.2933 176.587 43.2H168.067V37.84H182.507V53ZM221.194 31.6L215.514 33.2C215.38 32.32 214.94 31.5067 214.194 30.76C213.447 30.0133 212.314 29.64 210.794 29.64C209.647 29.64 208.714 29.9467 207.994 30.56C207.274 31.1467 206.914 31.8533 206.914 32.68C206.914 34.1467 207.847 35.0533 209.714 35.4L213.514 36.12C216.127 36.6 218.14 37.6267 219.554 39.2C220.994 40.7467 221.714 42.56 221.714 44.64C221.714 47.0133 220.767 49.1067 218.874 50.92C216.98 52.7067 214.434 53.6 211.234 53.6C207.66 53.6 204.887 52.68 202.914 50.84C200.967 48.9733 199.874 46.8667 199.634 44.52L205.434 43.12C205.567 44.5333 206.114 45.7067 207.074 46.64C208.06 47.5467 209.474 48 211.314 48C212.54 48 213.514 47.7333 214.234 47.2C214.954 46.64 215.314 45.92 215.314 45.04C215.314 44.32 215.047 43.72 214.514 43.24C213.98 42.7333 213.234 42.3867 212.274 42.2L208.394 41.48C205.994 41.0267 204.1 40.0533 202.714 38.56C201.354 37.0667 200.674 35.2667 200.674 33.16C200.674 30.5467 201.674 28.3733 203.674 26.64C205.674 24.9067 208.06 24.04 210.834 24.04C212.514 24.04 214.007 24.28 215.314 24.76C216.647 25.2133 217.7 25.8267 218.474 26.6C219.247 27.3733 219.847 28.1733 220.274 29C220.727 29.8267 221.034 30.6933 221.194 31.6ZM247.05 50.8C244.943 52.6933 242.263 53.64 239.01 53.64C235.756 53.64 233.063 52.6933 230.93 50.8C228.823 48.88 227.77 46.2 227.77 42.76V24.64H234.09V42.24C234.09 43.92 234.516 45.2 235.37 46.08C236.25 46.96 237.463 47.4 239.01 47.4C240.556 47.4 241.756 46.96 242.61 46.08C243.49 45.2 243.93 43.92 243.93 42.24V24.64H250.25V42.76C250.25 46.2 249.183 48.88 247.05 50.8ZM271.814 53L266.734 42.44H264.494V53H258.174V24.64H269.414C272.16 24.64 274.374 25.48 276.054 27.16C277.76 28.84 278.614 30.96 278.614 33.52C278.614 35.44 278.12 37.1067 277.134 38.52C276.147 39.9067 274.774 40.9067 273.014 41.52L278.774 53H271.814ZM264.494 37H268.214C269.494 37 270.48 36.6933 271.174 36.08C271.867 35.44 272.214 34.6 272.214 33.56C272.214 32.4933 271.867 31.6533 271.174 31.04C270.48 30.4267 269.494 30.12 268.214 30.12H264.494V37Z" fill="white"/>
<rect x="305" y="6" width="104" height="64" rx="32" fill="#007AFF"/>
<path d="M343.314 32.5455L337.212 50H331.757L325.655 32.5455H330.768L334.393 45.0341H334.575L338.189 32.5455H343.314ZM355.871 26.7273V50H350.95V31.3977H350.814L345.484 34.7386V30.375L351.246 26.7273H355.871ZM363.058 50.2955C362.308 50.2955 361.664 50.0303 361.126 49.5C360.596 48.9621 360.331 48.3182 360.331 47.5682C360.331 46.8258 360.596 46.1894 361.126 45.6591C361.664 45.1288 362.308 44.8636 363.058 44.8636C363.786 44.8636 364.422 45.1288 364.967 45.6591C365.513 46.1894 365.786 46.8258 365.786 47.5682C365.786 48.0682 365.657 48.5265 365.399 48.9432C365.149 49.3523 364.82 49.6818 364.411 49.9318C364.001 50.1742 363.551 50.2955 363.058 50.2955ZM377.871 50.5114C375.916 50.5038 374.234 50.0227 372.825 49.0682C371.424 48.1136 370.344 46.7311 369.587 44.9205C368.837 43.1098 368.465 40.9318 368.473 38.3864C368.473 35.8485 368.848 33.6856 369.598 31.8977C370.356 30.1098 371.435 28.75 372.837 27.8182C374.246 26.8788 375.924 26.4091 377.871 26.4091C379.818 26.4091 381.492 26.8788 382.893 27.8182C384.303 28.7576 385.386 30.1212 386.143 31.9091C386.901 33.6894 387.276 35.8485 387.268 38.3864C387.268 40.9394 386.89 43.1212 386.132 44.9318C385.382 46.7424 384.306 48.125 382.905 49.0795C381.503 50.0341 379.825 50.5114 377.871 50.5114ZM377.871 46.4318C379.204 46.4318 380.268 45.7614 381.064 44.4205C381.859 43.0795 382.253 41.0682 382.246 38.3864C382.246 36.6212 382.064 35.1515 381.7 33.9773C381.344 32.803 380.837 31.9205 380.178 31.3295C379.526 30.7386 378.757 30.4432 377.871 30.4432C376.545 30.4432 375.484 31.1061 374.689 32.4318C373.893 33.7576 373.492 35.7424 373.484 38.3864C373.484 40.1742 373.662 41.6667 374.018 42.8636C374.382 44.053 374.893 44.947 375.553 45.5455C376.212 46.1364 376.984 46.4318 377.871 46.4318Z" fill="white"/>
</g>
<defs>
<clipPath id="clip0_74_469">
<rect width="297" height="76" fill="white" transform="translate(112)"/>
</clipPath>
</defs>
</svg>
