<svg width="28" height="28" viewBox="0 0 28 28" fill="none" xmlns="http://www.w3.org/2000/svg">
<path d="M22.0757 10.2779C21.9081 10.2778 21.7408 10.2662 21.5748 10.2435C20.5964 10.1122 19.6333 9.61567 18.8639 8.84622C18.0944 8.07622 17.5979 7.11372 17.4661 6.13481C17.3255 5.08919 17.6263 4.10755 18.2924 3.44145C18.9585 2.77536 19.9401 2.47403 20.9858 2.61512C21.9647 2.74692 22.9277 3.24294 23.6972 4.01294C24.4666 4.78294 24.9632 5.74544 25.095 6.7238C25.2355 7.76997 24.9342 8.75161 24.2687 9.4177C23.7103 9.97551 22.9299 10.2779 22.0757 10.2779ZM20.0238 7.68575C20.533 8.19544 21.1783 8.53505 21.7941 8.61544C22.336 8.68872 22.803 8.56075 23.1066 8.25505C23.4101 7.94934 23.5402 7.48286 23.4669 6.94255C23.3844 6.32676 23.0448 5.68145 22.5373 5.17231C21.5469 4.18192 20.1337 3.92051 19.4523 4.60137C18.7709 5.28223 19.0329 6.69536 20.0238 7.68575ZM10.3556 21.9975C10.1882 21.9974 10.0211 21.9861 9.85522 21.9636C8.87632 21.8318 7.91327 21.3357 7.14382 20.5657C6.37436 19.7957 5.8778 18.8332 5.74601 17.8549C5.60546 16.8087 5.90679 15.8271 6.57233 15.161C6.72622 15.0071 6.93494 14.9206 7.15257 14.9206C7.3702 14.9206 7.57891 15.0071 7.7328 15.161C7.88669 15.3149 7.97314 15.5236 7.97314 15.7412C7.97314 15.9588 7.88669 16.1676 7.7328 16.3215C7.4271 16.6266 7.29913 17.0936 7.37186 17.634C7.45499 18.2497 7.7946 18.895 8.30155 19.4042C9.29686 20.3984 10.7073 20.6582 11.3887 19.9773C11.4643 19.899 11.5548 19.8365 11.6549 19.7935C11.755 19.7505 11.8627 19.7279 11.9716 19.7269C12.0805 19.726 12.1885 19.7467 12.2893 19.788C12.3901 19.8292 12.4817 19.8901 12.5588 19.9671C12.6358 20.0442 12.6967 20.1358 12.7379 20.2366C12.7792 20.3374 12.7999 20.4454 12.799 20.5543C12.798 20.6632 12.7754 20.7709 12.7324 20.871C12.6894 20.971 12.6269 21.0616 12.5486 21.1372C11.9902 21.6956 11.2109 21.9975 10.3556 21.9975Z" fill="#1C140F"/>
<path d="M3.92045 24.6092C3.79765 24.6092 3.67642 24.5816 3.56571 24.5285C3.45499 24.4753 3.35763 24.398 3.28078 24.3022C3.20394 24.2064 3.14958 24.0946 3.12173 23.975C3.09387 23.8554 3.09322 23.7311 3.11983 23.6112C3.13405 23.5472 3.47311 22.0253 3.94397 20.3463C4.82772 17.1963 5.36092 16.3722 5.72678 16.0063L18.2923 3.44135C18.368 3.363 18.4585 3.30051 18.5586 3.25752C18.6587 3.21452 18.7663 3.1919 18.8752 3.19095C18.9842 3.19 19.0922 3.21076 19.193 3.252C19.2938 3.29325 19.3854 3.35416 19.4624 3.43118C19.5394 3.5082 19.6003 3.59979 19.6416 3.70061C19.6828 3.80142 19.7036 3.90944 19.7027 4.01836C19.7017 4.12728 19.6791 4.23492 19.6361 4.335C19.5931 4.43508 19.5306 4.5256 19.4522 4.60127L6.88725 17.1668C6.83748 17.216 6.3803 17.7372 5.52334 20.7899C5.33139 21.474 5.15967 22.1401 5.02569 22.6842C5.57256 22.5492 6.2403 22.3774 6.92608 22.1844C9.97327 21.3291 10.4939 20.8719 10.5431 20.8227L23.1081 8.25768C23.2619 8.10379 23.4706 8.01731 23.6881 8.01726C23.9057 8.01721 24.1144 8.10359 24.2683 8.2574C24.4222 8.41122 24.5087 8.61987 24.5087 8.83745C24.5088 9.05502 24.4224 9.26371 24.2686 9.4176L11.703 21.9842C11.3372 22.3501 10.5136 22.8833 7.36303 23.7676C5.68686 24.2379 4.16217 24.577 4.09819 24.5912C4.03978 24.6037 3.98018 24.6097 3.92045 24.6092Z" fill="#1C140F"/>
<path d="M21.4172 7.38668C21.3094 7.38665 21.2027 7.36539 21.1031 7.3241C21.0036 7.28282 20.9131 7.22231 20.837 7.14605L20.5635 6.87261C20.4141 6.7179 20.3314 6.51069 20.3333 6.29561C20.3352 6.08052 20.4214 5.87478 20.5735 5.72269C20.7256 5.57059 20.9314 5.48432 21.1464 5.48245C21.3615 5.48058 21.5687 5.56327 21.7234 5.71269L21.9969 5.98613C22.1116 6.10082 22.1898 6.24697 22.2215 6.40609C22.2532 6.56522 22.237 6.73017 22.175 6.88008C22.1129 7.03 22.0078 7.15815 21.8729 7.24832C21.738 7.33849 21.5794 7.38664 21.4172 7.38668Z" fill="#1C140F"/>
</svg>
