<svg width="24" height="24" viewBox="0 0 24 24" fill="none" xmlns="http://www.w3.org/2000/svg">
<path d="M20 16.18V7.82004C20.4797 7.65293 20.9091 7.36676 21.2479 6.98836C21.5868 6.60996 21.824 6.15172 21.9374 5.6566C22.0507 5.16147 22.0365 4.64566 21.8961 4.15753C21.7556 3.66939 21.4935 3.22491 21.1343 2.86574C20.7752 2.50657 20.3307 2.24448 19.8426 2.10403C19.3544 1.96358 18.8386 1.94937 18.3435 2.06273C17.8484 2.17609 17.3901 2.41331 17.0117 2.75216C16.6333 3.09101 16.3472 3.52038 16.18 4.00004H7.82004C7.65293 3.52038 7.36676 3.09101 6.98836 2.75216C6.60996 2.41331 6.15172 2.17609 5.6566 2.06273C5.16147 1.94937 4.64566 1.96358 4.15753 2.10403C3.66939 2.24448 3.22491 2.50657 2.86574 2.86574C2.50657 3.22491 2.24448 3.66939 2.10403 4.15753C1.96358 4.64566 1.94937 5.16147 2.06273 5.6566C2.17609 6.15172 2.41331 6.60996 2.75216 6.98836C3.09101 7.36676 3.52038 7.65293 4.00004 7.82004V16.18C3.52038 16.3472 3.09101 16.6333 2.75216 17.0117C2.41331 17.3901 2.17609 17.8484 2.06273 18.3435C1.94937 18.8386 1.96358 19.3544 2.10403 19.8426C2.24448 20.3307 2.50657 20.7752 2.86574 21.1343C3.22491 21.4935 3.66939 21.7556 4.15753 21.8961C4.64566 22.0365 5.16147 22.0507 5.6566 21.9374C6.15172 21.824 6.60996 21.5868 6.98836 21.2479C7.36676 20.9091 7.65293 20.4797 7.82004 20H16.18C16.3472 20.4797 16.6333 20.9091 17.0117 21.2479C17.3901 21.5868 17.8484 21.824 18.3435 21.9374C18.8386 22.0507 19.3544 22.0365 19.8426 21.8961C20.3307 21.7556 20.7752 21.4935 21.1343 21.1343C21.4935 20.7752 21.7556 20.3307 21.8961 19.8426C22.0365 19.3544 22.0507 18.8386 21.9374 18.3435C21.824 17.8484 21.5868 17.3901 21.2479 17.0117C20.9091 16.6333 20.4797 16.3472 20 16.18ZM19 4.00004C19.1978 4.00004 19.3912 4.05869 19.5556 4.16858C19.7201 4.27846 19.8482 4.43464 19.9239 4.61736C19.9996 4.80009 20.0194 5.00115 19.9808 5.19514C19.9422 5.38912 19.847 5.5673 19.7072 5.70715C19.5673 5.847 19.3891 5.94225 19.1951 5.98083C19.0012 6.01942 18.8001 5.99961 18.6174 5.92392C18.4346 5.84824 18.2785 5.72006 18.1686 5.55561C18.0587 5.39117 18 5.19783 18 5.00004C18 4.73483 18.1054 4.48047 18.2929 4.29294C18.4805 4.1054 18.7348 4.00004 19 4.00004ZM5.00004 4.00004C5.19783 4.00004 5.39117 4.05869 5.55561 4.16858C5.72006 4.27846 5.84824 4.43464 5.92392 4.61736C5.99961 4.80009 6.01942 5.00115 5.98083 5.19514C5.94225 5.38912 5.847 5.5673 5.70715 5.70715C5.5673 5.847 5.38912 5.94225 5.19514 5.98083C5.00115 6.01942 4.80009 5.99961 4.61736 5.92392C4.43464 5.84824 4.27846 5.72006 4.16858 5.55561C4.05869 5.39117 4.00004 5.19783 4.00004 5.00004C4.00004 4.73483 4.1054 4.48047 4.29294 4.29294C4.48047 4.1054 4.73483 4.00004 5.00004 4.00004ZM5.00004 20C4.80226 20 4.60892 19.9414 4.44447 19.8315C4.28003 19.7216 4.15185 19.5655 4.07617 19.3827C4.00048 19.2 3.98067 18.9989 4.01926 18.805C4.05784 18.611 4.15309 18.4328 4.29294 18.2929C4.43279 18.1531 4.61097 18.0578 4.80495 18.0193C4.99894 17.9807 5.2 18.0005 5.38273 18.0762C5.56545 18.1519 5.72163 18.28 5.83151 18.4445C5.9414 18.6089 6.00004 18.8023 6.00004 19C6.00004 19.2653 5.89469 19.5196 5.70715 19.7072C5.51961 19.8947 5.26526 20 5.00004 20ZM16.18 18H7.82004C7.67073 17.5806 7.42994 17.1997 7.11514 16.8849C6.80035 16.5702 6.41944 16.3294 6.00004 16.18V7.82004C6.41944 7.67073 6.80035 7.42994 7.11514 7.11514C7.42994 6.80035 7.67073 6.41944 7.82004 6.00004H16.18C16.3294 6.41944 16.5702 6.80035 16.8849 7.11514C17.1997 7.42994 17.5806 7.67073 18 7.82004V16.18C17.5806 16.3294 17.1997 16.5702 16.8849 16.8849C16.5702 17.1997 16.3294 17.5806 16.18 18ZM19 20C18.8023 20 18.6089 19.9414 18.4445 19.8315C18.28 19.7216 18.1519 19.5655 18.0762 19.3827C18.0005 19.2 17.9807 18.9989 18.0193 18.805C18.0578 18.611 18.1531 18.4328 18.2929 18.2929C18.4328 18.1531 18.611 18.0578 18.805 18.0193C18.9989 17.9807 19.2 18.0005 19.3827 18.0762C19.5655 18.1519 19.7216 18.28 19.8315 18.4445C19.9414 18.6089 20 18.8023 20 19C20 19.2653 19.8947 19.5196 19.7072 19.7072C19.5196 19.8947 19.2653 20 19 20Z" fill="#1C140F"/>
</svg>
