<svg width="29" height="16" viewBox="0 0 29 16" fill="none" xmlns="http://www.w3.org/2000/svg">
<path d="M20.0005 0.9999C19.9068 1.09286 19.8324 1.20346 19.7817 1.32532C19.7309 1.44718 19.7047 1.57789 19.7047 1.7099C19.7047 1.84191 19.7309 1.97262 19.7817 2.09448C19.8324 2.21634 19.9068 2.32694 20.0005 2.4199L24.6005 7.0199H1.06055C0.79533 7.0199 0.540976 7.12526 0.35344 7.31279C0.165904 7.50033 0.0605469 7.75468 0.0605469 8.0199C0.0605469 8.28512 0.165904 8.53947 0.35344 8.72701C0.540976 8.91454 0.79533 9.0199 1.06055 9.0199H24.5805L20.0005 13.5899C19.8143 13.7773 19.7098 14.0307 19.7098 14.2949C19.7098 14.5591 19.8143 14.8125 20.0005 14.9999C20.1879 15.1862 20.4414 15.2907 20.7055 15.2907C20.9697 15.2907 21.2232 15.1862 21.4105 14.9999L27.7705 8.6399C27.8561 8.55777 27.9243 8.45918 27.9708 8.35006C28.0173 8.24093 28.0413 8.12353 28.0413 8.0049C28.0413 7.88627 28.0173 7.76887 27.9708 7.65974C27.9243 7.55062 27.8561 7.45203 27.7705 7.3699L21.4205 0.9999C21.3276 0.906171 21.217 0.831777 21.0951 0.781009C20.9733 0.73024 20.8426 0.704102 20.7105 0.704102C20.5785 0.704102 20.4478 0.73024 20.326 0.781009C20.2041 0.831777 20.0935 0.906171 20.0005 0.9999Z" fill="white"/>
</svg>
