<svg width="32" height="32" viewBox="0 0 32 32" fill="none" xmlns="http://www.w3.org/2000/svg">
<g clip-path="url(#clip0_63_4)">
<path d="M2.66663 13.3333C2.66663 24.6547 14.8346 31.544 15.352 31.832C15.5502 31.9422 15.7732 32.0001 16 32.0001C16.2267 32.0001 16.4498 31.9422 16.648 31.832C17.1653 31.544 29.3333 24.6547 29.3333 13.3333C29.3333 9.79711 27.9285 6.40573 25.428 3.90524C22.9276 1.40476 19.5362 0 16 0C12.4637 0 9.07235 1.40476 6.57187 3.90524C4.07138 6.40573 2.66663 9.79711 2.66663 13.3333ZM16 2.66667C18.828 2.66984 21.5392 3.79467 23.5389 5.79437C25.5386 7.79407 26.6634 10.5053 26.6666 13.3333C26.6666 21.6987 18.4 27.5733 16 29.1067C13.6 27.5733 5.33329 21.6987 5.33329 13.3333C5.33647 10.5053 6.46129 7.79407 8.46099 5.79437C10.4607 3.79467 13.172 2.66984 16 2.66667Z" fill="#443F38"/>
<path d="M16 20.0003C17.3186 20.0003 18.6075 19.6093 19.7038 18.8768C20.8002 18.1442 21.6547 17.1031 22.1592 15.8849C22.6638 14.6667 22.7958 13.3263 22.5386 12.0331C22.2814 10.7399 21.6464 9.55197 20.7141 8.61962C19.7817 7.68727 18.5938 7.05233 17.3006 6.79509C16.0074 6.53786 14.667 6.66988 13.4488 7.17447C12.2306 7.67905 11.1895 8.53353 10.4569 9.62986C9.72437 10.7262 9.33337 12.0151 9.33337 13.3337C9.33549 15.1011 10.0385 16.7956 11.2883 18.0454C12.5381 19.2952 14.2326 19.9982 16 20.0003ZM16 9.33366C16.7912 9.33366 17.5645 9.56826 18.2223 10.0078C18.8801 10.4473 19.3928 11.072 19.6956 11.8029C19.9983 12.5338 20.0775 13.3381 19.9232 14.114C19.7688 14.8899 19.3879 15.6027 18.8285 16.1621C18.2691 16.7215 17.5563 17.1025 16.7804 17.2568C16.0045 17.4111 15.2002 17.3319 14.4693 17.0292C13.7384 16.7264 13.1137 16.2137 12.6742 15.5559C12.2346 14.8981 12 14.1248 12 13.3337C12 12.2728 12.4215 11.2554 13.1716 10.5052C13.9218 9.75509 14.9392 9.33366 16 9.33366Z" fill="#443F38"/>
</g>
<defs>
<clipPath id="clip0_63_4">
<rect width="32" height="32" fill="white"/>
</clipPath>
</defs>
</svg>
