<svg width="34" height="34" viewBox="0 0 34 34" fill="none" xmlns="http://www.w3.org/2000/svg">
<path fill-rule="evenodd" clip-rule="evenodd" d="M15.5479 8.86015C16.3767 9.78098 16.1146 10.8237 15.3808 11.8125C15.1898 12.0648 14.9835 12.3051 14.7631 12.5322C14.6327 12.6685 14.5005 12.8031 14.3664 12.9359L13.2798 14.0239C13.1382 14.1656 14.11 16.1064 15.9956 17.9948C17.8798 19.8804 19.8206 20.8537 19.9637 20.7106L21.0503 19.624C21.6481 19.0262 21.964 18.7372 22.3989 18.4524C23.3028 17.8574 24.2902 17.6973 25.1218 18.4411C27.8375 20.3847 29.3746 21.5762 30.1283 22.3582C31.5974 23.8853 31.4033 26.2342 30.1368 27.5743C29.6976 28.039 29.1394 28.5972 28.4807 29.2318C24.4984 33.2169 16.0919 30.7916 9.64893 24.3443C3.20593 17.8928 0.780599 9.4849 4.75718 5.50832C5.46977 4.78298 5.70635 4.54782 6.40052 3.86357C7.69393 2.58857 10.1518 2.38882 11.6464 3.86357C12.4313 4.64132 13.685 6.25207 15.5479 8.85873V8.86015ZM23.052 21.6272L21.9668 22.7137C20.1209 24.5597 16.9788 22.9857 13.9924 19.998C11.0047 17.0074 9.43218 13.8652 11.2781 12.0193L12.3633 10.9342C12.5375 10.7599 12.6183 10.6792 12.7118 10.58C12.8421 10.4426 12.9483 10.3222 13.0348 10.2159C11.3829 7.91665 10.2609 6.48015 9.65602 5.8809C9.34435 5.57348 8.64452 5.63015 8.38668 5.88373C7.70243 6.55807 7.47718 6.78332 6.76602 7.50582C4.21035 10.0629 6.16677 16.8487 11.6535 22.3397C17.136 27.8293 23.9219 29.7872 26.4974 27.2102C27.1448 26.5855 27.6732 26.0557 28.0798 25.6264C28.3744 25.3147 28.4268 24.6758 28.0883 24.3231C27.5259 23.7394 26.1474 22.6656 23.7674 20.9557C23.5178 21.1673 23.279 21.3914 23.052 21.6272Z" fill="#443F38"/>
</svg>
