<svg width="35" height="35" viewBox="0 0 35 35" fill="none" xmlns="http://www.w3.org/2000/svg">
<path d="M17.5 19.5566L19.5562 17.5004L12.3375 10.2816L10.2812 12.3379L17.5 19.5566ZM27.8104 7.18996C26.4599 5.83114 24.8532 4.75379 23.0834 4.02032C21.3135 3.28686 19.4157 2.91186 17.5 2.91705H16.0416V8.75038H18.9583V5.92121C21.5737 6.25178 24.0001 7.45839 25.842 9.34442C27.6839 11.2304 28.8328 13.6847 29.1013 16.3072C29.3699 18.9297 28.7424 21.5659 27.321 23.7861C25.8996 26.0063 23.7682 27.6797 21.2741 28.5336C18.7799 29.3874 16.0702 29.3714 13.5863 28.4881C11.1025 27.6048 8.99099 25.9063 7.59599 23.6694C6.20099 21.4325 5.6047 18.7891 5.90429 16.1699C6.20388 13.5508 7.3817 11.1103 9.2458 9.24621L10.2812 8.22538L8.22496 6.15454L7.18955 7.18996C5.79669 8.53523 4.6857 10.1444 3.9214 11.9236C3.1571 13.7029 2.7548 15.6165 2.73798 17.5529C2.72115 19.4892 3.09013 21.4096 3.8234 23.2018C4.55666 24.994 5.63952 26.6223 7.00879 27.9916C8.37806 29.3608 10.0063 30.4437 11.7986 31.1769C13.5908 31.9102 15.5111 32.2792 17.4475 32.2624C19.3838 32.2455 21.2975 31.8432 23.0767 31.0789C24.8559 30.3146 26.4651 29.2036 27.8104 27.8108C30.5443 25.076 32.0802 21.3674 32.0802 17.5004C32.0802 13.6334 30.5443 9.92474 27.8104 7.18996Z" fill="#443F38"/>
</svg>
