<svg width="100" height="100" viewBox="0 0 100 100" fill="none" xmlns="http://www.w3.org/2000/svg">
<rect x="0.5" y="0.5" width="99" height="99" rx="49.5" stroke="#037DB1" stroke-opacity="0.3"/>
<path opacity="0.4" d="M50 36.5999V68.6599C49.66 68.6599 49.3 68.5999 49.02 68.4399L48.94 68.3999C45.1 66.2999 38.4 64.0999 34.06 63.5199L33.48 63.4399C31.56 63.1999 30 61.3999 30 59.4799V35.3199C30 32.9399 31.94 31.1399 34.32 31.3399C38.52 31.6799 44.88 33.7999 48.44 36.0199L48.94 36.3199C49.24 36.4999 49.62 36.5999 50 36.5999Z" fill="#037DB1"/>
<path d="M70 35.3401V59.4801C70 61.4001 68.44 63.2001 66.52 63.4401L65.86 63.5201C61.5 64.1001 54.78 66.3201 50.94 68.4401C50.68 68.6001 50.36 68.6601 50 68.6601V36.6001C50.38 36.6001 50.76 36.5001 51.06 36.3201L51.4 36.1001C54.96 33.8601 61.34 31.7201 65.54 31.3601H65.66C68.04 31.1601 70 32.9401 70 35.3401Z" fill="#037DB1"/>
<path d="M41.5 44.48H37C36.18 44.48 35.5 43.8 35.5 42.98C35.5 42.16 36.18 41.48 37 41.48H41.5C42.32 41.48 43 42.16 43 42.98C43 43.8 42.32 44.48 41.5 44.48Z" fill="#037DB1"/>
<path d="M43 50.48H37C36.18 50.48 35.5 49.8 35.5 48.98C35.5 48.16 36.18 47.48 37 47.48H43C43.82 47.48 44.5 48.16 44.5 48.98C44.5 49.8 43.82 50.48 43 50.48Z" fill="#037DB1"/>
</svg>
