<svg width="100" height="100" viewBox="0 0 100 100" fill="none" xmlns="http://www.w3.org/2000/svg">
<rect x="0.5" y="0.5" width="99" height="99" rx="49.5" stroke="#037DB1" stroke-opacity="0.3"/>
<path opacity="0.4" d="M50 70C38.96 70 30 61.04 30 50C30 38.96 38.96 30 50 30C61.04 30 70 38.96 70 50C70 61.04 61.04 70 50 70Z" fill="#037DB1"/>
<path d="M50.48 59.5C45.24 59.5 40.98 55.24 40.98 50C40.98 44.76 45.24 40.5 50.48 40.5C52.78 40.5 55.02 41.34 56.74 42.88C57.36 43.42 57.42 44.38 56.88 45C56.32 45.62 55.38 45.68 54.76 45.14C53.58 44.1 52.06 43.52 50.48 43.52C46.9 43.52 43.98 46.44 43.98 50.02C43.98 53.6 46.9 56.52 50.48 56.52C52.04 56.52 53.58 55.94 54.76 54.9C55.38 54.36 56.34 54.42 56.88 55.04C57.42 55.66 57.36 56.62 56.74 57.16C55 58.66 52.78 59.5 50.48 59.5Z" fill="#037DB1"/>
</svg>
