<svg width="100" height="100" viewBox="0 0 100 100" fill="none" xmlns="http://www.w3.org/2000/svg">
<rect x="0.5" y="0.5" width="99" height="99" rx="49.5" stroke="#037DB1" stroke-opacity="0.3"/>
<path d="M58 42H42V58H58V42Z" fill="#037DB1"/>
<path opacity="0.4" d="M36 70C39.3 70 42 67.3 42 64V58H36C32.7 58 30 60.7 30 64C30 67.3 32.7 70 36 70Z" fill="#037DB1"/>
<path opacity="0.4" d="M36 42H42V36C42 32.7 39.3 30 36 30C32.7 30 30 32.7 30 36C30 39.3 32.7 42 36 42Z" fill="#037DB1"/>
<path opacity="0.4" d="M58 42H64C67.3 42 70 39.3 70 36C70 32.7 67.3 30 64 30C60.7 30 58 32.7 58 36V42Z" fill="#037DB1"/>
<path opacity="0.4" d="M64 70C67.3 70 70 67.3 70 64C70 60.7 67.3 58 64 58H58V64C58 67.3 60.7 70 64 70Z" fill="#037DB1"/>
</svg>
