<svg width="213" height="48" viewBox="0 0 213 48" fill="none" xmlns="http://www.w3.org/2000/svg">
<path fill-rule="evenodd" clip-rule="evenodd" d="M-0.000486771 7.92383H0.809624C1.52381 7.9233 2.2311 8.06183 2.89108 8.3315C3.55105 8.60117 4.15077 8.99669 4.65597 9.49546C5.16116 9.99423 5.56192 10.5865 5.83535 11.2383C6.10878 11.8902 6.24952 12.5889 6.24952 13.2945V40.6964H5.43941C4.72488 40.6969 4.01726 40.5583 3.35702 40.2883C2.69678 40.0184 2.09688 39.6225 1.59163 39.1233C1.08639 38.6241 0.685709 38.0314 0.412517 37.3791C0.139325 36.7268 -0.0010194 36.0276 -0.000486771 35.3217V7.92383Z" fill="#1A2528"/>
<path fill-rule="evenodd" clip-rule="evenodd" d="M27.9734 25.2768L19.2201 16.6284C18.4276 15.7811 17.9829 14.6725 17.9725 13.5188L17.9442 11.3858V0H17.1341C15.6924 0 14.3098 0.565841 13.2904 1.57305C12.2709 2.58025 11.6982 3.94631 11.6982 5.37071V14.1031V15.1076C11.7259 15.9768 11.9083 16.8343 12.237 17.6409C12.5898 18.5035 13.1083 19.2904 13.764 19.9581L20.9538 27.2658C21.8881 28.0793 22.587 29.1234 22.979 30.2913C23.237 31.2198 23.3985 32.1719 23.4611 33.1327C23.534 34.2133 23.461 34.7055 23.5907 34.7335C24.0362 34.8416 25.5835 30.4794 25.5835 30.4794L24.3481 28.8786L27.9734 25.2768Z" fill="#1A2528"/>
<path d="M17.4846 31.4875C17.11 30.6363 16.5938 29.8531 15.9576 29.1703C15.5744 28.7197 15.1588 28.2971 14.7141 27.9057L7.89697 21.0382C6.91101 19.735 6.33741 18.1726 6.24839 16.5479V15.6074V14.0066V13.3463C6.24839 11.9219 5.67569 10.5558 4.65627 9.54863C3.63686 8.54143 2.25423 7.97559 0.812552 7.97559H0.00244141V17.4043V19.2253C0.0501604 21.0402 0.785977 22.7713 2.06418 24.0757L9.24581 31.3834C9.28226 31.4194 9.43213 31.5435 9.62656 31.7196C9.9336 31.995 10.2244 32.2876 10.4974 32.596C10.9185 33.0478 11.2509 33.573 11.4777 34.1448C11.66 34.613 11.7467 35.1121 11.7328 35.6135L11.7612 37.7426V47.9998H12.5713C14.013 47.9998 15.3956 47.434 16.415 46.4268C17.4345 45.4196 18.0072 44.0535 18.0072 42.6291V35.0252C18.0072 34.6891 18.0072 34.3529 18.0072 34.0207C17.9867 33.1523 17.8098 32.2945 17.4846 31.4875Z" fill="#1A2528"/>
<path fill-rule="evenodd" clip-rule="evenodd" d="M23.4312 7.92383H24.2413C24.9554 7.9233 25.6627 8.06183 26.3227 8.3315C26.9827 8.60117 27.5824 8.99669 28.0876 9.49546C28.5928 9.99423 28.9936 10.5865 29.267 11.2383C29.5404 11.8902 29.6812 12.5889 29.6812 13.2945V40.6964H28.871C28.1569 40.6964 27.4497 40.5573 26.7899 40.2872C26.1301 40.017 25.5307 39.6211 25.0259 39.1219C24.5211 38.6228 24.1208 38.0303 23.8478 37.3782C23.5749 36.7261 23.4347 36.0273 23.4352 35.3217V7.92383H23.4312Z" fill="#1A2528"/>
<path fill-rule="evenodd" clip-rule="evenodd" d="M210.947 17.5822C209.661 16.6045 207.992 16.6045 206.235 16.6045H195.869C194.098 16.6045 192.429 16.6045 191.157 17.5822C189.756 18.6463 189.104 20.6881 189.104 24.0001C189.104 27.3122 189.777 29.3207 191.157 30.4181C192.442 31.3958 194.112 31.3958 195.869 31.3958H206.235C207.999 31.3958 209.668 31.3958 210.947 30.4181C212.347 29.3473 213 27.3122 213 24.0001C213 20.6881 212.347 18.6463 210.947 17.5822ZM210.119 29.354C209.203 30.0589 207.824 30.059 206.228 30.059H195.862C194.267 30.059 192.887 30.0589 191.964 29.354C190.941 28.5758 190.443 26.82 190.443 24.0334C190.443 21.2467 190.941 19.4577 191.964 18.6729C192.887 17.9745 194.267 17.9745 195.862 17.9745H206.228C207.824 17.9745 209.203 17.9745 210.119 18.6729C211.142 19.4577 211.64 21.2068 211.64 24.0334C211.64 26.8599 211.129 28.5758 210.119 29.354Z" fill="#1A2528"/>
<path d="M58.0092 17.7354V30.7243H55.3167V25.0645H47.589V30.7243H44.8628V17.7354H47.589V23.6745H55.2897V17.7354H58.0092Z" fill="#1A2528"/>
<path d="M67.7487 17.3628C68.7914 17.3522 69.8293 17.5025 70.825 17.8084C71.6974 18.0851 72.5021 18.538 73.1877 19.1386C73.8549 19.7353 74.3792 20.4714 74.7225 21.2934C75.4492 23.1943 75.4492 25.2918 74.7225 27.1926C74.3831 28.0167 73.8582 28.7536 73.1877 29.3475C72.5055 29.9528 71.6998 30.4064 70.825 30.6776C69.83 30.9867 68.7916 31.1371 67.7487 31.1232C66.7059 31.1367 65.6675 30.9863 64.6725 30.6776C63.793 30.4079 62.9825 29.9542 62.2963 29.3475C61.6277 28.7548 61.1071 28.0172 60.775 27.1926C60.0568 25.2903 60.0568 23.1958 60.775 21.2934C61.1105 20.4706 61.6306 19.7338 62.2963 19.1386C62.9859 18.5364 63.7952 18.0834 64.6725 17.8084C65.6683 17.503 66.7061 17.3527 67.7487 17.3628ZM67.7487 18.693C67.1357 18.6877 66.5274 18.8006 65.9582 19.0255C65.3985 19.2457 64.9001 19.5946 64.5042 20.0431C64.0593 20.5499 63.7227 21.1403 63.5147 21.7789C63.0301 23.3958 63.0301 25.1168 63.5147 26.7337C63.7227 27.3724 64.0593 27.9628 64.5042 28.4696C64.9016 28.9181 65.3995 29.2688 65.9582 29.4938C67.112 29.9373 68.3922 29.9373 69.546 29.4938C70.1047 29.2688 70.6026 28.9181 71 28.4696C71.4425 27.9612 71.7788 27.3712 71.9895 26.7337C72.4741 25.1168 72.4741 23.3958 71.9895 21.7789C71.7788 21.1415 71.4425 20.5515 71 20.0431C70.6125 19.5955 70.1235 19.2446 69.5729 19.0189C68.9946 18.7829 68.3744 18.663 67.7487 18.6664V18.693Z" fill="#1A2528"/>
<path d="M89.7543 27.292C89.7599 27.8097 89.6447 28.3218 89.4178 28.7884C89.1687 29.2802 88.7895 29.6961 88.3205 29.9922C87.7158 30.3739 87.0484 30.6484 86.3482 30.8036C85.3713 31.0148 84.3729 31.113 83.373 31.0962C82.7216 31.0984 82.0711 31.0494 81.4276 30.9499C80.8157 30.8559 80.2124 30.7136 79.6236 30.5243C79.0763 30.3523 78.5466 30.1296 78.0417 29.8592C77.593 29.6214 77.1749 29.3311 76.7964 28.9946L77.7321 27.8839C78.4693 28.4993 79.3194 28.9689 80.2361 29.2673C81.2491 29.5909 82.3084 29.7504 83.373 29.7395C84.3016 29.8133 85.233 29.6339 86.0655 29.2207C86.3122 29.0715 86.5148 28.8609 86.653 28.6099C86.7912 28.3589 86.8602 28.0764 86.8531 27.7908C86.8521 27.5582 86.7955 27.3291 86.6878 27.1222C86.5802 26.9154 86.4246 26.7365 86.2338 26.6003C85.5877 26.1753 84.8762 25.8564 84.1269 25.6559L80.539 24.512C79.5425 24.249 78.621 23.7619 77.8465 23.0887C77.5481 22.805 77.3135 22.4623 77.1581 22.083C77.0027 21.7037 76.9299 21.2963 76.9445 20.8873C76.9438 20.4241 77.057 19.9676 77.2743 19.5572C77.5156 19.1026 77.8671 18.7141 78.2975 18.4266C78.8346 18.0612 79.4345 17.7953 80.0678 17.6418C80.9205 17.4381 81.7958 17.342 82.6729 17.3558C83.2864 17.3569 83.8988 17.408 84.5038 17.5087C85.0984 17.6011 85.684 17.7435 86.254 17.9344C86.7917 18.1089 87.3122 18.3315 87.809 18.5995C88.2601 18.8419 88.6804 19.1366 89.061 19.4774L88.1186 20.5947C87.4132 19.9877 86.5978 19.5183 85.7155 19.2113C84.7373 18.8778 83.7076 18.7157 82.6729 18.7325C81.9353 18.6845 81.1998 18.8535 80.5592 19.218C80.3476 19.3433 80.1725 19.5207 80.051 19.7329C79.9295 19.945 79.8657 20.1847 79.8659 20.4284C79.8618 20.6571 79.9078 20.884 80.0005 21.0935C80.1029 21.3037 80.2526 21.4879 80.4381 21.6322C80.6871 21.8266 80.9638 21.9834 81.2593 22.0978C81.5959 22.2441 82.0132 22.3904 82.5181 22.5567L86.0924 23.674C87.0809 23.9504 87.9986 24.431 88.785 25.0839C89.1 25.3597 89.35 25.7003 89.5175 26.0818C89.685 26.4632 89.7658 26.8763 89.7543 27.292Z" fill="#1A2528"/>
<path d="M98.4038 17.7353C99.2576 17.7235 100.109 17.8264 100.935 18.0412C101.618 18.2142 102.26 18.5169 102.826 18.9324C103.329 19.3051 103.735 19.7907 104.011 20.349C104.288 20.9528 104.431 21.6081 104.431 22.2711C104.431 22.934 104.288 23.5893 104.011 24.1932C103.737 24.7543 103.331 25.2424 102.826 25.6164C102.262 26.0346 101.619 26.3376 100.935 26.5076C100.109 26.7224 99.2576 26.8253 98.4038 26.8135H94.3649V30.7109H91.6724V17.7353H98.4038ZM94.3649 19.1253V25.4368H98.4038C98.8355 25.4564 99.2669 25.3893 99.6717 25.2396C100.076 25.0898 100.446 24.8605 100.759 24.5656C101.071 24.2706 101.32 23.916 101.49 23.5234C101.66 23.1307 101.748 22.7081 101.748 22.2811C101.748 21.854 101.66 21.4314 101.49 21.0387C101.32 20.6461 101.071 20.2916 100.759 19.9966C100.446 19.7016 100.076 19.4723 99.6717 19.3226C99.2669 19.1728 98.8355 19.1057 98.4038 19.1253H94.3649Z" fill="#1A2528"/>
<path d="M109.202 30.7243H106.51V17.7354H109.202V30.7243Z" fill="#1A2528"/>
<path d="M123.567 19.1254H118.499V30.7243H115.806V19.1254H110.704V17.7354H123.567V19.1254Z" fill="#1A2528"/>
<path d="M133.615 17.7354L139 30.7243H136.308L135.063 27.5718H127.927L126.689 30.7243H123.996L129.381 17.7354H133.615ZM128.547 26.1818H134.389L131.569 19.3116H131.38L128.547 26.1818Z" fill="#1A2528"/>
<path d="M151.272 29.3342V30.7243H140.448V17.7354H143.14V29.3342H151.272Z" fill="#1A2528"/>
<path d="M155.687 30.7243H152.995V17.7354H155.687V30.7243Z" fill="#1A2528"/>
<path d="M170.067 19.1254H164.992V30.7243H162.299V19.1254H157.224V17.7354H170.067V19.1254Z" fill="#1A2528"/>
<path d="M179.074 26.8269V30.7243H176.382V26.8269L170.283 17.7354H173.285L177.701 24.3262H177.795L182.211 17.7354H185.213L179.074 26.8269Z" fill="#1A2528"/>
<path d="M200.695 25.0572C200.698 25.2272 200.661 25.3956 200.587 25.5493C200.504 25.7121 200.379 25.8499 200.224 25.9484C200.018 26.0788 199.79 26.1712 199.551 26.2211C199.227 26.2876 198.898 26.3188 198.568 26.3142C198.343 26.3172 198.117 26.3017 197.895 26.2676C197.694 26.2359 197.496 26.1892 197.302 26.128C197.122 26.0659 196.946 25.9903 196.777 25.9018C196.628 25.8223 196.49 25.7239 196.367 25.6092L196.676 25.2434C196.92 25.4474 197.201 25.6032 197.504 25.7023C197.84 25.8065 198.189 25.8581 198.541 25.8553C198.848 25.8818 199.156 25.8218 199.429 25.6824C199.51 25.632 199.575 25.5621 199.62 25.4794C199.665 25.3967 199.687 25.3039 199.685 25.2101C199.685 25.1336 199.667 25.0582 199.632 24.99C199.597 24.9219 199.546 24.8628 199.483 24.8178C199.278 24.6774 199.051 24.5717 198.81 24.5052L197.666 24.1394C197.34 24.0477 197.039 23.8865 196.784 23.6672C196.687 23.5732 196.61 23.4603 196.559 23.3355C196.508 23.2107 196.484 23.0768 196.488 22.9422C196.487 22.7894 196.524 22.6387 196.596 22.5033C196.677 22.3552 196.792 22.2278 196.932 22.1308C197.11 22.0068 197.312 21.9187 197.524 21.8715C197.804 21.8025 198.091 21.7711 198.379 21.7784C198.582 21.7768 198.785 21.7924 198.985 21.8249C199.182 21.8566 199.375 21.9032 199.564 21.9646C199.744 22.0238 199.917 22.0995 200.082 22.1907C200.231 22.2719 200.368 22.3701 200.493 22.4833L200.183 22.8491C199.949 22.6497 199.68 22.4942 199.389 22.3902C199.063 22.2847 198.722 22.233 198.379 22.2373C198.144 22.2247 197.91 22.2801 197.706 22.3969C197.636 22.4368 197.578 22.4939 197.536 22.5626C197.495 22.6313 197.473 22.7094 197.471 22.7893C197.467 22.8652 197.483 22.9408 197.518 23.0088C197.548 23.0798 197.597 23.1418 197.659 23.1883C197.74 23.2527 197.831 23.3043 197.928 23.3413L198.346 23.4943L199.524 23.86C199.847 23.953 200.148 24.1115 200.406 24.3256C200.504 24.4201 200.58 24.5343 200.63 24.6605C200.68 24.7867 200.702 24.9219 200.695 25.0572Z" fill="#1A2528"/>
<path d="M203.555 25.8885C203.74 25.8922 203.925 25.8629 204.1 25.8021C204.26 25.7527 204.405 25.666 204.524 25.5493C204.645 25.419 204.737 25.2649 204.793 25.0971C204.861 24.8819 204.893 24.6573 204.888 24.432V21.8848H205.79V24.432C205.81 24.6958 205.767 24.9606 205.665 25.2053C205.564 25.4501 205.406 25.668 205.204 25.842C204.706 26.1423 204.134 26.3011 203.551 26.3011C202.968 26.3011 202.396 26.1423 201.899 25.842C201.698 25.6677 201.541 25.4495 201.44 25.2047C201.34 24.9599 201.299 24.6953 201.32 24.432V21.8848H202.215V24.432C202.208 24.6579 202.243 24.8831 202.316 25.0971C202.37 25.2661 202.462 25.4208 202.585 25.5493C202.703 25.6645 202.846 25.751 203.003 25.8021C203.18 25.863 203.367 25.8923 203.555 25.8885Z" fill="#1A2528"/>
</svg>
