<svg width="198" height="46" viewBox="0 0 198 46" fill="none" xmlns="http://www.w3.org/2000/svg">
<path fill-rule="evenodd" clip-rule="evenodd" d="M-0.000486877 7.92871H0.752574C1.41647 7.92822 2.07395 8.05809 2.68745 8.3109C3.30094 8.56372 3.85843 8.93452 4.32805 9.40212C4.79766 9.86971 5.1702 10.4249 5.42438 11.0361C5.67855 11.6472 5.80938 12.3022 5.80938 12.9638V38.653H5.05632C4.39211 38.6535 3.73432 38.5235 3.12058 38.2704C2.50683 38.0174 1.94918 37.6463 1.47951 37.1783C1.00985 36.7103 0.637385 36.1546 0.383432 35.543C0.129479 34.9315 -0.000982001 34.276 -0.000486877 33.6142V7.92871Z" fill="white"/>
<path fill-rule="evenodd" clip-rule="evenodd" d="M26.0035 24.197L17.8667 16.0891C17.13 15.2947 16.7166 14.2555 16.707 13.1739L16.6806 11.1741V0.5H15.9276C14.5874 0.5 13.3021 1.03048 12.3545 1.97473C11.4069 2.91898 10.8745 4.19967 10.8745 5.53504V13.7217V14.6634C10.9003 15.4782 11.0698 16.2821 11.3753 17.0384C11.7033 17.847 12.1853 18.5847 12.7948 19.2107L19.4782 26.0617C20.3468 26.8243 20.9965 27.8032 21.3609 28.8981C21.6006 29.7686 21.7508 30.6611 21.809 31.5619C21.8767 32.575 21.8089 33.0364 21.9294 33.0627C22.3436 33.164 23.782 29.0744 23.782 29.0744L22.6336 27.5737L26.0035 24.197Z" fill="white"/>
<path d="M16.2535 30.0197C15.9052 29.2217 15.4254 28.4875 14.834 27.8473C14.4778 27.4249 14.0915 27.0287 13.678 26.6617L7.34102 20.2235C6.42449 19.0017 5.89128 17.537 5.80854 16.0139V15.1322V13.6314V13.0123C5.80854 11.677 5.27617 10.3963 4.32854 9.45202C3.38091 8.50777 2.09565 7.97729 0.755502 7.97729H0.00244141V16.8168V18.5239C0.0467999 20.2254 0.730798 21.8483 1.91898 23.0712L8.59486 29.9221C8.62875 29.9559 8.76807 30.0722 8.9488 30.2373C9.23422 30.4955 9.50451 30.7698 9.75834 31.059C10.1498 31.4825 10.4588 31.9749 10.6695 32.5109C10.839 32.9498 10.9196 33.4178 10.9068 33.8879L10.9331 35.8839V45.5H11.6862C13.0263 45.5 14.3116 44.9695 15.2592 44.0253C16.2068 43.081 16.7392 41.8003 16.7392 40.465V33.3364C16.7392 33.0212 16.7392 32.706 16.7392 32.3946C16.7202 31.5805 16.5558 30.7763 16.2535 30.0197Z" fill="white"/>
<path fill-rule="evenodd" clip-rule="evenodd" d="M21.7812 7.92871H22.5343C23.1982 7.92822 23.8557 8.05809 24.4692 8.3109C25.0827 8.56372 25.6402 8.93452 26.1098 9.40212C26.5794 9.86971 26.9519 10.4249 27.2061 11.0361C27.4603 11.6472 27.5911 12.3022 27.5911 12.9638V38.653H26.8381C26.1742 38.653 25.5168 38.5226 24.9035 38.2694C24.2902 38.0161 23.733 37.6449 23.2637 37.1769C22.7944 36.709 22.4223 36.1535 22.1686 35.5422C21.9149 34.9309 21.7845 34.2757 21.785 33.6142V7.92871H21.7812Z" fill="white"/>
<path fill-rule="evenodd" clip-rule="evenodd" d="M196.092 16.9832C194.897 16.0667 193.345 16.0667 191.712 16.0667H182.075C180.43 16.0667 178.878 16.0667 177.695 16.9832C176.394 17.9808 175.787 19.895 175.787 23.0001C175.787 26.1051 176.412 27.9881 177.695 29.0169C178.89 29.9335 180.442 29.9335 182.075 29.9335H191.712C193.351 29.9335 194.903 29.9335 196.092 29.0169C197.393 28.0131 198 26.1051 198 23.0001C198 19.895 197.393 17.9808 196.092 16.9832ZM195.322 28.0193C194.471 28.6802 193.188 28.6802 191.705 28.6802H182.069C180.586 28.6802 179.303 28.6802 178.446 28.0193C177.495 27.2898 177.032 25.6437 177.032 23.0312C177.032 20.4187 177.495 18.7415 178.446 18.0058C179.303 17.3511 180.586 17.3511 182.069 17.3511H191.705C193.188 17.3511 194.471 17.3511 195.322 18.0058C196.273 18.7415 196.736 20.3813 196.736 23.0312C196.736 25.6811 196.261 27.2898 195.322 28.0193Z" fill="white"/>
<path d="M53.9242 17.1267V29.3038H51.4213V23.9978H44.2378V29.3038H41.7036V17.1267H44.2378V22.6946H51.3963V17.1267H53.9242Z" fill="white"/>
<path d="M62.978 16.7774C63.9472 16.7673 64.912 16.9083 65.8376 17.1951C66.6486 17.4544 67.3966 17.8791 68.0339 18.4421C68.6542 19.0016 69.1415 19.6917 69.4606 20.4623C70.1362 22.2443 70.1362 24.2107 69.4606 25.9928C69.1451 26.7654 68.6572 27.4562 68.0339 28.013C67.3998 28.5804 66.6508 29.0057 65.8376 29.26C64.9127 29.5497 63.9474 29.6908 62.978 29.6777C62.0086 29.6903 61.0433 29.5493 60.1184 29.26C59.3008 29.0071 58.5474 28.5818 57.9095 28.013C57.2881 27.4573 56.8041 26.7659 56.4954 25.9928C55.8277 24.2093 55.8277 22.2458 56.4954 20.4623C56.8072 19.6909 57.2907 19.0002 57.9095 18.4421C58.5505 17.8776 59.3029 17.4529 60.1184 17.1951C61.044 16.9088 62.0088 16.7678 62.978 16.7774ZM62.978 18.0244C62.4081 18.0194 61.8427 18.1253 61.3135 18.3361C60.7933 18.5426 60.33 18.8696 59.9619 19.2901C59.5483 19.7652 59.2355 20.3187 59.0421 20.9174C58.5916 22.4333 58.5916 24.0467 59.0421 25.5626C59.2355 26.1613 59.5483 26.7148 59.9619 27.1899C60.3313 27.6104 60.7942 27.9392 61.3135 28.1501C62.3861 28.5659 63.5761 28.5659 64.6487 28.1501C65.1681 27.9392 65.6309 27.6104 66.0003 27.1899C66.4117 26.7133 66.7243 26.1602 66.9201 25.5626C67.3706 24.0467 67.3706 22.4333 66.9201 20.9174C66.7243 20.3198 66.4117 19.7667 66.0003 19.2901C65.64 18.8705 65.1855 18.5415 64.6737 18.3299C64.1361 18.1086 63.5596 17.9963 62.978 17.9994V18.0244Z" fill="white"/>
<path d="M83.4336 26.0862C83.4388 26.5715 83.3317 27.0516 83.1207 27.4891C82.8892 27.9501 82.5368 28.3401 82.1008 28.6176C81.5387 28.9754 80.9182 29.2329 80.2674 29.3783C79.3593 29.5763 78.4311 29.6684 77.5016 29.6526C76.8961 29.6547 76.2914 29.6088 75.6932 29.5155C75.1244 29.4274 74.5637 29.2939 74.0163 29.1164C73.5075 28.9552 73.0151 28.7465 72.5458 28.4929C72.1287 28.27 71.74 27.9978 71.3882 27.6824L72.258 26.6411C72.9433 27.218 73.7336 27.6583 74.5857 27.938C75.5273 28.2414 76.512 28.3909 77.5016 28.3807C78.3649 28.4499 79.2307 28.2817 80.0046 27.8944C80.2338 27.7545 80.4222 27.557 80.5507 27.3217C80.6792 27.0864 80.7433 26.8216 80.7367 26.5538C80.7357 26.3357 80.6831 26.121 80.583 25.927C80.483 25.7331 80.3384 25.5654 80.161 25.4377C79.5603 25.0393 78.8989 24.7403 78.2024 24.5524L74.8673 23.4799C73.9409 23.2333 73.0843 22.7767 72.3643 22.1456C72.0869 21.8796 71.8689 21.5583 71.7244 21.2027C71.58 20.8471 71.5123 20.4652 71.5258 20.0818C71.5252 19.6475 71.6304 19.2196 71.8325 18.8348C72.0567 18.4086 72.3835 18.0444 72.7836 17.7748C73.2829 17.4323 73.8405 17.183 74.4293 17.0391C75.2219 16.8482 76.0355 16.7581 76.8509 16.771C77.4212 16.772 77.9905 16.82 78.5529 16.9144C79.1056 17.0009 79.6499 17.1344 80.1798 17.3134C80.6796 17.477 81.1635 17.6857 81.6252 17.9369C82.0446 18.1642 82.4353 18.4405 82.7891 18.76L81.9131 19.8075C81.2573 19.2384 80.4993 18.7984 79.6792 18.5106C78.7699 18.1978 77.8127 18.0459 76.8509 18.0616C76.1652 18.0167 75.4815 18.1751 74.886 18.5168C74.6893 18.6343 74.5266 18.8006 74.4136 18.9995C74.3006 19.1984 74.2414 19.4231 74.2415 19.6516C74.2377 19.866 74.2804 20.0786 74.3667 20.2751C74.4618 20.4721 74.601 20.6449 74.7734 20.7801C75.0049 20.9623 75.2621 21.1094 75.5368 21.2166C75.8497 21.3538 76.2376 21.4909 76.7069 21.6468L80.0296 22.6943C80.9484 22.9534 81.8015 23.404 82.5325 24.0161C82.8253 24.2747 83.0578 24.594 83.2134 24.9516C83.3691 25.3092 83.4442 25.6965 83.4336 26.0862Z" fill="white"/>
<path d="M91.4742 17.1265C92.2678 17.1154 93.0593 17.2119 93.8269 17.4133C94.4619 17.5754 95.0591 17.8592 95.5852 18.2488C96.0528 18.5982 96.4303 19.0534 96.6865 19.5768C96.944 20.1429 97.0773 20.7573 97.0773 21.3788C97.0773 22.0003 96.944 22.6146 96.6865 23.1807C96.4318 23.7068 96.0541 24.1644 95.5852 24.515C95.0606 24.9071 94.4629 25.1911 93.8269 25.3505C93.0593 25.5519 92.2678 25.6484 91.4742 25.6373H87.7197V29.2911H85.2168V17.1265H91.4742ZM87.7197 18.4296V24.3467H91.4742C91.8755 24.365 92.2765 24.3021 92.6528 24.1617C93.0291 24.0213 93.3729 23.8064 93.6634 23.5298C93.954 23.2533 94.1853 22.9209 94.3433 22.5528C94.5013 22.1847 94.5827 21.7885 94.5827 21.3881C94.5827 20.9878 94.5013 20.5915 94.3433 20.2234C94.1853 19.8553 93.954 19.523 93.6634 19.2464C93.3729 18.9699 93.0291 18.7549 92.6528 18.6145C92.2765 18.4741 91.8755 18.4112 91.4742 18.4296H87.7197Z" fill="white"/>
<path d="M101.512 29.3038H99.0093V17.1267H101.512V29.3038Z" fill="white"/>
<path d="M114.866 18.4298H110.154V29.3038H107.651V18.4298H102.908V17.1267H114.866V18.4298Z" fill="white"/>
<path d="M124.206 17.1265L129.212 29.3036H126.709L125.551 26.3482H118.918L117.767 29.3036H115.264L120.27 17.1265H124.206ZM119.494 25.0451H124.926L122.304 18.6042H122.128L119.494 25.0451Z" fill="white"/>
<path d="M140.619 28.0005V29.3037H130.557V17.1266H133.06V28.0005H140.619Z" fill="white"/>
<path d="M144.724 29.3038H142.221V17.1267H144.724V29.3038Z" fill="white"/>
<path d="M158.091 18.4298H153.373V29.3038H150.87V18.4298H146.152V17.1267H158.091V18.4298Z" fill="white"/>
<path d="M166.464 25.6501V29.3038H163.961V25.6501L158.292 17.1267H161.082L165.187 23.3057H165.275L169.38 17.1267H172.17L166.464 25.6501Z" fill="white"/>
<path d="M186.562 23.9915C186.564 24.1509 186.53 24.3087 186.461 24.4529C186.384 24.6055 186.268 24.7347 186.124 24.827C185.932 24.9492 185.72 25.0359 185.498 25.0826C185.197 25.145 184.891 25.1743 184.584 25.1699C184.375 25.1728 184.165 25.1582 183.958 25.1263C183.772 25.0965 183.588 25.0527 183.408 24.9953C183.24 24.9372 183.077 24.8663 182.92 24.7833C182.781 24.7088 182.653 24.6166 182.538 24.509L182.826 24.1661C183.052 24.3573 183.314 24.5034 183.596 24.5963C183.907 24.6939 184.232 24.7423 184.559 24.7397C184.844 24.7645 185.131 24.7083 185.385 24.5776C185.46 24.5304 185.521 24.4649 185.562 24.3873C185.604 24.3098 185.625 24.2228 185.623 24.1349C185.623 24.0632 185.606 23.9925 185.573 23.9285C185.541 23.8646 185.493 23.8093 185.435 23.767C185.244 23.6354 185.033 23.5364 184.809 23.474L183.746 23.131C183.443 23.0451 183.163 22.894 182.926 22.6883C182.835 22.6003 182.764 22.4944 182.717 22.3774C182.669 22.2604 182.647 22.1348 182.651 22.0087C182.65 21.8654 182.684 21.7241 182.751 21.5972C182.827 21.4584 182.934 21.3389 183.064 21.248C183.229 21.1318 183.417 21.0492 183.614 21.0049C183.874 20.9402 184.141 20.9108 184.409 20.9176C184.598 20.9161 184.786 20.9307 184.972 20.9612C185.155 20.9909 185.335 21.0347 185.51 21.0922C185.677 21.1476 185.839 21.2186 185.992 21.3042C186.13 21.3802 186.258 21.4723 186.374 21.5785L186.086 21.9214C185.868 21.7345 185.618 21.5887 185.348 21.4912C185.045 21.3923 184.728 21.3438 184.409 21.3478C184.19 21.336 183.973 21.388 183.783 21.4974C183.718 21.5349 183.664 21.5884 183.625 21.6528C183.587 21.7172 183.566 21.7904 183.564 21.8653C183.561 21.9365 183.576 22.0073 183.608 22.0711C183.636 22.1377 183.682 22.1958 183.739 22.2394C183.815 22.2998 183.899 22.3482 183.99 22.3828L184.378 22.5262L185.473 22.8692C185.773 22.9563 186.053 23.1049 186.292 23.3056C186.384 23.3942 186.455 23.5013 186.501 23.6196C186.548 23.7379 186.568 23.8647 186.562 23.9915Z" fill="white"/>
<path d="M189.22 24.7707C189.392 24.7742 189.564 24.7467 189.727 24.6897C189.875 24.6434 190.01 24.5621 190.121 24.4527C190.233 24.3305 190.319 24.1861 190.371 24.0288C190.434 23.827 190.464 23.6164 190.459 23.4052V21.0172H191.297V23.4052C191.316 23.6526 191.276 23.9008 191.182 24.1302C191.087 24.3597 190.94 24.564 190.753 24.7271C190.29 25.0086 189.759 25.1576 189.217 25.1576C188.675 25.1576 188.143 25.0086 187.68 24.7271C187.494 24.5637 187.348 24.3592 187.254 24.1297C187.161 23.9002 187.122 23.6521 187.142 23.4052V21.0172H187.975V23.4052C187.968 23.617 188 23.8282 188.068 24.0288C188.118 24.1872 188.204 24.3322 188.319 24.4527C188.428 24.5607 188.561 24.6418 188.707 24.6897C188.871 24.7468 189.045 24.7743 189.22 24.7707Z" fill="white"/>
</svg>
