<svg width="157" height="36" viewBox="0 0 157 36" fill="none" xmlns="http://www.w3.org/2000/svg">
<path fill-rule="evenodd" clip-rule="evenodd" d="M1.10864e-06 5.94296H0.594626C1.11884 5.94257 1.638 6.04647 2.12242 6.24872C2.60684 6.45097 3.04704 6.74761 3.41786 7.12169C3.78867 7.49576 4.08283 7.93994 4.28353 8.42884C4.48423 8.91774 4.58753 9.44178 4.58753 9.971V30.5224H3.99291C3.46844 30.5228 2.94904 30.4188 2.46443 30.2163C1.97981 30.0139 1.53948 29.717 1.16862 29.3426C0.797771 28.9682 0.503671 28.5237 0.303148 28.0344C0.102624 27.5452 -0.000389846 27.0208 1.10864e-06 26.4913V5.94296Z" fill="white"/>
<path fill-rule="evenodd" clip-rule="evenodd" d="M20.5329 18.9576L14.108 12.4713C13.5263 11.8358 13.1999 11.0044 13.1923 10.1391L13.1715 8.53931V0H12.5768C11.5187 0 10.5038 0.424381 9.75554 1.17978C9.00728 1.93519 8.58691 2.95973 8.58691 4.02804V10.5773V11.3307C8.60724 11.9826 8.7411 12.6257 8.98234 13.2307C9.2413 13.8776 9.62193 14.4678 10.1032 14.9686L15.3805 20.4493C16.0663 21.0595 16.5793 21.8425 16.8671 22.7185C17.0564 23.4149 17.1749 24.1289 17.2209 24.8496C17.2744 25.66 17.2209 26.0292 17.316 26.0502C17.643 26.1312 18.7788 22.8596 18.7788 22.8596L17.872 21.6589L20.5329 18.9576Z" fill="white"/>
<path d="M12.834 23.6158C12.559 22.9774 12.1801 22.39 11.7131 21.8779C11.4318 21.54 11.1268 21.223 10.8003 20.9294L5.79657 15.7788C5.07287 14.8014 4.65184 13.6296 4.58651 12.4111V11.7057V10.5051V10.0099C4.58651 8.94158 4.16614 7.91703 3.41788 7.16163C2.66963 6.40622 1.65477 5.98184 0.596578 5.98184H0.00195312V13.0534V14.4191C0.036979 15.7803 0.577071 17.0786 1.51527 18.0569L6.78662 23.5377C6.81338 23.5647 6.92338 23.6578 7.06609 23.7898C7.29146 23.9964 7.50489 24.2159 7.70531 24.4472C8.01439 24.786 8.25836 25.1799 8.42481 25.6088C8.55861 25.9599 8.62227 26.3342 8.61212 26.7103L8.63293 28.3071V36H9.22755C10.2857 36 11.3006 35.5756 12.0489 34.8202C12.7971 34.0648 13.2175 33.0403 13.2175 31.972V26.2691C13.2175 26.017 13.2175 25.7648 13.2175 25.5157C13.2025 24.8644 13.0726 24.221 12.834 23.6158Z" fill="white"/>
<path fill-rule="evenodd" clip-rule="evenodd" d="M17.1992 5.94296H17.7938C18.3181 5.94257 18.8372 6.04647 19.3216 6.24872C19.8061 6.45097 20.2463 6.74761 20.6171 7.12169C20.9879 7.49576 21.2821 7.93994 21.4827 8.42884C21.6834 8.91774 21.7867 9.44178 21.7867 9.971V30.5224H21.1921C20.6679 30.5224 20.1488 30.4181 19.6646 30.2155C19.1803 30.0129 18.7403 29.7159 18.3698 29.3415C17.9992 28.9672 17.7054 28.5228 17.5051 28.0337C17.3047 27.5447 17.2018 27.0206 17.2022 26.4913V5.94296H17.1992Z" fill="white"/>
<path fill-rule="evenodd" clip-rule="evenodd" d="M154.836 13.1866C153.892 12.4533 152.667 12.4533 151.377 12.4533H143.768C142.469 12.4533 141.244 12.4533 140.31 13.1866C139.282 13.9846 138.803 15.516 138.803 18C138.803 20.4841 139.297 21.9905 140.31 22.8135C141.253 23.5468 142.479 23.5468 143.768 23.5468H151.377C152.672 23.5468 153.897 23.5468 154.836 22.8135C155.864 22.0104 156.343 20.4841 156.343 18C156.343 15.516 155.864 13.9846 154.836 13.1866ZM154.228 22.0154C153.556 22.5441 152.543 22.5442 151.372 22.5442H143.763C142.592 22.5442 141.58 22.5441 140.903 22.0154C140.152 21.4318 139.786 20.115 139.786 18.025C139.786 15.935 140.152 14.5932 140.903 14.0046C141.58 13.4808 142.592 13.4808 143.763 13.4808H151.372C152.543 13.4808 153.556 13.4808 154.228 14.0046C154.979 14.5932 155.345 15.905 155.345 18.025C155.345 20.1449 154.969 21.4318 154.228 22.0154Z" fill="white"/>
<path d="M42.5792 13.3014V23.043H40.6029V18.7982H34.9307V23.043H32.9297V13.3014H34.9307V17.7557H40.5831V13.3014H42.5792Z" fill="white"/>
<path d="M49.728 13.0219C50.4933 13.0139 51.2551 13.1266 51.986 13.3561C52.6264 13.5636 53.217 13.9033 53.7202 14.3537C54.21 14.8012 54.5948 15.3533 54.8467 15.9698C55.3802 17.3955 55.3802 18.9686 54.8467 20.3942C54.5976 21.0123 54.2124 21.565 53.7202 22.0104C53.2195 22.4643 52.6281 22.8045 51.986 23.008C51.2557 23.2398 50.4935 23.3526 49.728 23.3422C48.9625 23.3523 48.2004 23.2395 47.47 23.008C46.8244 22.8057 46.2296 22.4654 45.7259 22.0104C45.2352 21.5658 44.853 21.0127 44.6092 20.3942C44.0821 18.9674 44.0821 17.3966 44.6092 15.9698C44.8555 15.3527 45.2373 14.8001 45.7259 14.3537C46.232 13.9021 46.8261 13.5623 47.47 13.3561C48.2009 13.127 48.9627 13.0143 49.728 13.0219ZM49.728 14.0195C49.278 14.0155 48.8316 14.1002 48.4137 14.2689C48.003 14.434 47.6371 14.6957 47.3465 15.0321C47.0199 15.4122 46.7729 15.855 46.6202 16.334C46.2645 17.5466 46.2645 18.8374 46.6202 20.0501C46.7729 20.529 47.0199 20.9719 47.3465 21.3519C47.6382 21.6883 48.0036 21.9514 48.4137 22.1201C49.2606 22.4528 50.2003 22.4528 51.0472 22.1201C51.4573 21.9514 51.8227 21.6883 52.1144 21.3519C52.4393 20.9706 52.6861 20.5282 52.8407 20.0501C53.1964 18.8374 53.1964 17.5466 52.8407 16.334C52.6861 15.8559 52.4393 15.4134 52.1144 15.0321C51.83 14.6964 51.4711 14.4332 51.067 14.2639C50.6425 14.0869 50.1873 13.997 49.728 13.9995V14.0195Z" fill="white"/>
<path d="M65.8803 20.4689C65.8844 20.8572 65.7999 21.2413 65.6333 21.5913C65.4505 21.9601 65.1722 22.272 64.8279 22.4941C64.3841 22.7803 63.8942 22.9863 63.3802 23.1026C62.6632 23.2611 61.9303 23.3347 61.1964 23.3221C60.7183 23.3237 60.2408 23.287 59.7685 23.2124C59.3193 23.1419 58.8765 23.0351 58.4443 22.8931C58.0426 22.7642 57.6538 22.5972 57.2832 22.3943C56.9539 22.216 56.647 21.9983 56.3691 21.7459L57.0559 20.9129C57.5971 21.3744 58.2211 21.7266 58.8939 21.9504C59.6374 22.1931 60.415 22.3127 61.1964 22.3045C61.878 22.3599 62.5616 22.2254 63.1727 21.9155C63.3538 21.8036 63.5025 21.6456 63.6039 21.4574C63.7054 21.2691 63.756 21.0573 63.7508 20.843C63.7501 20.6686 63.7085 20.4968 63.6295 20.3416C63.5505 20.1865 63.4363 20.0523 63.2962 19.9502C62.822 19.6314 62.2997 19.3922 61.7498 19.2419L59.1163 18.3839C58.3848 18.1867 57.7084 17.8213 57.1399 17.3165C56.9209 17.1037 56.7487 16.8466 56.6346 16.5622C56.5206 16.2777 56.4671 15.9721 56.4778 15.6654C56.4773 15.318 56.5604 14.9757 56.7199 14.6678C56.897 14.3269 57.1551 14.0355 57.471 13.8199C57.8652 13.5458 58.3055 13.3464 58.7704 13.2313C59.3962 13.0785 60.0387 13.0065 60.6825 13.0168C61.1329 13.0176 61.5824 13.056 62.0264 13.1315C62.4629 13.2007 62.8927 13.3075 63.3111 13.4507C63.7058 13.5816 64.0878 13.7485 64.4524 13.9495C64.7836 14.1314 65.0921 14.3524 65.3714 14.608L64.6797 15.446C64.1619 14.9907 63.5634 14.6387 62.9158 14.4084C62.1978 14.1583 61.442 14.0367 60.6825 14.0493C60.1411 14.0133 59.6013 14.14 59.1311 14.4134C58.9758 14.5074 58.8472 14.6405 58.758 14.7996C58.6688 14.9587 58.622 15.1384 58.6222 15.3213C58.6192 15.4928 58.6529 15.6629 58.721 15.8201C58.7961 15.9777 58.906 16.1159 59.0422 16.2241C59.2249 16.3699 59.4281 16.4875 59.6449 16.5733C59.892 16.683 60.1983 16.7927 60.5689 16.9174L63.1925 17.7554C63.918 17.9627 64.5916 18.3232 65.1688 18.8129C65.4 19.0197 65.5836 19.2752 65.7065 19.5613C65.8294 19.8474 65.8887 20.1572 65.8803 20.4689Z" fill="white"/>
<path d="M72.229 13.3012C72.8557 13.2923 73.4806 13.3695 74.0867 13.5306C74.5881 13.6603 75.0597 13.8873 75.4751 14.199C75.8443 14.4785 76.1424 14.8427 76.3447 15.2615C76.548 15.7143 76.6532 16.2058 76.6532 16.703C76.6532 17.2002 76.548 17.6917 76.3447 18.1446C76.1435 18.5654 75.8453 18.9315 75.4751 19.212C75.0609 19.5257 74.5889 19.7529 74.0867 19.8804C73.4806 20.0415 72.8557 20.1187 72.229 20.1099H69.2644V23.0329H67.2881V13.3012H72.229ZM69.2644 14.3437V19.0773H72.229C72.5459 19.092 72.8625 19.0417 73.1596 18.9294C73.4567 18.8171 73.7282 18.6451 73.9576 18.4239C74.1871 18.2026 74.3697 17.9367 74.4944 17.6422C74.6192 17.3478 74.6835 17.0308 74.6835 16.7105C74.6835 16.3902 74.6192 16.0732 74.4944 15.7787C74.3697 15.4843 74.1871 15.2184 73.9576 14.9971C73.7282 14.7759 73.4567 14.6039 73.1596 14.4916C72.8625 14.3793 72.5459 14.329 72.229 14.3437H69.2644Z" fill="white"/>
<path d="M80.1551 23.043H78.1787V13.3014H80.1551V23.043Z" fill="white"/>
<path d="M90.6988 14.3439H86.9784V23.043H85.002V14.3439H81.2568V13.3014H90.6988V14.3439Z" fill="white"/>
<path d="M98.0742 13.3012L102.027 23.0429H100.051L99.1365 20.6786H93.8991L92.99 23.0429H91.0137L94.9664 13.3012H98.0742ZM94.3537 19.6361H98.6424L96.5722 14.4834H96.4338L94.3537 19.6361Z" fill="white"/>
<path d="M111.034 22.0004V23.043H103.089V13.3013H105.065V22.0004H111.034Z" fill="white"/>
<path d="M114.275 23.043H112.299V13.3014H114.275V23.043Z" fill="white"/>
<path d="M124.831 14.3439H121.105V23.043H119.129V14.3439H115.403V13.3014H124.831V14.3439Z" fill="white"/>
<path d="M131.441 20.12V23.043H129.465V20.12L124.988 13.3014H127.192L130.433 18.2445H130.502L133.744 13.3014H135.947L131.441 20.12Z" fill="white"/>
<path d="M147.311 18.7932C147.313 18.9207 147.286 19.047 147.232 19.1623C147.171 19.2844 147.079 19.3877 146.965 19.4616C146.814 19.5594 146.646 19.6287 146.471 19.6661C146.234 19.716 145.992 19.7394 145.749 19.7359C145.584 19.7382 145.419 19.7265 145.255 19.701C145.108 19.6772 144.963 19.6422 144.821 19.5962C144.688 19.5497 144.559 19.493 144.435 19.4266C144.326 19.367 144.224 19.2932 144.134 19.2072L144.361 18.9328C144.54 19.0858 144.746 19.2027 144.969 19.277C145.215 19.3551 145.472 19.3938 145.73 19.3917C145.955 19.4116 146.181 19.3666 146.382 19.262C146.441 19.2243 146.489 19.1719 146.522 19.1098C146.555 19.0478 146.571 18.9782 146.57 18.9079C146.57 18.8505 146.556 18.794 146.53 18.7428C146.505 18.6917 146.467 18.6474 146.421 18.6136C146.271 18.5083 146.104 18.4291 145.927 18.3792L145.087 18.1048C144.849 18.0361 144.628 17.9152 144.44 17.7507C144.369 17.6802 144.312 17.5955 144.275 17.5019C144.237 17.4083 144.22 17.3078 144.223 17.207C144.222 17.0923 144.249 16.9793 144.302 16.8777C144.362 16.7667 144.446 16.6711 144.549 16.5984C144.68 16.5054 144.827 16.4393 144.984 16.4039C145.189 16.3521 145.4 16.3286 145.611 16.334C145.76 16.3329 145.909 16.3446 146.056 16.369C146.2 16.3927 146.342 16.4277 146.481 16.4737C146.613 16.5181 146.74 16.5749 146.861 16.6433C146.97 16.7042 147.071 16.7778 147.163 16.8628L146.935 17.1371C146.763 16.9876 146.566 16.871 146.352 16.793C146.113 16.7138 145.863 16.6751 145.611 16.6782C145.438 16.6688 145.267 16.7104 145.117 16.7979C145.066 16.8279 145.023 16.8707 144.992 16.9222C144.962 16.9738 144.945 17.0323 144.944 17.0922C144.942 17.1492 144.953 17.2058 144.979 17.2568C145.001 17.3102 145.037 17.3566 145.082 17.3915C145.142 17.4398 145.209 17.4785 145.28 17.5062L145.586 17.621L146.451 17.8953C146.689 17.965 146.909 18.0839 147.098 18.2445C147.17 18.3154 147.227 18.401 147.263 18.4956C147.3 18.5903 147.316 18.6917 147.311 18.7932Z" fill="white"/>
<path d="M149.41 19.4166C149.546 19.4193 149.682 19.3974 149.81 19.3517C149.928 19.3147 150.034 19.2497 150.122 19.1622C150.21 19.0644 150.278 18.9488 150.319 18.823C150.369 18.6616 150.392 18.4931 150.388 18.3242V16.4138H151.05V18.3242C151.065 18.522 151.034 18.7206 150.959 18.9042C150.885 19.0877 150.769 19.2512 150.621 19.3817C150.255 19.6069 149.836 19.726 149.408 19.726C148.98 19.726 148.56 19.6069 148.195 19.3817C148.047 19.251 147.932 19.0873 147.858 18.9037C147.784 18.7201 147.754 18.5217 147.77 18.3242V16.4138H148.427V18.3242C148.422 18.4936 148.447 18.6625 148.501 18.823C148.54 18.9498 148.608 19.0658 148.699 19.1622C148.785 19.2486 148.89 19.3134 149.005 19.3517C149.135 19.3974 149.272 19.4194 149.41 19.4166Z" fill="white"/>
</svg>
