<svg width="40" height="40" viewBox="0 0 40 40" fill="none" xmlns="http://www.w3.org/2000/svg">
<path d="M38.5779 26.6664H34.6666V25.4217C34.6666 24.6362 34.0302 23.9997 33.2447 23.9997H30.7553C29.9698 23.9997 29.3334 24.6362 29.3334 25.4217V26.6665H24.6665V21.9998H26.5781C27.3631 21.9998 28.0001 21.3632 28.0001 20.5779V18.0885C28.0001 17.3032 27.3631 16.6666 26.5781 16.6666H24.6665V10.8242L26.5963 6.96471C26.8179 6.52143 26.4956 5.99991 26 5.99991H20.6667V3.99994H28.6666C29.7681 3.99994 30.6666 3.10146 30.6666 1.99997C30.6666 0.898478 29.7681 0 28.6666 0H11.3333C10.2318 0 9.33331 0.898478 9.33331 1.99997C9.33331 3.10146 10.2318 3.99994 11.3333 3.99994H19.3333V5.99991H14C13.5043 5.99991 13.182 6.52143 13.4037 6.96471L15.3332 10.8237V16.6666H13.4221C12.6366 16.6666 12.0002 17.303 12.0002 18.0885V20.5779C12.0002 21.3634 12.6366 21.9998 13.4221 21.9998H15.3332V26.6665H10.6667V25.4217C10.6667 24.6362 10.0303 23.9997 9.24475 23.9997H6.75535C5.96981 23.9997 5.33337 24.6362 5.33337 25.4217V26.6665H1.42198C0.636449 26.6665 0 27.303 0 28.0886V35.9112C0 36.6968 0.636449 37.3332 1.42198 37.3332H5.33329V38.5778C5.33329 39.3633 5.96974 39.9997 6.75527 39.9997H9.24459C10.0301 39.9997 10.6666 39.3633 10.6666 38.5778V37.3332H29.3332V38.5778C29.3332 39.3633 29.9696 39.9997 30.7552 39.9997H33.2445C34.03 39.9997 34.6665 39.3633 34.6665 38.5778V37.3331H38.5778C39.3633 37.3331 39.9998 36.6966 39.9998 35.9111V28.0884C40 27.3029 39.3635 26.6664 38.5779 26.6664ZM10.6667 1.99989C10.6667 1.63477 10.9682 1.33326 11.3333 1.33326H28.6666C29.0318 1.33326 29.3333 1.63477 29.3333 1.99989C29.3333 2.36502 29.0318 2.66652 28.6666 2.66652H11.3333C10.9682 2.6666 10.6667 2.36502 10.6667 1.99989ZM24.9213 7.33326L23.5879 9.99994H16.412L15.0787 7.33326H24.9213ZM16.6665 11.3332H23.3331V16.6666H16.6665V11.3332ZM13.4221 20.6666C13.373 20.6666 13.3335 20.627 13.3335 20.5779V18.0885C13.3335 18.0394 13.373 17.9999 13.4221 17.9999H15.3332H24.6665H26.5781C26.6269 17.9999 26.6667 18.0398 26.6667 18.0885V20.5779C26.6667 20.6267 26.6269 20.6665 26.5781 20.6665H24.6665H15.3332H13.4221V20.6666ZM16.6665 21.9998H23.3331V26.6665H16.6665V21.9998ZM1.42198 35.9999C1.37282 35.9999 1.33334 35.9603 1.33334 35.9112V28.0886C1.33334 28.0394 1.3729 27.9999 1.42198 27.9999H5.33329V35.9999H1.42198ZM9.24467 38.6664H6.75535C6.70618 38.6664 6.66671 38.6269 6.66671 38.5778V36.6665V27.3332V25.4217C6.66671 25.3726 6.70626 25.3331 6.75535 25.3331H9.24467C9.29383 25.3331 9.33331 25.3726 9.33331 25.4217V27.3305C9.33331 27.3314 9.33315 27.3323 9.33315 27.3332V36.6665C9.33315 36.6674 9.33331 36.6683 9.33331 36.6692V38.5778C9.33331 38.6269 9.29383 38.6664 9.24467 38.6664ZM29.3332 35.9999H10.6667V27.9998H15.3331H24.6665H29.3331V35.9999H29.3332ZM33.3333 38.5777C33.3333 38.6269 33.2937 38.6663 33.2447 38.6663H30.7553C30.7062 38.6663 30.6667 38.6268 30.6667 38.5777V25.4217C30.6667 25.3726 30.7062 25.3331 30.7553 25.3331H33.2447C33.2938 25.3331 33.3333 25.3726 33.3333 25.4217V27.333V36.6664V38.5777ZM38.6667 35.9111C38.6667 35.9603 38.6271 35.9997 38.578 35.9997H34.6667V27.9998H38.578C38.6272 27.9998 38.6667 28.0393 38.6667 28.0884V35.9111Z" fill="black"/>
</svg>
