<svg width="40" height="40" viewBox="0 0 40 40" fill="none" xmlns="http://www.w3.org/2000/svg">
<path d="M15.3188 17.2031C12.1862 17.2031 9.6377 19.7553 9.6377 22.8921C9.6377 24.9837 11.2863 26.6821 11.474 26.8688C11.7833 27.1762 12.1911 27.8569 12.3233 28.2841L12.7771 30.1444C12.8878 30.5991 13.2952 30.9193 13.7633 30.9193H16.8738C17.3418 30.9193 17.7492 30.5994 17.8601 30.1447L18.3142 28.2837C18.446 27.8577 18.8535 27.1767 19.1632 26.8688C19.3511 26.6821 20.9993 24.9836 20.9993 22.8921C20.9996 19.7551 18.4512 17.2031 15.3188 17.2031ZM17.7318 25.429C17.1722 25.9855 16.5827 26.9752 16.3604 27.7308C16.3559 27.7459 16.3519 27.7612 16.3481 27.7765L16.0765 28.8889H14.5609L14.2896 27.7768C14.286 27.7611 14.2816 27.7455 14.277 27.73C14.0538 26.9735 13.4643 25.9843 12.9077 25.4311C12.5629 25.0839 11.6682 23.951 11.6682 22.8922C11.6682 20.8749 13.3058 19.2337 15.3188 19.2337C17.3315 19.2337 18.9691 20.8749 18.9691 22.8922C18.9691 23.9509 18.0744 25.0839 17.7318 25.429Z" fill="black"/>
<path d="M28.7196 0H1.91757C1.35676 0 0.902344 0.454416 0.902344 1.01523V38.9848C0.902344 39.5456 1.35676 40 1.91757 40H28.7196C29.2804 40 29.7348 39.5456 29.7348 38.9848V1.01523C29.7348 0.454416 29.2804 0 28.7196 0ZM27.7044 37.9695H2.9328V2.03046H27.7044V37.9695Z" fill="black"/>
<path d="M6.38437 11.878H24.2524C24.8132 11.878 25.2676 11.4235 25.2676 10.8627V5.48203C25.2676 4.92121 24.8132 4.4668 24.2524 4.4668H6.38437C5.82356 4.4668 5.36914 4.92121 5.36914 5.48203V10.8627C5.36914 11.4235 5.82369 11.878 6.38437 11.878ZM7.3996 6.49725H23.2372V9.84751H7.3996V6.49725Z" fill="black"/>
<path d="M16.4352 31.8447H14.2018C13.6409 31.8447 13.1865 32.2991 13.1865 32.86C13.1865 33.4208 13.6409 33.8752 14.2018 33.8752H16.4352C16.9961 33.8752 17.4505 33.4208 17.4505 32.86C17.4505 32.2991 16.9961 31.8447 16.4352 31.8447Z" fill="black"/>
<path d="M15.3541 34.4844H15.2828C14.722 34.4844 14.2676 34.9388 14.2676 35.4996C14.2676 36.0604 14.722 36.5148 15.2828 36.5148H15.3541C15.915 36.5148 16.3694 36.0604 16.3694 35.4996C16.3694 34.9388 15.9148 34.4844 15.3541 34.4844Z" fill="black"/>
<path d="M15.3541 16.007C15.915 16.007 16.3694 15.5526 16.3694 14.9918C16.3694 14.431 15.915 13.9766 15.3541 13.9766H15.2828C14.722 13.9766 14.2676 14.431 14.2676 14.9918C14.2676 15.5526 14.722 16.007 15.2828 16.007H15.3541Z" fill="black"/>
<path d="M10.2786 16.7516C10.2786 16.1907 9.82414 15.7363 9.26332 15.7363H9.19199C8.63117 15.7363 8.17676 16.1907 8.17676 16.7516C8.17676 17.3124 8.63131 17.7668 9.19199 17.7668H9.26332C9.824 17.7668 10.2786 17.3124 10.2786 16.7516Z" fill="black"/>
<path d="M21.4459 15.7363H21.3746C20.8138 15.7363 20.3594 16.1907 20.3594 16.7516C20.3594 17.3124 20.8138 17.7668 21.3746 17.7668H21.4459C22.0068 17.7668 22.4612 17.3124 22.4612 16.7516C22.4612 16.1907 22.0066 15.7363 21.4459 15.7363Z" fill="black"/>
<path d="M23.7467 20.6768H23.6754C23.1146 20.6768 22.6602 21.1312 22.6602 21.692C22.6602 22.2528 23.1146 22.7072 23.6754 22.7072H23.7467C24.3075 22.7072 24.7619 22.2528 24.7619 21.692C24.7619 21.1312 24.3074 20.6768 23.7467 20.6768Z" fill="black"/>
<path d="M7.36782 20.6768H7.29648C6.7358 20.6768 6.28125 21.1312 6.28125 21.692C6.28125 22.2528 6.7358 22.7072 7.29648 22.7072H7.36782C7.92863 22.7072 8.38305 22.2528 8.38305 21.692C8.38305 21.1312 7.92849 20.6768 7.36782 20.6768Z" fill="black"/>
<path d="M32.1719 30.5165C32.1719 30.6741 32.2086 30.8296 32.2791 30.9707L34.7273 35.8672C34.8993 36.211 35.2507 36.4284 35.6353 36.4284C36.0199 36.4284 36.3714 36.2112 36.5433 35.8672L38.9917 30.9707C39.0622 30.8296 39.0989 30.6741 39.0989 30.5165V6.46347C39.0989 5.90266 38.6444 5.44824 38.0836 5.44824H33.1871C32.6263 5.44824 32.1719 5.90266 32.1719 6.46347V30.5165ZM34.2023 29.5013V10.743H37.0684V29.5013H34.2023ZM37.0684 7.4787V8.71254H34.2023V7.4787H37.0684ZM35.6353 33.143L34.8298 31.5319H36.4409L35.6353 33.143Z" fill="black"/>
</svg>
