<svg width="44" height="44" viewBox="0 0 44 44" fill="none" xmlns="http://www.w3.org/2000/svg">
<path d="M40.0911 22.8241H38.4428V21.1759C38.4428 18.4562 35.9705 17.0553 33.4981 17.0553H8.77362C5.47714 17.0553 2.18066 15.0775 2.18066 11.2864C2.18066 7.49538 5.47714 5.51758 8.77362 5.51758H34.4868C37.7833 5.51758 40.0911 7.82538 40.0911 11.2864V15.407H38.4428V11.286C38.4428 8.73134 36.9596 7.16538 34.4868 7.16538H8.77362C6.30126 7.16538 3.8289 8.56634 3.8289 11.286C3.8289 14.0056 6.30126 15.4066 8.77362 15.4066H33.4977C36.7941 15.4066 40.0906 17.3844 40.0906 21.1754V22.8241H40.0911Z" fill="black"/>
<path d="M34.3222 38.483H7.9495C4.40574 38.483 2.18066 36.1884 2.18066 32.5337V11.2861H3.8289V32.5337C3.8289 35.2534 5.31214 36.7833 7.9495 36.7833H34.3218C36.7941 36.7833 38.4424 35.0835 38.4424 32.5337V30.834H40.0906V32.5337C40.0911 36.0181 37.701 38.483 34.3222 38.483Z" fill="black"/>
<path d="M33.0853 8.81348H7.53711V10.4617H33.0853V8.81348Z" fill="black"/>
<path d="M33.0853 12.1104H15.7783V13.7586H33.0853V12.1104Z" fill="black"/>
<path d="M40.0906 31.8899H35.1459C32.4263 31.8899 30.2012 29.6648 30.2012 26.9452C30.2012 24.2251 32.4263 22 35.1459 22H40.0906C41.4916 22 42.563 23.0714 42.563 24.4724V29.4171C42.563 30.8185 41.4916 31.8899 40.0906 31.8899ZM35.1459 23.6482C33.3327 23.6482 31.8494 25.1315 31.8494 26.9447C31.8494 28.758 33.3327 30.2412 35.1459 30.2412H40.0906C40.5852 30.2412 40.9147 29.9116 40.9147 29.4171V24.4724C40.9147 23.9778 40.5852 23.6482 40.0906 23.6482H35.1459Z" fill="black"/>
<path d="M35.9704 29.4174C34.5694 29.4174 33.498 28.346 33.498 26.945C33.498 25.5441 34.5694 24.4727 35.9704 24.4727C37.3714 24.4727 38.4428 25.5441 38.4428 26.945C38.4428 28.346 37.3714 29.4174 35.9704 29.4174ZM35.9704 26.1209C35.4758 26.1209 35.1463 26.4505 35.1463 26.945C35.1463 27.4396 35.4758 27.7691 35.9704 27.7691C36.465 27.7691 36.7945 27.4396 36.7945 26.945C36.7945 26.4505 36.465 26.1209 35.9704 26.1209Z" fill="black"/>
</svg>
