<svg width="20" height="20" viewBox="0 0 20 20" fill="none" xmlns="http://www.w3.org/2000/svg">
<path d="M9.16669 1.66663H7.50002C3.33335 1.66663 1.66669 3.33329 1.66669 7.49996V12.5C1.66669 16.6666 3.33335 18.3333 7.50002 18.3333H12.5C16.6667 18.3333 18.3334 16.6666 18.3334 12.5V10.8333" stroke="#1A2528" stroke-width="1.5" stroke-linecap="round" stroke-linejoin="round"/>
<path d="M13.3667 2.51663L6.80002 9.0833C6.55002 9.3333 6.30002 9.82497 6.25002 10.1833L5.89169 12.6916C5.75835 13.6 6.40002 14.2333 7.30835 14.1083L9.81669 13.75C10.1667 13.7 10.6584 13.45 10.9167 13.2L17.4834 6.6333C18.6167 5.49997 19.15 4.1833 17.4834 2.51663C15.8167 0.849966 14.5 1.3833 13.3667 2.51663Z" stroke="#1A2528" stroke-width="1.5" stroke-miterlimit="10" stroke-linecap="round" stroke-linejoin="round"/>
<path d="M12.425 3.45837C12.9833 5.45004 14.5417 7.00837 16.5417 7.57504" stroke="#1A2528" stroke-width="1.5" stroke-miterlimit="10" stroke-linecap="round" stroke-linejoin="round"/>
</svg>
