<svg width="790" height="609" viewBox="0 0 790 609" fill="none" xmlns="http://www.w3.org/2000/svg">
<path d="M112.35 253V205.492H6.42V172.108L112.35 28.3H160.5V165.688H185.859V205.492H160.5V253H112.35ZM51.36 165.688H112.35V81.907L51.36 165.688Z" fill="white"/>
<path d="M700.35 253V205.492H594.42V172.108L700.35 28.3H748.5V165.688H773.859V205.492H748.5V253H700.35ZM639.36 165.688H700.35V81.907L639.36 165.688Z" fill="white"/>
<path d="M288.163 165.44C293.874 219.398 339.527 261.439 395 261.439C450.473 261.439 496.126 219.398 501.837 165.44C488.587 164.217 475.571 160.999 463.235 155.876C447.14 149.192 432.516 139.395 420.198 127.045C409.916 116.736 401.409 104.817 395 91.7742C388.591 104.817 380.084 116.736 369.802 127.045C357.484 139.395 342.86 149.192 326.765 155.876C314.429 160.999 301.413 164.217 288.163 165.44Z" fill="white"/>
<path d="M288.855 137.276C298.201 136.117 307.368 133.699 316.104 130.071C328.819 124.791 340.371 117.052 350.103 107.295C359.834 97.5384 367.553 85.9557 372.82 73.2082C376.214 64.993 378.546 56.3978 379.776 47.6313C333.123 54.2487 296.114 90.8326 288.855 137.276Z" fill="white"/>
<path d="M473.896 130.071C482.632 133.699 491.799 136.117 501.145 137.276C493.886 90.8326 456.877 54.2487 410.224 47.6313C411.454 56.3978 413.786 64.993 417.18 73.2082C422.447 85.9557 430.166 97.5384 439.897 107.295C449.629 117.052 461.181 124.791 473.896 130.071Z" fill="white"/>
<path fill-rule="evenodd" clip-rule="evenodd" d="M535.56 216.681C523.313 243.897 526.305 279.567 545.058 302.783C571.724 335.798 587.693 377.813 587.693 423.557C587.693 467.271 573.111 553.623 548.545 595.824C543.367 604.718 533.353 608.998 523.062 608.998H267.631C257.339 608.998 247.326 604.718 242.148 595.824C217.582 553.623 203 467.271 203 423.557C203 377.813 218.968 335.798 245.635 302.784C264.387 279.567 267.38 243.897 255.132 216.682C246.48 197.456 241.666 176.13 241.666 153.68C241.666 68.8048 310.471 0 395.346 0C480.221 0 549.026 68.8048 549.026 153.68C549.026 176.13 544.212 197.456 535.56 216.681ZM444.342 280.773C495.059 261.018 531 211.706 531 154C531 78.8893 470.111 18 395 18C319.889 18 259 78.8893 259 154C259 211.706 294.941 261.018 345.658 280.773C324.552 299.197 315.775 327.675 314 345C362.852 340.573 385.894 325.017 395 307.757C404.106 325.017 427.148 340.573 476 345C474.225 327.675 465.448 299.197 444.342 280.773Z" fill="white"/>
</svg>
