<svg width="72" height="72" viewBox="0 0 72 72" fill="none" xmlns="http://www.w3.org/2000/svg">
<circle cx="36" cy="36" r="35.5" stroke="#1C1C1C"/>
<path d="M44.032 30.0129L38.9413 29.2732L36.665 24.6604C36.603 24.5349 36.5072 24.4292 36.3884 24.3553C36.2695 24.2814 36.1324 24.2422 35.9924 24.2422C35.8524 24.2422 35.7153 24.2814 35.5964 24.3553C35.4775 24.4292 35.3817 24.5349 35.3198 24.6604L33.0426 29.2732L27.952 30.0129C27.8135 30.0329 27.6834 30.0913 27.5764 30.1814C27.4693 30.2716 27.3896 30.3899 27.3464 30.5229C27.3031 30.656 27.2979 30.7985 27.3314 30.9344C27.3649 31.0703 27.4358 31.194 27.536 31.2917L31.2201 34.8828L30.3504 39.9534C30.3268 40.0913 30.3423 40.2331 30.3951 40.3627C30.4479 40.4923 30.5358 40.6045 30.6491 40.6867C30.7623 40.7689 30.8963 40.8178 31.0358 40.8279C31.1754 40.838 31.315 40.8088 31.4389 40.7437L35.9923 38.3502L40.5457 40.7436C40.6696 40.8087 40.8092 40.8378 40.9487 40.8277C41.0882 40.8176 41.2222 40.7687 41.3354 40.6865C41.4486 40.6043 41.5365 40.4921 41.5893 40.3625C41.6421 40.2329 41.6575 40.0912 41.634 39.9533L40.7643 34.8828L44.448 31.2917C44.5482 31.194 44.619 31.0703 44.6525 30.9344C44.686 30.7986 44.6808 30.6561 44.6375 30.523C44.5942 30.39 44.5146 30.2717 44.4076 30.1816C44.3006 30.0914 44.1705 30.033 44.032 30.013V30.0129ZM39.4345 34.0844C39.3476 34.1693 39.2825 34.2741 39.2449 34.3897C39.2074 34.5053 39.1984 34.6283 39.2189 34.7481L39.8986 38.709L36.3412 36.8391C36.2337 36.7821 36.1139 36.7523 35.9922 36.7523C35.8705 36.7523 35.7507 36.7821 35.6432 36.8391L32.0858 38.7089L32.7651 34.748C32.7856 34.6282 32.7766 34.5052 32.7391 34.3897C32.7015 34.2741 32.6365 34.1693 32.5495 34.0844L29.6714 31.2785L33.6485 30.7006C33.7688 30.6832 33.8831 30.6368 33.9815 30.5653C34.0798 30.4938 34.1593 30.3995 34.2131 30.2905L35.9922 26.687L37.7705 30.2905C37.8244 30.3995 37.904 30.4939 38.0024 30.5653C38.1009 30.6368 38.2152 30.6832 38.3356 30.7006L42.3126 31.2786L39.4345 34.0844Z" fill="#1C1C1C"/>
<path d="M50.7276 19.5059H21.2724C20.0071 19.5073 18.794 20.0106 17.8993 20.9053C17.0046 21.8 16.5014 23.0131 16.5 24.2784V41.8118C16.5014 43.0771 17.0046 44.2902 17.8993 45.1849C18.794 46.0796 20.0071 46.5829 21.2724 46.5843H29.6623V53.7445C29.6623 53.8928 29.7063 54.0378 29.7887 54.1611C29.8712 54.2845 29.9883 54.3806 30.1253 54.4374C30.2624 54.4941 30.4132 54.509 30.5587 54.48C30.7041 54.4511 30.8378 54.3796 30.9427 54.2747L38.6323 46.5843H50.7276C51.9929 46.5829 53.206 46.0796 54.1007 45.1849C54.9954 44.2902 55.4986 43.0771 55.5 41.8118V24.2784C55.4986 23.0131 54.9954 21.8 54.1007 20.9053C53.206 20.0106 51.9929 19.5073 50.7276 19.5059ZM54 41.8119C53.9991 42.6795 53.654 43.5113 53.0405 44.1249C52.427 44.7384 51.5952 45.0835 50.7276 45.0844H38.3218C38.2233 45.0844 38.1258 45.1038 38.0348 45.1415C37.9438 45.1792 37.8611 45.2344 37.7915 45.3041L31.1624 51.934V45.8342C31.1624 45.7357 31.143 45.6382 31.1054 45.5472C31.0677 45.4562 31.0124 45.3735 30.9428 45.3039C30.8731 45.2342 30.7905 45.179 30.6994 45.1413C30.6084 45.1036 30.5109 45.0842 30.4124 45.0842H21.2723C20.4048 45.0832 19.573 44.7382 18.9595 44.1247C18.3461 43.5112 18.001 42.6795 18 41.8119V24.2784C18.0009 23.4108 18.346 22.5789 18.9595 21.9654C19.573 21.3519 20.4048 21.0068 21.2724 21.0059H50.7276C51.5952 21.0068 52.427 21.3519 53.0405 21.9654C53.654 22.5789 53.9991 23.4108 54 24.2784V41.8119Z" fill="#1C1C1C"/>
</svg>
