<svg width="32" height="32" viewBox="0 0 32 32" fill="none" xmlns="http://www.w3.org/2000/svg">
<g clip-path="url(#clip0_4438_4685)">
<path d="M0 15.36C0 8.1192 0 4.49884 2.24942 2.24942C4.49884 0 8.1192 0 15.36 0H16.64C23.8808 0 27.5011 0 29.7506 2.24942C32 4.49884 32 8.1192 32 15.36V16.64C32 23.8808 32 27.5011 29.7506 29.7506C27.5011 32 23.8808 32 16.64 32H15.36C8.1192 32 4.49884 32 2.24942 29.7506C0 27.5011 0 23.8808 0 16.64V15.36Z" fill="#0077FF"/>
<path d="M16.8038 22C10.6539 22 7.14616 17.8709 7 11H10.0806C10.1818 16.043 12.4528 18.1792 14.2517 18.6196V11H17.1525V15.3493C18.9289 15.1622 20.795 13.1802 21.4246 11H24.3253C23.8419 13.6867 21.8181 15.6687 20.379 16.4835C21.8181 17.1441 24.123 18.8729 25 22H21.8069C21.1211 19.9079 19.4123 18.2893 17.1525 18.0691V22H16.8038Z" fill="white"/>
</g>
<defs>
<clipPath id="clip0_4438_4685">
<rect width="32" height="32" rx="16" fill="white"/>
</clipPath>
</defs>
</svg>
