<svg width="32" height="32" viewBox="0 0 32 32" fill="none" xmlns="http://www.w3.org/2000/svg">
<rect width="32" height="32" rx="16" fill="#ED1D24"/>
<path d="M23.8025 11.8739C23.6152 11.1364 23.0634 10.5555 22.3628 10.3584C21.0927 10.0002 16.0001 10.0002 16.0001 10.0002C16.0001 10.0002 10.9075 10.0002 9.6375 10.3584C8.93686 10.5555 8.38499 11.1364 8.19774 11.8739C7.85742 13.2108 7.85742 16 7.85742 16C7.85742 16 7.85742 18.7893 8.19774 20.1262C8.38499 20.8636 8.93686 21.4446 9.6375 21.6417C10.9075 22 16.0001 22 16.0001 22C16.0001 22 21.0927 22 22.3628 21.6417C23.0634 21.4446 23.6152 20.8636 23.8025 20.1262C24.1428 18.7893 24.1428 16 24.1428 16C24.1428 16 24.1428 13.2108 23.8025 11.8739Z" fill="white"/>
<path d="M14.3716 18.5713L18.6025 15.9999L14.3716 13.4285V18.5713Z" fill="#ED1D24"/>
</svg>
