<svg width="20" height="20" viewBox="0 0 20 20" fill="none" xmlns="http://www.w3.org/2000/svg">
<path fill-rule="evenodd" clip-rule="evenodd" d="M12.1058 7.6001H9.56164C8.99248 7.6001 8.59081 7.0426 8.77081 6.50343V6.50343C9.04998 5.6651 9.83414 5.1001 10.7175 5.1001H10.9491C11.8325 5.1001 12.6166 5.6651 12.8958 6.50343V6.50343C13.0758 7.0426 12.6741 7.6001 12.1058 7.6001V7.6001Z" stroke="#AEAEB5" stroke-width="1.5" stroke-linecap="round" stroke-linejoin="round"/>
<path d="M5.82748 11.0525H3.33331C2.82164 11.0525 2.43081 11.5092 2.50998 12.0142L2.79664 13.8475C3.04998 15.4708 4.44748 16.6667 6.08998 16.6667H13.91C15.5525 16.6667 16.95 15.4708 17.2033 13.8483L17.49 12.015C17.5691 11.51 17.1783 11.0533 16.6666 11.0533H10.2191" stroke="#AEAEB5" stroke-width="1.5" stroke-linecap="round" stroke-linejoin="round"/>
<path d="M10.8333 5.1V5C10.8333 3.61917 11.9525 2.5 13.3333 2.5V2.5C14.7141 2.5 15.8333 3.61917 15.8333 5V11.0525" stroke="#AEAEB5" stroke-width="1.5" stroke-linecap="round" stroke-linejoin="round"/>
<path fill-rule="evenodd" clip-rule="evenodd" d="M8.46498 14.3858H7.58748C6.61915 14.3858 5.83331 13.6008 5.83331 12.6317V10.9608C5.83331 10.43 6.26331 10 6.79415 10H9.25831C9.78915 10 10.2191 10.43 10.2191 10.9608V12.6317C10.2191 13.6008 9.43415 14.3858 8.46498 14.3858Z" stroke="#AEAEB5" stroke-width="1.5" stroke-linecap="round" stroke-linejoin="round"/>
<path d="M5.03335 16.5L4.16669 17.5" stroke="#AEAEB5" stroke-width="1.5" stroke-linecap="round" stroke-linejoin="round"/>
<path d="M15.8333 17.5L14.9667 16.5" stroke="#AEAEB5" stroke-width="1.5" stroke-linecap="round" stroke-linejoin="round"/>
</svg>
