<svg width="20" height="20" viewBox="0 0 20 20" fill="none" xmlns="http://www.w3.org/2000/svg">
<path d="M16.6666 17.4999H3.33331" stroke="#0077FF" stroke-width="1.5" stroke-linecap="round" stroke-linejoin="round"/>
<path fill-rule="evenodd" clip-rule="evenodd" d="M12.4208 3.05495V3.05495C15.655 4.42745 17.3608 7.99412 16.3992 11.3733L16.3367 11.5941C16.0633 12.5566 15.0083 13.0608 14.0875 12.67L4.34749 8.53495C3.42666 8.14412 3.05666 7.03495 3.55916 6.16912L3.67416 5.96995C5.43749 2.93245 9.1875 1.68162 12.4208 3.05495Z" stroke="#0077FF" stroke-width="1.5" stroke-linecap="round" stroke-linejoin="round"/>
<path d="M12.4208 3.05493L12.6366 3.92743C13.2775 6.52326 12.715 9.2691 11.1041 11.4033V11.4033" stroke="#0077FF" stroke-width="1.5" stroke-linecap="round" stroke-linejoin="round"/>
<path d="M12.4208 3.05493L11.6433 3.50576C9.33079 4.84743 7.74662 7.16076 7.32996 9.8016V9.8016" stroke="#0077FF" stroke-width="1.5" stroke-linecap="round" stroke-linejoin="round"/>
<path d="M9.21663 10.6L6.29163 17.5" stroke="#0077FF" stroke-width="1.5" stroke-linecap="round" stroke-linejoin="round"/>
</svg>
