<svg width="24" height="24" viewBox="0 0 24 24" fill="none" xmlns="http://www.w3.org/2000/svg">
<path d="M20 21H4" stroke="#AEAEB5" stroke-width="2" stroke-linecap="round" stroke-linejoin="round"/>
<path fill-rule="evenodd" clip-rule="evenodd" d="M14.905 3.66603V3.66603C18.786 5.31303 20.833 9.59303 19.679 13.648L19.604 13.913C19.276 15.068 18.01 15.673 16.905 15.204L5.21699 10.242C4.11199 9.77303 3.66799 8.44203 4.27099 7.40303L4.40899 7.16403C6.52499 3.51903 11.025 2.01803 14.905 3.66603Z" stroke="#AEAEB5" stroke-width="2" stroke-linecap="round" stroke-linejoin="round"/>
<path d="M14.905 3.66602L15.164 4.71302C15.933 7.82802 15.258 11.123 13.325 13.684V13.684" stroke="#AEAEB5" stroke-width="2" stroke-linecap="round" stroke-linejoin="round"/>
<path d="M14.9049 3.66602L13.9719 4.20702C11.1969 5.81702 9.2959 8.59301 8.7959 11.762V11.762" stroke="#AEAEB5" stroke-width="2" stroke-linecap="round" stroke-linejoin="round"/>
<path d="M11.06 12.72L7.55005 21" stroke="#AEAEB5" stroke-width="2" stroke-linecap="round" stroke-linejoin="round"/>
</svg>
