<svg width="100" height="100" viewBox="0 0 100 100" fill="none" xmlns="http://www.w3.org/2000/svg">
<rect x="0.5" y="0.5" width="99" height="99" rx="49.5" stroke="#1C92FF" stroke-opacity="0.3"/>
<path opacity="0.4" d="M64.68 54.9798L62.68 51.6598C62.26 50.9198 61.88 49.5198 61.88 48.6998V43.6398C61.88 37.1198 56.58 31.7998 50.04 31.7998C43.5 31.7998 38.2 37.1198 38.2 43.6398V48.6998C38.2 49.5198 37.82 50.9198 37.4 51.6398L35.38 54.9798C34.58 56.3198 34.4 57.7998 34.9 59.1598C35.38 60.4998 36.52 61.5398 38 62.0398C41.88 63.3598 45.96 63.9998 50.04 63.9998C54.12 63.9998 58.2 63.3598 62.08 62.0598C63.48 61.5998 64.56 60.5398 65.08 59.1598C65.6 57.7798 65.46 56.2598 64.68 54.9798Z" fill="#1C92FF"/>
<path d="M54.5 32.64C53.12 32.1 51.62 31.8 50.04 31.8C48.48 31.8 46.98 32.08 45.6 32.64C46.46 31.02 48.16 30 50.04 30C51.94 30 53.62 31.02 54.5 32.64Z" fill="#1C92FF"/>
<path d="M55.66 66.02C54.82 68.34 52.6 70 50 70C48.42 70 46.86 69.36 45.76 68.22C45.12 67.62 44.64 66.82 44.36 66C44.62 66.04 44.88 66.06 45.16 66.1C45.62 66.16 46.1 66.22 46.58 66.26C47.72 66.36 48.88 66.42 50.04 66.42C51.18 66.42 52.32 66.36 53.44 66.26C53.86 66.22 54.28 66.2 54.68 66.14C55 66.1 55.32 66.06 55.66 66.02Z" fill="#1C92FF"/>
</svg>
