<svg width="20" height="20" viewBox="0 0 20 20" fill="none" xmlns="http://www.w3.org/2000/svg">
<path d="M6.66673 18.3333H13.3334C16.6834 18.3333 17.2834 16.9917 17.4584 15.3583L18.0834 8.69167C18.3084 6.65833 17.7251 5 14.1667 5H5.83339C2.27506 5 1.69173 6.65833 1.91673 8.69167L2.54173 15.3583C2.71673 16.9917 3.31673 18.3333 6.66673 18.3333Z" stroke="#353546" stroke-width="1.5" stroke-miterlimit="10" stroke-linecap="round" stroke-linejoin="round"/>
<path d="M6.66663 5.00008V4.33341C6.66663 2.85841 6.66663 1.66675 9.33329 1.66675H10.6666C13.3333 1.66675 13.3333 2.85841 13.3333 4.33341V5.00008" stroke="#353546" stroke-width="1.5" stroke-miterlimit="10" stroke-linecap="round" stroke-linejoin="round"/>
<path d="M11.6667 10.8333V11.6667C11.6667 11.675 11.6667 11.675 11.6667 11.6833C11.6667 12.5917 11.6584 13.3333 10 13.3333C8.35004 13.3333 8.33337 12.6 8.33337 11.6917V10.8333C8.33337 10 8.33337 10 9.16671 10H10.8334C11.6667 10 11.6667 10 11.6667 10.8333Z" stroke="#353546" stroke-width="1.5" stroke-miterlimit="10" stroke-linecap="round" stroke-linejoin="round"/>
<path d="M18.0416 9.16675C16.1166 10.5667 13.9166 11.4001 11.6666 11.6834" stroke="#353546" stroke-width="1.5" stroke-miterlimit="10" stroke-linecap="round" stroke-linejoin="round"/>
<path d="M2.18335 9.3916C4.05835 10.6749 6.17502 11.4499 8.33335 11.6916" stroke="#353546" stroke-width="1.5" stroke-miterlimit="10" stroke-linecap="round" stroke-linejoin="round"/>
</svg>
