<svg width="32" height="32" viewBox="0 0 32 32" fill="none" xmlns="http://www.w3.org/2000/svg">
<path d="M10.6666 2.66663V6.66663" stroke="#0077FF" stroke-width="2.5" stroke-miterlimit="10" stroke-linecap="round" stroke-linejoin="round"/>
<path d="M21.3334 2.66663V6.66663" stroke="#0077FF" stroke-width="2.5" stroke-miterlimit="10" stroke-linecap="round" stroke-linejoin="round"/>
<path d="M21.3333 4.66663C25.7733 4.90663 28 6.59996 28 12.8666V21.1066C28 26.6 26.6667 29.3466 20 29.3466H12C5.33333 29.3466 4 26.6 4 21.1066V12.8666C4 6.59996 6.22667 4.91996 10.6667 4.66663H21.3333Z" stroke="#0077FF" stroke-width="2.5" stroke-miterlimit="10" stroke-linecap="round" stroke-linejoin="round"/>
<path d="M27.6667 23.4667H4.33337" stroke="#0077FF" stroke-width="2.5" stroke-miterlimit="10" stroke-linecap="round" stroke-linejoin="round"/>
<path d="M16 11C14.36 11 12.9733 11.8933 12.9733 13.6267C12.9733 14.4533 13.36 15.08 13.9466 15.48C13.1333 15.96 12.6666 16.7333 12.6666 17.64C12.6666 19.2933 13.9333 20.32 16 20.32C18.0533 20.32 19.3333 19.2933 19.3333 17.64C19.3333 16.7333 18.8666 15.9467 18.04 15.48C18.64 15.0667 19.0133 14.4533 19.0133 13.6267C19.0133 11.8933 17.64 11 16 11ZM16 14.7867C15.3066 14.7867 14.8 14.3733 14.8 13.72C14.8 13.0533 15.3066 12.6667 16 12.6667C16.6933 12.6667 17.2 13.0533 17.2 13.72C17.2 14.3733 16.6933 14.7867 16 14.7867ZM16 18.6667C15.12 18.6667 14.48 18.2267 14.48 17.4267C14.48 16.6267 15.12 16.2 16 16.2C16.88 16.2 17.52 16.64 17.52 17.4267C17.52 18.2267 16.88 18.6667 16 18.6667Z" fill="#0077FF"/>
</svg>
