<svg width="100" height="100" viewBox="0 0 100 100" fill="none" xmlns="http://www.w3.org/2000/svg">
<rect x="0.5" y="0.5" width="99" height="99" rx="49.5" stroke="#1C92FF" stroke-opacity="0.3"/>
<path opacity="0.4" d="M64.96 51.9H69V49.02C69 44.88 65.62 41.5 61.48 41.5H38.52C34.38 41.5 31 44.88 31 49.02V62.48C31 66.62 34.38 70 38.52 70H61.48C65.62 70 69 66.62 69 62.48V60.1H65.2C63.04 60.1 61.06 58.52 60.88 56.36C60.76 55.1 61.24 53.92 62.08 53.1C62.82 52.34 63.84 51.9 64.96 51.9ZM39.2 67.16C38.9 67.44 38.52 67.58 38.14 67.58C37.76 67.58 37.38 67.44 37.08 67.16L36.02 66.1L34.92 67.2C34.62 67.5 34.24 67.64 33.86 67.64C33.48 67.64 33.1 67.5 32.8 67.2C32.22 66.62 32.22 65.66 32.8 65.08L33.9 63.98L32.84 62.92C32.26 62.34 32.26 61.38 32.84 60.8C33.44 60.22 34.38 60.22 34.98 60.8L36.02 61.86L37.02 60.84C37.62 60.26 38.56 60.26 39.16 60.84C39.74 61.44 39.74 62.38 39.16 62.98L38.14 63.98L39.2 65.02C39.78 65.62 39.78 66.56 39.2 67.16Z" fill="#1C92FF"/>
<path d="M55.7 33.9V41.5H38.52C34.38 41.5 31 44.88 31 49.02V41.68C31 39.3 32.46 37.1799 34.68 36.3399L50.56 30.3399C53.04 29.4199 55.7 31.24 55.7 33.9Z" fill="#1C92FF"/>
<path d="M71.12 53.9398V58.0599C71.12 59.1599 70.24 60.0599 69.12 60.0999H65.2C63.04 60.0999 61.06 58.5199 60.88 56.3599C60.76 55.0999 61.24 53.9199 62.08 53.0999C62.82 52.3399 63.84 51.8999 64.96 51.8999H69.12C70.24 51.9399 71.12 52.8398 71.12 53.9398Z" fill="#1C92FF"/>
<path d="M54 51.5H40C39.18 51.5 38.5 50.82 38.5 50C38.5 49.18 39.18 48.5 40 48.5H54C54.82 48.5 55.5 49.18 55.5 50C55.5 50.82 54.82 51.5 54 51.5Z" fill="#1C92FF"/>
<path d="M36 56C34.12 56 32.38 56.66 31 57.76C29.16 59.22 28 61.48 28 64C28 65.5 28.42 66.92 29.16 68.12C30.54 70.44 33.08 72 36 72C38.02 72 39.86 71.26 41.26 70C41.88 69.48 42.42 68.84 42.84 68.12C43.58 66.92 44 65.5 44 64C44 59.58 40.42 56 36 56ZM32.84 62.92C32.26 62.34 32.26 61.38 32.84 60.8C33.44 60.22 34.38 60.22 34.98 60.8L36.02 61.86L37.02 60.84C37.62 60.26 38.56 60.26 39.16 60.84C39.74 61.44 39.74 62.38 39.16 62.98L38.14 63.98L39.2 65.02C39.78 65.62 39.78 66.56 39.2 67.16C38.9 67.44 38.52 67.58 38.14 67.58C37.76 67.58 37.38 67.44 37.08 67.16L36.02 66.1L34.92 67.2C34.62 67.5 34.24 67.64 33.86 67.64C33.48 67.64 33.1 67.5 32.8 67.2C32.22 66.62 32.22 65.66 32.8 65.08L33.9 63.98L32.84 62.92Z" fill="#1C92FF"/>
</svg>
