<svg width="100" height="100" viewBox="0 0 100 100" fill="none" xmlns="http://www.w3.org/2000/svg">
<rect x="0.5" y="0.5" width="99" height="99" rx="49.5" stroke="#1C92FF" stroke-opacity="0.3"/>
<path opacity="0.4" d="M70 38.5V48.7C70 51.24 69.16 53.38 67.66 54.86C66.18 56.36 64.04 57.2 61.5 57.2V60.8199C61.5 62.1799 59.98 63 58.86 62.24L56.92 60.96C57.1 60.34 57.18 59.6599 57.18 58.9399V50.8C57.18 46.72 54.46 44 50.38 44H36.8C36.52 44 36.26 44.02 36 44.04V38.5C36 33.4 39.4 30 44.5 30H61.5C66.6 30 70 33.4 70 38.5Z" fill="#1C92FF"/>
<path d="M57.18 50.8V58.9399C57.18 59.6599 57.1 60.34 56.92 60.96C56.18 63.9 53.74 65.74 50.38 65.74H44.94L38.9 69.76C38 70.38 36.8 69.72 36.8 68.64V65.74C34.76 65.74 33.06 65.06 31.88 63.88C30.68 62.68 30 60.9799 30 58.9399V50.8C30 47 32.36 44.38 36 44.04C36.26 44.02 36.52 44 36.8 44H50.38C54.46 44 57.18 46.72 57.18 50.8Z" fill="#1C92FF"/>
</svg>
