<svg width="100" height="100" viewBox="0 0 100 100" fill="none" xmlns="http://www.w3.org/2000/svg">
<rect x="0.5" y="0.5" width="99" height="99" rx="49.5" stroke="#1C92FF" stroke-opacity="0.3"/>
<path d="M69.58 67.52L68.14 66.08C68.88 64.96 69.32 63.6 69.32 62.16C69.32 58.2 66.12 55 62.16 55C58.2 55 55 58.2 55 62.16C55 66.12 58.2 69.32 62.16 69.32C63.62 69.32 64.96 68.88 66.08 68.14L67.52 69.58C67.8 69.86 68.18 70 68.54 70C68.92 70 69.28 69.86 69.56 69.58C70.14 69 70.14 68.08 69.58 67.52Z" fill="#1C92FF"/>
<path opacity="0.4" d="M30.06 55.26C30.06 55.32 30.02 55.4 30.02 55.46C31.86 59.14 34.86 62.16 38.54 63.98C38.6 63.98 38.68 63.94 38.74 63.94C38.06 61.62 37.54 59.24 37.16 56.86C34.76 56.46 32.38 55.94 30.06 55.26Z" fill="#1C92FF"/>
<path opacity="0.4" d="M64.14 38.86C62.26 34.92 59.08 31.74 55.16 29.88C55.88 32.26 56.48 34.7 56.88 37.14C59.32 37.54 61.76 38.12 64.14 38.86Z" fill="#1C92FF"/>
<path opacity="0.4" d="M29.86 38.86C32.26 38.14 34.7 37.5401 37.14 37.1401C37.54 34.7601 38.04 32.4001 38.72 30.0801C38.66 30.0801 38.58 30.04 38.52 30.04C34.76 31.9 31.7 35.04 29.86 38.86Z" fill="#1C92FF"/>
<path opacity="0.4" d="M53.64 36.72C53.16 34.12 52.56 31.52 51.7 29C51.66 28.86 51.66 28.74 51.64 28.58C50.16 28.22 48.6 27.98 47 27.98C45.38 27.98 43.84 28.2 42.34 28.58C42.32 28.72 42.34 28.84 42.3 29C41.46 31.52 40.84 34.12 40.36 36.72C44.78 36.24 49.22 36.24 53.64 36.72Z" fill="#1C92FF"/>
<path opacity="0.4" d="M36.72 40.36C34.1 40.84 31.52 41.44 29 42.3C28.86 42.34 28.74 42.34 28.58 42.36C28.22 43.84 27.98 45.4 27.98 47C27.98 48.62 28.2 50.16 28.58 51.66C28.72 51.68 28.84 51.66 29 51.7C31.52 52.54 34.1 53.16 36.72 53.64C36.24 49.22 36.24 44.78 36.72 40.36Z" fill="#1C92FF"/>
<path opacity="0.4" d="M65.4 42.36C65.26 42.36 65.14 42.34 64.98 42.3C62.46 41.46 59.86 40.84 57.26 40.36C57.76 44.78 57.76 49.22 57.26 53.62C59.86 53.14 62.46 52.54 64.98 51.68C65.12 51.64 65.24 51.66 65.4 51.64C65.76 50.14 66 48.6 66 46.98C66 45.4 65.78 43.86 65.4 42.36Z" fill="#1C92FF"/>
<path opacity="0.4" d="M40.36 57.28C40.84 59.9 41.44 62.48 42.3 65C42.34 65.14 42.32 65.26 42.34 65.42C43.84 65.78 45.38 66.02 47 66.02C48.6 66.02 50.16 65.8 51.64 65.42C51.66 65.28 51.66 65.16 51.7 65C52.54 62.48 53.16 59.9 53.64 57.28C51.44 57.52 49.22 57.7 47 57.7C44.78 57.68 42.56 57.52 40.36 57.28Z" fill="#1C92FF"/>
<path opacity="0.4" d="M39.9 39.9C39.3 44.62 39.3 49.3799 39.9 54.1199C44.62 54.7199 49.38 54.7199 54.12 54.1199C54.72 49.3999 54.72 44.64 54.12 39.9C49.38 39.3 44.62 39.3 39.9 39.9Z" fill="#1C92FF"/>
</svg>
