<svg width="26" height="26" viewBox="0 0 26 26" fill="none" xmlns="http://www.w3.org/2000/svg">
<path d="M17.8967 6.12109L14.5383 3.52109C14.105 3.08776 13.13 2.87109 12.48 2.87109H8.36334C7.06334 2.87109 5.65501 3.84609 5.33001 5.14609L2.73001 13.0544C2.18834 14.5711 3.16334 15.8711 4.78834 15.8711H9.12167C9.77167 15.8711 10.3133 16.4128 10.205 17.1711L9.66334 20.6378C9.44667 21.6128 10.0967 22.6961 11.0717 23.0211C11.9383 23.3461 13.0217 22.9128 13.455 22.2628L17.8967 15.6544" stroke="#353546" stroke-width="2" stroke-miterlimit="10"/>
<path d="M23.4217 6.12083V16.7375C23.4217 18.2542 22.7717 18.7958 21.255 18.7958H20.1717C18.655 18.7958 18.005 18.2542 18.005 16.7375V6.12083C18.005 4.60417 18.655 4.0625 20.1717 4.0625H21.255C22.7717 4.0625 23.4217 4.60417 23.4217 6.12083Z" stroke="#353546" stroke-width="2" stroke-linecap="round" stroke-linejoin="round"/>
</svg>
