<svg width="27" height="26" viewBox="0 0 27 26" fill="none" xmlns="http://www.w3.org/2000/svg">
<path d="M24.3334 13C24.3334 7.01999 19.48 2.16666 13.5 2.16666C7.52002 2.16666 2.66669 7.01999 2.66669 13C2.66669 18.98 7.52002 23.8333 13.5 23.8333" stroke="#AEAEB5" stroke-width="2" stroke-linecap="round" stroke-linejoin="round"/>
<path d="M9.16669 3.25H10.25C8.13752 9.57667 8.13752 16.4233 10.25 22.75H9.16669" stroke="#AEAEB5" stroke-width="2" stroke-linecap="round" stroke-linejoin="round"/>
<path d="M16.75 3.25C17.8008 6.41333 18.3317 9.70667 18.3317 13" stroke="#AEAEB5" stroke-width="2" stroke-linecap="round" stroke-linejoin="round"/>
<path d="M3.75 17.3333V16.25C6.91333 17.3008 10.2067 17.8317 13.5 17.8317" stroke="#AEAEB5" stroke-width="2" stroke-linecap="round" stroke-linejoin="round"/>
<path d="M3.75 9.74996C10.0767 7.63746 16.9233 7.63746 23.25 9.74996" stroke="#AEAEB5" stroke-width="2" stroke-linecap="round" stroke-linejoin="round"/>
<path d="M20.2167 23.1834C22.1313 23.1834 23.6833 21.6313 23.6833 19.7167C23.6833 17.8021 22.1313 16.25 20.2167 16.25C18.3021 16.25 16.75 17.8021 16.75 19.7167C16.75 21.6313 18.3021 23.1834 20.2167 23.1834Z" stroke="#AEAEB5" stroke-width="2" stroke-linecap="round" stroke-linejoin="round"/>
<path d="M24.3333 23.8333L23.25 22.75" stroke="#AEAEB5" stroke-width="2" stroke-linecap="round" stroke-linejoin="round"/>
</svg>
