<svg width="26" height="26" viewBox="0 0 26 26" fill="none" xmlns="http://www.w3.org/2000/svg">
<g clip-path="url(#clip0_4682_932)">
<path d="M9.92334 11.7759C9.815 11.7651 9.685 11.7651 9.56584 11.7759C6.9875 11.6892 4.94 9.57675 4.94 6.97675C4.94 4.32258 7.085 2.16675 9.75 2.16675C12.4042 2.16675 14.56 4.32258 14.56 6.97675C14.5492 9.57675 12.5017 11.6892 9.92334 11.7759Z" stroke="#AEAEB5" stroke-width="2" stroke-linecap="round" stroke-linejoin="round"/>
<path d="M17.7775 4.33325C19.8792 4.33325 21.5692 6.03409 21.5692 8.12492C21.5692 10.1724 19.9442 11.8408 17.9183 11.9166C17.8317 11.9058 17.7342 11.9058 17.6367 11.9166" stroke="#AEAEB5" stroke-width="2" stroke-linecap="round" stroke-linejoin="round"/>
<path d="M4.50666 15.7733C1.88499 17.5283 1.88499 20.3883 4.50666 22.1324C7.48582 24.1258 12.3717 24.1258 15.3508 22.1324C17.9725 20.3774 17.9725 17.5174 15.3508 15.7733C12.3825 13.7908 7.49665 13.7908 4.50666 15.7733Z" stroke="#AEAEB5" stroke-width="2" stroke-linecap="round" stroke-linejoin="round"/>
<path d="M19.8683 21.6667C20.6483 21.5042 21.385 21.1901 21.9917 20.7242C23.6817 19.4567 23.6817 17.3659 21.9917 16.0984C21.3958 15.6434 20.67 15.3401 19.9008 15.1667" stroke="#AEAEB5" stroke-width="2" stroke-linecap="round" stroke-linejoin="round"/>
</g>
<defs>
<clipPath id="clip0_4682_932">
<rect width="26" height="26" fill="white"/>
</clipPath>
</defs>
</svg>
