<svg width="100" height="100" viewBox="0 0 100 100" fill="none" xmlns="http://www.w3.org/2000/svg">
<rect x="0.5" y="0.5" width="99" height="99" rx="49.5" stroke="#1C92FF" stroke-opacity="0.3"/>
<path opacity="0.4" d="M31.4999 63.3001C30.6799 63.3001 29.9999 62.6201 29.9999 61.8001V50.4001C29.8999 44.9801 31.9199 39.8601 35.6799 36.0201C39.4399 32.2001 44.4799 30.1001 49.8999 30.1001C60.9799 30.1001 69.9999 39.1201 69.9999 50.2001V61.6001C69.9999 62.4201 69.3199 63.1001 68.4999 63.1001C67.6799 63.1001 66.9999 62.4201 66.9999 61.6001V50.2001C66.9999 40.7801 59.3399 33.1001 49.8999 33.1001C45.2799 33.1001 40.9999 34.8801 37.8199 38.1201C34.6199 41.3801 32.9199 45.7201 32.9999 50.3601V61.7801C32.9999 62.6201 32.3399 63.3001 31.4999 63.3001Z" fill="#1C92FF"/>
<path d="M37.88 50.8999H37.62C33.42 50.8999 30 54.3199 30 58.5199V62.2799C30 66.4799 33.42 69.8999 37.62 69.8999H37.88C42.08 69.8999 45.5 66.4799 45.5 62.2799V58.5199C45.5 54.3199 42.08 50.8999 37.88 50.8999Z" fill="#1C92FF"/>
<path d="M62.38 50.8999H62.12C57.92 50.8999 54.5 54.3199 54.5 58.5199V62.2799C54.5 66.4799 57.92 69.8999 62.12 69.8999H62.38C66.58 69.8999 70 66.4799 70 62.2799V58.5199C70 54.3199 66.58 50.8999 62.38 50.8999Z" fill="#1C92FF"/>
</svg>
