<svg width="100" height="100" viewBox="0 0 100 100" fill="none" xmlns="http://www.w3.org/2000/svg">
<rect x="0.5" y="0.5" width="99" height="99" rx="49.5" stroke="#1C92FF" stroke-opacity="0.3"/>
<path opacity="0.4" d="M63.62 38.5H66.34C65.96 37.96 65.56 37.46 65.14 36.96L63.62 38.5Z" fill="#1C92FF"/>
<path opacity="0.4" d="M63.04 34.8401C62.54 34.4201 62.04 34.0201 61.5 33.6401V36.3601L63.04 34.8401Z" fill="#1C92FF"/>
<path opacity="0.4" d="M60 41.5C59.8 41.5 59.62 41.46 59.42 41.38C59.06 41.22 58.76 40.94 58.6 40.56C58.52 40.38 58.48 40.18 58.48 39.98V31.98C58.48 31.96 58.5 31.94 58.5 31.9C55.92 30.7 53.04 30 50 30C38.96 30 30 38.96 30 50C30 61.04 38.96 70 50 70C61.04 70 70 61.04 70 50C70 46.96 69.3 44.08 68.08 41.48C68.06 41.48 68.04 41.5 68 41.5H60Z" fill="#1C92FF"/>
<path d="M65.16 36.9599L71.0601 31.0599C71.6401 30.4799 71.6401 29.5199 71.0601 28.9399C70.4801 28.3599 69.5201 28.3599 68.9401 28.9399L63.04 34.8399C63.8 35.4999 64.5 36.2199 65.16 36.9599Z" fill="#1C92FF"/>
<path d="M61.5 32C61.5 31.18 60.82 30.5 60 30.5C59.2 30.5 58.56 31.14 58.52 31.92C59.56 32.42 60.56 32.98 61.5 33.64V32Z" fill="#1C92FF"/>
<path d="M69.5001 40C69.5001 39.18 68.8201 38.5 68.0001 38.5H66.3401C67.0001 39.44 67.5801 40.44 68.0601 41.48C68.8601 41.44 69.5001 40.8 69.5001 40Z" fill="#1C92FF"/>
<path d="M53.5 49.64L51.5 48.94V44.5H51.66C52.68 44.5 53.5 45.4 53.5 46.5C53.5 47.32 54.18 48 55 48C55.82 48 56.5 47.32 56.5 46.5C56.5 43.74 54.34 41.5 51.66 41.5H51.5V41C51.5 40.18 50.82 39.5 50 39.5C49.18 39.5 48.5 40.18 48.5 41V41.5H47.9C45.48 41.5 43.5 43.54 43.5 46.06C43.5 48.98 45.2 49.92 46.5 50.38L48.5 51.08V55.52H48.34C47.32 55.52 46.5 54.62 46.5 53.52C46.5 52.7 45.82 52.02 45 52.02C44.18 52.02 43.5 52.7 43.5 53.52C43.5 56.28 45.66 58.52 48.34 58.52H48.5V59.02C48.5 59.84 49.18 60.52 50 60.52C50.82 60.52 51.5 59.84 51.5 59.02V58.52H52.1C54.52 58.52 56.5 56.48 56.5 53.96C56.5 51.02 54.8 50.08 53.5 49.64ZM47.48 47.52C46.8 47.28 46.5 47.14 46.5 46.04C46.5 45.18 47.14 44.48 47.9 44.48H48.5V47.86L47.48 47.52ZM52.1 55.5H51.5V52.12L52.52 52.48C53.2 52.72 53.5 52.86 53.5 53.96C53.5 54.8 52.86 55.5 52.1 55.5Z" fill="#1C92FF"/>
</svg>
