<svg width="24" height="24" viewBox="0 0 24 24" fill="none" xmlns="http://www.w3.org/2000/svg">
<path d="M17.1799 18C19.5799 18 20.1799 16.65 20.1799 15V9C20.1799 7.35 19.5799 6 17.1799 6C14.7799 6 14.1799 7.35 14.1799 9V15C14.1799 16.65 14.7799 18 17.1799 18Z" stroke="#AEAEB5" stroke-width="2" stroke-linecap="round" stroke-linejoin="round"/>
<path d="M6.82007 18C4.42007 18 3.82007 16.65 3.82007 15V9C3.82007 7.35 4.42007 6 6.82007 6C9.22007 6 9.82007 7.35 9.82007 9V15C9.82007 16.65 9.22007 18 6.82007 18Z" stroke="#AEAEB5" stroke-width="2" stroke-linecap="round" stroke-linejoin="round"/>
<path d="M9.82007 12H14.1801" stroke="#AEAEB5" stroke-width="2" stroke-linecap="round" stroke-linejoin="round"/>
<path d="M22.5 14.5V9.5" stroke="#AEAEB5" stroke-width="2" stroke-linecap="round" stroke-linejoin="round"/>
<path d="M1.5 14.5V9.5" stroke="#AEAEB5" stroke-width="2" stroke-linecap="round" stroke-linejoin="round"/>
</svg>
