<svg width="20" height="20" viewBox="0 0 20 20" fill="none" xmlns="http://www.w3.org/2000/svg">
<path d="M14.3167 15C16.3167 15 16.8167 13.875 16.8167 12.5V7.5C16.8167 6.125 16.3167 5 14.3167 5C12.3167 5 11.8167 6.125 11.8167 7.5V12.5C11.8167 13.875 12.3167 15 14.3167 15Z" stroke="#0077FF" stroke-width="1.5" stroke-linecap="round" stroke-linejoin="round"/>
<path d="M5.68332 15C3.68332 15 3.18332 13.875 3.18332 12.5V7.5C3.18332 6.125 3.68332 5 5.68332 5C7.68332 5 8.18332 6.125 8.18332 7.5V12.5C8.18332 13.875 7.68332 15 5.68332 15Z" stroke="#0077FF" stroke-width="1.5" stroke-linecap="round" stroke-linejoin="round"/>
<path d="M8.18332 10H11.8167" stroke="#0077FF" stroke-width="1.5" stroke-linecap="round" stroke-linejoin="round"/>
<path d="M18.75 12.0833V7.91663" stroke="#0077FF" stroke-width="1.5" stroke-linecap="round" stroke-linejoin="round"/>
<path d="M1.25 12.0833V7.91663" stroke="#0077FF" stroke-width="1.5" stroke-linecap="round" stroke-linejoin="round"/>
</svg>
