<svg width="100" height="100" viewBox="0 0 100 100" fill="none" xmlns="http://www.w3.org/2000/svg">
<rect x="0.5" y="0.5" width="99" height="99" rx="49.5" stroke="white" stroke-opacity="0.4"/>
<path d="M40.7169 35.95C41.4865 35.519 42.2669 36.2958 42.2669 37.1778V57.8327C42.2669 58.7335 41.4893 59.3865 40.7169 59.85V59.85L36.8002 62.0833C34.0669 63.65 31.8169 62.35 31.8169 59.1833V42.9667C31.8169 41.9167 32.5669 40.6167 33.5002 40.0833L40.7169 35.95V35.95Z" fill="white"/>
<path d="M54.6167 40.2501C55.4272 40.6403 56.2167 41.2933 56.2167 42.1929V62.7905C56.2167 63.7054 55.4409 64.5303 54.6167 64.1334V64.1334L45.8667 59.7501V59.7501C45.0561 59.3598 44.2667 58.7068 44.2667 57.8072V37.2096C44.2667 36.2948 45.0424 35.4699 45.8667 35.8667V35.8667L54.6167 40.2501V40.2501Z" fill="white"/>
<path d="M68.6668 40.8166V57.0333C68.6668 58.0833 67.9168 59.3833 66.9835 59.9166L59.7668 64.0499V64.0499C58.9972 64.4809 58.2168 63.7042 58.2168 62.8221V42.1672C58.2168 41.2664 58.9944 40.6134 59.7668 40.1499V40.1499L63.6835 37.9166C66.4168 36.3499 68.6668 37.6499 68.6668 40.8166Z" fill="white"/>
</svg>
