<svg width="100" height="100" viewBox="0 0 100 100" fill="none" xmlns="http://www.w3.org/2000/svg">
<rect x="0.5" y="0.5" width="99" height="99" rx="49.5" stroke="white" stroke-opacity="0.4"/>
<path d="M59.2167 42.95C59.1 42.9334 58.9833 42.9334 58.8667 42.95C56.2833 42.8667 54.2333 40.75 54.2333 38.15C54.2333 35.5 56.3833 33.3334 59.05 33.3334C61.7 33.3334 63.8667 35.4834 63.8667 38.15C63.85 40.75 61.8 42.8667 59.2167 42.95Z" fill="white"/>
<path d="M64.65 54.5C62.7833 55.75 60.1667 56.2167 57.75 55.9C58.3833 54.5334 58.7167 53.0167 58.7333 51.4167C58.7333 49.7501 58.3667 48.1667 57.6667 46.7834C60.1333 46.4501 62.75 46.9167 64.6333 48.1667C67.2667 49.9 67.2667 52.75 64.65 54.5Z" fill="white"/>
<path d="M40.7333 42.95C40.85 42.9334 40.9667 42.9334 41.0833 42.95C43.6667 42.8667 45.7167 40.75 45.7167 38.15C45.7167 35.5 43.5667 33.3334 40.9 33.3334C38.25 33.3334 36.0833 35.4834 36.0833 38.15C36.1 40.75 38.15 42.8667 40.7333 42.95Z" fill="white"/>
<path d="M40.9167 51.4167C40.9167 53.0333 41.2667 54.5667 41.9 55.95C39.55 56.2 37.1 55.7 35.3 54.5167C32.6667 52.7667 32.6667 49.9167 35.3 48.1667C37.0833 46.9667 39.6 46.4833 41.9667 46.75C41.2833 48.15 40.9167 49.7333 40.9167 51.4167Z" fill="white"/>
<path d="M50.2 56.45C50.0667 56.4333 49.9167 56.4333 49.7667 56.45C46.7 56.35 44.25 53.8333 44.25 50.7333C44.25 47.5667 46.8 45 49.9833 45C53.15 45 55.7167 47.5667 55.7167 50.7333C55.7167 53.8333 53.2833 56.35 50.2 56.45Z" fill="white"/>
<path d="M44.7833 59.9C42.2667 61.5834 42.2667 64.35 44.7833 66.0167C47.65 67.9334 52.35 67.9334 55.2167 66.0167C57.7333 64.3334 57.7333 61.5667 55.2167 59.9C52.3667 57.9834 47.6667 57.9834 44.7833 59.9Z" fill="white"/>
</svg>
