<svg width="100" height="100" viewBox="0 0 100 100" fill="none" xmlns="http://www.w3.org/2000/svg">
<rect x="0.5" y="0.5" width="99" height="99" rx="49.5" stroke="white" stroke-opacity="0.4"/>
<path d="M66.3166 64.6L65.1167 63.4C65.7333 62.4666 66.1 61.3333 66.1 60.1333C66.1 56.8333 63.4333 54.1666 60.1333 54.1666C56.8333 54.1666 54.1667 56.8333 54.1667 60.1333C54.1667 63.4333 56.8333 66.1 60.1333 66.1C61.35 66.1 62.4666 65.7333 63.4 65.1166L64.6 66.3166C64.8333 66.55 65.15 66.6666 65.45 66.6666C65.7667 66.6666 66.0667 66.55 66.3 66.3166C66.7833 65.8333 66.7833 65.0666 66.3166 64.6Z" fill="white"/>
<path d="M33.3833 54.3833C33.3833 54.4333 33.35 54.5 33.35 54.55C34.8833 57.6166 37.3833 60.1333 40.45 61.6499C40.5 61.6499 40.5666 61.6166 40.6166 61.6166C40.05 59.6833 39.6167 57.6999 39.3 55.7166C37.3 55.3833 35.3166 54.95 33.3833 54.3833Z" fill="white"/>
<path d="M61.7833 40.7167C60.2167 37.4334 57.5667 34.7834 54.3 33.2334C54.9 35.2167 55.4 37.2501 55.7333 39.2834C57.7667 39.6167 59.8 40.1 61.7833 40.7167Z" fill="white"/>
<path d="M33.2166 40.7167C35.2166 40.1167 37.25 39.6167 39.2833 39.2834C39.6167 37.3001 40.0333 35.3334 40.6 33.4001C40.55 33.4001 40.4833 33.3667 40.4333 33.3667C37.3 34.9167 34.75 37.5334 33.2166 40.7167Z" fill="white"/>
<path d="M53.0333 38.9333C52.6333 36.7667 52.1333 34.6 51.4167 32.5C51.3833 32.3834 51.3833 32.2834 51.3667 32.1501C50.1333 31.8501 48.8333 31.65 47.5 31.65C46.15 31.65 44.8667 31.8334 43.6167 32.1501C43.6 32.2667 43.6166 32.3667 43.5833 32.5C42.8833 34.6 42.3666 36.7667 41.9666 38.9333C45.65 38.5333 49.35 38.5333 53.0333 38.9333Z" fill="white"/>
<path d="M38.9333 41.9667C36.75 42.3667 34.6 42.8667 32.5 43.5833C32.3833 43.6167 32.2833 43.6167 32.15 43.6333C31.85 44.8667 31.65 46.1667 31.65 47.5C31.65 48.85 31.8333 50.1333 32.15 51.3833C32.2667 51.4 32.3667 51.3834 32.5 51.4167C34.6 52.1167 36.75 52.6334 38.9333 53.0334C38.5333 49.35 38.5333 45.65 38.9333 41.9667Z" fill="white"/>
<path d="M62.8333 43.6333C62.7167 43.6333 62.6167 43.6167 62.4834 43.5833C60.3834 42.8833 58.2167 42.3667 56.05 41.9667C56.4667 45.65 56.4667 49.35 56.05 53.0167C58.2167 52.6167 60.3834 52.1167 62.4834 51.4C62.6 51.3667 62.7 51.3834 62.8333 51.3667C63.1333 50.1167 63.3333 48.8333 63.3333 47.4833C63.3333 46.1667 63.15 44.8833 62.8333 43.6333Z" fill="white"/>
<path d="M41.9666 56.0667C42.3666 58.25 42.8666 60.4 43.5833 62.5C43.6166 62.6166 43.6 62.7166 43.6167 62.8499C44.8667 63.1499 46.15 63.35 47.5 63.35C48.8333 63.35 50.1333 63.1666 51.3667 62.8499C51.3833 62.7333 51.3833 62.6333 51.4167 62.5C52.1167 60.4 52.6333 58.25 53.0333 56.0667C51.2 56.2667 49.35 56.4166 47.5 56.4166C45.65 56.4 43.8 56.2667 41.9666 56.0667Z" fill="white"/>
<path d="M41.5833 41.5834C41.0833 45.5167 41.0833 49.4834 41.5833 53.4334C45.5166 53.9334 49.4833 53.9334 53.4333 53.4334C53.9333 49.5 53.9333 45.5334 53.4333 41.5834C49.4833 41.0834 45.5166 41.0834 41.5833 41.5834Z" fill="white"/>
</svg>
