<svg width="100" height="100" viewBox="0 0 100 100" fill="none" xmlns="http://www.w3.org/2000/svg">
<rect x="0.5" y="0.5" width="99" height="99" rx="49.5" stroke="#1C92FF" stroke-opacity="0.3"/>
<path d="M50.14 43.9001C50.06 43.9001 49.94 43.9001 49.84 43.9001C47.74 43.8201 46.08 42.1201 46.08 40.0001C46.08 37.8401 47.8199 36.1001 49.9799 36.1001C52.14 36.1001 53.88 37.8601 53.88 40.0001C53.9 42.1201 52.24 43.8401 50.14 43.9001Z" fill="#1C92FF"/>
<path d="M44.5 49.9199C41.84 51.6999 41.84 54.5999 44.5 56.3799C47.52 58.3999 52.48 58.3999 55.5 56.3799C58.16 54.5999 58.16 51.6999 55.5 49.9199C52.48 47.9199 47.54 47.9199 44.5 49.9199Z" fill="#1C92FF"/>
<path opacity="0.4" d="M62 30H38C34.68 30 32 32.66 32 35.94V57.76C32 61.04 34.68 63.7 38 63.7H39.52C41.12 63.7 42.64 64.32 43.76 65.44L47.18 68.82C48.74 70.36 51.28 70.36 52.84 68.82L56.26 65.44C57.38 64.32 58.92 63.7 60.5 63.7H62C65.32 63.7 68 61.04 68 57.76V35.94C68 32.66 65.32 30 62 30ZM50 36.1C52.16 36.1 53.9 37.86 53.9 40C53.9 42.12 52.22 43.82 50.14 43.9C50.06 43.9 49.94 43.9 49.84 43.9C47.74 43.82 46.08 42.12 46.08 40C46.1 37.86 47.84 36.1 50 36.1ZM55.5 56.38C52.48 58.4 47.52 58.4 44.5 56.38C41.84 54.62 41.84 51.7 44.5 49.92C47.54 47.9 52.5 47.9 55.5 49.92C58.16 51.7 58.16 54.6 55.5 56.38Z" fill="#1C92FF"/>
</svg>
