<svg width="42" height="53" viewBox="0 0 42 53" fill="none" xmlns="http://www.w3.org/2000/svg">
<path d="M42 21.0177C42 26.4869 39.9128 31.4681 36.4921 35.2071C28.2823 44.1807 13.7177 44.1807 5.50795 35.2071C2.08723 31.4681 0 26.4869 0 21.0177C0 9.40993 9.40202 0 21 0C32.598 0 42 9.40993 42 21.0177Z" fill="#353546"/>
<path d="M5.50795 35.2071L21 52.1818L36.4921 35.2071C28.2823 44.1807 13.7177 44.1807 5.50795 35.2071Z" fill="#353546"/>
<path fill-rule="evenodd" clip-rule="evenodd" d="M12 12.8713H12.4952C12.9318 12.871 13.3642 12.9561 13.7677 13.1219C14.1711 13.2877 14.5378 13.5308 14.8466 13.8374C15.1554 14.1441 15.4004 14.5081 15.5676 14.9089C15.7348 15.3096 15.8208 15.7391 15.8208 16.1729V33.0181H15.3255C14.8887 33.0185 14.4561 32.9332 14.0525 32.7673C13.6489 32.6014 13.2822 32.358 12.9733 32.0511C12.6644 31.7442 12.4195 31.3799 12.2525 30.9789C12.0855 30.5778 11.9997 30.148 12 29.714V12.8713Z" fill="white"/>
<path fill-rule="evenodd" clip-rule="evenodd" d="M29.1012 23.5388L23.7502 18.2223C23.2657 17.7014 22.9938 17.0199 22.9875 16.3107L22.9702 14.9994V8H22.4749C21.5936 8 20.7484 8.34785 20.1252 8.96703C19.502 9.5862 19.1519 10.426 19.1519 11.3016V16.6699V17.2874C19.1688 17.8217 19.2803 18.3488 19.4812 18.8447C19.6969 19.375 20.0139 19.8587 20.4147 20.2692L24.81 24.7616C25.3812 25.2617 25.8084 25.9035 26.0481 26.6215C26.2058 27.1923 26.3045 27.7776 26.3428 28.3683C26.3873 29.0325 26.3428 29.3352 26.422 29.3524C26.6944 29.4188 27.6403 26.7372 27.6403 26.7372L26.885 25.7531L29.1012 23.5388Z" fill="white"/>
<path d="M22.6893 27.357C22.4602 26.8338 22.1447 26.3523 21.7557 25.9325C21.5215 25.6556 21.2674 25.3958 20.9955 25.1551L16.8281 20.9333C16.2253 20.1322 15.8747 19.1717 15.8203 18.173V17.5948V16.6107V16.2048C15.8203 15.3291 15.4702 14.4893 14.847 13.8702C14.2238 13.251 13.3785 12.9031 12.4972 12.9031H12.002V18.6995V19.8189C12.0311 20.9346 12.4809 21.9988 13.2623 22.8007L17.6527 27.2931C17.6749 27.3152 17.7666 27.3915 17.8854 27.4997C18.0731 27.669 18.2509 27.8489 18.4178 28.0385C18.6752 28.3162 18.8784 28.6391 19.017 28.9906C19.1285 29.2784 19.1815 29.5853 19.173 29.8935L19.1904 31.2024V37.5079H19.6856C20.5669 37.5079 21.4122 37.1601 22.0354 36.5409C22.6586 35.9217 23.0087 35.082 23.0087 34.2063V29.5319C23.0087 29.3252 23.0087 29.1185 23.0087 28.9143C22.9962 28.3805 22.888 27.8531 22.6893 27.357Z" fill="white"/>
<path fill-rule="evenodd" clip-rule="evenodd" d="M26.3242 12.8713H26.8195C27.2561 12.871 27.6884 12.9561 28.0919 13.1219C28.4954 13.2877 28.862 13.5308 29.1708 13.8374C29.4797 14.1441 29.7247 14.5081 29.8918 14.9089C30.059 15.3096 30.145 15.7391 30.145 16.1729V33.0181H29.6498C29.2132 33.0181 28.7808 32.9327 28.3775 32.7666C27.9742 32.6005 27.6077 32.3571 27.2991 32.0502C26.9905 31.7434 26.7458 31.3791 26.5789 30.9783C26.4121 30.5774 26.3264 30.1478 26.3267 29.714V12.8713H26.3242Z" fill="white"/>
</svg>
