<svg width="20" height="20" viewBox="0 0 20 20" fill="none" xmlns="http://www.w3.org/2000/svg">
<path d="M7.08335 15.8332H6.66669C3.33335 15.8332 1.66669 14.9998 1.66669 10.8332V6.6665C1.66669 3.33317 3.33335 1.6665 6.66669 1.6665H13.3334C16.6667 1.6665 18.3334 3.33317 18.3334 6.6665V10.8332C18.3334 14.1665 16.6667 15.8332 13.3334 15.8332H12.9167C12.6584 15.8332 12.4084 15.9582 12.25 16.1665L11 17.8332C10.45 18.5665 9.55002 18.5665 9.00002 17.8332L7.75002 16.1665C7.61669 15.9832 7.30835 15.8332 7.08335 15.8332Z" stroke="#0077FF" stroke-width="1.5" stroke-miterlimit="10" stroke-linecap="round" stroke-linejoin="round"/>
<path d="M13.3304 9.16667H13.3378" stroke="#0077FF" stroke-width="2.5" stroke-linecap="round" stroke-linejoin="round"/>
<path d="M9.99626 9.16667H10.0037" stroke="#0077FF" stroke-width="2.5" stroke-linecap="round" stroke-linejoin="round"/>
<path d="M6.66209 9.16667H6.66957" stroke="#0077FF" stroke-width="2.5" stroke-linecap="round" stroke-linejoin="round"/>
</svg>
