<svg width="20" height="20" viewBox="0 0 20 20" fill="none" xmlns="http://www.w3.org/2000/svg">
<path d="M3.33366 8.33331C2.41699 8.33331 1.66699 9.08331 1.66699 9.99998C1.66699 10.9166 2.41699 11.6666 3.33366 11.6666C4.25033 11.6666 5.00033 10.9166 5.00033 9.99998C5.00033 9.08331 4.25033 8.33331 3.33366 8.33331Z" fill="#353546" stroke="#353546" stroke-width="1.5"/>
<path d="M16.6667 8.33331C15.75 8.33331 15 9.08331 15 9.99998C15 10.9166 15.75 11.6666 16.6667 11.6666C17.5833 11.6666 18.3333 10.9166 18.3333 9.99998C18.3333 9.08331 17.5833 8.33331 16.6667 8.33331Z" fill="#353546" stroke="#353546" stroke-width="1.5"/>
<path d="M9.99967 8.33331C9.08301 8.33331 8.33301 9.08331 8.33301 9.99998C8.33301 10.9166 9.08301 11.6666 9.99967 11.6666C10.9163 11.6666 11.6663 10.9166 11.6663 9.99998C11.6663 9.08331 10.9163 8.33331 9.99967 8.33331Z" fill="#353546" stroke="#353546" stroke-width="1.5"/>
</svg>
