<svg width="100" height="100" viewBox="0 0 100 100" fill="none" xmlns="http://www.w3.org/2000/svg">
<rect x="0.5" y="0.5" width="99" height="99" rx="49.5" stroke="#1C92FF" stroke-opacity="0.3"/>
<path opacity="0.4" d="M41.3 67.8199C41.24 67.8199 41.16 67.8599 41.1 67.8599C37.22 65.9399 34.06 62.7599 32.12 58.8799C32.12 58.8199 32.16 58.7399 32.16 58.6799C34.6 59.3999 37.12 59.9399 39.62 60.3599C40.06 62.8799 40.58 65.3799 41.3 67.8199Z" fill="#1C92FF"/>
<path opacity="0.4" d="M67.88 58.8999C65.9 62.8799 62.6 66.0999 58.58 68.0399C59.34 65.4999 59.98 62.9399 60.4 60.3599C62.92 59.9399 65.4 59.3999 67.84 58.6799C67.82 58.7599 67.88 58.8399 67.88 58.8999Z" fill="#1C92FF"/>
<path opacity="0.4" d="M68.04 41.42C65.52 40.66 62.98 40.04 60.4 39.6C59.98 37.02 59.36 34.46 58.58 31.96C62.72 33.94 66.06 37.28 68.04 41.42Z" fill="#1C92FF"/>
<path opacity="0.4" d="M41.3 32.1801C40.58 34.6201 40.06 37.1001 39.64 39.6201C37.06 40.0201 34.5 40.6601 31.96 41.4201C33.9 37.4001 37.12 34.1001 41.1 32.1201C41.16 32.1201 41.24 32.1801 41.3 32.1801Z" fill="#1C92FF"/>
<path d="M56.98 39.18C52.34 38.66 47.66 38.66 43.02 39.18C43.52 36.44 44.16 33.7 45.06 31.06C45.1 30.9 45.08 30.78 45.1 30.62C46.68 30.24 48.3 30 50 30C51.68 30 53.32 30.24 54.88 30.62C54.9 30.78 54.9 30.9 54.94 31.06C55.84 33.72 56.48 36.44 56.98 39.18Z" fill="#1C92FF"/>
<path d="M39.18 56.98C36.42 56.48 33.7 55.84 31.06 54.94C30.9 54.9 30.78 54.92 30.62 54.9C30.24 53.32 30 51.7 30 50C30 48.32 30.24 46.68 30.62 45.12C30.78 45.1 30.9 45.1 31.06 45.06C33.72 44.18 36.42 43.52 39.18 43.02C38.68 47.66 38.68 52.34 39.18 56.98Z" fill="#1C92FF"/>
<path d="M69.9999 50C69.9999 51.7 69.7599 53.32 69.3799 54.9C69.2199 54.92 69.0999 54.9 68.9399 54.94C66.2799 55.82 63.5599 56.48 60.8199 56.98C61.3399 52.34 61.3399 47.66 60.8199 43.02C63.5599 43.52 66.2999 44.16 68.9399 45.06C69.0999 45.1 69.2199 45.12 69.3799 45.12C69.7599 46.7 69.9999 48.32 69.9999 50Z" fill="#1C92FF"/>
<path d="M56.98 60.8201C56.48 63.5801 55.84 66.3001 54.94 68.9401C54.9 69.1001 54.9 69.2201 54.88 69.3801C53.32 69.7601 51.68 70.0001 50 70.0001C48.3 70.0001 46.68 69.7601 45.1 69.3801C45.08 69.2201 45.1 69.1001 45.06 68.9401C44.18 66.2801 43.52 63.5801 43.02 60.8201C45.34 61.0801 47.66 61.2601 50 61.2601C52.34 61.2601 54.68 61.0801 56.98 60.8201Z" fill="#1C92FF"/>
<path d="M57.5267 57.5267C52.5245 58.1578 47.4755 58.1578 42.4733 57.5267C41.8422 52.5245 41.8422 47.4755 42.4733 42.4733C47.4755 41.8422 52.5245 41.8422 57.5267 42.4733C58.1578 47.4755 58.1578 52.5245 57.5267 57.5267Z" fill="#1C92FF"/>
</svg>
