<svg width="100" height="100" viewBox="0 0 100 100" fill="none" xmlns="http://www.w3.org/2000/svg">
<rect x="0.5" y="0.5" width="99" height="99" rx="49.5" stroke="#1C92FF" stroke-opacity="0.3"/>
<path opacity="0.4" d="M50 57.4V58.62H30V57.4C30 53.88 30.8799 53 34.4399 53H45.5601C49.1201 53 50 53.88 50 57.4Z" fill="#1C92FF"/>
<path d="M30 58.6201V61.6201V65.6001C30 69.1201 30.8799 70.0001 34.4399 70.0001H45.5601C49.1201 70.0001 50 69.1201 50 65.6001V61.6201V58.6201H30Z" fill="#1C92FF"/>
<g opacity="0.4">
<path fill-rule="evenodd" clip-rule="evenodd" d="M70 54.5C70.8284 54.5 71.5 55.1716 71.5 56C71.5 64.5684 64.5684 71.5 56 71.5C55.4596 71.5 54.961 71.2093 54.6947 70.7391C54.4284 70.2688 54.4357 69.6917 54.7138 69.2283L56.8137 65.7283C57.24 65.0179 58.1613 64.7875 58.8717 65.2138C59.5821 65.64 59.8124 66.5614 59.3862 67.2717L58.8436 68.1761C64.3818 66.8913 68.5 61.9332 68.5 56C68.5 55.1716 69.1716 54.5 70 54.5Z" fill="#1C92FF"/>
<path fill-rule="evenodd" clip-rule="evenodd" d="M41.1564 31.8239C35.6182 33.1087 31.5 38.0668 31.5 44C31.5 44.8284 30.8284 45.5 30 45.5C29.1716 45.5 28.5 44.8284 28.5 44C28.5 35.4316 35.4316 28.5 44 28.5C44.5404 28.5 45.039 28.7907 45.3053 29.2609C45.5716 29.7312 45.5643 30.3083 45.2862 30.7717L43.1863 34.2717C42.76 34.9821 41.8387 35.2125 41.1283 34.7862C40.4179 34.36 40.1876 33.4386 40.6138 32.7283L41.1564 31.8239Z" fill="#1C92FF"/>
</g>
<path opacity="0.4" d="M72 39H54C54 43.96 58.04 48 63 48C67.98 48 72 43.96 72 39Z" fill="#1C92FF"/>
<path d="M72 39C72 34.02 67.98 30 63 30C58.04 30 54 34.02 54 39H72Z" fill="#1C92FF"/>
</svg>
