<svg width="20" height="20" viewBox="0 0 20 20" fill="none" xmlns="http://www.w3.org/2000/svg">
<path d="M2.5 13.8483C3.455 13.4241 4.545 13.4241 5.5 13.8483C6.455 14.2724 7.545 14.2724 8.5 13.8483C9.455 13.4241 10.545 13.4241 11.5 13.8483C12.455 14.2724 13.545 14.2724 14.5 13.8483C15.455 13.4241 16.545 13.4241 17.5 13.8483" stroke="#0077FF" stroke-width="1.5" stroke-linecap="round" stroke-linejoin="round"/>
<path d="M6.66669 6.66667H13.3334" stroke="#0077FF" stroke-width="1.5" stroke-linecap="round" stroke-linejoin="round"/>
<path d="M6.66669 10H13.3334" stroke="#0077FF" stroke-width="1.5" stroke-linecap="round" stroke-linejoin="round"/>
<path d="M13.3333 11.6667V3.75C13.3333 3.06 13.8933 2.5 14.5833 2.5V2.5C15.2733 2.5 15.8333 3.06 15.8333 3.75" stroke="#0077FF" stroke-width="1.5" stroke-linecap="round" stroke-linejoin="round"/>
<path d="M6.66669 11.6667V3.75C6.66669 3.06 7.22669 2.5 7.91669 2.5V2.5C8.60669 2.5 9.16669 3.06 9.16669 3.75" stroke="#0077FF" stroke-width="1.5" stroke-linecap="round" stroke-linejoin="round"/>
<path d="M2.5 17.1817C3.455 16.7575 4.545 16.7575 5.5 17.1817C6.455 17.6058 7.545 17.6058 8.5 17.1817C9.455 16.7575 10.545 16.7575 11.5 17.1817C12.455 17.6058 13.545 17.6058 14.5 17.1817C15.455 16.7575 16.545 16.7575 17.5 17.1817" stroke="#0077FF" stroke-width="1.5" stroke-linecap="round" stroke-linejoin="round"/>
</svg>
