<svg width="24" height="24" viewBox="0 0 24 24" fill="none" xmlns="http://www.w3.org/2000/svg">
<path d="M7.92857 21V18.2314H6V16.4829H7.92857V14.4429H6V12.4514H7.92857V4H12.6429C13.8143 4 14.7929 4.22667 15.5786 4.68C16.3786 5.11714 16.9786 5.73238 17.3786 6.52571C17.7929 7.30286 18 8.20143 18 9.22143C18 10.2252 17.7929 11.1238 17.3786 11.9171C16.9786 12.7105 16.3786 13.3338 15.5786 13.7871C14.7929 14.2243 13.8143 14.4429 12.6429 14.4429H9.94286V16.4829H15V18.2314H9.94286V21H7.92857ZM9.94286 12.4514H12.5357C13.7643 12.4514 14.6429 12.16 15.1714 11.5771C15.7143 10.9943 15.9857 10.209 15.9857 9.22143C15.9857 8.23381 15.7143 7.44857 15.1714 6.86571C14.6429 6.28286 13.7643 5.99143 12.5357 5.99143H9.94286V12.4514Z" fill="#AEAEB5"/>
</svg>
