<svg width="28" height="28" viewBox="0 0 28 28" fill="none" xmlns="http://www.w3.org/2000/svg">
<path d="M9.97829 11.7998C11.1934 13.0149 11.1934 14.985 9.97829 16.2001C8.76317 17.4152 6.79308 17.4152 5.57796 16.2001C4.36285 14.985 4.36285 13.0149 5.57796 11.7998C6.79308 10.5847 8.76317 10.5847 9.97829 11.7998" stroke="#AEAEB5" stroke-width="2" stroke-linecap="round" stroke-linejoin="round"/>
<path d="M22.422 5.578C23.6371 6.79311 23.6371 8.7632 22.422 9.97832C21.2069 11.1934 19.2368 11.1934 18.0217 9.97832C16.8066 8.7632 16.8066 6.79311 18.0217 5.578C19.2368 4.36288 21.2069 4.36288 22.422 5.578" stroke="#AEAEB5" stroke-width="2" stroke-linecap="round" stroke-linejoin="round"/>
<path d="M22.422 18.0216C23.6371 19.2367 23.6371 21.2068 22.422 22.422C21.2069 23.6371 19.2368 23.6371 18.0217 22.422C16.8066 21.2068 16.8066 19.2367 18.0217 18.0216C19.2368 16.8065 21.2069 16.8065 22.422 18.0216" stroke="#AEAEB5" stroke-width="2" stroke-linecap="round" stroke-linejoin="round"/>
<path d="M10.5466 12.6117L17.4533 9.15833" stroke="#AEAEB5" stroke-width="2" stroke-linecap="round" stroke-linejoin="round"/>
<path d="M10.5466 15.3883L17.4533 18.8417" stroke="#AEAEB5" stroke-width="2" stroke-linecap="round" stroke-linejoin="round"/>
</svg>
