<svg width="44" height="44" viewBox="0 0 44 44" fill="none" xmlns="http://www.w3.org/2000/svg">
<path d="M25.172 6.43497L28.3987 12.8883C28.8387 13.7866 30.012 14.6483 31.002 14.8133L36.8503 15.785C40.5903 16.4083 41.4703 19.1216 38.7753 21.7983L34.2287 26.345C33.4587 27.115 33.037 28.6 33.2753 29.6633L34.577 35.2916C35.6037 39.7466 33.2387 41.47 29.297 39.1416L23.8153 35.8966C22.8253 35.31 21.1937 35.31 20.1853 35.8966L14.7037 39.1416C10.7803 41.47 8.39699 39.7283 9.42366 35.2916L10.7253 29.6633C10.9637 28.6 10.542 27.115 9.77199 26.345L5.22532 21.7983C2.54865 19.1216 3.41032 16.4083 7.15032 15.785L12.9987 14.8133C13.9703 14.6483 15.1437 13.7866 15.5837 12.8883L18.8103 6.43497C20.5703 2.9333 23.4303 2.9333 25.172 6.43497Z" fill="white" stroke="#0077FF" stroke-opacity="0.1" stroke-width="2" stroke-linecap="round" stroke-linejoin="round"/>
</svg>
