<svg width="100" height="100" viewBox="0 0 100 100" fill="none" xmlns="http://www.w3.org/2000/svg">
<rect x="0.5" y="0.5" width="99" height="99" rx="49.5" stroke="#1C92FF" stroke-opacity="0.3"/>
<path opacity="0.4" d="M58.48 30H41.52C36 30 34 32 34 37.62V62.38C34 68 36 70 41.52 70H58.46C64 70 66 68 66 62.38V37.62C66 32 64 30 58.48 30Z" fill="#1C92FF"/>
<path d="M54 38.5H46C45.18 38.5 44.5 37.82 44.5 37C44.5 36.18 45.18 35.5 46 35.5H54C54.82 35.5 55.5 36.18 55.5 37C55.5 37.82 54.82 38.5 54 38.5Z" fill="#1C92FF"/>
<path d="M50 64.6001C51.933 64.6001 53.5 63.0331 53.5 61.1001C53.5 59.1671 51.933 57.6001 50 57.6001C48.067 57.6001 46.5 59.1671 46.5 61.1001C46.5 63.0331 48.067 64.6001 50 64.6001Z" fill="#1C92FF"/>
</svg>
