<svg width="100" height="100" viewBox="0 0 100 100" fill="none" xmlns="http://www.w3.org/2000/svg">
<rect x="0.5" y="0.5" width="99" height="99" rx="49.5" stroke="#037DB1" stroke-opacity="0.3"/>
<path opacity="0.4" d="M62.4609 37.5408C57.7261 32.8197 50.0481 32.8197 45.3453 37.5408C42.0341 40.8215 41.0423 45.5426 42.322 49.7036L34.8039 57.2253C34.2761 57.7694 33.9082 58.8416 34.0201 59.6098L34.5 63.0986C34.676 64.2509 35.7477 65.3391 36.8994 65.4991L40.3865 65.9792C41.1543 66.0913 42.226 65.7392 42.7699 65.1791L44.0816 63.8668C44.4015 63.5627 44.4015 63.0506 44.0816 62.7305L40.9784 59.6258C40.5145 59.1617 40.5145 58.3935 40.9784 57.9294C41.4422 57.4653 42.2101 57.4653 42.6739 57.9294L45.7931 61.0501C46.0971 61.3542 46.6089 61.3542 46.9129 61.0501L50.304 57.6734C54.4469 58.9697 59.1657 57.9614 62.4609 54.6807C67.1797 49.9596 67.1797 42.2619 62.4609 37.5408ZM53.9991 49.9916C51.7916 49.9916 50.0001 48.1992 50.0001 45.9907C50.0001 43.7822 51.7916 41.9898 53.9991 41.9898C56.2065 41.9898 57.998 43.7822 57.998 45.9907C57.998 48.1992 56.2065 49.9916 53.9991 49.9916Z" fill="#037DB1"/>
<path d="M54 50C56.2091 50 58 48.2091 58 46C58 43.7909 56.2091 42 54 42C51.7909 42 50 43.7909 50 46C50 48.2091 51.7909 50 54 50Z" fill="#037DB1"/>
<path fill-rule="evenodd" clip-rule="evenodd" d="M40.9507 31.4012C35.2837 32.7159 31.0698 37.7893 31.0698 43.8605C31.0698 44.7082 30.3826 45.3953 29.5349 45.3953C28.6872 45.3953 28 44.7082 28 43.8605C28 35.0928 35.0928 28 43.8605 28C44.4134 28 44.9237 28.2974 45.1961 28.7786C45.4686 29.2598 45.4611 29.8504 45.1766 30.3246L43.0278 33.906C42.5917 34.6329 41.6489 34.8686 40.922 34.4324C40.1951 33.9963 39.9594 33.0535 40.3955 32.3266L40.9507 31.4012ZM70.4651 54.6047C71.3128 54.6047 72 55.2918 72 56.1395C72 64.9072 64.9072 72 56.1395 72C55.5866 72 55.0763 71.7026 54.8039 71.2214C54.5314 70.7402 54.5389 70.1496 54.8234 69.6754L56.9722 66.094C57.4083 65.3671 58.3511 65.1314 59.078 65.5676C59.8049 66.0037 60.0406 66.9465 59.6045 67.6734L59.0493 68.5988C64.7163 67.2841 68.9302 62.2107 68.9302 56.1395C68.9302 55.2918 69.6174 54.6047 70.4651 54.6047Z" fill="#037DB1"/>
</svg>
