<svg width="100" height="100" viewBox="0 0 100 100" fill="none" xmlns="http://www.w3.org/2000/svg">
<rect x="0.5" y="0.5" width="99" height="99" rx="49.5" stroke="#1C92FF" stroke-opacity="0.3"/>
<path opacity="0.2" d="M63.9995 44C63.9995 46.9 63.1395 49.56 61.6595 51.78C59.4995 54.98 56.0795 57.24 52.0995 57.82C51.4195 57.94 50.7195 58 49.9995 58C49.2795 58 48.5795 57.94 47.8995 57.82C43.9195 57.24 40.4995 54.98 38.3395 51.78C36.8595 49.56 35.9995 46.9 35.9995 44C35.9995 36.26 42.2595 30 49.9995 30C57.7395 30 63.9995 36.26 63.9995 44Z" fill="#1C92FF"/>
<path d="M68.5002 62.9408L65.2002 63.7208C64.4602 63.9008 63.8802 64.4608 63.7202 65.2008L63.0202 68.1408C62.6402 69.7408 60.6002 70.2208 59.5402 68.9608L50.0002 58.0008L40.4602 68.9808C39.4002 70.2408 37.3602 69.7608 36.9802 68.1608L36.2802 65.2208C36.1002 64.4808 35.5202 63.9008 34.8002 63.7408L31.5002 62.9608C29.9802 62.6008 29.4402 60.7008 30.5402 59.6008L38.3402 51.8008C40.5002 55.0008 43.9202 57.2608 47.9002 57.8408C48.5802 57.9608 49.2802 58.0208 50.0002 58.0208C50.7202 58.0208 51.4202 57.9608 52.1002 57.8408C56.0802 57.2608 59.5002 55.0008 61.6602 51.8008L69.4602 59.6008C70.5602 60.6808 70.0202 62.5808 68.5002 62.9408Z" fill="#1C92FF"/>
<path d="M51.1595 37.96L52.3395 40.32C52.4995 40.64 52.9195 40.96 53.2995 41.02L55.4395 41.38C56.7995 41.6 57.1195 42.6 56.1395 43.58L54.4795 45.24C54.1995 45.52 54.0395 46.06 54.1395 46.46L54.6195 48.52C54.9995 50.14 54.1395 50.78 52.6995 49.92L50.6995 48.74C50.3395 48.52 49.7395 48.52 49.3795 48.74L47.3795 49.92C45.9395 50.76 45.0795 50.14 45.4595 48.52L45.9395 46.46C46.0195 46.08 45.8795 45.52 45.5995 45.24L43.9395 43.58C42.9595 42.6 43.2795 41.62 44.6395 41.38L46.7795 41.02C47.1395 40.96 47.5595 40.64 47.7195 40.32L48.8995 37.96C49.4795 36.68 50.5195 36.68 51.1595 37.96Z" fill="#1C92FF"/>
</svg>
