<svg width="100" height="100" viewBox="0 0 100 100" fill="none" xmlns="http://www.w3.org/2000/svg">
<rect x="0.5" y="0.5" width="99" height="99" rx="49.5" stroke="#1C92FF" stroke-opacity="0.3"/>
<path opacity="0.2" d="M43.3395 54H33.9995C31.7995 54 29.9995 55.8 29.9995 58V70H43.3395V54Z" fill="#1C92FF"/>
<path d="M52.6603 46H47.3203C45.1203 46 43.3203 47.8 43.3203 50V70H56.6603V50C56.6603 47.8 54.8803 46 52.6603 46Z" fill="#1C92FF"/>
<path opacity="0.2" d="M65.9999 60H56.6599V70H69.9999V64C69.9999 61.8 68.1999 60 65.9999 60Z" fill="#1C92FF"/>
<path d="M56.0201 35.701C56.6401 35.081 56.8801 34.341 56.6801 33.701C56.4801 33.061 55.8601 32.601 54.9801 32.461L53.0601 32.141C52.9801 32.121 52.8001 32.0009 52.7601 31.9209L51.7001 29.8009C50.9001 28.1809 49.0801 28.1809 48.2801 29.8009L47.2201 31.9209C47.1801 32.0009 47.0001 32.121 46.9201 32.141L45.0001 32.461C44.1201 32.601 43.5201 33.061 43.3001 33.701C43.1001 34.341 43.3401 35.081 43.9601 35.701L45.4401 37.201C45.5001 37.261 45.5801 37.501 45.5601 37.581L45.1401 39.4209C44.8201 40.7809 45.3401 41.4009 45.6801 41.6609C46.0201 41.9009 46.7601 42.2209 47.9801 41.5009L49.7801 40.441C49.8601 40.381 50.1201 40.381 50.2001 40.441L52.0001 41.5009C52.5601 41.8409 53.0201 41.941 53.3801 41.941C53.8001 41.941 54.1001 41.7809 54.2801 41.6609C54.6201 41.4209 55.1401 40.8009 54.8201 39.4209L54.4001 37.581C54.3801 37.481 54.4401 37.261 54.5201 37.201L56.0201 35.701Z" fill="#1C92FF"/>
</svg>
