<svg width="100" height="100" viewBox="0 0 100 100" fill="none" xmlns="http://www.w3.org/2000/svg">
<rect x="0.5" y="0.5" width="99" height="99" rx="49.5" stroke="#1C92FF" stroke-opacity="0.3"/>
<path opacity="0.2" d="M60 62.8594H52L43.1 68.7794C41.78 69.6594 40 68.7194 40 67.1194V62.8594C34 62.8594 30 58.8594 30 52.8594V40.8594C30 34.8594 34 30.8594 40 30.8594H60C66 30.8594 70 34.8594 70 40.8594V52.8594C70 58.8594 66 62.8594 60 62.8594Z" fill="#1C92FF"/>
<path d="M50 50.2207C49.18 50.2207 48.5 49.5407 48.5 48.7207V48.3008C48.5 45.9808 50.2 44.8408 50.84 44.4008C51.58 43.9008 51.8199 43.5608 51.8199 43.0408C51.8199 42.0408 51 41.2207 50 41.2207C49 41.2207 48.1801 42.0408 48.1801 43.0408C48.1801 43.8608 47.5001 44.5408 46.6801 44.5408C45.8601 44.5408 45.1801 43.8608 45.1801 43.0408C45.1801 40.3808 47.34 38.2207 50 38.2207C52.66 38.2207 54.8199 40.3808 54.8199 43.0408C54.8199 45.3208 53.14 46.4607 52.52 46.8807C51.74 47.4007 51.5 47.7408 51.5 48.3008V48.7207C51.5 49.5607 50.82 50.2207 50 50.2207Z" fill="#1C92FF"/>
<path d="M50 55.1992C49.16 55.1992 48.5 54.5192 48.5 53.6992C48.5 52.8792 49.18 52.1992 50 52.1992C50.82 52.1992 51.5 52.8792 51.5 53.6992C51.5 54.5192 50.84 55.1992 50 55.1992Z" fill="#1C92FF"/>
</svg>
