<svg width="100" height="100" viewBox="0 0 100 100" fill="none" xmlns="http://www.w3.org/2000/svg">
<rect x="0.5" y="0.5" width="99" height="99" rx="49.5" stroke="#1C92FF" stroke-opacity="0.3"/>
<path d="M64 56C59.58 56 56 59.58 56 64C56 65.5 56.42 66.92 57.16 68.12C58.54 70.44 61.08 72 64 72C66.92 72 69.46 70.44 70.84 68.12C71.58 66.92 72 65.5 72 64C72 59.58 68.42 56 64 56ZM68.14 63.14L63.88 67.08C63.6 67.34 63.22 67.48 62.86 67.48C62.48 67.48 62.1 67.34 61.8 67.04L59.8199 65.06C59.2399 64.48 59.2399 63.52 59.8199 62.94C60.3999 62.36 61.3599 62.36 61.9399 62.94L62.9 63.9L66.1 60.94C66.7 60.38 67.66 60.42 68.22 61.02C68.78 61.62 68.74 62.56 68.14 63.14Z" fill="#1C92FF"/>
<path d="M70 41.0808V44.0008H30V41.0808C30 36.5008 33.72 32.8008 38.3 32.8008H61.7C66.28 32.8008 70 36.5008 70 41.0808Z" fill="#1C92FF"/>
<path opacity="0.2" d="M30 44V58.92C30 63.5 33.7 67.2 38.28 67.2H50.8C51.96 67.2 52.96 66.22 52.86 65.06C52.58 62 53.56 58.68 56.28 56.04C57.4 54.94 58.78 54.1 60.28 53.62C62.78 52.82 65.2 52.92 67.34 53.64C68.64 54.08 70 53.14 70 51.76V44H30ZM42 60.5H38C37.18 60.5 36.5 59.82 36.5 59C36.5 58.18 37.18 57.5 38 57.5H42C42.82 57.5 43.5 58.18 43.5 59C43.5 59.82 42.82 60.5 42 60.5Z" fill="#1C92FF"/>
<path d="M43.5 59C43.5 59.82 42.82 60.5 42 60.5H38C37.18 60.5 36.5 59.82 36.5 59C36.5 58.18 37.18 57.5 38 57.5H42C42.82 57.5 43.5 58.18 43.5 59Z" fill="#1C92FF"/>
</svg>
