<svg width="100" height="100" viewBox="0 0 100 100" fill="none" xmlns="http://www.w3.org/2000/svg">
<rect x="0.5" y="0.5" width="99" height="99" rx="49.5" stroke="#1C92FF" stroke-opacity="0.3"/>
<path opacity="0.2" d="M39.4596 65.4C41.0996 63.64 43.5996 63.78 45.0396 65.7L47.0596 68.4C48.6796 70.54 51.2996 70.54 52.9196 68.4L54.9396 65.7C56.3796 63.78 58.8796 63.64 60.5196 65.4C64.0796 69.2 66.9796 67.94 66.9796 62.62V40.08C66.9996 32.02 65.1196 30 57.5596 30H42.4396C34.8796 30 32.9996 32.02 32.9996 40.08V62.6C32.9996 67.94 35.9196 69.18 39.4596 65.4Z" fill="#1C92FF"/>
<path d="M55.9996 54C54.8796 54 53.9996 53.1 53.9996 52C53.9996 50.9 54.8996 50 55.9996 50C57.0996 50 57.9996 50.9 57.9996 52C57.9996 53.1 57.1196 54 55.9996 54Z" fill="#1C92FF"/>
<path d="M43.9996 44C42.8796 44 41.9996 43.1 41.9996 42C41.9996 40.9 42.8996 40 43.9996 40C45.0996 40 45.9996 40.9 45.9996 42C45.9996 43.1 45.1196 44 43.9996 44Z" fill="#1C92FF"/>
<path d="M43.26 55.0995C42.88 55.0995 42.5 54.9595 42.2 54.6595C41.62 54.0795 41.62 53.1195 42.2 52.5395L55.66 39.0795C56.24 38.4995 57.2 38.4995 57.78 39.0795C58.36 39.6595 58.36 40.6195 57.78 41.1995L44.32 54.6595C44.04 54.9595 43.64 55.0995 43.26 55.0995Z" fill="#1C92FF"/>
</svg>
