<svg width="100" height="100" viewBox="0 0 100 100" fill="none" xmlns="http://www.w3.org/2000/svg">
<rect x="0.5" y="0.5" width="99" height="99" rx="49.5" stroke="#1C92FF" stroke-opacity="0.3"/>
<path opacity="0.2" d="M69.3005 46.0595C68.5205 44.9395 67.1405 44.2995 65.5605 44.2995H57.3605C56.8205 44.2995 56.3205 44.0795 55.9805 43.6795C55.6205 43.2795 55.4805 42.7195 55.5605 42.1395L56.5805 35.5795C57.0205 33.6195 55.7205 31.4195 53.7605 30.7595C51.9405 30.0795 49.8005 30.9995 48.9405 32.2995L40.5005 44.8395L40.2605 45.2395V62.9195L40.5605 63.2195L46.9005 68.1195C47.7405 68.9595 49.6405 69.4195 50.9805 69.4195H58.7805C61.4605 69.4195 64.1605 67.3995 64.7605 64.9395L69.6805 49.9595C70.2005 48.5395 70.0605 47.1595 69.3005 46.0595Z" fill="#1C92FF"/>
<path d="M36.4195 38.7598H34.3595C31.2595 38.7598 29.9995 39.9598 29.9995 42.9198V63.0398C29.9995 65.9998 31.2595 67.1998 34.3595 67.1998H36.4195C39.5195 67.1998 40.7795 65.9998 40.7795 63.0398V42.9198C40.7795 39.9598 39.5195 38.7598 36.4195 38.7598Z" fill="#1C92FF"/>
</svg>
