<svg width="20" height="20" viewBox="0 0 20 20" fill="none" xmlns="http://www.w3.org/2000/svg">
<path fill-rule="evenodd" clip-rule="evenodd" d="M16.6663 10.0557H3.33293C2.41209 10.0557 1.66626 10.8015 1.66626 11.7223V14.1665C1.66626 14.6265 2.03959 14.9998 2.49959 14.9998H17.4996C17.9596 14.9998 18.3329 14.6265 18.3329 14.1665V11.7223C18.3329 10.8015 17.5871 10.0557 16.6663 10.0557Z" stroke="#A3A8A9" stroke-width="1.5" stroke-linecap="round" stroke-linejoin="round"/>
<path d="M2.91626 10.1083V10.0558V10.0558C2.91626 8.64417 4.06043 7.5 5.47209 7.5H7.41626C8.61293 7.5 9.58293 8.47 9.58293 9.66667V10.0558" stroke="#A3A8A9" stroke-width="1.5" stroke-linecap="round" stroke-linejoin="round"/>
<path d="M9.58252 10.0558V10.0558C9.58252 8.64417 10.7267 7.5 12.1384 7.5H14.5275C15.9392 7.5 17.0834 8.64417 17.0834 10.0558V10.0558V10.1083" stroke="#A3A8A9" stroke-width="1.5" stroke-linecap="round" stroke-linejoin="round"/>
<path d="M3.33252 8.65825V5.83325C3.33252 4.45242 4.45169 3.33325 5.83252 3.33325H14.1659C15.5467 3.33325 16.6659 4.45242 16.6659 5.83325V8.65825" stroke="#A3A8A9" stroke-width="1.5" stroke-linecap="round" stroke-linejoin="round"/>
<path d="M17.4992 15V16.6667" stroke="#A3A8A9" stroke-width="1.5" stroke-linecap="round" stroke-linejoin="round"/>
<path d="M2.49919 15V16.6667" stroke="#A3A8A9" stroke-width="1.5" stroke-linecap="round" stroke-linejoin="round"/>
</svg>
