<svg width="100" height="100" viewBox="0 0 100 100" fill="none" xmlns="http://www.w3.org/2000/svg">
<rect x="0.5" y="0.5" width="99" height="99" rx="49.5" stroke="#037DB1" stroke-opacity="0.3"/>
<path opacity="0.4" d="M64.6799 54.9798L62.6799 51.6598C62.2599 50.9198 61.8799 49.5198 61.8799 48.6998V43.6398C61.8799 37.1198 56.5799 31.7998 50.0399 31.7998C43.4999 31.7998 38.1999 37.1198 38.1999 43.6398V48.6998C38.1999 49.5198 37.8199 50.9198 37.3999 51.6398L35.3799 54.9798C34.5799 56.3198 34.3999 57.7998 34.8999 59.1598C35.3799 60.4998 36.5199 61.5398 37.9999 62.0398C41.8799 63.3598 45.9599 63.9998 50.0399 63.9998C54.1199 63.9998 58.1999 63.3598 62.0799 62.0598C63.4799 61.5998 64.5599 60.5398 65.0799 59.1598C65.5999 57.7798 65.4599 56.2598 64.6799 54.9798Z" fill="#037DB1"/>
<path d="M54.5001 32.64C53.1201 32.1 51.6201 31.8 50.0401 31.8C48.4801 31.8 46.9801 32.08 45.6001 32.64C46.4601 31.02 48.1601 30 50.0401 30C51.9401 30 53.6201 31.02 54.5001 32.64Z" fill="#037DB1"/>
<path d="M55.6599 66.02C54.8199 68.34 52.5999 70 49.9999 70C48.4199 70 46.8599 69.36 45.7599 68.22C45.1199 67.62 44.6399 66.82 44.3599 66C44.6199 66.04 44.8799 66.06 45.1599 66.1C45.6199 66.16 46.0999 66.22 46.5799 66.26C47.7199 66.36 48.8799 66.42 50.0399 66.42C51.1799 66.42 52.3199 66.36 53.4399 66.26C53.8599 66.22 54.2799 66.2 54.6799 66.14C54.9999 66.1 55.3199 66.06 55.6599 66.02Z" fill="#037DB1"/>
</svg>
