<svg width="20" height="20" viewBox="0 0 20 20" fill="none" xmlns="http://www.w3.org/2000/svg">
<path d="M12.925 2.35828H7.07501C5.00001 2.35828 4.54168 3.39161 4.27501 4.65828L3.33334 9.16661H16.6667L15.725 4.65828C15.4583 3.39161 15 2.35828 12.925 2.35828Z" stroke="#1A2528" stroke-width="1.5" stroke-linecap="round" stroke-linejoin="round"/>
<path d="M18.325 16.5166C18.4167 17.4916 17.6333 18.3333 16.6333 18.3333H15.0667C14.1667 18.3333 14.0417 17.95 13.8833 17.475L13.7167 16.975C13.4833 16.2916 13.3333 15.8333 12.1333 15.8333H7.86666C6.66666 15.8333 6.49166 16.35 6.28333 16.975L6.11666 17.475C5.95833 17.95 5.83333 18.3333 4.93333 18.3333H3.36666C2.36666 18.3333 1.58333 17.4916 1.67499 16.5166L2.14166 11.4416C2.25833 10.1916 2.49999 9.16663 4.68333 9.16663H15.3167C17.5 9.16663 17.7417 10.1916 17.8583 11.4416L18.325 16.5166Z" stroke="#1A2528" stroke-width="1.5" stroke-linecap="round" stroke-linejoin="round"/>
<path d="M3.33333 6.66663H2.5" stroke="#1A2528" stroke-width="1.5" stroke-linecap="round" stroke-linejoin="round"/>
<path d="M17.5 6.66663H16.6667" stroke="#1A2528" stroke-width="1.5" stroke-linecap="round" stroke-linejoin="round"/>
<path d="M10 2.5V4.16667" stroke="#1A2528" stroke-width="2" stroke-linecap="round" stroke-linejoin="round"/>
<path d="M8.75 4.16663H11.25" stroke="#1A2528" stroke-width="1.5" stroke-linecap="round" stroke-linejoin="round"/>
<path d="M5 12.5H7.5" stroke="#1A2528" stroke-width="1.5" stroke-linecap="round" stroke-linejoin="round"/>
<path d="M12.5 12.5H15" stroke="#1A2528" stroke-width="1.5" stroke-linecap="round" stroke-linejoin="round"/>
</svg>
