<svg width="26" height="26" viewBox="0 0 26 26" fill="none" xmlns="http://www.w3.org/2000/svg">
<path d="M15.7412 10.2591L10.2596 15.7408C9.5554 15.0366 9.12207 14.0725 9.12207 13C9.12207 10.855 10.8554 9.12164 13.0004 9.12164C14.0729 9.12164 15.0371 9.55498 15.7412 10.2591Z" stroke="#A3A8A9" stroke-width="2" stroke-linecap="round" stroke-linejoin="round"/>
<path d="M19.3048 6.25083C17.409 4.82083 15.2423 4.04083 12.9998 4.04083C9.17566 4.04083 5.6115 6.29417 3.13066 10.1942C2.15566 11.7217 2.15566 14.2892 3.13066 15.8167C3.9865 17.16 4.98316 18.3192 6.0665 19.2508" stroke="#A3A8A9" stroke-width="2" stroke-linecap="round" stroke-linejoin="round"/>
<path d="M9.12207 21.1575C10.3571 21.6775 11.6679 21.9592 13.0004 21.9592C16.8246 21.9592 20.3887 19.7058 22.8696 15.8058C23.8446 14.2783 23.8446 11.7108 22.8696 10.1833C22.5121 9.61999 22.1221 9.08915 21.7212 8.59082" stroke="#A3A8A9" stroke-width="2" stroke-linecap="round" stroke-linejoin="round"/>
<path d="M16.8021 13.7584C16.5204 15.2859 15.2746 16.5317 13.7471 16.8134" stroke="#A3A8A9" stroke-width="2" stroke-linecap="round" stroke-linejoin="round"/>
<path d="M10.2595 15.7408L2.16699 23.8333" stroke="#A3A8A9" stroke-width="2" stroke-linecap="round" stroke-linejoin="round"/>
<path d="M23.8337 2.16669L15.7412 10.2592" stroke="#A3A8A9" stroke-width="2" stroke-linecap="round" stroke-linejoin="round"/>
</svg>
