<svg width="48" height="48" viewBox="0 0 48 48" fill="none" xmlns="http://www.w3.org/2000/svg">
<path d="M18 20C20.2091 20 22 18.2091 22 16C22 13.7909 20.2091 12 18 12C15.7909 12 14 13.7909 14 16C14 18.2091 15.7909 20 18 20Z" stroke="#353546" stroke-width="3" stroke-linecap="round" stroke-linejoin="round"/>
<path d="M26 4H18C8 4 4 8 4 18V30C4 40 8 44 18 44H30C40 44 44 40 44 30V20" stroke="#353546" stroke-width="3" stroke-linecap="round" stroke-linejoin="round"/>
<path d="M31.5 10H42.5" stroke="#353546" stroke-width="3" stroke-linecap="round"/>
<path d="M37 15.5V4.5" stroke="#353546" stroke-width="3" stroke-linecap="round"/>
<path d="M5.33984 37.9L15.1998 31.28C16.7798 30.22 19.0598 30.34 20.4798 31.56L21.1398 32.14C22.6998 33.48 25.2198 33.48 26.7798 32.14L35.0998 25C36.6598 23.66 39.1798 23.66 40.7398 25L43.9998 27.8" stroke="#353546" stroke-width="3" stroke-linecap="round" stroke-linejoin="round"/>
</svg>
