<svg width="21" height="20" viewBox="0 0 21 20" fill="none" xmlns="http://www.w3.org/2000/svg">
<g clip-path="url(#clip0_2038_60305)">
<path d="M7.96663 9.05832C7.8833 9.04999 7.7833 9.04999 7.69163 9.05832C5.7083 8.99166 4.1333 7.36666 4.1333 5.36666C4.1333 3.32499 5.7833 1.66666 7.8333 1.66666C9.87497 1.66666 11.5333 3.32499 11.5333 5.36666C11.525 7.36666 9.94997 8.99166 7.96663 9.05832Z" stroke="#1A2528" stroke-width="1.5" stroke-linecap="round" stroke-linejoin="round"/>
<path d="M14.0087 3.33334C15.6254 3.33334 16.9254 4.64168 16.9254 6.25001C16.9254 7.82501 15.6754 9.10834 14.1171 9.16668C14.0504 9.15834 13.9754 9.15834 13.9004 9.16668" stroke="#1A2528" stroke-width="1.5" stroke-linecap="round" stroke-linejoin="round"/>
<path d="M3.8001 12.1333C1.78343 13.4833 1.78343 15.6833 3.8001 17.025C6.09176 18.5583 9.8501 18.5583 12.1418 17.025C14.1584 15.675 14.1584 13.475 12.1418 12.1333C9.85843 10.6083 6.1001 10.6083 3.8001 12.1333Z" stroke="#1A2528" stroke-width="1.5" stroke-linecap="round" stroke-linejoin="round"/>
<path d="M15.6167 16.6667C16.2167 16.5417 16.7834 16.3 17.25 15.9417C18.55 14.9667 18.55 13.3583 17.25 12.3833C16.7917 12.0333 16.2334 11.8 15.6417 11.6667" stroke="#1A2528" stroke-width="1.5" stroke-linecap="round" stroke-linejoin="round"/>
</g>
<defs>
<clipPath id="clip0_2038_60305">
<rect width="20" height="20" fill="white" transform="translate(0.333496)"/>
</clipPath>
</defs>
</svg>
