<svg width="20" height="20" viewBox="0 0 20 20" fill="none" xmlns="http://www.w3.org/2000/svg">
<path d="M16.4916 12.4416C14.775 14.1499 12.3166 14.6749 10.1583 13.9999L6.23331 17.9166C5.94998 18.2083 5.39165 18.3833 4.99165 18.3249L3.17498 18.0749C2.57498 17.9916 2.01665 17.4249 1.92498 16.8249L1.67498 15.0083C1.61665 14.6083 1.80831 14.0499 2.08331 13.7666L5.99998 9.84994C5.33331 7.68327 5.84998 5.22494 7.56665 3.5166C10.025 1.05827 14.0166 1.05827 16.4833 3.5166C18.95 5.97494 18.95 9.98327 16.4916 12.4416Z" stroke="#A3A8A9" stroke-width="1.5" stroke-miterlimit="10" stroke-linecap="round" stroke-linejoin="round"/>
<path d="M5.74164 14.575L7.6583 16.4916" stroke="#A3A8A9" stroke-width="1.5" stroke-miterlimit="10" stroke-linecap="round" stroke-linejoin="round"/>
<path d="M12.0833 9.16675C12.7737 9.16675 13.3333 8.6071 13.3333 7.91675C13.3333 7.22639 12.7737 6.66675 12.0833 6.66675C11.393 6.66675 10.8333 7.22639 10.8333 7.91675C10.8333 8.6071 11.393 9.16675 12.0833 9.16675Z" stroke="#A3A8A9" stroke-width="1.5" stroke-linecap="round" stroke-linejoin="round"/>
</svg>
