<svg width="26" height="26" viewBox="0 0 26 26" fill="none" xmlns="http://www.w3.org/2000/svg">
<path d="M8.10333 19.8792L11.4617 22.4792C11.895 22.9125 12.87 23.1292 13.52 23.1292H17.6367C18.9367 23.1292 20.345 22.1542 20.67 20.8542L23.27 12.9458C23.8117 11.4292 22.8367 10.1292 21.2117 10.1292H16.8783C16.2283 10.1292 15.6867 9.58751 15.795 8.82917L16.3367 5.36251C16.5533 4.38751 15.9033 3.30417 14.9283 2.97917C14.0617 2.65417 12.9783 3.08751 12.545 3.73751L8.10333 10.3458" stroke="#1A2528" stroke-width="2" stroke-miterlimit="10"/>
<path d="M2.57834 19.8791V9.26244C2.57834 7.74577 3.22834 7.2041 4.74501 7.2041H5.82834C7.345 7.2041 7.995 7.74577 7.995 9.26244V19.8791C7.995 21.3958 7.345 21.9374 5.82834 21.9374H4.74501C3.22834 21.9374 2.57834 21.3958 2.57834 19.8791Z" stroke="#1A2528" stroke-width="2" stroke-linecap="round" stroke-linejoin="round"/>
</svg>
