<svg width="24" height="24" viewBox="0 0 24 24" fill="none" xmlns="http://www.w3.org/2000/svg">
<path d="M4.40991 16.75C4.16991 19.64 6.34991 22 9.24991 22H14.0399C17.2999 22 19.5399 19.37 18.9999 16.15C18.4299 12.77 15.1699 10 11.7399 10C8.01991 10 4.71991 13.04 4.40991 16.75Z" stroke="#A3A8A9" stroke-width="2" stroke-linecap="round" stroke-linejoin="round"/>
<path d="M10.47 7.5C11.8507 7.5 12.97 6.38071 12.97 5C12.97 3.61929 11.8507 2.5 10.47 2.5C9.08926 2.5 7.96997 3.61929 7.96997 5C7.96997 6.38071 9.08926 7.5 10.47 7.5Z" stroke="#A3A8A9" stroke-width="2" stroke-linecap="round" stroke-linejoin="round"/>
<path d="M17.3 8.70001C18.4046 8.70001 19.3 7.80458 19.3 6.70001C19.3 5.59544 18.4046 4.70001 17.3 4.70001C16.1955 4.70001 15.3 5.59544 15.3 6.70001C15.3 7.80458 16.1955 8.70001 17.3 8.70001Z" stroke="#A3A8A9" stroke-width="2" stroke-linecap="round" stroke-linejoin="round"/>
<path d="M21 12.7C21.8284 12.7 22.5 12.0284 22.5 11.2C22.5 10.3716 21.8284 9.70001 21 9.70001C20.1716 9.70001 19.5 10.3716 19.5 11.2C19.5 12.0284 20.1716 12.7 21 12.7Z" stroke="#A3A8A9" stroke-width="2" stroke-linecap="round" stroke-linejoin="round"/>
<path d="M3.96997 10.7C5.07454 10.7 5.96997 9.80458 5.96997 8.70001C5.96997 7.59544 5.07454 6.70001 3.96997 6.70001C2.8654 6.70001 1.96997 7.59544 1.96997 8.70001C1.96997 9.80458 2.8654 10.7 3.96997 10.7Z" stroke="#A3A8A9" stroke-width="2" stroke-linecap="round" stroke-linejoin="round"/>
</svg>
