<svg width="20" height="20" viewBox="0 0 20 20" fill="none" xmlns="http://www.w3.org/2000/svg">
<path d="M15.8331 5V4.16667C15.8331 3.24583 15.0873 2.5 14.1664 2.5V2.5C13.2456 2.5 12.4998 3.24583 12.4998 4.16667V15.8333C12.4998 16.7542 11.7539 17.5 10.8331 17.5H5.83311C4.91228 17.5 4.16644 16.7542 4.16644 15.8333V5C4.16644 3.61917 5.28561 2.5 6.66644 2.5H14.1664" stroke="#1A2528" stroke-width="1.5" stroke-linecap="round" stroke-linejoin="round"/>
<path d="M15.8333 7.5V12.5C15.8333 13.4208 15.0874 14.1667 14.1666 14.1667H12.4999" stroke="#1A2528" stroke-width="1.5" stroke-linecap="round" stroke-linejoin="round"/>
<path d="M12.4999 7.5H17.0833C17.7733 7.5 18.3333 6.94 18.3333 6.25V6.25C18.3333 5.56 17.7733 5 17.0833 5H12.4999" stroke="#1A2528" stroke-width="1.5" stroke-linecap="round" stroke-linejoin="round"/>
<path d="M4.16644 5H2.91644C2.22644 5 1.66644 5.56 1.66644 6.25V6.25C1.66644 6.94 2.22644 7.5 2.91644 7.5H4.16644" stroke="#1A2528" stroke-width="1.5" stroke-linecap="round" stroke-linejoin="round"/>
</svg>
