<svg width="24" height="24" viewBox="0 0 24 24" fill="none" xmlns="http://www.w3.org/2000/svg">
<path d="M3 16.618C4.146 16.109 5.454 16.109 6.6 16.618C7.746 17.127 9.054 17.127 10.2 16.618C11.346 16.109 12.654 16.109 13.8 16.618C14.946 17.127 16.254 17.127 17.4 16.618C18.546 16.109 19.854 16.109 21 16.618" stroke="#A3A8A9" stroke-width="2" stroke-linecap="round" stroke-linejoin="round"/>
<path d="M8 8H16" stroke="#A3A8A9" stroke-width="2" stroke-linecap="round" stroke-linejoin="round"/>
<path d="M8 12H16" stroke="#A3A8A9" stroke-width="2" stroke-linecap="round" stroke-linejoin="round"/>
<path d="M16 14V4.5C16 3.672 16.672 3 17.5 3V3C18.328 3 19 3.672 19 4.5" stroke="#A3A8A9" stroke-width="2" stroke-linecap="round" stroke-linejoin="round"/>
<path d="M8 14V4.5C8 3.672 8.672 3 9.5 3V3C10.328 3 11 3.672 11 4.5" stroke="#A3A8A9" stroke-width="2" stroke-linecap="round" stroke-linejoin="round"/>
<path d="M3 20.618C4.146 20.109 5.454 20.109 6.6 20.618C7.746 21.127 9.054 21.127 10.2 20.618C11.346 20.109 12.654 20.109 13.8 20.618C14.946 21.127 16.254 21.127 17.4 20.618C18.546 20.109 19.854 20.109 21 20.618" stroke="#A3A8A9" stroke-width="2" stroke-linecap="round" stroke-linejoin="round"/>
</svg>
