<svg width="32" height="32" viewBox="0 0 32 32" fill="none" xmlns="http://www.w3.org/2000/svg">
<rect width="32" height="32" rx="16" fill="#E2E9F2"/>
<path d="M13.1274 14.4284C13.9954 15.2964 13.9954 16.7036 13.1274 17.5715C12.2595 18.4395 10.8523 18.4395 9.98433 17.5715C9.11639 16.7036 9.11639 15.2964 9.98433 14.4284C10.8523 13.5605 12.2595 13.5605 13.1274 14.4284" stroke="#1A2528" stroke-width="1.5" stroke-linecap="round" stroke-linejoin="round"/>
<path d="M22.0157 9.98427C22.8837 10.8522 22.8837 12.2594 22.0157 13.1274C21.1478 13.9953 19.7406 13.9953 18.8726 13.1274C18.0047 12.2594 18.0047 10.8522 18.8726 9.98427C19.7406 9.11633 21.1478 9.11633 22.0157 9.98427" stroke="#1A2528" stroke-width="1.5" stroke-linecap="round" stroke-linejoin="round"/>
<path d="M22.0157 18.8726C22.8837 19.7405 22.8837 21.1477 22.0157 22.0157C21.1478 22.8836 19.7406 22.8836 18.8726 22.0157C18.0047 21.1477 18.0047 19.7405 18.8726 18.8726C19.7406 18.0046 21.1478 18.0046 22.0157 18.8726" stroke="#1A2528" stroke-width="1.5" stroke-linecap="round" stroke-linejoin="round"/>
<path d="M13.5333 15.0084L18.4667 12.5417" stroke="#1A2528" stroke-width="1.5" stroke-linecap="round" stroke-linejoin="round"/>
<path d="M13.5333 16.9916L18.4667 19.4583" stroke="#1A2528" stroke-width="1.5" stroke-linecap="round" stroke-linejoin="round"/>
</svg>
