<svg width="20" height="20" viewBox="0 0 20 20" fill="none" xmlns="http://www.w3.org/2000/svg">
<path d="M16.6666 5.79159V14.2083C16.5333 14.1833 16.3916 14.1666 16.25 14.1666C15.1 14.1666 14.1666 15.0999 14.1666 16.2499C14.1666 16.3916 14.1833 16.5333 14.2083 16.6666H5.79165C5.81665 16.5333 5.83331 16.3916 5.83331 16.2499C5.83331 15.0999 4.89998 14.1666 3.74998 14.1666C3.60831 14.1666 3.46665 14.1833 3.33331 14.2083V5.79159C3.46665 5.81659 3.60831 5.83325 3.74998 5.83325C4.89998 5.83325 5.83331 4.89992 5.83331 3.74992C5.83331 3.60825 5.81665 3.46659 5.79165 3.33325H14.2083C14.1833 3.46659 14.1666 3.60825 14.1666 3.74992C14.1666 4.89992 15.1 5.83325 16.25 5.83325C16.3916 5.83325 16.5333 5.81659 16.6666 5.79159Z" stroke="#A3A8A9" stroke-width="1.5" stroke-linecap="round" stroke-linejoin="round"/>
<path d="M5.83335 3.75008C5.83335 4.90008 4.90002 5.83341 3.75002 5.83341C3.60835 5.83341 3.46669 5.81675 3.33335 5.79175C2.38335 5.60008 1.66669 4.75841 1.66669 3.75008C1.66669 2.60008 2.60002 1.66675 3.75002 1.66675C4.75835 1.66675 5.60002 2.38341 5.79169 3.33341C5.81669 3.46675 5.83335 3.60841 5.83335 3.75008Z" stroke="#A3A8A9" stroke-width="1.5" stroke-linecap="round" stroke-linejoin="round"/>
<path d="M18.3334 3.75008C18.3334 4.75841 17.6167 5.60008 16.6667 5.79175C16.5334 5.81675 16.3917 5.83341 16.25 5.83341C15.1 5.83341 14.1667 4.90008 14.1667 3.75008C14.1667 3.60841 14.1834 3.46675 14.2084 3.33341C14.4 2.38341 15.2417 1.66675 16.25 1.66675C17.4 1.66675 18.3334 2.60008 18.3334 3.75008Z" stroke="#A3A8A9" stroke-width="1.5" stroke-linecap="round" stroke-linejoin="round"/>
<path d="M5.83335 16.2501C5.83335 16.3917 5.81669 16.5334 5.79169 16.6667C5.60002 17.6167 4.75835 18.3334 3.75002 18.3334C2.60002 18.3334 1.66669 17.4001 1.66669 16.2501C1.66669 15.2417 2.38335 14.4001 3.33335 14.2084C3.46669 14.1834 3.60835 14.1667 3.75002 14.1667C4.90002 14.1667 5.83335 15.1001 5.83335 16.2501Z" stroke="#A3A8A9" stroke-width="1.5" stroke-linecap="round" stroke-linejoin="round"/>
<path d="M18.3334 16.2501C18.3334 17.4001 17.4 18.3334 16.25 18.3334C15.2417 18.3334 14.4 17.6167 14.2084 16.6667C14.1834 16.5334 14.1667 16.3917 14.1667 16.2501C14.1667 15.1001 15.1 14.1667 16.25 14.1667C16.3917 14.1667 16.5334 14.1834 16.6667 14.2084C17.6167 14.4001 18.3334 15.2417 18.3334 16.2501Z" stroke="#A3A8A9" stroke-width="1.5" stroke-linecap="round" stroke-linejoin="round"/>
</svg>
