<svg width="100" height="100" viewBox="0 0 100 100" fill="none" xmlns="http://www.w3.org/2000/svg">
<rect x="0.5" y="0.5" width="99" height="99" rx="49.5" stroke="#037DB1" stroke-opacity="0.3"/>
<path opacity="0.4" d="M62.08 53.1C61.24 53.92 60.76 55.1 60.88 56.36C61.06 58.52 63.04 60.1 65.2 60.1H69V62.48C69 66.62 65.62 70 61.48 70H38.52C34.38 70 31 66.62 31 62.48V49.02C31 44.88 34.38 41.5 38.52 41.5H61.48C65.62 41.5 69 44.88 69 49.02V51.9H64.96C63.84 51.9 62.82 52.34 62.08 53.1Z" fill="#037DB1"/>
<path d="M55.7 33.9002V41.5002H38.52C34.38 41.5002 31 44.8802 31 49.0202V41.6803C31 39.3003 32.46 37.1802 34.68 36.3402L50.56 30.3402C53.04 29.4202 55.7 31.2402 55.7 33.9002Z" fill="#037DB1"/>
<path d="M71.1201 53.9398V58.0599C71.1201 59.1599 70.2401 60.0599 69.1201 60.0999H65.2001C63.0401 60.0999 61.0601 58.5199 60.8801 56.3599C60.7601 55.0999 61.2401 53.9199 62.0801 53.0999C62.8201 52.3399 63.8401 51.8999 64.9601 51.8999H69.1201C70.2401 51.9399 71.1201 52.8398 71.1201 53.9398Z" fill="#037DB1"/>
<path d="M54 51.5H40C39.18 51.5 38.5 50.82 38.5 50C38.5 49.18 39.18 48.5 40 48.5H54C54.82 48.5 55.5 49.18 55.5 50C55.5 50.82 54.82 51.5 54 51.5Z" fill="#037DB1"/>
</svg>
