<svg width="100" height="100" viewBox="0 0 100 100" fill="none" xmlns="http://www.w3.org/2000/svg">
<rect x="0.5" y="0.5" width="99" height="99" rx="49.5" stroke="#037DB1" stroke-opacity="0.3"/>
<path opacity="0.4" d="M66.8202 39.9199V45.5999L40.8002 64.6799L35.5402 60.7399C34.2402 59.7599 33.1802 57.6599 33.1802 56.0399V39.9199C33.1802 37.6799 34.9002 35.1999 37.0002 34.4199L47.9402 30.3199C49.0802 29.8999 50.9202 29.8999 52.0602 30.3199L63.0002 34.4199C65.1002 35.1999 66.8202 37.6799 66.8202 39.9199Z" fill="#037DB1"/>
<path d="M66.8201 48.3398V56.0398C66.8201 57.6598 65.7601 59.7598 64.4601 60.7398L53.5201 68.9198C52.5601 69.6398 51.2801 69.9998 50.0001 69.9998C48.7201 69.9998 47.4401 69.6398 46.4801 68.9198L42.6401 66.0598L66.8201 48.3398Z" fill="#037DB1"/>
</svg>
