<svg width="100" height="100" viewBox="0 0 100 100" fill="none" xmlns="http://www.w3.org/2000/svg">
<rect x="0.5" y="0.5" width="99" height="99" rx="49.5" stroke="#037DB1" stroke-opacity="0.3"/>
<path opacity="0.4" d="M31.5 63.2996C30.68 63.2996 30 62.6196 30 61.7996V50.3996C29.9 44.9796 31.92 39.8596 35.68 36.0196C39.44 32.1996 44.48 30.0996 49.9 30.0996C60.98 30.0996 70 39.1196 70 50.1996V61.5996C70 62.4196 69.32 63.0996 68.5 63.0996C67.68 63.0996 67 62.4196 67 61.5996V50.1996C67 40.7796 59.34 33.0996 49.9 33.0996C45.28 33.0996 41 34.8796 37.82 38.1196C34.62 41.3796 32.92 45.7196 33 50.3596V61.7796C33 62.6196 32.34 63.2996 31.5 63.2996Z" fill="#037DB1"/>
<path d="M37.88 50.9004H37.62C33.42 50.9004 30 54.3204 30 58.5204V62.2804C30 66.4804 33.42 69.9004 37.62 69.9004H37.88C42.08 69.9004 45.5 66.4804 45.5 62.2804V58.5204C45.5 54.3204 42.08 50.9004 37.88 50.9004Z" fill="#037DB1"/>
<path d="M62.38 50.9004H62.12C57.92 50.9004 54.5 54.3204 54.5 58.5204V62.2804C54.5 66.4804 57.92 69.9004 62.12 69.9004H62.38C66.58 69.9004 70 66.4804 70 62.2804V58.5204C70 54.3204 66.58 50.9004 62.38 50.9004Z" fill="#037DB1"/>
</svg>
