<svg width="723" height="543" fill="none" xmlns="http://www.w3.org/2000/svg"><path d="M225 291.649c0-47.574 38.516-86.141 86.028-86.141H488v312.88C488 531.981 476.995 543 463.421 543H249.579C236.005 543 225 531.981 225 518.388V291.649ZM235.01 81.284A131.812 131.812 0 0 0 225 131.673c0 19.03 15.406 34.456 34.411 34.456 19.005 0 34.467-15.426 34.467-34.456a62.758 62.758 0 0 1 18.341-44.339 62.62 62.62 0 0 1 20.316-13.593 62.552 62.552 0 0 1 47.93 0 62.62 62.62 0 0 1 20.316 13.593 62.758 62.758 0 0 1 18.341 44.339H488c0-17.292-3.401-34.414-10.01-50.39a131.691 131.691 0 0 0-28.505-42.717 131.492 131.492 0 0 0-42.662-28.543 131.35 131.35 0 0 0-100.646 0 131.492 131.492 0 0 0-42.662 28.543 131.689 131.689 0 0 0-28.505 42.718Z" fill="#fff"/><path d="M488 131.673h-68.878v79.373H488v-79.373Z" fill="#fff"/><path d="M356.5 279c-12.174 0-23.494-2.029-33.959-6.088-10.466-4.059-19.65-10.575-27.552-19.547-7.903-8.973-14.096-20.829-18.582-35.569C272.136 202.842 270 184.576 270 163v-6.409c0-20.081 2.136-37.064 6.407-50.95 4.486-13.886 10.679-25.101 18.582-33.647 7.902-8.758 17.086-15.06 27.552-18.906C333.006 49.03 344.326 47 356.5 47c12.174 0 23.494 2.03 33.959 6.088 10.466 3.846 19.65 10.148 27.552 18.907 7.903 8.545 13.99 19.76 18.261 33.646 4.485 13.886 6.728 30.869 6.728 50.95V163c0 21.576-2.243 39.842-6.728 54.796-4.271 14.74-10.358 26.596-18.261 35.569-7.902 8.972-17.086 15.488-27.552 19.547C379.994 276.971 368.674 279 356.5 279Z" fill="#1A2528"/><path d="M112.35 275v-47.508H6.42v-33.384L112.35 50.3h48.15v137.388h25.359v39.804H160.5V275h-48.15Zm-60.99-87.312h60.99v-83.781l-60.99 83.781ZM633.35 275v-47.508H527.42v-33.384L633.35 50.3h48.15v137.388h25.359v39.804H681.5V275h-48.15Zm-60.99-87.312h60.99v-83.781l-60.99 83.781Z" fill="#fff"/></svg>