<svg width="100" height="100" viewBox="0 0 100 100" fill="none" xmlns="http://www.w3.org/2000/svg">
<rect x="0.5" y="0.5" width="99" height="99" rx="49.5" stroke="#037DB1" stroke-opacity="0.3"/>
<path opacity="0.4" d="M40 32H60C66 32 70 35 70 42V48.28C70 49.74 68.5 50.66 67.16 50.08C64.96 49.12 62.46 48.76 59.84 49.18C54.6 50.04 50.32 54.18 49.26 59.38C48.96 60.9 48.92 62.38 49.12 63.8C49.28 64.98 48.32 66.02 47.14 66.02H40C34 66.02 30 63.02 30 56.02V42.02C30 35 34 32 40 32Z" fill="#037DB1"/>
<path d="M50 49.7399C48.32 49.7399 46.62 49.2199 45.32 48.1599L39.06 43.1599C38.42 42.6399 38.3 41.6999 38.82 41.0599C39.34 40.4199 40.28 40.2999 40.92 40.8199L47.18 45.8199C48.7 47.0399 51.28 47.0399 52.8 45.8199L59.06 40.8199C59.7 40.2999 60.66 40.3999 61.16 41.0599C61.68 41.6999 61.58 42.6599 60.92 43.1599L54.66 48.1599C53.38 49.2199 51.68 49.7399 50 49.7399Z" fill="#037DB1"/>
<path d="M62 52C56.48 52 52 56.46 52 62C52 67.52 56.48 72 62 72C67.54 72 72 67.52 72 62C72 56.46 67.54 52 62 52ZM66.1 61.1L65.36 61.82L61.02 66.18C60.82 66.36 60.44 66.56 60.16 66.6L58.2 66.88C57.5 66.98 57 66.48 57.1 65.78L57.38 63.82C57.42 63.54 57.6 63.16 57.8 62.96L62.16 58.62L62.88 57.88C63.36 57.4 63.9 57.08 64.46 57.08C64.94 57.08 65.48 57.3 66.08 57.88C67.4 59.2 66.98 60.22 66.1 61.1Z" fill="#037DB1"/>
</svg>
