<svg width="100" height="100" viewBox="0 0 100 100" fill="none" xmlns="http://www.w3.org/2000/svg">
<rect x="0.5" y="0.5" width="99" height="99" rx="49.5" stroke="#037DB1" stroke-opacity="0.3"/>
<path opacity="0.4" d="M58.48 33.3H41.52C36.58 33.3 32.58 37.32 32.58 42.24V61.0601C32.58 65.9801 36.6 70 41.52 70H58.46C63.4 70 67.4 65.9801 67.4 61.0601V42.24C67.42 37.3 63.4 33.3 58.48 33.3Z" fill="#037DB1"/>
<path d="M54.7 30H45.3C43.22 30 41.52 31.68 41.52 33.76V35.64C41.52 37.72 43.2 39.4 45.28 39.4H54.7C56.78 39.4 58.46 37.72 58.46 35.64V33.76C58.48 31.68 56.78 30 54.7 30Z" fill="#037DB1"/>
<path d="M47.62 59.9C47.24 59.9 46.86 59.76 46.56 59.46L43.56 56.46C42.98 55.88 42.98 54.92 43.56 54.34C44.14 53.76 45.1 53.76 45.68 54.34L47.62 56.28L54.56 49.34C55.14 48.76 56.1 48.76 56.68 49.34C57.26 49.92 57.26 50.88 56.68 51.46L48.68 59.46C48.4 59.76 48 59.9 47.62 59.9Z" fill="#037DB1"/>
</svg>
