<svg width="73" height="73" viewBox="0 0 73 73" fill="none" xmlns="http://www.w3.org/2000/svg">
<path d="M36.7995 0.701358C41.555 0.694873 46.2634 1.64266 50.646 3.48859C55.0286 5.33453 58.9963 8.04108 62.3141 11.448C65.5716 14.7916 68.1386 18.7441 69.8686 23.0798C71.5986 27.4155 72.4576 32.0494 72.3967 36.7171C72.3358 41.3848 71.3561 45.9948 69.5136 50.2839C67.671 54.5729 65.0017 58.4571 61.6581 61.7145C55.9653 67.2478 48.5841 70.7162 40.691 71.5668C32.7978 72.4174 24.8471 70.6013 18.1062 66.4079L18.4422 66.7279L4.49555 71.7305L9.86621 59.3839C3.98405 52.5243 0.935118 43.682 1.33932 34.6548C1.74353 25.6275 5.57052 17.0931 12.0422 10.7867C18.6662 4.33616 27.5429 0.720437 36.7888 0.706688L36.7995 0.701358Z" stroke="white" stroke-width="1.032" stroke-linecap="round" stroke-linejoin="round"/>
<path d="M23.3915 40.536C25.4534 40.536 27.1249 38.8645 27.1249 36.8027C27.1249 34.7408 25.4534 33.0693 23.3915 33.0693C21.3297 33.0693 19.6582 34.7408 19.6582 36.8027C19.6582 38.8645 21.3297 40.536 23.3915 40.536Z" fill="white"/>
<path d="M37.4657 40.536C39.5276 40.536 41.1991 38.8645 41.1991 36.8027C41.1991 34.7408 39.5276 33.0693 37.4657 33.0693C35.4039 33.0693 33.7324 34.7408 33.7324 36.8027C33.7324 38.8645 35.4039 40.536 37.4657 40.536Z" fill="white"/>
<path d="M51.5409 40.536C53.6028 40.536 55.2743 38.8645 55.2743 36.8027C55.2743 34.7408 53.6028 33.0693 51.5409 33.0693C49.4791 33.0693 47.8076 34.7408 47.8076 36.8027C47.8076 38.8645 49.4791 40.536 51.5409 40.536Z" fill="white"/>
</svg>
