<svg width="76" height="76" viewBox="0 0 76 76" fill="none" xmlns="http://www.w3.org/2000/svg">
<path d="M38.2569 73.5137C57.7287 73.5137 73.5137 57.7287 73.5137 38.2569C73.5137 18.785 57.7287 3 38.2569 3C18.785 3 3 18.785 3 38.2569C3 57.7287 18.785 73.5137 38.2569 73.5137Z" stroke="white" stroke-linecap="round" stroke-linejoin="round"/>
<path d="M45.7102 9.22723L44.3713 14.2207M38.0004 8.21191V13.3805V8.21191ZM30.2905 9.22723L31.6294 14.2207L30.2905 9.22723ZM23.1061 12.2019L25.6889 16.6788L23.1061 12.2019ZM16.9371 16.9371L20.5916 20.5916L16.9371 16.9371ZM12.2019 23.1061L16.6788 25.6889L12.2019 23.1061ZM63.7988 52.8946L59.3219 50.3118L63.7988 52.8946ZM9.22723 30.2905L14.2207 31.6294L9.22723 30.2905ZM66.7735 45.7102L61.78 44.3713L66.7735 45.7102ZM8.21191 38.0004H13.3805H8.21191ZM67.7888 38.0004H62.6202H67.7888ZM9.22723 45.7102L14.2207 44.3713L9.22723 45.7102ZM66.7735 30.2905L61.78 31.6294L66.7735 30.2905ZM12.2019 52.8946L16.6788 50.3118L12.2019 52.8946ZM63.7988 23.1061L59.3219 25.6889L63.7988 23.1061ZM59.0636 16.9371L55.4091 20.5916L59.0636 16.9371ZM52.8946 12.2019L50.3118 16.6788L52.8946 12.2019Z" stroke="white" stroke-width="2" stroke-linecap="round" stroke-linejoin="round"/>
<path d="M38 41C39.6569 41 41 39.6569 41 38C41 36.3431 39.6569 35 38 35C36.3431 35 35 36.3431 35 38C35 39.6569 36.3431 41 38 41Z" fill="white"/>
<path d="M38 38L50.5 45.5" stroke="white" stroke-width="2" stroke-linecap="round"/>
</svg>
