<svg width="100" height="100" viewBox="0 0 100 100" fill="none" xmlns="http://www.w3.org/2000/svg">
<rect x="0.5" y="0.5" width="99" height="99" rx="49.5" stroke="#037DB1" stroke-opacity="0.3"/>
<path opacity="0.4" d="M47.92 30.1202L36.92 34.2402C34.82 35.0402 33.1 37.5202 33.1 39.7802V55.9802C33.1 57.6002 34.16 59.7402 35.46 60.7002L46.46 68.9202C48.4 70.3802 51.58 70.3802 53.52 68.9202L64.52 60.7002C65.82 59.7202 66.88 57.6002 66.88 55.9802V39.7802C66.88 37.5402 65.16 35.0402 63.06 34.2602L52.06 30.1402C50.94 29.7002 49.06 29.7002 47.92 30.1202Z" fill="#037DB1"/>
<path d="M47.32 54.4602C46.94 54.4602 46.56 54.3202 46.26 54.0202L43.04 50.8002C42.46 50.2202 42.46 49.2602 43.04 48.6802C43.62 48.1002 44.58 48.1002 45.16 48.6802L47.32 50.8402L54.86 43.3002C55.44 42.7202 56.4 42.7202 56.98 43.3002C57.56 43.8802 57.56 44.8402 56.98 45.4202L48.38 54.0202C48.08 54.3202 47.7 54.4602 47.32 54.4602Z" fill="#037DB1"/>
</svg>
