<svg width="100" height="100" viewBox="0 0 100 100" fill="none" xmlns="http://www.w3.org/2000/svg">
<rect x="0.5" y="0.5" width="99" height="99" rx="49.5" stroke="#037DB1" stroke-opacity="0.3"/>
<path opacity="0.4" d="M61.06 41.54C60.92 41.52 60.78 41.52 60.64 41.54C57.54 41.44 55.08 38.9 55.08 35.78C55.08 32.6 57.66 30 60.86 30C64.04 30 66.64 32.58 66.64 35.78C66.62 38.9 64.16 41.44 61.06 41.54Z" fill="#037DB1"/>
<path opacity="0.4" d="M67.58 55.3998C65.34 56.8998 62.2 57.4598 59.3 57.0798C60.06 55.4398 60.46 53.6198 60.48 51.6998C60.48 49.6998 60.04 47.7998 59.2 46.1398C62.16 45.7398 65.3 46.2998 67.56 47.7998C70.72 49.8798 70.72 53.2998 67.58 55.3998Z" fill="#037DB1"/>
<path opacity="0.4" d="M38.88 41.54C39.02 41.52 39.16 41.52 39.3 41.54C42.4 41.44 44.86 38.9 44.86 35.78C44.86 32.6 42.28 30 39.08 30C35.9 30 33.3 32.58 33.3 35.78C33.32 38.9 35.78 41.44 38.88 41.54Z" fill="#037DB1"/>
<path opacity="0.4" d="M39.1 51.7002C39.1 53.6402 39.52 55.4802 40.28 57.1402C37.46 57.4402 34.52 56.8402 32.36 55.4202C29.2 53.3202 29.2 49.9002 32.36 47.8002C34.5 46.3602 37.52 45.7802 40.36 46.1002C39.54 47.7802 39.1 49.6802 39.1 51.7002Z" fill="#037DB1"/>
<path d="M50.24 57.74C50.08 57.72 49.9 57.72 49.72 57.74C46.04 57.62 43.1 54.6 43.1 50.88C43.1 47.08 46.16 44 49.98 44C53.78 44 56.86 47.08 56.86 50.88C56.86 54.6 53.94 57.62 50.24 57.74Z" fill="#037DB1"/>
<path d="M43.74 61.8798C40.72 63.8998 40.72 67.2198 43.74 69.2198C47.18 71.5198 52.82 71.5198 56.26 69.2198C59.28 67.1998 59.28 63.8798 56.26 61.8798C52.84 59.5798 47.2 59.5798 43.74 61.8798Z" fill="#037DB1"/>
</svg>
