<svg width="100" height="100" viewBox="0 0 100 100" fill="none" xmlns="http://www.w3.org/2000/svg">
<rect x="0.5" y="0.5" width="99" height="99" rx="49.5" stroke="#037DB1" stroke-opacity="0.3"/>
<path opacity="0.4" d="M70 41.62V58.36C70 65.64 65.66 69.98 58.38 69.98H41.62C34.34 70 30 65.66 30 58.38V41.62C30 34.34 34.34 30 41.62 30H58.36C65.66 30 70 34.34 70 41.62Z" fill="#037DB1"/>
<path d="M51.06 36.94L59.64 45.52C60.22 46.1 60.22 47.06 59.64 47.64C59.06 48.22 58.1 48.22 57.52 47.64L51.5 41.62V62C51.5 62.82 50.82 63.5 50 63.5C49.18 63.5 48.5 62.82 48.5 62V41.62L42.48 47.64C41.9 48.22 40.94 48.22 40.36 47.64C40.06 47.34 39.92 46.96 39.92 46.58C39.92 46.2 40.08 45.8 40.36 45.52L48.94 36.94C49.22 36.66 49.6 36.5 50 36.5C50.4 36.5 50.78 36.66 51.06 36.94Z" fill="#037DB1"/>
</svg>
