<svg width="100" height="100" viewBox="0 0 100 100" fill="none" xmlns="http://www.w3.org/2000/svg">
<rect x="0.5" y="0.5" width="99" height="99" rx="49.5" stroke="#037DB1" stroke-opacity="0.3"/>
<path d="M59.5 33.12V30C59.5 29.18 58.82 28.5 58 28.5C57.18 28.5 56.5 29.18 56.5 30V33H43.5V30C43.5 29.18 42.82 28.5 42 28.5C41.18 28.5 40.5 29.18 40.5 30V33.12C35.1 33.62 32.48 36.84 32.08 41.62C32.04 42.2 32.52 42.68 33.08 42.68H66.92C67.5 42.68 67.98 42.18 67.92 41.62C67.52 36.84 64.9 33.62 59.5 33.12Z" fill="#037DB1"/>
<path opacity="0.4" d="M66 45.6802C67.1 45.6802 68 46.5802 68 47.6802V60.0002C68 66.0002 65 70.0002 58 70.0002H42C35 70.0002 32 66.0002 32 60.0002V47.6802C32 46.5802 32.9 45.6802 34 45.6802H66Z" fill="#037DB1"/>
<path d="M43 55.9997C42.48 55.9997 41.96 55.7797 41.58 55.4197C41.22 55.0397 41 54.5197 41 53.9997C41 53.4797 41.22 52.9598 41.58 52.5798C42.14 52.0198 43.02 51.8397 43.76 52.1597C44.02 52.2597 44.24 52.3998 44.42 52.5798C44.78 52.9598 45 53.4797 45 53.9997C45 54.5197 44.78 55.0397 44.42 55.4197C44.04 55.7797 43.52 55.9997 43 55.9997Z" fill="#037DB1"/>
<path d="M50 55.9997C49.48 55.9997 48.96 55.7797 48.58 55.4197C48.22 55.0397 48 54.5197 48 53.9997C48 53.4797 48.22 52.9598 48.58 52.5798C48.76 52.3998 48.98 52.2597 49.24 52.1597C49.98 51.8397 50.86 52.0198 51.42 52.5798C51.78 52.9598 52 53.4797 52 53.9997C52 54.5197 51.78 55.0397 51.42 55.4197C51.32 55.4997 51.22 55.5797 51.12 55.6597C51 55.7397 50.88 55.7998 50.76 55.8398C50.64 55.8998 50.52 55.9398 50.4 55.9598C50.26 55.9798 50.14 55.9997 50 55.9997Z" fill="#037DB1"/>
<path d="M57 56C56.48 56 55.96 55.78 55.58 55.42C55.22 55.04 55 54.52 55 54C55 53.48 55.22 52.96 55.58 52.58C55.78 52.4 55.98 52.26 56.24 52.16C56.6 52 57 51.96 57.4 52.04C57.52 52.06 57.64 52.1 57.76 52.16C57.88 52.2 58 52.2601 58.12 52.3401C58.22 52.4201 58.32 52.5 58.42 52.58C58.78 52.96 59 53.48 59 54C59 54.52 58.78 55.04 58.42 55.42C58.32 55.5 58.22 55.58 58.12 55.66C58 55.74 57.88 55.8 57.76 55.84C57.64 55.9 57.52 55.94 57.4 55.96C57.26 55.98 57.12 56 57 56Z" fill="#037DB1"/>
<path d="M43 63C42.74 63 42.48 62.94 42.24 62.84C41.98 62.74 41.78 62.6 41.58 62.42C41.22 62.04 41 61.52 41 61C41 60.48 41.22 59.96 41.58 59.58C41.78 59.4 41.98 59.26 42.24 59.16C42.6 59 43 58.96 43.4 59.04C43.52 59.06 43.64 59.1 43.76 59.16C43.88 59.2 44 59.2601 44.12 59.3401C44.22 59.4201 44.32 59.5 44.42 59.58C44.78 59.96 45 60.48 45 61C45 61.52 44.78 62.04 44.42 62.42C44.32 62.5 44.22 62.6 44.12 62.66C44 62.74 43.88 62.8 43.76 62.84C43.64 62.9 43.52 62.94 43.4 62.96C43.26 62.98 43.14 63 43 63Z" fill="#037DB1"/>
<path d="M50 62.9999C49.48 62.9999 48.96 62.7799 48.58 62.4199C48.22 62.0399 48 61.5199 48 60.9999C48 60.4799 48.22 59.9599 48.58 59.5799C49.32 58.8399 50.68 58.8399 51.42 59.5799C51.78 59.9599 52 60.4799 52 60.9999C52 61.5199 51.78 62.0399 51.42 62.4199C51.04 62.7799 50.52 62.9999 50 62.9999Z" fill="#037DB1"/>
<path d="M57 62.9999C56.48 62.9999 55.96 62.7799 55.58 62.4199C55.22 62.0399 55 61.5199 55 60.9999C55 60.4799 55.22 59.9599 55.58 59.5799C56.32 58.8399 57.68 58.8399 58.42 59.5799C58.78 59.9599 59 60.4799 59 60.9999C59 61.5199 58.78 62.0399 58.42 62.4199C58.04 62.7799 57.52 62.9999 57 62.9999Z" fill="#037DB1"/>
</svg>
