<svg width="72" height="72" viewBox="0 0 72 72" fill="none" xmlns="http://www.w3.org/2000/svg">
<circle cx="36" cy="36" r="35.5" stroke="#1C1C1C"/>
<path d="M49.4531 17.5268H42.3266V14.479C42.3266 14.1204 42.0128 13.8066 41.6543 13.8066H31.0318C30.6732 13.8066 30.3594 14.1204 30.3594 14.479V17.5268H22.8296C21.2608 17.5268 20.0059 18.7817 20.0059 20.3505V54.1453C20.0059 55.714 21.2608 56.969 22.8296 56.969H49.4979C51.0666 56.969 52.3216 55.714 52.3216 54.1453V20.3505C52.2768 18.7817 51.0218 17.5268 49.4531 17.5268ZM31.0318 26.222H41.6543C42.0128 26.222 42.3266 25.9082 42.3266 25.5497V22.6363H47.0327V51.6353H25.2499V22.6811H30.3594V25.5497C30.3594 25.9531 30.6732 26.222 31.0318 26.222ZM40.982 15.1513V24.8774H31.7041V15.1513H40.982ZM50.9321 54.1005C50.9321 54.9072 50.2598 55.5795 49.4531 55.5795H22.8296C22.0228 55.5795 21.3505 54.9072 21.3505 54.1005V20.3505C21.3505 19.5437 22.0228 18.8714 22.8296 18.8714H30.3594V21.3365H24.5776C24.219 21.3365 23.9053 21.6503 23.9053 22.0088V52.3525C23.9053 52.711 24.219 53.0248 24.5776 53.0248H47.7051C48.0636 53.0248 48.3774 52.711 48.3774 52.3525V22.0088C48.3774 21.6503 48.0636 21.3365 47.7051 21.3365H42.3266V18.8714H49.4531C50.2598 18.8714 50.9321 19.5437 50.9321 20.3505V54.1005Z" fill="#1C1C1C"/>
<path d="M26.9082 33.7973C26.9082 34.1559 27.2219 34.4696 27.5805 34.4696H44.8365C45.1951 34.4696 45.5088 34.1559 45.5088 33.7973C45.5088 33.4387 45.1951 33.125 44.8365 33.125H27.5805C27.2219 33.125 26.9082 33.4387 26.9082 33.7973ZM44.8365 37.8312H27.5805C27.2219 37.8312 26.9082 38.1449 26.9082 38.5035C26.9082 38.8621 27.2219 39.1758 27.5805 39.1758H44.8365C45.1951 39.1758 45.5088 38.8621 45.5088 38.5035C45.5088 38.1449 45.1951 37.8312 44.8365 37.8312ZM44.8365 42.7615H27.5805C27.2219 42.7615 26.9082 43.0752 26.9082 43.4338C26.9082 43.7923 27.2219 44.1061 27.5805 44.1061H44.8365C45.1951 44.1061 45.5088 43.7923 45.5088 43.4338C45.5088 43.0752 45.1951 42.7615 44.8365 42.7615Z" fill="#1C1C1C"/>
</svg>
