<svg width="43" height="43" viewBox="0 0 43 43" fill="none" xmlns="http://www.w3.org/2000/svg">
<g clip-path="url(#clip0_132_432)">
<path d="M28.0006 9.14878C27.2952 9.8542 27.2952 11.0053 28.0006 11.7103L30.2145 13.9246C30.446 14.1557 30.4482 14.5403 30.2145 14.7735C29.9756 15.0124 29.591 15.0111 29.3594 14.78L25.198 10.6182C24.4883 9.90883 23.3454 9.90926 22.6365 10.6182C21.9311 11.3231 21.9276 12.4699 22.6373 13.1784L25.9425 16.4835C26.177 16.7181 26.1736 17.1009 25.9407 17.3338C25.7036 17.5718 25.3207 17.5744 25.0862 17.3398L20.3498 12.6035C19.6453 11.8981 18.4989 11.8955 17.7891 12.6052C17.0807 13.3141 17.0837 14.4596 17.7883 15.165L22.525 19.9014C22.7596 20.1359 22.757 20.5175 22.519 20.7555C22.2861 20.9883 21.9042 20.9909 21.6696 20.7564L10.7674 9.8542C10.0581 9.14531 8.91087 9.14964 8.20588 9.8542C7.49699 10.5631 7.49699 11.706 8.20674 12.4157L23.3805 27.5899L19.278 26.9513C17.9782 26.6759 16.7095 27.4113 16.4312 28.601C16.1619 29.7925 16.9931 30.9822 18.2873 31.2653C18.2873 31.2653 25.2986 32.6974 28.2955 33.3139C31.2945 33.9357 34.6365 33.4223 38.2416 29.8176C44.2071 23.8517 40.135 18.7125 38.7584 17.3355L30.5674 9.14357C29.862 8.43858 28.7095 8.43988 28.0006 9.14878Z" fill="white" stroke="#58595B" stroke-width="3.4835" stroke-miterlimit="10"/>
<path d="M28.0006 9.14878C27.2952 9.8542 27.2952 11.0053 28.0006 11.7103L30.2145 13.9246C30.446 14.1557 30.4482 14.5403 30.2145 14.7735C29.9756 15.0124 29.591 15.0111 29.3594 14.78L25.198 10.6182C24.4883 9.90883 23.3454 9.90926 22.6365 10.6182C21.9311 11.3231 21.9276 12.4699 22.6373 13.1784L25.9425 16.4835C26.177 16.7181 26.1736 17.1009 25.9407 17.3338C25.7036 17.5718 25.3207 17.5744 25.0862 17.3398L20.3498 12.6035C19.6453 11.8981 18.4989 11.8955 17.7891 12.6052C17.0807 13.3141 17.0837 14.4596 17.7883 15.165L22.525 19.9014C22.7596 20.1359 22.757 20.5175 22.519 20.7555C22.2861 20.9883 21.9042 20.9909 21.6696 20.7564L10.7674 9.8542C10.0581 9.14531 8.91087 9.14964 8.20588 9.8542C7.49699 10.5631 7.49699 11.706 8.20674 12.4157L23.3805 27.5899L19.278 26.9513C17.9782 26.6759 16.7095 27.4113 16.4312 28.601C16.1619 29.7925 16.9931 30.9822 18.2873 31.2653C18.2873 31.2653 25.2986 32.6974 28.2955 33.3139C31.2945 33.9357 34.6365 33.4223 38.2416 29.8176C44.2071 23.8517 40.135 18.7125 38.7584 17.3355L30.5674 9.14357C29.862 8.43858 28.7095 8.43988 28.0006 9.14878Z" fill="white" stroke="#58595B" stroke-miterlimit="10" stroke-linecap="round" stroke-linejoin="round"/>
<path fill-rule="evenodd" clip-rule="evenodd" d="M4.91769 19.2497C5.88716 18.5274 7.40293 16.555 8.42573 18.1736C9.56992 19.9855 9.54955 22.0094 10.2584 23.748C9.98919 24.2527 9.3978 24.5111 9.03533 24.1985C8.77172 24.0645 8.96206 23.8165 8.93561 23.6236C8.48946 22.2002 8.34335 20.7004 7.57419 19.3594C5.53727 21.8268 3.92654 25.3149 4.29378 28.216C4.47675 29.6706 5.18954 31.6598 6.24009 32.6094C6.73436 33.0564 7.37388 32.9801 7.69689 33.6222C7.86468 33.9634 7.18267 34.276 6.8757 34.3844C5.20515 33.5875 4.25302 32.2157 3.76135 30.8421C2.5777 27.5244 3.3694 23.6986 5.85334 20.0267C4.69744 20.5586 3.66987 21.5923 2.58897 22.4247C2.25772 22.3857 1.98761 22.596 1.60303 22.3519C2.14933 20.8964 3.61957 20.2174 4.91769 19.2497Z" fill="#939598"/>
</g>
<defs>
<clipPath id="clip0_132_432">
<rect width="43" height="43" fill="white"/>
</clipPath>
</defs>
</svg>
