<!-- icon666.com - MILLIONS vector ICONS FREE --><svg id="Capa_1" enable-background="new 0 0 572.941 572.941" viewBox="0 0 572.941 572.941" xmlns="http://www.w3.org/2000/svg"><g><path d="m336.52 49.05v27.262l-6.975-1.658c-28.394-6.644-57.938-6.644-86.331 0l-6.975 1.658v-27.262c.59-27.673 23.501-49.628 51.174-49.038 26.843.572 48.466 22.196 49.038 49.038z" fill="#000000" style="fill: rgb(255, 255, 255);"></path><path d="m365.918 502.38-1.386 6.816c-8.844 43.144-50.988 70.949-94.132 62.105-31.264-6.409-55.696-30.841-62.105-62.105l-1.386-6.816z" fill="#000000" style="fill: rgb(255, 255, 255);"></path><path d="m534.741 484.114h-496.541l77.88-103.734c1.17-1.587 1.806-3.504 1.818-5.475v-118.615c-.01-93.113 75.465-168.604 168.578-168.613 93.113-.01 168.604 75.465 168.613 168.578v.035 118.615c-.005 1.974.633 3.896 1.817 5.475z" fill="#000000" style="fill: rgb(255, 255, 255);"></path></g></svg>