<!-- icon666.com - MILLIONS vector ICONS FREE --><svg id="Capa_1" enable-background="new 0 0 512.25 512.25" viewBox="0 0 512.25 512.25" xmlns="http://www.w3.org/2000/svg"><g><path d="m512.25 228.96c0-19.057-10.823-35.632-26.646-43.902 4.35-7.364 6.847-15.944 6.847-25.098 0-19.333-11.141-36.113-27.339-44.257 4.222-7.284 6.639-15.735 6.639-24.743 0-27.294-22.206-49.5-49.5-49.5h-253.251v-35h-169v341h195.025l81.89 158.329 13.282-6.764c24.335-12.392 42.641-33.384 51.544-59.109 8.909-25.742 7.471-53.518-4.02-78.144l-6.595-14.319 114.387-.034c27.273-.008 49.465-22.19 49.486-49.459 0-.007 0-.014 0-.021s0-.014 0-.021c-.008-9.579-2.749-18.527-7.486-26.11 14.777-8.572 24.737-24.569 24.737-42.848zm-373.25 88.5h-109v-281h109zm323.75-69h-25.224v30h7.974c10.746 0 19.489 8.736 19.5 19.479-.011 10.74-8.752 19.477-19.495 19.479l-161.216.048 26.215 56.922c14.896 31.926 5.396 68.794-21.308 89.842l-75.913-146.77h-44.283v-246h253.25c10.752 0 19.5 8.748 19.5 19.5s-8.748 19.5-19.5 19.5h-1.15v30h21.851c10.752 0 19.5 8.748 19.5 19.5s-8.748 19.5-19.5 19.5h-7.098v30h26.897c10.752 0 19.5 8.748 19.5 19.5s-8.748 19.5-19.5 19.5z" fill="#000000" style="fill: rgb(79, 88, 208);"></path><path d="m60 66.46h49v30h-49z" fill="#000000" style="fill: rgb(79, 88, 208);"></path></g></svg>