<!-- icon666.com - MILLIONS vector ICONS FREE --><svg viewBox="0 0 32 32" xmlns="http://www.w3.org/2000/svg"><g id="_22_Right" data-name="22 Right"><path d="m28.8608 16.874-20.25 11.25a1.0157 1.0157 0 0 1 -1.4663-1.07l2.2105-11.054-2.2105-11.0537a1.0088 1.0088 0 0 1 1.4663-1.07l20.25 11.25a1.0092 1.0092 0 0 1 0 1.7477z" fill="#bddbff" style="fill: rgb(53, 74, 186);"></path><path d="m7.1445 27.0537 2.2105-11.0537-2.2105-11.0537a1.0088 1.0088 0 0 1 1.4663-1.07l20.25 11.25a1.0092 1.0092 0 0 1 0 1.748l-20.25 11.25a.9856.9856 0 0 1 -1.4663-1.0706zm2.3855-20.3794 1.8257 9.1294a1.0023 1.0023 0 0 1 0 .3926l-1.8257 9.1294 16.7859-9.3257zm-4.9245 20.772 2.25-11.25a1.0023 1.0023 0 0 0 0-.3926l-2.25-11.25a1.0005 1.0005 0 0 0 -1.9609.3926l2.2104 11.0537-2.21 11.0537a1.0006 1.0006 0 0 0 1.9605.3926z" fill="#3d9ae2" style="fill: rgb(53, 74, 186);"></path></g></svg>