<!-- icon666.com - MILLIONS vector ICONS FREE --><svg clip-rule="evenodd" fill-rule="evenodd" stroke-linejoin="round" stroke-miterlimit="2" viewBox="0 0 24 24" xmlns="http://www.w3.org/2000/svg"><g id="Icon"><g><path d="m10.75 20.75h5c.464 0 .909-.184 1.237-.513.329-.328.513-.773.513-1.237 0-1.707 0-5 0-5 0-.414-.336-.75-.75-.75s-.75.336-.75.75v5c0 .066-.026.13-.073.177s-.111.073-.177.073h-5c-.414 0-.75.336-.75.75s.336.75.75.75z" fill="#000000" style="fill: rgb(255, 255, 255);"></path><path d="m17.5 8v-5c0-.966-.783-1.75-1.75-1.75h-13c-.414 0-.75.336-.75.75v16c0 .414.336.75.75.75s.75-.336.75-.75v-15.25h12.25c.138 0 .25.112.25.25v5c0 .414.336.75.75.75s.75-.336.75-.75z" fill="#000000" style="fill: rgb(255, 255, 255);"></path><path d="m11.5 20.719v-15.679c0-.781-.518-1.468-1.269-1.683-1.971-.563-7.275-2.078-7.275-2.078-.226-.065-.47-.019-.658.122-.188.142-.298.364-.298.599v18c0 .344.234.644.568.728l6.758 1.689c.522.131 1.076.013 1.501-.318.425-.332.673-.841.673-1.38z" fill="#000000" style="fill: rgb(255, 255, 255);"></path><path d="m14.25 11.75h6c.414 0 .75-.336.75-.75s-.336-.75-.75-.75h-6c-.414 0-.75.336-.75.75s.336.75.75.75z" fill="#000000" style="fill: rgb(255, 255, 255);"></path><path d="m18.72 9.53 1.469 1.47s-1.469 1.47-1.469 1.47c-.293.292-.293.768 0 1.06.292.293.768.293 1.06 0l2-2c.293-.293.293-.767 0-1.06l-2-2c-.292-.293-.768-.293-1.06 0-.293.292-.293.768 0 1.06z" fill="#000000" style="fill: rgb(255, 255, 255);"></path></g></g></svg>