<!-- icon666.com - MILLIONS vector ICONS FREE --><svg id="Line" enable-background="new 0 0 32 32" viewBox="0 0 32 32" xmlns="http://www.w3.org/2000/svg"><path id="XMLID_75_" d="m26.002 12h-5.002v-4.974c0-1.669-1.357-3.026-3.026-3.026-.924 0-1.785.414-2.363 1.136l-5.822 7.278c-.183-.245-.46-.414-.789-.414h-6c-.553 0-1 .448-1 1v14c0 .552.447 1 1 1h6c.542 0 1-.381 1-1.132l1.445.964c.164.109.358.168.555.168h12.473c1.331 0 2.517-.895 2.883-2.176l2.489-8.725c.729-2.558-1.187-5.099-3.843-5.099zm-18.002 14h-4v-12h4zm19.921-9.45-2.489 8.725c-.121.427-.516.725-.959.725h-12.17l-2.303-1.535v-9.114l7.172-8.965c.196-.245.488-.386.802-.386.566 0 1.026.46 1.026 1.026v5.974c0 .552.447 1 1 1h6.002c1.325 0 2.284 1.269 1.919 2.55z"></path><path id="XMLID_79_" d="m7 23c0 .552-.448 1-1 1s-1-.448-1-1 .448-1 1-1 1 .448 1 1z"></path></svg>