<!-- icon666.com - MILLIONS vector ICONS FREE --><svg fill="none" viewBox="0 0 24 24" xmlns="http://www.w3.org/2000/svg"><g fill="rgb(0,0,0)"><path d="m20.3802 8.57-1.23 1.85c.5931 1.1831.8835 2.4948.8452 3.8177-.0384 1.3229-.4044 2.6156-1.0652 3.7623h-13.86003c-.85883-1.4899-1.2147-3.2169-1.01486-4.9249.19985-1.7081.94477-3.30628 2.12434-4.55767 1.17957-1.2514 2.73099-2.08939 4.42425-2.38973 1.6933-.30035 3.4383-.04707 4.9763.7223l1.85-1.23c-1.8835-1.20778-4.1177-1.749-6.3451-1.53706-2.22747.21193-4.31948 1.16476-5.94143 2.70607-1.62196 1.54132-2.68014 3.58209-3.00528 5.79579-.32514 2.2138.10153 4.4726 1.21178 6.4152.17451.3023.42509.5536.72683.7291.30175.1754.64415.2688.99317.2709h13.85003c.3524.0014.6989-.0904 1.0045-.266.3055-.1756.5593-.4288.7355-.734.9213-1.5961 1.3837-3.4157 1.3361-5.258-.0477-1.8424-.6035-3.6357-1.6061-5.182z" fill="rgb(0,0,0)" style="fill: rgb(255, 255, 255);"></path><path d="m10.5905 15.41c.1857.1859.4063.3335.6491.4341.2428.1007.503.1525.7659.1525.2628 0 .5231-.0518.7659-.1525.2428-.1006.4633-.2482.6491-.4341l5.66-8.49002-8.49 5.66002c-.186.1857-.3335.4063-.4341.6491-.1007.2428-.1525.5031-.1525.7659s.0518.5231.1525.7659c.1006.2428.2481.4633.4341.6491z" fill="rgb(0,0,0)" style="fill: rgb(255, 255, 255);"></path></g></svg>