<svg width="66" height="64" viewBox="0 0 66 64" fill="none" xmlns="http://www.w3.org/2000/svg">
<path d="M52.2953 63.4697C51.9529 63.4698 51.6144 63.3967 51.3026 63.2553C50.9907 63.1138 50.7127 62.9074 50.4872 62.6497L42.7228 53.7787C39.5988 54.5825 36.3855 54.9866 33.1598 54.9814C24.5643 54.9814 16.4636 52.1899 10.3504 47.1226C4.1043 41.9463 0.668945 35.026 0.668945 27.6348C0.668945 20.2436 4.1075 13.3232 10.3504 8.14695C16.4636 3.07961 24.5643 0.288086 33.1598 0.288086C41.7554 0.288086 49.8545 3.07961 55.9677 8.14695C62.2138 13.3232 65.6491 20.2436 65.6491 27.6348C65.6491 35.5257 61.6741 42.9281 54.6977 48.122V61.0674C54.6977 61.7045 54.4446 62.3156 53.994 62.7661C53.5435 63.2166 52.9325 63.4697 52.2953 63.4697ZM43.5316 48.6537C43.874 48.6536 44.2125 48.7267 44.5243 48.8681C44.8362 49.0096 45.1142 49.216 45.3397 49.4737L49.893 54.6755V46.8839C49.8928 46.4935 49.9878 46.1088 50.1697 45.7634C50.3517 45.4179 50.6151 45.122 50.9372 44.9012C57.2329 40.5962 60.8429 34.3021 60.8429 27.6348C60.8429 15.205 48.4227 5.09277 33.1582 5.09277C17.8938 5.09277 5.47363 15.205 5.47363 27.6348C5.47363 40.0645 17.8938 50.1768 33.1598 50.1768C36.4362 50.1845 39.6956 49.7063 42.8317 48.7578C43.0587 48.6894 43.2945 48.6544 43.5316 48.6537Z" fill="#1F1814"/>
<path d="M43.2131 20.7593H23.1055C22.4683 20.7593 21.8573 20.5062 21.4068 20.0556C20.9562 19.6051 20.7031 18.9941 20.7031 18.3569C20.7031 17.7198 20.9562 17.1087 21.4068 16.6582C21.8573 16.2077 22.4683 15.9546 23.1055 15.9546H43.2131C43.8502 15.9546 44.4613 16.2077 44.9118 16.6582C45.3623 17.1087 45.6154 17.7198 45.6154 18.3569C45.6154 18.9941 45.3623 19.6051 44.9118 20.0556C44.4613 20.5062 43.8502 20.7593 43.2131 20.7593ZM43.2131 29.8241H23.1055C22.4683 29.8241 21.8573 29.571 21.4068 29.1205C20.9562 28.67 20.7031 28.0589 20.7031 27.4218C20.7031 26.7846 20.9562 26.1736 21.4068 25.7231C21.8573 25.2725 22.4683 25.0194 23.1055 25.0194H43.2131C43.8502 25.0194 44.4613 25.2725 44.9118 25.7231C45.3623 26.1736 45.6154 26.7846 45.6154 27.4218C45.6154 28.0589 45.3623 28.67 44.9118 29.1205C44.4613 29.571 43.8502 29.8241 43.2131 29.8241ZM43.2131 38.889H23.1055C22.4683 38.889 21.8573 38.6359 21.4068 38.1853C20.9562 37.7348 20.7031 37.1238 20.7031 36.4866C20.7031 35.8495 20.9562 35.2384 21.4068 34.7879C21.8573 34.3374 22.4683 34.0843 23.1055 34.0843H43.2131C43.8502 34.0843 44.4613 34.3374 44.9118 34.7879C45.3623 35.2384 45.6154 35.8495 45.6154 36.4866C45.6154 37.1238 45.3623 37.7348 44.9118 38.1853C44.4613 38.6359 43.8502 38.889 43.2131 38.889Z" fill="#1F1814"/>
</svg>
