<?xml version="1.0" encoding="UTF-8"?>
<!DOCTYPE svg PUBLIC "-//W3C//DTD SVG 1.1//EN" "http://www.w3.org/Graphics/SVG/1.1/DTD/svg11.dtd">
<svg xmlns="http://www.w3.org/2000/svg" version="1.1" width="900px" height="900px" style="shape-rendering:geometricPrecision; text-rendering:geometricPrecision; image-rendering:optimizeQuality; fill-rule:evenodd; clip-rule:evenodd" xmlns:xlink="http://www.w3.org/1999/xlink">
<g><path style="opacity:0.996" fill="#0b94cc" d="M 426.5,60.5 C 568.735,57.5623 682.235,112.562 767,225.5C 842.749,340.165 857.082,462.165 810,591.5C 764.696,701.804 685.862,776.97 573.5,817C 454.48,853.9 342.147,839.567 236.5,774C 142.449,711.159 85.616,623.659 66,511.5C 49.6962,403.054 73.6962,304.72 138,216.5C 210.872,122.3 307.039,70.3002 426.5,60.5 Z"/></g>
<g><path style="opacity:1" fill="#fdfdfd" d="M 475.5,351.5 C 473.863,359.944 473.197,368.611 473.5,377.5C 491.833,377.5 510.167,377.5 528.5,377.5C 528.5,397.833 528.5,418.167 528.5,438.5C 510.49,438.423 492.49,438.757 474.5,439.5C 474.5,510.167 474.5,580.833 474.5,651.5C 446.167,651.5 417.833,651.5 389.5,651.5C 389.5,580.833 389.5,510.167 389.5,439.5C 377.5,439.5 365.5,439.5 353.5,439.5C 353.5,418.833 353.5,398.167 353.5,377.5C 365.5,377.5 377.5,377.5 389.5,377.5C 389.806,374.615 389.473,371.948 388.5,369.5C 387.413,342.667 393.58,317.667 407,294.5C 424.583,267.45 449.417,251.616 481.5,247C 502.424,245.389 523.09,246.889 543.5,251.5C 543.833,254.167 544.167,256.833 544.5,259.5C 543.56,278.84 542.56,298.174 541.5,317.5C 526.497,313.915 511.497,313.749 496.5,317C 483.498,324.837 476.498,336.337 475.5,351.5 Z"/></g>
<g><path style="opacity:1" fill="#83c8e3" d="M 475.5,351.5 C 475.5,359.833 475.5,368.167 475.5,376.5C 493.5,376.5 511.5,376.5 529.5,376.5C 530.278,397.824 530.611,419.157 530.5,440.5C 512.167,440.5 493.833,440.5 475.5,440.5C 475.5,511.167 475.5,581.833 475.5,652.5C 446.5,652.5 417.5,652.5 388.5,652.5C 388.5,581.833 388.5,511.167 388.5,440.5C 376.5,440.5 364.5,440.5 352.5,440.5C 352.5,419.167 352.5,397.833 352.5,376.5C 364.5,376.5 376.5,376.5 388.5,376.5C 388.5,374.167 388.5,371.833 388.5,369.5C 389.473,371.948 389.806,374.615 389.5,377.5C 377.5,377.5 365.5,377.5 353.5,377.5C 353.5,398.167 353.5,418.833 353.5,439.5C 365.5,439.5 377.5,439.5 389.5,439.5C 389.5,510.167 389.5,580.833 389.5,651.5C 417.833,651.5 446.167,651.5 474.5,651.5C 474.5,580.833 474.5,510.167 474.5,439.5C 492.49,438.757 510.49,438.423 528.5,438.5C 528.5,418.167 528.5,397.833 528.5,377.5C 510.167,377.5 491.833,377.5 473.5,377.5C 473.197,368.611 473.863,359.944 475.5,351.5 Z"/></g>
</svg>
