<?xml version="1.0" encoding="UTF-8"?>
<!DOCTYPE svg PUBLIC "-//W3C//DTD SVG 1.1//EN" "http://www.w3.org/Graphics/SVG/1.1/DTD/svg11.dtd">
<svg xmlns="http://www.w3.org/2000/svg" version="1.1" width="920px" height="828px" style="shape-rendering:geometricPrecision; text-rendering:geometricPrecision; image-rendering:optimizeQuality; fill-rule:evenodd; clip-rule:evenodd" xmlns:xlink="http://www.w3.org/1999/xlink">
<g><path style="opacity:1" fill="#e61f27" d="M 430.5,-0.5 C 448.167,-0.5 465.833,-0.5 483.5,-0.5C 560.97,4.60021 631.637,29.1002 695.5,73C 706.579,80.7419 717.079,89.2419 727,98.5C 726.874,101.098 725.874,103.431 724,105.5C 691.29,139.375 658.79,173.375 626.5,207.5C 552.981,150.831 471.314,134.997 381.5,160C 321.216,178.043 273.716,213.21 239,265.5C 222.586,289.335 210.752,315.335 203.5,343.5C 160.761,318.625 118.761,292.458 77.5,265C 75.9751,263.991 74.3084,263.491 72.5,263.5C 75.1285,256.593 78.1285,249.927 81.5,243.5C 82.3764,243.631 83.0431,243.298 83.5,242.5C 105.299,194.366 135.299,152.2 173.5,116C 172.906,115.536 172.239,115.369 171.5,115.5C 230.744,58.5377 301.077,22.0377 382.5,6C 398.566,3.20376 414.566,1.0371 430.5,-0.5 Z"/></g>
<g><path style="opacity:0.408" fill="#e50e15" d="M 171.5,115.5 C 172.239,115.369 172.906,115.536 173.5,116C 135.299,152.2 105.299,194.366 83.5,242.5C 83.0431,243.298 82.3764,243.631 81.5,243.5C 102.611,194.622 132.611,151.955 171.5,115.5 Z"/></g>
<g><path style="opacity:0.991" fill="#fdf000" d="M 72.5,263.5 C 74.3084,263.491 75.9751,263.991 77.5,265C 118.761,292.458 160.761,318.625 203.5,343.5C 182.802,429.009 198.468,507.009 250.5,577.5C 250.489,579.017 249.823,580.184 248.5,581C 209.982,610.03 171.649,639.197 133.5,668.5C 54.0093,564.924 27.8427,448.924 55,320.5C 59.7359,301.128 65.5693,282.128 72.5,263.5 Z"/></g>
<g><path style="opacity:0.998" fill="#008ed7" d="M 759.5,697.5 C 756.777,696.648 754.11,695.481 751.5,694C 712.669,669.083 673.669,644.417 634.5,620C 632.365,619.124 631.031,617.624 630.5,615.5C 661.384,588.437 685.218,556.103 702,518.5C 706.937,507.523 710.77,496.189 713.5,484.5C 634.163,484.58 554.83,484.08 475.5,483C 475,482.5 474.5,482 474,481.5C 473.333,436.167 473.333,390.833 474,345.5C 474.75,344.874 475.584,344.374 476.5,344C 606.914,343.004 737.247,343.337 867.5,345C 885.453,467.365 856.62,577.198 781,674.5C 773.967,682.364 766.8,690.031 759.5,697.5 Z"/></g>
<g><path style="opacity:1" fill="#00994a" d="M 250.5,577.5 C 326.638,664.723 421.304,694.557 534.5,667C 569.903,655.804 601.903,638.638 630.5,615.5C 631.031,617.624 632.365,619.124 634.5,620C 673.669,644.417 712.669,669.083 751.5,694C 754.11,695.481 756.777,696.648 759.5,697.5C 707.906,751.824 645.906,789.657 573.5,811C 457.316,841.723 347.316,827.056 243.5,767C 201.07,740.744 164.403,707.91 133.5,668.5C 171.649,639.197 209.982,610.03 248.5,581C 249.823,580.184 250.489,579.017 250.5,577.5 Z"/></g>
</svg>
