<svg xmlns="http://www.w3.org/2000/svg" viewBox="0 0 405.333 405.333"><path d="M202.668 0C90.738 0 0 90.738 0 202.668s90.738 202.664 202.668 202.664 202.664-90.734 202.664-202.664C405.332 90.738 314.598 0 202.668 0zm84.266 179.094-74.668 85.332a12.723 12.723 0 0 1-9.598 4.375 12.731 12.731 0 0 1-9.602-4.375l-74.668-85.332c-4.652-5.301-4.128-13.375 1.176-18.028 5.301-4.652 13.371-4.128 18.028 1.172l65.066 74.348 65.066-74.348c4.653-5.3 12.723-5.824 18.028-1.172 5.3 4.653 5.824 12.727 1.172 18.028zm0 0" style="fill:#4d1389"/></svg>