<svg xmlns="http://www.w3.org/2000/svg" xml:space="preserve" style="enable-background:new 0 0 330 330" viewBox="0 0 330 330"><path d="M165 0C120.926 0 79.492 17.163 48.328 48.327c-64.334 64.333-64.334 169.011-.002 233.345C79.49 312.837 120.926 330 165 330c44.072 0 85.508-17.163 116.672-48.328 64.334-64.334 64.334-169.012 0-233.345C250.508 17.163 209.072 0 165 0zm74.246 239.245a14.956 14.956 0 0 1-10.607 4.394 14.948 14.948 0 0 1-10.605-4.394L165 186.213l-53.033 53.033a14.956 14.956 0 0 1-10.607 4.394 14.948 14.948 0 0 1-10.605-4.394c-5.859-5.857-5.859-15.355 0-21.213L143.787 165l-53.033-53.033c-5.859-5.857-5.859-15.355 0-21.213 5.857-5.857 15.355-5.857 21.213 0L165 143.787l53.031-53.033c5.857-5.857 15.355-5.857 21.213 0 5.859 5.857 5.859 15.355 0 21.213L186.213 165l53.033 53.032c5.858 5.858 5.858 15.356 0 21.213z" style="fill:#4d1389"/></svg>