<svg xmlns="http://www.w3.org/2000/svg" viewBox="0 0 1000 665.5"><path fill="#0e090b" d="M637.9 300.6c5.5 7.8 10.8 15.4 16.3 23.2 1.5-1.2 2.4-2.8 3.3-4.2 4.4-6.6 8.7-13.2 13-19.8.5-.8 1.1-1.6 1.7-2.4 1.5-1.8 3.6-2 5.7-1.7 5.8.7 11.5 1.3 17.3 2 9.8 1.2 19.5 2.3 29.3 3.5 4.6.6 9.3 1.3 13.9 2 .9.1 1.9.4 2.8.8 2.9 1.1 3.8 3.3 2.7 6.2-.4 1-1 2-1.6 3-10.1 15.3-19.5 31.2-30.9 45.6-5.7 7.3-6.6 8-15.9 9.6-5.2.9-10.5 1.5-15.8 2.2-.6.1-1.2.2-1.8.4 2.5 9.8 20 27.3 29.8 29.5.2-1.7.4-3.4.6-5.2.2-1.6.4-3.2.8-4.8.9-4.1 1.8-8.2 2.6-12.3.5-2.7 2.1-4.7 4.4-6.1 4.1-2.5 8.2-5.1 12.4-7.4 4.2-2.4 8.5-4.6 12.8-6.8.9-.4 1.7-.9 2.6-1.2 1.8-.6 3.6.1 4.4 1.9.6 1.3 1 2.7 1.2 4.2 1.3 8.9 2.4 17.9 3.7 26.8.3 2.3-.4 4.1-1.8 5.8-2.2 2.8-4.5 5.5-6.7 8.2-1.4 1.7-2.8 3.4-4.1 5.1.9 1.4 2.2 1.2 3.2 1.3 8 .4 16 1 24 .3.1-1.7-1-2.6-1.5-3.7-1.9-3.9-3.9-7.8-5.8-11.7-1.3-2.7-1.1-5.3.4-7.8 1.6-2.6 3.1-5.3 4.8-7.8 2.5-3.8 5.1-7.4 7.7-11.1.7-1 1.6-2.1 2.6-2.9 1.4-1.2 3.5-1.1 4.8.2.8.8 1.4 1.8 2 2.7 3.8 6.7 7.9 13.3 12.6 19.5 2 2.6 2.4 5.1 1.3 8.1s-2.1 6.1-3.1 9.2c-.2.7-.2 1.5-.4 2.5 4.1.3 7.8-.7 11.8-1.3-.3-.9-.5-1.6-.7-2.4-.9-2.3-1.7-4.5-2.7-6.7-.7-1.6-.6-3.1.2-4.7 2.8-5.4 5.7-10.9 8.5-16.3.3-.6.7-1.1 1.2-1.5 1.9-2.1 4.3-2.1 6.3 0 .4.5.9 1 1.2 1.5 2.3 3.9 4.6 7.7 6.9 11.6 1.9 3.3 2.2 6.7.7 10.2-.8 1.9-1.4 3.9-2.2 6.2.3.5.6 1.1 1 1.8.6.9.4 1.9 0 2.8-.3.6-.7 1.1-1.1 1.6-5.9 6.8-11.8 13.7-18.9 19.3-17.5 13.9-35.7 26.5-55.9 36.1-21.4 10.1-43.5 18.7-66.3 25.3-11 3.2-22.3 5.4-33.7 6.1-7.6.4-15.2.1-22.7.2h-9.2c-.6.9-1.1 1.7-1.6 2.5-1.8 2.6-3.5 5.4-5.6 7.9-5.6 6.9-10.9 14-15.8 21.3-4.3 6.4-8.7 12.8-13 19.2-1.4 2-2.9 3.9-4.4 5.7-1.4 1.7-3.2 2.9-5.3 3.2-2.8.5-5.8 1-8.6.8-11-.7-21.7-3.1-31.9-7.1-.7-.3-1.5-.6-2.2-.9-3.8-1.6-7.3-3.5-9.4-6.9h-5c-10.7.1-20.2-3.8-28.9-9.6-3.5-2.3-4-4.4-2.4-8.3 1.8-4.5 3.9-8.8 5.9-13.2.5-1 .9-2 1.4-3.2-1.2-1-2.6-.6-3.7-.6-8.1 0-16.1-.9-24-2.6-8.1-1.7-15.7-4.6-23.1-9-.6.9-1.2 1.8-1.7 2.7-6.7 11.4-13.4 22.7-20.2 34.1-1 1.7-2.2 3.2-3.3 4.8-3.6 5-8.4 7.9-14.5 8.5-7.9.7-15.8.7-23.5-1.7-5.3-1.6-10.1-4.1-14.3-7.8-2.8-2.5-5.2-5.3-6-9.1-.3-1.5-1.2-2.2-2.3-2.9-1-.6-2-1-3-1.6-5.6-3.2-11-6.8-15.7-11.3-1.6-1.5-3.2-3.2-4.4-5.1-1.9-2.8-1.7-5.4.4-8 1-1.2 2.2-2.4 3.4-3.4 4.1-3.2 8.1-6.4 12.4-9.3 8.4-5.8 15.9-12.7 23.3-19.6.2-.2.3-.5.5-.9-.1-1-.9-1.1-1.7-1.3-5.2-1.5-10.6-1.3-15.9-.7-12.1 1.4-23.8 4.4-35 9-9.9 4-19.6 8.3-29.3 12.5-9.9 4.3-20.1 7.8-30.8 9.7-10.3 1.8-20.6 1.9-30.6-1.5-3.2-1.1-6.3-2.5-9.2-4.2-3-1.7-5.5-4-6.6-6.7-4.9-2.6-9.5-4.7-13.6-7.4-11.7-7.7-17-19-17.3-32.8-.1-6.6 2.3-12.3 6.9-17 1.6-1.6 3.2-3.2 4.9-4.7 3.7-3.2 6.8-6.9 9.4-11 2.2-3.6 4.4-7.1 6.5-10.8 8.4-14.6 19.5-26.8 32.8-37 11.7-9 24.7-15 39.5-16.9.3 0 .6-.3.9-.4.6-.9-.1-1.5-.6-2.1-2.3-3.3-4.7-6.6-7.1-9.8-2-2.7-2-5.3-.4-8.1.7-1.3 1.4-2.5 2.2-3.7 3.4-5.1 6.8-10.2 10.3-15.2.5-.8 1.1-1.6 1.7-2.4 3.3-4.2 5.7-4.4 9.5-.4 5 5.2 9.8 10.7 14.8 16 3.7 3.9 4.1 8.2 2 12.9-1.5 3.2-2.9 6.5-4.3 9.7-.6 1.3-1 2.6-1.6 4.4 2.5.3 4.7.7 6.9.9 6.3.7 12.5 1.4 18.8 1.3 7.5-.2 14.7-1.9 21.4-5.2.8-.4 1.6-1 2.4-1.6-5.6-3.3-11-6.5-16.3-9.6-1-.6-1.9-1.2-2.9-1.8-2.6-1.5-3.8-3.9-3.9-6.8-.1-1.4 0-2.9.1-4.3.9-11.4 1.7-22.8 2.7-34.2.1-1.8.5-3.5 1-5.2.8-2.7 2.2-3.7 5-3.7 1.1 0 2.3.1 3.4.3 8.1 1.5 16.1 3 24.2 4.7 2.7.5 5.3 1.4 7.9 2.2 2.9.9 5 2.8 6.2 5.7 1 2.5 2 5.1 2.9 7.7 1.5 4 2.9 8.1 4.3 12 .4.1.6.2.7.2s.3-.1.4-.2c6.2-6.1 12.4-12.2 18.8-18.5-.8-.5-1.5-.9-2.3-1.4-6.6-4-13.2-8-19.8-12.1-2.7-1.7-5.3-3.6-8.1-5.3-2.3-1.4-3.4-3.4-3-6.1.7-4.3 1.5-8.6 2.2-12.8 2.5-14.1 5-28.2 7.6-42.3 1.1-6.3 2.4-12.7 3.6-19 .3-1.6.8-3.1 1.6-4.5 1.3-2.5 3.7-3.6 6.5-2.9 2 .5 4 1.3 5.9 2.1 10.4 4.5 20.3 9.9 29.5 16.4 7 4.9 13.6 10.3 20.4 15.5 1.3 1 2.4 2.1 3.6 3.2 2.3 2.2 3.5 5 3.5 8.2v27.5c1.1-.2 2-.3 2.8-.6 7.5-3 15.1-5.5 23.3-7.2-.5-1-.7-1.9-1.2-2.6l-11.1-14.7c-2-2.7-4-5.5-6.1-8.2-2.2-2.9-2.4-5.9-.9-9.1.8-1.6 1.5-3.2 2.3-4.8 2.2-4.1 4.4-8.2 6.8-12.2 11.3-19 22.8-37.8 35.2-56.1 1.1-1.6 2.2-3.2 3.4-4.7.8-1 1.6-2 2.6-2.9 3.5-3.1 6.6-2.9 9.5.8.6.7 1.2 1.6 1.7 2.4 10.9 17.9 22 35.6 32.7 53.7 5.7 9.6 10.6 19.5 15.9 29.3.5 1 .9 2.1 1.4 3.1 1.3 3 1.1 6-.4 8.8-1.1 2.1-2.5 4.1-3.8 6.2-2.3 3.5-4.6 7-6.8 10.6-.8 1.2-1.3 2.5-2 3.8 7.6 2.8 14.9 5.5 22.5 8.4.2-.5.7-1.2.8-1.9 2.7-10.9 6.2-21.7 9.9-32.3.3-.8.6-1.5.8-2.3.9-3.4 3.2-5.5 6.4-6.6 2.4-.9 4.9-1.6 7.4-2.4 16-4.9 32.2-9.2 48.6-12.8 3.3-.7 6.6-1.3 10-1.8.9-.2 1.9-.3 2.9-.2 2.6.2 4.2 1.7 4.3 4.3.1 1.9 0 3.9-.4 5.8-2.1 12.7-4.2 25.4-6.4 38.1-1.6 9-3.4 18-6.3 26.8-1 2.9-2.3 5.7-3.3 8.6-.7 2.1-2.1 3.6-4 4.6-3.3 1.8-6.5 3.5-9.8 5.2-3.7 1.9-7.5 3.8-11.2 5.7-1.4.3-2.4.8-3.3 1.4z"/><path fill="#985ba5" d="M599.6 457c-3-4.4-5.9-8.8-8.8-13.2-.6-.9-1.1-2-1.8-2.9-1.4-1.9-2.7-2.6-3.9-1.9-1.6.8-1.9 2.4-.7 4.6.3.6.6 1.1 1 1.7 3.6 5.4 7.2 10.7 10.7 16.1 4 5.9 8 11.7 11.8 17.7 1.6 2.6 2.8 5.4 3.9 8.3 1.5 3.8 1.1 7.6-1.3 11.1-1.4 2-2.7 4-4.2 5.9-5.9 7.1-11.3 14.5-16.4 22.1-4.4 6.6-8.8 13.1-13.3 19.6-1.2 1.7-2.5 3.3-3.9 4.9-.5.5-1.3.7-2.2 1.3-.2-1-.4-1.5-.5-2.1-.4-1.6-.6-3.2-1.2-4.7-2.7-6.6-8.8-9-15.5-6.2-1.3.6-2.6 1.3-3.9 1.9-3.1-9.1-6.3-12.8-18.8-9.9-.7-1.2.3-2.1.7-3 2.4-5.5 4.7-10.9 6-16.8 1.4-6.2-.3-11.2-5.3-14.9-3.1-2.3-6.4-4.4-9.6-6.5-6.8-4.4-13.2-9.3-18.3-15.6-6.4-8-10-17.2-10.8-27.4-1.5-18.8 4.3-35.2 16.4-49.5 10.2-12 22.7-20.9 37.1-27.2 2.7-1.2 5.4-2.2 8.3-2.4.3 0 .6 0 1-.1 1.9-.4 3-1.5 2.8-2.7-.2-1.3-1.6-2.4-3.3-2.3-1.9.1-3.9.4-5.7 1-2.9.9-5.8 1.9-8.6 3.2-16.5 7.7-30.4 18.8-40.9 33.8-9.8 14-13.9 29.6-12.7 46.6.3 4.7 1.6 9.2 2.7 13.7-3.5 2.9-7.9 2.2-12 2.9-8.3 1.2-16.7.3-25.1 1.1-2.7.3-5.8-.1-8.3-1.9-1.5-3.5-3-7.1-4.5-10.6-.5-1.2-1.1-2.3-1.8-3.4s-2-1.4-3-.9c-1.1.5-1.7 1.5-1.5 2.8.2 1.1.6 2.2 1 3.2 1.4 3.6 2.8 7.2 4.1 10.8 2.6 6.8 2.1 13.6-.7 20.2-3.2 7.6-7.1 14.8-11.3 21.9-4 6.6-7.9 13.3-11.9 19.9-1.7 2.9-3.6 5.7-5.6 8.5-1.2 1.7-2.5 3.3-4.9 4.2-.5-1.2-1-2.4-1.4-3.5-3.9-9.1-12.1-12-21-7.5-.7.4-1.4.7-2.2 1.1-1-2.2-1.7-4.4-2.7-6.3s-2.7-3.3-4.8-3.9-4.4-.7-6.9-1.1c1-1.4 1.9-2.8 2.9-4.1 5.9-7.7 9.7-16.3 11.7-25.8 2.5-12 2.3-24-.7-35.9-.1-.5-.3-.9-.4-1.4-.5-2.1-1.9-2.8-3.9-2.8-1.3.8-2.7.7-4.2.5-21.4-2.2-41 3.2-59.6 13.8-11.8 6.7-22.7 14.6-34.5 21.2-.8.5-1.9.5-2.6 1.2-.6 1.3-2 .9-3 1.2-5.8 1.9-11.8 3.4-17.9 4.1-10.2 1.3-20.3.6-29.9-3.6-1.2-.5-2.9-.7-3.3-2.4.3-.2.6-.4.9-.5 15.1-1.5 28.1-8.1 40.1-16.8 4.7-3.4 9-7.3 13.5-11 3.3-2.8 6.6-5.7 9.8-8.6.5-.4 1-.9 1.2-1.4.5-.9.4-2-.5-2.6-.6-.4-1.7-.8-2.1-.6-1.7.9-3.3 2-4.8 3.2-4.5 3.7-8.9 7.5-13.3 11.2-6.9 5.9-14.4 10.9-22.6 14.9-5.1 2.4-10.4 4.3-16 5.5-5.9 1.3-11.6.7-17-1.7-3.1-1.4-6.1-3-8.9-4.8-10.6-7.3-15.2-17.6-14.6-30.3.2-4 1.7-7.5 4.5-10.4 1.5-1.6 3.1-3.3 4.8-4.7 5-4.2 8.9-9.3 12.2-14.9 2-3.3 4-6.6 5.9-10 8.2-13.9 19.1-25.5 32-35.2 8.6-6.5 18.1-11.1 28.6-13.5 8.4-2 16.9-1.9 25.5-1.2 9.6.9 19.2 2.5 28.9 2.8 7.8.3 15.4-.6 22.9-3 5-1.6 9.4-4.1 13.5-7.3 3-2.4 6.2-4.7 9.2-7 5.4-4.1 10.4-8.8 14.5-14.1 9.9-12.7 21.6-23.5 33.7-33.9 6.5-5.6 13.1-11 20.6-15.3 14.3-8.2 29.2-15.1 45.4-18.7 6.3-1.4 12.7-2.3 19.1-2.5 19.9-.7 39.6.9 59 5.8 15.3 3.8 28.9 10.9 41 20.9 20 16.6 35.9 36.6 47.8 59.6 3 5.8 5.4 12 8 18.1 4.3 10.1 9.7 19.6 16.2 28.5 9.1 12.5 21 20.8 35.6 25.4 8.9 2.9 18.1 4.6 27.5 5.4 7.2.6 14.5.9 21.7.8 9.2-.1 18.3-1.3 27.4-2.4 7.4-.9 14.7-2.2 22-3.2.8-.1 1.6 0 2.8 0-.7 1.1-1 2-1.7 2.6-4.8 4.6-9.3 9.4-14.5 13.5-15.6 12.3-31.8 23.7-49.7 32.5-.4.2-.9.3-1.3.4-12.9 4.1-26 5.8-39.5 5.6-11.4-.2-22.9.1-34.3-.1-23.4-.4-46.6-3-69.7-6.3-2-.9-4-1.9-6.2-2.4z"/><path fill="#eb7bb3" d="M495.6 247.5c-6.5-8.8-12.6-17-18.8-25.3-.4-.5-.7-1.1-1.1-1.6-1.3-1.6-1.3-3.2-.4-5 .8-1.6 1.5-3.2 2.4-4.7 6.3-10.7 12.4-21.5 18.9-32 7.5-12.1 15.2-23.9 22.9-35.8 1.4-2.1 2.7-4.4 5.2-6.1.6.6 1.4 1.1 1.9 1.9 1.6 2.4 3 5 4.5 7.4 4.8 7.8 9.4 15.8 14.4 23.5 10.9 16.6 20.4 33.9 29.5 51.6.4.9.9 1.7 1.3 2.6.8 2.1.8 4.1-.4 6-.6 1-1.2 1.9-1.8 2.9-3 4.6-5.9 9.2-8.9 13.8-1 1.5-2.1 2.8-3.2 4.3-22.1-4.5-44.2-6.3-66.4-3.5zM457.9 258.9c-7.6 4.3-15 7.9-21.8 12.4s-13.1 9.8-19.9 15c-11.1-5.6-21.2-13-31.9-20 1.1-8.7 3.2-17.2 4.7-25.7 1.5-8.7 3-17.5 4.6-26.2 1.5-8.5 2.6-17.1 5-25.2 2.5-.3 4 .7 5.6 1.4 10.7 4.5 20.8 10.3 30.3 17 6.2 4.4 12 9.2 18 13.8 1.1.9 2.2 1.9 3.3 2.9 1.4 1.2 2.1 2.8 2.2 4.7 0 .3.1.6.1 1-.2 9.5-.2 19.2-.2 28.9zM677 205.6c-.7 3.8-1.2 6.7-1.7 9.8-2 11.7-3.8 23.5-5.8 35.2-1.4 7.9-3.2 15.8-5.7 23.4-2.9 8.8-2.8 8.8-10.9 12.9-6.2 3.1-12.4 6.2-18.8 9.5-1-1-2-1.9-3-3-6.5-7.1-13.5-13.9-21.1-19.9-3.7-2.9-7.6-5.5-11.3-8.2-.9-.6-1.8-1.3-2.9-2 .3-1.2.6-2.2.9-3.3 3.5-10.9 7-21.7 10.3-32.7 1-3.1 2.7-4.8 5.8-5.7 9.1-2.6 18.2-5.4 27.4-7.9 11-3 22.1-5.9 33.4-7.9.8-.1 1.8-.1 3.4-.2zM674.2 366.1c-1.6-3.4-3.2-6.4-4.6-9.5-4-9.3-7.4-18.9-12.8-27.3 6.5-9.4 12.8-18.5 19.3-28 1 0 2.3-.1 3.5 0 11.8 1.4 23.7 2.8 35.5 4.3 6.1.7 12.1 1.5 18.2 2.3 1.6.2 3.2.2 4.7 1.4-.2.5-.4 1.2-.7 1.7-9.9 14.9-18.9 30.4-30.1 44.4-4.4 5.6-4.3 6.6-13 7.8-6.4 1-12.9 1.9-20 2.9z"/><path fill="#f5d3fb" d="M599.6 457c.6-.2 1.2-.6 1.7-.5 9.7 1.4 19.4 3 29.1 4.1 9.3 1 18.6 1.5 27.9 2.3 20.4 1.8 40.9.9 61.4.7 7.4-.1 14.7-1.4 21.9-3 2.6-.6 5.4-.6 8-.9-.8.5-1.6 1-2.5 1.5-21.2 10.1-43.1 18.6-65.7 25.1-17.5 5-35.3 7.1-53.5 5.9-1.6-.1-3.2-.1-4.8-.1h-4.5c-.3-1.2-.6-2.2-.8-3.3-.9-4.1-2.6-8-4.8-11.5-3.3-5.3-6.8-10.5-10.3-15.8-1-1.6-2.1-3-3.1-4.5zM444.9 462.8c2.2.2 4.5.4 6.7.5 1.3.1 2.6.2 3.8.2 4.3-.2 8.6-.6 12.9-.6 6.3-.1 12.4-.6 18.6-1.8 1.1-.2 2.2-.2 3.3-.2.2.4.5.8.7 1.3 4 11.3 11.4 20 20.9 27.1 3 2.2 6.1 4.2 9.2 6.3 1.3.9 2.6 1.8 4.4 2.9-1.1.5-1.8.9-2.5 1-9.7 1.7-19.4 3.1-29.2 3.4-12.9.5-25.7-.6-38.2-4.4-4.8-1.5-9.4-3.3-13.8-6.2.3-.9.5-1.8.8-2.7 1-2.7 2.1-5.4 2.9-8.2 1.5-4.9 1.4-9.8.1-14.8-.2-1.3-.4-2.5-.6-3.8z"/><path fill="#eb7bb3" d="M388.1 314.4c-6.8 9.9-15.6 17.1-25.2 23.8-8.1-3.4-14.9-8.7-22.6-13.1 0-1.9-.2-3.8-.1-5.7.4-6.4 1-12.8 1.4-19.2.3-3.5.5-7.1.7-10.6.2-2.6.2-5.1 1.2-7.8.8 0 1.6-.1 2.3 0 8.4 1.6 16.8 3 25.1 4.8 9.5 2.1 8.3 1.9 11.2 9.9 1.8 4.8 3.4 9.7 5.1 14.5.4 1 .6 2.1.9 3.4zM733.1 408.9c-7-1-14-2.7-20.7-5.7 1.3-7.7 2.3-15.1 4.4-22.4.5-1.6 1-3 2.5-4 7.8-5.1 16-9.5 24.6-13.8.4 1.4.8 2.4.9 3.5 1 7.3 2 14.7 3 22 .2 1.6.3 3.1-.9 4.5-4.2 4.9-8.3 9.9-12.4 14.8-.4.4-.8.6-1.4 1.1z"/><path fill="#f5d3fb" d="M274.5 485c14.9-10.8 30.3-20.7 46.9-28.6 4.3-2.1 8.9-3.8 13.4-5.4 6.4-2.3 13.1-3 19.9-3.6.5 0 1 0 1.4-.1 6.4-.1 12.9-.4 19.2 1-.7 1.5-1.1 2.9-.7 4.6.7 2.6 1 5.3 1.5 8.5-1.4-.4-2.2-.5-3-.8-5.7-2.2-11.6-2.5-17.6-2-12.8 1-25.1 4-36.9 8.6-10 3.9-19.8 8.3-29.8 12.5-3.8 1.6-7.7 3.2-11.6 4.7-.8.3-1.7.4-2.7.6z"/><path fill="#eb7bb3" d="M292.9 306.8c.9.9 1.9 1.7 2.7 2.6 3.7 4 7.4 8 11.1 12.1.5.6 1 1.2 1.6 1.8 1.8 1.8 2.1 3.8 1.1 6.2-2.3 5.3-4.6 10.6-7 16.2-4.6-.3-9.2-.6-14.1-.9-3.5-5.1-7-10.2-10.4-15.2 1.5-4.6 11.4-19.4 15-22.8z"/><path fill="#985ba5" d="M376.5 468.1c.9 4.9 0 8.7-.4 12.5-1 9-3.4 17.6-8.3 25.4-.9 1.3-1.5 2.8-2.9 3.6-3.6-1.2-7.1-2.4-10.9-3.7-1.3-1.6-2.6-3.9-4.5-5.5s-4.3-2.6-6.8-4.1c1.6-1.8 3.7-2.8 5.6-4.2 1.9-1.5 4-2.7 5.9-4.2 2.1-1.5 4.1-3.2 6-4.8 1.9-1.5 3.7-3.1 5.5-4.7s3.5-3.4 5.2-5c1.6-1.7 3.2-3.5 5.6-5.3z"/><path fill="#eb7bb3" d="M778.3 371.7c.5.7.9 1.2 1.2 1.7 3.6 5.5 7.1 11.2 10.8 16.6 1.3 1.9 1.7 3.7.9 5.8-1.5 4.3-2.8 8.5-4.3 13.1-4 1.1-8.2.7-12.4 1.7-.8-1.1-1.5-2-2-2.9-2.2-4.5-4.3-9-6.6-13.4-1-2-.8-3.7.4-5.4 3.5-5.2 6.9-10.5 10.4-15.7.4-.7 1-1 1.6-1.5z"/><path fill="#985ba5" d="M531.1 503.5c1.3 2.6 1 4.7.7 6.7-.7 4.6-4.2 13.1-6.8 16.5-5.6-4.6-11.5-3.9-17.4-.7-4.7-6-4.9-8.2-16.2-7.1 1.6-3.6 3.2-7.1 4.7-10.6 6.1-.7 11.8-1.3 17.6-2.1 5.8-.7 11.5-1.8 17.4-2.7z"/><path fill="#eb7bb3" d="M818.6 404.7c-2 .3-3.5.7-5.1.9-.9.1-1.9 0-3 0-1.6-2.8-2.6-5.8-3.5-8.9-.3-.8-.2-2 .2-2.8 2.3-4.5 4.5-9.2 7.1-13.3 1.3-.1 1.6.7 2 1.4 1.6 2.7 3.2 5.5 4.8 8.3 1.2 2.1 1.4 4.1.5 6.4-1.1 2.5-2 5.1-3 8z"/><path fill="#f1f3f3" d="M542.1 549c-5.8-1.5-11-3.4-16.1-6.3 2.2-4.5 5.6-6.8 10.2-7.3 3.8-.5 6.1 1.4 6.8 5.2.6 2.3.4 3.6-.9 8.4zM399.2 541c-6.8 1.7-13.4.6-20.3-.8.9-2.7 2.7-4.2 4.5-5.8 1.6-1.5 3.4-2.5 5.6-2.7 3.2-.4 6.1.6 8.1 3.3 1.1 1.7 1.9 3.6 2.1 6zM373.9 538.2c-5.3-2-9-4.9-11.8-8.9-.8-1.2-.7-2.5.5-3.4 1.1-.8 2.4-1.7 3.7-2 4-1 7 1 7.7 5 .2 1.1.3 2.2.2 3.3.1 1.8-.1 3.5-.3 6zM548.3 550.2c2.1-3.5 5-5.7 8.8-6.8 2.2-.7 4.1.4 5.4 2.2 1.2 1.6 1.5 2.8 1.8 6.8-4.2.6-10.2-.1-16-2.2zM346.8 514.8c-4.1-2.7-7.7-5.5-10.8-9-1.1-1.2-.5-2.8 1-3.4 4.3-1.6 9.3.6 11.1 4.9.5 1.2.7 2.4.2 3.7-.3 1.2-.8 2.3-1.5 3.8zM507.8 536.9c.2-2 1.3-3.6 2.4-5.1 1.7-2.2 4-3.2 6.7-3 2.6.2 4.5 1.6 5.3 4.6-.6 1.1-1.2 2.5-1.9 3.8-7.2 1-8 1-12.5-.3zM502 535.7c-4.5-1.3-8.1-3-11.5-5.1-1.2-.7-1.4-1.8-.5-2.9 1-1.2 2.2-2.4 3.5-3.2 3.8-2.2 8 0 8.6 4.4.1.8.1 1.6.1 2.4 0 1.3-.1 2.6-.2 4.4zM357.1 520.9c-1.9-1-3.6-1.9-5.4-2.8.2-2.5 1.7-4.2 2.2-6.3 3.1-.3 5.5.8 7.6 2.7-1.4 2-2.8 4-4.4 6.4z"/><path fill="#5e2f67" d="M589 285.6c7 .4 12.7 2.4 17.9 5.8 4.6 3.1 8.4 6.9 10.6 12.2 1.7 4.1.8 8.2-2.5 10.9-1.5 1.3-3.2 2-5.2 2.2-3.1.3-6.2-.2-9-1.2-7.8-2.9-14.6-7.5-19.1-14.7-1.6-2.5-2.5-5.1-2.3-8.2.2-3 1.7-4.8 4.3-5.8 1.8-.7 3.9-.9 5.3-1.2zM407.9 325.3c.3-1.4.4-2.9 1-4.2 1.4-3.1 2.8-6.2 4.5-9 4-6.5 9.9-10.4 17.1-12.4 6.4-1.7 12.7 2.7 13 9.3.1 2.1-.7 4.4-1.5 6.5-1.2 3-3 5.7-5.4 7.9-5.1 4.8-10.8 8.4-17.7 10.2-3.3.9-8.4-1-10.3-4.6-.5-1-.5-2.4-.7-3.7zM539.1 266.4c3.7 0 7.3-.2 11 .8 3.5 1 6.6 2.6 9.6 4.4 3.9 2.4 5 6.1 4.2 10.5-.2.9-.7 1.8-1.3 2.5-2.4 3.1-5.8 4.6-9.6 4.9-7.7.6-15.4.2-22.7-2.9-3.7-1.6-7.2-3.6-8.9-7.6-1.5-3.4-1.1-6.1 1.5-8.8 2.5-2.6 5.7-3.5 9.1-3.8 2.3-.2 4.7 0 7.1 0zM488.7 285.8c3.7-.1 6.2.6 8.5 1.8 4.4 2.3 6.1 7.6 2.1 12.1-3.4 3.7-7.6 5.9-12.3 7.2-3.1.9-6.2 1.6-9.4 1.8-3.3.2-6.7-.6-9.6-2.5-2.8-1.8-3.7-6-2.1-9 .8-1.5 2-2.9 3.3-4 4.2-3.3 9.1-5.3 14.4-6.4 2.1-.6 4.1-.8 5.1-1zM311.9 363.1c4.3 0 8.7-.4 12.9 1.1 1.8.6 3.7 1.3 5.2 2.4 4.5 3.6 4.5 8 .7 11.5-3.1 2.9-7.1 4-11.1 4.2-7 .4-13.8-1-20-4.3-1-.5-1.9-1.2-2.8-1.9-2.8-2.6-2.9-6.6-.3-9.4 2.1-2.3 4.7-3.4 7.7-3.5 2.5-.2 5.1-.1 7.7-.1zM666.6 377.4c0 .8.1 1.6 0 2.4-.7 4.5-4.8 6.9-9.2 5.8-4-1-6.7-3.8-9.1-6.8-3.6-4.5-6.3-9.7-7.5-15.4-.9-4.6 1-8.5 5.1-10.3 1.3-.6 2.4-.6 3.7 0 4.2 1.8 7.8 4.5 10.6 8.1 2.3 2.9 4.1 6.2 5.3 9.7.7 2.1 1 4.3 1.5 6.5h-.4z"/><path fill="#0c0b07" d="M253.8 419.3c-8.2 0-14.8-6.5-15-14.6-.1-8 7-15.3 15.2-15.1 9.5.3 14.8 8.3 14.7 15-.1 8.1-6.7 14.6-14.9 14.7z"/><path fill="#5e2f67" d="M357.1 372.8c-.7 0-1.3 0-2-.1-5.6-1.4-8.4-6.3-4.6-11.3 4.4-5.6 9.8-10.1 17.2-11.5 4.2-.8 7.8.7 9.4 4 .7 1.4.8 2.7.5 4.2-.9 3.6-2.9 6.4-5.8 8.7-3.7 2.9-7.9 4.9-12.5 5.9-.6.1-1.4 0-2.2.1zM682.3 400.4c1.8.2 3.2.7 4.6 1.6 2 1.4 4.2 2.4 6.1 3.8 2.2 1.5 3.7 3.5 4.6 6 1.4 4.3-2 9-6.4 8.1-5.8-1.1-10.9-3.9-14.5-8.8-2.2-3-2.3-7.2 1.1-9.4 1.3-.7 3-.8 4.5-1.3zM404.3 361.1c-.6 0-1.3.1-1.9 0-2.6-.3-4.7-1.5-5.5-4s-1-5 .8-7.3c4.1-5.2 9.8-6.6 16-5.9 4 .4 6.1 4.7 4.6 8.4-.2.4-.4.9-.6 1.3-3.3 4.7-7.9 7-13.4 7.5zM348.7 379.7c2.8.4 5.2.6 7.5 1.2 1.3.4 2.6 1.3 3.6 2.3 2.2 2.4 2.3 4.7.2 7.3-.7.9-1.5 1.7-2.4 2.3-4.5 3.3-9.4 3.8-14.6 2-3.1-1.1-5.1-4.5-4.7-7.6.1-.6.3-1.3.6-1.8 2.6-3.6 6.1-5.2 9.8-5.7zM471.1 271.1c.5-2.2 1.3-4.9 3-7 1.8-2.5 4.9-3 7.7-3.5 1.2-.3 2.6-.1 3.8-.1 2.8.1 4.8 1.8 5.5 4.5.2.7 0 1.6-.2 2.3-.7 2.1-2.1 3.8-4 4.6-3.3 1.5-6.8 2.7-10.3 3.9-.8.3-1.9.1-2.8-.1-1.8-.4-2.8-2.2-2.7-4.6zM564.3 308.9c-5.1.3-8.3-1.4-10.2-5.3-1.6-3.2.3-7 3.8-7.2 4-.2 8 .4 11.2 3.4 1.6 1.5 2.2 3.3 1.5 5.2-.8 2-2.3 3.5-4.6 3.8-.9.2-1.7.1-1.7.1zM714.9 436.7c-4.5.2-7.2-2.3-9.2-5.5-1-1.6-1-3.8.4-5.4 1.5-1.8 3.4-2.8 5.9-2.2 2.1.5 3.9 1.6 5.5 2.9 2.2 1.8 2.8 4.2 2.3 6.9-.5 2.1-2.3 3.3-4.9 3.3zM628.4 353.5c-2 .2-3.9-.4-5-2.6-2.1-4.3.9-9.5 5.6-10.1 3.3-.4 7.1 2.7 7.4 6 .1.6-.1 1.3-.4 1.8-1.4 3.4-3.8 4.9-7.6 4.9z"/><path fill="#0e090b" d="M211.7 446.5c2.7.1 4.9 2.7 4.7 5.6-.2 2.5-2.3 4.5-4.7 4.6-2.6.1-5.1-2.6-5-5.4.2-2.7 2.5-4.9 5-4.8z"/><g fill="#5e2f67"><path d="M455.4 286.7c-3-.1-4.7-1.8-4.7-4.9 0-2.9 2.1-4.7 5.4-4.8 2.8 0 4.5 2 4.3 5.2-.1 2.9-1.9 4.5-5 4.5zM521.6 296.1c1.2.7 2.5 1.1 3.3 1.9 1.7 1.6 1.5 4.1-.5 5.3-1.3.8-2.9 1.3-4.4 1.5-1.5.3-3.3-1.2-3.9-2.9-.6-1.5-.1-3 1.6-4 1.1-.8 2.4-1.2 3.9-1.8zM571.6 272.9c0-2.7 1.7-4.1 4.4-3.6 2.3.5 4.5 3.2 4.4 5.6-.1 3-2.7 4.6-5.4 3.2-2.5-1.3-3.4-2.6-3.4-5.2zM507.9 260.4c1 .3 2.4.5 3.7 1.1 2.5 1.2 2.6 4.1.5 5.9-2.2 1.7-6.5 1.1-8.2-1.2-1.5-2.1-.7-4.6 1.7-5.4.6-.2 1.3-.2 2.3-.4zM745.9 425.7c.2-.4.5-1.4 1.1-2 1.4-1.2 3.1-1.7 4.9-1.5 1.6.2 3.1 1.4 3.4 3 .4 1.6-.1 3-1.4 3.8-1.7 1.2-3.6 2.1-5.8 1.1-1.7-.9-2.3-1.9-2.2-4.4zM733.1 418.9c-.3 1.7-.9 3-2 4-1.8 1.8-4.9 1.7-6.4-.3-1.2-1.5-1.3-3.4.1-4.8.7-.7 1.5-1.2 2.3-1.7 1.9-1 2.7-.9 4.3.6.7.7 1.2 1.6 1.7 2.2zM627.2 332.2c-2.1 0-3.3-1.3-3.2-3.6s1.2-3.9 3.3-4.8c1.6-.7 3.1-.3 4.3 1 1.1 1.2 1.2 2.2.4 3.9-.9 2-2.2 3.5-4.8 3.5zM289 359.9c-.1 2.2-2.4 4.2-5 4.1-2.1 0-3.9-2.1-3.7-4.2.2-2 2.8-4.4 4.5-4.3 2.6.2 4.3 2.1 4.2 4.4zM659.1 398.3c1.4-3.8 2.3-4.6 4.8-4.2 1.7.3 2.9 1.3 3.4 3 .5 1.5-.1 2.8-1.1 4-.9 1-3.1 1.1-4.4.3-.5-.3-1-.8-1.4-1.2-.5-.7-.9-1.4-1.3-1.9zM395.6 337.5c0 2.1-1.6 3.8-3.5 3.8s-3.5-1.7-3.5-3.8 1.6-3.8 3.5-3.8c1.9-.1 3.5 1.6 3.5 3.8zM608.7 328.3c1.8.1 2.9 1.6 2.8 3.8-.1 1.9-1.9 3.7-3.3 3.5-2.1-.3-3.7-2.1-3.5-3.9.2-2 2-3.5 4-3.4z"/></g><path fill="#f1f3f3" d="M260.8 401c.1 3.9-3.1 7.4-7.1 7.6-4.2.2-7.8-3.1-8-7.2-.2-3.9 3.1-7.4 7.1-7.6 4.3-.1 7.8 3 8 7.2z"/><path fill="#defdc8" d="M263.9 410.1c-.1 1-1.1 1.7-2.1 1.4-.9-.2-1.4-.8-1.4-1.7 0-1 1-1.8 1.9-1.8 1 .1 1.7 1.1 1.6 2.1z"/></svg>