<svg xmlns="http://www.w3.org/2000/svg" viewBox="-21 -21 682.667 682.667"><path d="M380.16 388.492c-11.418 11.7-21.367 24.297-53.172 5.645-30.824-18.078-82.629-66.59-90.25-106.668 0-20.34 17.188-26.852 22.567-35.16-3.02-6.743-12.684-24.38-30.813-58.746-5.594 5.406-21.781 21.945-37.836 38.019-5.273 5.012-2.73 20.023-1.168 27.152 16.028 73.094 99.89 156.536 164.457 183.329 12.418 5.156 46.282 16.5 54.68 7.667 19.715-19.582 31.922-31.18 38.469-38.027-26.254-15.527-57.02-33.71-57.02-33.71zm0 0" style="fill:#6e2db0"/><path d="M546.273 93.727C485.836 33.285 405.473 0 320 0S154.164 33.285 93.727 93.727C33.285 154.164 0 234.527 0 320s33.285 165.836 93.727 226.273C154.164 606.715 234.527 640 320 640s165.836-33.285 226.273-93.727C606.715 485.836 640 405.473 640 320s-33.285-165.836-93.727-226.273zM457.36 454.37c-25.8 25.254-31.738 35.95-60.117 35.95-128.14.011-300.414-222.997-232.82-285.54 28.742-28.773 38.058-38.847 44.906-44.406 15.477-12.559 36.93-9.492 48.969 9.438 1.8 3.113-1.66-3.094 19.16 36.05 20.137 37.864 32.621 51.778-1.48 82.778 10.671 25.078 51.89 64.922 75.125 75.933 8.875-9.074 28.511-36.199 61.054-17.105 58.567 34.36 70.86 37.84 74.739 57.226 3.027 18.371-4.286 24.97-29.536 49.676zm0 0" style="fill:#6e2db0"/></svg>