<svg xmlns="http://www.w3.org/2000/svg" viewBox="0 0 30 30"><path d="M25.32 12.53h-.16c-.69 0-1.29-.44-1.56-1.08v-.02c-.27-.64-.16-1.37.33-1.87l.13-.13c.65-.65.65-1.7 0-2.35l-1.14-1.14a1.66 1.66 0 0 0-2.35.01l-.13.13c-.47.47-1.19.62-1.81.35-.04-.02-.09-.03-.13-.05-.62-.25-1.03-.86-1.03-1.53v-.19c0-.92-.74-1.66-1.66-1.66H14.2c-.92 0-1.66.74-1.66 1.66v.19c0 .67-.41 1.28-1.03 1.53-.05.02-.09.03-.13.05-.62.27-1.34.12-1.81-.35l-.13-.13a1.66 1.66 0 0 0-2.35-.01L5.95 7.08c-.65.65-.65 1.71.01 2.37l.12.11c.49.5.6 1.23.33 1.87 0 .01 0 .02-.01.02-.26.64-.86 1.08-1.55 1.08h-.19c-.91 0-1.66.75-1.66 1.66v1.61c0 .92.75 1.66 1.69 1.66h.16c.69 0 1.29.44 1.55 1.08.01.01.01.02.01.03.27.64.16 1.37-.33 1.86l-.13.13c-.65.65-.65 1.7 0 2.35l1.14 1.14c.65.65 1.7.65 2.35 0l.13-.13a1.645 1.645 0 0 1 1.94-.3c.62.25 1.03.85 1.03 1.53v.19c0 .92.74 1.66 1.66 1.66h1.61c.92 0 1.66-.74 1.66-1.66v-.19c0-.68.41-1.28 1.03-1.53.04-.02.09-.04.13-.06.62-.26 1.34-.12 1.81.36l.13.13c.65.65 1.7.65 2.35 0l1.14-1.14c.65-.65.65-1.7-.02-2.36l-.11-.12c-.49-.49-.6-1.22-.33-1.86v-.03c.27-.64.87-1.08 1.59-1.08h.15c.92 0 1.66-.74 1.66-1.66v-1.61c0-.91-.74-1.66-1.68-1.66zm-6.68 3.51-4.2 2.85a1.26 1.26 0 0 1-1.97-1.04v-5.71a1.26 1.26 0 0 1 1.97-1.04l4.2 2.85c.74.5.74 1.59 0 2.09z" style="fill:#6e2db0"/></svg>