<svg xmlns="http://www.w3.org/2000/svg" viewBox="0 -8 490.651 490"><path fill="#6fe3ff" d="M484.648 255.105c0 14.79-11.988 26.782-26.777 26.782-14.793 0-26.781-11.992-26.781-26.782 0-14.789 11.988-26.78 26.781-26.78 14.79 0 26.777 11.991 26.777 26.78zm0 0" style="fill:#fff"/><path fill="#e48e66" d="M431.09 325.496c29.582 0 53.558 23.98 53.558 53.559 0 29.582-23.976 53.562-53.558 53.562zm0 0" style="fill:#fff"/><path fill="#f8ec7d" d="M231.73 289.797h169.36c16.57 0 30 13.43 30 30v118.527c0 16.57-13.43 30-30 30H175.43c-16.567 0-30-13.43-30-30V319.797c0-16.57 13.433-30 30-30zm150.38 94.918v-17.098c0-7.734-6.266-14-14-14h-5.919c-7.734 0-14 6.266-14 14v17.098zm-59.93 33v-5.93h-67.84v5.93c.004 15.465 12.539 27.996 28 28h11.84c15.465 0 28-12.535 28-28zm-93.852-33v-17.098c0-7.734-6.266-14-14-14h-5.918c-7.73 0-14 6.266-14 14v17.098zm0 0" style="fill:#c880ff"/><path fill="#e48e66" d="M382.11 367.617v17.098H348.19v-17.098c0-7.734 6.266-14 14-14h5.918c7.735 0 14 6.266 14 14zm0 0" style="fill:#fff"/><path fill="#6fe3ff" d="M347.04 34.426v151.691c.003 15.52-12.58 28.106-28.099 28.11H124.68c-19.5 0-28.2 10.57-32.34 22.277-4.14 11.71-3.73 24.582-5.012 29.16-.168.613-.36.832-.539.531 0 0-25.238-7.98-31.617-44.14a9.701 9.701 0 0 0-9.633-7.828H34.102C18.578 214.223 6 201.637 6 186.117V34.426C6 18.906 18.582 6.324 34.102 6.324h284.84c15.519 0 28.097 12.582 28.097 28.102zm0 0" style="fill:#fff"/><path fill="#e48e66" d="M344.8 264.414v25.383H231.73v-25.383a8.469 8.469 0 0 1 2.48-6 8.476 8.476 0 0 1 6-2.488h96.11a8.487 8.487 0 0 1 8.48 8.488zM322.18 411.785v5.93c0 15.465-12.535 28-28 28h-11.84c-15.461-.004-27.996-12.535-28-28v-5.93zM228.328 367.617v17.098H194.41v-17.098c0-7.734 6.27-14 14-14h5.918c7.734 0 14 6.266 14 14zm0 0" style="fill:#fff"/><g fill="#63316d"><path d="M84.023 271.574a6.132 6.132 0 0 0 3.75.7 6.368 6.368 0 0 0 5.336-4.993 52.446 52.446 0 0 0 1.176-8.394c.528-5.664 1.25-13.418 3.711-20.383 4.41-12.469 12.89-18.277 26.684-18.277H318.94c18.825-.024 34.082-15.286 34.098-34.11V34.426C353.02 15.602 337.766.348 318.941.324H34.101C15.278.348.02 15.602 0 34.426v151.691c.02 18.824 15.273 34.086 34.102 34.11h11.437a3.706 3.706 0 0 1 3.723 2.87c6.297 35.68 29.648 46.512 34.761 48.477zM45.54 208.227H34.102c-12.204-.02-22.09-9.91-22.102-22.11V34.426c.016-12.2 9.898-22.086 22.102-22.102h284.84c12.199.016 22.085 9.903 22.097 22.102v151.691c-.012 12.2-9.898 22.09-22.098 22.11H124.68c-18.778 0-31.918 9.086-38 26.28-2.867 8.126-3.711 16.481-4.293 22.716-6.918-4.614-17.559-14.953-21.309-36.211a15.635 15.635 0 0 0-15.539-12.785zm0 0" style="fill:#561862"/><path d="M311.91 125.555h-72.012c-3.312 0-6 2.687-6 6 0 3.316 2.688 6 6 6h72.012c3.313 0 6-2.684 6-6 0-3.313-2.687-6-6-6zM211.89 131.555c0-3.313-2.687-6-6-6H92.39c-3.312 0-6 2.687-6 6 0 3.316 2.688 6 6 6h113.5c3.313 0 6-2.684 6-6zM41.129 137.555h24.77c3.316 0 6-2.684 6-6 0-3.313-2.684-6-6-6h-24.77c-3.313 0-6 2.687-6 6 0 3.316 2.687 6 6 6zM293.11 102.426h18.8c3.313 0 6-2.688 6-6s-2.687-6-6-6h-18.8a6.001 6.001 0 0 0 0 12zM266.781 102.426c3.313 0 6-2.688 6-6s-2.687-6-6-6h-31.48c-3.317 0-6 2.687-6 6s2.683 6 6 6zM41.129 102.426h167.633c3.312 0 6-2.688 6-6s-2.688-6-6-6H41.129a6.001 6.001 0 0 0 0 12zM296.71 60.277h15.2c3.313 0 6-2.687 6-6 0-3.316-2.687-6-6-6h-15.2c-3.315 0-6 2.684-6 6 0 3.313 2.685 6 6 6zM204.91 60.277h65.121c3.313 0 6-2.687 6-6 0-3.316-2.687-6-6-6h-65.12c-3.313 0-6 2.684-6 6 0 3.313 2.687 6 6 6zM41.129 60.277H178.37c3.313 0 6-2.687 6-6 0-3.316-2.687-6-6-6H41.13c-3.313 0-6 2.684-6 6 0 3.313 2.687 6 6 6zM241.7 160.684h-2.91c-3.313 0-6 2.687-6 6 0 3.316 2.687 6 6 6h2.91c3.316 0 6-2.684 6-6 0-3.313-2.684-6-6-6zM214.422 160.684H162.39c-3.313 0-6 2.687-6 6 0 3.316 2.687 6 6 6h52.03c3.313 0 6-2.684 6-6 0-3.313-2.687-6-6-6zM135.21 166.684c0-3.313-2.687-6-6-6H41.13c-3.313 0-6 2.687-6 6 0 3.316 2.687 6 6 6h88.082c3.312 0 6-2.684 6-6zM490.648 255.105c.004-17.324-13.472-31.66-30.765-32.722-17.29-1.067-32.426 11.508-34.547 28.703-2.121 17.191 9.504 33.07 26.535 36.238v35.918a59.139 59.139 0 0 0-14.781-3.445c-.024-19.871-16.125-35.977-36-36H350.8v-19.383c-.007-7.996-6.484-14.477-14.48-14.488h-42.422v-18.871c0-3.313-2.683-6-6-6-3.312 0-6 2.687-6 6v18.87h-41.687c-7.996.012-14.477 6.493-14.48 14.49v19.382H175.43c-19.871.02-35.977 16.125-36 36v118.527c.023 19.875 16.129 35.98 36 36h225.66c19.875-.02 35.976-16.125 36-36v-.012c25.066-2.527 45.828-20.558 51.84-45.023 6.015-24.465-4.024-50.066-25.059-63.926v-42.039c15.508-2.906 26.758-16.437 26.777-32.219zm-252.918 9.31a2.488 2.488 0 0 1 2.48-2.49h96.11a2.488 2.488 0 0 1 2.48 2.49v19.382H237.73zm187.36 173.91c-.016 13.25-10.75 23.987-24 24H175.43c-13.25-.013-23.985-10.75-24-24V319.796c.015-13.25 10.75-23.988 24-24h225.66c13.25.012 23.984 10.75 24 24zm53.558-59.27c-.027 23.937-17.816 44.132-41.558 47.183v-94.367c23.742 3.05 41.531 23.246 41.558 47.184zm-41.558-123.95c0-11.476 9.305-20.78 20.781-20.78 11.477 0 20.777 9.304 20.777 20.78 0 11.477-9.3 20.782-20.777 20.782-11.473-.012-20.77-9.309-20.781-20.782zm0 0" style="fill:#561862"/><path d="M214.328 347.617h-5.918c-11.039.012-19.988 8.957-20 20v17.098c0 3.312 2.688 6 6 6h33.918c3.317 0 6-2.688 6-6v-17.098c-.012-11.043-8.957-19.988-20-20zm8 31.098H200.41v-11.098a8.005 8.005 0 0 1 8-8h5.918a8.005 8.005 0 0 1 8 8zM368.11 347.617h-5.919c-11.043.012-19.988 8.957-20 20v17.098c0 3.312 2.684 6 6 6h33.918c3.313 0 6-2.688 6-6v-17.098c-.011-11.043-8.957-19.988-20-20zm8 31.098H354.19v-11.098a8.005 8.005 0 0 1 8-8h5.918a8.005 8.005 0 0 1 8 8zM322.18 405.785h-67.84c-3.313 0-6 2.688-6 6v5.93c.02 18.77 15.23 33.98 34 34h11.84c18.77-.02 33.98-15.23 34-34v-5.93c0-3.312-2.688-6-6-6zm-28 33.93h-11.84c-12.117-.012-21.945-9.813-22-21.93h55.84c-.051 12.117-9.883 21.918-22 21.93zm0 0" style="fill:#561862"/></g></svg>