<svg xmlns="http://www.w3.org/2000/svg" xml:space="preserve" style="enable-background:new 0 0 512 512" viewBox="0 0 512 512"><path d="M257 0C116.302 0 0 114.3 0 255s116.302 257 257 257 255-116.3 255-257S397.698 0 257 0z" style="fill:#b758ce"/><path d="M512 255c0 140.7-114.302 257-255 257V0c140.698 0 255 114.3 255 255z" style="fill:#aa3dc8"/><path d="M257 60C149.598 60 60 147.599 60 255c0 107.399 89.598 197 197 197s195-89.601 195-197c0-107.401-87.598-195-195-195z" style="fill:#e1e4fb"/><path d="M257 452c107.402 0 195-89.601 195-197 0-107.401-87.598-195-195-195v392z" style="fill:#c5c9f7"/><path d="M392 255c0 8.399-6.599 15-15 15H257c-8.401 0-15-6.601-15-15V135c0-8.401 6.599-15 15-15s15 6.599 15 15v105h105c8.401 0 15 6.599 15 15z" style="fill:#0d70b2"/><path d="M392 255c0 8.399-6.599 15-15 15H257V120c8.401 0 15 6.599 15 15v105h105c8.401 0 15 6.599 15 15z" style="fill:#0059aa"/></svg>