<svg xmlns="http://www.w3.org/2000/svg" viewBox="0 0 1000 665.5"><path fill="#0f0a07" d="M738 316.6c-1.6-12.3-6.2-23.3-14.6-32.5-3.7-4.1-7.2-8.3-10.8-12.4-8.9-10.5-14.2-22.6-14.8-36.5-.5-11.1 1.5-21.5 8.6-30.5l.9-1.2c.8-1.3.9-2.7 0-3.6-1-1-2.2-1.3-3.5-.7-.7.4-1.5.6-2.2 1-3.8 2.4-7.8 4.6-11.4 7.3-6.7 5.1-11.4 11.8-14.3 19.7-3.9 10.5-3.9 21.2-.5 31.8 2 6.3 4.4 12.4 6.7 18.6 2.7 7.2 5.4 14.5 6.9 22.1 1.9 9.2.6 17.9-4.8 25.8-5.3 7.8-12.3 13.5-21.1 17.1-9.8 4-20.1 5.9-30.6 6.6-18.3 1.2-36.4-.4-54.2-4.8-14.7-3.6-28.4-9.3-40.7-18.3-14.7-10.7-25.8-24.1-32.4-41.2-6.8-17.5-11.5-35.5-14-54.1-1.7-13.1-4-26.1-6.9-39-3.5-15.3-8.3-30.1-15.4-44.1-6.8-13.4-16.2-24.8-28.4-33.7-8.5-6.2-17.7-11.1-27.6-14.8-7.8-2.9-15.8-4.6-24.1-4.3-6 .2-11.9.6-17.9.7-6 .2-11.3 2.2-16.3 5.3-10.9 6.8-20.2 15.5-28 25.7-4.6 6-9 12.2-13.2 18.5-6.8 10-14 19.7-23 27.9-2.1 1.9-4.2 4-6.1 6.2-1.9 2.1-3.9 4.3-5.6 6.7-6.7 9.5-10.3 20-9.4 31.8.8 9.6 4.8 17.4 13.4 22.2 6.1 3.4 12.7 4.6 19.6 3.6 1.6-.2 3.2-.4 4.6-.5 2.4 2.1 5 3.5 6.9 5.6-.8 1.8-1.5 3.4-2.1 5-2.3 6-1.9 11.7 2.5 16.7.9 1 1.6 2 2.4 3 6 7.6 14.1 11 23.6 11.3 6.4.2 12.4-1.6 18.1-4.5 2.6-1.3 5-2.8 7.5-4.3.5-.2 1-.6 1.5 0-2.9 7-5.8 13.9-8.7 21-5 2.5-10.3 4.3-15.7 6.1-7.5 2.6-15 4.9-22.3 7.9-14.6 5.9-23.9 16.6-27.3 32.1-.9 4.2-1.6 8.5-2.3 12.8-.2 1.7.3 3.3 2 4 1.8.8 3.1-.4 4.2-1.7 1.8-2.3 3.4-4.7 5.2-7 .7-1 1.6-1.9 2.7-3.2.3 1.1.5 1.7.6 2.3.1 1 .1 1.9.3 2.9.2 1.6 1.1 2.7 2.7 3.1 1.4.4 2.5-.4 3.4-1.3 1-1.1 1.8-2.2 2.7-3.4.8-1.1 1.6-2.2 2.7-3.6.7 1.4 1.1 2.5 1.8 3.2.8.8 1.9 1.3 2.8 2-2.4 3.6-4.9 6.9-7.1 10.5-4.2 6.7-7.2 14-9.6 21.6-.4 1.4-.7 2.8-1 4.2-.2 1.4.3 2.5 1.5 3.4 1 .7 2.4.5 3.6-.4.7-.6 1.4-1.3 2.1-2 1.1-1.2 2.1-2.5 3.2-3.6.4-.5 1.1-.8 2-1.4-.3 3.3-.6 6-.6 8.7 0 1.9.1 3.9.6 5.7.6 2.5 3.5 3.2 5.4 1.5 1-1 1.8-2.2 2.5-3.5 1.6-2.8 3-5.7 4.5-8.6.4-.7.7-1.5 1.6-1.1.9 3.3 1.7 6.6 2.7 9.8.7 2 1.6 4.1 4.2 4 2.3-.1 3.1-2.1 3.6-4 .9-3.1 1.7-6.2 2.6-9.3 1.2-4 2.5-8 4-11.9 1.3-3.4 3.3-6.3 6.3-8.4.6-.4 1.3-.6 2.1-.9.6 8.9 2.1 17.3 4 25.7 5.2 23.7 16.4 43.9 34.3 60.4.8.8 1.5 1.6 2.3 2.4 0 .8.1 1.4 0 2.1-1.8 11.7-2.1 23.4-.8 35.2 1.2 11 3.4 21.6 8.5 31.5 1.7 3.3 3.1 6.7 4.3 10.2 2 6 1.2 7.6-4.6 10-3.9 1.6-7.7 3.2-11.6 4.9-5.2 2.3-10.1 5-14.5 8.6-1.5 1.2-2.9 2.6-4.1 4.1-.8 1-1.1 2.3-.2 3.6.8 1.2 2 1.7 3.4 1.4 1.9-.4 3.7-1.2 5.6-1.6.8-.2 1.6-.1 2.9-.2-1.9 2.1-3.5 3.7-4.9 5.4-.7.8-1.4 1.8-1.8 2.8-.8 1.9.9 4.1 3 3.9 1.1-.1 2.2-.5 3.3-.8 2.9-1 5.7-2.2 8.6-3.2.7-.3 1.4-.4 2.8-.8-.5 1.1-.7 1.7-1 2.2-.8 1.6-1.8 3.1-2.5 4.7-.8 1.9-.5 3.4.7 4.4 1.3 1 2.7.9 4.1.3 1-.5 2-1.1 2.9-1.7 6-3.8 12.5-6.5 19.3-8.8 6.9-2.2 13.8-3.1 21-2.3 2.7.3 5.5.5 8.2.4 2.5-.2 5.1-.7 7.5-1.6 4.7-1.8 6.5-5.8 5-10.6-.4-1.2-.9-2.4-1.5-3.5-1.1-2-2.3-3.9-3.6-5.7-3.6-5.1-5.4-10.9-6.2-17.1-1.1-8.6-.3-17.1.5-25.6.5-5.9 1-11.9 1.5-17.8.1-.7-.3-1.6.9-2.2 9.6 3.1 19.2 6.7 29.2 7.5 2.8 4.4 5.3 8.6 8 12.6 4.1 6 8.3 11.9 12.5 17.8 2.9 4.1 5.9 8.1 8.9 12.1 2.3 3.1 4.7 6.1 7 9.3 1.1 1.6 1.9 3.3 2.8 5.1.7 1.3.3 2.5-.8 3.5-.8.7-1.7 1.4-2.7 2-1.8 1.1-3.7 2-5.5 3-7.4 4-14.3 8.7-19.9 15.2-1.7 1.9-3.1 4.1-4.5 6.3-.6.9-.9 2.1-1.1 3.2-.4 2.6 1.7 4.4 4.2 3.5 1.3-.5 2.6-1.2 3.8-2 2.3-1.4 4.6-3 6.9-4.4.5-.3 1-.9 1.9 0-.3.6-.7 1.2-1.1 1.9s-.9 1.4-1.1 2.1c-.4 1.4-1 2.8-1 4.2-.1 2.1 1.8 3.6 3.9 3.1 1.1-.3 2.1-.8 3-1.4 1.7-1.2 3.4-2.5 5.1-3.7 2.4-1.6 4.8-3.2 7.4-5 .5 2.3-.5 3.9-.8 5.5-.3 1.9-.1 3.6 1.6 4.8 1.7 1.1 3.4.6 5-.4.8-.5 1.6-1.1 2.3-1.7 1.3-1 2.5-2 3.7-3.1 4.3-3.7 9.2-6.5 14.5-8.6 3.6-1.4 7.3-2.6 10.8-4.1 5.6-2.4 11.3-4.8 16.8-7.5 2.1-1 4.2-2.5 5.8-4.2 2.6-2.6 2.9-5.7 1-8.9-.9-1.5-2.2-2.8-3.5-3.9-1.7-1.4-3.7-2.6-5.6-3.7-4.6-2.6-8-6.4-10.3-11.2-3.4-7-6.7-14-8.9-21.4-1.4-4.8-2.3-9.7-3.3-14.6-.8-3.7.1-7 2.2-10.1 2-2.9 3.9-5.9 5.9-8.9.6-.9 1.4-1.7 1.9-2.4h5.6c4.5.1 9-.1 13.5-1.2 7.7-1.9 15.3-3.8 22.7-6.8 13.6-5.5 26.8-11.8 39.7-18.9 2-1.1 3.9-2.3 5.8-3.5 13.5-8.8 26.5-18.3 39.4-28 15.3-11.6 28.5-25.2 39.7-40.7 2.2-3 4.2-6.1 6.1-9.3 2.8-4.6 4.7-9.6 5.6-14.8 1.7-13.3 2-26.5.3-39.7zm-383.6 17.5c-5.2 1.9-10 3.6-14.7 5.5-4.8 1.9-8.6 5.4-12.7 8.6 1.6-4.8 4.5-10.4 7.1-13.1 1.6-1.6 3.4-3 5.2-4.2 3.8-2.4 8.1-3.7 12.5-4.7.7-.2 1.5 0 2.5 0 .4 2.9.2 5.5.1 7.9z"/><path fill="#ee6b20" d="M367.9 289.9c.1-.8 0-1.6.3-2.3 2.8-5.8 5.6-11.6 8.5-17.3 1.7-3.4 4.5-5.9 8.1-7.2 4.7-1.7 9.3-3.6 14.1-4.9 10.9-3 20-8.8 27.5-17.2 2.7-3 4.9-6.4 6.7-10 .4-.8.7-1.8.8-2.7.1-1-.5-2-1.5-2.2-.7-.2-1.7-.1-2.2.3-.8.7-1.5 1.7-2 2.6-6.8 12.4-17.1 20.3-30.8 23.9-10.9 2.9-20.9 7.6-29.6 14.8-4.2 3.5-8.7 6.6-13.8 8.8-7.6 3.3-15.3 3.9-23.1 1.2-1.9-.7-4-1.2-5.3-3.4 9.8-1.9 17.2-7.4 24-14.1 13.9-13.6 24.6-29.4 32.2-47.3 1.2-3 2.4-6 3.4-9 .7-2-.9-3.6-2.9-3-.8.2-1.5.6-2.2.9-5.6 2.6-11.1 5.2-16.7 7.8-7 3.3-13.6 7.4-20.2 11.5-9.8 6-20.1 10.9-30.9 14.8-4.6 1.6-9.3 2.6-14.2 2.6-3.9 0-7.7-.7-11.3-2.4-5.2-2.4-8.9-6.3-10.8-11.8-2.2-6.3-2-12.7-.4-19 2.1-8.3 6.1-15.5 12-21.7 2.2-2.3 4.4-4.7 6.8-6.9 8.9-8.1 16-17.7 22.7-27.5 4.5-6.7 9.2-13.2 14.1-19.7 7.2-9.5 15.9-17.3 25.9-23.7 4.5-2.8 9.2-4.3 14.5-4.6 6.6-.3 13.2-.8 19.8-.7 4.7.1 9.3.7 13.8 2.1 19.2 6 35.8 16.1 48.6 31.9 7.6 9.4 12.7 20.1 16.9 31.4 5.3 14.2 8.9 28.9 11.5 43.9 2.1 12.1 3.8 24.2 5.8 36.3 2.8 16.5 7.9 32.2 14.7 47.4 7.1 15.7 18.4 27.8 32.3 37.8 14.4 10.3 30.6 16.5 47.8 20 14.9 3.1 30 4.4 45.2 3.9 11.2-.4 22.2-2.1 32.8-5.7 10.3-3.5 19.1-9.2 25.8-18 7.8-10.3 10.3-21.6 7.2-34.2-1.8-7.2-4.2-14.2-6.8-21.2-2.3-6.3-4.9-12.6-6.8-19.1-3.5-11.6-2.7-23 3.3-33.7 2.7-4.8 6.1-9.1 11-12 .7 0 1 .3.9.9-.8 3-1.7 5.9-2.2 8.9-3.4 19.4 1.4 36.7 13.6 52.1 3.5 4.4 7.3 8.6 11 12.9 1.7 2 3.4 3.9 4.9 6 4 5.2 6.7 11 8.2 17.3 2.1 8.7 2.9 17.5 2.4 26.4-.3 5.3-.7 10.6-1.2 15.9-.7 7.2-3.3 13.8-7.4 19.7-9.5 13.7-19.9 26.6-32.8 37.3-15.6 13-32.1 25-49.1 36-4.5 2.9-9.1 5.5-13.9 7.9-7.1 3.5-14.3 6.8-21.4 10.2-9.5 4.5-19.5 7.6-29.7 10-4.9 1.1-9.8 1.9-15.1 1.2.1-.7.1-1.4.4-1.9 3.8-7.6 5.7-15.8 7-24 1.2-7.8 1.5-15.7 2.2-23.6 0-.5.1-1 0-1.4-.1-1.1-.6-1.8-1.7-2-1-.2-2 .2-2.4 1.2s-.7 2.1-.8 3.2c-.6 5.3-1.2 10.6-1.7 15.9-.7 6.9-2.3 13.7-4.1 20.3-1.3 4.5-3.3 8.7-5.9 12.7-2.9 4.5-5.7 9-8.8 13.3-3.4 4.8-4.1 9.9-3.1 15.6 2.3 13.3 7.4 25.6 13.6 37.6 2.3 4.6 5.7 8.2 10.1 10.8 1.8 1.1 3.6 2.2 5.3 3.4.9.6 1.8 1.3 2.6 2.1 1.4 1.4 1.4 3-.1 4.2-1.3 1.1-2.8 2.2-4.4 2.9-6 2.7-12.1 5.3-18.2 7.8-2.1.9-4.2 1.7-6.3 2.4-6.8 2.4-12.9 5.8-18.4 10.5-.4.4-1 .7-2.2 1.4.8-2.2 1.4-3.6 1.9-5.1s1.1-3.1-.2-4.5c-1.5-1.6-3.3-1.1-4.9-.4s-3.2 1.6-4.7 2.4c-1.3.7-2.5 1.3-3.7 2-1-.9-.1-1.3.2-1.7.3-.5.8-1 1.1-1.6 1.1-2.1-.1-4.4-2.5-4.5-.9 0-1.9.1-2.8.4-2.6.9-5.2 1.8-7.7 2.8-.7.3-1.4.9-2.5.2.7-.8 1.3-1.7 2.1-2.3 4.2-3.6 8.8-6.4 13.7-9 2.4-1.3 4.9-2.6 7.1-4.2 4.6-3.3 5.5-7.1 3-12.2-1-2-2.2-3.9-3.5-5.8-1.8-2.5-3.7-4.9-5.5-7.3-4.2-5.7-8.3-11.5-12.5-17.2-2.8-3.9-5.5-7.9-8.4-11.8-6.5-8.9-11.5-18.6-14.6-29.3-2.5-8.7-2.9-17.5-1.8-26.3 1.5-11.6 4.9-22.7 10.4-33 3.9-7.3 9-13.7 15.1-19.3 1.4-1.3 3.2-2.2 4.8-3.2.7-.4 1.6-.6 2.1-1.2.5-.5.8-1.4.8-2.1-.1-1-.8-1.7-1.8-2-1.5-.3-3-.1-4.2.7-2 1.3-4 2.7-5.8 4.3-8.6 8-15.1 17.5-19.6 28.5-6 14.7-8.9 29.9-7.5 45.8-1.9 1-3.4-.3-4.9-1.1-4.8-2.9-9.7-5.8-13.9-9.6-18.4-16.9-34.6-35.6-45.8-58.1-5.9-11.8-10.3-24.3-14.6-36.8-.9-2.7-2.6-5.7-.6-8.8 2.8-.8 5.5-1.5 8.3-2.3 1.1-.3 2.2-.6 3.2-1 1.1-.5 1.5-1.8 1.1-2.9-.3-1.1-1.1-1.6-2.1-1.7-.9-.1-1.9.1-2.8.3-4.4 1-8.8 1.9-13.2 3.2-8.5 2.4-17 5.1-25.5 7.6-1.2.4-2.4.9-3.6 1.3-8.8 3.1-14.8 8.9-17.7 17.9-1 3.1-2 6.1-2.9 9.2-.4 1.4-.9 2.7-1.3 4.2-1.3-1.7-1.3-3.5-1.6-5.2s-.6-3.5-1.3-5.1c-1.1-2.7-3.9-3.2-5.8-1.1-.9.9-1.6 2-2.2 3.1-1 1.7-1.8 3.4-2.7 5.1-.3.5-.8.9-1.4 1.6-.5-2.6.1-4.6.3-6.6.1-1.1.3-2.3.1-3.3-.4-2.7-2.7-3.8-5-2.6-1.3.7-2.4 1.6-4 2.7.2-1.1.3-1.8.5-2.4 2.9-6.9 6.6-13.3 11.3-19 6.2-7.5 13.7-13.2 23.2-15.9 7.1-2 14.3-4 21.4-6 8.9-2.5 17.2-6.3 25.2-11 1.1-.7 2.2-1.4 3.2-2.2 1.1-.9 1.3-2 .7-3-.7-1.2-2-1.5-3.4-.8-.9.4-1.6 1-2.5 1.4-3.9 1.9-7.9 3.7-11.8 5.5-4.6-8.1-9.8-15.9-12.9-24.7-1.3-3.9-2.6-7.6-1-11.5z" style="fill:#8673b3"/><path fill="#f6c63b" d="M394.2 355.1c-.1 4.8 1.8 9.1 3.4 13.4 3.1 8.4 6.6 16.7 9.9 25.1 3.4 8.7 8.1 16.8 13.4 24.4 3.3 4.7 7 9.2 10.5 13.8 3.7 4.9 7.6 9.5 12 13.8l7.5 7.5c5.6 5.9 12.4 10.2 19.2 14.5 1.2.8 2.6 1.3 3.9 1.9.2.8.5 1.5.7 2.3.8 4.9 2.1 9.7 4 14.4.3.9.6 1.8 1.1 3.1-1 0-1.8.1-2.5 0-14.2-3.1-27.8-8.2-41-14.2-14.9-6.9-28.2-16.1-40-27.5-15.1-14.6-25-32.2-29.9-52.6-2-8.3-3.6-16.7-4.7-25.2-.2-1.6-.2-3.2-.3-4.9 1.2-.5 2.1-1.1 3.2-1.4 8.6-2.6 17.3-5.2 25.9-7.8 1.1-.5 2.4-.5 3.7-.6z" style="fill:#a6a6a6"/><path fill="#ee6b20" d="M402 460.5c5.3 3.7 9.7 7.1 14.5 10 4.9 3.1 10 5.8 15.2 8.4 5 2.5 10.2 4.7 15.5 7.1 0 2.2.2 4.3 0 6.3-.6 6.2-1.5 12.5-2.1 18.7-.8 8.7-1.1 17.3.3 26 1 5.8 3 11.2 6.3 16 .9 1.3 1.8 2.7 2.7 4 .5.8 1 1.6 1.4 2.5 1.8 4 .6 6.1-3.8 6.7-2.7.3-5.5.2-8.2.2-2.9 0-5.8-.2-8.7-.3-5.7-.2-11.2.8-16.6 2.8-4.4 1.6-8.7 3.4-13 5.1-.7.3-1.4.6-2 .8-1-.8-.3-1.3 0-1.8.8-1.2 1.7-2.3 2.5-3.6s1.2-2.6.2-4.1c-.9-1.2-2.3-1.6-4.4-.9-1.8.6-3.5 1.6-5.4 2.2-1.5.5-2.8 1.7-4.9 1.2 1.6-1.5 3-2.7 4.4-4 1.2-1.1 2.3-2.3 1.6-4.2-.6-1.6-2.1-2.3-4.4-2-1.3.1-2.5.5-4.8.9 1.4-1.1 1.9-1.7 2.6-2 4.4-2 8.8-3.9 13.2-5.9 1.8-.8 3.6-1.4 5.3-2.4 4.6-2.5 6.4-6.1 5.4-11.2-.5-2.5-1.3-5-2.2-7.4-1.1-2.9-2.4-5.6-3.7-8.4-3.7-7.4-5.6-15.4-6.9-23.5-1.5-10.1-1.4-20.2-.9-30.4.1-2 .5-4 .9-6.8zM357 303.9c-.5 3-1.1 5.7-1.5 8.3-.4 2.5-.6 5.1-.9 7.9-1.2.4-2.5.7-3.6 1.1-3.2 1-6.5 1.8-9.7 3.1-6.9 2.6-12.2 7.2-15.6 13.8-.8 1.6-1.7 3.1-2.7 4.8-.7-.9-1.2-1.5-1.8-2.1-1.7-1.6-3.5-1.6-5.1 0-1.5 1.6-2.8 3.5-4.2 5.2-1.1 0-.9-.7-1-1.3-.2-1.1-.2-2.3-.6-3.3-.8-2.3-3.1-3-5.1-1.6-1.2.8-2.1 1.9-3.1 3-1.1 1.2-2 2.5-3 3.8-.1.1-.3.1-.6.2-.1-.4-.3-.8-.3-1.2 2.5-12.4 8.8-22.1 20.4-27.7 4.9-2.4 10.1-4.2 15.2-6.1 6.9-2.6 13.9-5.1 20.9-7.6.7-.2 1.4-.1 2.3-.3zM343.2 227.7c10.5-7.3 21.8-13.2 33.5-18.5-.4 3.3-3.2 9.6-6.3 14-1.1-.5-2.2-1.1-3.4-1.7-.9-.4-1.7-1-2.6-1.4-2.9-1.2-5.1 0-5.8 3.1-.2 1.1-.2 2.2-.3 3.4v7.2c-2 .5-3.2-.9-4.6-1.6-4.4-2-6.9-.3-6.8 4.5.1 2.1.5 4.2.6 6.3s0 4.1 0 6.6c-1.1-.1-2 0-2.8-.3-2.6-.7-5.2-1.6-7.9-2.2-3.3-.8-5.3.5-6.1 3.8-.3 1.4-.3 2.9-.3 4.3v11.7c-2.9 1.9-6 2.3-9.3 1.5-2.4-.6-4.1-2.1-4.9-4.3-1.4-4-.7-7.8 1.6-11.5 1.7 1 3 1.9 4.5 2.6 2.1 1 4.3.2 5.2-2 .5-1.3.8-2.8.9-4.2.1-3.1 0-6.1 0-9.6 1.2.3 2.1.4 2.9.7 1.8.7 3.5 1.6 5.3 2.3 1 .4 2.2.7 3.3.7 2.6.2 4.4-1.3 4.6-3.9.1-1.3-.1-2.6-.2-3.8-.2-2.6-.7-5.1-1.1-7.7z" style="fill:#8673b3"/><path fill="#f6c63b" d="M367.9 289.9c.2 7.6 3.1 14.4 6.6 21 1.7 3.3 3.7 6.4 5.6 9.6 1 1.7 1.9 3.4 1.6 5.4-6.9 3.1-14.4 5.5-21.3 6.8-.2-.5-.5-1.1-.5-1.7.3-6.7.1-13.5 1.3-20.2 1.1-6.5 3.2-12.8 5.2-19.1.3-.7 1-1.2 1.5-1.8z" style="fill:#a6a6a6"/><path fill="#f1f3f3" d="M335.6 264.4v-8.9c0-.9.3-1.8.5-3.1 1.9.5 3.6.9 5.2 1.4 1.6.4 3.3.9 5.3 1.4-3 3.7-6.5 6.4-11 9.2zM322.8 237.5c.3.6.5.8.5 1.1v10c-.9-.3-1.7-.4-2.2-.8-2.7-2-5.3-4.1-8.3-6.4 3.6-1.4 6.8-2.7 10-3.9z" style="fill:#fff"/><path fill="#defdc8" d="M353.6 247.7c-.9-3.3-.9-6.3-1.1-9.6 2.7.3 4.4 1.8 6.6 3.1-1.6 2.4-3.2 4.5-5.5 6.5zM331.5 233.8c1.9-1.8 4.1-2.3 6.1-3.5 1.4 2.1 1.4 4.3 1.4 6.8-2.8-.5-5.1-1.8-7.5-3.3z" style="fill:#fff"/><path fill="#a6f6d3" d="M364.1 225.9c1.4.8 2.6 1.4 3.8 2.1-.8 2.3-2 4-3.6 6.1-1.2-2.3-.7-4.4-.8-6.4 0-.6.4-1.2.6-1.8z" style="fill:#fff"/><path fill="#ee6b20" d="M694.7 211.4c.5-.2.9-.4 1.4-.7-.2.5-.3 1.1-.5 1.6-.3-.2-.6-.5-.9-.9z" style="fill:#8673b3"/><path fill="#cd5218" d="M641.1 375.3c.5 5.4-3 8.4-6.8 10.9-2.7 1.8-5.7 2.9-9.1 3-.9 0-1.9.4-2.8.5-.9.2-1.9.4-2.9.3-2.9-.4-5.7-.9-8.5-1.4-5.3-1.1-10.5-8.3-8.1-14.2.7-7 6-9.4 11.7-11.3 1.2-.4 2.5-.5 3.8-.7 7.6-1.2 14.3.6 19.9 6.1 1.9 1.9 3 4.1 2.8 6.8zM471.5 194.9c.8 4.1-.7 7.8-2 11.7-1.4 4.1-4.7 6-8.4 7.3-.6.2-1.3.2-1.9 0-3.1-1-6-2.4-7.7-5.4-3-5.4-5.2-11.1-5-17.4 0-.5.1-1 0-1.4-.8-5.3 1.3-9.7 3.8-14.1 1.5-2.6 3.7-3.9 6.7-4.1 2.9-.2 5.2.5 7.3 2.7 2.8 2.9 4.8 6 5.9 9.8 1 3.5 1.9 7 1.3 10.9zM534.8 367.9c-3.3.2-6.3-1.2-9.2-2.5-5.2-2.5-9.3-6-12.8-10.7-2.9-4-3.5-8.6-4.3-13.1-.6-3.6 2.7-7.2 6.6-7.5 2.2-.2 4.4-.1 6.6.7 6.8 2.5 12.6 6.2 16.9 12.2.5.7 1 1.3 1.5 1.8 2 1.9 3.2 4.4 4.1 7 2.2 6.6-1.6 12-8.5 12.1h-.9z" style="fill:#812da2"/><path fill="#0c0b07" d="M385.3 175.3c-10 0-18.1-8-18.2-18-.1-10.1 8.4-18.8 18.3-18.4 11 .4 17.9 8.7 18 18.3.1 9.9-8.2 18.1-18.1 18.1z"/><path fill="#cd5218" d="M487.2 313.2c-.6 1.9-1 4.6-2.3 6.7-2.5 4.1-6.6 4.6-11.2 1.1-4.5-3.5-6.7-8.5-7.8-13.9-.2-1.1-.3-2.2-.6-3.3-1-3.1.1-6.1 1-8.9.7-1.9 2.4-3.1 4.8-3.5 5.5-.8 8.8 1.8 11.4 6.2 1.9 3.2 2.9 6.8 3.7 10.4.3 1.5.5 3.1 1 5.2zM411.1 114.3c.8.1 1.7-.1 2.4.2 3.4 1.3 6.9 2.5 10.2 4 3.5 1.7 6.1 4.6 8.7 7.5 1 1 1.7 2.3 2.3 3.6 1.7 3.5.4 7.8-3.1 9.3-1.6.7-3.8.7-5.6.3-3.1-.7-6-2-8.6-4-3.9-2.9-7.4-6.1-10-10.2-1-1.7-1.5-3.4-1.6-5.4-.2-3 1.6-5.6 5.3-5.3zM696.3 336c4.5 0 6 1 7.2 4 .5 1.3.5 2.5 0 3.7-1 2-1.9 4-3.6 5.6-3.5 3.4-7.3 6.2-11.8 8.1-.9.4-1.8.7-2.8.8-4.4.4-5.2-.5-6.7-4.8-1.5-4.2-.1-7.1 2.9-9.8 3.6-3.3 8-5.3 12.4-7.2 1-.5 2.2-.4 2.4-.4zM364.1 124.4c-2.3-.4-4.5-.8-6.7-1.2-1.9-.3-3.1-1.5-4-3.2-.9-1.5-.9-2.9-.1-4.5 1.5-2.9 4.1-4.6 6.9-5.8 5.3-2.2 10.8-3.1 16.4-1.1 2.2.8 4 1.9 5.1 4.1 1.2 2.6.9 5.1-1.3 6.9-1.7 1.4-3.7 2.6-5.9 3-3.4.8-6.9 1.3-10.4 1.8zM577.6 376.6c-2 .2-4-.4-5.6-1.9-1.7-1.6-3.7-2.6-5.7-3.6-1.9-1-3.5-2.3-4.6-4.2-1.7-2.8-1.3-5 .9-7.4 1.5-1.6 3.2-2.3 5.5-2.4 5.2-.3 9.8 1.2 14.1 4 2.5 1.6 3.5 4.1 4.4 6.7.3.8 0 1.9-.3 2.8-1.2 3.7-4.6 6-8.7 6zM467.1 241.1c3.1-.6 6.8 4.6 6.4 7.1-.7 4.3-3 7.3-7.1 9-2.2.9-4.2-.1-5.7-1.6-2.5-2.5-3.2-6.5-1.5-9.8 1.7-3 4.2-4.7 7.9-4.7zM322.6 149.2c.5-2.7 2-6 4.6-8.7.9-1 2.5-1.5 3.8-1.8 2.8-.6 5.7 1.9 6.1 4.7.3 2.6-.7 4.7-2 6.8-1.4 2.3-3.1 4.4-6 5.1-1.2.3-2.4 1.1-3.6.1-1.4-1.1-2.8-2.2-2.9-4.2v-2zM441.6 155c.2 2.1-.2 3.8-1.8 5.3-2.3 2-5.4 2.1-7.8.1-2.9-2.5-4.4-5.5-3.9-9.3.2-1.2.7-2 1.8-2.7 4.2-2.7 6.1-2.4 9.7 1.1 1.6 1.6 2.4 3.4 2 5.5zM480.2 263.1c1.8 0 3.2.8 4.3 2 2.9 3 3.3 7 .9 10-.8 1-1.8 1.7-3.2 1.8-2.8.2-6.2-1.7-7.4-4.4-1.1-2.4 0-6.5 2.3-8.3.9-.5 2.1-.7 3.1-1.1zM455.9 159.9c-2.5-.2-4.5-1-5.6-3.3-.3-.6-.6-1.1-.9-1.7-1.4-2.9-1.2-4 .8-6 1.9-1.8 3.6-2.1 6.1-1.1 2 .8 3.4 2.3 4.2 4.3 1 2.4-.5 6.3-2.9 7.3-.6.4-1.3.4-1.7.5z" style="fill:#812da2"/><path fill="#0f0a07" d="M299.2 207.4c-.7 2.5-1.8 5.1-4.3 6.9-1 .7-2 1-3.2.5-1.3-.6-2-1.7-2-3 .2-3.5 1.7-6.4 4.4-8.7 1.1-.9 2.4-.7 3.5.2 1.3.9 1.8 2.2 1.6 4.1z"/><g fill="#cd5218"><path d="M341.9 134.4c0-2.8 1.7-4.5 4.5-4.5 2.2-.1 4.1 2 4.1 3.4 0 2.1-2.5 4.9-4.5 5.1-1.9.1-4-1.9-4.1-4zM594.1 358.4c.8.2 1.1.2 1.4.3 1.7.7 3.2 1.6 2.9 3.8-.2 1.7-2.4 4-4.1 4.3-1.4.3-2.9.3-3.9-1-.9-1.2-.9-3.8.2-4.9 1.1-1 2.5-1.8 3.5-2.5zM588.8 381.7v1.5c0 1.8-1.1 3-2.6 3.7-1 .5-3-.3-3.9-1.4-1-1.3-1.6-2.8-.6-4.5.3-.5.6-1.2 1-1.7.8-1 1.7-2.1 3.2-1.6 1.5.4 2.4 1.5 2.8 3 .1.6.1 1.1.1 1zM495.8 294c0 1.9-1.9 4.5-3.8 5-.5.1-1.3 0-1.8-.3-2.2-1.3-2.9-4.1-1.5-6.2.3-.4.6-.8.9-1.1 1-1 2-2.2 3.7-1.6 1.6.6 2.6 2.3 2.5 4.2zM497.8 335.7c0 2.1-1.1 3.2-3.3 3.2-2.7 0-4.5-1.8-4.4-4.6 0-2.1 1.2-3.2 3.3-3.2 2.7 0 4.4 1.8 4.4 4.6zM664.8 360.2c2.1 0 4.1 1.9 4 3.9 0 2.1-1.9 3.8-4.1 3.8-2.5 0-3.4-1.2-3.4-4.1.2-2.6 1.1-3.6 3.5-3.6zM656.4 375.5c.9 1.1 1.8 2.1 2.5 3.1.7 1.1.7 2.7 0 3.6-.9 1.2-3 2-4.2 1.6-1.5-.6-2.9-1.4-2.9-3.4-.1-1.8.4-3.2 2.1-3.9.5-.2 1.1-.4 2.5-1zM557.8 373.4c-.1 2.1-1.1 3.2-3.3 3.2-2.3 0-4.4-1.7-4.3-3.5.1-2.2 1.9-4.2 3.8-4.2 2.3.1 3.9 1.9 3.8 4.5zM708.8 320.2c-.1 2.1-1.1 3.2-3.3 3.2-2.5 0-4.4-1.8-4.3-4.1.1-1.7 2.2-3.5 4-3.4 2.1.2 3.7 2.1 3.6 4.3zM503.6 319.7c0 3.1-2.3 4.6-5.2 3.3-.4-.2-.8-.5-1.1-.9-1.4-2.2-.1-5.5 2.4-6.3 1.9-.6 3.6.5 3.8 2.5.1.5.1 1 .1 1.4zM450.3 139.8c-.8.9-1.5 1.9-2.3 2.6-1.5 1.3-2.8 1.2-4.2-.2-1.4-1.5-1.5-3.2-.8-4.9.7-1.9 4.4-2.2 5.8-.5.6.8 1 1.9 1.5 3zM472.1 229.4c-2.1 0-4.4-2.4-4.2-4.4.1-1.5 2-3.1 3.7-3.2 2.1 0 4 1.9 3.9 4-.1 1.8-1.9 3.6-3.4 3.6zM392.7 119.2c-2.2 0-3.3-1-3.3-3.2-.1-2.5 1-3.6 3.4-3.6 2.2 0 3.3 1 3.3 3.2.1 2.5-1 3.6-3.4 3.6z" style="fill:#812da2"/></g><path fill="#f1f3f3" d="M381.5 163.1c-4.7 0-8.5-3.8-8.6-8.6-.1-4.9 3.8-9 8.7-9.1 4.8-.1 8.9 4 8.9 8.9-.1 4.9-4 8.8-9 8.8z" style="fill:#fff"/><path fill="#defdc8" d="M395.3 164.8c-.1 1.4-1.5 2.7-2.9 2.6s-2.6-1.6-2.4-3c.2-1.2 1.4-2.3 2.6-2.3 1.5-.1 2.8 1.3 2.7 2.7z" style="fill:#fff"/></svg>