<svg xmlns="http://www.w3.org/2000/svg" width="495" height="440" style="shape-rendering:geometricPrecision;text-rendering:geometricPrecision;image-rendering:optimizeQuality;fill-rule:evenodd;clip-rule:evenodd"><path fill="#0d0d10" d="M201.5 39.5a112.112 112.112 0 0 0 9.5 8 587.417 587.417 0 0 1 11.5-5c12.006-2.74 21.839.594 29.5 10a74.177 74.177 0 0 1 6.5 12.5c16.434-2.7 28.268 3.467 35.5 18.5 1.897 7.316 3.73 14.65 5.5 22h5a63.382 63.382 0 0 0 6.5 5 185.97 185.97 0 0 1 8.5 16v2a198.913 198.913 0 0 1-1 14c-1.962 6.9-3.962 13.9-6 21 2.044 8.806 2.544 17.806 1.5 27-1.747 8.988-6.581 15.821-14.5 20.5a28.53 28.53 0 0 0 9 4.5c19.663 15.672 35.829 34.339 48.5 56a788.929 788.929 0 0 0 27 46c8.57 11.246 19.404 19.412 32.5 24.5 18.999 6.618 37.666 5.952 56-2 13.739-3.076 18.072 2.091 13 15.5a596.694 596.694 0 0 1-21 19.5 230.945 230.945 0 0 1-16 11.5c-22.565 7.231-45.565 8.898-69 5h-1c-3.944-2.464-8.277-4.13-13-5a154.86 154.86 0 0 0-10.5-5c-.847 7.498-4.681 12.664-11.5 15.5a335.165 335.165 0 0 1-41 1.5c-2.39-1.52-5.057-2.52-8-3a40.775 40.775 0 0 1-4.5-6 128.507 128.507 0 0 1-.5-16 3704.157 3704.157 0 0 1-31 4h-20c-1.322-.17-2.489.163-3.5 1a66.256 66.256 0 0 1-6 13c-1.938 2.606-4.438 4.439-7.5 5.5a689.767 689.767 0 0 1-30 2.5h-8c-16.18-3.64-20.847-13.307-14-29l-1-2a94.179 94.179 0 0 1-12.5-5c-.765.07-1.265.403-1.5 1a81.316 81.316 0 0 0-2.5 3 245.454 245.454 0 0 0-5 19c-1.343 3.362-3.176 6.362-5.5 9a48.054 48.054 0 0 1-11 2.5 289.106 289.106 0 0 1-34 0c-7.59-2.338-11.424-7.505-11.5-15.5-1.491-11.372-.158-22.372 4-33a345.236 345.236 0 0 0 16.5-40c-11.316 2.328-22.65 4.662-34 7a141.901 141.901 0 0 1-12-2.5 15.83 15.83 0 0 1-3.5-5.5c-.5-9.994-.666-19.994-.5-30a45.527 45.527 0 0 0-15-.5l-12 7c-1.634.494-3.3.66-5 .5-2.64-1.809-4.806-4.142-6.5-7-6.643-16.456-5.81-32.456 2.5-48L9 215.5c-2.933-9.914.9-14.248 11.5-13a56.645 56.645 0 0 1 18.5 3 116.842 116.842 0 0 1 18.5-29 242.5 242.5 0 0 1-28.5-30c-8.068-13.607-11.735-28.273-11-44 2.56-2.85 5.726-3.683 9.5-2.5a282.643 282.643 0 0 0 33 23c11.125 5.239 22.792 8.073 35 8.5-3.337-17.591-2.504-34.924 2.5-52a46.45 46.45 0 0 1 6.5-9.5c4.091-1.227 7.591-.394 10.5 2.5a261.744 261.744 0 0 0 14.5 27 3.646 3.646 0 0 0 1.5-1l5-28c3.69-7.68 9.356-9.68 17-6 9.664-14.085 22.83-23.085 39.5-27a88.17 88.17 0 0 1 9 2Z" style="opacity:.989"/><path fill="#f3f4f4" d="M222.5 42.5a587.417 587.417 0 0 0-11.5 5 112.112 112.112 0 0 1-9.5-8c.923-.803 1.923-.97 3-.5 2.636 1.15 4.636 2.983 6 5.5l5-2c2.286.92 4.619.92 7 0Z" style="opacity:.016"/><path fill="#c031fd" d="M261.5 72.5c10.431 2.116 16.931 8.45 19.5 19a480.942 480.942 0 0 1 2.5 20c2.912.568 5.912.568 9 0 .342.838 1.008 1.172 2 1 3.977.433 7.143 2.433 9.5 6a124.584 124.584 0 0 1 1 19 136.906 136.906 0 0 1-7.5 21.5c6.507 11.613 6.34 23.446-.5 35.5-4.46 4.468-9.46 8.135-15 11l-1 14c-1.5 4.167-4.333 7-8.5 8.5a127.321 127.321 0 0 1-34 9c-2.094 1.255-3.094 3.088-3 5.5a19.326 19.326 0 0 0 3 7c-.318 1.147-.984 1.981-2 2.5a52.76 52.76 0 0 1-19 1 87.22 87.22 0 0 0-27.5-6.5c-6.773-1.229-10.273 1.438-10.5 8-.239 1.967.094 3.801 1 5.5a78.325 78.325 0 0 1 23 3.5c.803.923.97 1.923.5 3a104.69 104.69 0 0 1-18.5 23.5c-9.536 6.398-20.036 8.898-31.5 7.5a112.01 112.01 0 0 1-23.5-2c-7.027 1.503-14.027 3.003-21 4.5-.556.383-.889.883-1 1.5h-5c-1.788.285-3.455-.048-5-1 4.584-10.167 6.584-20.833 6-32 .973-1.568 1.14-3.235.5-5l-6.5-6.5c-4.204-2.544-6.537-1.377-7 3.5a124.356 124.356 0 0 1-24-1.5 972.71 972.71 0 0 1-33-12c-3.99-.642-7.99-1.142-12-1.5v-3a2.427 2.427 0 0 1 .5-2c6.382 4.048 12.55 3.548 18.5-1.5 7.9-6.711 11.733-15.211 11.5-25.5-2.25-1.909-4.084-4.075-5.5-6.5a69.319 69.319 0 0 1 5.5-12.5c12.645-19.145 28.478-35.145 47.5-48 5.56 12.398 13.894 22.565 25 30.5 6.619 3.089 13.285 3.256 20 .5 2.613.935 5.279 1.102 8 .5a180.275 180.275 0 0 0 41-24l5.5-7.5c.667-3 .667-6 0-9-1.739-1.394-3.739-2.061-6-2a69.872 69.872 0 0 1-14.5 3.5c-7.692.308-15.358.808-23 1.5a302.871 302.871 0 0 0-20.5-30l-.5-3a198.779 198.779 0 0 0 7.5-35c1.113-1.83 2.613-2.663 4.5-2.5 1.855 3.233 4.521 4.566 8 4 8.387-15.053 20.887-24.886 37.5-29.5 2.544-.116 4.711.717 6.5 2.5a165.474 165.474 0 0 0 9 10.5c8.645-6.493 18.312-8.993 29-7.5 3.402 1.4 6.236 3.566 8.5 6.5a300.876 300.876 0 0 1 8.5 16.5c2.347.334 4.681.167 7-.5Z" style="opacity:.996"/><path fill="#fefffe" d="M148.5 60.5c.397-1.025 1.063-1.192 2-.5a2.427 2.427 0 0 1-2 .5Z" style="opacity:.004"/><path fill="#f1f1f1" d="M304.5 105.5h-5c-1.77-7.35-3.603-14.684-5.5-22-7.232-15.033-19.066-21.2-35.5-18.5a74.177 74.177 0 0 0-6.5-12.5c-7.661-9.406-17.494-12.74-29.5-10-.418-.722-1.084-1.222-2-1.5l2.5-.5c5.013.071 10.013.071 15 0 1.654 1.763 3.487 2.096 5.5 1 5.691 3.524 10.191 8.19 13.5 14l6 6c6.425.78 12.925 2.114 19.5 4a190.843 190.843 0 0 1 9.5 9c3.433 5.826 5.266 11.826 5.5 18 .346 1.196.846 1.196 1.5 0 1.278 5.137 3.112 9.47 5.5 13Z" style="opacity:.014"/><path fill="#9810c0" d="M261.5 72.5c9.043-2.184 16.543.483 22.5 8 5.385 9.656 8.218 19.99 8.5 31-3.088.568-6.088.568-9 0a480.942 480.942 0 0 0-2.5-20c-2.569-10.55-9.069-16.884-19.5-19Z" style="opacity:.996"/><path fill="#c6b7fd" d="M108.5 77.5c3.596 30.359 16.596 55.859 39 76.5a30.137 30.137 0 0 0 6 3.5c-2.464 6.893-7.131 11.56-14 14a4.934 4.934 0 0 1-3-.5c-15.069-12.97-24.902-29.136-29.5-48.5a3227.557 3227.557 0 0 0-4.5-30 28.78 28.78 0 0 1 2.5-11c.498-2.044 1.665-3.378 3.5-4Z" style="opacity:.996"/><path fill="#f8f8f9" d="M108.5 77.5a886.018 886.018 0 0 0 19.5 34 238.98 238.98 0 0 1 25 39c.497 2.31.663 4.643.5 7a30.137 30.137 0 0 1-6-3.5c-22.404-20.641-35.404-46.141-39-76.5Z" style="opacity:.996"/><path fill="#9f8ef6" d="M102.5 92.5a3227.557 3227.557 0 0 1 4.5 30c4.598 19.364 14.431 35.53 29.5 48.5a4.934 4.934 0 0 0 3 .5c-2.466 1.134-5.133 1.301-8 .5-9.946-5.28-17.113-13.113-21.5-23.5-9.202-17.907-11.702-36.573-7.5-56Z" style="opacity:.996"/><path fill="#eaebea" d="M304.5 105.5c3.439.089 6.272 1.422 8.5 4 3.534 5.13 5.701 10.797 6.5 17a185.97 185.97 0 0 0-8.5-16 63.382 63.382 0 0 1-6.5-5Z" style="opacity:.016"/><path fill="#f7f7f8" d="M27.5 108.5a6228.88 6228.88 0 0 0 17 13.5c16.027 10.565 33.694 16.565 53 18a157.467 157.467 0 0 0-12 8.5c-22.745-4.613-41.245-15.946-55.5-34a23.413 23.413 0 0 1-2.5-6Z" style="opacity:.221"/><path fill="#c6b7fc" d="M27.5 108.5a23.413 23.413 0 0 0 2.5 6c14.255 18.054 32.755 29.387 55.5 34a201.76 201.76 0 0 0-18 16 31.868 31.868 0 0 1-13-7.5 299.615 299.615 0 0 1-25-25.5 91.651 91.651 0 0 1-5-24c1.291-.237 2.291.096 3 1Z" style="opacity:.993"/><path fill="#ededed" d="M201.5 39.5a88.17 88.17 0 0 0-9-2c-16.67 3.915-29.836 12.915-39.5 27-7.644-3.68-13.31-1.68-17 6l-5 28c-.414.457-.914.79-1.5 1a261.744 261.744 0 0 1-14.5-27c-2.909-2.894-6.409-3.727-10.5-2.5a46.45 46.45 0 0 0-6.5 9.5c-5.004 17.076-5.837 34.409-2.5 52-12.208-.427-23.875-3.261-35-8.5a282.643 282.643 0 0 1-33-23c-3.774-1.183-6.94-.35-9.5 2.5-.735 15.727 2.932 30.393 11 44a242.5 242.5 0 0 0 28.5 30 116.842 116.842 0 0 0-18.5 29 56.645 56.645 0 0 0-18.5-3c-10.6-1.248-14.433 3.086-11.5 13l10.5 15c-8.31 15.544-9.143 31.544-2.5 48 1.694 2.858 3.86 5.191 6.5 7-2.825.419-4.991-.581-6.5-3-6.144-11.843-7.81-24.177-5-37 2.491-5.789 3.491-11.789 3-18-4.865-4.877-8.031-10.71-9.5-17.5.344-4.064 2.344-6.73 6-8a192.112 192.112 0 0 0 28-2.5 211.679 211.679 0 0 1 14-22.5A50815.836 50815.836 0 0 0 29 150.5c-9.264-14.89-13.43-31.057-12.5-48.5a65.546 65.546 0 0 1 5.5-5.5c3.683.48 7.017 1.813 10 4l1-1c9.042 8.443 19.209 15.276 30.5 20.5 2.094.862 3.094 2.028 3 3.5a3.647 3.647 0 0 0 1.5-1 32.36 32.36 0 0 0 5.5 4l1-2a45.32 45.32 0 0 0 17 4 214.946 214.946 0 0 1 1.5-35c1.105-8.378 3.605-15.878 7.5-22.5a66.67 66.67 0 0 0 9-5.5 10.503 10.503 0 0 0 5 3.5l9.5 13.5c.684 1.284.517 2.45-.5 3.5a19.742 19.742 0 0 0 5 5.5l3-1.5-1-1a443.208 443.208 0 0 1 3.5-20.5 93.177 93.177 0 0 1 6.5-7.5c3.925.518 7.925.518 12 0a71.123 71.123 0 0 1 9.5-10.5l1 1a154.167 154.167 0 0 1 11-10l1 1a7.292 7.292 0 0 1 2-3c1.43-.194 2.93-.194 4.5 0a21.714 21.714 0 0 0 6.5-4c5.652-2.181 10.152-.848 13.5 4Z" style="opacity:.028"/><path fill="#f0f0f0" d="M319.5 128.5c1.289 4.746.956 9.413-1 14 .498-4.652.831-9.319 1-14Z" style="opacity:.006"/><path fill="#9e0fc7" d="M145.5 177.5c6.36-3.864 11.193-9.197 14.5-16 1.391-7.488.224-14.488-3.5-21a458.315 458.315 0 0 1 23-1.5 69.872 69.872 0 0 0 14.5-3.5c2.261-.061 4.261.606 6 2 .667 3 .667 6 0 9l-5.5 7.5a180.275 180.275 0 0 1-41 24c-2.721.602-5.387.435-8-.5Z" style="opacity:.996"/><path fill="#9c8cf2" d="M29.5 131.5a299.615 299.615 0 0 0 25 25.5 31.868 31.868 0 0 0 13 7.5c-.92 2.589-2.586 4.589-5 6a166.768 166.768 0 0 1-24.5-24 83.665 83.665 0 0 1-8.5-15Z" style="opacity:.996"/><path fill="#9423e6" d="M240.5 184.5c8.212-1.274 12.046 2.059 11.5 10-2.969 7.66-8.469 11.16-16.5 10.5-3.546-3.452-4.713-7.618-3.5-12.5 2.157-3.476 4.99-6.143 8.5-8Z" style="opacity:.996"/><path fill="#e9eaea" d="M318.5 142.5c.233 7.51-1.433 14.51-5 21 4.639 13.255 3.973 26.255-2 39-1.882 3.123-4.215 5.789-7 8 1.357 1.686 2.69 3.352 4 5a28.53 28.53 0 0 1-9-4.5c7.919-4.679 12.753-11.512 14.5-20.5 1.044-9.194.544-18.194-1.5-27 2.038-7.1 4.038-14.1 6-21Z" style="opacity:.019"/><path fill="#0e0f16" d="M126.5 206.5c15.527-2.257 24.527 4.243 27 19.5-.766 9.196-5.433 15.529-14 19-11.32 2.679-19.487-1.154-24.5-11.5-3.789-12.407.044-21.407 11.5-27Z" style="opacity:.997"/><path fill="#c6b6fb" d="M44.5 222.5c-1.598 5.93-5.264 9.93-11 12-1.817-4.96-4.65-9.293-8.5-13-2.106-2.618-4.606-4.618-7.5-6-1.1-1.105-1.767-2.438-2-4 11.08-.649 20.746 3.018 29 11Z" style="opacity:.996"/><path fill="#ecedef" d="M44.5 222.5c-8.254-7.982-17.92-11.649-29-11-.543-.06-.876-.393-1-1 11.3-1.923 21.8.077 31.5 6 .748 2.34.248 4.34-1.5 6Z" style="opacity:.996"/><path fill="#f0f1f1" d="M485.5 355.5c5.072-13.409.739-18.576-13-15.5-18.334 7.952-37.001 8.618-56 2-13.096-5.088-23.93-13.254-32.5-24.5a788.929 788.929 0 0 1-27-46c-12.671-21.661-28.837-40.328-48.5-56 .65-.304 1.317-.637 2-1l11 7.5c21.829 21.524 39.329 46.024 52.5 73.5l14 22c2.77 2.101 4.77 4.768 6 8 22.958 20.327 49.125 23.493 78.5 9.5 6.107-.261 11.274 1.905 15.5 6.5 2.017 5.247 1.184 9.914-2.5 14Z" style="opacity:.014"/><path fill="#9910c2" d="M294.5 112.5a32.462 32.462 0 0 1 8 .5c8.559 7.629 11.392 17.129 8.5 28.5a81.738 81.738 0 0 1-7.5 24 44.11 44.11 0 0 1 3.5 7c2.333 10.65.166 20.15-6.5 28.5a140.98 140.98 0 0 1-16.5 10.5 91.88 91.88 0 0 0 2.5 10.5c-.744 6.748-4.411 11.082-11 13a317.376 317.376 0 0 1-34 9c-2.74 2.979-2.573 5.812.5 8.5 1.091 4.598-.743 7.431-5.5 8.5a72.464 72.464 0 0 1-17 0 231.381 231.381 0 0 0-25-7 42.34 42.34 0 0 0-15 .5c.227-6.562 3.727-9.229 10.5-8a87.22 87.22 0 0 1 27.5 6.5 52.76 52.76 0 0 0 19-1c1.016-.519 1.682-1.353 2-2.5a19.326 19.326 0 0 1-3-7c-.094-2.412.906-4.245 3-5.5a127.321 127.321 0 0 0 34-9c4.167-1.5 7-4.333 8.5-8.5l1-14c5.54-2.865 10.54-6.532 15-11 6.84-12.054 7.007-23.887.5-35.5a136.906 136.906 0 0 0 7.5-21.5c.152-6.336-.181-12.67-1-19-2.357-3.567-5.523-5.567-9.5-6Z" style="opacity:.996"/><path fill="#be31fc" d="M309.5 226.5c1.181 10.183 6.848 15.517 17 16 12.951 14.963 23.951 31.297 33 49a4.934 4.934 0 0 1-.5 3c-8.343 6.804-8.51 13.637-.5 20.5 2 .667 4 .667 6 0a87.255 87.255 0 0 0 6-5.5 129.777 129.777 0 0 0 21 27c.768 9.529 5.934 14.529 15.5 15a30.04 30.04 0 0 0 9.5-2c16.161 4.386 32.494 5.053 49 2 3.289 1.289 5.622 3.622 7 7a535.126 535.126 0 0 1-21 17.5c-22.68 10.759-46.347 13.426-71 8-9.507-2.831-18.341-6.998-26.5-12.5a169.576 169.576 0 0 0-12.5-32c5.418-5.916 8.084-12.916 8-21-.214-7.956-1.714-15.623-4.5-23-2.864-2.826-5.031-2.326-6.5 1.5 3.897 9.936 4.731 20.103 2.5 30.5-.368 1.41-1.201 2.41-2.5 3a66.784 66.784 0 0 1-6-7.5c-1.667-.667-3.333-.667-5 0a3.943 3.943 0 0 0-1 2 210.261 210.261 0 0 1 18.5 41.5 64.31 64.31 0 0 1 1 20c-1.613 2.277-3.78 3.777-6.5 4.5a289.106 289.106 0 0 1-34 0c-3.196-.396-6.03-1.562-8.5-3.5l-1-19a54.628 54.628 0 0 0-2-7 337.282 337.282 0 0 1-17-26c-5.448-11.174-4.115-21.508 4-31 7.823-8.155 16.99-14.322 27.5-18.5 4.136-3.168 3.969-5.668-.5-7.5-12.589 4.805-23.589 12.138-33 22-11.231 15.281-11.231 30.614 0 46 4.957 6.263 9.123 12.93 12.5 20a244.38 244.38 0 0 1-49 3 253.964 253.964 0 0 0 1.5-45c-.21-2.734-1.044-5.234-2.5-7.5-1.612-.72-3.112-.554-4.5.5a487.75 487.75 0 0 1 0 36c-.686 12.933-4.52 24.767-11.5 35.5l-4 2a342.33 342.33 0 0 1-37 0 15.83 15.83 0 0 1-5.5-3.5 30.485 30.485 0 0 1 0-11 125.905 125.905 0 0 0 11-28 66.025 66.025 0 0 0-1-21c-1.172-3.203-3.339-4.703-6.5-4.5-1.074.739-1.741 1.739-2 3 4.412 11.807 3.745 23.307-2 34.5-13.081-.96-23.914-6.627-32.5-17-3.672-6.318-8.006-11.984-13-17a6.293 6.293 0 0 0-3 1c-.706 2.471-.373 4.805 1 7 5.757 9.492 12.924 17.825 21.5 25-4.516 7.742-7.349 16.075-8.5 25-1.266 4.107-4.1 6.274-8.5 6.5a289.106 289.106 0 0 1-34 0c-2.07-.948-3.57-2.448-4.5-4.5-2.643-12-1.643-23.667 3-35a297.637 297.637 0 0 0 17.5-43 153.934 153.934 0 0 1 37 6.5c20.421 4.865 37.255-.635 50.5-16.5a411.125 411.125 0 0 0 18.5-29.5c6.69.926 13.357.592 20-1 7.778-3.273 11.778-9.106 12-17.5a726.267 726.267 0 0 0 34-12.5c6.343-5.68 9.176-12.847 8.5-21.5 5.827 2.485 10.994 5.819 15.5 10Z" style="opacity:.996"/><path fill="#eceded" d="M135.5 218.5c5.516-.027 6.849 2.14 4 6.5-4.705.106-6.038-2.061-4-6.5Z" style="opacity:.996"/><path fill="#9c8cee" d="M17.5 215.5c2.894 1.382 5.394 3.382 7.5 6 3.85 3.707 6.683 8.04 8.5 13-1.208 1.282-2.542 1.282-4 0-3.236-6.885-7.236-13.218-12-19Z" style="opacity:.996"/><path fill="#8f23df" d="M309.5 226.5a96.331 96.331 0 0 1 17 16c-10.152-.483-15.819-5.817-17-16Z" style="opacity:.996"/><path fill="#dda5f8" d="M22.5 242.5v3c4.01.358 8.01.858 12 1.5a972.71 972.71 0 0 0 33 12 124.356 124.356 0 0 0 24 1.5c1.122 1.552 1.622 3.218 1.5 5-4.314 4.573-9.48 7.739-15.5 9.5a16.242 16.242 0 0 1-8 0c-10.408-3.96-21.075-5.293-32-4-3.78 3.506-8.113 5.506-13 6-5.738-11.32-6.404-22.82-2-34.5Z" style="opacity:.996"/><path fill="#9424e6" d="M274.5 249.5c7.719-.63 9.719 2.37 6 9-2.872 1.283-5.705 1.283-8.5 0a16.2 16.2 0 0 1-1.5-3.5 32.924 32.924 0 0 1 4-5.5Z" style="opacity:.996"/><path fill="#9a10c3" d="M203.5 263.5a33.691 33.691 0 0 0 9 2c-6.042 14.226-14.708 26.726-26 37.5-3.295 2.434-6.962 4.101-11 5-16.403 1.266-32.403-.734-48-6-6.325-.5-12.658-.666-19-.5.111-.617.444-1.117 1-1.5 6.973-1.497 13.973-2.997 21-4.5a112.01 112.01 0 0 0 23.5 2c11.464 1.398 21.964-1.102 31.5-7.5a104.69 104.69 0 0 0 18.5-23.5c.47-1.077.303-2.077-.5-3Z" style="opacity:.996"/><path fill="#d9a1f3" d="M104.5 268.5c.584 11.167-1.416 21.833-6 32 1.545.952 3.212 1.285 5 1a203.668 203.668 0 0 0-23 7l-1-1c8.75-11.497 15.417-24.164 20-38 1.545-.952 3.212-1.285 5-1Z" style="opacity:.996"/><path fill="#e4e4e4" d="M71.5 316.5c-5.036.438-9.87-.228-14.5-2l-3.5-7 1-2a315.82 315.82 0 0 1-1.5-24c-2.56-2.849-5.726-3.683-9.5-2.5a140.089 140.089 0 0 1-12 7.5 24.77 24.77 0 0 1-8-1c1.7.16 3.366-.006 5-.5l12-7a45.527 45.527 0 0 1 15 .5c-.166 10.006 0 20.006.5 30a15.83 15.83 0 0 0 3.5 5.5 141.901 141.901 0 0 0 12 2.5Z" style="opacity:.016"/><path fill="#a82fed" d="M83.5 288.5a308.78 308.78 0 0 0-8 3v-4c-.24-1.967.094-3.801 1-5.5a137.834 137.834 0 0 0 9-2.5l2 1c-.996 2.951-2.33 5.617-4 8Z" style="opacity:.996"/><path fill="#bf6def" d="M83.5 288.5a40.59 40.59 0 0 1-7 10c-.968-2.107-1.302-4.441-1-7a308.78 308.78 0 0 1 8-3Z" style="opacity:.996"/><path fill="#63397d" d="M75.5 287.5v4c-.302 2.559.032 4.893 1 7-.06.543-.393.876-1 1-1.31-4.149-1.31-8.149 0-12Z" style="opacity:.996"/><path fill="#930fbb" d="m62.5 280.5 6 1c-1.659 8.089-1.326 16.089 1 24-1.494 3.575-3.66 3.909-6.5 1-.5-8.66-.666-17.327-.5-26Z" style="opacity:.996"/><path fill="#9223e3" d="M359.5 291.5c3.652 5.964 7.319 11.964 11 18a87.255 87.255 0 0 1-6 5.5c-2 .667-4 .667-6 0-8.01-6.863-7.843-13.696.5-20.5a4.934 4.934 0 0 0 .5-3Z" style="opacity:.996"/><path fill="#f2f3f3" d="M141.5 395.5c0 .667.333 1 1 1-2.454 1.121-5.121 1.954-8 2.5-13 .667-26 .667-39 0-4.52-.519-8.02-2.686-10.5-6.5-4.104-12.339-4.438-25.006-1-38a246.873 246.873 0 0 1 18.5-40.5 14.322 14.322 0 0 0-5.5-2.5c-8.185 4.338-16.685 6.005-25.5 5 11.35-2.338 22.684-4.672 34-7a345.236 345.236 0 0 1-16.5 40c-4.158 10.628-5.491 21.628-4 33 .076 7.995 3.91 13.162 11.5 15.5 11.333.667 22.667.667 34 0a48.054 48.054 0 0 0 11-2.5Z" style="opacity:.056"/><path fill="#8f23de" d="M391.5 336.5c7.513 6.049 15.846 10.383 25 13a30.04 30.04 0 0 1-9.5 2c-9.566-.471-14.732-5.471-15.5-15Z" style="opacity:.996"/><path fill="#8b22d8" d="M472.5 358.5c-1.378-3.378-3.711-5.711-7-7 4.184-2.841 8.851-4.507 14-5 .197 5.471-2.136 9.471-7 12Z" style="opacity:.996"/><path fill="#fefffe" d="M487.5 355.5c1.333.667 1.333.667 0 0Z" style="opacity:.004"/><path fill="#9424e6" d="M424.5 357.5c7.319-1.819 10.819.847 10.5 8-5.977 4.602-10.144 3.269-12.5-4 .252-1.573.918-2.906 2-4Z" style="opacity:.996"/><path fill="#e9eae9" d="M183.5 399.5c-17.239-1.407-22.906-10.24-17-26.5l-1-2.5a33.122 33.122 0 0 1-8.5-4 23.968 23.968 0 0 0-4.5 4.5c1.315 1.395.981 2.395-1 3 1.227 1.587.894 2.921-1 4l1 1a115.088 115.088 0 0 0-3.5 12.5l-1-1a22.981 22.981 0 0 0-2 5c-.671.752-1.504 1.086-2.5 1-.667 0-1-.333-1-1 2.324-2.638 4.157-5.638 5.5-9 1.413-6.4 3.08-12.734 5-19a81.316 81.316 0 0 1 2.5-3c.235-.597.735-.93 1.5-1a94.179 94.179 0 0 0 12.5 5l1 2c-6.847 15.693-2.18 25.36 14 29Z" style="opacity:.03"/><path fill="#edeeed" d="M485.5 355.5c.342.838 1.008 1.172 2 1-2.466 5.13-6.466 8.463-12 10 .17 1.322-.163 2.489-1 3.5a126.964 126.964 0 0 0-15 12 106.375 106.375 0 0 0-10 5.5c0-.667-.333-1-1-1a230.945 230.945 0 0 0 16-11.5 596.694 596.694 0 0 0 21-19.5Z" style="opacity:.01"/><path fill="#f1f2f1" d="M294.5 395.5c-.667 0-1 .333-1 1-2.765-1.496-4.599-3.83-5.5-7-.11-4.355-.943-8.522-2.5-12.5-8.988.04-17.988.207-27 .5a3704.157 3704.157 0 0 0 31-4c-.166 5.344.001 10.677.5 16a40.775 40.775 0 0 0 4.5 6Z" style="opacity:.022"/><path fill="#eeefee" d="M238.5 377.5c.763.768 1.763 1.268 3 1.5l-6 4 1 1c-2.132.918-2.799 2.251-2 4-2.525 5.192-6.359 9.025-11.5 11.5a810.462 810.462 0 0 1-31.5 0 689.767 689.767 0 0 0 30-2.5c3.062-1.061 5.562-2.894 7.5-5.5a66.256 66.256 0 0 0 6-13c1.011-.837 2.178-1.17 3.5-1Z" style="opacity:.011"/><path fill="#fefffe" d="M355.5 386.5c1.333.667 1.333.667 0 0Z" style="opacity:.004"/><path fill="#f2f2f2" d="M365.5 386.5c4.723.87 9.056 2.536 13 5-4.936-.309-9.269-1.976-13-5Z" style="opacity:.037"/><path fill="#dedfdf" d="M448.5 386.5c.667 0 1 .333 1 1-4.663 1.664-9.33 3.331-14 5-3.602-.708-7.269-.208-11 1.5a361.07 361.07 0 0 1-38 0 49.83 49.83 0 0 1-7-2.5c23.435 3.898 46.435 2.231 69-5Z" style="opacity:.013"/><path fill="#fefffe" d="M353.5 391.5c1.333.667 1.333.667 0 0ZM435.5 392.5c-.397 1.025-1.063 1.192-2 .5a2.428 2.428 0 0 1 2-.5Z" style="opacity:.004"/><path fill="#e8e9e9" d="M365.5 386.5c-3.591.058-6.758-.942-9.5-3a4.934 4.934 0 0 0-.5 3c-1.037 1.43-1.704 3.097-2 5-1.554 1.414-2.888 3.081-4 5a66.615 66.615 0 0 0-6 2.5c-13.84.827-27.506.661-41-.5a335.165 335.165 0 0 0 41-1.5c6.819-2.836 10.653-8.002 11.5-15.5a154.86 154.86 0 0 1 10.5 5Z" style="opacity:.013"/><path fill="#fefffe" d="M293.5 396.5h1c-.185.67-.519.67-1 0Z" style="opacity:.004"/><path fill="#f7f7f7" d="M294.5 396.5v-1c2.943.48 5.61 1.48 8 3-2.841-.06-5.507-.726-8-2Z" style="opacity:.018"/></svg>