<svg xmlns="http://www.w3.org/2000/svg" viewBox="0 0 1000 665.5"><path fill="#0c090b" d="M456.4 237.1c7.8 0 15.4-.2 23 0 20.6.7 40.8 3.6 60.8 8.3 17.5 4 34.8 8.9 51.4 15.8 24.9 10.3 46.2 25.6 63.6 46.3 11.5 13.7 19.2 29.4 24.8 46.2 3.2 9.6 5.7 19.5 8.7 29.2 1.9 6 3.9 12.1 6.3 17.9 6.1 14.7 16.1 26.2 30.2 33.8 12.3 6.7 25 12.3 38.8 15.3 10.7 2.4 21.3 2.2 31.7-1 6.4-2 12.7-4.2 19.1-6.3 1.4-.4 2.8-.9 4.2-1 2.2-.1 3.5 2.6 2.3 4.3-.7 1-1.7 1.9-2.7 2.7-6.2 4.7-12.2 9.7-18.7 14-12.5 8.3-26.3 12.6-41.2 14.3-12.6 1.4-25 .5-37.5-.9-7.6-.8-15.1-1.9-22.7-2.4-12.7-.9-25.4-.6-38 1.9-11.5 2.3-23.1 4.5-34.7 6.7-.3.1-.6.3-1.2.6-.7 3.7-1 7.6-1.2 11.6-.4 7.8-.7 15.6-1.2 23.4-.2 3.1-.6 6.1-1 9.2-.4 3.3-2.4 5.3-5.4 6.1-3.3.9-6.7 1.7-10.1 2.1-12.6 1.6-25.3 2.6-38 2.9-1.3 0-2.5-.1-3.8-.1-3.6-.2-6.2-1.9-7.2-5.5-.3-1.2-.8-2.3-1.5-4.3-.8 2.3-1.4 3.8-1.8 5.3-1.3 4.4-4.3 7-8.6 8.3-4.6 1.4-9.3 2-14 2.1-9.4.2-18.9.7-28.3-.6-1.8-.3-3.6-.6-5.3-1.1-3.6-.9-5.5-3.3-5.7-7-.1-1.6-.1-3.3-.1-4.9v-29.9c0-1.8-.1-3.6-.2-5.2-1.8-1.4-3.4-.7-5-.6-10.7.5-21.4 1.2-32.1 1.5-8.4.2-16.7-.7-24.8-2.9-.7-.2-1.4-.3-2.1-.4-.3 0-.6.2-1.2.4-.1 1-.3 2-.3 3.1 0 7.8.2 15.6.2 23.4 0 5.6-.3 11.2-.6 16.8 0 1.1-.3 2.1-.6 3.2-.7 2.4-2.2 4.2-4.8 4.7-3.9.7-7.8 1.7-11.8 1.8-11.1.5-22.1-.9-32.8-4-1.7-.5-3.4-1.2-5.1-1.9-3.3-1.5-5.1-4-5.2-7.6-.1-2.7-.1-5.4 0-8.2 0-7.4.1-14.9.1-22.3 0-.8-.2-1.7-.5-3.5-.8 1.4-1.2 1.9-1.3 2.5-1.8 9.1-3.6 18.1-5.5 27.2-.7 3.2-1.9 6.2-3 9.3-1.2 3.5-3.9 5.1-7.5 5.3h-1.1c-11.3 0-22.5-1-33.3-4.3-9.1-2.8-9.1-4.8-9.1-12.4 0-6.7-.5-13.4-.4-20.1.2-15.4.6-30.8 1-46.2.3-12.2.7-24.3 1-36.5 0-.3-.2-.6-.4-1.3-3.8-.2-7.8.2-11.7.6-6.1.7-12.2 1.7-18.4 1-6.6-.7-12.8-2.5-18.5-5.9-8.1-4.8-16.1-9.9-24.1-14.7-4.2-2.5-8.4-5-12.7-7.3-4.1-2.2-8.6-2.8-13.2-1.9-1.1.2-2.2.3-3.2.4-5.2.4-9.2-1.6-11.8-6.1s-4.2-9.3-4.3-14.5c-.5-15.2 2.3-29.6 10.9-42.5.2-.3.3-.7.4-.9-.7-5.6-1.6-11.2-2.1-16.8-1.4-16.6 2.4-32 11.7-46 1.1-1.6 2.4-3.2 3.9-4.5 1.7-1.5 4.1-.8 4.9 1.3.5 1.3.6 2.8.8 4.2.7 4.8 1.1 9.7 2 14.5 1.1 5.9 3.7 11.3 7.2 16.7.9-.7 1.8-1.2 2.4-1.9 4-4.3 8.6-7.8 13.9-10.3 6.7-3.2 13.5-6.1 20.4-9 3.2-1.4 6.4-2.4 9.6-3.8 2-.8 3.8-1.9 6-3-.6-3-1.1-5.8-1.6-8.6-2-11.5-.4-22.8 2.8-33.9 1.9-6.7 4.5-13 8.5-18.7 1.1-1.6 2.4-3.2 4-4.4 2.7-2.2 5.9-.8 6.4 2.6.2 1.4.1 2.9.2 4.3.3 6.9 1.6 13.7 4.2 20.1 1.7 4.1 3.9 7.8 7.3 11.1.9-.9 1.8-1.7 2.5-2.7 3.6-5.6 7.2-11.3 10.7-17 2.7-4.3 5.3-8.7 8-13 8.4-13.3 18.7-24.9 30.9-34.9 12.4-10.2 25.5-19.1 40.1-26 5.9-2.8 12-5.1 18.3-6.7 1.9-.5 3.9-1 5.9-1.2 5-.7 7.3 2.1 5.6 6.8-1 2.7-2.3 5.4-3.1 8.1-.9 3.1-1.7 6.3-2.1 9.5-1 7.8 1.6 14.3 7.7 19.3 6.7 5.6 14.6 8.7 23.1 10.2 2.1.4 4.3.7 6.4 1.1 1.1.2 2.1.5 3.1 1 2.5 1.3 3.2 3.6 1.6 5.9-.9 1.3-2.1 2.5-3.2 3.7-2.1 2.5-4.4 4.9-6.3 7.5-3.1 4.4-4.8 9.3-4.7 14.8-.7 2.3-.5 4.3 1 6.4z"/><path fill="#8673b3" d="M625.3 475.7v-4.1c.2-5.6.3-11.2.5-16.9 0-1.3 0-2.6-.5-3.7-.4-.9-1.5-1.6-2.4-2-1-.4-2.6.8-2.9 2-.2.7-.3 1.4-.3 2.1.2 8.7-.7 17.4-1.3 26.1-.6 8.3-1.1 16.7-1.6 25-.4 6.2-.7 12.3-1.1 18.5-.1 1.1-.1 2.2-.5 3.2-.3.7-1.2 1.3-2 1.5-.4.1-1.3-.6-1.6-1.1-1.6-3.2-4.1-5.5-7.3-7.1-5.2-2.5-9.8-1.9-14.1 1.9-.9.8-1.8 1.7-2.9 2.8-3.8-3.5-8.1-5.5-13.4-4.8-5.4.6-8.5 4.3-11.7 8.7-.5-1-.9-1.6-1-2.2-1.1-7.2-2.4-14.3-3-21.5-.8-10.5-3-20.8-5.1-31.1-.7-3.7-1.4-7.5-2.1-11.2-.2-1.1-.3-2.2-.8-3.1-.4-.7-1.3-1.2-2.1-1.4-1.2-.2-2.2.5-2.4 1.7-.3 1.4-.4 2.9-.2 4.3.6 4.3 1.5 8.6 2.2 12.9.2 1.4.3 2.8.5 4.4-1.3.4-2.3.8-3.3 1-13.9 2.7-27.9 4.9-42 6.1-18.4 1.5-36.9 3.4-55.4 2.5-5.6-.3-11.2-1.2-16.7-2-2.1-.3-4.1-1.3-6.2-2-2.8-.8-4.7.3-4.8 3.3-.2 4.7-.3 9.4-.3 14.1 0 8.9.2 17.8.1 26.7 0 2.5-.5 5-1 7.5-.1.5-.8.9-1.6 1.8-.8-1.7-1.4-3-2-4.3-1.6-3.4-4-6.1-7.3-7.8-3.9-2-7.7-1.9-11.3.8-.8.6-1.6 1.3-2.5 2-5.9-6.6-10.7-10.4-22.8-4.3-.7-1.6-.4-3.2-.4-4.7 0-1.6.1-3.3.1-4.9 0-1.8.1-3.6 0-5.4 0-1.6-.1-3.3-.2-4.9V491.4c0-1.6-.1-3.3-.1-4.9V471.4c-12.6-7.9-23.8-17-31.7-30.1 1.2 0 2.1-.2 2.8 0 5.4 1.6 11 2.2 16.7 2.1 16.3-.1 32.7-.1 49-.3 3.1 0 6.2-.3 9.2-.8 4.2-.7 6-2.8 6.1-7 0-1.6-.2-3.3-.2-4.9 0-9.6 4.2-16.7 12.9-21 4.3-2.1 8.8-3.3 13.4-4.2 1.9-.4 3.9-.8 5.8-1.5 3.1-1.2 4-3.6 2.7-6.6-.6-1.3-1.5-2.5-2.2-3.8-2.2-3.8-4.3-7.6-5.5-11.8-4.4-15.9 4-31.7 19.8-36.7 1.9-.6 3.9-1 5.7-1.7 3.4-1.4 4.1-3.9 2.2-7-.9-1.4-2-2.6-3-3.9-4.3-5.7-7.9-11.8-9.3-18.9-2.9-15.2.4-28.4 12.6-38.7 1.7-1.4 3.4-2.7 5.1-4 1-.8 2-1.6 2.8-2.6 1.6-1.9 1.3-4.2-.8-5.7-1.3-.9-2.8-1.6-4.3-2.4-5.5-2.8-10.8-5.9-15.4-10.1-1.9-1.8-4.1-3.4-5.4-6.3 1.8-.9 3.4-.6 4.9-.6 11.3.2 22.5.9 33.7 2 27.4 2.7 54 9.1 80 17.9 20.3 6.9 38.8 17.2 55 31.3 14.9 12.9 26.8 27.9 34.8 46.1 6 13.5 9.9 27.6 13.8 41.8 2 7.2 4.3 14.2 7.2 21.1 2.6 6.2 6 12 10.1 17.4 5.5 7.3 12.2 13.4 20.1 18.1 13.1 7.6 26.8 13.7 41.5 17.3 11.5 2.8 23 3 34.4-.1 1.2-.3 2.4-.5 3.7-.7.6 1.8-.9 2-1.6 2.5-10.6 7.1-22.2 11.4-34.8 13.2-11.4 1.7-22.8 1.6-34.2.3-9.9-1.1-19.8-2.1-29.8-3.1-11.3-1-22.5-.8-33.6 1.1-12.3 2.1-24.6 4.6-36.9 6.9-.4-.2-1.2-.3-2.5-.3z" style="fill:#b872fd"/><path fill="#8673b3" d="M199.7 338.1c2.7 6.3 7.6 7.3 12.5 7.8 2.5.2 5.1-.2 7.5-.8 7-1.6 12.6-5.5 17.1-10.9 2.2-2.7 3.7-5.8 4.4-9.2.8-4 .2-7.5-2.9-10.4-2.8-2.6-5.4-5.3-7.6-8.8.7-1.1 1.2-2.2 2-3.1 2.9-3.3 6.3-6.1 10.1-8.1 4.2-2.2 8.4-4.3 12.7-6.2 8.1-3.6 16.3-7 24.7-10.5.1 0 .5 0 .8.2 15.2 10.3 35.8 3.6 41.9-13.7.5-1.5.6-3.2.9-4.8.6-3.1-.8-5.1-3.5-6.6-1.9-1-3.5-2.4-5.5-3.8.6-1 1-1.8 1.4-2.5l13.5-20.4c4.8-7.3 9.2-14.8 14.4-21.8 9-12.3 20.4-22.1 32.7-31 11.5-8.4 23.6-15.7 36.9-20.6 2.5-.9 5.2-1.7 7.8-2.5 1-.3 2-.3 3.7-.5-.5 1.9-.8 3.2-1.3 4.5-1.9 5.3-3.3 10.7-3.2 16.5.2 7.1 2.6 13.1 7.5 18.1 7.3 7.3 16.2 11.4 26.2 13.6 1.8.4 3.6.7 5.3 1.1.3.1.6.3 1.2.6-.5.7-.9 1.5-1.4 2.1-2.1 2.7-4.4 5.3-6.3 8.2-3.8 6-5.4 12.6-4.4 19.8.8 6 3.8 10.9 7.7 15.3 4.7 5.4 10.4 9.6 16.6 13 1.5.8 3 1.8 5 2.9-1.5 1.4-2.6 2.6-3.8 3.5-16.6 12.5-21.9 37.7-10.5 58 1.4 2.5 3.1 4.9 4.7 7.3.6.9 1 1.8 1.7 3-1.8.7-3.2 1.3-4.7 1.9-11.9 4.9-19.7 13.4-22.5 26.1-1.8 8.3-.6 16.2 3 23.8 1.3 2.8 2.8 5.4 4.1 8-.6 1.6-1.9 1.3-2.8 1.6s-1.8.5-2.6.7c-4.4 1-8.8 2.3-12.8 4.5-7.8 4.1-12.9 10.4-14.9 19.1-.5 2.1-.6 4.3-.7 6.5-.1 2 0 4 0 5.6-1.5 1.5-3 1.4-4.4 1.4-4 .1-8 .1-12 .1-10.9.1-21.8.2-32.7.2-4.9 0-9.8 0-14.7-.2-2.5-.1-5.1-.5-7.5-1.2-9.4-2.5-17.5-7.6-26.3-13 1.2-.6 1.8-1 2.4-1 5.8-.6 11.5-1.5 17.1-3.1 1.2-.3 2.4-.7 3.6-1.3s1.8-2.1 1.4-3.2c-.4-1.2-1.6-2.1-2.9-2.1-.9 0-1.8.2-2.7.5-5.6 1.5-11.3 2.6-17.1 3.1-2.3.2-4.7.6-7 .6-9.5-.2-18.8.7-28.2 1.9-9.2 1.2-18.1-.2-26.2-5-6.9-4.1-13.7-8.2-20.5-12.3-4.5-2.7-9-5.5-13.5-8.2-.4-.3-.8-.7-1.4-1.1 2-1.5 4.2-1.3 6.3-1 5.4.7 10.8 1.5 16.1 2.4 5.6.9 11.1 2.1 16.6 2.6 12.2 1.2 23.8-1.4 35.1-5.8 13.8-5.4 26.4-12.9 38.4-21.5 1-.7 2-1.6 2.8-2.6.7-.9.8-2 .1-3s-1.8-1.5-2.8-1.1c-1.5.6-2.9 1.5-4.3 2.3-6.5 4-12.7 8.4-19.4 12.1-8.5 4.9-17.5 8.8-27 11.4-9.6 2.6-19.3 3-29.1 1.2-5.2-.9-10.3-2-15.5-2.9-9.8-1.8-19.5-1.8-29.1 1.1-2.6.8-5.3 1.4-7.9 1.9-4.6.9-6.8-.1-8.7-4.5-1.1-2.6-1.9-5.5-2.4-8.3-.9-4.9-.6-9.8.3-14.6 1-5.7 2.6-11.3 4.1-16.9.3-1.8 1.2-3.4 2.4-6z" style="fill:#b872fd"/><path fill="#8673b3" d="M360.9 472.6c0 8.4-7.3 49-10.6 58.4-.6-.6-1.1-1.1-1.4-1.6-5-7.3-12.2-8.7-19.7-3.9-.4.3-1 .5-1.4.7-6.3-6.5-6.3-6.5-18-7-.1-1.9-.4-3.9-.4-5.8 0-13.6-.1-27.2.2-40.8.4-14.9 1.1-29.7.8-44.6 0-.9.1-1.7.2-2.6 4.1 1.7 10.8 5.8 13.3 8.5 3.3 3.6 6.8 7.1 9.6 11.1 7.1 10 15.4 18.8 25.4 25.9.6.4 1.1.9 1.6 1.4.3-.1.4.1.4.3zM521 527c-7.3-6.8-15-6.6-23-1.3-.3-.5-.8-.9-.8-1.3-.2-9.4-.3-18.8-.4-28.3 0-.5.2-1 .4-1.8 1-.2 2-.5 3.1-.6 16.4-1.7 32.6-4 48.9-7.1 1.4 3.3 1.4 6.6 2 9.8.3 1.4.1 2.9.4 4.3 2.3 10.8-1.4 20.8-4.2 30.8-.5 1.7-1.2 3.5-3.8 3.7-.6-1.3-1.3-2.8-2-4.2-1.9-3.7-4.7-6.3-8.8-7.6-3.5-1.1-6.8-.6-9.8 1.6-.5.7-1.1 1.3-2 2z" style="fill:#b872fd"/><path fill="#f9fafa" d="M211.1 273.8c2.8 19.8 6.3 26.5 24.2 46.7.5 3.6-.8 6.8-2.9 9.5-4.5 5.6-10.3 9.1-17.4 10.1-.9.1-1.8.2-2.7.1-5.2-.7-6.5-.6-7.7-6.5-2.2-10.3-3.6-20.7-2.9-31.3.6-9.4 3.2-18.2 7.7-26.4.3-.5.8-1 1.7-2.2zM292.8 215.2c1.2 19.6 9.3 33.9 25.2 43.7-.7 5.2-3.2 9.4-7 12.6-6.4 5.4-13.8 6.8-21.9 4.9-2.4-.6-4.2-1.9-4.7-4.6-.6-3.4-1.6-6.7-2-10.1-1.4-13.2.7-26 5.6-38.3 1.1-2.5 2.2-5 4.8-8.2zM498.3 536c.6-2.8 2.2-4.8 4.5-6.4 2.4-1.6 5-1.9 7.8-1.6 4.6.5 6.7 3.3 7.3 9.6-7.3 1-14.5.4-19.6-1.6zM389.2 539.1c-5.9-.6-11.4-1.7-16.6-4.2 2.2-4.9 5.4-6.8 9.6-6 1.8.3 3.4 1 4.6 2.5 1.8 2.1 2.5 4.5 2.4 7.7zM323.6 535.1c-5.1-.7-9.6-1.8-13.7-3.9-.1-.7-.3-1.2-.3-1.7-.1-.9 0-1.8 0-2.7 2.5-2 5.3-2.5 8.2-1.6 2.7.9 4.3 3.6 5.8 9.9zM584.5 531.1c-5.8.8-10.9 1.4-16.1 1-1-1.7 0-2.9.8-4 1.1-1.5 2.5-2.7 4.3-3.1 2-.4 3.9-.3 5.8.5 2.3 1.1 3.8 2.8 5.2 5.6zM344.1 536.7c-1 .1-2.1.3-3.2.2-3.4-.1-6.8-.3-10.2-.5.2-4.9 2.5-7.7 6-7.7 2 0 3.9.5 5.5 1.9 1.5 1.3 1.8 2.3 1.9 6.1zM537.3 537.4c-4.6.5-8.7 1-13.2.2.5-1.9.8-3.7 1.3-5.4 1-2.8 3.3-3.9 6.1-2.8 3.3 1.4 5.1 3.9 5.8 8zM396.4 539.9c.1-2.6 1.4-4.3 2.7-6s3.3-2.2 5.3-1.4c3.1 1.4 5.1 3.7 5.5 7.4-4.6.8-9 .5-13.5 0zM591.7 530.8c0-2.5 1.3-4 2.7-5.3.9-.8 2.1-1.4 3.3-1.6 3-.6 5.9 1.4 8 5.2-4.5 1.3-9.2 1.2-14 1.7z"/><g fill="#812da2"><path d="M522.8 280.1c-4.1-.5-8.2-.9-12.3-1.6-4.3-.8-8.2-2.9-11.7-5.5-.7-.5-1.3-1.2-1.8-2-3.3-5.1-1.7-9.9 4-12 3.6-1.3 7.3-2.1 11.1-2.1 3.3-.1 6.5.5 9.7.8 4.2.4 8.2 1.5 12.2 2.4 3.6.8 6.7 2.6 9.2 5.4 2.5 2.9 2.5 6.6-.4 9.1-1.3 1.2-2.9 2.2-4.6 2.8-4.9 1.8-10 2.9-15.4 2.7zM591.7 301.9c0-3.3 1.3-5.1 4.6-5.6 1.7-.3 3.8-.5 5.3.1 4.8 2 9.7 3.9 13.3 8 3.7 4.3 2.3 9.4-3.1 10.9-.8.2-1.8.4-2.7.3-5.7-.7-10.8-2.9-14.9-6.9-2-1.9-2.5-3.8-2.5-6.8zM645 326.6c-2.7-.3-6-2.2-9-4.4-2.4-1.8-4.4-4.2-6.1-6.9-1.1-1.7-1.3-3.4-1.1-5.2.3-3 3.1-4.9 5.9-3.8 3.9 1.5 7.8 2.8 11.1 5.5 2.3 1.8 4.3 3.8 5.6 6.5 2.2 4.5-.1 8.3-6.4 8.3zM656.7 339.6c2.5-.2 4.8.7 6.7 2.6 3.1 3 5 6.6 4.7 11.1-.3 3.9-3.8 6.8-7.5 5.8-4.3-1.2-7.8-3.7-10.1-7.6-1.3-2.4-1.3-4.9-.8-7.4.6-2.6 3.7-4.4 7-4.5zM677.8 384.4c.4 3.1-.2 5.8-2.8 7.7-1.3.9-2.6 1.1-4.1.7-5.1-1.6-9.7-11.2-7.6-16.2.9-2.2 2.2-4.2 5-4.3 3.1-.1 5.7.6 7.4 3.4 1.6 2.7 2.6 5.5 2.1 8.7zM566.4 288.4c-3.2.6-6-.7-8.7-2.3-1-.6-2-1.6-2.7-2.6-1.5-2.1-1.2-4.6.9-6.2.8-.7 1.8-1.3 2.8-1.5 4.9-.8 9.7-.8 14 2.2 2.3 1.6 3.3 3.7 2.5 6s-2.5 4-5 4.4c-1.2.2-2.5 0-3.8 0zM629.3 332c-2.7 0-5.6-2.8-5.6-5.5 0-2.3 3.1-4.7 5.4-4 1 .3 2 .8 2.9 1.4 1.9 1.3 2.7 3.4 2 5.1-.7 1.8-2.6 3-4.7 3zM588.5 282.5c0-1.8.7-3.1 1.9-3.6 1.5-.5 2.9-.3 4 .8.5.5 1.1 1 1.5 1.5 1.2 1.4 1.4 2.7.5 3.9-1.3 1.8-2.8 2.4-4.6 1.7-2.4-.9-3.3-2-3.3-4.3zM490.7 254.7c.2 0-.4 0-.9-.1-1.9-.3-2.7-1.7-1.9-3.5 1.1-2.4 2.1-3.1 4.5-3 2.3.1 3.5 1.2 3.5 3.2s-1.2 3.1-3.4 3.3c-.4.1-.7.1-1.8.1zM542.6 292.8c-1.7-.1-3.5-1.4-4-3-.4-1.4.3-2.4 1.3-3.3.8-.8 1.7-1.2 2.9-.6 1.2.5 2 1.4 2.6 2.6 1.1 2.2-.3 4.4-2.8 4.3zM581.6 293c1.5.1 2.6 1.7 2.5 3.5-.2 1.9-1.7 3.1-3.7 2.9-1.5-.2-2.7-1.4-2.7-2.8.1-1.9 2.2-3.8 3.9-3.6zM648.3 335.8c0 1.5-1.5 2.7-2.9 2.5-1.2-.2-2.3-1.3-2.3-2.6 0-1.5 1.4-2.7 2.9-2.5 1.3.2 2.3 1.4 2.3 2.6zM573.9 269.2c-.2 1.3-1.9 2.1-3.5 1.7-1-.2-1.6-1.2-1.5-2.5.2-1.5 1.4-2.6 2.4-2.3 1.5.3 2.8 1.9 2.6 3.1zM614.8 294.9c-1.5.1-2.3-.8-2.3-2.2 0-1.5.8-2.6 2-2.7 1.1-.1 2.1.9 2.3 2.4.1 1.4-.6 2.4-2 2.5z"/></g><path fill="#0c090b" d="M339.5 253.4c.1-9.7 2.5-18.7 8.2-26.7.8-1.2 1.7-2.4 2.8-3.3 2-1.8 4.7-1.1 5.8 1.4a15 15 0 0 1 1.1 3.6c2.9 12.5 10.3 21.8 20.6 29 2.2 1.6 4.7 2.8 7.2 3.9 4.2 1.9 5.9 5.1 5.8 9.5-.3 11.1-5 19.5-15.4 24.2-4.5 2.1-9.2 3.5-14.1 3.8-4.1.2-7.4-1-9.6-4.8-6.9-12.2-11.5-25-12.4-39-.1-.6 0-1.2 0-1.6z"/><path fill="#070404" d="M318.4 340.2c-12-.3-21.4-9-21.5-21.3-.1-11.2 8.4-21.1 21.4-21.4 11.2-.3 21.3 9.6 21.3 21-.1 12.1-9 21.1-21.2 21.7z"/><path fill="#812da2" d="M429.3 389.8c.1 1.6-1 3-2.2 3-1 0-2.2-.1-3.1-.5-8.3-3.7-16.7-6.9-24.8-11.1-9-4.7-17.7-10-25.9-15.9-4.5-3.3-8.9-6.8-12.6-11.1-1-1.1-2-2.1-2-3.7 0-1.2.4-2.2 1.4-2.7s1.8 0 2.4.6c2.8 2.6 5.5 5.2 8.5 7.6 7.8 6.2 16.3 11.5 24.9 16.4 2.7 1.5 5.3 3.2 8.1 4.5 7.1 3.3 14.2 6.3 21.3 9.5 1.1.5 2.2 1.1 3.2 1.9.4.4.6 1.2.8 1.5zM447.2 211c-.7 1.1-1 2.3-1.7 2.9-1 .7-2.2 1.3-3.4 1.5-8.4 1.3-15.9 4.9-23.4 8.4-10.8 5.1-21.4 10.6-32.1 16-2.7 1.4-5.3 3.1-8.1 4.5-1.1.5-2.4.6-3.6.5-1.6-.2-2.2-2.2-1-3.3.8-.8 1.6-1.4 2.5-2 5.9-3.5 11.7-7.2 17.8-10.4 12.1-6.5 24.6-12.2 37.5-17.1 3.7-1.4 7.5-2.6 11.5-2.8.7 0 1.5-.1 2.1.2.6.2 1.2.9 1.9 1.6zM455.4 334c-7.8-1.3-15.6-2.9-23.4-4-11.6-1.7-23-4.2-34.5-6.7-1.4-.3-2.8-.7-4.2-1.2s-2.1-1.6-1.9-2.9c.2-1.4 1.6-2.4 3.2-2.3.5 0 1.1.2 1.6.3 8.7 1.7 17.3 3.5 26 5 11.2 2 22.4 3.7 33.6 5.5.4.1.7.1 1.1.2 1.6.6 3 2.3 2.9 3.6-.2 1.5-2.3 2.7-4.4 2.5zM352.7 379c.5.4 1.7.7 2.2 1.5 1.4 2.6 3.3 4.7 5.1 7 4 5.2 8.6 9.7 13.8 13.8 3.1 2.4 5.9 5.3 9 7.8 4.7 3.8 9.9 6.7 15.4 9 1 .4 2 .9 2.8 1.6 1.2.9 1.4 2.3.8 3.4s-1.9 1.7-3.2 1.5c-.7-.1-1.4-.4-2.1-.7-9.2-4-17.5-9.3-24.9-16.2-2-1.9-4.1-3.5-6.1-5.3-1.2-1.1-2.5-2.1-3.5-3.4-2.9-3.5-5.8-6.9-8.5-10.6-1.4-1.9-2.4-4-3.4-6.1-.6-1.4.7-3.1 2.6-3.3zM406.2 275.4c-.4-.1-1.1-.3-1.7-.6-1.4-.7-1.5-2.9-.1-3.6 1.6-.8 3.3-1.6 5-2 6.3-1.3 12.7-2.5 19.1-3.6 4.8-.8 9.6-1.6 14.4-2 4.7-.4 9.4-.2 14.1-.2.5 0 1.2.2 1.5.5.5.6 1.2 1.5 1.2 2.2s-.7 1.6-1.3 2.2c-.3.3-1 .4-1.5.4-5.2.4-10.4.7-15.6 1.2-3.8.3-7.5.8-11.2 1.4-7.3 1.3-14.6 1.9-21.8 3.9-.6.2-1.2.2-2.1.2z"/><path fill="#070404" d="M241.9 353.1c0-2.5 1.2-4.5 2.9-6.2 1.4-1.3 3.1-2.4 4.8-3.4 2.8-1.5 5.2-.4 7.5 1.4 1 .8 1.3 2.1 1.1 3.4-.7 4.1-5.5 9.2-9.5 10.2-1.7.4-3.2.2-4.6-.7-1.8-1.1-2.3-2.8-2.2-4.7z"/><path fill="#f9fafa" d="M357.9 293c-.7-1.1-1.3-1.9-1.7-2.6-5-9.7-8.8-19.9-10.2-30.7-1.3-9.6-.1-18.8 5.2-27.2 1.3.4 1.4 1.6 1.7 2.4 5.2 14.8 15.4 25.1 29.3 31.9.8.4 1.5.9 2.3 1.4.6 3.6.2 6.9-.8 10.3-.8 2.6-2.1 5.1-4.2 6.9-6.1 5-13 8.2-21.6 7.6zM327.5 313.1c-.1 5.9-5.1 10.5-11 10.3-5.8-.2-10.4-5.2-10.2-11.1.2-5.5 5.1-10.1 10.7-10 5.9 0 10.6 4.8 10.5 10.8zM330.4 327.8c-.2 2.1-2 3.5-4.1 3.3-2-.2-3.7-2.1-3.5-4 .2-2.1 2.5-3.9 4.5-3.6s3.3 2.2 3.1 4.3z"/></svg>