<svg xmlns="http://www.w3.org/2000/svg" width="500" height="385" fill="none"><path fill="#0E090D" d="M179.9 374.6c-2.5 1.7-5 3.5-7.6 5.1-.9.6-2.1.9-3.3 1.1-1.7.2-3-1.7-2.4-3.3.4-1.1 1.1-2.1 1.7-3.1 1.3-2 2.7-3.8 4-5.8 3.2-5.1 5.6-10.6 6.9-16.5-.8-.9-1.6-.5-2.4-.1-3.9 1.8-7 4.8-9.7 8.1-.8 1-1.6 2.1-2.6 3-.6.6-1.5 1-2.4.6-1.1-.5-1.9-1.5-1.8-2.7.1-.7.3-1.4.5-2.1 1.6-5.6 4.5-10.4 8.4-14.8 2.3-2.6 4.8-5.1 7.2-7.7 5.4-5.7 8.5-12.5 10.3-20.2-3-1.4-6.2-1.8-9.3-2.2-2.1-.3-3.6 1-4.9 2.4-4.3 4.8-8.1 10-10.5 16.1-1 2.6-1.9 5.2-2.8 7.8-2.3 6.4-5.6 12.2-10.1 17.3-3.5 4-7.7 7.2-12.5 9.6-1.2.6-2.4 1-3.7 1.3-1.3.3-2.6.2-3.5-1.1-.9-1.3-.6-2.6.1-3.7 1.1-1.7 4.6-8.2 4.8-8.4-1-.4-9.8 5.1-14 6.5-1.2.4-2.6.7-3.8.7-1.8 0-2.9-1.8-2.2-3.4.4-.9 1.1-1.7 1.8-2.4 1.4-1.3 2.8-2.5 4.3-3.8 4.2-3.8 7.7-8 10.5-13 .8-1.4 1.4-2.9 2.2-4.7-2.5-.4-4.6-.4-6.7.2-2.8.8-5.6 1.7-8.4 2.6-1.1.3-2.2.7-3.4.8-1.7.1-2.9-1.9-2.2-3.4.4-.8.9-1.5 1.4-2.2 5.5-6.4 12-11.1 20.5-12.8.3-.1.6-.2.9-.2 6.7-.6 11.7-4.3 15.9-9.3 2.1-2.6 4.2-5.2 6.5-8-1.1-.7-1.9-1.2-2.8-1.7-10.1-5.3-20.2-10.8-29.6-17.3-5.9-4.1-11.5-8.6-16.6-13.8-3.2-3.2-6.3-6.5-9.7-9.6-8.1-7.5-14.7-16.3-20.8-25.5-10.4-15.7-17.6-32.7-22.8-50.7-3.9-13.7-7.6-27.4-11.5-41.1-2.6-9.1-6.6-17-12-23.5-4.1-.4-8.3-.8-12.5-1.2-.7-.1-1.5-.1-2.2-.1-3.5.1-5.7-1.4-6.8-4.9-1.9-5.7-4.1-11.3-6.1-16.9-.8-2.1-1.5-4.1-2.3-6.2-.3-1-.7-1.9-1-2.9-.8-3.2 1-5.2 4.3-4.6 4 .7 8 1.7 12 2.5 4.2.8 8.3 1.6 12.5 2.4 1.3.3 2.6.5 3.9.7 2.4.5 3.9 1.9 4.2 4.4.3 2.6.6 5.2.8 7.9.2 2.2.4 4.4.6 6.5 1.3 1.1 2.3 2.1 3.5 2.9 5.2 4 9.3 8.9 12.4 14.7 2.6 4.8 5.1 9.6 7.5 14.4 6.1 12.2 11.9 24.5 18.1 36.6 7.3 14.1 17.7 25.4 30.8 34.4 5.7 3.9 11.9 7 18.6 8.8 3.6.9 7.2 1.6 10.9.3 2.4-2.4 4-5.3 5-8.6 1.3-4.2 2-8.5 2.5-12.9 1-9.7-1.4-18.6-5.8-27.1-3.2-6.1-7.1-11.8-11.4-17.2-17.1-21.1-37.4-38.4-61.7-50.9-3.4-1.7-6.8-3.5-10-5.5-1.7-1-3.4-2.3-4.8-3.8-2.3-2.5-2.2-5.4 0-7.9 1.6-1.8 3.6-3 5.7-4 4.3-2 8.8-3.3 13.3-4.5 9.9-2.4 20-3 30.1-3.4 6.5-.2 12.9.1 19.3 1.1 8.3 1.3 16.3 3.8 24 7.1 8.8 3.8 17.3 8 25.6 12.7 1.1.7 2.3 1.3 3.6 2 .4-.8.8-1.4.9-2.1 1.6-7.8 2.6-15.6 2.4-23.6-.3-11.6-1.8-23.1-5.8-34.1-1.7-4.7-3.8-9.2-5.7-13.8-1.4-3.4-2.8-6.8-4.1-10.2-.5-1.2-.8-2.5-.9-3.8-.4-4.4 1.5-7 5.9-7.7 2.1-.3 4.4-.4 6.6-.2 6.4.5 12.3 2.6 18.1 5.2 14.8 6.9 27 17 36.5 30.3C238 47.3 244 59 248.8 71.3c3.3 8.5 6.4 17 9.7 25.5 1.9 4.9 4.2 9.7 7 14.2 6.2 10 15.1 16.1 26.7 18.9.7-.6 1.5-1.2 2.3-1.9 4.4-4.2 7.8-9.1 10.7-14.5 4.9-9.2 5.5-19 3.1-29-1.1-4.4-2.7-8.7-4.8-12.7-3.7-7.2-8-14-13.1-20.3-2.5-3.1-5-6.2-7.4-9.3-1.7-2.2-3.3-4.5-4.8-6.8-1.6-2.5-2.8-5.2-3.4-8.1-1.1-5.3.9-10 5.5-12.8 2.8-1.7 5.9-2.4 9.2-2.6 5-.2 9.9.6 14.8 1.7 31.9 7.6 59.4 23.2 82.5 46.3 8.8 8.8 16.4 18.8 23.9 28.7l10.2 13.8c4.4 6.1 9.3 11.7 14.4 17.2 5.5 6 11.8 11 19.1 14.6 4.7 2.4 9.4 4.7 14.1 7.1 10.3 5.4 18.8 12.9 25.4 22.6 1.9 2.8 3.4 5.8 4.4 9.1 1.9 6.3.2 15.2-8.1 20-4.2 2.4-8.7 3.6-13.4 3.7-6 .1-12 .1-18-.1-2.6-.1-4.9.2-7.3 1.1-3.1 1.2-6.3 2.3-9.5 3.4-10.7 3.6-21.8 4.7-33 4.2-9.6-.4-19-1.8-28-5.1-4.4-1.6-8.6-3.6-12.9-5.6-4.3-2-8.6-3.8-13.3-4.4-7.1-.9-13.7.4-19.9 3.9-3.1 1.7-5.6 4.3-7.6 7.2-2.3 3.4-4 7.2-5.3 11.1-2.6 7.5-4.2 15.2-5.4 23.1-.7 4.8-1.2 9.6-.8 14.5.2 2.8-.3 5.6-.9 8.3-1.8 8.6-4 17.1-8.5 24.8-5.6 9.6-13.1 17.3-22.5 23.1-11 6.8-22.9 11.1-35.6 13.3-12.4 2.1-24.8 1.9-37.3 1.5h-2.9c-.3.8-.8 1.6-1.1 2.6-3.6 9.5-5.3 19.5-6.6 29.5-.5 4-1.5 8.1-2.7 12-2.2 7.2-6.5 13.1-12.5 17.7-1 .8-2.2 1.5-3.4 1.8-2.1.6-3.9-1.1-3.3-3.3.5-1.8 1.4-3.5 2.2-5.3.1-.7 0-1.3-.8-1.4Z"/><path fill="#B763E3" d="M129.8 349.8c1.7-2.5 3.5-5 5.1-7.6 1.1-1.9 2-3.9 2.7-6 1-3.2-.2-5.2-3.4-5.8-1.9-.3-3.8-.3-5.7-.2-1.3 0-2.6.3-4.6.6.9-.9 1.3-1.4 1.7-1.8 2.4-1.7 5.2-2.7 8-3.4 1.3-.3 2.6-.7 3.9-.9 6.3-.9 11.3-4.1 15.3-8.8 3.2-3.8 6.2-7.8 9.1-11.9 1.9-2.6 1.4-3.9-1.6-5.5-4.2-2.2-8.4-4.3-12.5-6.5-7-3.7-13.8-7.8-20.3-12.3-5.6-3.8-10.8-8.1-15.5-12.9-3.3-3.3-6.5-6.8-10-9.9-7.9-7.3-14.2-15.9-20.1-24.9-9.6-14.6-16.5-30.4-21.3-47.1-3.9-13.7-7.7-27.4-11.5-41.1-2.6-9.4-6.7-18.1-12.8-25.8-1.6-2-3.2-3.2-5.8-3.3-4-.2-7.9-.7-11.8-1.1-1-.1-2-.3-3.3-.5-2.9-8.1-6.1-16-8.7-24.2.6-.2.8-.4 1.1-.4.6 0 1.2.1 1.7.2 7.7 1.6 15.4 3.3 23.5 5 .3 2.4.7 4.8 1.1 7.3.1.6.1 1.2.1 1.8.6 7.2.6 7.3 6.1 11.8 4.8 4 8.7 8.8 11.5 14.3 4.2 8.2 8.3 16.5 12.4 24.8 4.2 8.4 8.2 16.9 12.6 25.2C85 194.2 96.4 206.6 111 216c5.2 3.3 10.7 6.1 16.7 7.7 2.1.6 4.3 1 6.5 1.3 4 .5 7.9-.3 11.4-2.5 9.5-3.4 19-7 28.4-10.6 23.4-9 45.4-20.6 66.9-33.3 2.7-1.6 6-2.4 8.2-4.9 1.9-1.2 3.7-2.3 5.6-3.5.8-.6 1.7-1.2 2.4-1.9.8-.8.9-1.9.3-2.8-.7-1-2-1.3-3.1-.7-1 .6-1.9 1.3-2.9 1.9-6 3.9-12.7 6-19.8 6.5-9.3.7-17.4-2.4-24.1-8.7-3.4-3.2-6.4-6.9-9.3-10.5-2.7-3.3-5.2-6.7-7.6-10.2-13.4-18.9-30.8-33.3-50.9-44.4-10-5.6-20.4-10.3-31.5-13.3-9-2.5-18.1-3.7-27.4-3.5h-6.1c4.2-1.5 7.9-1.9 11.5-2.4 8.7-1.1 17.5-1.3 26.3-1.1 9.3.2 18.4 1.9 27 5.2 16.5 6.3 32.1 14.2 46.4 24.8.3 1.5-1 1.5-1.8 2-1.4.8-2.5 1.9-1.3 3.5 1.3 1.6 2.8 1.2 4-.2.6-.7.9-1.5 1.8-1.8.4-.1.9-.4 1.1-.3 1.2.9 2.3 1.8 3.4 2.7 5.5 4.9 10.8 9.9 16.5 14.6 10.9 9 22.9 15.8 36.6 19.6 4.5 1.3 9.1 2.4 13.9 2.1 2.3-.1 4.7-.4 6.9-1 17.2-5 30.8-14.7 40.5-29.8 7.6-11.8 9.2-24.5 5.7-37.9-1.1-4.3-2.7-8.3-4.7-12.3-4-7.9-8.8-15.2-14.3-22.1-2.9-3.7-5.9-7.3-8.7-11.1-1.6-2.1-3-4.4-4.1-6.7-3.3-7.1-.7-11.7 7-12.8 4.1-.6 8.2-.2 12.2.7 23.4 5.1 44.7 14.7 64 29 11 8.2 20.8 17.6 29.6 28.1 8.2 9.8 15.7 20.2 23.2 30.4 4.6 6.3 9.7 12.1 15 17.9 5.8 6.3 12.5 11.6 20.2 15.4 4.7 2.4 9.4 4.7 14.1 7.1 9.7 5 17.6 12 23.8 21.1 1.8 2.7 3.3 5.5 3.9 8.8 1 5.2-1 10-5.4 12.9-2.5 1.6-5.3 2.6-8.2 3-5.7.8-11.4 1-17.1.7-12.2-.8-24.1-3.1-35.8-6.8-2.4-.8-4.7-1.7-7-2.7-2.2-.9-4.3-.7-6.3.4-2.2 1.2-4.3 2.4-6.6 3.8-.9-2-.8-3.9-.9-5.7-.1-1.8 0-3.5-.2-5.3-.3-2.7-2.7-3.7-4.8-1.9-1.7 1.4-3.1 3.1-4.7 4.7-1.4 1.4-2.9 2.8-4.9 4.4-.3-1.3-.5-1.9-.6-2.6-.3-2.9-.6-5.8-.9-8.8-.1-.9-.2-1.8-.5-2.6-.8-2-2.7-2.8-4.6-1.7-1.4.8-2.7 1.8-3.9 2.8-2.6 2.1-5.3 4.2-7.7 6.1-1.3-.3-1.2-1.1-1.2-1.8.1-3.5.3-7 .4-10.5.1-2 0-4.1-.1-6.2-.1-1.3-.8-2.2-2.1-2.6-3.9-1.2-7.9-2.4-11.8-3.5-.7-.2-1.5-.3-2.1 0-.6.2-1.2.8-1.5 1.4-.4.9-.1 1.8.7 2.3.7.4 1.6.7 2.4 1 3.1.9 6.2 1.8 9.2 2.7.9 1.7.4 3.3.4 4.9-.1 3.8-.4 7.6-.4 11.4 0 1.6.3 3.2.8 4.7.8 2.2 2.8 3 5 2 1.2-.6 2.3-1.3 3.4-2.1 2.1-1.6 4.2-3.3 6.3-4.9.7-.5 1.4-.9 2-1.3 1.1.5.9 1.3 1 2 .3 2.6.6 5.2 1 7.8.1 1 .4 2 .9 2.9 1 2.3 3.2 3 5.5 1.6 1.1-.7 2.1-1.6 3.1-2.5 1.5-1.3 3-2.7 4.4-4 1.2.5.9 1.3 1 2 .2 1.9.1 3.8.5 5.7.7 3.7 2.8 4.6 6 2.8 1.4-.8 2.7-1.7 4.1-2.6 1.1-.7 2.3-1.3 3.4-2s2.2-.7 3.4-.3c.3.1.5.2.8.3 7 3.1 14.5 4.6 21.9 6.4.5.1 1 .3 1.5.5.1 1.3-.8 1.2-1.4 1.4-10.8 3.8-22 4.8-33.4 4.4-12.6-.5-24.7-3.2-36-8.9-4.6-2.3-9.2-4.6-14.3-5.6-9.3-1.8-18.1-.6-26.3 4.2-4.4 2.6-7.6 6.3-10.2 10.7-2.7 4.7-4.5 9.8-6.1 15.1-.7 2.4-1.4 4.8-2 7.2-.5.2-.9.4-1.3.4-8.9-1-17.5.6-26.1 2.8-11.8 3.1-23.1 7.5-33.9 13.3-18.7 10.1-35.6 22.7-50.8 37.5-4.8 4.7-9.2 9.9-13.1 15.4-2.1 3-4.3 6-6.5 8.9-2.7 3.5-5.8 6.5-9.8 8.7-1.7 1-3.3 2.4-4.6 4-5.3 6-9.5 12.7-12 20.3-.6 1.9-1.3 3.9-2 5.8-2.4 6.4-6.1 12-11.1 16.7-.8.8-1.8 1.3-2.7 2-.8-1-.1-1.6.2-2.2 1.3-2.6 2.8-5.2 4-7.8.6-1.2.9-2.5 1.2-3.8.2-1.2-.1-2.4-1.3-3-1-.6-2-.4-2.9.1-.4.2-.7.5-1.1.8-3.4 2.8-6.8 5.5-10.1 8.3-.8-.7-.9-1.2-.8-1.8Z"/><path fill="#D598F5" d="M249.1 173.4c-.2 1.1-.9 1.7-1.8 2.3-4 2.4-8 4.9-12 7.3-13 7.7-26.6 14.1-40.1 21-5.9 3-12 5.3-18.2 7.7-4 1.5-8 2.9-11.8 4.7-5.2 2.4-10.8 3.8-16.1 5.7-1.1.4-2.3.2-3.5.2 4.8-5.9 6.3-13 7.6-20.3 2.1-12.1-.6-23.3-6.2-33.9-3.5-6.6-7.8-12.8-12.5-18.5-17.4-21.2-38-38.6-62.5-51.1-3-1.5-6-3.1-8.9-4.8-1.2-.7-2.7-1.2-3.5-3 .8-.4 1.5-.8 2.2-1 8.6-2.2 17.4-2.7 26.2-2.2 11.1.6 21.7 3.4 31.9 7.6 15.7 6.5 30.1 15.2 43.2 26 8 6.6 14.9 14.1 21.1 22.3 3.4 4.6 6.7 9.2 10.3 13.7 2.8 3.5 5.8 7.1 9 10.2 6.5 6.4 14.4 10 23.5 10.7 6 .4 11.7-.8 17.3-2.7 1.5-.7 3.1-1.3 4.8-1.9ZM181.4 309.5c5.9-5.9 9.8-12.2 14.4-18.1 5.2-6.7 11.2-12.8 17.7-18.3 11-9.5 22.6-18.2 35.2-25.5 15.2-8.9 31.3-15.3 48.6-18.4 5-.9 10.1-1.4 15.5-.2-.4 3-.8 5.9-1.2 8.7-.7 3.9-.8 7.9-.6 11.8.2 3.7-.3 7.3-1.1 10.9-1.8 7.6-4 15-8.1 21.7-5 8.1-11.6 14.7-19.7 19.8C271 308.8 259 313.1 246 315c-12.8 1.9-25.7 2-38.6.6-3.9-.4-7.8-1.4-11.6-2.3-4.6-1.2-9.1-2.5-14.4-3.8Z"/><path fill="#B763E3" d="M288.3 133.7c-1.5 1.2-2.5 2-3.6 2.7-5.7 3.8-11.9 6.4-18.3 8.3-5.9 1.8-11.9 1.2-17.8-.4-10.5-2.7-20.1-7.4-28.9-13.6-5.1-3.6-10-7.6-14.7-11.9-7.2-6.5-14.3-13-22.3-18.4-.8-2.9-.2-5.6.3-8.3 4.1-23.3 1.3-45.8-8.3-67.4-1.7-3.9-3.4-7.8-5-11.7-.6-1.3-.9-2.8-1.2-4.2-.1-.5 0-1.1 0-1.6.9-1.2 2-1.5 3.2-1.5 3.6-.2 7 .4 10.4 1.3 4.8 1.3 9.4 3.2 13.8 5.5 14.6 7.7 26 18.8 34.8 32.8 6.5 10.4 11.6 21.4 15.8 32.8 2.6 7 5.2 14 7.9 20.9 1.9 4.9 4.3 9.6 7 14.1 5.7 9.3 13.6 16 24.1 19.4.8.4 1.4.7 2.8 1.2ZM191.2 317.3c4.1.7 7.8 1.7 11.8 2.8-.5 1.7-.8 3.1-1.3 4.4-2.9 8.2-4.4 16.7-5.5 25.3-.6 4.5-1.6 8.9-2.7 13.3-.7 2.8-1.9 5.5-4.5 8.4.5-2.4.9-4 1.2-5.5.2-1 .5-2 .4-3-.1-1.2-.6-2.3-1.9-2.7-1.1-.4-2.1-.1-2.9.6-.9.8-1.6 1.7-2.4 2.6-1.4 1.6-2.9 3.2-4.4 4.9-.8-1.3.1-1.9.4-2.7 1.3-3.6 2.8-7.1 4-10.7.5-1.6.7-3.5.6-5.2-.1-2.3-1.8-3.8-4.1-3.7-1.3.1-2.6.5-3.8.8-1.1.3-2.1.8-3.9 1.5.7-1.1.8-1.6 1.2-1.9 1.7-1.8 3.4-3.7 5.1-5.4 5.8-5.7 9.5-12.5 11.6-20.4.3-1 .7-2.1 1.1-3.4Z"/><path fill="#612D7B" d="M188.4 112.1c-.4.9-.6 1.9-1.1 2.8-.7 1.3-2 1.8-3.3 1.5-1.6-.3-3.1-1.8-3.1-3.2 0-1.4.6-2.5 1.8-3.3.9-.6 2.4 0 3.1-1.3.6.5 1.2.9 1.7 1.4.4.7.2 1.6.9 2.2v-.1Z"/><path fill="#B763E3" d="M188.4 112.3c-1-.4-.9-1.3-.9-2.2.3.4.8.8 1 1.2.1.3-.1.6-.1 1Z"/><path fill="#0D0A0A" d="M382.4 85.4c7.7.3 14.4 6.1 14.3 14.8-.1 8.3-6.5 14.3-14.7 14.3-8 0-14.4-6.8-14.3-14.7.2-7.8 6.2-14.3 14.7-14.4Z"/><path fill="#612D7B" d="M350.5 64c0 4.6-2.3 7-6.5 7-.9 0-1.8 0-2.6-.3-6-2.4-10.5-6.2-12.5-12.6-.8-2.7-.2-5 1.7-6.9 1.8-1.8 4.1-2.7 6.8-1.7 6.2 2.1 10.5 6.3 12.7 12.4.3.8.3 1.7.4 2.1ZM228.6 166.9c-2.6.2-5.1-.5-7.5-1.8-1.9-1-3.3-2.4-3.9-4.5-.8-2.6-.3-5.5 1.9-7.1 1.4-1 3-2.1 4.6-2.3 4.1-.7 8.2-.6 12 1.1 3.7 1.7 5.3 5.7 3.7 9.5-.4.9-1 1.8-1.8 2.4-2.5 2-5.6 2.9-9 2.7ZM320.5 35.9v.7c.1 4.6-3.2 6-6.5 5.8-5-.3-9.7-2-13.9-4.9-1.7-1.2-3.1-2.6-3.9-4.6-.6-1.5-.4-2.9.6-4.1 1.7-2.1 4-3 6.6-2.6 4.9.8 9.6 2.5 14.1 4.7 2.2 1 3.4 2.7 3 5ZM371.9 74.3c-.3 0-1.2 0-2-.3-6.1-2.5-10.3-7-12.9-13-1.1-2.6.4-5.5 3-6.3 1-.3 2.4-.4 3.4-.1 1.5.5 3 1.3 4.2 2.3 3.4 2.8 6.2 6.1 8.2 10.1.3.5.5 1 .7 1.6 1.3 3.4-.3 5.7-4.6 5.7ZM420.7 133.5c-.8-.2-1.7-.3-2.5-.8-4.6-2.6-8.1-6.3-9.8-11.4-.3-.8-.5-1.7-.4-2.6.4-4.1 3.9-6.1 7.7-4.2 1.7.8 3.4 1.9 4.6 3.3 2.2 2.3 4.2 4.9 6 7.5 1.3 1.8 1 3.5-.5 5.2-1.3 1.5-2.6 3.3-5.1 3Z"/><path fill="#0E090D" d="M460.5 154.4c2.5.3 5.1 1.6 7.5 3.3 1.1.7 2.1 1.6 2.9 2.6 1.6 2.2.4 4.8-2.3 5.1-1 .1-2 0-3-.3-3.2-.8-5.8-2.7-7.8-5.3-.2-.2-.4-.5-.5-.7-.5-1.1-.9-2.2-.2-3.3.5-.9 1.5-1.4 3.4-1.4Z"/><path fill="#612D7B" d="M440.3 147.7c-3.8-.1-6.3-1.8-8.1-4.8-.8-1.3-.4-2.6.3-3.7.8-1.3 2-2.3 3.6-2 3.6.5 6.3 2.4 8.1 5.5 1 1.7-.1 3.9-2 4.7-.6.1-1.4.2-1.9.3ZM185.1 126.3c.1-.3.1-.7.3-1.1.5-.9 1-1.8 1.7-2.5 3.2-3.3 6.4-3 9.2.6 1 1.2 1.2 3 .2 4-1.3 1.3-2.7 2.7-4.4 3.5-2.8 1.6-6.8-1.1-7-4.5ZM151.1 101.7c-.5-.2-1.8-.5-2.9-1.2-2.1-1.3-2.6-3.7-1.5-5.7 1.3-2.4 3.5-3.4 5.8-2.4.8.3 1.5.8 2.2 1.4 1.6 1.2 2.3 3 1.8 4.6-.6 1.6-2.7 3.2-5.4 3.3ZM339.1 44.5c-3.1.3-4.8-.9-5.8-3-.7-1.5.5-4.1 2.1-4.7 3-1.1 6.5 1.1 6.9 4.3.1 1.3-1 2.9-2.4 3.3-.6.1-1.2.1-.8.1ZM357 81.5c2.1 0 3.8 1.9 3.7 4-.1 1.9-1.9 3.7-3.7 3.7-2.2-.1-4.7-2.1-4.6-3.9.1-2.1 2.1-3.8 4.6-3.8ZM174.3 108.4c0 2-1.8 3.6-4 3.7-1.9.1-4-2-3.8-3.9.1-2 2.1-3.7 4.1-3.8 2 0 3.8 1.8 3.7 4ZM209.1 150.3c-.1 2.2-2.3 3.7-4.4 3.1-1.6-.5-3-1.3-3.2-3.2-.2-1.6.3-2.9 1.6-3.8.9-.7 1.9-.8 2.9-.5 1.7.4 3.2 2.8 3.1 4.4ZM316.6 53.8c1.9.2 3.4 1 4.2 2.8.8 1.7.1 3.6-1.6 4.4-1.7.7-3.1 0-4.5-.9-1.2-.8-1.6-2.1-1.4-3.5.2-1.6 1.7-2.9 3.3-2.8ZM411.9 142.3c-2.3-.1-4.1-1.7-4.1-3.7 0-1.9 1.9-3.6 3.7-3.4 2.1.2 3.9 2.2 3.9 4 0 1.9-1.5 3.2-3.5 3.1ZM216.3 139.9c.1 1.5-1.9 3.6-3.6 3.8-1.7.2-3.7-1.5-3.9-3.3-.2-1.6 1.6-3.6 3.5-3.8 1.8-.2 3.9 1.6 4 3.3ZM161.3 101.7c2-.1 3.9 1.5 3.9 3.2 0 1.7-1.9 3.6-3.6 3.7-1.4 0-3.5-1.7-3.7-3.2-.3-1.8 1.4-3.7 3.4-3.7ZM178.6 116.6c1.9 0 3.4 1.4 3.4 3.2 0 2-2.1 3.9-4 3.8-1.6-.1-2.9-1.5-3-3.1-.1-2.5 1.2-3.9 3.6-3.9ZM141.5 89.3c.1 1.7-1.5 3.4-3.2 3.5-1.9.1-3.7-1.7-3.6-3.6.1-1.7 1.7-3.3 3.4-3.3 1.8.1 3.4 1.7 3.4 3.4ZM200.9 139.6c-2 0-3.2-1.3-3-3.4.1-1.7 1.4-3.1 3.1-3.1 1.8-.1 3.3 1.4 3.3 3.4-.1 1.9-1.3 3.1-3.4 3.1ZM220.8 41c.1 4.8-3.7 7.6-7.9 6.3-4.9-1.5-8.9-6.4-9.3-11.6-.3-2.9 2.1-5.8 5-6.2 2.8-.4 5.2.6 7.2 2.5 2.2 2.1 3.8 4.8 4.9 7.7.1.5.1 1.1.1 1.3ZM257.8 131.8c-.1-2 .4-3.8 2.3-4.8 2.1-1.1 4.2-1 6.2.2 2.8 1.7 4.2 4.4 4.4 7.6.3 3.9-3.4 6.6-7.1 5.4-3-1.1-6.1-4.5-5.8-8.4ZM234.7 76.2c-1.7.1-3-.8-3.9-2.2-1.4-1.9-2.4-4-1.2-6.5 1.4-2.6 4.3-3.3 6.6-1.6 2 1.4 3.2 5.1 2.4 7.5-.6 2.1-1.6 2.9-3.9 2.8ZM183.9 17.9c-1-.5-2.8-1.2-4.4-2.1-1.6-1-2-2.8-1.5-4.2.8-1.9 3-3.4 4.8-2.9 1.5.4 3 1.1 4.4 1.9 1.8 1.1 2.4 2.7 1.9 4.5-.4 1.5-2.5 2.9-5.2 2.8ZM255.4 114.4c0 3.1-1.7 5-4.3 4.9-2.8 0-4.7-2.1-4.8-5.1-.1-2.7 1.6-4.6 4.1-4.6 3 0 5 2 5 4.8ZM241.7 106.2c-.4-.1-1.3-.2-2.1-.5-1.9-.7-3-2.9-2.4-4.6.7-2 2.8-3.3 4.8-2.8 2.5.6 4.1 3.2 3.5 5.7-.4 1.5-1.5 2.2-3.8 2.2ZM248.3 93.5c-.1 1.8-1.3 3-3.1 3-1.7 0-3.1-.7-4.3-1.8-1.1-1.1-1.4-2.8-.8-4 .8-1.5 2.4-2.3 4-2.1 2.2.3 4.2 2.7 4.2 4.9ZM195.5 17.6c2 .1 3.5 1.8 3.4 3.8-.1 2-1.5 3.1-3.6 2.9-1.8-.2-3.4-1.8-3.3-3.4.2-1.8 1.9-3.4 3.5-3.3ZM231.4 50.9c.1 1.9-1.7 3.8-3.5 3.7-1.6-.1-3.2-1.7-3.3-3.5 0-1.8 1.4-3.3 3.3-3.3s3.4 1.3 3.5 3.1ZM222.4 61.1c.1 1.6-1.7 3.3-3.4 3.4-1.7.1-3.3-1.6-3.3-3.4 0-1.8 1.5-3.3 3.3-3.4 1.7 0 3.3 1.6 3.4 3.4Z"/><path fill="#F8F8F8" d="M387.7 95c0 3.5-3 6.5-6.4 6.5-3.5-.1-6.3-3-6.3-6.6 0-3.3 2.8-6.1 6.1-6.2 3.5-.1 6.6 2.8 6.6 6.3Z"/><path fill="#EEF1F1" d="M377.8 107.4c.1-1.4 1.5-2.6 3-2.5 1.4.1 2.8 1.5 2.7 2.9 0 1.6-1.7 3-3.3 2.7-1.4-.3-2.6-1.8-2.4-3.1Z"/></svg>