<svg xmlns="http://www.w3.org/2000/svg" viewBox="0 0 24 24"><linearGradient id="a" x1="0" x2="24" y1="12" y2="12" gradientUnits="userSpaceOnUse"><stop offset="0" stop-color="#da22ff"/><stop offset="1" stop-color="#9733ee"/></linearGradient><circle cx="12" cy="12" r="12" fill="url(#a)" style="fill:#9ea5ff"/><path fill="#fff" d="M12 21c-2.4 0-4.7-.9-6.4-2.6S3 14.4 3 12s.9-4.7 2.6-6.4S9.6 3 12 3s4.7.9 6.4 2.6S21 9.6 21 12s-.9 4.7-2.6 6.4-4 2.6-6.4 2.6zm0-16.4c-2 0-3.8.7-5.2 2.1S4.6 10 4.6 12s.7 3.8 2.1 5.2 3.3 2.1 5.2 2.1 3.8-.7 5.2-2.1 2.1-3.3 2.1-5.2-.7-3.8-2.1-5.2C15.8 5.4 14 4.6 12 4.6z" style="fill:#564f87"/><path fill="#fff" d="M6.3 12.8c-.5 0-.8-.3-.8-.8 0-1.7.7-3.4 1.9-4.7 1.3-1.2 2.9-1.9 4.7-1.9.5 0 .8.3.8.8s-.4.9-.9.9c-1.3 0-2.5.5-3.4 1.5S7.1 10.7 7.1 12c0 .5-.3.8-.8.8z" style="fill:#564f87"/></svg>