<svg xmlns="http://www.w3.org/2000/svg" viewBox="0 0 511.999 511.999"><circle cx="363.27" cy="48.395" r="40.894" fill="#ffe177" style="fill:#9290fe"/><path fill="#ffd15b" d="M363.27 7.5c-4.681 0-9.173.797-13.361 2.245 16.022 5.538 27.533 20.745 27.533 38.65s-11.512 33.112-27.533 38.65a40.805 40.805 0 0 0 13.361 2.245c22.585 0 40.894-18.309 40.894-40.894S385.855 7.5 363.27 7.5z" style="fill:#5d5cb7"/><circle cx="255.142" cy="108.817" r="40.894" fill="#ffd15b" style="fill:#5d5cb7"/><circle cx="201.425" cy="216.55" r="36.007" fill="#ffe177" style="fill:#9290fe"/><circle cx="165.417" cy="326.092" r="36.007" fill="#ffd15b" style="fill:#5d5cb7"/><circle cx="93.39" cy="402.21" r="28.599" fill="#ffe177" style="fill:#9290fe"/><path fill="#0ed2b3" d="M249.74 111.178s43.83-75.766 142.912-60.834c70.911 10.686 95.47 58.05 99.945 83.109 4.766 26.691 1.842 47.224-6.923 66.163-8.901 19.232-27.738 28.432-55.255 32.416-24.433 3.538-36.746 31.642-28.58 57.16s58.514 160.253-79.45 186.792H34.041c-9.397 0-17.014-7.618-17.014-17.014a16.995 16.995 0 0 1 9.289-15.159c28.99-14.744 117.262-62.355 140.757-106.645 37.767-71.192 15.3-106.564 82.667-225.988z" style="fill:#b969f7"/><path fill="#0ab69f" d="M485.679 199.62c-8.91 19.23-27.74 28.43-55.26 32.41-24.43 3.54-36.75 31.64-28.58 57.16 7.12 22.23 46.24 127.35-35.01 171.61 34.56-32.64 7.91-105.8-10.1-171.61-7.08-25.84 4.15-53.62 28.58-57.16 27.52-3.98 46.35-13.18 55.25-32.41 8.77-18.94 11.69-39.48 6.93-66.17-4.48-25.06-29.04-72.42-99.95-83.11-.78-.12-1.55-.21-2.33-.32 14.13-2.11 29.92-2.32 47.44.32 70.91 10.69 95.47 58.05 99.95 83.11 4.76 26.69 1.84 47.23-6.92 66.17z" style="fill:#9648d5"/><path fill="#0ed2b3" d="m322.389 475.985 99.424 27.753c10.049 2.805 20.611-2.337 24.6-11.978l25.888-58.891c5.688-12.939-4.101-27.377-18.227-26.881l-17.849.626-55.498-30.999c-25.02-14.841-59.151 5.069-58.339 34.237v66.133z" style="fill:#b969f7"/><path fill="#0ab69f" d="m472.299 432.87-25.89 58.89c-3.98 9.64-14.55 14.78-24.6 11.98l-23.74-6.63c1.31-1.57 2.41-3.37 3.23-5.35l20.853-45.708c5.69-12.94 2.014-25.642-13.849-32.217l-68.844-36.075c11.85-8.08 27.87-10.1 41.27-2.15l55.5 31 17.85-.62c14.12-.5 23.91 13.94 18.22 26.88z" style="fill:#9648d5"/><path fill="#cb97e7" d="m361.482 315.969-8.982-.867 1.858 15.441c.361 2.998-2.2 5.533-5.194 5.142l-15.254-1.992.813 9.355c.374 4.303-4.829 6.727-7.883 3.673l-48.656-48.656 17.749-17.749c11.458-11.458 30.036-11.458 41.494 0l27.773 27.773c3.069 3.071.603 8.297-3.718 7.88z"/><path fill="#bd80e1" d="m365.199 308.09-27.773-27.773c-9.697-9.697-24.492-11.185-35.757-4.469a29.396 29.396 0 0 1 5.737 4.469l27.773 27.773c4.28 4.35.794 11.542-1.803 13.702l-17.667 13.798 11.131 11.131c3.054 3.054 8.257.63 7.883-3.673l-.813-9.355 15.254 1.992c2.994.391 5.555-2.144 5.194-5.142l-1.858-15.441 8.982.867c4.321.417 6.787-4.809 3.717-7.879z"/><path d="M372.894 316.537c2.212-4.688 1.273-10.085-2.392-13.75l-27.773-27.773c-6.958-6.958-16.21-10.791-26.051-10.791s-19.093 3.832-26.051 10.791l-17.748 17.749a7.5 7.5 0 0 0 0 10.606l48.656 48.656c2.345 2.344 5.404 3.574 8.533 3.574 1.737 0 3.496-.379 5.165-1.157 4.674-2.178 7.405-6.905 6.959-12.042l-.005-.062 6.004.784c3.739.488 7.423-.753 10.104-3.407s3.959-6.324 3.508-10.067l-.744-6.188c5.046.365 9.666-2.325 11.835-6.923zm-19.673-8.9a7.488 7.488 0 0 0-6.086 2.225 7.497 7.497 0 0 0-2.081 6.136l1.416 11.771-11.59-1.513a7.5 7.5 0 0 0-8.442 8.086l.13 1.501-37.777-37.778 12.445-12.445c4.125-4.125 9.609-6.397 15.443-6.397s11.318 2.271 15.443 6.397l22.115 22.115zM381.514 157.211a7.5 7.5 0 0 0 7.5-7.5v-4.387h4.387c4.143 0 7.5-3.358 7.5-7.5s-3.357-7.5-7.5-7.5h-4.387v-4.386c0-4.142-3.357-7.5-7.5-7.5s-7.5 3.358-7.5 7.5v4.386h-4.386c-4.143 0-7.5 3.358-7.5 7.5s3.357 7.5 7.5 7.5h4.386v4.387a7.5 7.5 0 0 0 7.5 7.5z"/><path d="M501.727 169.56c6.584-60.575-31.191-107.715-90.115-123.01C410.64 20.718 389.335 0 363.269 0c-26.74-.084-49.509 22.777-48.354 50.139a145.197 145.197 0 0 0-33.768 17.867 48.535 48.535 0 0 0-26.008-7.586c-26.683 0-48.391 21.712-48.391 48.4a48.237 48.237 0 0 0 16.637 36.505c-19.784 41.146-27.866 70.962-33.828 97.16a28.468 28.468 0 0 1-16.639-25.935c0-9.174 4.459-17.845 11.928-23.195a7.5 7.5 0 0 0-8.736-12.194c-11.391 8.161-18.191 21.39-18.191 35.39 0 18.486 11.541 34.584 28.343 40.8-2.082 9.491-4.101 18.546-6.591 27.639a43.492 43.492 0 0 0-14.252-2.409c-23.991 0-43.51 19.519-43.51 43.51 0 13.684 6.433 26.357 16.978 34.482-5.877 5.671-12.435 11.284-19.386 16.75-6.731-7.046-16.156-11.212-26.112-11.212-19.906 0-36.101 16.194-36.101 36.1 0 5.077 1.039 9.985 3.034 14.514-15.758 9.174-29.395 16.329-37.404 20.401a24.486 24.486 0 0 0-9.791 9.046 24.556 24.556 0 0 0-3.599 12.798c0 13.515 10.995 24.51 24.51 24.51h287.308l98.45 27.481a28.052 28.052 0 0 0 7.553 1.038c11.101 0 21.504-6.616 25.96-17.291l25.857-58.821c.052-.119.094-.241.145-.361l.036-.09c3.491-8.344 2.568-17.747-2.522-25.255-5.182-7.643-13.783-11.999-23.015-11.689l-15.757.553-53.589-29.933c-13.949-8.229-31.742-7.966-46.465.693-14.928 8.779-23.566 23.827-23.109 40.255a7.488 7.488 0 0 0 7.706 7.289 7.5 7.5 0 0 0 7.288-7.706c-.303-10.882 5.573-20.941 15.719-26.908 10.195-5.996 21.895-6.247 31.297-.67l.169.097 55.498 30.999a7.576 7.576 0 0 0 3.92.948l17.849-.626c4.086-.151 7.771 1.721 10.073 5.116 1.561 2.303 2.213 4.93 1.97 7.554l-27.181 3.965a7.5 7.5 0 1 0 2.164 14.842l18.623-2.716-20.44 46.497-.063.15c-2.537 6.129-9.271 9.404-15.653 7.622l-99.174-27.683a8.552 8.552 0 0 0-2.268-.351H34.039c-8.271-.359-14.315-11.913-4.32-17.984 38.432-19.926 118.451-63.654 143.977-109.811 14.537-27.029 21.576-53.278 27.658-82.127 7.784-35.521 16.607-75.783 54.878-143.622 33.355-51.068 94.242-67.669 146.395-55.121 84.317 20.197 85.676 84.515 84.564 104.147-19.649 7.628-36.349 4.688-50.948-8.933a7.5 7.5 0 0 0-10.6.368 7.5 7.5 0 0 0 .367 10.6c12.265 11.443 25.927 17.174 40.842 17.174 5.716 0 11.62-.864 17.695-2.548a92.493 92.493 0 0 1-5.672 15.845c-7.205 15.55-22.48 24.229-49.531 28.141-31.298 4.361-44.873 41.934-33.493 70.405 3.925 11.914 12.092 36.706 13.812 64.044a7.5 7.5 0 1 0 14.971-.943c-1.841-29.26-10.415-55.287-14.535-67.795-7.272-19.732-2.705-45.822 21.395-50.867 32.173-4.653 51.554-16.308 60.995-36.685 4.469-9.473 8.051-22.006 9.238-33.207zM73.378 408.935a21.104 21.104 0 0 1-1.089-6.725c0-11.634 9.466-21.1 21.101-21.1 5.219 0 10.19 1.956 13.998 5.329-11.168 8.068-22.853 15.672-34.01 22.496zm87.065-75.279c-2.791 5.263-6.589 10.598-11.146 15.933-7.651-5.257-12.388-14.001-12.388-23.499 0-15.721 12.789-28.51 28.51-28.51 3.403 0 6.745.606 9.883 1.765-3.647 10.789-8.313 21.972-14.859 34.311zm82.764-226.161a697.113 697.113 0 0 0-12.812 23.747 33.291 33.291 0 0 1-8.646-22.422c0-18.417 14.979-33.4 33.391-33.4 4.583 0 9.094.957 13.254 2.752-16.691 14.842-24.755 28.576-25.187 29.323zm86.807-62.02C331.497 28.424 345.84 15 363.269 15c16.697 0 30.569 12.319 33.009 28.345-23.392-4.135-48.564-2.524-66.264 2.13z"/><circle cx="187.494" cy="374.219" r="7.5"/><circle cx="187.494" cy="402.21" r="7.5"/><circle cx="156.499" cy="402.21" r="7.5"/></svg>