<svg xmlns="http://www.w3.org/2000/svg" viewBox="0 0 512 512"><path fill="#fff" d="M451.221 375.815c5.51 5.52 5.51 14.46 0 19.97-5.521 5.51-14.461 5.51-19.971 0s-5.51-14.45 0-19.97c5.51-5.51 14.45-5.51 19.971 0z"/><path fill="#9bc9ff" d="M296.2 319.945c-5.771-66.02-63.97-114.87-129.99-109.1-66.03 5.77-114.87 63.97-109.11 129.99 5.77 66.021 63.97 114.87 129.99 109.101 66.03-5.771 114.87-63.96 109.11-129.991z" style="fill:#ab77df"/><g fill="#fff" stroke="#231f20" stroke-miterlimit="10"><path d="M241.54 285.465c-5.52-5.51-14.45-5.51-19.97 0-5.51 5.521-5.51 14.46 0 19.971 5.52 5.51 14.45 5.51 19.97 0 5.51-5.511 5.51-14.451 0-19.971zM186.63 400.275c-5.51 5.51-5.51 14.45 0 19.96 5.52 5.51 14.45 5.51 19.97 0 5.51-5.51 5.51-14.45 0-19.96-5.52-5.52-14.45-5.52-19.97 0zM111.76 275.485c-11.03 11.03-11.03 28.899 0 39.93 11.03 11.03 28.91 11.03 39.93 0 11.03-11.03 11.03-28.899 0-39.93-11.02-11.03-28.9-11.03-39.93 0zM97.98 390.476c-8.27 8.279-8.27 21.689 0 29.97 8.28 8.27 21.7 8.27 29.97 0 8.28-8.28 8.28-21.69 0-29.97-8.27-8.271-21.69-8.271-29.97 0z"/></g><path fill="#fff" d="M104.58 77.455c9.65 9.65 9.65 25.28 0 34.93s-25.29 9.65-34.93 0c-9.65-9.65-9.65-25.28 0-34.93 9.64-9.65 25.28-9.65 34.93 0z"/><g fill="#1e81ce"><path d="M405.35 71.685c5.521 0 10-4.48 10-10s-4.479-10-10-10c-5.52 0-10 4.48-10 10s4.48 10 10 10zM395.35 421.686c-5.52 0-10 4.479-10 10 0 5.52 4.48 10 10 10 5.521 0 10-4.48 10-10 0-5.521-4.48-10-10-10zM345.35 181.685c-5.52 0-10 4.48-10 10s4.48 10 10 10c5.521 0 10-4.48 10-10s-4.48-10-10-10zM345.35 451.686c-5.52 0-10 4.479-10 10 0 5.52 4.48 10 10 10 5.521 0 10-4.48 10-10 0-5.521-4.48-10-10-10zM145.35 61.685c5.52 0 10-4.48 10-10s-4.48-10-10-10-10 4.48-10 10 4.48 10 10 10zM45.35 181.685c5.52 0 10-4.48 10-10s-4.48-10-10-10-10 4.48-10 10 4.48 10 10 10zM35.35 451.686c-5.52 0-10 4.479-10 10 0 5.52 4.48 10 10 10s10-4.48 10-10c0-5.521-4.48-10-10-10zM264.27 234.348c-24.021-21.903-55.087-33.966-87.477-33.966-3.798 0-7.651.168-11.454.501-71.406 6.24-124.431 69.412-118.201 140.823 2.849 32.601 17.727 62.69 41.894 84.727 24.021 21.903 55.087 33.966 87.476 33.966 3.798 0 7.651-.169 11.453-.501 71.405-6.24 124.43-69.412 118.201-140.823-2.849-32.601-17.726-62.691-41.892-84.727zM105.047 397.551a11.136 11.136 0 0 1 7.922-3.278c2.99 0 5.799 1.163 7.911 3.274 2.116 2.115 3.281 4.926 3.281 7.913s-1.166 5.799-3.281 7.914a11.112 11.112 0 0 1-7.911 3.273 11.129 11.129 0 0 1-7.913-3.269c-4.362-4.365-4.362-11.47-.009-15.827zm81.173 42.423a111.97 111.97 0 0 1-9.712.425c-15.951 0-31.23-3.526-45.06-9.852 1.248-.923 2.456-1.913 3.573-3.03 5.893-5.894 9.139-13.727 9.139-22.057s-3.246-16.163-9.139-22.056c-5.889-5.889-13.721-9.132-22.053-9.132-8.33 0-16.163 3.242-22.064 9.136a31.017 31.017 0 0 0-5.673 7.809c-10.017-14.922-16.521-32.396-18.169-51.251-5.272-60.424 39.596-113.878 100.018-119.159 3.226-.282 6.494-.425 9.712-.425 56.449 0 104.523 44.116 109.445 100.432 5.272 60.424-39.596 113.879-100.017 119.16z" style="fill:#4d1389"/><path d="M231.555 271.332c-6.437 0-12.492 2.506-17.063 7.068-9.392 9.409-9.389 24.71.013 34.112 4.558 4.55 10.613 7.056 17.049 7.056s12.492-2.506 17.056-7.063c9.396-9.396 9.398-24.696-.007-34.118a23.974 23.974 0 0 0-17.048-7.055zm2.921 27.026c-1.055 1.053-2.282 1.21-2.92 1.21s-1.866-.157-2.914-1.203a4.131 4.131 0 0 1-.007-5.823c1.055-1.053 2.282-1.21 2.92-1.21s1.866.157 2.907 1.197c1.609 1.613 1.612 4.23.014 5.829zM131.729 257.213c-10.214 0-19.817 3.978-27.04 11.201s-11.202 16.825-11.202 27.036 3.979 19.813 11.202 27.036 16.826 11.201 27.04 11.201c10.215 0 19.816-3.979 27.032-11.201 7.223-7.224 11.202-16.825 11.202-27.036s-3.979-19.813-11.199-27.032c-7.219-7.226-16.82-11.205-27.035-11.205zm12.887 51.135a18.1 18.1 0 0 1-12.887 5.34 18.113 18.113 0 0 1-12.897-5.344c-3.446-3.445-5.344-8.024-5.344-12.894s1.898-9.448 5.344-12.894 8.026-5.344 12.897-5.344c4.869 0 9.446 1.896 12.89 5.344 3.446 3.445 5.344 8.024 5.344 12.894s-1.898 9.448-5.347 12.898zM87.111 129.623c9.269 0 17.984-3.61 24.54-10.166 13.529-13.529 13.529-35.543 0-49.073-6.556-6.556-15.271-10.166-24.54-10.166-9.271 0-17.984 3.612-24.533 10.166-13.529 13.529-13.529 35.543-.003 49.069 6.552 6.558 15.265 10.17 24.536 10.17zM76.725 84.522a14.585 14.585 0 0 1 10.387-4.305c3.927 0 7.619 1.53 10.397 4.309 5.731 5.731 5.731 15.057 0 20.788a14.606 14.606 0 0 1-10.397 4.309 14.586 14.586 0 0 1-10.39-4.309c-5.732-5.731-5.732-15.057.003-20.792zM196.615 386.135c-6.44 0-12.498 2.511-17.056 7.069-9.402 9.402-9.402 24.7.007 34.108 4.558 4.55 10.613 7.056 17.049 7.056 6.437 0 12.492-2.506 17.057-7.062 9.402-9.402 9.402-24.7 0-34.102-4.559-4.558-10.616-7.069-17.057-7.069zm2.921 27.022c-1.055 1.054-2.283 1.211-2.921 1.211s-1.866-.157-2.914-1.204a4.119 4.119 0 0 1 2.914-7.029 4.1 4.1 0 0 1 2.914 1.212 4.115 4.115 0 0 1 .007 5.81z" style="fill:#4d1389"/><path d="M452.421 266.744c-3.905-3.904-10.237-3.904-14.142 0l-162.631 162.64c-54.588 54.589-143.41 54.587-197.997 0-26.44-26.439-41.001-61.599-41.001-98.999s14.561-72.559 41.001-98.999l162.64-162.63c3.905-3.905 3.906-10.237 0-14.142-3.905-3.906-10.236-3.904-14.142 0l-162.64 162.63C33.292 247.461 16.65 287.643 16.65 330.385c0 42.743 16.642 82.924 46.859 113.142 31.193 31.192 72.167 46.789 113.141 46.789s81.948-15.597 113.141-46.789l162.631-162.64c3.904-3.907 3.904-10.238-.001-14.143z" style="fill:#4d1389"/><path d="M218.279 178.756c1.953 1.953 4.512 2.929 7.071 2.929s5.119-.976 7.071-2.929l140-140c3.904-3.905 3.904-10.237 0-14.143-3.906-3.905-10.238-3.905-14.143 0l-140 140c-3.904 3.906-3.904 10.238.001 14.143zM298.279 154.614c-3.905 3.905-3.905 10.237 0 14.143a9.966 9.966 0 0 0 7.07 2.929c2.56 0 5.119-.976 7.072-2.929l70-70c3.904-3.905 3.904-10.237 0-14.143-3.906-3.905-10.238-3.905-14.143 0zM492.422 44.614c-3.906-3.905-10.238-3.905-14.143 0l-120 120c-3.905 3.905-3.905 10.237 0 14.143a9.966 9.966 0 0 0 7.07 2.929c2.56 0 5.119-.976 7.072-2.929l120-120c3.905-3.906 3.905-10.238.001-14.143zM338.279 268.757a9.97 9.97 0 0 0 7.07 2.929c2.56 0 5.119-.977 7.072-2.929l100-100c3.904-3.905 3.904-10.237-.001-14.143-3.904-3.905-10.237-3.905-14.142 0l-100 100.001c-3.904 3.905-3.904 10.237.001 14.142zM441.231 361.683c-6.442 0-12.499 2.508-17.059 7.068-9.394 9.409-9.39 24.709.007 34.105 4.553 4.554 10.609 7.062 17.052 7.062 6.439 0 12.495-2.506 17.06-7.062 9.396-9.396 9.399-24.696-.006-34.118a23.98 23.98 0 0 0-17.054-7.055zm2.925 27.024a4.12 4.12 0 0 1-2.925 1.211 4.098 4.098 0 0 1-2.91-1.204 4.13 4.13 0 0 1 0-5.828 4.098 4.098 0 0 1 2.91-1.203c.64 0 1.869.157 2.911 1.197 1.61 1.612 1.612 4.228.014 5.827z" style="fill:#4d1389"/></g></svg>