<svg xmlns="http://www.w3.org/2000/svg" viewBox="0 0 512 512"><path fill="#283d66" d="M454.453 108.521 362.13 56.327 320.968 86.79 256 70.103l-20 348.033 85.51 31.385 66.387-6.231 53.125-87.364 13.185-118.829-22.106-83.71z"/><path fill="#4d628c" d="M213.106 59.086 105.047 167.282l-52.128 13.513-13.012 102.007L68.4 296.517 60.787 356.2l142.994 72.861L256 418.136V70.103z"/><path fill="#ffda44" d="M0 60h30v30H0z"/><path fill="#80aaff" d="M30 452h30v30H30zM60 30h30v30H60z"/><path fill="#6e76e5" d="M422 482h30v30h-30z"/><path fill="#ffb655" d="M482 452h30v30h-30z"/><path fill="#cfcfe6" d="M422 0h30v30h-30z"/><path fill="#283d66" d="M196 312.239h30v30h-30z"/><path fill="#0f0f4d" d="M346.591 160.239h30v30h-30z"/><path fill="#283d66" d="M136 282.239h30v30h-30z"/><circle cx="181" cy="206.721" r="45" fill="#283d66"/><path fill="#0f0f4d" d="M454.207 237.097c-30.399-.811-57.154 21.591-61.083 52.388-4.012 31.456 17.229 60.404 47.898 66.441l31.071-51.095zM311.028 397.268c-9.808-12.675-23.964-20.772-39.862-22.801a59.856 59.856 0 0 0-15.166-.006l-20 36.188 20 45.02 65.51-6.148a60.366 60.366 0 0 0 1.582-7.943c2.029-15.899-2.256-31.635-12.064-44.31z"/><path fill="#283d66" d="M204.057 426.394a62.11 62.11 0 0 0-.276 2.667L256 455.668V374.46c-26.464 3.373-48.414 24.268-51.943 51.934z"/></svg>