<svg xmlns="http://www.w3.org/2000/svg" viewBox="0 0 1000 665.5"><path fill="#0f0a0a" d="M657.1 529.3c-.2 6-.3 11.6-.5 17.2-.4 11.1-1.3 22.1-2.5 33.1-.9 7.9-4.4 12.7-12.2 15.3-12.9 4.3-25.8 5.6-39.1 2.9-2.3-.5-4.5-1.3-6.7-2-4.4-1.5-6.7-4.7-7.2-9.3-.2-2-.3-4-.3-6-.2-9.8-.3-19.6-.5-29.4 0-1.2-.2-2.5-.3-3.8-2-.3-3.1.9-4.7 2 0 2.6.1 5.3 0 8-.3 8.5-.7 17-1.2 25.5-.1 2-.6 3.9-1 5.9-.6 3.1-2.4 5.2-5.5 6.2-.3.1-.7.3-1 .4-11.9 2.6-23.9 4.6-36.1 2.5-1.2-.2-2.5-.5-3.7-.9-2-.7-3.4-2.2-3.8-4.3s-.7-4.3-1-6.4l-1.5-13.5c-.1-.9-.4-1.7-.7-2.9-23 3.8-45.8 4.7-68.8-1.8-.7 5.7-1.4 11.1-2.1 16.5-.6 4.5-1.4 9-2.2 13.4-.3 1.4-.7 2.8-1.2 4.2-.8 2-2.2 3.3-4.5 3.4-8 .6-15.9 1.4-23.9.3-4.3-.6-8.7-.9-13-1.6-2.8-.5-5.7-1.3-8.4-2.3-3.5-1.3-5.8-3.8-6.1-7.6-.3-3.2-.4-6.5-.4-9.8.1-7.4.4-14.9.5-22.3v-3.3c.1-2-1.1-2.9-3-3.2-.3.6-.7 1.3-.8 1.9-2.3 11.7-4.6 23.5-6.9 35.2-.4 2-.7 3.9-1.1 5.9-.5 2.5-2 4.2-4.4 5.1-5.1 1.8-10.2 3.7-15.8 3.9-5.1.1-10.2.5-15.2.5-3.1 0-6.2-.3-9.2-.9-5.7-1-8.1-3.7-8.7-9.4-.3-3.2-.6-6.5-.9-9.8-2-21-3.5-41.9-3.7-63-.1-7.8-.6-15.6-.9-23.4-.7-14 .5-27.9 1.5-41.9.4-5.2.8-10.5 1.2-15.7 1.7-24.4 3.9-48.8 4.6-73.3.6-21.4-.2-42.8-3-64.1-1-7.7-2.7-15.3-5.3-22.7-3.1-8.8-7.7-16.8-13.6-24-1.3-1.5-2.7-2.9-4-4.4-2.2-2.5-4.7-3.3-8.2-2.9-10.9 1.3-21.8.6-32.3-2.6-4.8-1.5-9.5-3.5-14.1-5.7-3.2-1.5-6.3-2.4-9.8-3.1-24.5-4.6-41.9-18.3-51.2-41.5-5.2-12.9-4.8-26.3-.4-39.5 5.6-16.7 14.9-31 29.1-41.8 18.2-13.8 38-24.7 59.5-32.3 7.2-2.6 14.6-4.3 22.2-5.1 13.1-1.4 25.7.8 38 4.9 4.6 1.5 9.2 3.4 13.7 5.4 23.8 10.6 41.3 27.9 53.3 50.8 11.2 21.3 18.8 44 23.1 67.6 1.8 9.8 2.2 19.8 2.4 29.8.3 13.4.1 26.9.5 40.3.3 10.9.5 21.8 1.9 32.6 1.1 7.7 2.7 15.3 5.4 22.7 3.1 8.6 8.7 14.9 16.7 19.3 8.4 4.5 17.4 7.1 26.7 8.8 12.2 2.3 24.5 2.5 36.9 2.7 11.4.2 22.9.1 34.3.6 15.5.7 30.6 3.6 45.2 8.8 16.7 5.9 31.3 15.1 43.9 27.6 4.9 4.9 9.5 10 14.3 14.9s9.5 10 14.6 14.7c11.9 10.9 25.6 18.3 41.4 21.6 10.2 2.2 20.5 2.4 30.9 1.1 14.1-1.7 27.7-5.6 40.7-11.5 5.6-2.5 11.3-5 16.8-7.7 3.6-1.7 7.3-3.1 10.3-6 1-1 2.4-.9 3.5-.2 1.1.6 1.9 2.6 1.6 3.8-.3 1-.9 2-1.4 2.9-9.7 17.9-23.2 32.3-39.8 44-8 5.6-16 11.3-24.3 16.5-16.3 10.1-34.3 16.4-52.6 21.8-14.4 4.6-28.9 7.5-44 10.4z"/><path fill="#ed818d" d="M807.1 442.1c-1 1.8-1.6 3.1-2.3 4.2-4.6 6.8-10.1 12.8-16.2 18.3-7.8 7.1-16.2 13.4-25.1 19.1-3.7 2.4-8.3 3.5-12.6 4.9-5.4 1.7-10.8 3.2-16.2 4.5-7.2 1.7-14.5 3.3-21.8 4.8-11 2.2-22 4.5-33.1 6.4-8.2 1.4-16.6 2.1-24.8 3.1-.9.1-1.8.1-2.7.3-2 .4-2.8 1.3-2.8 3.4 0 1.1.1 2.2.2 3.3 1.6 13 1.2 26.1.6 39.1-.3 7.2-1.1 14.5-1.8 21.7-.2 2.3-.7 4.7-1 7-.4 3.3-2.2 5.2-5.3 6.2-2.4.7-4.6 2-7.3 2.1-.6-2.6-1-5.1-1.6-7.5-.4-1.4-.9-2.8-1.6-4-2.8-4.5-7.9-5.6-12.2-2.4-1.7 1.2-3.1 2.9-4.7 4.3-7.5-10-11.9-9.9-19.7-6.3-1.3-.9-.8-2.3-.8-3.5-.1-11.1 0-22.1-.2-33.2-.1-6.7-.8-13.4-1.2-20.1 0-.4-.1-.7-.1-1.1-1.1-6.1-1.8-6.9-8.1-6.8-8.2.2-16.3.8-24.3 2.4-17.2 3.5-34.5 7.2-51.7 10.7-13 2.7-26.1 4.6-39.4 5.2-2.7.1-5.4 0-8.2 0-2.9 0-4.3 1.2-3.8 3.8.7 4.1-.2 8-.8 11.9-2 15.1-4.1 30.2-6.3 45.3-.5 3.4-1.3 6.7-2 10-3.1 1.2-6 .7-9 .9-.3-2.8-.4-5.1-.8-7.4-.3-1.8-.7-3.6-1.4-5.2-2.3-5.2-7.4-6.7-12.2-3.6-1.3.9-2.5 1.9-3.8 2.9-5.4-9.8-8.4-9.4-17.5-6.8 0-1.1-.2-2.1-.1-3.1.3-10.7.7-21.4 1.1-32.1.1-4.5.2-9.1.4-13.6.2-3.6-1.3-5.9-4.2-8.1-16-12.1-31.1-25.1-44.1-40.4-1.2-1.4-2.4-2.8-3.7-4-1.6-1.4-3.6-.9-4.4 1.2-.5 1.3-.9 2.8-.8 4.2.3 2.9.9 5.7 1.7 8.5 2.7 9.7 7.2 18.6 12.7 27 6.5 10.1 14.2 19.3 23 27.5 1.1 1 2.1 2 3.1 3 .2.2.4.6.7 1.2-3 15.4-6 31-9.1 46.9-2 .7-4.1 1.4-6.4 2.1-.3-1.6-.5-2.8-.7-4-.4-2.7-.9-5.4-2.2-7.8-2.7-4.7-7.5-5.9-12-2.8-1.3.9-2.5 2.1-3.7 3.1-1.5.1-1.7-1.2-2.3-2-3.4-4.5-7.5-6.7-13.2-4.6-.3.1-.7 0-1.1 0-1-.4-.9-1.4-.9-2.3-1.1-12.3-2.2-24.6-2.5-36.9-.3-13.6-.7-27.2-1.5-40.8-.6-11.1.2-22.1 1-33.2.9-13.2 1.9-26.4 2.9-39.6.9-13 1.8-26.1 2.7-39.1 1-15.4.9-30.8.6-46.3-.2-13.4-1.3-26.8-3.3-40.1-1-6.8-2.5-13.6-4.7-20.1-3.6-10.8-9.1-20.5-17-28.9-.7-.8-1.4-1.6-2.1-2.5-.1-.1 0-.4.1-.9 1.2-.4 2.5-.7 3.8-1.2 5-1.7 9.9-3.4 14.9-5.2 1.2-.4 2.3-1.2 3.2-2s1.1-2.1.4-3c-.6-.8-1.7-1.6-2.6-1.6-1.4.1-2.8.7-4.1 1.3-7.7 3.4-15.7 5.7-24.1 6.6-11.8 1.3-23.6 1.5-35.1-1.8-1.5-.4-3-1-4.4-1.5.5-1.7 1.8-1.4 2.8-1.5 6.1-.9 12.1-2.3 17.9-4.4 15.3-5.7 26.2-16 32-31.3 2.2-5.8 3.6-11.8 5.3-17.7.3-1 .3-2.2.1-3.2-.2-1.1-1.1-2-2.3-1.9-.8 0-1.8.5-2.3 1.2-.7 1-1.1 2.2-1.5 3.4l-3 10.5c-5.5 19.5-18.6 31-38 35.8-8.2 2-16.4 2.8-24.8 2.5-9.6-.3-18.7-3-26.9-7.9-13.5-8.1-23.4-19.3-27.6-35-2.7-10.1-2.2-20.2.9-30.1 5.1-16 13.8-29.5 27.3-39.7 18.1-13.7 37.7-24.5 59.2-31.8 5.1-1.7 10.5-2.9 15.8-3.9 11.7-2.2 23.2-.5 34.4 2.6 11.4 3.2 22.1 8 32.2 14.4 15.4 9.8 26.8 23.3 35.4 39.2 10.9 20.3 18.2 41.9 22.6 64.4 2 10.3 2.8 20.9 2.6 31.4-.3 18.7.5 37.4 1.2 56.1.4 10.5 1.3 21 4 31.2 1.1 4 2.3 8 3.8 11.9 3.1 8.3 8.6 14.6 16.1 19.2 7.4 4.5 15.3 7.4 23.7 9.4 12.6 3.1 25.4 4.3 38.3 4.3 11.1.1 22.2 0 33.2.3 15.8.5 31.5 2.5 46.7 7.3 17.8 5.6 33.5 14.8 46.7 28 4.5 4.5 8.8 9.2 13.2 13.8 4.3 4.4 8.5 9 12.9 13.3 12.6 12.2 27.3 20.9 44.5 25 13.4 3.3 26.9 3.2 40.5 1.1 17.4-2.8 33.5-9.2 49.3-16.8 1.4-.6 2.9-1.7 5.4-2.1z" style="fill:#8673b3"/><path fill="#fabec5" d="M459.8 562.3c1.4-9.6 2.7-18.7 4-28.1 2.4-.2 4.7-.4 7.1-.4 15.3-.1 30.2-3.1 45.1-6.2 16.1-3.3 32.2-6.8 48.4-9.9 6.2-1.2 12.6-1.2 18.9-1.7 1-.1 2.1.2 3.3.4.2 1 .6 1.9.6 2.8.3 5.4.4 10.9.7 16.3.2 2.7-1 4.5-3.2 5.7-4.1 2.2-8.2 4.7-12.5 6.6-11.9 5.5-24.3 9.3-36.7 13.3-6 2-12.2 3.5-18.5 4.3-9.7 1.3-19.5 1.6-29.3 1.2-7.3-.3-14.5-.9-21.6-2.5-1.8-.5-3.7-1.1-6.3-1.8z"/><path fill="#ed818d" d="M535.5 578.7c-1.5-3.6-1.7-4.7-1.6-10 .1-.1.2-.3.3-.4l.4-.4c.3-.2.6-.3 1-.5 13.6-4.3 27.2-8.8 40.4-14.5.4.8.8 1.2.8 1.7 0 10.3-.1 20.7-1.4 30.9-.4 3.4-.8 3.6-5.2 4.2-.5-1.5-.8-3.1-1.4-4.6-.8-2-1.6-4.1-2.8-5.8-2.7-3.7-6.7-4.5-10.5-2-1.6 1.1-3 2.6-4.7 4.1-.8-.8-1.6-1.7-2.5-2.5-3.5-3.3-6.2-3.7-10.4-1.6-.9.4-1.6.9-2.4 1.4z" style="fill:#8673b3"/><path fill="#fabec5" d="M355.1 491.6c13.9 13.5 28.4 26.1 43.6 37.6.7 5.4.3 14.2-1 20.1-.5-.1-1-.1-1.4-.4-17.1-14.2-30.7-31.1-39.3-51.8-.6-1.8-1.2-3.7-1.9-5.5zM735.9 500c-8.7 4.4-17.3 7.2-25.8 10.2-11.3 4-46.6 12.5-53.4 13.1-.8-3.3-.6-6.6-.8-10.3 3.2-.3 6-.5 8.9-.7 13.4-.9 26.5-4 39.6-6.6 9.8-1.9 19.5-4 29.3-6 .5 0 1 .2 2.2.3z"/><path fill="#f9fafa" d="M610.7 592.8c-4.9-.2-9.5-1-13.7-3.2-.9-.4-1.4-1.5-2-2.2.8-2.1 1.4-4 2.3-5.8 2-4.2 6-4.9 9.2-1.5.7.8 1.3 1.7 1.8 2.7 1.4 3.1 2.3 6.3 2.4 10zM350 602.1c-3.5.9-6.2.2-8.8-.2-.7-.1-1.6-1-1.9-1.7-1.3-2.9-1.4-6-1.1-9.1.2-1.9 1.5-3.2 3.4-3.8 1.8-.6 3.4 0 4.4 1.3 1.2 1.5 2.3 3.3 2.8 5.2.7 2.4.8 5.2 1.2 8.3zM415 599c-3.2-.9-6.1-1.6-9-2.5-2-.6-2.8-2.2-2.7-4.2.1-3.6 2.4-6.9 5.6-7.9 2.4-.8 4.5 0 5.2 2.5 1 3.7 1.6 7.6.9 12.1zM617.1 593.1c.6-3.2 1.5-6.1 3.1-8.8 1-1.7 2.2-3.7 4.4-3.6 2.4.1 2.6 2.6 3.1 4.5.6 2.2 1.1 4.5 1.7 6.8-4 .7-8 1.7-12.3 1.1zM366.9 601.6c-3.6.8-7 .3-10.7.7.6-4.8 2-8.6 5.4-11.5 1.3-1.1 2.8-.7 3.6.8.4.8.8 1.6 1 2.5.2 2.4.4 4.8.7 7.5zM421.8 599.5c1.1-5.2 3.1-9.1 8-11.6.7.9 1.5 1.6 1.9 2.5 1.2 2.9 1.1 6 1 9.3-3.6.9-7.1.1-10.9-.2zM547.2 592.3c-2 0-3.6.1-5.2 0-1.4-.1-2.8-.4-4.2-.6-.8-2.6-.3-4.8.7-7 .6-1.4 1.6-2.5 3.2-2.6 1.7-.2 2.6 1.1 3.3 2.4 1.1 2.2 1.8 4.6 2.2 7.8zM563.8 590.9c-3.1 1.1-6.3 1.4-9.6 1.4-.1-4.1 1.2-7.5 3.8-9.5 1.3-1 2.7-.7 3.6.8 1.3 2.2 2 4.6 2.2 7.3z"/><path fill="#070404" d="M337.1 131.6c-.2 13.6-11.3 24.2-24.9 24-11.7-.1-24.4-9.5-24-25 .4-16.2 14-24.5 25.5-24.1 11.2.4 23.8 10.3 23.4 25.1z"/><path fill="#a72a38" d="M499.4 376.7c7.5-.4 14.7.9 21.8 3.2 3.1 1 6 2.4 8.4 4.7 3.6 3.4 2.5 7.6 0 10-1.1 1.1-2.6 2-4 2.7-4.3 2.1-8.9 3-13.6 3.3-6.9.5-13.7-.1-20.4-2.1-2.6-.8-5-2-7.4-3.2-3.2-1.6-4.4-4.7-5.4-7.8-.3-.9 0-2.2.3-3.1 1-2.7 2.8-4.7 5.4-5.7 2.3-.9 4.8-1.6 7.3-1.9 2.5-.4 5-.1 7.6-.1zM361.9 115.1c3.1-.2 5.9.6 8.3 2.2 6.1 4.1 11 9.4 13.6 16.4 1 2.6 1.2 5.3 1 8-.4 5.1-3.8 8.3-8.9 8.4-1.3 0-2.6 0-3.8-.4-10-3.4-17.1-9.9-20.6-20-1.1-3.2-1-6.4.5-9.5 1.6-3.3 4.1-5 7.7-5.1zM419.6 218.8c0 .9.1 1.8 0 2.7-.2 2.9-1.3 5.4-4.2 6.4-2.5.9-4.6-.4-6.4-2-1.3-1.2-2.6-2.6-3.5-4.1-2-3.2-3.9-6.5-5.5-10-2.6-5.6-4.2-11.6-5.1-17.7-.4-2.9-.3-5.8.7-8.6.6-1.6 1.5-2.9 3-3.7 1.5-.9 2.9-1.1 4.6-.4 2.7 1.2 4.8 3.1 6.5 5.5 4.7 6.6 7.2 14.1 8.7 22 .6 3.2 1 6.4 1.4 9.6 0 .3-.1.3-.2.3zM583.4 400.6c-2.8.3-5.3-.3-7.5-1.6-4.1-2.4-5.6-8.1-.3-11.4 5.9-3.7 12.2-4.1 18.6-1.3 1.1.5 2.1 1.4 2.9 2.3 1.2 1.5 1.3 3.2.3 5-2.5 4.6-6.7 6.3-11.5 7-.9.2-1.8 0-2.5 0zM269.3 118.6c-2.7.2-4.8-1.1-6-3.6-1.2-2.4-.9-4.9.9-7.1 3.8-4.4 8.9-6 14.4-6.6.7-.1 1.4.1 2.1.3 5.3 1.5 6.5 5.7 2.9 9.9-3.4 3.9-9.5 7-14.3 7.1zM616.6 395.2c.3 0 1.1 0 1.7.3 5.5 2 10.4 4.9 13.7 10l.6.9c2 4.1 0 7.4-4.5 7.4-1.2 0-2.5-.2-3.7-.7-4.3-1.6-8.1-4-11.1-7.5-.6-.7-1.2-1.4-1.7-2.1-2.4-4.2-.2-8.1 5-8.3zM409.8 269.6c0-1.3-.2-2.6 0-3.8.3-1.4.7-2.8 1.4-4.1 2-3.4 5.6-3.4 7.9 0 .3.4.6.9.8 1.4 1.5 3.3 2.5 6.8 2.8 10.4.1 2.1-.3 4.3-.8 6.4-.4 2.1-1.7 3.7-3.9 4.1-2.3.4-3.8-1-5-2.6-1.9-2.5-2.8-5.5-3.2-8.6-.1-1.1 0-2.2 0-3.2zM657 440.9c-6.4-1.1-11.8-3.3-15.3-8.7-1.9-2.8-.7-5.8 2.4-7 2.1-.8 4.2-.8 6.4 0 3.6 1.3 6.9 3.2 9.9 5.5.7.5 1.3 1.3 1.8 2 1.9 2.7 1.2 5.8-1.8 7.2-1.2.5-2.5.8-3.4 1z" style="fill:#812da2"/><path fill="#0f0907" d="M216.5 165.6c-2.9-.1-5-2.5-4.4-5.1.3-1.2.8-2.4 1.4-3.5 2.4-3.9 6.2-6 10.2-7.8 1.5-.7 3.2-.5 4.6.8 1.3 1.3 1.6 2.9 1 4.5-2.1 5.3-5.9 9-11.3 10.9-.6.2-1.2.2-1.5.2z"/><g fill="#a72a38"><path d="M555.5 377.3c2.5.2 4.7.8 6.8 2.1 3.4 2.2 3.4 7.8-.6 9.8-4.1 2-8 1.9-11.9 0-1.9-.9-3.3-2.6-3.2-4.7.1-2.3.7-4.8 3.3-5.7 1.8-.7 3.7-1.1 5.6-1.5zM343.7 96.8c3.8.9 7.1 1.7 8.8 5.3 1.1 2.5.6 4.7-1.7 6.1-1.2.7-2.7 1.3-4 1.4-3.6.4-6.8-1-9.4-3.4-2.4-2.2-1.9-6.4 1-7.9 1.7-.7 3.7-1 5.3-1.5zM405.6 167.6c-.1 3.4-2 5.4-5.4 5.5-4.3.2-8.1-2.9-8.8-7.2-.5-3.1 1.2-6.4 4-6.8 2.5-.3 5 .4 7.2 1.8 1.9 1.4 3 4.2 3 6.7zM463.6 379.9c-2.4-.1-4.7-1-6.6-2.9-2.3-2.3-1.9-5.6.8-7.4 3.3-2.3 8.5-2 11.5.7 2.3 2.1 2.3 5.6-.1 7.6-1.5 1.2-3.3 1.9-5.6 2zM412 243.5c.3-.6.7-2.2 1.5-3.5 1.7-2.6 5.7-3.6 8.1-2.1 2.2 1.3 4.3 5.3 2.8 8-.7 1.2-1.4 2.6-2.4 3.5-1.8 1.6-3.9 2.5-6.4 1.2-2.5-1.4-3.7-3.2-3.6-7.1zM413.2 306.1c0-2.9.7-4.7 2.5-5.9 2.1-1.4 4.6-1.1 6.3.9 2 2.4 2.4 5.3 1 8-1.9 3.7-5.8 4.1-8.2.7-.9-1.3-1.3-2.9-1.6-3.7zM306.2 92.6c3.3.1 5.2 1.3 5.6 3 .5 2.4-.8 4.2-3.6 5.2-2.6.9-4.9.3-6.4-1.5-1.4-1.7-1.1-4.1.8-5.2 1.4-.8 3-1.3 3.6-1.5zM265.2 130.5c-1.9.1-3.3-.7-4-2.3-.3-.7-.4-1.8-.2-2.5.9-2.5 3.8-4.1 6.4-3.9 1.8.2 3 1.2 3.6 2.8s-.2 2.7-1.2 3.8c-1.2 1.4-2.8 2.3-4.6 2.1zM566.3 394.1c2.4.1 3.9 1.7 3.8 4.3-.1 2-1.8 3.8-3.7 3.9-2 .1-4.5-2-4.6-3.8 0-2.4 2.2-4.5 4.5-4.4zM386 163.6c.1 2.5-1.2 3.9-2.9 4.1-3.1.3-5.5-2.7-4.7-5.6.4-1.3 1.2-2.3 2.5-2.7 1.4-.4 2.6.2 3.3 1.2.9 1 1.4 2.4 1.8 3zM253.1 118.1c0 2.9-3.1 4.9-5.7 3.4-.4-.2-.8-.8-.9-1.3-.7-2.8 1.1-5 4-4.9 1.6.1 2.6 1.1 2.6 2.8zM398.8 226.4c1.6 0 3.1 1.7 3.1 3.7 0 1.4-1.3 2.7-2.8 2.7-1.6 0-3.1-1.8-3.1-3.7 0-1.4 1.3-2.6 2.8-2.7zM642.5 418.2c-.2 1.6-.9 3.1-2.5 3.8-.4.2-1.1.1-1.6 0-1.2-.4-1.9-1.7-1.8-3 .1-1.4.9-2.3 2.2-2.8 1.2-.5 2.7 0 3.3 1 .2.3.3.6.4 1zM675.4 446.9c.1 1.5-1.5 3.2-2.9 3.3s-3-1.5-3.1-3c-.1-1.3 1.1-2.7 2.6-2.8 1.6-.2 3.3 1 3.4 2.5zM541.1 397.1c-1.4 0-2.6-1.4-2.5-2.9 0-1.4 1.3-2.7 2.7-2.8 1.3-.1 2.5 1.3 2.4 2.9 0 1.5-1.2 2.8-2.6 2.8zM605.4 403.7c.1 1.4-1.5 3-3 3.1-1.2.1-2.4-1-2.6-2.2-.2-1.6 1.1-3 3-3 1.3 0 2.5 1 2.6 2.1zM324.2 100.8c-1.2-.1-2.3-1.4-2.3-2.6.1-1.6 1.8-2.8 3.5-2.4 1 .2 1.7 1.3 1.6 2.4-.1 1.6-1.4 2.8-2.8 2.6zM474.1 385.6c-.1 1.7-1.1 2.9-2.6 3-1.4.1-2.7-1.3-2.6-2.8s1.3-2.6 2.9-2.6c1.4 0 2.3 1 2.3 2.4zM237.3 123.1c1.2.1 2.3 1.3 2.4 2.5 0 1.4-1.4 2.7-2.8 2.6-1.2-.1-2.3-1.3-2.3-2.5-.2-1.5 1.2-2.7 2.7-2.6zM414 293.8c-.1 1.3-1.3 2.3-2.5 2.3-1.4 0-2.7-1.4-2.5-2.8.1-1.2 1.4-2.3 2.5-2.3 1.5-.1 2.7 1.3 2.5 2.8z" style="fill:#812da2"/></g><path fill="#f9fafa" d="M313.2 115.3c5.9.1 10.6 4.7 10.7 10.7.1 6.5-5.5 11.1-11 11-5.7-.1-10.8-5.1-10.8-10.8-.1-5.9 5.1-11 11.1-10.9zM323.3 136.3c1.8-.1 3.8 1.8 3.8 3.7 0 2-1.6 3.7-3.7 3.7-2.1.1-3.8-1.6-3.8-3.6-.1-1.8 1.8-3.7 3.7-3.8z"/></svg>