<svg xmlns="http://www.w3.org/2000/svg" xml:space="preserve" style="enable-background:new 0 0 457.728 457.728" viewBox="0 0 457.728 457.728"><path d="M228.864 0C102.912 0 0 102.4 0 228.864c0 125.952 102.4 228.864 228.864 228.864s228.864-102.912 228.864-228.864S354.816 0 228.864 0zm0 117.248c38.912 0 71.168 31.744 71.168 71.168 0 38.912-31.744 71.168-71.168 71.168s-71.168-32.256-71.168-71.68c0-38.912 32.256-70.656 71.168-70.656zm0 293.376c-43.52 0-83.456-15.36-114.688-40.96 32.768-35.84 72.704-55.808 114.688-55.808s82.432 19.456 114.688 55.808c-31.232 25.6-71.168 40.96-114.688 40.96z" style="fill:#9ea5ff"/></svg>