<svg xmlns="http://www.w3.org/2000/svg" width="377" height="201" fill="none"><g fill="#750EDD" filter="url(#a)"><g clip-path="url(#b)"><path d="M58.736 174.196a.777.777 0 0 0-.71-.917 8.068 8.068 0 0 0-2.91.437c.395.269.758.585 1.029.989l.894 1.339c.21.313.352.652.458.999a7.917 7.917 0 0 0 1.239-2.847ZM37.299 169.159a.778.778 0 0 0-1.007.575 7.922 7.922 0 0 0 .058 3.11c.233-.286.5-.55.82-.764l1.32-.884c.406-.271.863-.423 1.331-.52a8.046 8.046 0 0 0-2.522-1.517ZM55.747 176.908l-.895-1.339a2.273 2.273 0 0 0-3.149-.626l-1.716 1.147 1.465-4.621a2.334 2.334 0 0 0-1.769-2.992l-2.839-.564a2.333 2.333 0 0 0-2.778 2.088l-.415 4.829-1.146-1.715a2.273 2.273 0 0 0-3.15-.626l-1.321.884a2.274 2.274 0 0 0-.771 2.9l2.524 5.062c.21.424.328.896.34 1.368l.06 2.261c.058 2.262 1.64 4.2 3.858 4.641 2.168.431 4.351-.714 5.295-2.714l1.047-2.215c.187-.394.446-.742.77-1.033l4.218-3.783c.836-.75.995-2.019.372-2.952ZM49.775 163.951a.802.802 0 0 0-1.138-.226c-.067.05-1.318 1.064-2.086 2.609.2.008.399.014.596.054l2.84.564c.248.049.486.129.717.224-.114-1.729-.887-3.153-.93-3.225Z"/></g><g clip-path="url(#c)"><path d="M32.49 169.153a.777.777 0 0 0-.71-.917 8.068 8.068 0 0 0-2.91.437c.394.269.758.585 1.028.989l.895 1.339c.21.313.352.652.458.999a7.919 7.919 0 0 0 1.239-2.847ZM11.053 164.116a.778.778 0 0 0-1.007.575 7.918 7.918 0 0 0 .057 3.11c.234-.286.5-.55.82-.764l1.321-.884c.406-.271.863-.423 1.33-.52a8.047 8.047 0 0 0-2.521-1.517ZM29.5 171.865l-.895-1.339a2.273 2.273 0 0 0-3.148-.626l-1.716 1.147 1.464-4.621a2.334 2.334 0 0 0-1.768-2.992l-2.84-.564a2.333 2.333 0 0 0-2.778 2.088l-.414 4.829-1.146-1.715a2.273 2.273 0 0 0-3.15-.626l-1.322.884a2.274 2.274 0 0 0-.77 2.9l2.523 5.062c.211.424.328.896.34 1.368l.06 2.261c.059 2.262 1.64 4.2 3.859 4.641 2.168.431 4.351-.714 5.295-2.713l1.046-2.216c.187-.394.447-.742.77-1.033l4.219-3.783c.836-.75.995-2.019.371-2.952ZM23.528 158.908a.802.802 0 0 0-1.138-.226c-.067.05-1.317 1.064-2.085 2.609.199.008.398.014.596.054l2.839.564c.248.05.487.129.718.224-.114-1.729-.887-3.153-.93-3.225Z"/></g></g><g fill="#750EDD" filter="url(#d)"><g clip-path="url(#e)"><path d="M74.452 152.74a.778.778 0 0 0-.36-1.103 8.044 8.044 0 0 0-2.887-.567c.28.386.517.806.636 1.277l.392 1.563c.092.365.112.732.095 1.094a7.919 7.919 0 0 0 2.124-2.264ZM55.958 140.787a.778.778 0 0 0-1.142.203 7.917 7.917 0 0 0-.992 2.948c.317-.19.656-.35 1.03-.444l1.54-.389c.474-.118.956-.107 1.429-.042a8.035 8.035 0 0 0-1.865-2.276ZM70.725 154.288l-.392-1.562a2.272 2.272 0 0 0-2.755-1.648l-2.002.503 2.933-3.86c.842-1.108.53-2.7-.66-3.412l-2.483-1.486a2.332 2.332 0 0 0-3.319 1.032l-2.014 4.408-.503-2a2.273 2.273 0 0 0-2.755-1.649l-1.543.388a2.274 2.274 0 0 0-1.7 2.472l.674 5.616c.056.47.007.954-.14 1.402l-.704 2.15c-.705 2.149.132 4.507 2.073 5.668 1.897 1.135 4.338.791 5.9-.775l1.73-1.734c.309-.309.67-.549 1.073-.714l5.245-2.144a2.282 2.282 0 0 0 1.342-2.655ZM69.458 140.077a.802.802 0 0 0-.995-.595c-.08.024-1.6.558-2.842 1.755.185.075.37.148.544.252l2.483 1.486c.218.13.416.285.601.452.474-1.667.225-3.267.21-3.35Z"/></g><g clip-path="url(#f)"><path d="M51.43 139.164a.776.776 0 0 0-.36-1.102 8.02 8.02 0 0 0-2.887-.567c.28.386.517.805.636 1.277l.392 1.562c.092.365.112.732.096 1.094a7.907 7.907 0 0 0 2.124-2.264ZM32.936 127.211a.778.778 0 0 0-1.142.203c-.042.069-.8 1.32-.991 2.948.316-.19.655-.349 1.029-.443l1.541-.389c.473-.118.955-.108 1.428-.042a8.048 8.048 0 0 0-1.865-2.277ZM47.703 140.712l-.392-1.562a2.272 2.272 0 0 0-2.755-1.648l-2.002.503 2.933-3.859a2.334 2.334 0 0 0-.659-3.413l-2.484-1.486a2.334 2.334 0 0 0-3.319 1.032l-2.014 4.408-.502-2a2.273 2.273 0 0 0-2.756-1.649l-1.542.388a2.274 2.274 0 0 0-1.702 2.472l.675 5.616c.056.47.008.954-.14 1.403l-.704 2.149c-.705 2.15.132 4.507 2.073 5.669 1.897 1.135 4.338.79 5.9-.775l1.73-1.734c.309-.309.67-.55 1.073-.715l5.245-2.144a2.282 2.282 0 0 0 1.342-2.655ZM46.436 126.502a.801.801 0 0 0-.995-.596c-.08.025-1.599.559-2.841 1.756.184.074.37.147.543.251l2.483 1.486c.218.13.416.285.601.452.474-1.667.225-3.267.21-3.349Z"/></g></g><g fill="#750EDD" filter="url(#g)"><g clip-path="url(#h)"><path d="M96.543 133.805a.776.776 0 0 0-.028-1.159 8.033 8.033 0 0 0-2.6-1.376c.157.451.263.92.24 1.406l-.075 1.609a3.743 3.743 0 0 1-.225 1.075 7.91 7.91 0 0 0 2.688-1.555ZM82.284 117.024a.778.778 0 0 0-1.151-.135 7.908 7.908 0 0 0-1.8 2.536 3.778 3.778 0 0 1 1.113-.128l1.588.073c.487.023.945.172 1.38.371a8.033 8.033 0 0 0-1.13-2.717ZM92.527 134.212l.075-1.608a2.273 2.273 0 0 0-2.162-2.374l-2.061-.096 3.921-2.848a2.334 2.334 0 0 0 .354-3.458l-1.95-2.14a2.333 2.333 0 0 0-3.475.031l-3.2 3.639.096-2.06a2.273 2.273 0 0 0-2.163-2.374l-1.589-.074a2.275 2.275 0 0 0-2.342 1.876l-.975 5.572a3.274 3.274 0 0 1-.538 1.302l-1.295 1.855c-1.295 1.855-1.174 4.353.35 6.026 1.488 1.634 3.925 2.008 5.871.96l2.158-1.161a3.27 3.27 0 0 1 1.233-.374l5.64-.539a2.282 2.282 0 0 0 2.052-2.155ZM95.415 120.24c.046-.441-.337-.861-.781-.857-.084 0-1.692.073-3.227.861.155.125.312.248.447.397l1.95 2.14c.17.187.315.393.444.606.935-1.459 1.159-3.063 1.167-3.147Z"/></g><g clip-path="url(#i)"><path d="M78.418 114.163a.776.776 0 0 0-.027-1.159 8.033 8.033 0 0 0-2.6-1.376c.157.45.262.92.24 1.406l-.075 1.609a3.75 3.75 0 0 1-.225 1.075 7.913 7.913 0 0 0 2.687-1.555ZM64.16 97.382a.778.778 0 0 0-1.152-.135 7.916 7.916 0 0 0-1.8 2.536 3.775 3.775 0 0 1 1.114-.128l1.588.073c.487.023.945.172 1.379.371a8.048 8.048 0 0 0-1.129-2.718ZM74.403 114.57l.075-1.608a2.273 2.273 0 0 0-2.162-2.374l-2.062-.096 3.922-2.848a2.334 2.334 0 0 0 .354-3.458l-1.95-2.14a2.334 2.334 0 0 0-3.475.031l-3.2 3.639.096-2.06a2.273 2.273 0 0 0-2.163-2.374l-1.589-.074a2.275 2.275 0 0 0-2.342 1.876l-.975 5.572a3.28 3.28 0 0 1-.538 1.302l-1.295 1.855c-1.295 1.855-1.174 4.353.35 6.026 1.488 1.634 3.924 2.008 5.871.96l2.157-1.161a3.27 3.27 0 0 1 1.234-.374l5.64-.539a2.282 2.282 0 0 0 2.052-2.155ZM77.291 100.598a.801.801 0 0 0-.781-.857c-.084 0-1.692.073-3.227.861.155.125.311.248.447.397l1.95 2.14c.17.187.315.392.444.606.935-1.459 1.158-3.063 1.167-3.147Z"/></g></g><g fill="#750EDD" filter="url(#j)"><g clip-path="url(#k)"><path d="M122.5 122.46a.777.777 0 0 0 .339-1.109 8.064 8.064 0 0 0-2.036-2.124c.007.477-.04.956-.215 1.411l-.577 1.503a3.73 3.73 0 0 1-.551.95 7.911 7.911 0 0 0 3.04-.631ZM114.243 102.046a.778.778 0 0 0-1.051-.49 7.913 7.913 0 0 0-2.507 1.841c.368.026.738.091 1.097.229l1.485.568c.455.176.843.461 1.193.787a8.055 8.055 0 0 0-.217-2.935ZM118.56 121.584l.577-1.503a2.272 2.272 0 0 0-1.306-2.933l-1.927-.74 4.619-1.47a2.334 2.334 0 0 0 1.423-3.171l-1.177-2.644a2.334 2.334 0 0 0-3.309-1.065l-4.183 2.449.739-1.926a2.272 2.272 0 0 0-1.306-2.933l-1.485-.57a2.273 2.273 0 0 0-2.813 1.044l-2.678 4.982a3.283 3.283 0 0 1-.92 1.068l-1.813 1.353c-1.813 1.353-2.484 3.763-1.563 5.83.899 2.019 3.094 3.141 5.272 2.758l2.412-.423a3.252 3.252 0 0 1 1.289.032l5.524 1.262a2.281 2.281 0 0 0 2.625-1.4ZM125.696 109.229a.802.802 0 0 0-.472-1.06c-.08-.025-1.63-.462-3.334-.197.108.167.217.334.299.518l1.178 2.644c.103.231.176.472.231.715 1.346-1.091 2.063-2.543 2.098-2.62Z"/></g><g clip-path="url(#l)"><path d="M111.472 98.115a.777.777 0 0 0 .339-1.11 8.04 8.04 0 0 0-2.035-2.123c.007.477-.041.956-.215 1.41l-.577 1.504a3.75 3.75 0 0 1-.552.95 7.914 7.914 0 0 0 3.04-.63ZM103.215 77.7a.778.778 0 0 0-1.051-.49 7.916 7.916 0 0 0-2.506 1.842c.368.026.737.09 1.097.229l1.485.568c.455.175.843.461 1.192.787a8.028 8.028 0 0 0-.217-2.935ZM107.532 97.24l.578-1.505a2.273 2.273 0 0 0-1.306-2.932l-1.927-.74 4.619-1.47a2.334 2.334 0 0 0 1.423-3.172l-1.178-2.644a2.333 2.333 0 0 0-3.308-1.064l-4.183 2.448.739-1.925a2.273 2.273 0 0 0-1.306-2.934l-1.485-.57a2.274 2.274 0 0 0-2.813 1.045l-2.678 4.982a3.281 3.281 0 0 1-.92 1.067l-1.813 1.354c-1.813 1.353-2.484 3.763-1.564 5.83.9 2.019 3.095 3.14 5.272 2.758l2.413-.424c.43-.075.864-.064 1.289.033l5.524 1.262a2.28 2.28 0 0 0 2.624-1.4ZM114.668 84.884a.802.802 0 0 0-.472-1.06c-.079-.026-1.629-.462-3.334-.197.108.167.218.333.3.517l1.177 2.645c.103.231.176.472.232.715 1.346-1.091 2.063-2.544 2.097-2.62Z"/></g></g><g fill="#750EDD" filter="url(#m)"><g clip-path="url(#n)"><path d="M150.658 121.838a.776.776 0 0 0 .654-.957 8.045 8.045 0 0 0-1.309-2.635c-.135.458-.323.9-.625 1.282l-1 1.263a3.763 3.763 0 0 1-.81.742 7.934 7.934 0 0 0 3.09.305ZM148.872 99.89a.779.779 0 0 0-.857-.782c-.08.008-1.534.169-2.942 1.009.344.135.677.307.979.546l1.247.985c.382.303.667.692.903 1.107a8.036 8.036 0 0 0 .67-2.866ZM147.159 119.825l1-1.262a2.272 2.272 0 0 0-.371-3.189l-1.618-1.281 4.847-.025a2.334 2.334 0 0 0 2.305-2.602l-.334-2.875a2.335 2.335 0 0 0-2.841-2.003l-4.722 1.088 1.28-1.617a2.273 2.273 0 0 0-.371-3.19l-1.248-.987a2.273 2.273 0 0 0-2.996.157l-4.043 3.955a3.275 3.275 0 0 1-1.197.744l-2.134.751c-2.134.75-3.494 2.85-3.233 5.097.255 2.196 2.016 3.922 4.208 4.206l2.43.317c.433.056.843.196 1.22.415l4.895 2.854c.97.565 2.226.327 2.923-.553ZM157.658 110.164a.802.802 0 0 0-.134-1.152c-.069-.048-1.417-.928-3.124-1.184.054.192.109.384.132.584l.334 2.875c.03.252.027.503.008.752 1.61-.64 2.728-1.812 2.784-1.875Z"/></g><g clip-path="url(#o)"><path d="M147.401 95.31a.777.777 0 0 0 .655-.957 8.045 8.045 0 0 0-1.309-2.634c-.135.457-.324.9-.626 1.282l-.999 1.262a3.764 3.764 0 0 1-.81.742 7.912 7.912 0 0 0 3.089.306ZM145.615 73.362a.778.778 0 0 0-.856-.782 7.91 7.91 0 0 0-2.942 1.01c.343.134.676.306.978.545l1.248.986c.381.303.666.692.903 1.107a8.048 8.048 0 0 0 .669-2.866ZM143.903 93.298l.999-1.263a2.273 2.273 0 0 0-.37-3.188l-1.619-1.281 4.848-.025a2.334 2.334 0 0 0 2.305-2.602l-.335-2.875a2.333 2.333 0 0 0-2.84-2.003l-4.723 1.088 1.281-1.618a2.274 2.274 0 0 0-.371-3.19l-1.248-.986a2.273 2.273 0 0 0-2.996.156l-4.044 3.956c-.338.33-.751.587-1.197.744l-2.134.75c-2.134.75-3.493 2.85-3.232 5.098.255 2.195 2.015 3.921 4.208 4.206l2.429.316a3.26 3.26 0 0 1 1.22.416l4.896 2.853c.97.566 2.226.328 2.923-.552ZM154.401 83.637a.801.801 0 0 0-.134-1.152c-.068-.049-1.417-.928-3.123-1.184.053.192.108.383.132.584l.334 2.875c.029.251.027.503.007.751 1.611-.639 2.729-1.811 2.784-1.874Z"/></g></g><g fill="#750EDD" filter="url(#p)"><g clip-path="url(#q)"><path d="M177.14 125.048a.777.777 0 0 0 .923-.702 8.042 8.042 0 0 0-.412-2.913c-.273.391-.591.752-.998 1.019l-1.347.883a3.741 3.741 0 0 1-1.002.449 7.902 7.902 0 0 0 2.836 1.264ZM182.363 103.656a.778.778 0 0 0-.567-1.012 7.91 7.91 0 0 0-3.11.03c.284.236.546.505.757.827l.873 1.328c.267.408.415.867.509 1.335a8.052 8.052 0 0 0 1.538-2.508ZM174.454 122.035l1.346-.883a2.273 2.273 0 0 0 .654-3.143l-1.132-1.726 4.608 1.504a2.333 2.333 0 0 0 3.007-1.742l.589-2.834a2.334 2.334 0 0 0-2.064-2.797l-4.825-.456 1.725-1.131a2.273 2.273 0 0 0 .654-3.144l-.873-1.33a2.275 2.275 0 0 0-2.893-.796l-5.084 2.48c-.426.207-.899.32-1.371.328l-2.261.04c-2.262.039-4.214 1.603-4.675 3.818-.45 2.164.677 4.357 2.668 5.319l2.206 1.066c.393.19.738.452 1.027.778l3.746 4.252a2.282 2.282 0 0 0 2.948.397ZM187.462 116.176a.802.802 0 0 0 .237-1.136c-.05-.067-1.053-1.327-2.591-2.108-.01.199-.018.398-.059.595l-.589 2.834a3.908 3.908 0 0 1-.23.716c1.73-.099 3.16-.859 3.232-.901Z"/></g><g clip-path="url(#r)"><path d="M182.411 98.847a.777.777 0 0 0 .923-.703 8.056 8.056 0 0 0-.411-2.913c-.273.392-.591.753-.998 1.02l-1.347.883a3.746 3.746 0 0 1-1.003.45 7.92 7.92 0 0 0 2.836 1.263ZM187.635 77.454a.778.778 0 0 0-.567-1.011 7.915 7.915 0 0 0-3.11.03c.284.236.545.504.757.827l.873 1.328c.267.408.415.867.508 1.335a8.056 8.056 0 0 0 1.539-2.509ZM179.725 95.834l1.347-.883a2.272 2.272 0 0 0 .653-3.144l-1.132-1.725 4.608 1.504a2.334 2.334 0 0 0 3.008-1.742l.589-2.834a2.333 2.333 0 0 0-2.064-2.797l-4.825-.456 1.725-1.131a2.273 2.273 0 0 0 .653-3.144l-.873-1.33a2.274 2.274 0 0 0-2.893-.796l-5.084 2.48c-.425.207-.898.32-1.37.328l-2.262.04c-2.262.039-4.214 1.603-4.674 3.818-.45 2.164.676 4.357 2.667 5.319l2.206 1.065c.393.19.739.453 1.027.78l3.746 4.25a2.281 2.281 0 0 0 2.948.398ZM192.734 89.975a.802.802 0 0 0 .236-1.136c-.05-.068-1.052-1.327-2.591-2.108-.01.199-.018.398-.059.595l-.589 2.834a3.831 3.831 0 0 1-.23.716c1.73-.1 3.16-.86 3.233-.901Z"/></g></g><g fill="#750EDD" filter="url(#s)"><g clip-path="url(#t)"><path d="M202.206 137.271a.777.777 0 0 0 1.06-.47 8.028 8.028 0 0 0 .274-2.929c-.356.318-.749.595-1.207.761l-1.515.547a3.723 3.723 0 0 1-1.079.205 7.907 7.907 0 0 0 2.467 1.886ZM212.238 117.668a.779.779 0 0 0-.317-1.116 7.933 7.933 0 0 0-3.033-.69c.222.296.414.617.545.98l.542 1.494c.165.459.203.939.186 1.417a8.046 8.046 0 0 0 2.077-2.085ZM200.29 133.718l1.515-.548a2.272 2.272 0 0 0 1.363-2.906l-.702-1.941 4.134 2.53a2.335 2.335 0 0 0 3.33-.999l1.228-2.621a2.333 2.333 0 0 0-1.36-3.198l-4.589-1.561 1.94-.701a2.272 2.272 0 0 0 1.363-2.907l-.541-1.496a2.274 2.274 0 0 0-2.63-1.444l-5.52 1.236a3.282 3.282 0 0 1-1.409.002l-2.21-.485c-2.209-.485-4.471.585-5.431 2.633-.939 2.001-.35 4.396 1.364 5.792l1.899 1.547c.339.276.614.611.819.995l2.661 5.003a2.282 2.282 0 0 0 2.776 1.069ZM214.302 131.029a.803.803 0 0 0 .492-1.051c-.033-.077-.716-1.534-2.032-2.65-.056.191-.11.383-.196.566l-1.229 2.62a3.807 3.807 0 0 1-.389.643c1.706.304 3.273-.104 3.354-.128Z"/></g><g clip-path="url(#u)"><path d="M213.397 113.001a.777.777 0 0 0 1.061-.47 8.053 8.053 0 0 0 .274-2.929c-.356.318-.749.595-1.207.761l-1.515.547a3.757 3.757 0 0 1-1.079.205 7.92 7.92 0 0 0 2.466 1.886ZM223.43 93.398a.778.778 0 0 0-.317-1.115 7.92 7.92 0 0 0-3.033-.69c.221.295.414.616.545.979l.542 1.494c.165.459.203.939.186 1.417a8.053 8.053 0 0 0 2.077-2.085ZM211.482 109.448l1.514-.548a2.27 2.27 0 0 0 1.363-2.906l-.701-1.941 4.134 2.53a2.334 2.334 0 0 0 3.329-.999l1.229-2.621a2.333 2.333 0 0 0-1.36-3.198l-4.589-1.56 1.94-.702a2.272 2.272 0 0 0 1.363-2.907l-.541-1.496a2.274 2.274 0 0 0-2.63-1.444l-5.52 1.236a3.282 3.282 0 0 1-1.409.002l-2.21-.485c-2.209-.485-4.471.585-5.431 2.633-.939 2.001-.35 4.395 1.364 5.792l1.899 1.547c.339.276.614.611.819.995l2.661 5.003a2.282 2.282 0 0 0 2.776 1.069ZM225.493 106.759a.802.802 0 0 0 .493-1.051c-.033-.077-.717-1.534-2.032-2.65-.056.191-.11.383-.196.566l-1.229 2.62a3.807 3.807 0 0 1-.389.643c1.706.304 3.273-.104 3.353-.128Z"/></g></g><g fill="#750EDD" filter="url(#v)"><g clip-path="url(#w)"><path d="M243.143 145.029a.778.778 0 0 0 .892-.742 8.077 8.077 0 0 0-.538-2.893c-.256.404-.558.778-.953 1.062l-1.307.941c-.306.22-.639.375-.982.493a7.922 7.922 0 0 0 2.888 1.139ZM247.43 123.429a.778.778 0 0 0-.61-.986 7.919 7.919 0 0 0-3.106.166c.294.224.567.48.792.793l.93 1.289c.284.396.452.848.566 1.312a8.032 8.032 0 0 0 1.428-2.574ZM240.329 142.136l1.307-.941a2.272 2.272 0 0 0 .515-3.169l-1.205-1.675 4.669 1.302a2.332 2.332 0 0 0 2.928-1.871l.465-2.857a2.334 2.334 0 0 0-2.184-2.704l-4.84-.246 1.674-1.205a2.273 2.273 0 0 0 .516-3.169l-.93-1.291a2.273 2.273 0 0 0-2.925-.669l-4.971 2.698c-.416.226-.884.36-1.355.388l-2.258.138c-2.258.138-4.14 1.786-4.504 4.019-.355 2.181.866 4.323 2.897 5.197l2.25.969c.401.173.758.42 1.06.733l3.928 4.084a2.283 2.283 0 0 0 2.963.269ZM253.07 135.716c.374-.239.466-.8.186-1.145-.052-.066-1.109-1.28-2.68-1.994-.001.2-.001.399-.033.598l-.465 2.857c-.041.25-.112.491-.198.725 1.724-.174 3.119-.996 3.19-1.041Z"/></g><g clip-path="url(#x)"><path d="M247.268 118.622a.777.777 0 0 0 .892-.742 8.073 8.073 0 0 0-.538-2.892c-.256.403-.558.778-.953 1.062l-1.307.941c-.306.22-.639.374-.982.492a7.922 7.922 0 0 0 2.888 1.139ZM251.555 97.023a.778.778 0 0 0-.61-.986 7.919 7.919 0 0 0-3.106.166c.294.223.567.48.792.793l.93 1.289c.284.396.452.847.566 1.311a8.032 8.032 0 0 0 1.428-2.573ZM244.454 115.729l1.307-.941a2.27 2.27 0 0 0 .515-3.168l-1.205-1.675 4.669 1.302a2.332 2.332 0 0 0 2.928-1.872l.465-2.856a2.334 2.334 0 0 0-2.184-2.705l-4.84-.245 1.674-1.205a2.273 2.273 0 0 0 .516-3.17l-.93-1.29a2.274 2.274 0 0 0-2.925-.67l-4.971 2.7a3.292 3.292 0 0 1-1.355.387l-2.258.138c-2.258.138-4.14 1.785-4.504 4.019-.355 2.181.866 4.323 2.897 5.197l2.25.968c.401.173.758.421 1.06.734l3.928 4.084a2.281 2.281 0 0 0 2.963.268ZM257.195 109.309a.801.801 0 0 0 .186-1.145c-.052-.065-1.109-1.28-2.68-1.993-.001.199-.001.399-.033.598l-.465 2.856c-.041.25-.112.492-.198.726 1.724-.175 3.119-.997 3.19-1.042Z"/></g></g><g fill="#750EDD" filter="url(#y)"><g clip-path="url(#z)"><path d="M286.495 136.017a.777.777 0 0 0 .597-.994 8.064 8.064 0 0 0-1.462-2.553c-.108.465-.271.918-.549 1.317l-.924 1.319c-.216.309-.48.564-.765.789a7.928 7.928 0 0 0 3.103.122ZM283.416 114.212a.78.78 0 0 0-.902-.73 7.929 7.929 0 0 0-2.877 1.182c.351.114.694.266 1.009.487l1.304.91c.399.28.706.651.967 1.052a8.068 8.068 0 0 0 .499-2.901ZM282.883 134.214l.924-1.319a2.274 2.274 0 0 0-.559-3.162l-1.691-1.183 4.838-.311a2.334 2.334 0 0 0 2.147-2.733l-.504-2.85a2.334 2.334 0 0 0-2.953-1.833l-4.651 1.365 1.183-1.69a2.274 2.274 0 0 0-.558-3.162l-1.304-.911a2.273 2.273 0 0 0-2.982.333l-3.803 4.187c-.318.35-.716.631-1.151.814l-2.086.875c-2.086.875-3.319 3.051-2.926 5.279.385 2.177 2.244 3.796 4.449 3.951l2.444.172a3.28 3.28 0 0 1 1.243.342l5.055 2.56a2.28 2.28 0 0 0 2.885-.724ZM292.793 123.95a.801.801 0 0 0-.201-1.142c-.071-.044-1.47-.843-3.188-.998.064.189.131.377.166.575l.503 2.851c.044.249.057.5.052.75 1.57-.734 2.617-1.97 2.668-2.036Z"/></g><g clip-path="url(#A)"><path d="M281.678 109.729a.779.779 0 0 0 .597-.995 8.066 8.066 0 0 0-1.463-2.553c-.108.465-.27.918-.548 1.317l-.924 1.32c-.216.308-.48.564-.765.788 1.588.4 3.023.138 3.103.123ZM278.599 87.924a.779.779 0 0 0-.902-.73 7.918 7.918 0 0 0-2.877 1.181c.351.114.694.266 1.009.487l1.304.91c.399.28.706.651.967 1.052a8.063 8.063 0 0 0 .499-2.9ZM278.066 107.926l.923-1.32a2.271 2.271 0 0 0-.558-3.161l-1.691-1.183 4.837-.311a2.334 2.334 0 0 0 2.148-2.734l-.504-2.85a2.333 2.333 0 0 0-2.953-1.832l-4.651 1.365 1.183-1.69a2.274 2.274 0 0 0-.559-3.162l-1.303-.912a2.274 2.274 0 0 0-2.982.333l-3.803 4.188c-.318.35-.716.63-1.151.813l-2.086.875c-2.086.875-3.319 3.051-2.926 5.279.385 2.177 2.244 3.796 4.449 3.951l2.444.172c.436.031.854.147 1.243.343l5.055 2.56a2.282 2.282 0 0 0 2.885-.724ZM287.976 97.662a.801.801 0 0 0-.202-1.143c-.071-.044-1.469-.842-3.187-.997.064.188.131.376.166.575l.503 2.85c.044.25.057.5.052.75 1.57-.733 2.616-1.97 2.668-2.035Z"/></g></g><g fill="#750EDD" filter="url(#B)"><g clip-path="url(#C)"><path d="M321.876 111.799a.777.777 0 0 0 .305-1.119 8.063 8.063 0 0 0-2.1-2.061c.022.477-.011.957-.171 1.416l-.531 1.521a3.749 3.749 0 0 1-.522.966 7.92 7.92 0 0 0 3.019-.723ZM313 91.646a.778.778 0 0 0-1.066-.458 7.926 7.926 0 0 0-2.449 1.917c.369.015.74.068 1.104.195l1.501.523c.46.161.857.435 1.216.75a8.032 8.032 0 0 0-.306-2.927ZM317.911 111.043l.531-1.52a2.273 2.273 0 0 0-1.395-2.892l-1.948-.68 4.572-1.611a2.333 2.333 0 0 0 1.325-3.213l-1.257-2.607a2.333 2.333 0 0 0-3.34-.963l-4.106 2.575.68-1.948a2.273 2.273 0 0 0-1.395-2.892l-1.502-.524a2.274 2.274 0 0 0-2.78 1.13l-2.524 5.061a3.286 3.286 0 0 1-.888 1.095l-1.77 1.408c-1.771 1.408-2.368 3.837-1.385 5.875.96 1.991 3.189 3.045 5.354 2.596l2.398-.497c.428-.088.862-.09 1.289-.007l5.56 1.093a2.281 2.281 0 0 0 2.581-1.479ZM324.667 98.476c.169-.41-.077-.922-.504-1.045-.081-.023-1.643-.412-3.339-.095.113.163.228.327.316.508l1.257 2.607c.11.228.19.467.253.708 1.313-1.132 1.985-2.605 2.017-2.683Z"/></g><g clip-path="url(#D)"><path d="M310.111 87.8a.777.777 0 0 0 .305-1.118 8.04 8.04 0 0 0-2.099-2.06c.022.476-.011.956-.172 1.415l-.531 1.52a3.745 3.745 0 0 1-.522.967 7.912 7.912 0 0 0 3.019-.723ZM301.235 67.648a.778.778 0 0 0-1.065-.458 7.915 7.915 0 0 0-2.449 1.917 3.77 3.77 0 0 1 1.103.195l1.502.523c.46.161.856.435 1.215.75a8.031 8.031 0 0 0-.306-2.927ZM306.146 87.045l.531-1.52a2.272 2.272 0 0 0-1.394-2.892l-1.949-.68 4.572-1.611a2.334 2.334 0 0 0 1.326-3.213l-1.258-2.607a2.333 2.333 0 0 0-3.339-.963l-4.106 2.575.68-1.948a2.273 2.273 0 0 0-1.395-2.892l-1.502-.524a2.274 2.274 0 0 0-2.78 1.13l-2.525 5.061a3.277 3.277 0 0 1-.887 1.095l-1.771 1.408c-1.771 1.408-2.368 3.837-1.385 5.875.96 1.99 3.189 3.045 5.354 2.596l2.399-.497a3.26 3.26 0 0 1 1.289-.007l5.56 1.093a2.28 2.28 0 0 0 2.58-1.479ZM312.902 74.478a.801.801 0 0 0-.504-1.045c-.08-.023-1.643-.412-3.339-.095.114.163.228.327.316.508l1.257 2.607c.11.228.191.466.254.708 1.312-1.132 1.984-2.605 2.016-2.683Z"/></g></g><g fill="#750EDD" filter="url(#E)"><g clip-path="url(#F)"><path d="M348.792 74.924a.777.777 0 0 0-.062-1.159 8.027 8.027 0 0 0-2.639-1.298c.17.445.289.912.281 1.398l-.027 1.61a3.784 3.784 0 0 1-.193 1.082 7.924 7.924 0 0 0 2.64-1.633ZM334.045 58.57a.779.779 0 0 0-1.156-.1 7.94 7.94 0 0 0-1.724 2.588 3.772 3.772 0 0 1 1.109-.16l1.59.025c.487.008.949.144 1.389.33a8.055 8.055 0 0 0-1.208-2.683ZM344.79 75.45l.028-1.611a2.273 2.273 0 0 0-2.231-2.308l-2.064-.036 3.836-2.963a2.333 2.333 0 0 0 .252-3.466l-2.012-2.082a2.333 2.333 0 0 0-3.473.133l-3.092 3.733.035-2.063a2.272 2.272 0 0 0-2.231-2.309l-1.591-.026a2.273 2.273 0 0 0-2.285 1.944l-.81 5.598a3.289 3.289 0 0 1-.5 1.317l-1.24 1.893c-1.24 1.892-1.045 4.386.527 6.013 1.536 1.589 3.983 1.891 5.898.786l2.122-1.224c.379-.218.79-.356 1.222-.41l5.622-.706a2.281 2.281 0 0 0 1.987-2.214ZM347.265 61.398a.803.803 0 0 0-.807-.834c-.083.003-1.689.123-3.2.956.159.12.319.238.459.383l2.012 2.082c.176.182.327.383.462.593.891-1.486 1.068-3.097 1.074-3.18Z"/></g><g clip-path="url(#G)"><path d="M330.096 55.825a.777.777 0 0 0-.062-1.158 8.028 8.028 0 0 0-2.639-1.299c.17.446.289.912.281 1.398l-.028 1.611a3.748 3.748 0 0 1-.192 1.081 7.922 7.922 0 0 0 2.64-1.633ZM315.349 39.471a.779.779 0 0 0-1.156-.1 7.938 7.938 0 0 0-1.724 2.588 3.778 3.778 0 0 1 1.109-.16l1.59.025c.487.009.949.144 1.389.33a8.055 8.055 0 0 0-1.208-2.683ZM326.094 56.35l.027-1.61a2.272 2.272 0 0 0-2.23-2.308l-2.064-.035 3.836-2.963a2.334 2.334 0 0 0 .252-3.467l-2.012-2.081a2.333 2.333 0 0 0-3.473.133l-3.092 3.732.035-2.063a2.272 2.272 0 0 0-2.231-2.308l-1.591-.027a2.273 2.273 0 0 0-2.285 1.944l-.811 5.598c-.068.468-.24.923-.499 1.318l-1.24 1.892c-1.24 1.892-1.045 4.386.527 6.013 1.536 1.59 3.983 1.892 5.898.787l2.122-1.224c.379-.218.79-.356 1.222-.411l5.622-.706a2.281 2.281 0 0 0 1.987-2.213ZM328.569 42.3a.802.802 0 0 0-.807-.835c-.083.003-1.689.123-3.2.956.159.12.319.239.459.384l2.012 2.081c.176.182.326.383.462.593.891-1.486 1.068-3.096 1.074-3.18Z"/></g></g><g fill="#750EDD" filter="url(#H)"><g clip-path="url(#I)"><path d="M366.058 35.063a.778.778 0 0 0-.324-1.114 8.044 8.044 0 0 0-2.866-.663c.268.395.49.822.593 1.297l.339 1.575c.08.368.087.735.059 1.097a7.932 7.932 0 0 0 2.199-2.192ZM347.976 22.494a.778.778 0 0 0-1.148.165 7.909 7.909 0 0 0-1.09 2.913c.322-.18.666-.327 1.043-.409l1.554-.337c.476-.102.957-.075 1.428.006a8.054 8.054 0 0 0-1.787-2.338ZM362.28 36.486l-.339-1.575a2.272 2.272 0 0 0-2.698-1.74l-2.017.435 3.061-3.758a2.334 2.334 0 0 0-.544-3.433l-2.433-1.569a2.333 2.333 0 0 0-3.351.92l-2.162 4.338-.435-2.016a2.273 2.273 0 0 0-2.698-1.74l-1.555.335a2.273 2.273 0 0 0-1.783 2.413l.485 5.636c.04.471-.025.954-.187 1.397l-.777 2.125c-.776 2.124-.019 4.508 1.882 5.735 1.857 1.198 4.309.936 5.922-.576l1.788-1.675a3.26 3.26 0 0 1 1.096-.678l5.314-1.966a2.28 2.28 0 0 0 1.431-2.608ZM361.492 22.24a.8.8 0 0 0-.974-.63c-.081.023-1.617.506-2.899 1.66.182.08.365.16.534.27l2.432 1.568c.213.138.406.3.586.472.529-1.65.335-3.257.321-3.34Z"/></g><g clip-path="url(#J)"><path d="M343.506 20.72a.777.777 0 0 0-.323-1.114 8.051 8.051 0 0 0-2.866-.664c.267.396.489.822.592 1.298l.34 1.574c.079.369.087.736.058 1.098a7.93 7.93 0 0 0 2.199-2.192ZM325.424 8.151a.778.778 0 0 0-1.148.165 7.909 7.909 0 0 0-1.09 2.913c.322-.18.667-.328 1.043-.409l1.554-.337c.476-.102.957-.075 1.428.006a8.035 8.035 0 0 0-1.787-2.338ZM339.729 22.142l-.34-1.574a2.272 2.272 0 0 0-2.698-1.74l-2.017.435 3.061-3.758a2.333 2.333 0 0 0-.544-3.433l-2.432-1.569a2.334 2.334 0 0 0-3.352.92l-2.161 4.338-.436-2.016a2.272 2.272 0 0 0-2.698-1.74l-1.555.335a2.275 2.275 0 0 0-1.783 2.413l.485 5.636c.04.471-.025.954-.187 1.397l-.776 2.124c-.777 2.125-.02 4.51 1.881 5.735 1.858 1.199 4.309.936 5.922-.575l1.788-1.675a3.26 3.26 0 0 1 1.096-.678l5.315-1.967a2.283 2.283 0 0 0 1.431-2.608ZM338.941 7.897c-.07-.44-.547-.747-.975-.63-.081.023-1.617.505-2.899 1.66.182.08.365.16.534.27l2.433 1.568c.213.137.405.299.585.472.53-1.65.335-3.258.322-3.34Z"/></g></g><defs><clipPath id="k"><path fill="#fff" d="m120.261 96.414 10.79 24.233-24.233 10.79-10.79-24.233z"/></clipPath><clipPath id="J"><path fill="#fff" d="m327.379.144 22.292 14.379-14.38 22.291L313 22.435z"/></clipPath><clipPath id="I"><path fill="#fff" d="m349.931 14.487 22.292 14.379-14.38 22.292-22.291-14.38z"/></clipPath><clipPath id="G"><path fill="#fff" d="m319.075 32.119 18.435 19.074-19.075 18.435L300 50.553z"/></clipPath><clipPath id="F"><path fill="#fff" d="m337.771 51.217 18.435 19.075-19.075 18.435-18.435-19.075z"/></clipPath><clipPath id="D"><path fill="#fff" d="m307.079 61.834 11.524 23.893-23.893 11.525-11.524-23.893z"/></clipPath><clipPath id="C"><path fill="#fff" d="m318.844 85.832 11.524 23.893-23.893 11.525-11.524-23.893z"/></clipPath><clipPath id="A"><path fill="#fff" d="m285.8 83.913 4.614 26.122-26.123 4.614-4.614-26.122z"/></clipPath><clipPath id="z"><path fill="#fff" d="m290.617 110.201 4.614 26.123-26.123 4.614-4.614-26.123z"/></clipPath><clipPath id="x"><path fill="#fff" d="m259.676 95.612-4.262 26.182-26.182-4.262 4.262-26.182z"/></clipPath><clipPath id="w"><path fill="#fff" d="m255.551 122.018-4.262 26.182-26.182-4.262 4.262-26.182z"/></clipPath><clipPath id="u"><path fill="#fff" d="m231.627 94.263-11.263 24.017-24.017-11.263L207.61 83z"/></clipPath><clipPath id="b"><path fill="#fff" d="m36.172 160.994 26.018 5.172-5.172 26.018L31 187.012z"/></clipPath><clipPath id="c"><path fill="#fff" d="m9.926 155.951 26.017 5.172-5.172 26.018-26.017-5.172z"/></clipPath><clipPath id="e"><path fill="#fff" d="m57.642 132.718 22.764 13.62-13.62 22.764-22.764-13.62z"/></clipPath><clipPath id="f"><path fill="#fff" d="m34.62 119.142 22.764 13.62-13.62 22.764L21 141.906z"/></clipPath><clipPath id="h"><path fill="#fff" d="m86.226 109.784 17.864 19.61-19.61 17.864-17.864-19.61z"/></clipPath><clipPath id="i"><path fill="#fff" d="m68.102 90.142 17.864 19.61-19.61 17.864-17.865-19.61z"/></clipPath><clipPath id="t"><path fill="#fff" d="m220.436 118.533-11.263 24.017-24.017-11.262 11.263-24.018z"/></clipPath><clipPath id="l"><path fill="#fff" d="m109.234 72.068 10.79 24.234-24.233 10.79L85 82.859z"/></clipPath><clipPath id="n"><path fill="#fff" d="m156.297 96.31 3.064 26.35-26.35 3.064-3.064-26.35z"/></clipPath><clipPath id="o"><path fill="#fff" d="m153.041 69.783 3.064 26.35-26.35 3.063-3.064-26.35z"/></clipPath><clipPath id="q"><path fill="#fff" d="m190.538 102.6-5.398 25.972-25.972-5.398 5.398-25.972z"/></clipPath><clipPath id="r"><path fill="#fff" d="m195.81 76.398-5.398 25.972-25.972-5.398L169.838 71z"/></clipPath><filter id="s" width="54.472" height="67.55" x="181.155" y="83" color-interpolation-filters="sRGB" filterUnits="userSpaceOnUse"><feFlood flood-opacity="0" result="BackgroundImageFix"/><feColorMatrix in="SourceAlpha" result="hardAlpha" values="0 0 0 0 0 0 0 0 0 0 0 0 0 0 0 0 0 0 127 0"/><feOffset dy="4"/><feGaussianBlur stdDeviation="2"/><feComposite in2="hardAlpha" operator="out"/><feColorMatrix values="0 0 0 0 0 0 0 0 0 0 0 0 0 0 0 0 0 0 0.5 0"/><feBlend in2="BackgroundImageFix" result="effect1_dropShadow_51_61"/><feBlend in="SourceGraphic" in2="effect1_dropShadow_51_61" result="shape"/></filter><filter id="d" width="67.406" height="57.96" x="17" y="119.142" color-interpolation-filters="sRGB" filterUnits="userSpaceOnUse"><feFlood flood-opacity="0" result="BackgroundImageFix"/><feColorMatrix in="SourceAlpha" result="hardAlpha" values="0 0 0 0 0 0 0 0 0 0 0 0 0 0 0 0 0 0 127 0"/><feOffset dy="4"/><feGaussianBlur stdDeviation="2"/><feComposite in2="hardAlpha" operator="out"/><feColorMatrix values="0 0 0 0 0 0 0 0 0 0 0 0 0 0 0 0 0 0 0.5 0"/><feBlend in2="BackgroundImageFix" result="effect1_dropShadow_51_61"/><feBlend in="SourceGraphic" in2="effect1_dropShadow_51_61" result="shape"/></filter><filter id="E" width="64.206" height="64.608" x="296" y="32.119" color-interpolation-filters="sRGB" filterUnits="userSpaceOnUse"><feFlood flood-opacity="0" result="BackgroundImageFix"/><feColorMatrix in="SourceAlpha" result="hardAlpha" values="0 0 0 0 0 0 0 0 0 0 0 0 0 0 0 0 0 0 127 0"/><feOffset dy="4"/><feGaussianBlur stdDeviation="2"/><feComposite in2="hardAlpha" operator="out"/><feColorMatrix values="0 0 0 0 0 0 0 0 0 0 0 0 0 0 0 0 0 0 0.5 0"/><feBlend in2="BackgroundImageFix" result="effect1_dropShadow_51_61"/><feBlend in="SourceGraphic" in2="effect1_dropShadow_51_61" result="shape"/></filter><filter id="B" width="55.182" height="67.415" x="279.186" y="61.834" color-interpolation-filters="sRGB" filterUnits="userSpaceOnUse"><feFlood flood-opacity="0" result="BackgroundImageFix"/><feColorMatrix in="SourceAlpha" result="hardAlpha" values="0 0 0 0 0 0 0 0 0 0 0 0 0 0 0 0 0 0 127 0"/><feOffset dy="4"/><feGaussianBlur stdDeviation="2"/><feComposite in2="hardAlpha" operator="out"/><feColorMatrix values="0 0 0 0 0 0 0 0 0 0 0 0 0 0 0 0 0 0 0.5 0"/><feBlend in2="BackgroundImageFix" result="effect1_dropShadow_51_61"/><feBlend in="SourceGraphic" in2="effect1_dropShadow_51_61" result="shape"/></filter><filter id="y" width="43.554" height="65.025" x="255.677" y="83.913" color-interpolation-filters="sRGB" filterUnits="userSpaceOnUse"><feFlood flood-opacity="0" result="BackgroundImageFix"/><feColorMatrix in="SourceAlpha" result="hardAlpha" values="0 0 0 0 0 0 0 0 0 0 0 0 0 0 0 0 0 0 127 0"/><feOffset dy="4"/><feGaussianBlur stdDeviation="2"/><feComposite in2="hardAlpha" operator="out"/><feColorMatrix values="0 0 0 0 0 0 0 0 0 0 0 0 0 0 0 0 0 0 0.5 0"/><feBlend in2="BackgroundImageFix" result="effect1_dropShadow_51_61"/><feBlend in="SourceGraphic" in2="effect1_dropShadow_51_61" result="shape"/></filter><filter id="v" width="42.57" height="64.851" x="221.106" y="91.35" color-interpolation-filters="sRGB" filterUnits="userSpaceOnUse"><feFlood flood-opacity="0" result="BackgroundImageFix"/><feColorMatrix in="SourceAlpha" result="hardAlpha" values="0 0 0 0 0 0 0 0 0 0 0 0 0 0 0 0 0 0 127 0"/><feOffset dy="4"/><feGaussianBlur stdDeviation="2"/><feComposite in2="hardAlpha" operator="out"/><feColorMatrix values="0 0 0 0 0 0 0 0 0 0 0 0 0 0 0 0 0 0 0.5 0"/><feBlend in2="BackgroundImageFix" result="effect1_dropShadow_51_61"/><feBlend in="SourceGraphic" in2="effect1_dropShadow_51_61" result="shape"/></filter><filter id="H" width="67.223" height="59.015" x="309" y=".144" color-interpolation-filters="sRGB" filterUnits="userSpaceOnUse"><feFlood flood-opacity="0" result="BackgroundImageFix"/><feColorMatrix in="SourceAlpha" result="hardAlpha" values="0 0 0 0 0 0 0 0 0 0 0 0 0 0 0 0 0 0 127 0"/><feOffset dy="4"/><feGaussianBlur stdDeviation="2"/><feComposite in2="hardAlpha" operator="out"/><feColorMatrix values="0 0 0 0 0 0 0 0 0 0 0 0 0 0 0 0 0 0 0.5 0"/><feBlend in2="BackgroundImageFix" result="effect1_dropShadow_51_61"/><feBlend in="SourceGraphic" in2="effect1_dropShadow_51_61" result="shape"/></filter><filter id="p" width="44.642" height="65.572" x="155.167" y="71" color-interpolation-filters="sRGB" filterUnits="userSpaceOnUse"><feFlood flood-opacity="0" result="BackgroundImageFix"/><feColorMatrix in="SourceAlpha" result="hardAlpha" values="0 0 0 0 0 0 0 0 0 0 0 0 0 0 0 0 0 0 127 0"/><feOffset dy="4"/><feGaussianBlur stdDeviation="2"/><feComposite in2="hardAlpha" operator="out"/><feColorMatrix values="0 0 0 0 0 0 0 0 0 0 0 0 0 0 0 0 0 0 0.5 0"/><feBlend in2="BackgroundImageFix" result="effect1_dropShadow_51_61"/><feBlend in="SourceGraphic" in2="effect1_dropShadow_51_61" result="shape"/></filter><filter id="m" width="40.67" height="63.941" x="122.691" y="69.783" color-interpolation-filters="sRGB" filterUnits="userSpaceOnUse"><feFlood flood-opacity="0" result="BackgroundImageFix"/><feColorMatrix in="SourceAlpha" result="hardAlpha" values="0 0 0 0 0 0 0 0 0 0 0 0 0 0 0 0 0 0 127 0"/><feOffset dy="4"/><feGaussianBlur stdDeviation="2"/><feComposite in2="hardAlpha" operator="out"/><feColorMatrix values="0 0 0 0 0 0 0 0 0 0 0 0 0 0 0 0 0 0 0.5 0"/><feBlend in2="BackgroundImageFix" result="effect1_dropShadow_51_61"/><feBlend in="SourceGraphic" in2="effect1_dropShadow_51_61" result="shape"/></filter><filter id="j" width="54.051" height="67.369" x="81" y="72.068" color-interpolation-filters="sRGB" filterUnits="userSpaceOnUse"><feFlood flood-opacity="0" result="BackgroundImageFix"/><feColorMatrix in="SourceAlpha" result="hardAlpha" values="0 0 0 0 0 0 0 0 0 0 0 0 0 0 0 0 0 0 127 0"/><feOffset dy="4"/><feGaussianBlur stdDeviation="2"/><feComposite in2="hardAlpha" operator="out"/><feColorMatrix values="0 0 0 0 0 0 0 0 0 0 0 0 0 0 0 0 0 0 0.5 0"/><feBlend in2="BackgroundImageFix" result="effect1_dropShadow_51_61"/><feBlend in="SourceGraphic" in2="effect1_dropShadow_51_61" result="shape"/></filter><filter id="g" width="63.599" height="65.117" x="44.491" y="90.142" color-interpolation-filters="sRGB" filterUnits="userSpaceOnUse"><feFlood flood-opacity="0" result="BackgroundImageFix"/><feColorMatrix in="SourceAlpha" result="hardAlpha" values="0 0 0 0 0 0 0 0 0 0 0 0 0 0 0 0 0 0 127 0"/><feOffset dy="4"/><feGaussianBlur stdDeviation="2"/><feComposite in2="hardAlpha" operator="out"/><feColorMatrix values="0 0 0 0 0 0 0 0 0 0 0 0 0 0 0 0 0 0 0.5 0"/><feBlend in2="BackgroundImageFix" result="effect1_dropShadow_51_61"/><feBlend in="SourceGraphic" in2="effect1_dropShadow_51_61" result="shape"/></filter><filter id="a" width="65.437" height="44.233" x=".753" y="155.951" color-interpolation-filters="sRGB" filterUnits="userSpaceOnUse"><feFlood flood-opacity="0" result="BackgroundImageFix"/><feColorMatrix in="SourceAlpha" result="hardAlpha" values="0 0 0 0 0 0 0 0 0 0 0 0 0 0 0 0 0 0 127 0"/><feOffset dy="4"/><feGaussianBlur stdDeviation="2"/><feComposite in2="hardAlpha" operator="out"/><feColorMatrix values="0 0 0 0 0 0 0 0 0 0 0 0 0 0 0 0 0 0 0.5 0"/><feBlend in2="BackgroundImageFix" result="effect1_dropShadow_51_61"/><feBlend in="SourceGraphic" in2="effect1_dropShadow_51_61" result="shape"/></filter></defs></svg>