<svg xmlns="http://www.w3.org/2000/svg" viewBox="0 0 512 512"><path d="M386.356 147.404 253.5 67.69l-132.856 79.714c-7.491 4.494-12.144 12.712-12.144 21.448 0 19.295 21.133 31.496 37.881 21.448l104.547-62.728a5 5 0 0 1 5.145 0L360.619 190.3c16.651 9.991 37.881-1.972 37.881-21.448 0-8.735-4.653-16.954-12.144-21.448z" style="fill:#4d1389"/><path d="M386.356 267.404 253.5 187.69l-132.856 79.714c-7.491 4.494-12.144 12.713-12.144 21.447 0 19.296 21.132 31.497 37.881 21.449l104.547-62.729a5 5 0 0 1 5.145 0L360.62 310.3c16.659 9.994 37.881-1.98 37.881-21.448-.001-8.735-4.654-16.954-12.145-21.448zM73.5 66.859c-8.271 0-15 6.729-15 15s6.729 15 15 15 15-6.729 15-15-6.729-15-15-15z" style="fill:#4d1389"/><path d="M386.356 387.404 253.5 307.69l-132.856 79.714c-7.491 4.494-12.144 12.713-12.144 21.447 0 19.296 21.132 31.497 37.881 21.449l104.547-62.729a4.998 4.998 0 0 1 5.145 0L360.62 430.3c3.992 2.395 8.304 3.609 12.814 3.61h.003c13.161 0 25.065-10.524 25.065-25.06-.002-8.733-4.655-16.952-12.146-21.446zM448.5 376.859c-5.514 0-10 4.486-10 10s4.486 10 10 10 10-4.486 10-10c0-5.513-4.486-10-10-10zM443.5 66.859c-13.785 0-25 11.215-25 25s11.215 25 25 25 25-11.215 25-25-11.215-25-25-25z" style="fill:#4d1389"/><circle cx="291.784" cy="40.144" r="10" style="fill:#4d1389"/><circle cx="443.497" cy="211.862" r="10" style="fill:#4d1389"/><circle cx="433.502" cy="331.856" r="10" style="fill:#4d1389"/><circle cx="153.497" cy="61.857" r="10" style="fill:#4d1389"/><circle cx="53.502" cy="201.862" r="10" style="fill:#4d1389"/><circle cx="73.497" cy="351.862" r="10" style="fill:#4d1389"/><circle cx="213.497" cy="471.857" r="10" style="fill:#4d1389"/></svg>