<svg width="39" height="39" viewBox="0 0 39 39" fill="none" xmlns="http://www.w3.org/2000/svg">
<path d="M14.5032 37.3772L2.63086 4.21703L14.5032 37.3772ZM3.46936 6.55859C3.46936 6.55859 8.07994 1.55957 16.089 1.55957C20.964 1.55957 23.1917 4.73651 27.2149 4.73651C31.2358 4.73651 35.0984 1.55957 35.0984 1.55957V22.207C35.0984 22.207 32.1944 23.7958 28.7445 23.7958C25.2961 23.7958 23.889 22.207 19.2152 22.207C14.7825 22.207 10.6157 26.5094 10.6157 26.5094L3.46936 6.55859Z" stroke="#777777" stroke-width="2" stroke-miterlimit="10" stroke-linecap="round" stroke-linejoin="round"/>
<path d="M3.46973 6.55859C3.46973 6.55859 5.86199 4.02515 9.09119 2.98307L11.5591 9.31979C11.5591 9.31979 8.37203 10.4664 5.76995 12.9117L3.55163 6.79259L3.46973 6.55859ZM11.5591 9.31979L14.2205 16.1518C14.2205 16.1518 16.3132 15.4077 17.7539 15.4077C19.1945 15.4077 20.6227 15.6191 20.6227 15.6191L18.6906 8.35337C18.6906 8.35337 18.1446 8.27615 17.4715 8.27615C14.2462 8.27615 11.5591 9.31979 11.5591 9.31979ZM8.36189 20.1048L10.6161 26.5086C10.6161 26.5086 13.7337 23.5197 16.7032 22.6789L14.2205 16.1518C11.361 17.2532 8.36189 20.1048 8.36189 20.1048ZM16.9076 1.64615L18.6914 8.35259C20.1344 8.35259 24.1467 10.319 24.1467 10.319L22.5649 3.39335C21.6578 3.05405 19.2827 1.75847 16.9076 1.64615ZM20.6227 15.6191L22.4596 22.5221C23.3847 22.5221 26.0367 23.6523 27.1903 23.6523L25.6397 16.8647C24.1467 16.4763 21.7303 15.7743 20.6227 15.6191ZM24.1467 10.319L25.6404 16.8655C25.6404 16.8655 27.1349 17.1416 28.1606 17.1416C29.1855 17.1416 30.464 16.9092 30.464 16.9092L29.9788 10.9157C29.9788 10.9157 28.989 11.223 27.7893 11.223C25.9158 11.223 24.1467 10.319 24.1467 10.319ZM29.4547 4.42295L29.9796 10.9149C29.9796 10.9149 32.4202 10.3018 35.1003 8.27537L35.0987 1.55957C32.0216 3.91673 29.4547 4.42295 29.4547 4.42295ZM30.464 16.9092C30.464 16.9092 32.8157 16.4732 35.0987 15.1472V22.2069C32.6675 23.3738 30.9952 23.5852 30.9952 23.5852L30.464 16.9092Z" fill="#777777"/>
</svg>
