<svg width="100" height="100" viewBox="0 0 100 100" fill="none" xmlns="http://www.w3.org/2000/svg">
<rect x="0.5" y="0.5" width="99" height="99" rx="49.5" stroke="#037DB1" stroke-opacity="0.3"/>
<path d="M63 51.2998V58.6998C63 64.9398 57.18 69.9998 50 69.9998C42.82 69.9998 37 64.9398 37 58.6998V51.2998C37 57.5398 42.82 61.9998 50 61.9998C57.18 61.9998 63 57.5398 63 51.2998Z" fill="#037DB1"/>
<path opacity="0.4" d="M63 41.2998V51.2998C63 57.5398 57.18 61.9998 50 61.9998C42.82 61.9998 37 57.5398 37 51.2998V41.2998C37 43.1198 37.5 44.7998 38.38 46.2398C40.52 49.7598 44.92 51.9998 50 51.9998C55.08 51.9998 59.48 49.7598 61.62 46.2398C62.5 44.7998 63 43.1198 63 41.2998Z" fill="#037DB1"/>
<path d="M63 41.3C63 43.12 62.5 44.8 61.62 46.24C59.48 49.76 55.08 52 50 52C44.92 52 40.52 49.76 38.38 46.24C37.5 44.8 37 43.12 37 41.3C37 35.06 42.82 30 50 30C53.6 30 56.84 31.26 59.2 33.3C61.54 35.36 63 38.18 63 41.3Z" fill="#037DB1"/>
</svg>
